G04 #@! TF.FileFunction,Other,Fab,Top*
%FSLAX46Y46*%
G04 Gerber Fmt 4.6, Leading zero omitted, Abs format (unit mm)*
G04 Created by KiCad (PCBNEW 4.0.7-e2-6376~58~ubuntu14.04.1) date Wed Aug  8 15:05:30 2018*
%MOMM*%
%LPD*%
G01*
G04 APERTURE LIST*
%ADD10C,0.100000*%
%ADD11C,0.200000*%
%ADD12C,0.300000*%
G04 APERTURE END LIST*
D10*
D11*
X131000000Y-92000000D02*
X133000000Y-92000000D01*
X131000000Y-92000000D02*
X131000000Y-94000000D01*
X136000000Y-97000000D02*
X131000000Y-92000000D01*
X143000000Y-97000000D02*
X136000000Y-97000000D01*
X147000000Y-97000000D02*
X143000000Y-97000000D01*
X155000000Y-89000000D02*
X147000000Y-97000000D01*
X155000000Y-63000000D02*
X155000000Y-89000000D01*
X143000000Y-63000000D02*
X189000000Y-63000000D01*
X136000000Y-70000000D02*
X143000000Y-63000000D01*
X136000000Y-70000000D02*
X138000000Y-70000000D01*
X136000000Y-70000000D02*
X136000000Y-68000000D01*
D12*
X157892857Y-60178571D02*
X158392857Y-61678571D01*
X158892857Y-60178571D01*
X159392857Y-61107143D02*
X160535714Y-61107143D01*
X161178571Y-61607143D02*
X161392857Y-61678571D01*
X161750000Y-61678571D01*
X161892857Y-61607143D01*
X161964286Y-61535714D01*
X162035714Y-61392857D01*
X162035714Y-61250000D01*
X161964286Y-61107143D01*
X161892857Y-61035714D01*
X161750000Y-60964286D01*
X161464286Y-60892857D01*
X161321428Y-60821429D01*
X161250000Y-60750000D01*
X161178571Y-60607143D01*
X161178571Y-60464286D01*
X161250000Y-60321429D01*
X161321428Y-60250000D01*
X161464286Y-60178571D01*
X161821428Y-60178571D01*
X162035714Y-60250000D01*
X163535714Y-61535714D02*
X163464285Y-61607143D01*
X163249999Y-61678571D01*
X163107142Y-61678571D01*
X162892857Y-61607143D01*
X162749999Y-61464286D01*
X162678571Y-61321429D01*
X162607142Y-61035714D01*
X162607142Y-60821429D01*
X162678571Y-60535714D01*
X162749999Y-60392857D01*
X162892857Y-60250000D01*
X163107142Y-60178571D01*
X163249999Y-60178571D01*
X163464285Y-60250000D01*
X163535714Y-60321429D01*
X164464285Y-60178571D02*
X164749999Y-60178571D01*
X164892857Y-60250000D01*
X165035714Y-60392857D01*
X165107142Y-60678571D01*
X165107142Y-61178571D01*
X165035714Y-61464286D01*
X164892857Y-61607143D01*
X164749999Y-61678571D01*
X164464285Y-61678571D01*
X164321428Y-61607143D01*
X164178571Y-61464286D01*
X164107142Y-61178571D01*
X164107142Y-60678571D01*
X164178571Y-60392857D01*
X164321428Y-60250000D01*
X164464285Y-60178571D01*
X166607143Y-61678571D02*
X166107143Y-60964286D01*
X165750000Y-61678571D02*
X165750000Y-60178571D01*
X166321428Y-60178571D01*
X166464286Y-60250000D01*
X166535714Y-60321429D01*
X166607143Y-60464286D01*
X166607143Y-60678571D01*
X166535714Y-60821429D01*
X166464286Y-60892857D01*
X166321428Y-60964286D01*
X165750000Y-60964286D01*
X167250000Y-60892857D02*
X167750000Y-60892857D01*
X167964286Y-61678571D02*
X167250000Y-61678571D01*
X167250000Y-60178571D01*
X167964286Y-60178571D01*
X169750000Y-61678571D02*
X169750000Y-60178571D01*
X170321428Y-60178571D01*
X170464286Y-60250000D01*
X170535714Y-60321429D01*
X170607143Y-60464286D01*
X170607143Y-60678571D01*
X170535714Y-60821429D01*
X170464286Y-60892857D01*
X170321428Y-60964286D01*
X169750000Y-60964286D01*
X171178571Y-61250000D02*
X171892857Y-61250000D01*
X171035714Y-61678571D02*
X171535714Y-60178571D01*
X172035714Y-61678571D01*
X173392857Y-61678571D02*
X172892857Y-60964286D01*
X172535714Y-61678571D02*
X172535714Y-60178571D01*
X173107142Y-60178571D01*
X173250000Y-60250000D01*
X173321428Y-60321429D01*
X173392857Y-60464286D01*
X173392857Y-60678571D01*
X173321428Y-60821429D01*
X173250000Y-60892857D01*
X173107142Y-60964286D01*
X172535714Y-60964286D01*
X173964285Y-61250000D02*
X174678571Y-61250000D01*
X173821428Y-61678571D02*
X174321428Y-60178571D01*
X174821428Y-61678571D01*
X176035714Y-61678571D02*
X175321428Y-61678571D01*
X175321428Y-60178571D01*
X177250000Y-61678571D02*
X176535714Y-61678571D01*
X176535714Y-60178571D01*
X177750000Y-60892857D02*
X178250000Y-60892857D01*
X178464286Y-61678571D02*
X177750000Y-61678571D01*
X177750000Y-60178571D01*
X178464286Y-60178571D01*
X179821429Y-61678571D02*
X179107143Y-61678571D01*
X179107143Y-60178571D01*
X181464286Y-60892857D02*
X181964286Y-60892857D01*
X182178572Y-61678571D02*
X181464286Y-61678571D01*
X181464286Y-60178571D01*
X182178572Y-60178571D01*
X182821429Y-61678571D02*
X182821429Y-60178571D01*
X183178572Y-60178571D01*
X183392857Y-60250000D01*
X183535715Y-60392857D01*
X183607143Y-60535714D01*
X183678572Y-60821429D01*
X183678572Y-61035714D01*
X183607143Y-61321429D01*
X183535715Y-61464286D01*
X183392857Y-61607143D01*
X183178572Y-61678571D01*
X182821429Y-61678571D01*
X185107143Y-60250000D02*
X184964286Y-60178571D01*
X184750000Y-60178571D01*
X184535715Y-60250000D01*
X184392857Y-60392857D01*
X184321429Y-60535714D01*
X184250000Y-60821429D01*
X184250000Y-61035714D01*
X184321429Y-61321429D01*
X184392857Y-61464286D01*
X184535715Y-61607143D01*
X184750000Y-61678571D01*
X184892857Y-61678571D01*
X185107143Y-61607143D01*
X185178572Y-61535714D01*
X185178572Y-61035714D01*
X184892857Y-61035714D01*
X185821429Y-60892857D02*
X186321429Y-60892857D01*
X186535715Y-61678571D02*
X185821429Y-61678571D01*
X185821429Y-60178571D01*
X186535715Y-60178571D01*
X187107143Y-61607143D02*
X187321429Y-61678571D01*
X187678572Y-61678571D01*
X187821429Y-61607143D01*
X187892858Y-61535714D01*
X187964286Y-61392857D01*
X187964286Y-61250000D01*
X187892858Y-61107143D01*
X187821429Y-61035714D01*
X187678572Y-60964286D01*
X187392858Y-60892857D01*
X187250000Y-60821429D01*
X187178572Y-60750000D01*
X187107143Y-60607143D01*
X187107143Y-60464286D01*
X187178572Y-60321429D01*
X187250000Y-60250000D01*
X187392858Y-60178571D01*
X187750000Y-60178571D01*
X187964286Y-60250000D01*
D11*
X90000000Y-77000000D02*
X90000000Y-75000000D01*
X90000000Y-77000000D02*
X88000000Y-77000000D01*
X86000000Y-73000000D02*
X90000000Y-77000000D01*
X83000000Y-73000000D02*
X86000000Y-73000000D01*
X47000000Y-73000000D02*
X83000000Y-73000000D01*
D12*
X53249999Y-69403571D02*
X52749999Y-68689286D01*
X52392856Y-69403571D02*
X52392856Y-67903571D01*
X52964284Y-67903571D01*
X53107142Y-67975000D01*
X53178570Y-68046429D01*
X53249999Y-68189286D01*
X53249999Y-68403571D01*
X53178570Y-68546429D01*
X53107142Y-68617857D01*
X52964284Y-68689286D01*
X52392856Y-68689286D01*
X54178570Y-67903571D02*
X54464284Y-67903571D01*
X54607142Y-67975000D01*
X54749999Y-68117857D01*
X54821427Y-68403571D01*
X54821427Y-68903571D01*
X54749999Y-69189286D01*
X54607142Y-69332143D01*
X54464284Y-69403571D01*
X54178570Y-69403571D01*
X54035713Y-69332143D01*
X53892856Y-69189286D01*
X53821427Y-68903571D01*
X53821427Y-68403571D01*
X53892856Y-68117857D01*
X54035713Y-67975000D01*
X54178570Y-67903571D01*
X55464285Y-67903571D02*
X55464285Y-69117857D01*
X55535713Y-69260714D01*
X55607142Y-69332143D01*
X55749999Y-69403571D01*
X56035713Y-69403571D01*
X56178571Y-69332143D01*
X56249999Y-69260714D01*
X56321428Y-69117857D01*
X56321428Y-67903571D01*
X56821428Y-67903571D02*
X57678571Y-67903571D01*
X57250000Y-69403571D02*
X57250000Y-67903571D01*
X58178571Y-68617857D02*
X58678571Y-68617857D01*
X58892857Y-69403571D02*
X58178571Y-69403571D01*
X58178571Y-67903571D01*
X58892857Y-67903571D01*
X61178571Y-68617857D02*
X61392857Y-68689286D01*
X61464285Y-68760714D01*
X61535714Y-68903571D01*
X61535714Y-69117857D01*
X61464285Y-69260714D01*
X61392857Y-69332143D01*
X61249999Y-69403571D01*
X60678571Y-69403571D01*
X60678571Y-67903571D01*
X61178571Y-67903571D01*
X61321428Y-67975000D01*
X61392857Y-68046429D01*
X61464285Y-68189286D01*
X61464285Y-68332143D01*
X61392857Y-68475000D01*
X61321428Y-68546429D01*
X61178571Y-68617857D01*
X60678571Y-68617857D01*
X62464285Y-67903571D02*
X62749999Y-67903571D01*
X62892857Y-67975000D01*
X63035714Y-68117857D01*
X63107142Y-68403571D01*
X63107142Y-68903571D01*
X63035714Y-69189286D01*
X62892857Y-69332143D01*
X62749999Y-69403571D01*
X62464285Y-69403571D01*
X62321428Y-69332143D01*
X62178571Y-69189286D01*
X62107142Y-68903571D01*
X62107142Y-68403571D01*
X62178571Y-68117857D01*
X62321428Y-67975000D01*
X62464285Y-67903571D01*
X63678571Y-68975000D02*
X64392857Y-68975000D01*
X63535714Y-69403571D02*
X64035714Y-67903571D01*
X64535714Y-69403571D01*
X65892857Y-69403571D02*
X65392857Y-68689286D01*
X65035714Y-69403571D02*
X65035714Y-67903571D01*
X65607142Y-67903571D01*
X65750000Y-67975000D01*
X65821428Y-68046429D01*
X65892857Y-68189286D01*
X65892857Y-68403571D01*
X65821428Y-68546429D01*
X65750000Y-68617857D01*
X65607142Y-68689286D01*
X65035714Y-68689286D01*
X66535714Y-69403571D02*
X66535714Y-67903571D01*
X66892857Y-67903571D01*
X67107142Y-67975000D01*
X67250000Y-68117857D01*
X67321428Y-68260714D01*
X67392857Y-68546429D01*
X67392857Y-68760714D01*
X67321428Y-69046429D01*
X67250000Y-69189286D01*
X67107142Y-69332143D01*
X66892857Y-69403571D01*
X66535714Y-69403571D01*
X69464285Y-67903571D02*
X69749999Y-67903571D01*
X69892857Y-67975000D01*
X70035714Y-68117857D01*
X70107142Y-68403571D01*
X70107142Y-68903571D01*
X70035714Y-69189286D01*
X69892857Y-69332143D01*
X69749999Y-69403571D01*
X69464285Y-69403571D01*
X69321428Y-69332143D01*
X69178571Y-69189286D01*
X69107142Y-68903571D01*
X69107142Y-68403571D01*
X69178571Y-68117857D01*
X69321428Y-67975000D01*
X69464285Y-67903571D01*
X70750000Y-67903571D02*
X70750000Y-69117857D01*
X70821428Y-69260714D01*
X70892857Y-69332143D01*
X71035714Y-69403571D01*
X71321428Y-69403571D01*
X71464286Y-69332143D01*
X71535714Y-69260714D01*
X71607143Y-69117857D01*
X71607143Y-67903571D01*
X72107143Y-67903571D02*
X72964286Y-67903571D01*
X72535715Y-69403571D02*
X72535715Y-67903571D01*
X74178572Y-69403571D02*
X73464286Y-69403571D01*
X73464286Y-67903571D01*
X74678572Y-69403571D02*
X74678572Y-67903571D01*
X75392858Y-69403571D02*
X75392858Y-67903571D01*
X76250001Y-69403571D01*
X76250001Y-67903571D01*
X76964287Y-68617857D02*
X77464287Y-68617857D01*
X77678573Y-69403571D02*
X76964287Y-69403571D01*
X76964287Y-67903571D01*
X77678573Y-67903571D01*
X48142857Y-71167857D02*
X48642857Y-71167857D01*
X48857143Y-71953571D02*
X48142857Y-71953571D01*
X48142857Y-70453571D01*
X48857143Y-70453571D01*
X49357143Y-70453571D02*
X50357143Y-71953571D01*
X50357143Y-70453571D02*
X49357143Y-71953571D01*
X51785714Y-71810714D02*
X51714285Y-71882143D01*
X51499999Y-71953571D01*
X51357142Y-71953571D01*
X51142857Y-71882143D01*
X50999999Y-71739286D01*
X50928571Y-71596429D01*
X50857142Y-71310714D01*
X50857142Y-71096429D01*
X50928571Y-70810714D01*
X50999999Y-70667857D01*
X51142857Y-70525000D01*
X51357142Y-70453571D01*
X51499999Y-70453571D01*
X51714285Y-70525000D01*
X51785714Y-70596429D01*
X52428571Y-71167857D02*
X52928571Y-71167857D01*
X53142857Y-71953571D02*
X52428571Y-71953571D01*
X52428571Y-70453571D01*
X53142857Y-70453571D01*
X53785714Y-71953571D02*
X53785714Y-70453571D01*
X54357142Y-70453571D01*
X54500000Y-70525000D01*
X54571428Y-70596429D01*
X54642857Y-70739286D01*
X54642857Y-70953571D01*
X54571428Y-71096429D01*
X54500000Y-71167857D01*
X54357142Y-71239286D01*
X53785714Y-71239286D01*
X55071428Y-70453571D02*
X55928571Y-70453571D01*
X55500000Y-71953571D02*
X55500000Y-70453571D01*
X58071428Y-71167857D02*
X57571428Y-71167857D01*
X57571428Y-71953571D02*
X57571428Y-70453571D01*
X58285714Y-70453571D01*
X59142856Y-70453571D02*
X59428570Y-70453571D01*
X59571428Y-70525000D01*
X59714285Y-70667857D01*
X59785713Y-70953571D01*
X59785713Y-71453571D01*
X59714285Y-71739286D01*
X59571428Y-71882143D01*
X59428570Y-71953571D01*
X59142856Y-71953571D01*
X58999999Y-71882143D01*
X58857142Y-71739286D01*
X58785713Y-71453571D01*
X58785713Y-70953571D01*
X58857142Y-70667857D01*
X58999999Y-70525000D01*
X59142856Y-70453571D01*
X61285714Y-71953571D02*
X60785714Y-71239286D01*
X60428571Y-71953571D02*
X60428571Y-70453571D01*
X60999999Y-70453571D01*
X61142857Y-70525000D01*
X61214285Y-70596429D01*
X61285714Y-70739286D01*
X61285714Y-70953571D01*
X61214285Y-71096429D01*
X61142857Y-71167857D01*
X60999999Y-71239286D01*
X60428571Y-71239286D01*
X62857142Y-70453571D02*
X63714285Y-70453571D01*
X63285714Y-71953571D02*
X63285714Y-70453571D01*
X64499999Y-70453571D02*
X64785713Y-70453571D01*
X64928571Y-70525000D01*
X65071428Y-70667857D01*
X65142856Y-70953571D01*
X65142856Y-71453571D01*
X65071428Y-71739286D01*
X64928571Y-71882143D01*
X64785713Y-71953571D01*
X64499999Y-71953571D01*
X64357142Y-71882143D01*
X64214285Y-71739286D01*
X64142856Y-71453571D01*
X64142856Y-70953571D01*
X64214285Y-70667857D01*
X64357142Y-70525000D01*
X64499999Y-70453571D01*
X65785714Y-71953571D02*
X65785714Y-70453571D01*
X66357142Y-70453571D01*
X66500000Y-70525000D01*
X66571428Y-70596429D01*
X66642857Y-70739286D01*
X66642857Y-70953571D01*
X66571428Y-71096429D01*
X66500000Y-71167857D01*
X66357142Y-71239286D01*
X65785714Y-71239286D01*
X68357142Y-71525000D02*
X69071428Y-71525000D01*
X68214285Y-71953571D02*
X68714285Y-70453571D01*
X69214285Y-71953571D01*
X69714285Y-71953571D02*
X69714285Y-70453571D01*
X70571428Y-71953571D01*
X70571428Y-70453571D01*
X71285714Y-71953571D02*
X71285714Y-70453571D01*
X71642857Y-70453571D01*
X71857142Y-70525000D01*
X72000000Y-70667857D01*
X72071428Y-70810714D01*
X72142857Y-71096429D01*
X72142857Y-71310714D01*
X72071428Y-71596429D01*
X72000000Y-71739286D01*
X71857142Y-71882143D01*
X71642857Y-71953571D01*
X71285714Y-71953571D01*
X74428571Y-71167857D02*
X74642857Y-71239286D01*
X74714285Y-71310714D01*
X74785714Y-71453571D01*
X74785714Y-71667857D01*
X74714285Y-71810714D01*
X74642857Y-71882143D01*
X74499999Y-71953571D01*
X73928571Y-71953571D01*
X73928571Y-70453571D01*
X74428571Y-70453571D01*
X74571428Y-70525000D01*
X74642857Y-70596429D01*
X74714285Y-70739286D01*
X74714285Y-70882143D01*
X74642857Y-71025000D01*
X74571428Y-71096429D01*
X74428571Y-71167857D01*
X73928571Y-71167857D01*
X75714285Y-70453571D02*
X75999999Y-70453571D01*
X76142857Y-70525000D01*
X76285714Y-70667857D01*
X76357142Y-70953571D01*
X76357142Y-71453571D01*
X76285714Y-71739286D01*
X76142857Y-71882143D01*
X75999999Y-71953571D01*
X75714285Y-71953571D01*
X75571428Y-71882143D01*
X75428571Y-71739286D01*
X75357142Y-71453571D01*
X75357142Y-70953571D01*
X75428571Y-70667857D01*
X75571428Y-70525000D01*
X75714285Y-70453571D01*
X76785714Y-70453571D02*
X77642857Y-70453571D01*
X77214286Y-71953571D02*
X77214286Y-70453571D01*
X77928571Y-70453571D02*
X78785714Y-70453571D01*
X78357143Y-71953571D02*
X78357143Y-70453571D01*
X79571428Y-70453571D02*
X79857142Y-70453571D01*
X80000000Y-70525000D01*
X80142857Y-70667857D01*
X80214285Y-70953571D01*
X80214285Y-71453571D01*
X80142857Y-71739286D01*
X80000000Y-71882143D01*
X79857142Y-71953571D01*
X79571428Y-71953571D01*
X79428571Y-71882143D01*
X79285714Y-71739286D01*
X79214285Y-71453571D01*
X79214285Y-70953571D01*
X79285714Y-70667857D01*
X79428571Y-70525000D01*
X79571428Y-70453571D01*
X80857143Y-71953571D02*
X80857143Y-70453571D01*
X81357143Y-71525000D01*
X81857143Y-70453571D01*
X81857143Y-71953571D01*
D11*
X98000000Y-99000000D02*
X119000000Y-99000000D01*
X92000000Y-93000000D02*
X98000000Y-99000000D01*
X92000000Y-93000000D02*
X94000000Y-93000000D01*
X92000000Y-93000000D02*
X92000000Y-95000000D01*
D12*
X103464285Y-95260714D02*
X103392856Y-95332143D01*
X103178570Y-95403571D01*
X103035713Y-95403571D01*
X102821428Y-95332143D01*
X102678570Y-95189286D01*
X102607142Y-95046429D01*
X102535713Y-94760714D01*
X102535713Y-94546429D01*
X102607142Y-94260714D01*
X102678570Y-94117857D01*
X102821428Y-93975000D01*
X103035713Y-93903571D01*
X103178570Y-93903571D01*
X103392856Y-93975000D01*
X103464285Y-94046429D01*
X104392856Y-93903571D02*
X104678570Y-93903571D01*
X104821428Y-93975000D01*
X104964285Y-94117857D01*
X105035713Y-94403571D01*
X105035713Y-94903571D01*
X104964285Y-95189286D01*
X104821428Y-95332143D01*
X104678570Y-95403571D01*
X104392856Y-95403571D01*
X104249999Y-95332143D01*
X104107142Y-95189286D01*
X104035713Y-94903571D01*
X104035713Y-94403571D01*
X104107142Y-94117857D01*
X104249999Y-93975000D01*
X104392856Y-93903571D01*
X105678571Y-95403571D02*
X105678571Y-93903571D01*
X106178571Y-94975000D01*
X106678571Y-93903571D01*
X106678571Y-95403571D01*
X107392857Y-95403571D02*
X107392857Y-93903571D01*
X107964285Y-93903571D01*
X108107143Y-93975000D01*
X108178571Y-94046429D01*
X108250000Y-94189286D01*
X108250000Y-94403571D01*
X108178571Y-94546429D01*
X108107143Y-94617857D01*
X107964285Y-94689286D01*
X107392857Y-94689286D01*
X109178571Y-93903571D02*
X109464285Y-93903571D01*
X109607143Y-93975000D01*
X109750000Y-94117857D01*
X109821428Y-94403571D01*
X109821428Y-94903571D01*
X109750000Y-95189286D01*
X109607143Y-95332143D01*
X109464285Y-95403571D01*
X109178571Y-95403571D01*
X109035714Y-95332143D01*
X108892857Y-95189286D01*
X108821428Y-94903571D01*
X108821428Y-94403571D01*
X108892857Y-94117857D01*
X109035714Y-93975000D01*
X109178571Y-93903571D01*
X110464286Y-95403571D02*
X110464286Y-93903571D01*
X111321429Y-95403571D01*
X111321429Y-93903571D01*
X112035715Y-94617857D02*
X112535715Y-94617857D01*
X112750001Y-95403571D02*
X112035715Y-95403571D01*
X112035715Y-93903571D01*
X112750001Y-93903571D01*
X113392858Y-95403571D02*
X113392858Y-93903571D01*
X114250001Y-95403571D01*
X114250001Y-93903571D01*
X114750001Y-93903571D02*
X115607144Y-93903571D01*
X115178573Y-95403571D02*
X115178573Y-93903571D01*
X99892856Y-97953571D02*
X99892856Y-96453571D01*
X100464284Y-96453571D01*
X100607142Y-96525000D01*
X100678570Y-96596429D01*
X100749999Y-96739286D01*
X100749999Y-96953571D01*
X100678570Y-97096429D01*
X100607142Y-97167857D01*
X100464284Y-97239286D01*
X99892856Y-97239286D01*
X101678570Y-96453571D02*
X101964284Y-96453571D01*
X102107142Y-96525000D01*
X102249999Y-96667857D01*
X102321427Y-96953571D01*
X102321427Y-97453571D01*
X102249999Y-97739286D01*
X102107142Y-97882143D01*
X101964284Y-97953571D01*
X101678570Y-97953571D01*
X101535713Y-97882143D01*
X101392856Y-97739286D01*
X101321427Y-97453571D01*
X101321427Y-96953571D01*
X101392856Y-96667857D01*
X101535713Y-96525000D01*
X101678570Y-96453571D01*
X102892856Y-97882143D02*
X103107142Y-97953571D01*
X103464285Y-97953571D01*
X103607142Y-97882143D01*
X103678571Y-97810714D01*
X103749999Y-97667857D01*
X103749999Y-97525000D01*
X103678571Y-97382143D01*
X103607142Y-97310714D01*
X103464285Y-97239286D01*
X103178571Y-97167857D01*
X103035713Y-97096429D01*
X102964285Y-97025000D01*
X102892856Y-96882143D01*
X102892856Y-96739286D01*
X102964285Y-96596429D01*
X103035713Y-96525000D01*
X103178571Y-96453571D01*
X103535713Y-96453571D01*
X103749999Y-96525000D01*
X104392856Y-97953571D02*
X104392856Y-96453571D01*
X104892856Y-96453571D02*
X105749999Y-96453571D01*
X105321428Y-97953571D02*
X105321428Y-96453571D01*
X106249999Y-97953571D02*
X106249999Y-96453571D01*
X107249999Y-96453571D02*
X107535713Y-96453571D01*
X107678571Y-96525000D01*
X107821428Y-96667857D01*
X107892856Y-96953571D01*
X107892856Y-97453571D01*
X107821428Y-97739286D01*
X107678571Y-97882143D01*
X107535713Y-97953571D01*
X107249999Y-97953571D01*
X107107142Y-97882143D01*
X106964285Y-97739286D01*
X106892856Y-97453571D01*
X106892856Y-96953571D01*
X106964285Y-96667857D01*
X107107142Y-96525000D01*
X107249999Y-96453571D01*
X108535714Y-97953571D02*
X108535714Y-96453571D01*
X109392857Y-97953571D01*
X109392857Y-96453571D01*
X111535714Y-96453571D02*
X111821428Y-96453571D01*
X111964286Y-96525000D01*
X112107143Y-96667857D01*
X112178571Y-96953571D01*
X112178571Y-97453571D01*
X112107143Y-97739286D01*
X111964286Y-97882143D01*
X111821428Y-97953571D01*
X111535714Y-97953571D01*
X111392857Y-97882143D01*
X111250000Y-97739286D01*
X111178571Y-97453571D01*
X111178571Y-96953571D01*
X111250000Y-96667857D01*
X111392857Y-96525000D01*
X111535714Y-96453571D01*
X113678572Y-97953571D02*
X113178572Y-97239286D01*
X112821429Y-97953571D02*
X112821429Y-96453571D01*
X113392857Y-96453571D01*
X113535715Y-96525000D01*
X113607143Y-96596429D01*
X113678572Y-96739286D01*
X113678572Y-96953571D01*
X113607143Y-97096429D01*
X113535715Y-97167857D01*
X113392857Y-97239286D01*
X112821429Y-97239286D01*
X114321429Y-97953571D02*
X114321429Y-96453571D01*
X115821429Y-96525000D02*
X115678572Y-96453571D01*
X115464286Y-96453571D01*
X115250001Y-96525000D01*
X115107143Y-96667857D01*
X115035715Y-96810714D01*
X114964286Y-97096429D01*
X114964286Y-97310714D01*
X115035715Y-97596429D01*
X115107143Y-97739286D01*
X115250001Y-97882143D01*
X115464286Y-97953571D01*
X115607143Y-97953571D01*
X115821429Y-97882143D01*
X115892858Y-97810714D01*
X115892858Y-97310714D01*
X115607143Y-97310714D01*
X116535715Y-97953571D02*
X116535715Y-96453571D01*
X117250001Y-97953571D02*
X117250001Y-96453571D01*
X118107144Y-97953571D01*
X118107144Y-96453571D01*
X74107143Y-124903571D02*
X74107143Y-123403571D01*
X74964286Y-124903571D01*
X74964286Y-123403571D01*
X75964286Y-123403571D02*
X76250000Y-123403571D01*
X76392858Y-123475000D01*
X76535715Y-123617857D01*
X76607143Y-123903571D01*
X76607143Y-124403571D01*
X76535715Y-124689286D01*
X76392858Y-124832143D01*
X76250000Y-124903571D01*
X75964286Y-124903571D01*
X75821429Y-124832143D01*
X75678572Y-124689286D01*
X75607143Y-124403571D01*
X75607143Y-123903571D01*
X75678572Y-123617857D01*
X75821429Y-123475000D01*
X75964286Y-123403571D01*
X77035715Y-123403571D02*
X77892858Y-123403571D01*
X77464287Y-124903571D02*
X77464287Y-123403571D01*
X78392858Y-124117857D02*
X78892858Y-124117857D01*
X79107144Y-124903571D02*
X78392858Y-124903571D01*
X78392858Y-123403571D01*
X79107144Y-123403571D01*
X79678572Y-124832143D02*
X79892858Y-124903571D01*
X80250001Y-124903571D01*
X80392858Y-124832143D01*
X80464287Y-124760714D01*
X80535715Y-124617857D01*
X80535715Y-124475000D01*
X80464287Y-124332143D01*
X80392858Y-124260714D01*
X80250001Y-124189286D01*
X79964287Y-124117857D01*
X79821429Y-124046429D01*
X79750001Y-123975000D01*
X79678572Y-123832143D01*
X79678572Y-123689286D01*
X79750001Y-123546429D01*
X79821429Y-123475000D01*
X79964287Y-123403571D01*
X80321429Y-123403571D01*
X80535715Y-123475000D01*
X81178572Y-124760714D02*
X81250000Y-124832143D01*
X81178572Y-124903571D01*
X81107143Y-124832143D01*
X81178572Y-124760714D01*
X81178572Y-124903571D01*
X81178572Y-123975000D02*
X81250000Y-124046429D01*
X81178572Y-124117857D01*
X81107143Y-124046429D01*
X81178572Y-123975000D01*
X81178572Y-124117857D01*
X74892857Y-127453571D02*
X74035714Y-127453571D01*
X74464286Y-127453571D02*
X74464286Y-125953571D01*
X74321429Y-126167857D01*
X74178571Y-126310714D01*
X74035714Y-126382143D01*
X75535714Y-127310714D02*
X75607142Y-127382143D01*
X75535714Y-127453571D01*
X75464285Y-127382143D01*
X75535714Y-127310714D01*
X75535714Y-127453571D01*
X77892857Y-126667857D02*
X77392857Y-126667857D01*
X77392857Y-127453571D02*
X77392857Y-125953571D01*
X78107143Y-125953571D01*
X78964285Y-125953571D02*
X79249999Y-125953571D01*
X79392857Y-126025000D01*
X79535714Y-126167857D01*
X79607142Y-126453571D01*
X79607142Y-126953571D01*
X79535714Y-127239286D01*
X79392857Y-127382143D01*
X79249999Y-127453571D01*
X78964285Y-127453571D01*
X78821428Y-127382143D01*
X78678571Y-127239286D01*
X78607142Y-126953571D01*
X78607142Y-126453571D01*
X78678571Y-126167857D01*
X78821428Y-126025000D01*
X78964285Y-125953571D01*
X80535714Y-125953571D02*
X80821428Y-125953571D01*
X80964286Y-126025000D01*
X81107143Y-126167857D01*
X81178571Y-126453571D01*
X81178571Y-126953571D01*
X81107143Y-127239286D01*
X80964286Y-127382143D01*
X80821428Y-127453571D01*
X80535714Y-127453571D01*
X80392857Y-127382143D01*
X80250000Y-127239286D01*
X80178571Y-126953571D01*
X80178571Y-126453571D01*
X80250000Y-126167857D01*
X80392857Y-126025000D01*
X80535714Y-125953571D01*
X81607143Y-125953571D02*
X82464286Y-125953571D01*
X82035715Y-127453571D02*
X82035715Y-125953571D01*
X82964286Y-127453571D02*
X82964286Y-125953571D01*
X83535714Y-125953571D01*
X83678572Y-126025000D01*
X83750000Y-126096429D01*
X83821429Y-126239286D01*
X83821429Y-126453571D01*
X83750000Y-126596429D01*
X83678572Y-126667857D01*
X83535714Y-126739286D01*
X82964286Y-126739286D01*
X85321429Y-127453571D02*
X84821429Y-126739286D01*
X84464286Y-127453571D02*
X84464286Y-125953571D01*
X85035714Y-125953571D01*
X85178572Y-126025000D01*
X85250000Y-126096429D01*
X85321429Y-126239286D01*
X85321429Y-126453571D01*
X85250000Y-126596429D01*
X85178572Y-126667857D01*
X85035714Y-126739286D01*
X84464286Y-126739286D01*
X85964286Y-127453571D02*
X85964286Y-125953571D01*
X86678572Y-127453571D02*
X86678572Y-125953571D01*
X87535715Y-127453571D01*
X87535715Y-125953571D01*
X88035715Y-125953571D02*
X88892858Y-125953571D01*
X88464287Y-127453571D02*
X88464287Y-125953571D01*
X89321429Y-127382143D02*
X89535715Y-127453571D01*
X89892858Y-127453571D01*
X90035715Y-127382143D01*
X90107144Y-127310714D01*
X90178572Y-127167857D01*
X90178572Y-127025000D01*
X90107144Y-126882143D01*
X90035715Y-126810714D01*
X89892858Y-126739286D01*
X89607144Y-126667857D01*
X89464286Y-126596429D01*
X89392858Y-126525000D01*
X89321429Y-126382143D01*
X89321429Y-126239286D01*
X89392858Y-126096429D01*
X89464286Y-126025000D01*
X89607144Y-125953571D01*
X89964286Y-125953571D01*
X90178572Y-126025000D01*
X92250000Y-125953571D02*
X92535714Y-125953571D01*
X92678572Y-126025000D01*
X92821429Y-126167857D01*
X92892857Y-126453571D01*
X92892857Y-126953571D01*
X92821429Y-127239286D01*
X92678572Y-127382143D01*
X92535714Y-127453571D01*
X92250000Y-127453571D01*
X92107143Y-127382143D01*
X91964286Y-127239286D01*
X91892857Y-126953571D01*
X91892857Y-126453571D01*
X91964286Y-126167857D01*
X92107143Y-126025000D01*
X92250000Y-125953571D01*
X94392858Y-127453571D02*
X93892858Y-126739286D01*
X93535715Y-127453571D02*
X93535715Y-125953571D01*
X94107143Y-125953571D01*
X94250001Y-126025000D01*
X94321429Y-126096429D01*
X94392858Y-126239286D01*
X94392858Y-126453571D01*
X94321429Y-126596429D01*
X94250001Y-126667857D01*
X94107143Y-126739286D01*
X93535715Y-126739286D01*
X95035715Y-127453571D02*
X95035715Y-125953571D01*
X95750001Y-126667857D02*
X96250001Y-126667857D01*
X96464287Y-127453571D02*
X95750001Y-127453571D01*
X95750001Y-125953571D01*
X96464287Y-125953571D01*
X97107144Y-127453571D02*
X97107144Y-125953571D01*
X97964287Y-127453571D01*
X97964287Y-125953571D01*
X98464287Y-125953571D02*
X99321430Y-125953571D01*
X98892859Y-127453571D02*
X98892859Y-125953571D01*
X99821430Y-126667857D02*
X100321430Y-126667857D01*
X100535716Y-127453571D02*
X99821430Y-127453571D01*
X99821430Y-125953571D01*
X100535716Y-125953571D01*
X101178573Y-127453571D02*
X101178573Y-125953571D01*
X101535716Y-125953571D01*
X101750001Y-126025000D01*
X101892859Y-126167857D01*
X101964287Y-126310714D01*
X102035716Y-126596429D01*
X102035716Y-126810714D01*
X101964287Y-127096429D01*
X101892859Y-127239286D01*
X101750001Y-127382143D01*
X101535716Y-127453571D01*
X101178573Y-127453571D01*
X103821430Y-127453571D02*
X103821430Y-125953571D01*
X104392858Y-125953571D01*
X104535716Y-126025000D01*
X104607144Y-126096429D01*
X104678573Y-126239286D01*
X104678573Y-126453571D01*
X104607144Y-126596429D01*
X104535716Y-126667857D01*
X104392858Y-126739286D01*
X103821430Y-126739286D01*
X105321430Y-126667857D02*
X105821430Y-126667857D01*
X106035716Y-127453571D02*
X105321430Y-127453571D01*
X105321430Y-125953571D01*
X106035716Y-125953571D01*
X107535716Y-127453571D02*
X107035716Y-126739286D01*
X106678573Y-127453571D02*
X106678573Y-125953571D01*
X107250001Y-125953571D01*
X107392859Y-126025000D01*
X107464287Y-126096429D01*
X107535716Y-126239286D01*
X107535716Y-126453571D01*
X107464287Y-126596429D01*
X107392859Y-126667857D01*
X107250001Y-126739286D01*
X106678573Y-126739286D01*
X109321430Y-127453571D02*
X109321430Y-125953571D01*
X110035716Y-127453571D02*
X110035716Y-125953571D01*
X110607144Y-125953571D01*
X110750002Y-126025000D01*
X110821430Y-126096429D01*
X110892859Y-126239286D01*
X110892859Y-126453571D01*
X110821430Y-126596429D01*
X110750002Y-126667857D01*
X110607144Y-126739286D01*
X110035716Y-126739286D01*
X112392859Y-127310714D02*
X112321430Y-127382143D01*
X112107144Y-127453571D01*
X111964287Y-127453571D01*
X111750002Y-127382143D01*
X111607144Y-127239286D01*
X111535716Y-127096429D01*
X111464287Y-126810714D01*
X111464287Y-126596429D01*
X111535716Y-126310714D01*
X111607144Y-126167857D01*
X111750002Y-126025000D01*
X111964287Y-125953571D01*
X112107144Y-125953571D01*
X112321430Y-126025000D01*
X112392859Y-126096429D01*
X113035716Y-126882143D02*
X114178573Y-126882143D01*
X114750002Y-125953571D02*
X115750002Y-125953571D01*
X115107145Y-127453571D01*
X116178573Y-125953571D02*
X117107144Y-125953571D01*
X116607144Y-126525000D01*
X116821430Y-126525000D01*
X116964287Y-126596429D01*
X117035716Y-126667857D01*
X117107144Y-126810714D01*
X117107144Y-127167857D01*
X117035716Y-127310714D01*
X116964287Y-127382143D01*
X116821430Y-127453571D01*
X116392858Y-127453571D01*
X116250001Y-127382143D01*
X116178573Y-127310714D01*
X118464287Y-125953571D02*
X117750001Y-125953571D01*
X117678572Y-126667857D01*
X117750001Y-126596429D01*
X117892858Y-126525000D01*
X118250001Y-126525000D01*
X118392858Y-126596429D01*
X118464287Y-126667857D01*
X118535715Y-126810714D01*
X118535715Y-127167857D01*
X118464287Y-127310714D01*
X118392858Y-127382143D01*
X118250001Y-127453571D01*
X117892858Y-127453571D01*
X117750001Y-127382143D01*
X117678572Y-127310714D01*
X119964286Y-127453571D02*
X119107143Y-127453571D01*
X119535715Y-127453571D02*
X119535715Y-125953571D01*
X119392858Y-126167857D01*
X119250000Y-126310714D01*
X119107143Y-126382143D01*
X121107143Y-126667857D02*
X120607143Y-126667857D01*
X120607143Y-127453571D02*
X120607143Y-125953571D01*
X121321429Y-125953571D01*
X122750000Y-127310714D02*
X122678571Y-127382143D01*
X122464285Y-127453571D01*
X122321428Y-127453571D01*
X122107143Y-127382143D01*
X121964285Y-127239286D01*
X121892857Y-127096429D01*
X121821428Y-126810714D01*
X121821428Y-126596429D01*
X121892857Y-126310714D01*
X121964285Y-126167857D01*
X122107143Y-126025000D01*
X122321428Y-125953571D01*
X122464285Y-125953571D01*
X122678571Y-126025000D01*
X122750000Y-126096429D01*
X125250000Y-127453571D02*
X124535714Y-127453571D01*
X124535714Y-125953571D01*
X125750000Y-126667857D02*
X126250000Y-126667857D01*
X126464286Y-127453571D02*
X125750000Y-127453571D01*
X125750000Y-125953571D01*
X126464286Y-125953571D01*
X126892857Y-125953571D02*
X127392857Y-127453571D01*
X127892857Y-125953571D01*
X128392857Y-126667857D02*
X128892857Y-126667857D01*
X129107143Y-127453571D02*
X128392857Y-127453571D01*
X128392857Y-125953571D01*
X129107143Y-125953571D01*
X130464286Y-127453571D02*
X129750000Y-127453571D01*
X129750000Y-125953571D01*
X132607143Y-126667857D02*
X132821429Y-126739286D01*
X132892857Y-126810714D01*
X132964286Y-126953571D01*
X132964286Y-127167857D01*
X132892857Y-127310714D01*
X132821429Y-127382143D01*
X132678571Y-127453571D01*
X132107143Y-127453571D01*
X132107143Y-125953571D01*
X132607143Y-125953571D01*
X132750000Y-126025000D01*
X132821429Y-126096429D01*
X132892857Y-126239286D01*
X132892857Y-126382143D01*
X132821429Y-126525000D01*
X132750000Y-126596429D01*
X132607143Y-126667857D01*
X132107143Y-126667857D01*
X135178571Y-128025000D02*
X135107143Y-127953571D01*
X134964286Y-127739286D01*
X134892857Y-127596429D01*
X134821428Y-127382143D01*
X134750000Y-127025000D01*
X134750000Y-126739286D01*
X134821428Y-126382143D01*
X134892857Y-126167857D01*
X134964286Y-126025000D01*
X135107143Y-125810714D01*
X135178571Y-125739286D01*
X135750000Y-127453571D02*
X135750000Y-125953571D01*
X136321428Y-125953571D01*
X136464286Y-126025000D01*
X136535714Y-126096429D01*
X136607143Y-126239286D01*
X136607143Y-126453571D01*
X136535714Y-126596429D01*
X136464286Y-126667857D01*
X136321428Y-126739286D01*
X135750000Y-126739286D01*
X137250000Y-127453571D02*
X137250000Y-125953571D01*
X137964286Y-127453571D02*
X137964286Y-125953571D01*
X138821429Y-127453571D01*
X138821429Y-125953571D01*
X141464286Y-127453571D02*
X140607143Y-127453571D01*
X141035715Y-127453571D02*
X141035715Y-125953571D01*
X140892858Y-126167857D01*
X140750000Y-126310714D01*
X140607143Y-126382143D01*
X143250000Y-127453571D02*
X143250000Y-125953571D01*
X143964286Y-127453571D02*
X143964286Y-125953571D01*
X144821429Y-127453571D01*
X144821429Y-125953571D01*
X147392858Y-127453571D02*
X146678572Y-127453571D01*
X146678572Y-125953571D01*
X148178572Y-125953571D02*
X148464286Y-125953571D01*
X148607144Y-126025000D01*
X148750001Y-126167857D01*
X148821429Y-126453571D01*
X148821429Y-126953571D01*
X148750001Y-127239286D01*
X148607144Y-127382143D01*
X148464286Y-127453571D01*
X148178572Y-127453571D01*
X148035715Y-127382143D01*
X147892858Y-127239286D01*
X147821429Y-126953571D01*
X147821429Y-126453571D01*
X147892858Y-126167857D01*
X148035715Y-126025000D01*
X148178572Y-125953571D01*
X149321430Y-125953571D02*
X149678573Y-127453571D01*
X149964287Y-126382143D01*
X150250001Y-127453571D01*
X150607144Y-125953571D01*
X151178573Y-126667857D02*
X151678573Y-126667857D01*
X151892859Y-127453571D02*
X151178573Y-127453571D01*
X151178573Y-125953571D01*
X151892859Y-125953571D01*
X153392859Y-127453571D02*
X152892859Y-126739286D01*
X152535716Y-127453571D02*
X152535716Y-125953571D01*
X153107144Y-125953571D01*
X153250002Y-126025000D01*
X153321430Y-126096429D01*
X153392859Y-126239286D01*
X153392859Y-126453571D01*
X153321430Y-126596429D01*
X153250002Y-126667857D01*
X153107144Y-126739286D01*
X152535716Y-126739286D01*
X155892859Y-127453571D02*
X155178573Y-127453571D01*
X155178573Y-125953571D01*
X156392859Y-126667857D02*
X156892859Y-126667857D01*
X157107145Y-127453571D02*
X156392859Y-127453571D01*
X156392859Y-125953571D01*
X157107145Y-125953571D01*
X158250002Y-126667857D02*
X157750002Y-126667857D01*
X157750002Y-127453571D02*
X157750002Y-125953571D01*
X158464288Y-125953571D01*
X158821430Y-125953571D02*
X159678573Y-125953571D01*
X159250002Y-127453571D02*
X159250002Y-125953571D01*
X160035716Y-128025000D02*
X160107144Y-127953571D01*
X160250001Y-127739286D01*
X160321430Y-127596429D01*
X160392859Y-127382143D01*
X160464287Y-127025000D01*
X160464287Y-126739286D01*
X160392859Y-126382143D01*
X160321430Y-126167857D01*
X160250001Y-126025000D01*
X160107144Y-125810714D01*
X160035716Y-125739286D01*
X74035714Y-128646429D02*
X74107143Y-128575000D01*
X74250000Y-128503571D01*
X74607143Y-128503571D01*
X74750000Y-128575000D01*
X74821429Y-128646429D01*
X74892857Y-128789286D01*
X74892857Y-128932143D01*
X74821429Y-129146429D01*
X73964286Y-130003571D01*
X74892857Y-130003571D01*
X75535714Y-129860714D02*
X75607142Y-129932143D01*
X75535714Y-130003571D01*
X75464285Y-129932143D01*
X75535714Y-129860714D01*
X75535714Y-130003571D01*
X78250000Y-129860714D02*
X78178571Y-129932143D01*
X77964285Y-130003571D01*
X77821428Y-130003571D01*
X77607143Y-129932143D01*
X77464285Y-129789286D01*
X77392857Y-129646429D01*
X77321428Y-129360714D01*
X77321428Y-129146429D01*
X77392857Y-128860714D01*
X77464285Y-128717857D01*
X77607143Y-128575000D01*
X77821428Y-128503571D01*
X77964285Y-128503571D01*
X78178571Y-128575000D01*
X78250000Y-128646429D01*
X79178571Y-128503571D02*
X79464285Y-128503571D01*
X79607143Y-128575000D01*
X79750000Y-128717857D01*
X79821428Y-129003571D01*
X79821428Y-129503571D01*
X79750000Y-129789286D01*
X79607143Y-129932143D01*
X79464285Y-130003571D01*
X79178571Y-130003571D01*
X79035714Y-129932143D01*
X78892857Y-129789286D01*
X78821428Y-129503571D01*
X78821428Y-129003571D01*
X78892857Y-128717857D01*
X79035714Y-128575000D01*
X79178571Y-128503571D01*
X80464286Y-130003571D02*
X80464286Y-128503571D01*
X80964286Y-129575000D01*
X81464286Y-128503571D01*
X81464286Y-130003571D01*
X82178572Y-130003571D02*
X82178572Y-128503571D01*
X82750000Y-128503571D01*
X82892858Y-128575000D01*
X82964286Y-128646429D01*
X83035715Y-128789286D01*
X83035715Y-129003571D01*
X82964286Y-129146429D01*
X82892858Y-129217857D01*
X82750000Y-129289286D01*
X82178572Y-129289286D01*
X83964286Y-128503571D02*
X84250000Y-128503571D01*
X84392858Y-128575000D01*
X84535715Y-128717857D01*
X84607143Y-129003571D01*
X84607143Y-129503571D01*
X84535715Y-129789286D01*
X84392858Y-129932143D01*
X84250000Y-130003571D01*
X83964286Y-130003571D01*
X83821429Y-129932143D01*
X83678572Y-129789286D01*
X83607143Y-129503571D01*
X83607143Y-129003571D01*
X83678572Y-128717857D01*
X83821429Y-128575000D01*
X83964286Y-128503571D01*
X85250001Y-130003571D02*
X85250001Y-128503571D01*
X86107144Y-130003571D01*
X86107144Y-128503571D01*
X86821430Y-129217857D02*
X87321430Y-129217857D01*
X87535716Y-130003571D02*
X86821430Y-130003571D01*
X86821430Y-128503571D01*
X87535716Y-128503571D01*
X88178573Y-130003571D02*
X88178573Y-128503571D01*
X89035716Y-130003571D01*
X89035716Y-128503571D01*
X89535716Y-128503571D02*
X90392859Y-128503571D01*
X89964288Y-130003571D02*
X89964288Y-128503571D01*
X92892859Y-130003571D02*
X92392859Y-129289286D01*
X92035716Y-130003571D02*
X92035716Y-128503571D01*
X92607144Y-128503571D01*
X92750002Y-128575000D01*
X92821430Y-128646429D01*
X92892859Y-128789286D01*
X92892859Y-129003571D01*
X92821430Y-129146429D01*
X92750002Y-129217857D01*
X92607144Y-129289286D01*
X92035716Y-129289286D01*
X93821430Y-128503571D02*
X94107144Y-128503571D01*
X94250002Y-128575000D01*
X94392859Y-128717857D01*
X94464287Y-129003571D01*
X94464287Y-129503571D01*
X94392859Y-129789286D01*
X94250002Y-129932143D01*
X94107144Y-130003571D01*
X93821430Y-130003571D01*
X93678573Y-129932143D01*
X93535716Y-129789286D01*
X93464287Y-129503571D01*
X93464287Y-129003571D01*
X93535716Y-128717857D01*
X93678573Y-128575000D01*
X93821430Y-128503571D01*
X94892859Y-128503571D02*
X95750002Y-128503571D01*
X95321431Y-130003571D02*
X95321431Y-128503571D01*
X96178573Y-129575000D02*
X96892859Y-129575000D01*
X96035716Y-130003571D02*
X96535716Y-128503571D01*
X97035716Y-130003571D01*
X97321430Y-128503571D02*
X98178573Y-128503571D01*
X97750002Y-130003571D02*
X97750002Y-128503571D01*
X98678573Y-130003571D02*
X98678573Y-128503571D01*
X99678573Y-128503571D02*
X99964287Y-128503571D01*
X100107145Y-128575000D01*
X100250002Y-128717857D01*
X100321430Y-129003571D01*
X100321430Y-129503571D01*
X100250002Y-129789286D01*
X100107145Y-129932143D01*
X99964287Y-130003571D01*
X99678573Y-130003571D01*
X99535716Y-129932143D01*
X99392859Y-129789286D01*
X99321430Y-129503571D01*
X99321430Y-129003571D01*
X99392859Y-128717857D01*
X99535716Y-128575000D01*
X99678573Y-128503571D01*
X100964288Y-130003571D02*
X100964288Y-128503571D01*
X101821431Y-130003571D01*
X101821431Y-128503571D01*
X103678574Y-130003571D02*
X103678574Y-128503571D01*
X104392860Y-130003571D02*
X104392860Y-128503571D01*
X105250003Y-130003571D01*
X105250003Y-128503571D01*
X107107146Y-130003571D02*
X107107146Y-128503571D01*
X107464289Y-128503571D01*
X107678574Y-128575000D01*
X107821432Y-128717857D01*
X107892860Y-128860714D01*
X107964289Y-129146429D01*
X107964289Y-129360714D01*
X107892860Y-129646429D01*
X107821432Y-129789286D01*
X107678574Y-129932143D01*
X107464289Y-130003571D01*
X107107146Y-130003571D01*
X108607146Y-129217857D02*
X109107146Y-129217857D01*
X109321432Y-130003571D02*
X108607146Y-130003571D01*
X108607146Y-128503571D01*
X109321432Y-128503571D01*
X110750003Y-128575000D02*
X110607146Y-128503571D01*
X110392860Y-128503571D01*
X110178575Y-128575000D01*
X110035717Y-128717857D01*
X109964289Y-128860714D01*
X109892860Y-129146429D01*
X109892860Y-129360714D01*
X109964289Y-129646429D01*
X110035717Y-129789286D01*
X110178575Y-129932143D01*
X110392860Y-130003571D01*
X110535717Y-130003571D01*
X110750003Y-129932143D01*
X110821432Y-129860714D01*
X110821432Y-129360714D01*
X110535717Y-129360714D01*
X112321432Y-130003571D02*
X111821432Y-129289286D01*
X111464289Y-130003571D02*
X111464289Y-128503571D01*
X112035717Y-128503571D01*
X112178575Y-128575000D01*
X112250003Y-128646429D01*
X112321432Y-128789286D01*
X112321432Y-129003571D01*
X112250003Y-129146429D01*
X112178575Y-129217857D01*
X112035717Y-129289286D01*
X111464289Y-129289286D01*
X112964289Y-129217857D02*
X113464289Y-129217857D01*
X113678575Y-130003571D02*
X112964289Y-130003571D01*
X112964289Y-128503571D01*
X113678575Y-128503571D01*
X114321432Y-129217857D02*
X114821432Y-129217857D01*
X115035718Y-130003571D02*
X114321432Y-130003571D01*
X114321432Y-128503571D01*
X115035718Y-128503571D01*
X115607146Y-129932143D02*
X115821432Y-130003571D01*
X116178575Y-130003571D01*
X116321432Y-129932143D01*
X116392861Y-129860714D01*
X116464289Y-129717857D01*
X116464289Y-129575000D01*
X116392861Y-129432143D01*
X116321432Y-129360714D01*
X116178575Y-129289286D01*
X115892861Y-129217857D01*
X115750003Y-129146429D01*
X115678575Y-129075000D01*
X115607146Y-128932143D01*
X115607146Y-128789286D01*
X115678575Y-128646429D01*
X115750003Y-128575000D01*
X115892861Y-128503571D01*
X116250003Y-128503571D01*
X116464289Y-128575000D01*
X119107146Y-129860714D02*
X119035717Y-129932143D01*
X118821431Y-130003571D01*
X118678574Y-130003571D01*
X118464289Y-129932143D01*
X118321431Y-129789286D01*
X118250003Y-129646429D01*
X118178574Y-129360714D01*
X118178574Y-129146429D01*
X118250003Y-128860714D01*
X118321431Y-128717857D01*
X118464289Y-128575000D01*
X118678574Y-128503571D01*
X118821431Y-128503571D01*
X119035717Y-128575000D01*
X119107146Y-128646429D01*
X120035717Y-128503571D02*
X120321431Y-128503571D01*
X120464289Y-128575000D01*
X120607146Y-128717857D01*
X120678574Y-129003571D01*
X120678574Y-129503571D01*
X120607146Y-129789286D01*
X120464289Y-129932143D01*
X120321431Y-130003571D01*
X120035717Y-130003571D01*
X119892860Y-129932143D01*
X119750003Y-129789286D01*
X119678574Y-129503571D01*
X119678574Y-129003571D01*
X119750003Y-128717857D01*
X119892860Y-128575000D01*
X120035717Y-128503571D01*
X121321432Y-128503571D02*
X121321432Y-129717857D01*
X121392860Y-129860714D01*
X121464289Y-129932143D01*
X121607146Y-130003571D01*
X121892860Y-130003571D01*
X122035718Y-129932143D01*
X122107146Y-129860714D01*
X122178575Y-129717857D01*
X122178575Y-128503571D01*
X122892861Y-130003571D02*
X122892861Y-128503571D01*
X123750004Y-130003571D01*
X123750004Y-128503571D01*
X124250004Y-128503571D02*
X125107147Y-128503571D01*
X124678576Y-130003571D02*
X124678576Y-128503571D01*
X125607147Y-129217857D02*
X126107147Y-129217857D01*
X126321433Y-130003571D02*
X125607147Y-130003571D01*
X125607147Y-128503571D01*
X126321433Y-128503571D01*
X127821433Y-130003571D02*
X127321433Y-129289286D01*
X126964290Y-130003571D02*
X126964290Y-128503571D01*
X127535718Y-128503571D01*
X127678576Y-128575000D01*
X127750004Y-128646429D01*
X127821433Y-128789286D01*
X127821433Y-129003571D01*
X127750004Y-129146429D01*
X127678576Y-129217857D01*
X127535718Y-129289286D01*
X126964290Y-129289286D01*
X128464290Y-129432143D02*
X129607147Y-129432143D01*
X131178576Y-129860714D02*
X131107147Y-129932143D01*
X130892861Y-130003571D01*
X130750004Y-130003571D01*
X130535719Y-129932143D01*
X130392861Y-129789286D01*
X130321433Y-129646429D01*
X130250004Y-129360714D01*
X130250004Y-129146429D01*
X130321433Y-128860714D01*
X130392861Y-128717857D01*
X130535719Y-128575000D01*
X130750004Y-128503571D01*
X130892861Y-128503571D01*
X131107147Y-128575000D01*
X131178576Y-128646429D01*
X132535719Y-130003571D02*
X131821433Y-130003571D01*
X131821433Y-128503571D01*
X133321433Y-128503571D02*
X133607147Y-128503571D01*
X133750005Y-128575000D01*
X133892862Y-128717857D01*
X133964290Y-129003571D01*
X133964290Y-129503571D01*
X133892862Y-129789286D01*
X133750005Y-129932143D01*
X133607147Y-130003571D01*
X133321433Y-130003571D01*
X133178576Y-129932143D01*
X133035719Y-129789286D01*
X132964290Y-129503571D01*
X132964290Y-129003571D01*
X133035719Y-128717857D01*
X133178576Y-128575000D01*
X133321433Y-128503571D01*
X135464291Y-129860714D02*
X135392862Y-129932143D01*
X135178576Y-130003571D01*
X135035719Y-130003571D01*
X134821434Y-129932143D01*
X134678576Y-129789286D01*
X134607148Y-129646429D01*
X134535719Y-129360714D01*
X134535719Y-129146429D01*
X134607148Y-128860714D01*
X134678576Y-128717857D01*
X134821434Y-128575000D01*
X135035719Y-128503571D01*
X135178576Y-128503571D01*
X135392862Y-128575000D01*
X135464291Y-128646429D01*
X136107148Y-130003571D02*
X136107148Y-128503571D01*
X136964291Y-130003571D02*
X136321434Y-129146429D01*
X136964291Y-128503571D02*
X136107148Y-129360714D01*
X137464291Y-128503571D02*
X137821434Y-130003571D01*
X138107148Y-128932143D01*
X138392862Y-130003571D01*
X138750005Y-128503571D01*
X139321434Y-130003571D02*
X139321434Y-128503571D01*
X139964291Y-129932143D02*
X140178577Y-130003571D01*
X140535720Y-130003571D01*
X140678577Y-129932143D01*
X140750006Y-129860714D01*
X140821434Y-129717857D01*
X140821434Y-129575000D01*
X140750006Y-129432143D01*
X140678577Y-129360714D01*
X140535720Y-129289286D01*
X140250006Y-129217857D01*
X140107148Y-129146429D01*
X140035720Y-129075000D01*
X139964291Y-128932143D01*
X139964291Y-128789286D01*
X140035720Y-128646429D01*
X140107148Y-128575000D01*
X140250006Y-128503571D01*
X140607148Y-128503571D01*
X140821434Y-128575000D01*
X141464291Y-129217857D02*
X141964291Y-129217857D01*
X142178577Y-130003571D02*
X141464291Y-130003571D01*
X141464291Y-128503571D01*
X142178577Y-128503571D01*
X73964286Y-131053571D02*
X74892857Y-131053571D01*
X74392857Y-131625000D01*
X74607143Y-131625000D01*
X74750000Y-131696429D01*
X74821429Y-131767857D01*
X74892857Y-131910714D01*
X74892857Y-132267857D01*
X74821429Y-132410714D01*
X74750000Y-132482143D01*
X74607143Y-132553571D01*
X74178571Y-132553571D01*
X74035714Y-132482143D01*
X73964286Y-132410714D01*
X75535714Y-132410714D02*
X75607142Y-132482143D01*
X75535714Y-132553571D01*
X75464285Y-132482143D01*
X75535714Y-132410714D01*
X75535714Y-132553571D01*
X77321428Y-132125000D02*
X78035714Y-132125000D01*
X77178571Y-132553571D02*
X77678571Y-131053571D01*
X78178571Y-132553571D01*
X79392857Y-132553571D02*
X78678571Y-132553571D01*
X78678571Y-131053571D01*
X80607143Y-132553571D02*
X79892857Y-132553571D01*
X79892857Y-131053571D01*
X83107143Y-132410714D02*
X83035714Y-132482143D01*
X82821428Y-132553571D01*
X82678571Y-132553571D01*
X82464286Y-132482143D01*
X82321428Y-132339286D01*
X82250000Y-132196429D01*
X82178571Y-131910714D01*
X82178571Y-131696429D01*
X82250000Y-131410714D01*
X82321428Y-131267857D01*
X82464286Y-131125000D01*
X82678571Y-131053571D01*
X82821428Y-131053571D01*
X83035714Y-131125000D01*
X83107143Y-131196429D01*
X84035714Y-131053571D02*
X84321428Y-131053571D01*
X84464286Y-131125000D01*
X84607143Y-131267857D01*
X84678571Y-131553571D01*
X84678571Y-132053571D01*
X84607143Y-132339286D01*
X84464286Y-132482143D01*
X84321428Y-132553571D01*
X84035714Y-132553571D01*
X83892857Y-132482143D01*
X83750000Y-132339286D01*
X83678571Y-132053571D01*
X83678571Y-131553571D01*
X83750000Y-131267857D01*
X83892857Y-131125000D01*
X84035714Y-131053571D01*
X85321429Y-132553571D02*
X85321429Y-131053571D01*
X85821429Y-132125000D01*
X86321429Y-131053571D01*
X86321429Y-132553571D01*
X87035715Y-132553571D02*
X87035715Y-131053571D01*
X87607143Y-131053571D01*
X87750001Y-131125000D01*
X87821429Y-131196429D01*
X87892858Y-131339286D01*
X87892858Y-131553571D01*
X87821429Y-131696429D01*
X87750001Y-131767857D01*
X87607143Y-131839286D01*
X87035715Y-131839286D01*
X88821429Y-131053571D02*
X89107143Y-131053571D01*
X89250001Y-131125000D01*
X89392858Y-131267857D01*
X89464286Y-131553571D01*
X89464286Y-132053571D01*
X89392858Y-132339286D01*
X89250001Y-132482143D01*
X89107143Y-132553571D01*
X88821429Y-132553571D01*
X88678572Y-132482143D01*
X88535715Y-132339286D01*
X88464286Y-132053571D01*
X88464286Y-131553571D01*
X88535715Y-131267857D01*
X88678572Y-131125000D01*
X88821429Y-131053571D01*
X90107144Y-132553571D02*
X90107144Y-131053571D01*
X90964287Y-132553571D01*
X90964287Y-131053571D01*
X91678573Y-131767857D02*
X92178573Y-131767857D01*
X92392859Y-132553571D02*
X91678573Y-132553571D01*
X91678573Y-131053571D01*
X92392859Y-131053571D01*
X93035716Y-132553571D02*
X93035716Y-131053571D01*
X93892859Y-132553571D01*
X93892859Y-131053571D01*
X94392859Y-131053571D02*
X95250002Y-131053571D01*
X94821431Y-132553571D02*
X94821431Y-131053571D01*
X95678573Y-132482143D02*
X95892859Y-132553571D01*
X96250002Y-132553571D01*
X96392859Y-132482143D01*
X96464288Y-132410714D01*
X96535716Y-132267857D01*
X96535716Y-132125000D01*
X96464288Y-131982143D01*
X96392859Y-131910714D01*
X96250002Y-131839286D01*
X95964288Y-131767857D01*
X95821430Y-131696429D01*
X95750002Y-131625000D01*
X95678573Y-131482143D01*
X95678573Y-131339286D01*
X95750002Y-131196429D01*
X95821430Y-131125000D01*
X95964288Y-131053571D01*
X96321430Y-131053571D01*
X96535716Y-131125000D01*
X98821430Y-131767857D02*
X99035716Y-131839286D01*
X99107144Y-131910714D01*
X99178573Y-132053571D01*
X99178573Y-132267857D01*
X99107144Y-132410714D01*
X99035716Y-132482143D01*
X98892858Y-132553571D01*
X98321430Y-132553571D01*
X98321430Y-131053571D01*
X98821430Y-131053571D01*
X98964287Y-131125000D01*
X99035716Y-131196429D01*
X99107144Y-131339286D01*
X99107144Y-131482143D01*
X99035716Y-131625000D01*
X98964287Y-131696429D01*
X98821430Y-131767857D01*
X98321430Y-131767857D01*
X99821430Y-131767857D02*
X100321430Y-131767857D01*
X100535716Y-132553571D02*
X99821430Y-132553571D01*
X99821430Y-131053571D01*
X100535716Y-131053571D01*
X101107144Y-132482143D02*
X101321430Y-132553571D01*
X101678573Y-132553571D01*
X101821430Y-132482143D01*
X101892859Y-132410714D01*
X101964287Y-132267857D01*
X101964287Y-132125000D01*
X101892859Y-131982143D01*
X101821430Y-131910714D01*
X101678573Y-131839286D01*
X101392859Y-131767857D01*
X101250001Y-131696429D01*
X101178573Y-131625000D01*
X101107144Y-131482143D01*
X101107144Y-131339286D01*
X101178573Y-131196429D01*
X101250001Y-131125000D01*
X101392859Y-131053571D01*
X101750001Y-131053571D01*
X101964287Y-131125000D01*
X102607144Y-132553571D02*
X102607144Y-131053571D01*
X103321430Y-132553571D02*
X103321430Y-131053571D01*
X103678573Y-131053571D01*
X103892858Y-131125000D01*
X104035716Y-131267857D01*
X104107144Y-131410714D01*
X104178573Y-131696429D01*
X104178573Y-131910714D01*
X104107144Y-132196429D01*
X104035716Y-132339286D01*
X103892858Y-132482143D01*
X103678573Y-132553571D01*
X103321430Y-132553571D01*
X104821430Y-131767857D02*
X105321430Y-131767857D01*
X105535716Y-132553571D02*
X104821430Y-132553571D01*
X104821430Y-131053571D01*
X105535716Y-131053571D01*
X106107144Y-132482143D02*
X106321430Y-132553571D01*
X106678573Y-132553571D01*
X106821430Y-132482143D01*
X106892859Y-132410714D01*
X106964287Y-132267857D01*
X106964287Y-132125000D01*
X106892859Y-131982143D01*
X106821430Y-131910714D01*
X106678573Y-131839286D01*
X106392859Y-131767857D01*
X106250001Y-131696429D01*
X106178573Y-131625000D01*
X106107144Y-131482143D01*
X106107144Y-131339286D01*
X106178573Y-131196429D01*
X106250001Y-131125000D01*
X106392859Y-131053571D01*
X106750001Y-131053571D01*
X106964287Y-131125000D01*
X109250001Y-131767857D02*
X108750001Y-131767857D01*
X108750001Y-132553571D02*
X108750001Y-131053571D01*
X109464287Y-131053571D01*
X109964286Y-132482143D02*
X110178572Y-132553571D01*
X110535715Y-132553571D01*
X110678572Y-132482143D01*
X110750001Y-132410714D01*
X110821429Y-132267857D01*
X110821429Y-132125000D01*
X110750001Y-131982143D01*
X110678572Y-131910714D01*
X110535715Y-131839286D01*
X110250001Y-131767857D01*
X110107143Y-131696429D01*
X110035715Y-131625000D01*
X109964286Y-131482143D01*
X109964286Y-131339286D01*
X110035715Y-131196429D01*
X110107143Y-131125000D01*
X110250001Y-131053571D01*
X110607143Y-131053571D01*
X110821429Y-131125000D01*
X112321429Y-132553571D02*
X111821429Y-131839286D01*
X111464286Y-132553571D02*
X111464286Y-131053571D01*
X112035714Y-131053571D01*
X112178572Y-131125000D01*
X112250000Y-131196429D01*
X112321429Y-131339286D01*
X112321429Y-131553571D01*
X112250000Y-131696429D01*
X112178572Y-131767857D01*
X112035714Y-131839286D01*
X111464286Y-131839286D01*
X114107143Y-132553571D02*
X114107143Y-131053571D01*
X114607143Y-132125000D01*
X115107143Y-131053571D01*
X115107143Y-132553571D01*
X116107143Y-131053571D02*
X116392857Y-131053571D01*
X116535715Y-131125000D01*
X116678572Y-131267857D01*
X116750000Y-131553571D01*
X116750000Y-132053571D01*
X116678572Y-132339286D01*
X116535715Y-132482143D01*
X116392857Y-132553571D01*
X116107143Y-132553571D01*
X115964286Y-132482143D01*
X115821429Y-132339286D01*
X115750000Y-132053571D01*
X115750000Y-131553571D01*
X115821429Y-131267857D01*
X115964286Y-131125000D01*
X116107143Y-131053571D01*
X117392858Y-131053571D02*
X117392858Y-132267857D01*
X117464286Y-132410714D01*
X117535715Y-132482143D01*
X117678572Y-132553571D01*
X117964286Y-132553571D01*
X118107144Y-132482143D01*
X118178572Y-132410714D01*
X118250001Y-132267857D01*
X118250001Y-131053571D01*
X118964287Y-132553571D02*
X118964287Y-131053571D01*
X119821430Y-132553571D01*
X119821430Y-131053571D01*
X120321430Y-131053571D02*
X121178573Y-131053571D01*
X120750002Y-132553571D02*
X120750002Y-131053571D01*
X121678573Y-131767857D02*
X122178573Y-131767857D01*
X122392859Y-132553571D02*
X121678573Y-132553571D01*
X121678573Y-131053571D01*
X122392859Y-131053571D01*
X123035716Y-132553571D02*
X123035716Y-131053571D01*
X123392859Y-131053571D01*
X123607144Y-131125000D01*
X123750002Y-131267857D01*
X123821430Y-131410714D01*
X123892859Y-131696429D01*
X123892859Y-131910714D01*
X123821430Y-132196429D01*
X123750002Y-132339286D01*
X123607144Y-132482143D01*
X123392859Y-132553571D01*
X123035716Y-132553571D01*
X125964287Y-131053571D02*
X126250001Y-131053571D01*
X126392859Y-131125000D01*
X126535716Y-131267857D01*
X126607144Y-131553571D01*
X126607144Y-132053571D01*
X126535716Y-132339286D01*
X126392859Y-132482143D01*
X126250001Y-132553571D01*
X125964287Y-132553571D01*
X125821430Y-132482143D01*
X125678573Y-132339286D01*
X125607144Y-132053571D01*
X125607144Y-131553571D01*
X125678573Y-131267857D01*
X125821430Y-131125000D01*
X125964287Y-131053571D01*
X127250002Y-132553571D02*
X127250002Y-131053571D01*
X128107145Y-132553571D01*
X128107145Y-131053571D01*
X130464288Y-131767857D02*
X130678574Y-131839286D01*
X130750002Y-131910714D01*
X130821431Y-132053571D01*
X130821431Y-132267857D01*
X130750002Y-132410714D01*
X130678574Y-132482143D01*
X130535716Y-132553571D01*
X129964288Y-132553571D01*
X129964288Y-131053571D01*
X130464288Y-131053571D01*
X130607145Y-131125000D01*
X130678574Y-131196429D01*
X130750002Y-131339286D01*
X130750002Y-131482143D01*
X130678574Y-131625000D01*
X130607145Y-131696429D01*
X130464288Y-131767857D01*
X129964288Y-131767857D01*
X131464288Y-132410714D02*
X131535716Y-132482143D01*
X131464288Y-132553571D01*
X131392859Y-132482143D01*
X131464288Y-132410714D01*
X131464288Y-132553571D01*
X133035717Y-132410714D02*
X132964288Y-132482143D01*
X132750002Y-132553571D01*
X132607145Y-132553571D01*
X132392860Y-132482143D01*
X132250002Y-132339286D01*
X132178574Y-132196429D01*
X132107145Y-131910714D01*
X132107145Y-131696429D01*
X132178574Y-131410714D01*
X132250002Y-131267857D01*
X132392860Y-131125000D01*
X132607145Y-131053571D01*
X132750002Y-131053571D01*
X132964288Y-131125000D01*
X133035717Y-131196429D01*
X133678574Y-131053571D02*
X133678574Y-132267857D01*
X133750002Y-132410714D01*
X133821431Y-132482143D01*
X133964288Y-132553571D01*
X134250002Y-132553571D01*
X134392860Y-132482143D01*
X134464288Y-132410714D01*
X134535717Y-132267857D01*
X134535717Y-131053571D01*
X137107146Y-132553571D02*
X136392860Y-132553571D01*
X136392860Y-131053571D01*
X137535717Y-132125000D02*
X138250003Y-132125000D01*
X137392860Y-132553571D02*
X137892860Y-131053571D01*
X138392860Y-132553571D01*
X139178574Y-131839286D02*
X139178574Y-132553571D01*
X138678574Y-131053571D02*
X139178574Y-131839286D01*
X139678574Y-131053571D01*
X140178574Y-131767857D02*
X140678574Y-131767857D01*
X140892860Y-132553571D02*
X140178574Y-132553571D01*
X140178574Y-131053571D01*
X140892860Y-131053571D01*
X142392860Y-132553571D02*
X141892860Y-131839286D01*
X141535717Y-132553571D02*
X141535717Y-131053571D01*
X142107145Y-131053571D01*
X142250003Y-131125000D01*
X142321431Y-131196429D01*
X142392860Y-131339286D01*
X142392860Y-131553571D01*
X142321431Y-131696429D01*
X142250003Y-131767857D01*
X142107145Y-131839286D01*
X141535717Y-131839286D01*
X144607145Y-133125000D02*
X144535717Y-133053571D01*
X144392860Y-132839286D01*
X144321431Y-132696429D01*
X144250002Y-132482143D01*
X144178574Y-132125000D01*
X144178574Y-131839286D01*
X144250002Y-131482143D01*
X144321431Y-131267857D01*
X144392860Y-131125000D01*
X144535717Y-130910714D01*
X144607145Y-130839286D01*
X145892860Y-132553571D02*
X145178574Y-132553571D01*
X145178574Y-131053571D01*
X146392860Y-131767857D02*
X146892860Y-131767857D01*
X147107146Y-132553571D02*
X146392860Y-132553571D01*
X146392860Y-131053571D01*
X147107146Y-131053571D01*
X147750003Y-132553571D02*
X147750003Y-131053571D01*
X148107146Y-131053571D01*
X148321431Y-131125000D01*
X148464289Y-131267857D01*
X148535717Y-131410714D01*
X148607146Y-131696429D01*
X148607146Y-131910714D01*
X148535717Y-132196429D01*
X148464289Y-132339286D01*
X148321431Y-132482143D01*
X148107146Y-132553571D01*
X147750003Y-132553571D01*
X150392860Y-132553571D02*
X150392860Y-131053571D01*
X151035717Y-132482143D02*
X151250003Y-132553571D01*
X151607146Y-132553571D01*
X151750003Y-132482143D01*
X151821432Y-132410714D01*
X151892860Y-132267857D01*
X151892860Y-132125000D01*
X151821432Y-131982143D01*
X151750003Y-131910714D01*
X151607146Y-131839286D01*
X151321432Y-131767857D01*
X151178574Y-131696429D01*
X151107146Y-131625000D01*
X151035717Y-131482143D01*
X151035717Y-131339286D01*
X151107146Y-131196429D01*
X151178574Y-131125000D01*
X151321432Y-131053571D01*
X151678574Y-131053571D01*
X151892860Y-131125000D01*
X154178574Y-131767857D02*
X154392860Y-131839286D01*
X154464288Y-131910714D01*
X154535717Y-132053571D01*
X154535717Y-132267857D01*
X154464288Y-132410714D01*
X154392860Y-132482143D01*
X154250002Y-132553571D01*
X153678574Y-132553571D01*
X153678574Y-131053571D01*
X154178574Y-131053571D01*
X154321431Y-131125000D01*
X154392860Y-131196429D01*
X154464288Y-131339286D01*
X154464288Y-131482143D01*
X154392860Y-131625000D01*
X154321431Y-131696429D01*
X154178574Y-131767857D01*
X153678574Y-131767857D01*
X155464288Y-131053571D02*
X155750002Y-131053571D01*
X155892860Y-131125000D01*
X156035717Y-131267857D01*
X156107145Y-131553571D01*
X156107145Y-132053571D01*
X156035717Y-132339286D01*
X155892860Y-132482143D01*
X155750002Y-132553571D01*
X155464288Y-132553571D01*
X155321431Y-132482143D01*
X155178574Y-132339286D01*
X155107145Y-132053571D01*
X155107145Y-131553571D01*
X155178574Y-131267857D01*
X155321431Y-131125000D01*
X155464288Y-131053571D01*
X156535717Y-131053571D02*
X157392860Y-131053571D01*
X156964289Y-132553571D02*
X156964289Y-131053571D01*
X157678574Y-131053571D02*
X158535717Y-131053571D01*
X158107146Y-132553571D02*
X158107146Y-131053571D01*
X159321431Y-131053571D02*
X159607145Y-131053571D01*
X159750003Y-131125000D01*
X159892860Y-131267857D01*
X159964288Y-131553571D01*
X159964288Y-132053571D01*
X159892860Y-132339286D01*
X159750003Y-132482143D01*
X159607145Y-132553571D01*
X159321431Y-132553571D01*
X159178574Y-132482143D01*
X159035717Y-132339286D01*
X158964288Y-132053571D01*
X158964288Y-131553571D01*
X159035717Y-131267857D01*
X159178574Y-131125000D01*
X159321431Y-131053571D01*
X160607146Y-132553571D02*
X160607146Y-131053571D01*
X161107146Y-132125000D01*
X161607146Y-131053571D01*
X161607146Y-132553571D01*
X162321432Y-131982143D02*
X163464289Y-131982143D01*
X164178575Y-132553571D02*
X164178575Y-131053571D01*
X164678575Y-132125000D01*
X165178575Y-131053571D01*
X165178575Y-132553571D01*
X166178575Y-131053571D02*
X166464289Y-131053571D01*
X166607147Y-131125000D01*
X166750004Y-131267857D01*
X166821432Y-131553571D01*
X166821432Y-132053571D01*
X166750004Y-132339286D01*
X166607147Y-132482143D01*
X166464289Y-132553571D01*
X166178575Y-132553571D01*
X166035718Y-132482143D01*
X165892861Y-132339286D01*
X165821432Y-132053571D01*
X165821432Y-131553571D01*
X165892861Y-131267857D01*
X166035718Y-131125000D01*
X166178575Y-131053571D01*
X167464290Y-131053571D02*
X167464290Y-132267857D01*
X167535718Y-132410714D01*
X167607147Y-132482143D01*
X167750004Y-132553571D01*
X168035718Y-132553571D01*
X168178576Y-132482143D01*
X168250004Y-132410714D01*
X168321433Y-132267857D01*
X168321433Y-131053571D01*
X169035719Y-132553571D02*
X169035719Y-131053571D01*
X169892862Y-132553571D01*
X169892862Y-131053571D01*
X170392862Y-131053571D02*
X171250005Y-131053571D01*
X170821434Y-132553571D02*
X170821434Y-131053571D01*
X171607148Y-133125000D02*
X171678576Y-133053571D01*
X171821433Y-132839286D01*
X171892862Y-132696429D01*
X171964291Y-132482143D01*
X172035719Y-132125000D01*
X172035719Y-131839286D01*
X171964291Y-131482143D01*
X171892862Y-131267857D01*
X171821433Y-131125000D01*
X171678576Y-130910714D01*
X171607148Y-130839286D01*
X74750000Y-134103571D02*
X74750000Y-135103571D01*
X74392857Y-133532143D02*
X74035714Y-134603571D01*
X74964286Y-134603571D01*
X75535714Y-134960714D02*
X75607142Y-135032143D01*
X75535714Y-135103571D01*
X75464285Y-135032143D01*
X75535714Y-134960714D01*
X75535714Y-135103571D01*
X77392857Y-135103571D02*
X77392857Y-133603571D01*
X77964285Y-133603571D01*
X78107143Y-133675000D01*
X78178571Y-133746429D01*
X78250000Y-133889286D01*
X78250000Y-134103571D01*
X78178571Y-134246429D01*
X78107143Y-134317857D01*
X77964285Y-134389286D01*
X77392857Y-134389286D01*
X79750000Y-134960714D02*
X79678571Y-135032143D01*
X79464285Y-135103571D01*
X79321428Y-135103571D01*
X79107143Y-135032143D01*
X78964285Y-134889286D01*
X78892857Y-134746429D01*
X78821428Y-134460714D01*
X78821428Y-134246429D01*
X78892857Y-133960714D01*
X78964285Y-133817857D01*
X79107143Y-133675000D01*
X79321428Y-133603571D01*
X79464285Y-133603571D01*
X79678571Y-133675000D01*
X79750000Y-133746429D01*
X80892857Y-134317857D02*
X81107143Y-134389286D01*
X81178571Y-134460714D01*
X81250000Y-134603571D01*
X81250000Y-134817857D01*
X81178571Y-134960714D01*
X81107143Y-135032143D01*
X80964285Y-135103571D01*
X80392857Y-135103571D01*
X80392857Y-133603571D01*
X80892857Y-133603571D01*
X81035714Y-133675000D01*
X81107143Y-133746429D01*
X81178571Y-133889286D01*
X81178571Y-134032143D01*
X81107143Y-134175000D01*
X81035714Y-134246429D01*
X80892857Y-134317857D01*
X80392857Y-134317857D01*
X83035714Y-135103571D02*
X83035714Y-133603571D01*
X83678571Y-135032143D02*
X83892857Y-135103571D01*
X84250000Y-135103571D01*
X84392857Y-135032143D01*
X84464286Y-134960714D01*
X84535714Y-134817857D01*
X84535714Y-134675000D01*
X84464286Y-134532143D01*
X84392857Y-134460714D01*
X84250000Y-134389286D01*
X83964286Y-134317857D01*
X83821428Y-134246429D01*
X83750000Y-134175000D01*
X83678571Y-134032143D01*
X83678571Y-133889286D01*
X83750000Y-133746429D01*
X83821428Y-133675000D01*
X83964286Y-133603571D01*
X84321428Y-133603571D01*
X84535714Y-133675000D01*
X87107142Y-135103571D02*
X86249999Y-135103571D01*
X86678571Y-135103571D02*
X86678571Y-133603571D01*
X86535714Y-133817857D01*
X86392856Y-133960714D01*
X86249999Y-134032143D01*
X87749999Y-134960714D02*
X87821427Y-135032143D01*
X87749999Y-135103571D01*
X87678570Y-135032143D01*
X87749999Y-134960714D01*
X87749999Y-135103571D01*
X89107142Y-133603571D02*
X88821428Y-133603571D01*
X88678571Y-133675000D01*
X88607142Y-133746429D01*
X88464285Y-133960714D01*
X88392856Y-134246429D01*
X88392856Y-134817857D01*
X88464285Y-134960714D01*
X88535713Y-135032143D01*
X88678571Y-135103571D01*
X88964285Y-135103571D01*
X89107142Y-135032143D01*
X89178571Y-134960714D01*
X89249999Y-134817857D01*
X89249999Y-134460714D01*
X89178571Y-134317857D01*
X89107142Y-134246429D01*
X88964285Y-134175000D01*
X88678571Y-134175000D01*
X88535713Y-134246429D01*
X88464285Y-134317857D01*
X88392856Y-134460714D01*
X89892856Y-135103571D02*
X89892856Y-134103571D01*
X89892856Y-134246429D02*
X89964284Y-134175000D01*
X90107142Y-134103571D01*
X90321427Y-134103571D01*
X90464284Y-134175000D01*
X90535713Y-134317857D01*
X90535713Y-135103571D01*
X90535713Y-134317857D02*
X90607142Y-134175000D01*
X90749999Y-134103571D01*
X90964284Y-134103571D01*
X91107142Y-134175000D01*
X91178570Y-134317857D01*
X91178570Y-135103571D01*
X91892856Y-135103571D02*
X91892856Y-134103571D01*
X91892856Y-134246429D02*
X91964284Y-134175000D01*
X92107142Y-134103571D01*
X92321427Y-134103571D01*
X92464284Y-134175000D01*
X92535713Y-134317857D01*
X92535713Y-135103571D01*
X92535713Y-134317857D02*
X92607142Y-134175000D01*
X92749999Y-134103571D01*
X92964284Y-134103571D01*
X93107142Y-134175000D01*
X93178570Y-134317857D01*
X93178570Y-135103571D01*
X95535713Y-134317857D02*
X95035713Y-134317857D01*
X95035713Y-135103571D02*
X95035713Y-133603571D01*
X95749999Y-133603571D01*
X97178570Y-135103571D02*
X96678570Y-134389286D01*
X96321427Y-135103571D02*
X96321427Y-133603571D01*
X96892855Y-133603571D01*
X97035713Y-133675000D01*
X97107141Y-133746429D01*
X97178570Y-133889286D01*
X97178570Y-134103571D01*
X97107141Y-134246429D01*
X97035713Y-134317857D01*
X96892855Y-134389286D01*
X96321427Y-134389286D01*
X98464284Y-134103571D02*
X98464284Y-135103571D01*
X98107141Y-133532143D02*
X97749998Y-134603571D01*
X98678570Y-134603571D01*
X101249998Y-135103571D02*
X100749998Y-134389286D01*
X100392855Y-135103571D02*
X100392855Y-133603571D01*
X100964283Y-133603571D01*
X101107141Y-133675000D01*
X101178569Y-133746429D01*
X101249998Y-133889286D01*
X101249998Y-134103571D01*
X101178569Y-134246429D01*
X101107141Y-134317857D01*
X100964283Y-134389286D01*
X100392855Y-134389286D01*
X101821426Y-134675000D02*
X102535712Y-134675000D01*
X101678569Y-135103571D02*
X102178569Y-133603571D01*
X102678569Y-135103571D01*
X102964283Y-133603571D02*
X103821426Y-133603571D01*
X103392855Y-135103571D02*
X103392855Y-133603571D01*
X104321426Y-134317857D02*
X104821426Y-134317857D01*
X105035712Y-135103571D02*
X104321426Y-135103571D01*
X104321426Y-133603571D01*
X105035712Y-133603571D01*
X105678569Y-135103571D02*
X105678569Y-133603571D01*
X106035712Y-133603571D01*
X106249997Y-133675000D01*
X106392855Y-133817857D01*
X106464283Y-133960714D01*
X106535712Y-134246429D01*
X106535712Y-134460714D01*
X106464283Y-134746429D01*
X106392855Y-134889286D01*
X106249997Y-135032143D01*
X106035712Y-135103571D01*
X105678569Y-135103571D01*
X108821426Y-134317857D02*
X108321426Y-134317857D01*
X108321426Y-135103571D02*
X108321426Y-133603571D01*
X109035712Y-133603571D01*
X109892854Y-133603571D02*
X110178568Y-133603571D01*
X110321426Y-133675000D01*
X110464283Y-133817857D01*
X110535711Y-134103571D01*
X110535711Y-134603571D01*
X110464283Y-134889286D01*
X110321426Y-135032143D01*
X110178568Y-135103571D01*
X109892854Y-135103571D01*
X109749997Y-135032143D01*
X109607140Y-134889286D01*
X109535711Y-134603571D01*
X109535711Y-134103571D01*
X109607140Y-133817857D01*
X109749997Y-133675000D01*
X109892854Y-133603571D01*
X112035712Y-135103571D02*
X111535712Y-134389286D01*
X111178569Y-135103571D02*
X111178569Y-133603571D01*
X111749997Y-133603571D01*
X111892855Y-133675000D01*
X111964283Y-133746429D01*
X112035712Y-133889286D01*
X112035712Y-134103571D01*
X111964283Y-134246429D01*
X111892855Y-134317857D01*
X111749997Y-134389286D01*
X111178569Y-134389286D01*
X114678569Y-135103571D02*
X114178569Y-134389286D01*
X113821426Y-135103571D02*
X113821426Y-133603571D01*
X114392854Y-133603571D01*
X114535712Y-133675000D01*
X114607140Y-133746429D01*
X114678569Y-133889286D01*
X114678569Y-134103571D01*
X114607140Y-134246429D01*
X114535712Y-134317857D01*
X114392854Y-134389286D01*
X113821426Y-134389286D01*
X115607140Y-133603571D02*
X115892854Y-133603571D01*
X116035712Y-133675000D01*
X116178569Y-133817857D01*
X116249997Y-134103571D01*
X116249997Y-134603571D01*
X116178569Y-134889286D01*
X116035712Y-135032143D01*
X115892854Y-135103571D01*
X115607140Y-135103571D01*
X115464283Y-135032143D01*
X115321426Y-134889286D01*
X115249997Y-134603571D01*
X115249997Y-134103571D01*
X115321426Y-133817857D01*
X115464283Y-133675000D01*
X115607140Y-133603571D01*
X116892855Y-135103571D02*
X116892855Y-133603571D01*
X116892855Y-134317857D02*
X117749998Y-134317857D01*
X117749998Y-135103571D02*
X117749998Y-133603571D01*
X118392855Y-135032143D02*
X118607141Y-135103571D01*
X118964284Y-135103571D01*
X119107141Y-135032143D01*
X119178570Y-134960714D01*
X119249998Y-134817857D01*
X119249998Y-134675000D01*
X119178570Y-134532143D01*
X119107141Y-134460714D01*
X118964284Y-134389286D01*
X118678570Y-134317857D01*
X118535712Y-134246429D01*
X118464284Y-134175000D01*
X118392855Y-134032143D01*
X118392855Y-133889286D01*
X118464284Y-133746429D01*
X118535712Y-133675000D01*
X118678570Y-133603571D01*
X119035712Y-133603571D01*
X119249998Y-133675000D01*
X121892855Y-135103571D02*
X121392855Y-134389286D01*
X121035712Y-135103571D02*
X121035712Y-133603571D01*
X121607140Y-133603571D01*
X121749998Y-133675000D01*
X121821426Y-133746429D01*
X121892855Y-133889286D01*
X121892855Y-134103571D01*
X121821426Y-134246429D01*
X121749998Y-134317857D01*
X121607140Y-134389286D01*
X121035712Y-134389286D01*
X122535712Y-134317857D02*
X123035712Y-134317857D01*
X123249998Y-135103571D02*
X122535712Y-135103571D01*
X122535712Y-133603571D01*
X123249998Y-133603571D01*
X124392855Y-134317857D02*
X123892855Y-134317857D01*
X123892855Y-135103571D02*
X123892855Y-133603571D01*
X124607141Y-133603571D01*
X125892855Y-135103571D02*
X125178569Y-135103571D01*
X125178569Y-133603571D01*
X126678569Y-133603571D02*
X126964283Y-133603571D01*
X127107141Y-133675000D01*
X127249998Y-133817857D01*
X127321426Y-134103571D01*
X127321426Y-134603571D01*
X127249998Y-134889286D01*
X127107141Y-135032143D01*
X126964283Y-135103571D01*
X126678569Y-135103571D01*
X126535712Y-135032143D01*
X126392855Y-134889286D01*
X126321426Y-134603571D01*
X126321426Y-134103571D01*
X126392855Y-133817857D01*
X126535712Y-133675000D01*
X126678569Y-133603571D01*
X127821427Y-133603571D02*
X128178570Y-135103571D01*
X128464284Y-134032143D01*
X128749998Y-135103571D01*
X129107141Y-133603571D01*
X129749998Y-135032143D02*
X129749998Y-135103571D01*
X129678570Y-135246429D01*
X129607141Y-135317857D01*
X132321427Y-135103571D02*
X131464284Y-135103571D01*
X131892856Y-135103571D02*
X131892856Y-133603571D01*
X131749999Y-133817857D01*
X131607141Y-133960714D01*
X131464284Y-134032143D01*
X133249998Y-133603571D02*
X133535712Y-133603571D01*
X133678570Y-133675000D01*
X133821427Y-133817857D01*
X133892855Y-134103571D01*
X133892855Y-134603571D01*
X133821427Y-134889286D01*
X133678570Y-135032143D01*
X133535712Y-135103571D01*
X133249998Y-135103571D01*
X133107141Y-135032143D01*
X132964284Y-134889286D01*
X132892855Y-134603571D01*
X132892855Y-134103571D01*
X132964284Y-133817857D01*
X133107141Y-133675000D01*
X133249998Y-133603571D01*
X134392856Y-133603571D02*
X135392856Y-133603571D01*
X134392856Y-135103571D01*
X135392856Y-135103571D01*
X137964284Y-134960714D02*
X137892855Y-135032143D01*
X137678569Y-135103571D01*
X137535712Y-135103571D01*
X137321427Y-135032143D01*
X137178569Y-134889286D01*
X137107141Y-134746429D01*
X137035712Y-134460714D01*
X137035712Y-134246429D01*
X137107141Y-133960714D01*
X137178569Y-133817857D01*
X137321427Y-133675000D01*
X137535712Y-133603571D01*
X137678569Y-133603571D01*
X137892855Y-133675000D01*
X137964284Y-133746429D01*
X138892855Y-133603571D02*
X139178569Y-133603571D01*
X139321427Y-133675000D01*
X139464284Y-133817857D01*
X139535712Y-134103571D01*
X139535712Y-134603571D01*
X139464284Y-134889286D01*
X139321427Y-135032143D01*
X139178569Y-135103571D01*
X138892855Y-135103571D01*
X138749998Y-135032143D01*
X138607141Y-134889286D01*
X138535712Y-134603571D01*
X138535712Y-134103571D01*
X138607141Y-133817857D01*
X138749998Y-133675000D01*
X138892855Y-133603571D01*
X140178570Y-135103571D02*
X140178570Y-133603571D01*
X140749998Y-133603571D01*
X140892856Y-133675000D01*
X140964284Y-133746429D01*
X141035713Y-133889286D01*
X141035713Y-134103571D01*
X140964284Y-134246429D01*
X140892856Y-134317857D01*
X140749998Y-134389286D01*
X140178570Y-134389286D01*
X141678570Y-135103571D02*
X141678570Y-133603571D01*
X142249998Y-133603571D01*
X142392856Y-133675000D01*
X142464284Y-133746429D01*
X142535713Y-133889286D01*
X142535713Y-134103571D01*
X142464284Y-134246429D01*
X142392856Y-134317857D01*
X142249998Y-134389286D01*
X141678570Y-134389286D01*
X143178570Y-134317857D02*
X143678570Y-134317857D01*
X143892856Y-135103571D02*
X143178570Y-135103571D01*
X143178570Y-133603571D01*
X143892856Y-133603571D01*
X145392856Y-135103571D02*
X144892856Y-134389286D01*
X144535713Y-135103571D02*
X144535713Y-133603571D01*
X145107141Y-133603571D01*
X145249999Y-133675000D01*
X145321427Y-133746429D01*
X145392856Y-133889286D01*
X145392856Y-134103571D01*
X145321427Y-134246429D01*
X145249999Y-134317857D01*
X145107141Y-134389286D01*
X144535713Y-134389286D01*
X146107141Y-135032143D02*
X146107141Y-135103571D01*
X146035713Y-135246429D01*
X145964284Y-135317857D01*
X147892856Y-134317857D02*
X148392856Y-134317857D01*
X148607142Y-135103571D02*
X147892856Y-135103571D01*
X147892856Y-133603571D01*
X148607142Y-133603571D01*
X149249999Y-135103571D02*
X149249999Y-133603571D01*
X150107142Y-135103571D01*
X150107142Y-133603571D01*
X150821428Y-135103571D02*
X150821428Y-133603571D01*
X152321428Y-133675000D02*
X152178571Y-133603571D01*
X151964285Y-133603571D01*
X151750000Y-133675000D01*
X151607142Y-133817857D01*
X151535714Y-133960714D01*
X151464285Y-134246429D01*
X151464285Y-134460714D01*
X151535714Y-134746429D01*
X151607142Y-134889286D01*
X151750000Y-135032143D01*
X151964285Y-135103571D01*
X152107142Y-135103571D01*
X152321428Y-135032143D01*
X152392857Y-134960714D01*
X152392857Y-134460714D01*
X152107142Y-134460714D01*
X154678571Y-134317857D02*
X154178571Y-134317857D01*
X154178571Y-135103571D02*
X154178571Y-133603571D01*
X154892857Y-133603571D01*
X155464285Y-135103571D02*
X155464285Y-133603571D01*
X156178571Y-135103571D02*
X156178571Y-133603571D01*
X157035714Y-135103571D01*
X157035714Y-133603571D01*
X157750000Y-135103571D02*
X157750000Y-133603571D01*
X158392857Y-135032143D02*
X158607143Y-135103571D01*
X158964286Y-135103571D01*
X159107143Y-135032143D01*
X159178572Y-134960714D01*
X159250000Y-134817857D01*
X159250000Y-134675000D01*
X159178572Y-134532143D01*
X159107143Y-134460714D01*
X158964286Y-134389286D01*
X158678572Y-134317857D01*
X158535714Y-134246429D01*
X158464286Y-134175000D01*
X158392857Y-134032143D01*
X158392857Y-133889286D01*
X158464286Y-133746429D01*
X158535714Y-133675000D01*
X158678572Y-133603571D01*
X159035714Y-133603571D01*
X159250000Y-133675000D01*
X159892857Y-135103571D02*
X159892857Y-133603571D01*
X159892857Y-134317857D02*
X160750000Y-134317857D01*
X160750000Y-135103571D02*
X160750000Y-133603571D01*
X74821429Y-136153571D02*
X74107143Y-136153571D01*
X74035714Y-136867857D01*
X74107143Y-136796429D01*
X74250000Y-136725000D01*
X74607143Y-136725000D01*
X74750000Y-136796429D01*
X74821429Y-136867857D01*
X74892857Y-137010714D01*
X74892857Y-137367857D01*
X74821429Y-137510714D01*
X74750000Y-137582143D01*
X74607143Y-137653571D01*
X74250000Y-137653571D01*
X74107143Y-137582143D01*
X74035714Y-137510714D01*
X75535714Y-137510714D02*
X75607142Y-137582143D01*
X75535714Y-137653571D01*
X75464285Y-137582143D01*
X75535714Y-137510714D01*
X75535714Y-137653571D01*
X77392857Y-137653571D02*
X77392857Y-136153571D01*
X77892857Y-137225000D01*
X78392857Y-136153571D01*
X78392857Y-137653571D01*
X79035714Y-137225000D02*
X79750000Y-137225000D01*
X78892857Y-137653571D02*
X79392857Y-136153571D01*
X79892857Y-137653571D01*
X80178571Y-136153571D02*
X81035714Y-136153571D01*
X80607143Y-137653571D02*
X80607143Y-136153571D01*
X81321428Y-136153571D02*
X82178571Y-136153571D01*
X81750000Y-137653571D02*
X81750000Y-136153571D01*
X82678571Y-136867857D02*
X83178571Y-136867857D01*
X83392857Y-137653571D02*
X82678571Y-137653571D01*
X82678571Y-136153571D01*
X83392857Y-136153571D01*
X85678571Y-136867857D02*
X85892857Y-136939286D01*
X85964285Y-137010714D01*
X86035714Y-137153571D01*
X86035714Y-137367857D01*
X85964285Y-137510714D01*
X85892857Y-137582143D01*
X85749999Y-137653571D01*
X85178571Y-137653571D01*
X85178571Y-136153571D01*
X85678571Y-136153571D01*
X85821428Y-136225000D01*
X85892857Y-136296429D01*
X85964285Y-136439286D01*
X85964285Y-136582143D01*
X85892857Y-136725000D01*
X85821428Y-136796429D01*
X85678571Y-136867857D01*
X85178571Y-136867857D01*
X87392857Y-137653571D02*
X86678571Y-137653571D01*
X86678571Y-136153571D01*
X87821428Y-137225000D02*
X88535714Y-137225000D01*
X87678571Y-137653571D02*
X88178571Y-136153571D01*
X88678571Y-137653571D01*
X90035714Y-137510714D02*
X89964285Y-137582143D01*
X89749999Y-137653571D01*
X89607142Y-137653571D01*
X89392857Y-137582143D01*
X89249999Y-137439286D01*
X89178571Y-137296429D01*
X89107142Y-137010714D01*
X89107142Y-136796429D01*
X89178571Y-136510714D01*
X89249999Y-136367857D01*
X89392857Y-136225000D01*
X89607142Y-136153571D01*
X89749999Y-136153571D01*
X89964285Y-136225000D01*
X90035714Y-136296429D01*
X90678571Y-137653571D02*
X90678571Y-136153571D01*
X91535714Y-137653571D02*
X90892857Y-136796429D01*
X91535714Y-136153571D02*
X90678571Y-137010714D01*
X93249999Y-137582143D02*
X93464285Y-137653571D01*
X93821428Y-137653571D01*
X93964285Y-137582143D01*
X94035714Y-137510714D01*
X94107142Y-137367857D01*
X94107142Y-137225000D01*
X94035714Y-137082143D01*
X93964285Y-137010714D01*
X93821428Y-136939286D01*
X93535714Y-136867857D01*
X93392856Y-136796429D01*
X93321428Y-136725000D01*
X93249999Y-136582143D01*
X93249999Y-136439286D01*
X93321428Y-136296429D01*
X93392856Y-136225000D01*
X93535714Y-136153571D01*
X93892856Y-136153571D01*
X94107142Y-136225000D01*
X95035713Y-136153571D02*
X95321427Y-136153571D01*
X95464285Y-136225000D01*
X95607142Y-136367857D01*
X95678570Y-136653571D01*
X95678570Y-137153571D01*
X95607142Y-137439286D01*
X95464285Y-137582143D01*
X95321427Y-137653571D01*
X95035713Y-137653571D01*
X94892856Y-137582143D01*
X94749999Y-137439286D01*
X94678570Y-137153571D01*
X94678570Y-136653571D01*
X94749999Y-136367857D01*
X94892856Y-136225000D01*
X95035713Y-136153571D01*
X97035714Y-137653571D02*
X96321428Y-137653571D01*
X96321428Y-136153571D01*
X97535714Y-137653571D02*
X97535714Y-136153571D01*
X97892857Y-136153571D01*
X98107142Y-136225000D01*
X98250000Y-136367857D01*
X98321428Y-136510714D01*
X98392857Y-136796429D01*
X98392857Y-137010714D01*
X98321428Y-137296429D01*
X98250000Y-137439286D01*
X98107142Y-137582143D01*
X97892857Y-137653571D01*
X97535714Y-137653571D01*
X99035714Y-136867857D02*
X99535714Y-136867857D01*
X99750000Y-137653571D02*
X99035714Y-137653571D01*
X99035714Y-136153571D01*
X99750000Y-136153571D01*
X101250000Y-137653571D02*
X100750000Y-136939286D01*
X100392857Y-137653571D02*
X100392857Y-136153571D01*
X100964285Y-136153571D01*
X101107143Y-136225000D01*
X101178571Y-136296429D01*
X101250000Y-136439286D01*
X101250000Y-136653571D01*
X101178571Y-136796429D01*
X101107143Y-136867857D01*
X100964285Y-136939286D01*
X100392857Y-136939286D01*
X103035714Y-137653571D02*
X103035714Y-136153571D01*
X103535714Y-137225000D01*
X104035714Y-136153571D01*
X104035714Y-137653571D01*
X104678571Y-137225000D02*
X105392857Y-137225000D01*
X104535714Y-137653571D02*
X105035714Y-136153571D01*
X105535714Y-137653571D01*
X105964285Y-137582143D02*
X106178571Y-137653571D01*
X106535714Y-137653571D01*
X106678571Y-137582143D01*
X106750000Y-137510714D01*
X106821428Y-137367857D01*
X106821428Y-137225000D01*
X106750000Y-137082143D01*
X106678571Y-137010714D01*
X106535714Y-136939286D01*
X106250000Y-136867857D01*
X106107142Y-136796429D01*
X106035714Y-136725000D01*
X105964285Y-136582143D01*
X105964285Y-136439286D01*
X106035714Y-136296429D01*
X106107142Y-136225000D01*
X106250000Y-136153571D01*
X106607142Y-136153571D01*
X106821428Y-136225000D01*
X107464285Y-137653571D02*
X107464285Y-136153571D01*
X108321428Y-137653571D02*
X107678571Y-136796429D01*
X108321428Y-136153571D02*
X107464285Y-137010714D01*
X109964285Y-136153571D02*
X110321428Y-137653571D01*
X110607142Y-136582143D01*
X110892856Y-137653571D01*
X111249999Y-136153571D01*
X111821428Y-137653571D02*
X111821428Y-136153571D01*
X112321428Y-136153571D02*
X113178571Y-136153571D01*
X112750000Y-137653571D02*
X112750000Y-136153571D01*
X113678571Y-137653571D02*
X113678571Y-136153571D01*
X113678571Y-136867857D02*
X114535714Y-136867857D01*
X114535714Y-137653571D02*
X114535714Y-136153571D01*
X116250000Y-136153571D02*
X116607143Y-137653571D01*
X116892857Y-136582143D01*
X117178571Y-137653571D01*
X117535714Y-136153571D01*
X118107143Y-137653571D02*
X118107143Y-136153571D01*
X118107143Y-136867857D02*
X118964286Y-136867857D01*
X118964286Y-137653571D02*
X118964286Y-136153571D01*
X119678572Y-137653571D02*
X119678572Y-136153571D01*
X120178572Y-136153571D02*
X121035715Y-136153571D01*
X120607144Y-137653571D02*
X120607144Y-136153571D01*
X121535715Y-136867857D02*
X122035715Y-136867857D01*
X122250001Y-137653571D02*
X121535715Y-137653571D01*
X121535715Y-136153571D01*
X122250001Y-136153571D01*
X123964286Y-137582143D02*
X124178572Y-137653571D01*
X124535715Y-137653571D01*
X124678572Y-137582143D01*
X124750001Y-137510714D01*
X124821429Y-137367857D01*
X124821429Y-137225000D01*
X124750001Y-137082143D01*
X124678572Y-137010714D01*
X124535715Y-136939286D01*
X124250001Y-136867857D01*
X124107143Y-136796429D01*
X124035715Y-136725000D01*
X123964286Y-136582143D01*
X123964286Y-136439286D01*
X124035715Y-136296429D01*
X124107143Y-136225000D01*
X124250001Y-136153571D01*
X124607143Y-136153571D01*
X124821429Y-136225000D01*
X125464286Y-137653571D02*
X125464286Y-136153571D01*
X126892858Y-137653571D02*
X126178572Y-137653571D01*
X126178572Y-136153571D01*
X127392858Y-137653571D02*
X127392858Y-136153571D01*
X128250001Y-137653571D02*
X127607144Y-136796429D01*
X128250001Y-136153571D02*
X127392858Y-137010714D01*
X128821429Y-137582143D02*
X129035715Y-137653571D01*
X129392858Y-137653571D01*
X129535715Y-137582143D01*
X129607144Y-137510714D01*
X129678572Y-137367857D01*
X129678572Y-137225000D01*
X129607144Y-137082143D01*
X129535715Y-137010714D01*
X129392858Y-136939286D01*
X129107144Y-136867857D01*
X128964286Y-136796429D01*
X128892858Y-136725000D01*
X128821429Y-136582143D01*
X128821429Y-136439286D01*
X128892858Y-136296429D01*
X128964286Y-136225000D01*
X129107144Y-136153571D01*
X129464286Y-136153571D01*
X129678572Y-136225000D01*
X131178572Y-137510714D02*
X131107143Y-137582143D01*
X130892857Y-137653571D01*
X130750000Y-137653571D01*
X130535715Y-137582143D01*
X130392857Y-137439286D01*
X130321429Y-137296429D01*
X130250000Y-137010714D01*
X130250000Y-136796429D01*
X130321429Y-136510714D01*
X130392857Y-136367857D01*
X130535715Y-136225000D01*
X130750000Y-136153571D01*
X130892857Y-136153571D01*
X131107143Y-136225000D01*
X131178572Y-136296429D01*
X132678572Y-137653571D02*
X132178572Y-136939286D01*
X131821429Y-137653571D02*
X131821429Y-136153571D01*
X132392857Y-136153571D01*
X132535715Y-136225000D01*
X132607143Y-136296429D01*
X132678572Y-136439286D01*
X132678572Y-136653571D01*
X132607143Y-136796429D01*
X132535715Y-136867857D01*
X132392857Y-136939286D01*
X131821429Y-136939286D01*
X133321429Y-136867857D02*
X133821429Y-136867857D01*
X134035715Y-137653571D02*
X133321429Y-137653571D01*
X133321429Y-136153571D01*
X134035715Y-136153571D01*
X134678572Y-136867857D02*
X135178572Y-136867857D01*
X135392858Y-137653571D02*
X134678572Y-137653571D01*
X134678572Y-136153571D01*
X135392858Y-136153571D01*
X136035715Y-137653571D02*
X136035715Y-136153571D01*
X136892858Y-137653571D01*
X136892858Y-136153571D01*
X74750000Y-138703571D02*
X74464286Y-138703571D01*
X74321429Y-138775000D01*
X74250000Y-138846429D01*
X74107143Y-139060714D01*
X74035714Y-139346429D01*
X74035714Y-139917857D01*
X74107143Y-140060714D01*
X74178571Y-140132143D01*
X74321429Y-140203571D01*
X74607143Y-140203571D01*
X74750000Y-140132143D01*
X74821429Y-140060714D01*
X74892857Y-139917857D01*
X74892857Y-139560714D01*
X74821429Y-139417857D01*
X74750000Y-139346429D01*
X74607143Y-139275000D01*
X74321429Y-139275000D01*
X74178571Y-139346429D01*
X74107143Y-139417857D01*
X74035714Y-139560714D01*
X75535714Y-140060714D02*
X75607142Y-140132143D01*
X75535714Y-140203571D01*
X75464285Y-140132143D01*
X75535714Y-140060714D01*
X75535714Y-140203571D01*
X77321428Y-140132143D02*
X77535714Y-140203571D01*
X77892857Y-140203571D01*
X78035714Y-140132143D01*
X78107143Y-140060714D01*
X78178571Y-139917857D01*
X78178571Y-139775000D01*
X78107143Y-139632143D01*
X78035714Y-139560714D01*
X77892857Y-139489286D01*
X77607143Y-139417857D01*
X77464285Y-139346429D01*
X77392857Y-139275000D01*
X77321428Y-139132143D01*
X77321428Y-138989286D01*
X77392857Y-138846429D01*
X77464285Y-138775000D01*
X77607143Y-138703571D01*
X77964285Y-138703571D01*
X78178571Y-138775000D01*
X79107142Y-138703571D02*
X79392856Y-138703571D01*
X79535714Y-138775000D01*
X79678571Y-138917857D01*
X79749999Y-139203571D01*
X79749999Y-139703571D01*
X79678571Y-139989286D01*
X79535714Y-140132143D01*
X79392856Y-140203571D01*
X79107142Y-140203571D01*
X78964285Y-140132143D01*
X78821428Y-139989286D01*
X78749999Y-139703571D01*
X78749999Y-139203571D01*
X78821428Y-138917857D01*
X78964285Y-138775000D01*
X79107142Y-138703571D01*
X81107143Y-140203571D02*
X80392857Y-140203571D01*
X80392857Y-138703571D01*
X81607143Y-140203571D02*
X81607143Y-138703571D01*
X81964286Y-138703571D01*
X82178571Y-138775000D01*
X82321429Y-138917857D01*
X82392857Y-139060714D01*
X82464286Y-139346429D01*
X82464286Y-139560714D01*
X82392857Y-139846429D01*
X82321429Y-139989286D01*
X82178571Y-140132143D01*
X81964286Y-140203571D01*
X81607143Y-140203571D01*
X83107143Y-139417857D02*
X83607143Y-139417857D01*
X83821429Y-140203571D02*
X83107143Y-140203571D01*
X83107143Y-138703571D01*
X83821429Y-138703571D01*
X85321429Y-140203571D02*
X84821429Y-139489286D01*
X84464286Y-140203571D02*
X84464286Y-138703571D01*
X85035714Y-138703571D01*
X85178572Y-138775000D01*
X85250000Y-138846429D01*
X85321429Y-138989286D01*
X85321429Y-139203571D01*
X85250000Y-139346429D01*
X85178572Y-139417857D01*
X85035714Y-139489286D01*
X84464286Y-139489286D01*
X87107143Y-140203571D02*
X87107143Y-138703571D01*
X87678571Y-138703571D01*
X87821429Y-138775000D01*
X87892857Y-138846429D01*
X87964286Y-138989286D01*
X87964286Y-139203571D01*
X87892857Y-139346429D01*
X87821429Y-139417857D01*
X87678571Y-139489286D01*
X87107143Y-139489286D01*
X88535714Y-139775000D02*
X89250000Y-139775000D01*
X88392857Y-140203571D02*
X88892857Y-138703571D01*
X89392857Y-140203571D01*
X89821428Y-140132143D02*
X90035714Y-140203571D01*
X90392857Y-140203571D01*
X90535714Y-140132143D01*
X90607143Y-140060714D01*
X90678571Y-139917857D01*
X90678571Y-139775000D01*
X90607143Y-139632143D01*
X90535714Y-139560714D01*
X90392857Y-139489286D01*
X90107143Y-139417857D01*
X89964285Y-139346429D01*
X89892857Y-139275000D01*
X89821428Y-139132143D01*
X89821428Y-138989286D01*
X89892857Y-138846429D01*
X89964285Y-138775000D01*
X90107143Y-138703571D01*
X90464285Y-138703571D01*
X90678571Y-138775000D01*
X91107142Y-138703571D02*
X91964285Y-138703571D01*
X91535714Y-140203571D02*
X91535714Y-138703571D01*
X92464285Y-139417857D02*
X92964285Y-139417857D01*
X93178571Y-140203571D02*
X92464285Y-140203571D01*
X92464285Y-138703571D01*
X93178571Y-138703571D01*
X94964285Y-140203571D02*
X94964285Y-138703571D01*
X95464285Y-139775000D01*
X95964285Y-138703571D01*
X95964285Y-140203571D01*
X96678571Y-138703571D02*
X96678571Y-139917857D01*
X96749999Y-140060714D01*
X96821428Y-140132143D01*
X96964285Y-140203571D01*
X97249999Y-140203571D01*
X97392857Y-140132143D01*
X97464285Y-140060714D01*
X97535714Y-139917857D01*
X97535714Y-138703571D01*
X98178571Y-140132143D02*
X98392857Y-140203571D01*
X98750000Y-140203571D01*
X98892857Y-140132143D01*
X98964286Y-140060714D01*
X99035714Y-139917857D01*
X99035714Y-139775000D01*
X98964286Y-139632143D01*
X98892857Y-139560714D01*
X98750000Y-139489286D01*
X98464286Y-139417857D01*
X98321428Y-139346429D01*
X98250000Y-139275000D01*
X98178571Y-139132143D01*
X98178571Y-138989286D01*
X98250000Y-138846429D01*
X98321428Y-138775000D01*
X98464286Y-138703571D01*
X98821428Y-138703571D01*
X99035714Y-138775000D01*
X99464285Y-138703571D02*
X100321428Y-138703571D01*
X99892857Y-140203571D02*
X99892857Y-138703571D01*
X102464285Y-139417857D02*
X102678571Y-139489286D01*
X102749999Y-139560714D01*
X102821428Y-139703571D01*
X102821428Y-139917857D01*
X102749999Y-140060714D01*
X102678571Y-140132143D01*
X102535713Y-140203571D01*
X101964285Y-140203571D01*
X101964285Y-138703571D01*
X102464285Y-138703571D01*
X102607142Y-138775000D01*
X102678571Y-138846429D01*
X102749999Y-138989286D01*
X102749999Y-139132143D01*
X102678571Y-139275000D01*
X102607142Y-139346429D01*
X102464285Y-139417857D01*
X101964285Y-139417857D01*
X103464285Y-139417857D02*
X103964285Y-139417857D01*
X104178571Y-140203571D02*
X103464285Y-140203571D01*
X103464285Y-138703571D01*
X104178571Y-138703571D01*
X106821428Y-140203571D02*
X106321428Y-139489286D01*
X105964285Y-140203571D02*
X105964285Y-138703571D01*
X106535713Y-138703571D01*
X106678571Y-138775000D01*
X106749999Y-138846429D01*
X106821428Y-138989286D01*
X106821428Y-139203571D01*
X106749999Y-139346429D01*
X106678571Y-139417857D01*
X106535713Y-139489286D01*
X105964285Y-139489286D01*
X107749999Y-138703571D02*
X108035713Y-138703571D01*
X108178571Y-138775000D01*
X108321428Y-138917857D01*
X108392856Y-139203571D01*
X108392856Y-139703571D01*
X108321428Y-139989286D01*
X108178571Y-140132143D01*
X108035713Y-140203571D01*
X107749999Y-140203571D01*
X107607142Y-140132143D01*
X107464285Y-139989286D01*
X107392856Y-139703571D01*
X107392856Y-139203571D01*
X107464285Y-138917857D01*
X107607142Y-138775000D01*
X107749999Y-138703571D01*
X109035714Y-140203571D02*
X109035714Y-138703571D01*
X109035714Y-139417857D02*
X109892857Y-139417857D01*
X109892857Y-140203571D02*
X109892857Y-138703571D01*
X110535714Y-140132143D02*
X110750000Y-140203571D01*
X111107143Y-140203571D01*
X111250000Y-140132143D01*
X111321429Y-140060714D01*
X111392857Y-139917857D01*
X111392857Y-139775000D01*
X111321429Y-139632143D01*
X111250000Y-139560714D01*
X111107143Y-139489286D01*
X110821429Y-139417857D01*
X110678571Y-139346429D01*
X110607143Y-139275000D01*
X110535714Y-139132143D01*
X110535714Y-138989286D01*
X110607143Y-138846429D01*
X110678571Y-138775000D01*
X110821429Y-138703571D01*
X111178571Y-138703571D01*
X111392857Y-138775000D01*
X114035714Y-140060714D02*
X113964285Y-140132143D01*
X113749999Y-140203571D01*
X113607142Y-140203571D01*
X113392857Y-140132143D01*
X113249999Y-139989286D01*
X113178571Y-139846429D01*
X113107142Y-139560714D01*
X113107142Y-139346429D01*
X113178571Y-139060714D01*
X113249999Y-138917857D01*
X113392857Y-138775000D01*
X113607142Y-138703571D01*
X113749999Y-138703571D01*
X113964285Y-138775000D01*
X114035714Y-138846429D01*
X114964285Y-138703571D02*
X115249999Y-138703571D01*
X115392857Y-138775000D01*
X115535714Y-138917857D01*
X115607142Y-139203571D01*
X115607142Y-139703571D01*
X115535714Y-139989286D01*
X115392857Y-140132143D01*
X115249999Y-140203571D01*
X114964285Y-140203571D01*
X114821428Y-140132143D01*
X114678571Y-139989286D01*
X114607142Y-139703571D01*
X114607142Y-139203571D01*
X114678571Y-138917857D01*
X114821428Y-138775000D01*
X114964285Y-138703571D01*
X116250000Y-140203571D02*
X116250000Y-138703571D01*
X116750000Y-139775000D01*
X117250000Y-138703571D01*
X117250000Y-140203571D01*
X117964286Y-140203571D02*
X117964286Y-138703571D01*
X118535714Y-138703571D01*
X118678572Y-138775000D01*
X118750000Y-138846429D01*
X118821429Y-138989286D01*
X118821429Y-139203571D01*
X118750000Y-139346429D01*
X118678572Y-139417857D01*
X118535714Y-139489286D01*
X117964286Y-139489286D01*
X120178572Y-140203571D02*
X119464286Y-140203571D01*
X119464286Y-138703571D01*
X120678572Y-140203571D02*
X120678572Y-138703571D01*
X121321429Y-139775000D02*
X122035715Y-139775000D01*
X121178572Y-140203571D02*
X121678572Y-138703571D01*
X122178572Y-140203571D01*
X122678572Y-140203571D02*
X122678572Y-138703571D01*
X123535715Y-140203571D01*
X123535715Y-138703571D01*
X124035715Y-138703571D02*
X124892858Y-138703571D01*
X124464287Y-140203571D02*
X124464287Y-138703571D01*
X126964286Y-140775000D02*
X126892858Y-140703571D01*
X126750001Y-140489286D01*
X126678572Y-140346429D01*
X126607143Y-140132143D01*
X126535715Y-139775000D01*
X126535715Y-139489286D01*
X126607143Y-139132143D01*
X126678572Y-138917857D01*
X126750001Y-138775000D01*
X126892858Y-138560714D01*
X126964286Y-138489286D01*
X128250001Y-140203571D02*
X127535715Y-140203571D01*
X127535715Y-138703571D01*
X128750001Y-139417857D02*
X129250001Y-139417857D01*
X129464287Y-140203571D02*
X128750001Y-140203571D01*
X128750001Y-138703571D01*
X129464287Y-138703571D01*
X130035715Y-139775000D02*
X130750001Y-139775000D01*
X129892858Y-140203571D02*
X130392858Y-138703571D01*
X130892858Y-140203571D01*
X131392858Y-140203571D02*
X131392858Y-138703571D01*
X131750001Y-138703571D01*
X131964286Y-138775000D01*
X132107144Y-138917857D01*
X132178572Y-139060714D01*
X132250001Y-139346429D01*
X132250001Y-139560714D01*
X132178572Y-139846429D01*
X132107144Y-139989286D01*
X131964286Y-140132143D01*
X131750001Y-140203571D01*
X131392858Y-140203571D01*
X132892858Y-139632143D02*
X134035715Y-139632143D01*
X135250001Y-139417857D02*
X134750001Y-139417857D01*
X134750001Y-140203571D02*
X134750001Y-138703571D01*
X135464287Y-138703571D01*
X136892858Y-140203571D02*
X136392858Y-139489286D01*
X136035715Y-140203571D02*
X136035715Y-138703571D01*
X136607143Y-138703571D01*
X136750001Y-138775000D01*
X136821429Y-138846429D01*
X136892858Y-138989286D01*
X136892858Y-139203571D01*
X136821429Y-139346429D01*
X136750001Y-139417857D01*
X136607143Y-139489286D01*
X136035715Y-139489286D01*
X137535715Y-139417857D02*
X138035715Y-139417857D01*
X138250001Y-140203571D02*
X137535715Y-140203571D01*
X137535715Y-138703571D01*
X138250001Y-138703571D01*
X138892858Y-139417857D02*
X139392858Y-139417857D01*
X139607144Y-140203571D02*
X138892858Y-140203571D01*
X138892858Y-138703571D01*
X139607144Y-138703571D01*
X140107144Y-140775000D02*
X140178572Y-140703571D01*
X140321429Y-140489286D01*
X140392858Y-140346429D01*
X140464287Y-140132143D01*
X140535715Y-139775000D01*
X140535715Y-139489286D01*
X140464287Y-139132143D01*
X140392858Y-138917857D01*
X140321429Y-138775000D01*
X140178572Y-138560714D01*
X140107144Y-138489286D01*
X73964286Y-141253571D02*
X74964286Y-141253571D01*
X74321429Y-142753571D01*
X75535714Y-142610714D02*
X75607142Y-142682143D01*
X75535714Y-142753571D01*
X75464285Y-142682143D01*
X75535714Y-142610714D01*
X75535714Y-142753571D01*
X77392857Y-142753571D02*
X77392857Y-141253571D01*
X78250000Y-142753571D01*
X78250000Y-141253571D01*
X79250000Y-141253571D02*
X79535714Y-141253571D01*
X79678572Y-141325000D01*
X79821429Y-141467857D01*
X79892857Y-141753571D01*
X79892857Y-142253571D01*
X79821429Y-142539286D01*
X79678572Y-142682143D01*
X79535714Y-142753571D01*
X79250000Y-142753571D01*
X79107143Y-142682143D01*
X78964286Y-142539286D01*
X78892857Y-142253571D01*
X78892857Y-141753571D01*
X78964286Y-141467857D01*
X79107143Y-141325000D01*
X79250000Y-141253571D01*
X81678572Y-142753571D02*
X81678572Y-141253571D01*
X82178572Y-142325000D01*
X82678572Y-141253571D01*
X82678572Y-142753571D01*
X83321429Y-142325000D02*
X84035715Y-142325000D01*
X83178572Y-142753571D02*
X83678572Y-141253571D01*
X84178572Y-142753571D01*
X85535715Y-142753571D02*
X85035715Y-142039286D01*
X84678572Y-142753571D02*
X84678572Y-141253571D01*
X85250000Y-141253571D01*
X85392858Y-141325000D01*
X85464286Y-141396429D01*
X85535715Y-141539286D01*
X85535715Y-141753571D01*
X85464286Y-141896429D01*
X85392858Y-141967857D01*
X85250000Y-142039286D01*
X84678572Y-142039286D01*
X86178572Y-142753571D02*
X86178572Y-141253571D01*
X87035715Y-142753571D02*
X86392858Y-141896429D01*
X87035715Y-141253571D02*
X86178572Y-142110714D01*
X87607143Y-142682143D02*
X87821429Y-142753571D01*
X88178572Y-142753571D01*
X88321429Y-142682143D01*
X88392858Y-142610714D01*
X88464286Y-142467857D01*
X88464286Y-142325000D01*
X88392858Y-142182143D01*
X88321429Y-142110714D01*
X88178572Y-142039286D01*
X87892858Y-141967857D01*
X87750000Y-141896429D01*
X87678572Y-141825000D01*
X87607143Y-141682143D01*
X87607143Y-141539286D01*
X87678572Y-141396429D01*
X87750000Y-141325000D01*
X87892858Y-141253571D01*
X88250000Y-141253571D01*
X88464286Y-141325000D01*
X90678571Y-143325000D02*
X90607143Y-143253571D01*
X90464286Y-143039286D01*
X90392857Y-142896429D01*
X90321428Y-142682143D01*
X90250000Y-142325000D01*
X90250000Y-142039286D01*
X90321428Y-141682143D01*
X90392857Y-141467857D01*
X90464286Y-141325000D01*
X90607143Y-141110714D01*
X90678571Y-141039286D01*
X91250000Y-141967857D02*
X91750000Y-141967857D01*
X91964286Y-142753571D02*
X91250000Y-142753571D01*
X91250000Y-141253571D01*
X91964286Y-141253571D01*
X92607143Y-142182143D02*
X93750000Y-142182143D01*
X94250000Y-141253571D02*
X95107143Y-141253571D01*
X94678572Y-142753571D02*
X94678572Y-141253571D01*
X95607143Y-141967857D02*
X96107143Y-141967857D01*
X96321429Y-142753571D02*
X95607143Y-142753571D01*
X95607143Y-141253571D01*
X96321429Y-141253571D01*
X96892857Y-142682143D02*
X97107143Y-142753571D01*
X97464286Y-142753571D01*
X97607143Y-142682143D01*
X97678572Y-142610714D01*
X97750000Y-142467857D01*
X97750000Y-142325000D01*
X97678572Y-142182143D01*
X97607143Y-142110714D01*
X97464286Y-142039286D01*
X97178572Y-141967857D01*
X97035714Y-141896429D01*
X96964286Y-141825000D01*
X96892857Y-141682143D01*
X96892857Y-141539286D01*
X96964286Y-141396429D01*
X97035714Y-141325000D01*
X97178572Y-141253571D01*
X97535714Y-141253571D01*
X97750000Y-141325000D01*
X98178571Y-141253571D02*
X99035714Y-141253571D01*
X98607143Y-142753571D02*
X98607143Y-141253571D01*
X99607142Y-142682143D02*
X99607142Y-142753571D01*
X99535714Y-142896429D01*
X99464285Y-142967857D01*
X102392857Y-142896429D02*
X102250000Y-142825000D01*
X102107143Y-142682143D01*
X101892857Y-142467857D01*
X101750000Y-142396429D01*
X101607143Y-142396429D01*
X101678571Y-142753571D02*
X101535714Y-142682143D01*
X101392857Y-142539286D01*
X101321428Y-142253571D01*
X101321428Y-141753571D01*
X101392857Y-141467857D01*
X101535714Y-141325000D01*
X101678571Y-141253571D01*
X101964285Y-141253571D01*
X102107143Y-141325000D01*
X102250000Y-141467857D01*
X102321428Y-141753571D01*
X102321428Y-142253571D01*
X102250000Y-142539286D01*
X102107143Y-142682143D01*
X101964285Y-142753571D01*
X101678571Y-142753571D01*
X102892857Y-142325000D02*
X103607143Y-142325000D01*
X102750000Y-142753571D02*
X103250000Y-141253571D01*
X103750000Y-142753571D01*
X104321428Y-142682143D02*
X104321428Y-142753571D01*
X104250000Y-142896429D01*
X104178571Y-142967857D01*
X106035714Y-142682143D02*
X106250000Y-142753571D01*
X106607143Y-142753571D01*
X106750000Y-142682143D01*
X106821429Y-142610714D01*
X106892857Y-142467857D01*
X106892857Y-142325000D01*
X106821429Y-142182143D01*
X106750000Y-142110714D01*
X106607143Y-142039286D01*
X106321429Y-141967857D01*
X106178571Y-141896429D01*
X106107143Y-141825000D01*
X106035714Y-141682143D01*
X106035714Y-141539286D01*
X106107143Y-141396429D01*
X106178571Y-141325000D01*
X106321429Y-141253571D01*
X106678571Y-141253571D01*
X106892857Y-141325000D01*
X107535714Y-141967857D02*
X108035714Y-141967857D01*
X108250000Y-142753571D02*
X107535714Y-142753571D01*
X107535714Y-141253571D01*
X108250000Y-141253571D01*
X109750000Y-142753571D02*
X109250000Y-142039286D01*
X108892857Y-142753571D02*
X108892857Y-141253571D01*
X109464285Y-141253571D01*
X109607143Y-141325000D01*
X109678571Y-141396429D01*
X109750000Y-141539286D01*
X109750000Y-141753571D01*
X109678571Y-141896429D01*
X109607143Y-141967857D01*
X109464285Y-142039286D01*
X108892857Y-142039286D01*
X110392857Y-142753571D02*
X110392857Y-141253571D01*
X111035714Y-142325000D02*
X111750000Y-142325000D01*
X110892857Y-142753571D02*
X111392857Y-141253571D01*
X111892857Y-142753571D01*
X113107143Y-142753571D02*
X112392857Y-142753571D01*
X112392857Y-141253571D01*
X114750000Y-142753571D02*
X114750000Y-141253571D01*
X115607143Y-142753571D01*
X115607143Y-141253571D01*
X116321429Y-141253571D02*
X116321429Y-142467857D01*
X116392857Y-142610714D01*
X116464286Y-142682143D01*
X116607143Y-142753571D01*
X116892857Y-142753571D01*
X117035715Y-142682143D01*
X117107143Y-142610714D01*
X117178572Y-142467857D01*
X117178572Y-141253571D01*
X117892858Y-142753571D02*
X117892858Y-141253571D01*
X118392858Y-142325000D01*
X118892858Y-141253571D01*
X118892858Y-142753571D01*
X120107144Y-141967857D02*
X120321430Y-142039286D01*
X120392858Y-142110714D01*
X120464287Y-142253571D01*
X120464287Y-142467857D01*
X120392858Y-142610714D01*
X120321430Y-142682143D01*
X120178572Y-142753571D01*
X119607144Y-142753571D01*
X119607144Y-141253571D01*
X120107144Y-141253571D01*
X120250001Y-141325000D01*
X120321430Y-141396429D01*
X120392858Y-141539286D01*
X120392858Y-141682143D01*
X120321430Y-141825000D01*
X120250001Y-141896429D01*
X120107144Y-141967857D01*
X119607144Y-141967857D01*
X121107144Y-141967857D02*
X121607144Y-141967857D01*
X121821430Y-142753571D02*
X121107144Y-142753571D01*
X121107144Y-141253571D01*
X121821430Y-141253571D01*
X123321430Y-142753571D02*
X122821430Y-142039286D01*
X122464287Y-142753571D02*
X122464287Y-141253571D01*
X123035715Y-141253571D01*
X123178573Y-141325000D01*
X123250001Y-141396429D01*
X123321430Y-141539286D01*
X123321430Y-141753571D01*
X123250001Y-141896429D01*
X123178573Y-141967857D01*
X123035715Y-142039286D01*
X122464287Y-142039286D01*
X124035715Y-142682143D02*
X124035715Y-142753571D01*
X123964287Y-142896429D01*
X123892858Y-142967857D01*
X125821430Y-141967857D02*
X126321430Y-141967857D01*
X126535716Y-142753571D02*
X125821430Y-142753571D01*
X125821430Y-141253571D01*
X126535716Y-141253571D01*
X126964287Y-141253571D02*
X127821430Y-141253571D01*
X127392859Y-142753571D02*
X127392859Y-141253571D01*
X129178573Y-142610714D02*
X129107144Y-142682143D01*
X128892858Y-142753571D01*
X128750001Y-142753571D01*
X128535716Y-142682143D01*
X128392858Y-142539286D01*
X128321430Y-142396429D01*
X128250001Y-142110714D01*
X128250001Y-141896429D01*
X128321430Y-141610714D01*
X128392858Y-141467857D01*
X128535716Y-141325000D01*
X128750001Y-141253571D01*
X128892858Y-141253571D01*
X129107144Y-141325000D01*
X129178573Y-141396429D01*
X129678573Y-143325000D02*
X129750001Y-143253571D01*
X129892858Y-143039286D01*
X129964287Y-142896429D01*
X130035716Y-142682143D01*
X130107144Y-142325000D01*
X130107144Y-142039286D01*
X130035716Y-141682143D01*
X129964287Y-141467857D01*
X129892858Y-141325000D01*
X129750001Y-141110714D01*
X129678573Y-141039286D01*
X132250001Y-141253571D02*
X132535715Y-141253571D01*
X132678573Y-141325000D01*
X132821430Y-141467857D01*
X132892858Y-141753571D01*
X132892858Y-142253571D01*
X132821430Y-142539286D01*
X132678573Y-142682143D01*
X132535715Y-142753571D01*
X132250001Y-142753571D01*
X132107144Y-142682143D01*
X131964287Y-142539286D01*
X131892858Y-142253571D01*
X131892858Y-141753571D01*
X131964287Y-141467857D01*
X132107144Y-141325000D01*
X132250001Y-141253571D01*
X133535716Y-142753571D02*
X133535716Y-141253571D01*
X134392859Y-142753571D01*
X134392859Y-141253571D01*
X136750002Y-141967857D02*
X136250002Y-141967857D01*
X136250002Y-142753571D02*
X136250002Y-141253571D01*
X136964288Y-141253571D01*
X138392859Y-142753571D02*
X137892859Y-142039286D01*
X137535716Y-142753571D02*
X137535716Y-141253571D01*
X138107144Y-141253571D01*
X138250002Y-141325000D01*
X138321430Y-141396429D01*
X138392859Y-141539286D01*
X138392859Y-141753571D01*
X138321430Y-141896429D01*
X138250002Y-141967857D01*
X138107144Y-142039286D01*
X137535716Y-142039286D01*
X139321430Y-141253571D02*
X139607144Y-141253571D01*
X139750002Y-141325000D01*
X139892859Y-141467857D01*
X139964287Y-141753571D01*
X139964287Y-142253571D01*
X139892859Y-142539286D01*
X139750002Y-142682143D01*
X139607144Y-142753571D01*
X139321430Y-142753571D01*
X139178573Y-142682143D01*
X139035716Y-142539286D01*
X138964287Y-142253571D01*
X138964287Y-141753571D01*
X139035716Y-141467857D01*
X139178573Y-141325000D01*
X139321430Y-141253571D01*
X140607145Y-142753571D02*
X140607145Y-141253571D01*
X141464288Y-142753571D01*
X141464288Y-141253571D01*
X141964288Y-141253571D02*
X142821431Y-141253571D01*
X142392860Y-142753571D02*
X142392860Y-141253571D01*
X144892859Y-143325000D02*
X144821431Y-143253571D01*
X144678574Y-143039286D01*
X144607145Y-142896429D01*
X144535716Y-142682143D01*
X144464288Y-142325000D01*
X144464288Y-142039286D01*
X144535716Y-141682143D01*
X144607145Y-141467857D01*
X144678574Y-141325000D01*
X144821431Y-141110714D01*
X144892859Y-141039286D01*
X146178574Y-142753571D02*
X145464288Y-142753571D01*
X145464288Y-141253571D01*
X146964288Y-141253571D02*
X147250002Y-141253571D01*
X147392860Y-141325000D01*
X147535717Y-141467857D01*
X147607145Y-141753571D01*
X147607145Y-142253571D01*
X147535717Y-142539286D01*
X147392860Y-142682143D01*
X147250002Y-142753571D01*
X146964288Y-142753571D01*
X146821431Y-142682143D01*
X146678574Y-142539286D01*
X146607145Y-142253571D01*
X146607145Y-141753571D01*
X146678574Y-141467857D01*
X146821431Y-141325000D01*
X146964288Y-141253571D01*
X149035717Y-141325000D02*
X148892860Y-141253571D01*
X148678574Y-141253571D01*
X148464289Y-141325000D01*
X148321431Y-141467857D01*
X148250003Y-141610714D01*
X148178574Y-141896429D01*
X148178574Y-142110714D01*
X148250003Y-142396429D01*
X148321431Y-142539286D01*
X148464289Y-142682143D01*
X148678574Y-142753571D01*
X148821431Y-142753571D01*
X149035717Y-142682143D01*
X149107146Y-142610714D01*
X149107146Y-142110714D01*
X148821431Y-142110714D01*
X150035717Y-141253571D02*
X150321431Y-141253571D01*
X150464289Y-141325000D01*
X150607146Y-141467857D01*
X150678574Y-141753571D01*
X150678574Y-142253571D01*
X150607146Y-142539286D01*
X150464289Y-142682143D01*
X150321431Y-142753571D01*
X150035717Y-142753571D01*
X149892860Y-142682143D01*
X149750003Y-142539286D01*
X149678574Y-142253571D01*
X149678574Y-141753571D01*
X149750003Y-141467857D01*
X149892860Y-141325000D01*
X150035717Y-141253571D01*
X152392860Y-142682143D02*
X152607146Y-142753571D01*
X152964289Y-142753571D01*
X153107146Y-142682143D01*
X153178575Y-142610714D01*
X153250003Y-142467857D01*
X153250003Y-142325000D01*
X153178575Y-142182143D01*
X153107146Y-142110714D01*
X152964289Y-142039286D01*
X152678575Y-141967857D01*
X152535717Y-141896429D01*
X152464289Y-141825000D01*
X152392860Y-141682143D01*
X152392860Y-141539286D01*
X152464289Y-141396429D01*
X152535717Y-141325000D01*
X152678575Y-141253571D01*
X153035717Y-141253571D01*
X153250003Y-141325000D01*
X153892860Y-142753571D02*
X153892860Y-141253571D01*
X154607146Y-142753571D02*
X154607146Y-141253571D01*
X154964289Y-141253571D01*
X155178574Y-141325000D01*
X155321432Y-141467857D01*
X155392860Y-141610714D01*
X155464289Y-141896429D01*
X155464289Y-142110714D01*
X155392860Y-142396429D01*
X155321432Y-142539286D01*
X155178574Y-142682143D01*
X154964289Y-142753571D01*
X154607146Y-142753571D01*
X156107146Y-141967857D02*
X156607146Y-141967857D01*
X156821432Y-142753571D02*
X156107146Y-142753571D01*
X156107146Y-141253571D01*
X156821432Y-141253571D01*
X157321432Y-143325000D02*
X157392860Y-143253571D01*
X157535717Y-143039286D01*
X157607146Y-142896429D01*
X157678575Y-142682143D01*
X157750003Y-142325000D01*
X157750003Y-142039286D01*
X157678575Y-141682143D01*
X157607146Y-141467857D01*
X157535717Y-141325000D01*
X157392860Y-141110714D01*
X157321432Y-141039286D01*
X159892860Y-141253571D02*
X160178574Y-141253571D01*
X160321432Y-141325000D01*
X160464289Y-141467857D01*
X160535717Y-141753571D01*
X160535717Y-142253571D01*
X160464289Y-142539286D01*
X160321432Y-142682143D01*
X160178574Y-142753571D01*
X159892860Y-142753571D01*
X159750003Y-142682143D01*
X159607146Y-142539286D01*
X159535717Y-142253571D01*
X159535717Y-141753571D01*
X159607146Y-141467857D01*
X159750003Y-141325000D01*
X159892860Y-141253571D01*
X161678575Y-141967857D02*
X161178575Y-141967857D01*
X161178575Y-142753571D02*
X161178575Y-141253571D01*
X161892861Y-141253571D01*
X164107146Y-141967857D02*
X164321432Y-142039286D01*
X164392860Y-142110714D01*
X164464289Y-142253571D01*
X164464289Y-142467857D01*
X164392860Y-142610714D01*
X164321432Y-142682143D01*
X164178574Y-142753571D01*
X163607146Y-142753571D01*
X163607146Y-141253571D01*
X164107146Y-141253571D01*
X164250003Y-141325000D01*
X164321432Y-141396429D01*
X164392860Y-141539286D01*
X164392860Y-141682143D01*
X164321432Y-141825000D01*
X164250003Y-141896429D01*
X164107146Y-141967857D01*
X163607146Y-141967857D01*
X165392860Y-141253571D02*
X165678574Y-141253571D01*
X165821432Y-141325000D01*
X165964289Y-141467857D01*
X166035717Y-141753571D01*
X166035717Y-142253571D01*
X165964289Y-142539286D01*
X165821432Y-142682143D01*
X165678574Y-142753571D01*
X165392860Y-142753571D01*
X165250003Y-142682143D01*
X165107146Y-142539286D01*
X165035717Y-142253571D01*
X165035717Y-141753571D01*
X165107146Y-141467857D01*
X165250003Y-141325000D01*
X165392860Y-141253571D01*
X166607146Y-142325000D02*
X167321432Y-142325000D01*
X166464289Y-142753571D02*
X166964289Y-141253571D01*
X167464289Y-142753571D01*
X168821432Y-142753571D02*
X168321432Y-142039286D01*
X167964289Y-142753571D02*
X167964289Y-141253571D01*
X168535717Y-141253571D01*
X168678575Y-141325000D01*
X168750003Y-141396429D01*
X168821432Y-141539286D01*
X168821432Y-141753571D01*
X168750003Y-141896429D01*
X168678575Y-141967857D01*
X168535717Y-142039286D01*
X167964289Y-142039286D01*
X169464289Y-142753571D02*
X169464289Y-141253571D01*
X169821432Y-141253571D01*
X170035717Y-141325000D01*
X170178575Y-141467857D01*
X170250003Y-141610714D01*
X170321432Y-141896429D01*
X170321432Y-142110714D01*
X170250003Y-142396429D01*
X170178575Y-142539286D01*
X170035717Y-142682143D01*
X169821432Y-142753571D01*
X169464289Y-142753571D01*
X74321429Y-144446429D02*
X74178571Y-144375000D01*
X74107143Y-144303571D01*
X74035714Y-144160714D01*
X74035714Y-144089286D01*
X74107143Y-143946429D01*
X74178571Y-143875000D01*
X74321429Y-143803571D01*
X74607143Y-143803571D01*
X74750000Y-143875000D01*
X74821429Y-143946429D01*
X74892857Y-144089286D01*
X74892857Y-144160714D01*
X74821429Y-144303571D01*
X74750000Y-144375000D01*
X74607143Y-144446429D01*
X74321429Y-144446429D01*
X74178571Y-144517857D01*
X74107143Y-144589286D01*
X74035714Y-144732143D01*
X74035714Y-145017857D01*
X74107143Y-145160714D01*
X74178571Y-145232143D01*
X74321429Y-145303571D01*
X74607143Y-145303571D01*
X74750000Y-145232143D01*
X74821429Y-145160714D01*
X74892857Y-145017857D01*
X74892857Y-144732143D01*
X74821429Y-144589286D01*
X74750000Y-144517857D01*
X74607143Y-144446429D01*
X75535714Y-145160714D02*
X75607142Y-145232143D01*
X75535714Y-145303571D01*
X75464285Y-145232143D01*
X75535714Y-145160714D01*
X75535714Y-145303571D01*
X77892857Y-144517857D02*
X78107143Y-144589286D01*
X78178571Y-144660714D01*
X78250000Y-144803571D01*
X78250000Y-145017857D01*
X78178571Y-145160714D01*
X78107143Y-145232143D01*
X77964285Y-145303571D01*
X77392857Y-145303571D01*
X77392857Y-143803571D01*
X77892857Y-143803571D01*
X78035714Y-143875000D01*
X78107143Y-143946429D01*
X78178571Y-144089286D01*
X78178571Y-144232143D01*
X78107143Y-144375000D01*
X78035714Y-144446429D01*
X77892857Y-144517857D01*
X77392857Y-144517857D01*
X79178571Y-143803571D02*
X79464285Y-143803571D01*
X79607143Y-143875000D01*
X79750000Y-144017857D01*
X79821428Y-144303571D01*
X79821428Y-144803571D01*
X79750000Y-145089286D01*
X79607143Y-145232143D01*
X79464285Y-145303571D01*
X79178571Y-145303571D01*
X79035714Y-145232143D01*
X78892857Y-145089286D01*
X78821428Y-144803571D01*
X78821428Y-144303571D01*
X78892857Y-144017857D01*
X79035714Y-143875000D01*
X79178571Y-143803571D01*
X80392857Y-144875000D02*
X81107143Y-144875000D01*
X80250000Y-145303571D02*
X80750000Y-143803571D01*
X81250000Y-145303571D01*
X82607143Y-145303571D02*
X82107143Y-144589286D01*
X81750000Y-145303571D02*
X81750000Y-143803571D01*
X82321428Y-143803571D01*
X82464286Y-143875000D01*
X82535714Y-143946429D01*
X82607143Y-144089286D01*
X82607143Y-144303571D01*
X82535714Y-144446429D01*
X82464286Y-144517857D01*
X82321428Y-144589286D01*
X81750000Y-144589286D01*
X83250000Y-145303571D02*
X83250000Y-143803571D01*
X83607143Y-143803571D01*
X83821428Y-143875000D01*
X83964286Y-144017857D01*
X84035714Y-144160714D01*
X84107143Y-144446429D01*
X84107143Y-144660714D01*
X84035714Y-144946429D01*
X83964286Y-145089286D01*
X83821428Y-145232143D01*
X83607143Y-145303571D01*
X83250000Y-145303571D01*
X84678571Y-145232143D02*
X84892857Y-145303571D01*
X85250000Y-145303571D01*
X85392857Y-145232143D01*
X85464286Y-145160714D01*
X85535714Y-145017857D01*
X85535714Y-144875000D01*
X85464286Y-144732143D01*
X85392857Y-144660714D01*
X85250000Y-144589286D01*
X84964286Y-144517857D01*
X84821428Y-144446429D01*
X84750000Y-144375000D01*
X84678571Y-144232143D01*
X84678571Y-144089286D01*
X84750000Y-143946429D01*
X84821428Y-143875000D01*
X84964286Y-143803571D01*
X85321428Y-143803571D01*
X85535714Y-143875000D01*
X87107142Y-143803571D02*
X87964285Y-143803571D01*
X87535714Y-145303571D02*
X87535714Y-143803571D01*
X88749999Y-143803571D02*
X89035713Y-143803571D01*
X89178571Y-143875000D01*
X89321428Y-144017857D01*
X89392856Y-144303571D01*
X89392856Y-144803571D01*
X89321428Y-145089286D01*
X89178571Y-145232143D01*
X89035713Y-145303571D01*
X88749999Y-145303571D01*
X88607142Y-145232143D01*
X88464285Y-145089286D01*
X88392856Y-144803571D01*
X88392856Y-144303571D01*
X88464285Y-144017857D01*
X88607142Y-143875000D01*
X88749999Y-143803571D01*
X91678571Y-144517857D02*
X91892857Y-144589286D01*
X91964285Y-144660714D01*
X92035714Y-144803571D01*
X92035714Y-145017857D01*
X91964285Y-145160714D01*
X91892857Y-145232143D01*
X91749999Y-145303571D01*
X91178571Y-145303571D01*
X91178571Y-143803571D01*
X91678571Y-143803571D01*
X91821428Y-143875000D01*
X91892857Y-143946429D01*
X91964285Y-144089286D01*
X91964285Y-144232143D01*
X91892857Y-144375000D01*
X91821428Y-144446429D01*
X91678571Y-144517857D01*
X91178571Y-144517857D01*
X92678571Y-144517857D02*
X93178571Y-144517857D01*
X93392857Y-145303571D02*
X92678571Y-145303571D01*
X92678571Y-143803571D01*
X93392857Y-143803571D01*
X95107142Y-145232143D02*
X95321428Y-145303571D01*
X95678571Y-145303571D01*
X95821428Y-145232143D01*
X95892857Y-145160714D01*
X95964285Y-145017857D01*
X95964285Y-144875000D01*
X95892857Y-144732143D01*
X95821428Y-144660714D01*
X95678571Y-144589286D01*
X95392857Y-144517857D01*
X95249999Y-144446429D01*
X95178571Y-144375000D01*
X95107142Y-144232143D01*
X95107142Y-144089286D01*
X95178571Y-143946429D01*
X95249999Y-143875000D01*
X95392857Y-143803571D01*
X95749999Y-143803571D01*
X95964285Y-143875000D01*
X96607142Y-145303571D02*
X96607142Y-143803571D01*
X96607142Y-144517857D02*
X97464285Y-144517857D01*
X97464285Y-145303571D02*
X97464285Y-143803571D01*
X98178571Y-145303571D02*
X98178571Y-143803571D01*
X98892857Y-145303571D02*
X98892857Y-143803571D01*
X99464285Y-143803571D01*
X99607143Y-143875000D01*
X99678571Y-143946429D01*
X99750000Y-144089286D01*
X99750000Y-144303571D01*
X99678571Y-144446429D01*
X99607143Y-144517857D01*
X99464285Y-144589286D01*
X98892857Y-144589286D01*
X100392857Y-145303571D02*
X100392857Y-143803571D01*
X100964285Y-143803571D01*
X101107143Y-143875000D01*
X101178571Y-143946429D01*
X101250000Y-144089286D01*
X101250000Y-144303571D01*
X101178571Y-144446429D01*
X101107143Y-144517857D01*
X100964285Y-144589286D01*
X100392857Y-144589286D01*
X101892857Y-144517857D02*
X102392857Y-144517857D01*
X102607143Y-145303571D02*
X101892857Y-145303571D01*
X101892857Y-143803571D01*
X102607143Y-143803571D01*
X103250000Y-145303571D02*
X103250000Y-143803571D01*
X103607143Y-143803571D01*
X103821428Y-143875000D01*
X103964286Y-144017857D01*
X104035714Y-144160714D01*
X104107143Y-144446429D01*
X104107143Y-144660714D01*
X104035714Y-144946429D01*
X103964286Y-145089286D01*
X103821428Y-145232143D01*
X103607143Y-145303571D01*
X103250000Y-145303571D01*
X105892857Y-145303571D02*
X105892857Y-143803571D01*
X106607143Y-145303571D02*
X106607143Y-143803571D01*
X107464286Y-145303571D01*
X107464286Y-143803571D01*
X110178572Y-145160714D02*
X110107143Y-145232143D01*
X109892857Y-145303571D01*
X109750000Y-145303571D01*
X109535715Y-145232143D01*
X109392857Y-145089286D01*
X109321429Y-144946429D01*
X109250000Y-144660714D01*
X109250000Y-144446429D01*
X109321429Y-144160714D01*
X109392857Y-144017857D01*
X109535715Y-143875000D01*
X109750000Y-143803571D01*
X109892857Y-143803571D01*
X110107143Y-143875000D01*
X110178572Y-143946429D01*
X110821429Y-143803571D02*
X110821429Y-145017857D01*
X110892857Y-145160714D01*
X110964286Y-145232143D01*
X111107143Y-145303571D01*
X111392857Y-145303571D01*
X111535715Y-145232143D01*
X111607143Y-145160714D01*
X111678572Y-145017857D01*
X111678572Y-143803571D01*
X112321429Y-145232143D02*
X112535715Y-145303571D01*
X112892858Y-145303571D01*
X113035715Y-145232143D01*
X113107144Y-145160714D01*
X113178572Y-145017857D01*
X113178572Y-144875000D01*
X113107144Y-144732143D01*
X113035715Y-144660714D01*
X112892858Y-144589286D01*
X112607144Y-144517857D01*
X112464286Y-144446429D01*
X112392858Y-144375000D01*
X112321429Y-144232143D01*
X112321429Y-144089286D01*
X112392858Y-143946429D01*
X112464286Y-143875000D01*
X112607144Y-143803571D01*
X112964286Y-143803571D01*
X113178572Y-143875000D01*
X113607143Y-143803571D02*
X114464286Y-143803571D01*
X114035715Y-145303571D02*
X114035715Y-143803571D01*
X115250000Y-143803571D02*
X115535714Y-143803571D01*
X115678572Y-143875000D01*
X115821429Y-144017857D01*
X115892857Y-144303571D01*
X115892857Y-144803571D01*
X115821429Y-145089286D01*
X115678572Y-145232143D01*
X115535714Y-145303571D01*
X115250000Y-145303571D01*
X115107143Y-145232143D01*
X114964286Y-145089286D01*
X114892857Y-144803571D01*
X114892857Y-144303571D01*
X114964286Y-144017857D01*
X115107143Y-143875000D01*
X115250000Y-143803571D01*
X116535715Y-145303571D02*
X116535715Y-143803571D01*
X117035715Y-144875000D01*
X117535715Y-143803571D01*
X117535715Y-145303571D01*
X118250001Y-144517857D02*
X118750001Y-144517857D01*
X118964287Y-145303571D02*
X118250001Y-145303571D01*
X118250001Y-143803571D01*
X118964287Y-143803571D01*
X120464287Y-145303571D02*
X119964287Y-144589286D01*
X119607144Y-145303571D02*
X119607144Y-143803571D01*
X120178572Y-143803571D01*
X120321430Y-143875000D01*
X120392858Y-143946429D01*
X120464287Y-144089286D01*
X120464287Y-144303571D01*
X120392858Y-144446429D01*
X120321430Y-144517857D01*
X120178572Y-144589286D01*
X119607144Y-144589286D01*
X121107144Y-144732143D02*
X122250001Y-144732143D01*
X122892858Y-145232143D02*
X123107144Y-145303571D01*
X123464287Y-145303571D01*
X123607144Y-145232143D01*
X123678573Y-145160714D01*
X123750001Y-145017857D01*
X123750001Y-144875000D01*
X123678573Y-144732143D01*
X123607144Y-144660714D01*
X123464287Y-144589286D01*
X123178573Y-144517857D01*
X123035715Y-144446429D01*
X122964287Y-144375000D01*
X122892858Y-144232143D01*
X122892858Y-144089286D01*
X122964287Y-143946429D01*
X123035715Y-143875000D01*
X123178573Y-143803571D01*
X123535715Y-143803571D01*
X123750001Y-143875000D01*
X124392858Y-143803571D02*
X124392858Y-145017857D01*
X124464286Y-145160714D01*
X124535715Y-145232143D01*
X124678572Y-145303571D01*
X124964286Y-145303571D01*
X125107144Y-145232143D01*
X125178572Y-145160714D01*
X125250001Y-145017857D01*
X125250001Y-143803571D01*
X125964287Y-145303571D02*
X125964287Y-143803571D01*
X126535715Y-143803571D01*
X126678573Y-143875000D01*
X126750001Y-143946429D01*
X126821430Y-144089286D01*
X126821430Y-144303571D01*
X126750001Y-144446429D01*
X126678573Y-144517857D01*
X126535715Y-144589286D01*
X125964287Y-144589286D01*
X127464287Y-145303571D02*
X127464287Y-143803571D01*
X128035715Y-143803571D01*
X128178573Y-143875000D01*
X128250001Y-143946429D01*
X128321430Y-144089286D01*
X128321430Y-144303571D01*
X128250001Y-144446429D01*
X128178573Y-144517857D01*
X128035715Y-144589286D01*
X127464287Y-144589286D01*
X129678573Y-145303571D02*
X128964287Y-145303571D01*
X128964287Y-143803571D01*
X130178573Y-145303571D02*
X130178573Y-143803571D01*
X130892859Y-144517857D02*
X131392859Y-144517857D01*
X131607145Y-145303571D02*
X130892859Y-145303571D01*
X130892859Y-143803571D01*
X131607145Y-143803571D01*
X132250002Y-145303571D02*
X132250002Y-143803571D01*
X132607145Y-143803571D01*
X132821430Y-143875000D01*
X132964288Y-144017857D01*
X133035716Y-144160714D01*
X133107145Y-144446429D01*
X133107145Y-144660714D01*
X133035716Y-144946429D01*
X132964288Y-145089286D01*
X132821430Y-145232143D01*
X132607145Y-145303571D01*
X132250002Y-145303571D01*
X135392859Y-144517857D02*
X134892859Y-144517857D01*
X134892859Y-145303571D02*
X134892859Y-143803571D01*
X135607145Y-143803571D01*
X136464287Y-143803571D02*
X136750001Y-143803571D01*
X136892859Y-143875000D01*
X137035716Y-144017857D01*
X137107144Y-144303571D01*
X137107144Y-144803571D01*
X137035716Y-145089286D01*
X136892859Y-145232143D01*
X136750001Y-145303571D01*
X136464287Y-145303571D01*
X136321430Y-145232143D01*
X136178573Y-145089286D01*
X136107144Y-144803571D01*
X136107144Y-144303571D01*
X136178573Y-144017857D01*
X136321430Y-143875000D01*
X136464287Y-143803571D01*
X137678573Y-144875000D02*
X138392859Y-144875000D01*
X137535716Y-145303571D02*
X138035716Y-143803571D01*
X138535716Y-145303571D01*
X139035716Y-145303571D02*
X139035716Y-143803571D01*
X139535716Y-144875000D01*
X140035716Y-143803571D01*
X140035716Y-145303571D01*
X141678573Y-143803571D02*
X142535716Y-143803571D01*
X142107145Y-145303571D02*
X142107145Y-143803571D01*
X143892859Y-145303571D02*
X143392859Y-144589286D01*
X143035716Y-145303571D02*
X143035716Y-143803571D01*
X143607144Y-143803571D01*
X143750002Y-143875000D01*
X143821430Y-143946429D01*
X143892859Y-144089286D01*
X143892859Y-144303571D01*
X143821430Y-144446429D01*
X143750002Y-144517857D01*
X143607144Y-144589286D01*
X143035716Y-144589286D01*
X144464287Y-144875000D02*
X145178573Y-144875000D01*
X144321430Y-145303571D02*
X144821430Y-143803571D01*
X145321430Y-145303571D01*
X146107144Y-144589286D02*
X146107144Y-145303571D01*
X145607144Y-143803571D02*
X146107144Y-144589286D01*
X146607144Y-143803571D01*
X147035715Y-145232143D02*
X147250001Y-145303571D01*
X147607144Y-145303571D01*
X147750001Y-145232143D01*
X147821430Y-145160714D01*
X147892858Y-145017857D01*
X147892858Y-144875000D01*
X147821430Y-144732143D01*
X147750001Y-144660714D01*
X147607144Y-144589286D01*
X147321430Y-144517857D01*
X147178572Y-144446429D01*
X147107144Y-144375000D01*
X147035715Y-144232143D01*
X147035715Y-144089286D01*
X147107144Y-143946429D01*
X147178572Y-143875000D01*
X147321430Y-143803571D01*
X147678572Y-143803571D01*
X147892858Y-143875000D01*
X74178571Y-147853571D02*
X74464286Y-147853571D01*
X74607143Y-147782143D01*
X74678571Y-147710714D01*
X74821429Y-147496429D01*
X74892857Y-147210714D01*
X74892857Y-146639286D01*
X74821429Y-146496429D01*
X74750000Y-146425000D01*
X74607143Y-146353571D01*
X74321429Y-146353571D01*
X74178571Y-146425000D01*
X74107143Y-146496429D01*
X74035714Y-146639286D01*
X74035714Y-146996429D01*
X74107143Y-147139286D01*
X74178571Y-147210714D01*
X74321429Y-147282143D01*
X74607143Y-147282143D01*
X74750000Y-147210714D01*
X74821429Y-147139286D01*
X74892857Y-146996429D01*
X75535714Y-147710714D02*
X75607142Y-147782143D01*
X75535714Y-147853571D01*
X75464285Y-147782143D01*
X75535714Y-147710714D01*
X75535714Y-147853571D01*
X77250000Y-146353571D02*
X78178571Y-146353571D01*
X77678571Y-146925000D01*
X77892857Y-146925000D01*
X78035714Y-146996429D01*
X78107143Y-147067857D01*
X78178571Y-147210714D01*
X78178571Y-147567857D01*
X78107143Y-147710714D01*
X78035714Y-147782143D01*
X77892857Y-147853571D01*
X77464285Y-147853571D01*
X77321428Y-147782143D01*
X77250000Y-147710714D01*
X78821428Y-147853571D02*
X78821428Y-146353571D01*
X79321428Y-147425000D01*
X79821428Y-146353571D01*
X79821428Y-147853571D01*
X80535714Y-147853571D02*
X80535714Y-146353571D01*
X81035714Y-147425000D01*
X81535714Y-146353571D01*
X81535714Y-147853571D01*
X84107143Y-147853571D02*
X83392857Y-147853571D01*
X83392857Y-146353571D01*
X84607143Y-147067857D02*
X85107143Y-147067857D01*
X85321429Y-147853571D02*
X84607143Y-147853571D01*
X84607143Y-146353571D01*
X85321429Y-146353571D01*
X85964286Y-147853571D02*
X85964286Y-146353571D01*
X86321429Y-146353571D01*
X86535714Y-146425000D01*
X86678572Y-146567857D01*
X86750000Y-146710714D01*
X86821429Y-146996429D01*
X86821429Y-147210714D01*
X86750000Y-147496429D01*
X86678572Y-147639286D01*
X86535714Y-147782143D01*
X86321429Y-147853571D01*
X85964286Y-147853571D01*
X88607143Y-147853571D02*
X88607143Y-146353571D01*
X88607143Y-147067857D02*
X89464286Y-147067857D01*
X89464286Y-147853571D02*
X89464286Y-146353571D01*
X90464286Y-146353571D02*
X90750000Y-146353571D01*
X90892858Y-146425000D01*
X91035715Y-146567857D01*
X91107143Y-146853571D01*
X91107143Y-147353571D01*
X91035715Y-147639286D01*
X90892858Y-147782143D01*
X90750000Y-147853571D01*
X90464286Y-147853571D01*
X90321429Y-147782143D01*
X90178572Y-147639286D01*
X90107143Y-147353571D01*
X90107143Y-146853571D01*
X90178572Y-146567857D01*
X90321429Y-146425000D01*
X90464286Y-146353571D01*
X92464287Y-147853571D02*
X91750001Y-147853571D01*
X91750001Y-146353571D01*
X92964287Y-147067857D02*
X93464287Y-147067857D01*
X93678573Y-147853571D02*
X92964287Y-147853571D01*
X92964287Y-146353571D01*
X93678573Y-146353571D01*
X95464287Y-147853571D02*
X95464287Y-146353571D01*
X96107144Y-147782143D02*
X96321430Y-147853571D01*
X96678573Y-147853571D01*
X96821430Y-147782143D01*
X96892859Y-147710714D01*
X96964287Y-147567857D01*
X96964287Y-147425000D01*
X96892859Y-147282143D01*
X96821430Y-147210714D01*
X96678573Y-147139286D01*
X96392859Y-147067857D01*
X96250001Y-146996429D01*
X96178573Y-146925000D01*
X96107144Y-146782143D01*
X96107144Y-146639286D01*
X96178573Y-146496429D01*
X96250001Y-146425000D01*
X96392859Y-146353571D01*
X96750001Y-146353571D01*
X96964287Y-146425000D01*
X98750001Y-147853571D02*
X98750001Y-146353571D01*
X99321429Y-146353571D01*
X99464287Y-146425000D01*
X99535715Y-146496429D01*
X99607144Y-146639286D01*
X99607144Y-146853571D01*
X99535715Y-146996429D01*
X99464287Y-147067857D01*
X99321429Y-147139286D01*
X98750001Y-147139286D01*
X100964287Y-147853571D02*
X100250001Y-147853571D01*
X100250001Y-146353571D01*
X101392858Y-147425000D02*
X102107144Y-147425000D01*
X101250001Y-147853571D02*
X101750001Y-146353571D01*
X102250001Y-147853571D01*
X102535715Y-146353571D02*
X103392858Y-146353571D01*
X102964287Y-147853571D02*
X102964287Y-146353571D01*
X103892858Y-147067857D02*
X104392858Y-147067857D01*
X104607144Y-147853571D02*
X103892858Y-147853571D01*
X103892858Y-146353571D01*
X104607144Y-146353571D01*
X105250001Y-147853571D02*
X105250001Y-146353571D01*
X105607144Y-146353571D01*
X105821429Y-146425000D01*
X105964287Y-146567857D01*
X106035715Y-146710714D01*
X106107144Y-146996429D01*
X106107144Y-147210714D01*
X106035715Y-147496429D01*
X105964287Y-147639286D01*
X105821429Y-147782143D01*
X105607144Y-147853571D01*
X105250001Y-147853571D01*
X74892857Y-150403571D02*
X74035714Y-150403571D01*
X74464286Y-150403571D02*
X74464286Y-148903571D01*
X74321429Y-149117857D01*
X74178571Y-149260714D01*
X74035714Y-149332143D01*
X75821428Y-148903571D02*
X75964285Y-148903571D01*
X76107142Y-148975000D01*
X76178571Y-149046429D01*
X76250000Y-149189286D01*
X76321428Y-149475000D01*
X76321428Y-149832143D01*
X76250000Y-150117857D01*
X76178571Y-150260714D01*
X76107142Y-150332143D01*
X75964285Y-150403571D01*
X75821428Y-150403571D01*
X75678571Y-150332143D01*
X75607142Y-150260714D01*
X75535714Y-150117857D01*
X75464285Y-149832143D01*
X75464285Y-149475000D01*
X75535714Y-149189286D01*
X75607142Y-149046429D01*
X75678571Y-148975000D01*
X75821428Y-148903571D01*
X76964285Y-150260714D02*
X77035713Y-150332143D01*
X76964285Y-150403571D01*
X76892856Y-150332143D01*
X76964285Y-150260714D01*
X76964285Y-150403571D01*
X79321428Y-149617857D02*
X78821428Y-149617857D01*
X78821428Y-150403571D02*
X78821428Y-148903571D01*
X79535714Y-148903571D01*
X80392856Y-148903571D02*
X80678570Y-148903571D01*
X80821428Y-148975000D01*
X80964285Y-149117857D01*
X81035713Y-149403571D01*
X81035713Y-149903571D01*
X80964285Y-150189286D01*
X80821428Y-150332143D01*
X80678570Y-150403571D01*
X80392856Y-150403571D01*
X80249999Y-150332143D01*
X80107142Y-150189286D01*
X80035713Y-149903571D01*
X80035713Y-149403571D01*
X80107142Y-149117857D01*
X80249999Y-148975000D01*
X80392856Y-148903571D01*
X82535714Y-150403571D02*
X82035714Y-149689286D01*
X81678571Y-150403571D02*
X81678571Y-148903571D01*
X82249999Y-148903571D01*
X82392857Y-148975000D01*
X82464285Y-149046429D01*
X82535714Y-149189286D01*
X82535714Y-149403571D01*
X82464285Y-149546429D01*
X82392857Y-149617857D01*
X82249999Y-149689286D01*
X81678571Y-149689286D01*
X84035714Y-150260714D02*
X83964285Y-150332143D01*
X83749999Y-150403571D01*
X83607142Y-150403571D01*
X83392857Y-150332143D01*
X83249999Y-150189286D01*
X83178571Y-150046429D01*
X83107142Y-149760714D01*
X83107142Y-149546429D01*
X83178571Y-149260714D01*
X83249999Y-149117857D01*
X83392857Y-148975000D01*
X83607142Y-148903571D01*
X83749999Y-148903571D01*
X83964285Y-148975000D01*
X84035714Y-149046429D01*
X84678571Y-149617857D02*
X85178571Y-149617857D01*
X85392857Y-150403571D02*
X84678571Y-150403571D01*
X84678571Y-148903571D01*
X85392857Y-148903571D01*
X87107142Y-150332143D02*
X87321428Y-150403571D01*
X87678571Y-150403571D01*
X87821428Y-150332143D01*
X87892857Y-150260714D01*
X87964285Y-150117857D01*
X87964285Y-149975000D01*
X87892857Y-149832143D01*
X87821428Y-149760714D01*
X87678571Y-149689286D01*
X87392857Y-149617857D01*
X87249999Y-149546429D01*
X87178571Y-149475000D01*
X87107142Y-149332143D01*
X87107142Y-149189286D01*
X87178571Y-149046429D01*
X87249999Y-148975000D01*
X87392857Y-148903571D01*
X87749999Y-148903571D01*
X87964285Y-148975000D01*
X88607142Y-149617857D02*
X89107142Y-149617857D01*
X89321428Y-150403571D02*
X88607142Y-150403571D01*
X88607142Y-148903571D01*
X89321428Y-148903571D01*
X89964285Y-150403571D02*
X89964285Y-148903571D01*
X90821428Y-150403571D01*
X90821428Y-148903571D01*
X91464285Y-150332143D02*
X91678571Y-150403571D01*
X92035714Y-150403571D01*
X92178571Y-150332143D01*
X92250000Y-150260714D01*
X92321428Y-150117857D01*
X92321428Y-149975000D01*
X92250000Y-149832143D01*
X92178571Y-149760714D01*
X92035714Y-149689286D01*
X91750000Y-149617857D01*
X91607142Y-149546429D01*
X91535714Y-149475000D01*
X91464285Y-149332143D01*
X91464285Y-149189286D01*
X91535714Y-149046429D01*
X91607142Y-148975000D01*
X91750000Y-148903571D01*
X92107142Y-148903571D01*
X92321428Y-148975000D01*
X92964285Y-150403571D02*
X92964285Y-148903571D01*
X93464285Y-148903571D02*
X94321428Y-148903571D01*
X93892857Y-150403571D02*
X93892857Y-148903571D01*
X94821428Y-150403571D02*
X94821428Y-148903571D01*
X95321428Y-148903571D02*
X95821428Y-150403571D01*
X96321428Y-148903571D01*
X96821428Y-149617857D02*
X97321428Y-149617857D01*
X97535714Y-150403571D02*
X96821428Y-150403571D01*
X96821428Y-148903571D01*
X97535714Y-148903571D01*
X100178571Y-150403571D02*
X99678571Y-149689286D01*
X99321428Y-150403571D02*
X99321428Y-148903571D01*
X99892856Y-148903571D01*
X100035714Y-148975000D01*
X100107142Y-149046429D01*
X100178571Y-149189286D01*
X100178571Y-149403571D01*
X100107142Y-149546429D01*
X100035714Y-149617857D01*
X99892856Y-149689286D01*
X99321428Y-149689286D01*
X100821428Y-149617857D02*
X101321428Y-149617857D01*
X101535714Y-150403571D02*
X100821428Y-150403571D01*
X100821428Y-148903571D01*
X101535714Y-148903571D01*
X102107142Y-150332143D02*
X102321428Y-150403571D01*
X102678571Y-150403571D01*
X102821428Y-150332143D01*
X102892857Y-150260714D01*
X102964285Y-150117857D01*
X102964285Y-149975000D01*
X102892857Y-149832143D01*
X102821428Y-149760714D01*
X102678571Y-149689286D01*
X102392857Y-149617857D01*
X102249999Y-149546429D01*
X102178571Y-149475000D01*
X102107142Y-149332143D01*
X102107142Y-149189286D01*
X102178571Y-149046429D01*
X102249999Y-148975000D01*
X102392857Y-148903571D01*
X102749999Y-148903571D01*
X102964285Y-148975000D01*
X103607142Y-150403571D02*
X103607142Y-148903571D01*
X104249999Y-150332143D02*
X104464285Y-150403571D01*
X104821428Y-150403571D01*
X104964285Y-150332143D01*
X105035714Y-150260714D01*
X105107142Y-150117857D01*
X105107142Y-149975000D01*
X105035714Y-149832143D01*
X104964285Y-149760714D01*
X104821428Y-149689286D01*
X104535714Y-149617857D01*
X104392856Y-149546429D01*
X104321428Y-149475000D01*
X104249999Y-149332143D01*
X104249999Y-149189286D01*
X104321428Y-149046429D01*
X104392856Y-148975000D01*
X104535714Y-148903571D01*
X104892856Y-148903571D01*
X105107142Y-148975000D01*
X105535713Y-148903571D02*
X106392856Y-148903571D01*
X105964285Y-150403571D02*
X105964285Y-148903571D01*
X107178570Y-148903571D02*
X107464284Y-148903571D01*
X107607142Y-148975000D01*
X107749999Y-149117857D01*
X107821427Y-149403571D01*
X107821427Y-149903571D01*
X107749999Y-150189286D01*
X107607142Y-150332143D01*
X107464284Y-150403571D01*
X107178570Y-150403571D01*
X107035713Y-150332143D01*
X106892856Y-150189286D01*
X106821427Y-149903571D01*
X106821427Y-149403571D01*
X106892856Y-149117857D01*
X107035713Y-148975000D01*
X107178570Y-148903571D01*
X109321428Y-150403571D02*
X108821428Y-149689286D01*
X108464285Y-150403571D02*
X108464285Y-148903571D01*
X109035713Y-148903571D01*
X109178571Y-148975000D01*
X109249999Y-149046429D01*
X109321428Y-149189286D01*
X109321428Y-149403571D01*
X109249999Y-149546429D01*
X109178571Y-149617857D01*
X109035713Y-149689286D01*
X108464285Y-149689286D01*
X111035713Y-149975000D02*
X111749999Y-149975000D01*
X110892856Y-150403571D02*
X111392856Y-148903571D01*
X111892856Y-150403571D01*
X112392856Y-150403571D02*
X112392856Y-148903571D01*
X112749999Y-148903571D01*
X112964284Y-148975000D01*
X113107142Y-149117857D01*
X113178570Y-149260714D01*
X113249999Y-149546429D01*
X113249999Y-149760714D01*
X113178570Y-150046429D01*
X113107142Y-150189286D01*
X112964284Y-150332143D01*
X112749999Y-150403571D01*
X112392856Y-150403571D01*
X113892856Y-150403571D02*
X113892856Y-148903571D01*
X113892856Y-149617857D02*
X114749999Y-149617857D01*
X114749999Y-150403571D02*
X114749999Y-148903571D01*
X115464285Y-149617857D02*
X115964285Y-149617857D01*
X116178571Y-150403571D02*
X115464285Y-150403571D01*
X115464285Y-148903571D01*
X116178571Y-148903571D01*
X117678571Y-150403571D02*
X117178571Y-149689286D01*
X116821428Y-150403571D02*
X116821428Y-148903571D01*
X117392856Y-148903571D01*
X117535714Y-148975000D01*
X117607142Y-149046429D01*
X117678571Y-149189286D01*
X117678571Y-149403571D01*
X117607142Y-149546429D01*
X117535714Y-149617857D01*
X117392856Y-149689286D01*
X116821428Y-149689286D01*
X118321428Y-149617857D02*
X118821428Y-149617857D01*
X119035714Y-150403571D02*
X118321428Y-150403571D01*
X118321428Y-148903571D01*
X119035714Y-148903571D01*
X119678571Y-150403571D02*
X119678571Y-148903571D01*
X120035714Y-148903571D01*
X120249999Y-148975000D01*
X120392857Y-149117857D01*
X120464285Y-149260714D01*
X120535714Y-149546429D01*
X120535714Y-149760714D01*
X120464285Y-150046429D01*
X120392857Y-150189286D01*
X120249999Y-150332143D01*
X120035714Y-150403571D01*
X119678571Y-150403571D01*
X122107142Y-148903571D02*
X122964285Y-148903571D01*
X122535714Y-150403571D02*
X122535714Y-148903571D01*
X123749999Y-148903571D02*
X124035713Y-148903571D01*
X124178571Y-148975000D01*
X124321428Y-149117857D01*
X124392856Y-149403571D01*
X124392856Y-149903571D01*
X124321428Y-150189286D01*
X124178571Y-150332143D01*
X124035713Y-150403571D01*
X123749999Y-150403571D01*
X123607142Y-150332143D01*
X123464285Y-150189286D01*
X123392856Y-149903571D01*
X123392856Y-149403571D01*
X123464285Y-149117857D01*
X123607142Y-148975000D01*
X123749999Y-148903571D01*
X126678571Y-149617857D02*
X126892857Y-149689286D01*
X126964285Y-149760714D01*
X127035714Y-149903571D01*
X127035714Y-150117857D01*
X126964285Y-150260714D01*
X126892857Y-150332143D01*
X126749999Y-150403571D01*
X126178571Y-150403571D01*
X126178571Y-148903571D01*
X126678571Y-148903571D01*
X126821428Y-148975000D01*
X126892857Y-149046429D01*
X126964285Y-149189286D01*
X126964285Y-149332143D01*
X126892857Y-149475000D01*
X126821428Y-149546429D01*
X126678571Y-149617857D01*
X126178571Y-149617857D01*
X127964285Y-148903571D02*
X128249999Y-148903571D01*
X128392857Y-148975000D01*
X128535714Y-149117857D01*
X128607142Y-149403571D01*
X128607142Y-149903571D01*
X128535714Y-150189286D01*
X128392857Y-150332143D01*
X128249999Y-150403571D01*
X127964285Y-150403571D01*
X127821428Y-150332143D01*
X127678571Y-150189286D01*
X127607142Y-149903571D01*
X127607142Y-149403571D01*
X127678571Y-149117857D01*
X127821428Y-148975000D01*
X127964285Y-148903571D01*
X129178571Y-149975000D02*
X129892857Y-149975000D01*
X129035714Y-150403571D02*
X129535714Y-148903571D01*
X130035714Y-150403571D01*
X131392857Y-150403571D02*
X130892857Y-149689286D01*
X130535714Y-150403571D02*
X130535714Y-148903571D01*
X131107142Y-148903571D01*
X131250000Y-148975000D01*
X131321428Y-149046429D01*
X131392857Y-149189286D01*
X131392857Y-149403571D01*
X131321428Y-149546429D01*
X131250000Y-149617857D01*
X131107142Y-149689286D01*
X130535714Y-149689286D01*
X132035714Y-150403571D02*
X132035714Y-148903571D01*
X132392857Y-148903571D01*
X132607142Y-148975000D01*
X132750000Y-149117857D01*
X132821428Y-149260714D01*
X132892857Y-149546429D01*
X132892857Y-149760714D01*
X132821428Y-150046429D01*
X132750000Y-150189286D01*
X132607142Y-150332143D01*
X132392857Y-150403571D01*
X132035714Y-150403571D01*
X135178571Y-149617857D02*
X134678571Y-149617857D01*
X134678571Y-150403571D02*
X134678571Y-148903571D01*
X135392857Y-148903571D01*
X136821428Y-150403571D02*
X136321428Y-149689286D01*
X135964285Y-150403571D02*
X135964285Y-148903571D01*
X136535713Y-148903571D01*
X136678571Y-148975000D01*
X136749999Y-149046429D01*
X136821428Y-149189286D01*
X136821428Y-149403571D01*
X136749999Y-149546429D01*
X136678571Y-149617857D01*
X136535713Y-149689286D01*
X135964285Y-149689286D01*
X137749999Y-148903571D02*
X138035713Y-148903571D01*
X138178571Y-148975000D01*
X138321428Y-149117857D01*
X138392856Y-149403571D01*
X138392856Y-149903571D01*
X138321428Y-150189286D01*
X138178571Y-150332143D01*
X138035713Y-150403571D01*
X137749999Y-150403571D01*
X137607142Y-150332143D01*
X137464285Y-150189286D01*
X137392856Y-149903571D01*
X137392856Y-149403571D01*
X137464285Y-149117857D01*
X137607142Y-148975000D01*
X137749999Y-148903571D01*
X139035714Y-150403571D02*
X139035714Y-148903571D01*
X139892857Y-150403571D01*
X139892857Y-148903571D01*
X140392857Y-148903571D02*
X141250000Y-148903571D01*
X140821429Y-150403571D02*
X140821429Y-148903571D01*
X142892857Y-148903571D02*
X142892857Y-150117857D01*
X142964285Y-150260714D01*
X143035714Y-150332143D01*
X143178571Y-150403571D01*
X143464285Y-150403571D01*
X143607143Y-150332143D01*
X143678571Y-150260714D01*
X143750000Y-150117857D01*
X143750000Y-148903571D01*
X144392857Y-150332143D02*
X144607143Y-150403571D01*
X144964286Y-150403571D01*
X145107143Y-150332143D01*
X145178572Y-150260714D01*
X145250000Y-150117857D01*
X145250000Y-149975000D01*
X145178572Y-149832143D01*
X145107143Y-149760714D01*
X144964286Y-149689286D01*
X144678572Y-149617857D01*
X144535714Y-149546429D01*
X144464286Y-149475000D01*
X144392857Y-149332143D01*
X144392857Y-149189286D01*
X144464286Y-149046429D01*
X144535714Y-148975000D01*
X144678572Y-148903571D01*
X145035714Y-148903571D01*
X145250000Y-148975000D01*
X145892857Y-150403571D02*
X145892857Y-148903571D01*
X146607143Y-150403571D02*
X146607143Y-148903571D01*
X147464286Y-150403571D01*
X147464286Y-148903571D01*
X148964286Y-148975000D02*
X148821429Y-148903571D01*
X148607143Y-148903571D01*
X148392858Y-148975000D01*
X148250000Y-149117857D01*
X148178572Y-149260714D01*
X148107143Y-149546429D01*
X148107143Y-149760714D01*
X148178572Y-150046429D01*
X148250000Y-150189286D01*
X148392858Y-150332143D01*
X148607143Y-150403571D01*
X148750000Y-150403571D01*
X148964286Y-150332143D01*
X149035715Y-150260714D01*
X149035715Y-149760714D01*
X148750000Y-149760714D01*
X151321429Y-149617857D02*
X151535715Y-149689286D01*
X151607143Y-149760714D01*
X151678572Y-149903571D01*
X151678572Y-150117857D01*
X151607143Y-150260714D01*
X151535715Y-150332143D01*
X151392857Y-150403571D01*
X150821429Y-150403571D01*
X150821429Y-148903571D01*
X151321429Y-148903571D01*
X151464286Y-148975000D01*
X151535715Y-149046429D01*
X151607143Y-149189286D01*
X151607143Y-149332143D01*
X151535715Y-149475000D01*
X151464286Y-149546429D01*
X151321429Y-149617857D01*
X150821429Y-149617857D01*
X152321429Y-148903571D02*
X152321429Y-150117857D01*
X152392857Y-150260714D01*
X152464286Y-150332143D01*
X152607143Y-150403571D01*
X152892857Y-150403571D01*
X153035715Y-150332143D01*
X153107143Y-150260714D01*
X153178572Y-150117857D01*
X153178572Y-148903571D01*
X153892858Y-150403571D02*
X153892858Y-148903571D01*
X155321430Y-150403571D02*
X154607144Y-150403571D01*
X154607144Y-148903571D01*
X155607144Y-148903571D02*
X156464287Y-148903571D01*
X156035716Y-150403571D02*
X156035716Y-148903571D01*
X158107144Y-150403571D02*
X158107144Y-148903571D01*
X158821430Y-150403571D02*
X158821430Y-148903571D01*
X159678573Y-150403571D01*
X159678573Y-148903571D01*
X161464287Y-150332143D02*
X161678573Y-150403571D01*
X162035716Y-150403571D01*
X162178573Y-150332143D01*
X162250002Y-150260714D01*
X162321430Y-150117857D01*
X162321430Y-149975000D01*
X162250002Y-149832143D01*
X162178573Y-149760714D01*
X162035716Y-149689286D01*
X161750002Y-149617857D01*
X161607144Y-149546429D01*
X161535716Y-149475000D01*
X161464287Y-149332143D01*
X161464287Y-149189286D01*
X161535716Y-149046429D01*
X161607144Y-148975000D01*
X161750002Y-148903571D01*
X162107144Y-148903571D01*
X162321430Y-148975000D01*
X162750001Y-148903571D02*
X163607144Y-148903571D01*
X163178573Y-150403571D02*
X163178573Y-148903571D01*
X164107144Y-150403571D02*
X164107144Y-148903571D01*
X165678573Y-150260714D02*
X165607144Y-150332143D01*
X165392858Y-150403571D01*
X165250001Y-150403571D01*
X165035716Y-150332143D01*
X164892858Y-150189286D01*
X164821430Y-150046429D01*
X164750001Y-149760714D01*
X164750001Y-149546429D01*
X164821430Y-149260714D01*
X164892858Y-149117857D01*
X165035716Y-148975000D01*
X165250001Y-148903571D01*
X165392858Y-148903571D01*
X165607144Y-148975000D01*
X165678573Y-149046429D01*
X166321430Y-150403571D02*
X166321430Y-148903571D01*
X167178573Y-150403571D02*
X166535716Y-149546429D01*
X167178573Y-148903571D02*
X166321430Y-149760714D01*
X168107144Y-149689286D02*
X168107144Y-150403571D01*
X167607144Y-148903571D02*
X168107144Y-149689286D01*
X168607144Y-148903571D01*
X170250001Y-150403571D02*
X170250001Y-148903571D01*
X170821429Y-148903571D01*
X170964287Y-148975000D01*
X171035715Y-149046429D01*
X171107144Y-149189286D01*
X171107144Y-149403571D01*
X171035715Y-149546429D01*
X170964287Y-149617857D01*
X170821429Y-149689286D01*
X170250001Y-149689286D01*
X171678572Y-149975000D02*
X172392858Y-149975000D01*
X171535715Y-150403571D02*
X172035715Y-148903571D01*
X172535715Y-150403571D01*
X173035715Y-150403571D02*
X173035715Y-148903571D01*
X173392858Y-148903571D01*
X173607143Y-148975000D01*
X173750001Y-149117857D01*
X173821429Y-149260714D01*
X173892858Y-149546429D01*
X173892858Y-149760714D01*
X173821429Y-150046429D01*
X173750001Y-150189286D01*
X173607143Y-150332143D01*
X173392858Y-150403571D01*
X173035715Y-150403571D01*
X74892857Y-152953571D02*
X74035714Y-152953571D01*
X74464286Y-152953571D02*
X74464286Y-151453571D01*
X74321429Y-151667857D01*
X74178571Y-151810714D01*
X74035714Y-151882143D01*
X76321428Y-152953571D02*
X75464285Y-152953571D01*
X75892857Y-152953571D02*
X75892857Y-151453571D01*
X75750000Y-151667857D01*
X75607142Y-151810714D01*
X75464285Y-151882143D01*
X76964285Y-152810714D02*
X77035713Y-152882143D01*
X76964285Y-152953571D01*
X76892856Y-152882143D01*
X76964285Y-152810714D01*
X76964285Y-152953571D01*
X79321428Y-152167857D02*
X78821428Y-152167857D01*
X78821428Y-152953571D02*
X78821428Y-151453571D01*
X79535714Y-151453571D01*
X80392856Y-151453571D02*
X80678570Y-151453571D01*
X80821428Y-151525000D01*
X80964285Y-151667857D01*
X81035713Y-151953571D01*
X81035713Y-152453571D01*
X80964285Y-152739286D01*
X80821428Y-152882143D01*
X80678570Y-152953571D01*
X80392856Y-152953571D01*
X80249999Y-152882143D01*
X80107142Y-152739286D01*
X80035713Y-152453571D01*
X80035713Y-151953571D01*
X80107142Y-151667857D01*
X80249999Y-151525000D01*
X80392856Y-151453571D01*
X82535714Y-152953571D02*
X82035714Y-152239286D01*
X81678571Y-152953571D02*
X81678571Y-151453571D01*
X82249999Y-151453571D01*
X82392857Y-151525000D01*
X82464285Y-151596429D01*
X82535714Y-151739286D01*
X82535714Y-151953571D01*
X82464285Y-152096429D01*
X82392857Y-152167857D01*
X82249999Y-152239286D01*
X81678571Y-152239286D01*
X84035714Y-152810714D02*
X83964285Y-152882143D01*
X83749999Y-152953571D01*
X83607142Y-152953571D01*
X83392857Y-152882143D01*
X83249999Y-152739286D01*
X83178571Y-152596429D01*
X83107142Y-152310714D01*
X83107142Y-152096429D01*
X83178571Y-151810714D01*
X83249999Y-151667857D01*
X83392857Y-151525000D01*
X83607142Y-151453571D01*
X83749999Y-151453571D01*
X83964285Y-151525000D01*
X84035714Y-151596429D01*
X84678571Y-152167857D02*
X85178571Y-152167857D01*
X85392857Y-152953571D02*
X84678571Y-152953571D01*
X84678571Y-151453571D01*
X85392857Y-151453571D01*
X87107142Y-152882143D02*
X87321428Y-152953571D01*
X87678571Y-152953571D01*
X87821428Y-152882143D01*
X87892857Y-152810714D01*
X87964285Y-152667857D01*
X87964285Y-152525000D01*
X87892857Y-152382143D01*
X87821428Y-152310714D01*
X87678571Y-152239286D01*
X87392857Y-152167857D01*
X87249999Y-152096429D01*
X87178571Y-152025000D01*
X87107142Y-151882143D01*
X87107142Y-151739286D01*
X87178571Y-151596429D01*
X87249999Y-151525000D01*
X87392857Y-151453571D01*
X87749999Y-151453571D01*
X87964285Y-151525000D01*
X88607142Y-152167857D02*
X89107142Y-152167857D01*
X89321428Y-152953571D02*
X88607142Y-152953571D01*
X88607142Y-151453571D01*
X89321428Y-151453571D01*
X89964285Y-152953571D02*
X89964285Y-151453571D01*
X90821428Y-152953571D01*
X90821428Y-151453571D01*
X91464285Y-152882143D02*
X91678571Y-152953571D01*
X92035714Y-152953571D01*
X92178571Y-152882143D01*
X92250000Y-152810714D01*
X92321428Y-152667857D01*
X92321428Y-152525000D01*
X92250000Y-152382143D01*
X92178571Y-152310714D01*
X92035714Y-152239286D01*
X91750000Y-152167857D01*
X91607142Y-152096429D01*
X91535714Y-152025000D01*
X91464285Y-151882143D01*
X91464285Y-151739286D01*
X91535714Y-151596429D01*
X91607142Y-151525000D01*
X91750000Y-151453571D01*
X92107142Y-151453571D01*
X92321428Y-151525000D01*
X92964285Y-152953571D02*
X92964285Y-151453571D01*
X93464285Y-151453571D02*
X94321428Y-151453571D01*
X93892857Y-152953571D02*
X93892857Y-151453571D01*
X94821428Y-152953571D02*
X94821428Y-151453571D01*
X95321428Y-151453571D02*
X95821428Y-152953571D01*
X96321428Y-151453571D01*
X96821428Y-152167857D02*
X97321428Y-152167857D01*
X97535714Y-152953571D02*
X96821428Y-152953571D01*
X96821428Y-151453571D01*
X97535714Y-151453571D01*
X100178571Y-152953571D02*
X99678571Y-152239286D01*
X99321428Y-152953571D02*
X99321428Y-151453571D01*
X99892856Y-151453571D01*
X100035714Y-151525000D01*
X100107142Y-151596429D01*
X100178571Y-151739286D01*
X100178571Y-151953571D01*
X100107142Y-152096429D01*
X100035714Y-152167857D01*
X99892856Y-152239286D01*
X99321428Y-152239286D01*
X100821428Y-152167857D02*
X101321428Y-152167857D01*
X101535714Y-152953571D02*
X100821428Y-152953571D01*
X100821428Y-151453571D01*
X101535714Y-151453571D01*
X102107142Y-152882143D02*
X102321428Y-152953571D01*
X102678571Y-152953571D01*
X102821428Y-152882143D01*
X102892857Y-152810714D01*
X102964285Y-152667857D01*
X102964285Y-152525000D01*
X102892857Y-152382143D01*
X102821428Y-152310714D01*
X102678571Y-152239286D01*
X102392857Y-152167857D01*
X102249999Y-152096429D01*
X102178571Y-152025000D01*
X102107142Y-151882143D01*
X102107142Y-151739286D01*
X102178571Y-151596429D01*
X102249999Y-151525000D01*
X102392857Y-151453571D01*
X102749999Y-151453571D01*
X102964285Y-151525000D01*
X103607142Y-152953571D02*
X103607142Y-151453571D01*
X104249999Y-152882143D02*
X104464285Y-152953571D01*
X104821428Y-152953571D01*
X104964285Y-152882143D01*
X105035714Y-152810714D01*
X105107142Y-152667857D01*
X105107142Y-152525000D01*
X105035714Y-152382143D01*
X104964285Y-152310714D01*
X104821428Y-152239286D01*
X104535714Y-152167857D01*
X104392856Y-152096429D01*
X104321428Y-152025000D01*
X104249999Y-151882143D01*
X104249999Y-151739286D01*
X104321428Y-151596429D01*
X104392856Y-151525000D01*
X104535714Y-151453571D01*
X104892856Y-151453571D01*
X105107142Y-151525000D01*
X105535713Y-151453571D02*
X106392856Y-151453571D01*
X105964285Y-152953571D02*
X105964285Y-151453571D01*
X107178570Y-151453571D02*
X107464284Y-151453571D01*
X107607142Y-151525000D01*
X107749999Y-151667857D01*
X107821427Y-151953571D01*
X107821427Y-152453571D01*
X107749999Y-152739286D01*
X107607142Y-152882143D01*
X107464284Y-152953571D01*
X107178570Y-152953571D01*
X107035713Y-152882143D01*
X106892856Y-152739286D01*
X106821427Y-152453571D01*
X106821427Y-151953571D01*
X106892856Y-151667857D01*
X107035713Y-151525000D01*
X107178570Y-151453571D01*
X109321428Y-152953571D02*
X108821428Y-152239286D01*
X108464285Y-152953571D02*
X108464285Y-151453571D01*
X109035713Y-151453571D01*
X109178571Y-151525000D01*
X109249999Y-151596429D01*
X109321428Y-151739286D01*
X109321428Y-151953571D01*
X109249999Y-152096429D01*
X109178571Y-152167857D01*
X109035713Y-152239286D01*
X108464285Y-152239286D01*
X111107142Y-152953571D02*
X111107142Y-151453571D01*
X111607142Y-152525000D01*
X112107142Y-151453571D01*
X112107142Y-152953571D01*
X112821428Y-151453571D02*
X112821428Y-152667857D01*
X112892856Y-152810714D01*
X112964285Y-152882143D01*
X113107142Y-152953571D01*
X113392856Y-152953571D01*
X113535714Y-152882143D01*
X113607142Y-152810714D01*
X113678571Y-152667857D01*
X113678571Y-151453571D01*
X114321428Y-152882143D02*
X114535714Y-152953571D01*
X114892857Y-152953571D01*
X115035714Y-152882143D01*
X115107143Y-152810714D01*
X115178571Y-152667857D01*
X115178571Y-152525000D01*
X115107143Y-152382143D01*
X115035714Y-152310714D01*
X114892857Y-152239286D01*
X114607143Y-152167857D01*
X114464285Y-152096429D01*
X114392857Y-152025000D01*
X114321428Y-151882143D01*
X114321428Y-151739286D01*
X114392857Y-151596429D01*
X114464285Y-151525000D01*
X114607143Y-151453571D01*
X114964285Y-151453571D01*
X115178571Y-151525000D01*
X115607142Y-151453571D02*
X116464285Y-151453571D01*
X116035714Y-152953571D02*
X116035714Y-151453571D01*
X118607142Y-152167857D02*
X118821428Y-152239286D01*
X118892856Y-152310714D01*
X118964285Y-152453571D01*
X118964285Y-152667857D01*
X118892856Y-152810714D01*
X118821428Y-152882143D01*
X118678570Y-152953571D01*
X118107142Y-152953571D01*
X118107142Y-151453571D01*
X118607142Y-151453571D01*
X118749999Y-151525000D01*
X118821428Y-151596429D01*
X118892856Y-151739286D01*
X118892856Y-151882143D01*
X118821428Y-152025000D01*
X118749999Y-152096429D01*
X118607142Y-152167857D01*
X118107142Y-152167857D01*
X119607142Y-152167857D02*
X120107142Y-152167857D01*
X120321428Y-152953571D02*
X119607142Y-152953571D01*
X119607142Y-151453571D01*
X120321428Y-151453571D01*
X122107142Y-152953571D02*
X122107142Y-151453571D01*
X122107142Y-152167857D02*
X122964285Y-152167857D01*
X122964285Y-152953571D02*
X122964285Y-151453571D01*
X123607142Y-152525000D02*
X124321428Y-152525000D01*
X123464285Y-152953571D02*
X123964285Y-151453571D01*
X124464285Y-152953571D01*
X124964285Y-152953571D02*
X124964285Y-151453571D01*
X125821428Y-152953571D01*
X125821428Y-151453571D01*
X126535714Y-152953571D02*
X126535714Y-151453571D01*
X126892857Y-151453571D01*
X127107142Y-151525000D01*
X127250000Y-151667857D01*
X127321428Y-151810714D01*
X127392857Y-152096429D01*
X127392857Y-152310714D01*
X127321428Y-152596429D01*
X127250000Y-152739286D01*
X127107142Y-152882143D01*
X126892857Y-152953571D01*
X126535714Y-152953571D01*
X129107142Y-152882143D02*
X129321428Y-152953571D01*
X129678571Y-152953571D01*
X129821428Y-152882143D01*
X129892857Y-152810714D01*
X129964285Y-152667857D01*
X129964285Y-152525000D01*
X129892857Y-152382143D01*
X129821428Y-152310714D01*
X129678571Y-152239286D01*
X129392857Y-152167857D01*
X129249999Y-152096429D01*
X129178571Y-152025000D01*
X129107142Y-151882143D01*
X129107142Y-151739286D01*
X129178571Y-151596429D01*
X129249999Y-151525000D01*
X129392857Y-151453571D01*
X129749999Y-151453571D01*
X129964285Y-151525000D01*
X130892856Y-151453571D02*
X131178570Y-151453571D01*
X131321428Y-151525000D01*
X131464285Y-151667857D01*
X131535713Y-151953571D01*
X131535713Y-152453571D01*
X131464285Y-152739286D01*
X131321428Y-152882143D01*
X131178570Y-152953571D01*
X130892856Y-152953571D01*
X130749999Y-152882143D01*
X130607142Y-152739286D01*
X130535713Y-152453571D01*
X130535713Y-151953571D01*
X130607142Y-151667857D01*
X130749999Y-151525000D01*
X130892856Y-151453571D01*
X132892857Y-152953571D02*
X132178571Y-152953571D01*
X132178571Y-151453571D01*
X133392857Y-152953571D02*
X133392857Y-151453571D01*
X133750000Y-151453571D01*
X133964285Y-151525000D01*
X134107143Y-151667857D01*
X134178571Y-151810714D01*
X134250000Y-152096429D01*
X134250000Y-152310714D01*
X134178571Y-152596429D01*
X134107143Y-152739286D01*
X133964285Y-152882143D01*
X133750000Y-152953571D01*
X133392857Y-152953571D01*
X134892857Y-152167857D02*
X135392857Y-152167857D01*
X135607143Y-152953571D02*
X134892857Y-152953571D01*
X134892857Y-151453571D01*
X135607143Y-151453571D01*
X137107143Y-152953571D02*
X136607143Y-152239286D01*
X136250000Y-152953571D02*
X136250000Y-151453571D01*
X136821428Y-151453571D01*
X136964286Y-151525000D01*
X137035714Y-151596429D01*
X137107143Y-151739286D01*
X137107143Y-151953571D01*
X137035714Y-152096429D01*
X136964286Y-152167857D01*
X136821428Y-152239286D01*
X136250000Y-152239286D01*
X137750000Y-152167857D02*
X138250000Y-152167857D01*
X138464286Y-152953571D02*
X137750000Y-152953571D01*
X137750000Y-151453571D01*
X138464286Y-151453571D01*
X139107143Y-152953571D02*
X139107143Y-151453571D01*
X139464286Y-151453571D01*
X139678571Y-151525000D01*
X139821429Y-151667857D01*
X139892857Y-151810714D01*
X139964286Y-152096429D01*
X139964286Y-152310714D01*
X139892857Y-152596429D01*
X139821429Y-152739286D01*
X139678571Y-152882143D01*
X139464286Y-152953571D01*
X139107143Y-152953571D01*
M02*
