G04 #@! TF.FileFunction,Copper,L1,Top,Signal*
%FSLAX46Y46*%
G04 Gerber Fmt 4.6, Leading zero omitted, Abs format (unit mm)*
G04 Created by KiCad (PCBNEW 4.0.7-e2-6376~58~ubuntu14.04.1) date Wed May 23 14:22:57 2018*
%MOMM*%
%LPD*%
G01*
G04 APERTURE LIST*
%ADD10C,0.100000*%
%ADD11C,0.210000*%
%ADD12C,0.150000*%
%ADD13C,0.190000*%
%ADD14C,0.010000*%
%ADD15C,3.000000*%
%ADD16R,4.000000X1.000000*%
%ADD17C,0.600000*%
%ADD18C,0.500000*%
%ADD19C,0.200000*%
G04 APERTURE END LIST*
D10*
D11*
X115507143Y-86278571D02*
X115507143Y-84778571D01*
X116364286Y-86278571D01*
X116364286Y-84778571D01*
X117650000Y-86207143D02*
X117507143Y-86278571D01*
X117221429Y-86278571D01*
X117078572Y-86207143D01*
X117007143Y-86064286D01*
X117007143Y-85492857D01*
X117078572Y-85350000D01*
X117221429Y-85278571D01*
X117507143Y-85278571D01*
X117650000Y-85350000D01*
X117721429Y-85492857D01*
X117721429Y-85635714D01*
X117007143Y-85778571D01*
X119007143Y-85278571D02*
X119007143Y-86278571D01*
X118364286Y-85278571D02*
X118364286Y-86064286D01*
X118435714Y-86207143D01*
X118578572Y-86278571D01*
X118792857Y-86278571D01*
X118935714Y-86207143D01*
X119007143Y-86135714D01*
X119721429Y-86278571D02*
X119721429Y-85278571D01*
X119721429Y-85564286D02*
X119792857Y-85421429D01*
X119864286Y-85350000D01*
X120007143Y-85278571D01*
X120150000Y-85278571D01*
X120864286Y-86278571D02*
X120721428Y-86207143D01*
X120650000Y-86135714D01*
X120578571Y-85992857D01*
X120578571Y-85564286D01*
X120650000Y-85421429D01*
X120721428Y-85350000D01*
X120864286Y-85278571D01*
X121078571Y-85278571D01*
X121221428Y-85350000D01*
X121292857Y-85421429D01*
X121364286Y-85564286D01*
X121364286Y-85992857D01*
X121292857Y-86135714D01*
X121221428Y-86207143D01*
X121078571Y-86278571D01*
X120864286Y-86278571D01*
X122507143Y-85492857D02*
X122721429Y-85564286D01*
X122792857Y-85635714D01*
X122864286Y-85778571D01*
X122864286Y-85992857D01*
X122792857Y-86135714D01*
X122721429Y-86207143D01*
X122578571Y-86278571D01*
X122007143Y-86278571D01*
X122007143Y-84778571D01*
X122507143Y-84778571D01*
X122650000Y-84850000D01*
X122721429Y-84921429D01*
X122792857Y-85064286D01*
X122792857Y-85207143D01*
X122721429Y-85350000D01*
X122650000Y-85421429D01*
X122507143Y-85492857D01*
X122007143Y-85492857D01*
X123364286Y-85278571D02*
X123721429Y-86278571D01*
X124078571Y-85278571D02*
X123721429Y-86278571D01*
X123578571Y-86635714D01*
X123507143Y-86707143D01*
X123364286Y-86778571D01*
X124435714Y-85278571D02*
X125007143Y-85278571D01*
X124650000Y-84778571D02*
X124650000Y-86064286D01*
X124721428Y-86207143D01*
X124864286Y-86278571D01*
X125007143Y-86278571D01*
X126078571Y-86207143D02*
X125935714Y-86278571D01*
X125650000Y-86278571D01*
X125507143Y-86207143D01*
X125435714Y-86064286D01*
X125435714Y-85492857D01*
X125507143Y-85350000D01*
X125650000Y-85278571D01*
X125935714Y-85278571D01*
X126078571Y-85350000D01*
X126150000Y-85492857D01*
X126150000Y-85635714D01*
X125435714Y-85778571D01*
X126721428Y-86207143D02*
X126864285Y-86278571D01*
X127150000Y-86278571D01*
X127292857Y-86207143D01*
X127364285Y-86064286D01*
X127364285Y-85992857D01*
X127292857Y-85850000D01*
X127150000Y-85778571D01*
X126935714Y-85778571D01*
X126792857Y-85707143D01*
X126721428Y-85564286D01*
X126721428Y-85492857D01*
X126792857Y-85350000D01*
X126935714Y-85278571D01*
X127150000Y-85278571D01*
X127292857Y-85350000D01*
D12*
X128238095Y-84709524D02*
X128000000Y-84423810D01*
X127809524Y-84709524D02*
X127809524Y-84042857D01*
X128095238Y-84042857D01*
X128190476Y-84090476D01*
X128238095Y-84185714D01*
X128238095Y-84280952D01*
X128190476Y-84376190D01*
X128095238Y-84423810D01*
X127809524Y-84423810D01*
X128000000Y-83709524D02*
X127761905Y-83757143D01*
X127523809Y-83900000D01*
X127380952Y-84138095D01*
X127333333Y-84376190D01*
X127380952Y-84614286D01*
X127523809Y-84852381D01*
X127761905Y-84995238D01*
X128000000Y-85042857D01*
X128238095Y-84995238D01*
X128476190Y-84852381D01*
X128619047Y-84614286D01*
X128666667Y-84376190D01*
X128619047Y-84138095D01*
X128476190Y-83900000D01*
X128238095Y-83757143D01*
X128000000Y-83709524D01*
D13*
X139695000Y-86305000D02*
X139885000Y-86368333D01*
X139948333Y-86431667D01*
X140011667Y-86558333D01*
X140011667Y-86748333D01*
X139948333Y-86875000D01*
X139885000Y-86938333D01*
X139758333Y-87001667D01*
X139251667Y-87001667D01*
X139251667Y-85671667D01*
X139695000Y-85671667D01*
X139821667Y-85735000D01*
X139885000Y-85798333D01*
X139948333Y-85925000D01*
X139948333Y-86051667D01*
X139885000Y-86178333D01*
X139821667Y-86241667D01*
X139695000Y-86305000D01*
X139251667Y-86305000D01*
X139683333Y-76621667D02*
X140316667Y-76621667D01*
X139556667Y-77001667D02*
X140000000Y-75671667D01*
X140443333Y-77001667D01*
D14*
G36*
X130661232Y-72561389D02*
X131267885Y-72733939D01*
X131825648Y-72992787D01*
X132328595Y-73332167D01*
X132770800Y-73746308D01*
X133146338Y-74229442D01*
X133449284Y-74775800D01*
X133673712Y-75379613D01*
X133715978Y-75535383D01*
X133780720Y-75903475D01*
X133805575Y-76311113D01*
X133791483Y-76723327D01*
X133739383Y-77105142D01*
X133666476Y-77378086D01*
X133429617Y-77914617D01*
X133112069Y-78431935D01*
X132731761Y-78905377D01*
X132306623Y-79310283D01*
X132201273Y-79393489D01*
X131863253Y-79621711D01*
X131480563Y-79833354D01*
X131086718Y-80012320D01*
X130715233Y-80142508D01*
X130560400Y-80181730D01*
X130193045Y-80273999D01*
X129911689Y-80378063D01*
X129700771Y-80502788D01*
X129544733Y-80657035D01*
X129443678Y-80817878D01*
X129403228Y-80910867D01*
X129340149Y-81071595D01*
X129261811Y-81279589D01*
X129175584Y-81514376D01*
X129088836Y-81755484D01*
X129008939Y-81982437D01*
X128943261Y-82174763D01*
X128899173Y-82311989D01*
X128884000Y-82372670D01*
X128925186Y-82366063D01*
X129027407Y-82329007D01*
X129060168Y-82315607D01*
X129221203Y-82265036D01*
X129373170Y-82242119D01*
X129381767Y-82242000D01*
X129495153Y-82252859D01*
X129686709Y-82282611D01*
X129935673Y-82327016D01*
X130221285Y-82381834D01*
X130522781Y-82442826D01*
X130819402Y-82505751D01*
X131090385Y-82566370D01*
X131314968Y-82620443D01*
X131472390Y-82663730D01*
X131511455Y-82676907D01*
X131690452Y-82772263D01*
X131844983Y-82904245D01*
X131950347Y-83047517D01*
X131982800Y-83160297D01*
X132014714Y-83237512D01*
X132109800Y-83258000D01*
X132205762Y-83235313D01*
X132236800Y-83191765D01*
X132278388Y-83098633D01*
X132385106Y-82985034D01*
X132529883Y-82873182D01*
X132685646Y-82785289D01*
X132770200Y-82754086D01*
X132904647Y-82725595D01*
X133117153Y-82690312D01*
X133384642Y-82651144D01*
X133684037Y-82610998D01*
X133992260Y-82572780D01*
X134286236Y-82539398D01*
X134542886Y-82513759D01*
X134739136Y-82498770D01*
X134818239Y-82496097D01*
X135057008Y-82523773D01*
X135256104Y-82619060D01*
X135371115Y-82711975D01*
X135493270Y-82785601D01*
X135584163Y-82765049D01*
X135633969Y-82655451D01*
X135640400Y-82571271D01*
X135689654Y-82310424D01*
X135832638Y-82076971D01*
X135902273Y-82005724D01*
X135989720Y-81942149D01*
X136149082Y-81841593D01*
X136362270Y-81714204D01*
X136611193Y-81570133D01*
X136877762Y-81419530D01*
X137143885Y-81272546D01*
X137391473Y-81139331D01*
X137602436Y-81030035D01*
X137758682Y-80954808D01*
X137819680Y-80929887D01*
X138027053Y-80878049D01*
X138204459Y-80889769D01*
X138402459Y-80968681D01*
X138409532Y-80972271D01*
X138609347Y-81074143D01*
X138737773Y-80945695D01*
X138794736Y-80882889D01*
X138831502Y-80816379D01*
X138852174Y-80723710D01*
X138860855Y-80582429D01*
X138861646Y-80370081D01*
X138860794Y-80272324D01*
X138854110Y-79997890D01*
X138838274Y-79720602D01*
X138811318Y-79423468D01*
X138771275Y-79089497D01*
X138716177Y-78701697D01*
X138644057Y-78243075D01*
X138583314Y-77876301D01*
X138503294Y-77345738D01*
X138455175Y-76876540D01*
X138438002Y-76433932D01*
X138450818Y-75983137D01*
X138492665Y-75489382D01*
X138512717Y-75310791D01*
X138539949Y-75041095D01*
X138557507Y-74787315D01*
X138563972Y-74577299D01*
X138557924Y-74438899D01*
X138557376Y-74435076D01*
X138544097Y-74289774D01*
X138564760Y-74213888D01*
X138606633Y-74185306D01*
X138760657Y-74175714D01*
X138940308Y-74240981D01*
X139074681Y-74334256D01*
X139167385Y-74434513D01*
X139187429Y-74533134D01*
X139176378Y-74593254D01*
X139116312Y-74707786D01*
X139039652Y-74760817D01*
X138954061Y-74806935D01*
X138884552Y-74903251D01*
X138827665Y-75061074D01*
X138779939Y-75291711D01*
X138737911Y-75606471D01*
X138716145Y-75817731D01*
X138681083Y-76362745D01*
X138689290Y-76820839D01*
X138741504Y-77197364D01*
X138838464Y-77497673D01*
X138979790Y-77725785D01*
X139116109Y-77887791D01*
X140007154Y-77856015D01*
X140520280Y-77829421D01*
X140958892Y-77789388D01*
X141316400Y-77736894D01*
X141586216Y-77672917D01*
X141761749Y-77598433D01*
X141767115Y-77594988D01*
X141916128Y-77525848D01*
X142031226Y-77545452D01*
X142114519Y-77630503D01*
X142184618Y-77800403D01*
X142174354Y-77970842D01*
X142091912Y-78101879D01*
X142018538Y-78158919D01*
X141952658Y-78164430D01*
X141850801Y-78118723D01*
X141822926Y-78103808D01*
X141755797Y-78070957D01*
X141686213Y-78049571D01*
X141596762Y-78039555D01*
X141470032Y-78040816D01*
X141288611Y-78053258D01*
X141035088Y-78076787D01*
X140819713Y-78098352D01*
X140492558Y-78127327D01*
X140156777Y-78149908D01*
X139844401Y-78164404D01*
X139587461Y-78169126D01*
X139504077Y-78167796D01*
X139024355Y-78152600D01*
X138974586Y-78322728D01*
X138956764Y-78443831D01*
X138956218Y-78633945D01*
X138973322Y-78903371D01*
X139008445Y-79262414D01*
X139008457Y-79262528D01*
X139041206Y-79585241D01*
X139071596Y-79923305D01*
X139096587Y-80240313D01*
X139113141Y-80499859D01*
X139115105Y-80540200D01*
X139136588Y-80855454D01*
X139173917Y-81098242D01*
X139235478Y-81297425D01*
X139329655Y-81481862D01*
X139434146Y-81638229D01*
X139583429Y-81875202D01*
X139680774Y-82110602D01*
X139734923Y-82375617D01*
X139754621Y-82701432D01*
X139755200Y-82783418D01*
X139765916Y-83098041D01*
X139802332Y-83334760D01*
X139870849Y-83515418D01*
X139977869Y-83661861D01*
X140026756Y-83710136D01*
X140096936Y-83768440D01*
X140168823Y-83802187D01*
X140268517Y-83815469D01*
X140422123Y-83812375D01*
X140604449Y-83800638D01*
X140842053Y-83792413D01*
X141138846Y-83794584D01*
X141453038Y-83806336D01*
X141685246Y-83821786D01*
X142035790Y-83850288D01*
X142299605Y-83869588D01*
X142491170Y-83879375D01*
X142624965Y-83879340D01*
X142715471Y-83869173D01*
X142777168Y-83848565D01*
X142824536Y-83817206D01*
X142847904Y-83796916D01*
X142937067Y-83734729D01*
X143006679Y-83747165D01*
X143030847Y-83765209D01*
X143093001Y-83874053D01*
X143103090Y-84023100D01*
X143059561Y-84164401D01*
X143044500Y-84187224D01*
X142994597Y-84236982D01*
X142928100Y-84245018D01*
X142810562Y-84212771D01*
X142769524Y-84198708D01*
X142602236Y-84157439D01*
X142358544Y-84118927D01*
X142063645Y-84085171D01*
X141742731Y-84058170D01*
X141420998Y-84039926D01*
X141123639Y-84032438D01*
X140875850Y-84037705D01*
X140806177Y-84042868D01*
X140557250Y-84070487D01*
X140399716Y-84107514D01*
X140323523Y-84168970D01*
X140318621Y-84269876D01*
X140374958Y-84425255D01*
X140447557Y-84578800D01*
X140558893Y-84817730D01*
X140672871Y-85079476D01*
X140765008Y-85307799D01*
X140765818Y-85309938D01*
X140841591Y-85499549D01*
X140908936Y-85620803D01*
X140992232Y-85701498D01*
X141115860Y-85769436D01*
X141203000Y-85808435D01*
X141330469Y-85901531D01*
X141371010Y-86009470D01*
X141339061Y-86137962D01*
X141230041Y-86264282D01*
X141067146Y-86369856D01*
X140873571Y-86436107D01*
X140828909Y-86443596D01*
X140674664Y-86444733D01*
X140584738Y-86390195D01*
X140552884Y-86268905D01*
X140572856Y-86069784D01*
X140584475Y-86010107D01*
X140612071Y-85827654D01*
X140607283Y-85662106D01*
X140567599Y-85463143D01*
X140554657Y-85412635D01*
X140464501Y-85129594D01*
X140343773Y-84837004D01*
X140202704Y-84552293D01*
X140051524Y-84292892D01*
X139900463Y-84076232D01*
X139759753Y-83919743D01*
X139639624Y-83840854D01*
X139630581Y-83838258D01*
X139490764Y-83844084D01*
X139337248Y-83932371D01*
X139164347Y-84107784D01*
X138966375Y-84374988D01*
X138954033Y-84393357D01*
X138730135Y-84778206D01*
X138526487Y-85222229D01*
X138360669Y-85683032D01*
X138260697Y-86065371D01*
X138207218Y-86357282D01*
X138185954Y-86577867D01*
X138197467Y-86752343D01*
X138242320Y-86905928D01*
X138281334Y-86990494D01*
X138341168Y-87118165D01*
X138353211Y-87194531D01*
X138319704Y-87256712D01*
X138298860Y-87280635D01*
X138177154Y-87349180D01*
X138003559Y-87370822D01*
X137817231Y-87343748D01*
X137723200Y-87307279D01*
X137607633Y-87204888D01*
X137581176Y-87074631D01*
X137645657Y-86940644D01*
X137692046Y-86895679D01*
X137769004Y-86806831D01*
X137840003Y-86663910D01*
X137913277Y-86448370D01*
X137953768Y-86306000D01*
X138086369Y-85828758D01*
X138203474Y-85432957D01*
X138312290Y-85101004D01*
X138420021Y-84815309D01*
X138533873Y-84558279D01*
X138661051Y-84312325D01*
X138808762Y-84059853D01*
X138984210Y-83783273D01*
X138991961Y-83771378D01*
X139217388Y-83405365D01*
X139375506Y-83096297D01*
X139470616Y-82829043D01*
X139507015Y-82588471D01*
X139489002Y-82359451D01*
X139442342Y-82186080D01*
X139371591Y-82027038D01*
X139267543Y-81850720D01*
X139145197Y-81676148D01*
X139019554Y-81522344D01*
X138905612Y-81408331D01*
X138818372Y-81353129D01*
X138786925Y-81354899D01*
X138756750Y-81420041D01*
X138740249Y-81546070D01*
X138739200Y-81589460D01*
X138733107Y-81715666D01*
X138708794Y-81827084D01*
X138657201Y-81931537D01*
X138569272Y-82036853D01*
X138435951Y-82150855D01*
X138248180Y-82281371D01*
X137996903Y-82436225D01*
X137673063Y-82623244D01*
X137302467Y-82830875D01*
X136974439Y-83009170D01*
X136716660Y-83136845D01*
X136513496Y-83217563D01*
X136349315Y-83254990D01*
X136208482Y-83252788D01*
X136075366Y-83214622D01*
X135943560Y-83149374D01*
X135776990Y-83076526D01*
X135665405Y-83083861D01*
X135596065Y-83175824D01*
X135568108Y-83280430D01*
X135478359Y-83505414D01*
X135313621Y-83698947D01*
X135100449Y-83832975D01*
X135018808Y-83860768D01*
X134898913Y-83885929D01*
X134698936Y-83920464D01*
X134439607Y-83961112D01*
X134141655Y-84004610D01*
X133857712Y-84043485D01*
X133478067Y-84091414D01*
X133183063Y-84121473D01*
X132957188Y-84132869D01*
X132784928Y-84124804D01*
X132650769Y-84096485D01*
X132539200Y-84047116D01*
X132434705Y-83975902D01*
X132427355Y-83970157D01*
X132314620Y-83848157D01*
X132237513Y-83716921D01*
X132150273Y-83593982D01*
X132041771Y-83564909D01*
X131930976Y-83630276D01*
X131876312Y-83706025D01*
X131744217Y-83850217D01*
X131549224Y-83960082D01*
X131328903Y-84016411D01*
X131262196Y-84020000D01*
X131120738Y-84009123D01*
X130909560Y-83979143D01*
X130647291Y-83934032D01*
X130352562Y-83877765D01*
X130044002Y-83814316D01*
X129740241Y-83747657D01*
X129459910Y-83681763D01*
X129221637Y-83620608D01*
X129044055Y-83568166D01*
X128945791Y-83528409D01*
X128940300Y-83524743D01*
X128832777Y-83418458D01*
X128722332Y-83269645D01*
X128689693Y-83215399D01*
X128588770Y-83070228D01*
X128483880Y-83012220D01*
X128353431Y-83037706D01*
X128193367Y-83131000D01*
X127958679Y-83238253D01*
X127806086Y-83258000D01*
X127700446Y-83246752D01*
X127515917Y-83215844D01*
X127272355Y-83169532D01*
X126989616Y-83112070D01*
X126687558Y-83047712D01*
X126386035Y-82980713D01*
X126104905Y-82915328D01*
X125864024Y-82855811D01*
X125683248Y-82806416D01*
X125648039Y-82795597D01*
X125519253Y-82727567D01*
X125381498Y-82615222D01*
X125261865Y-82485983D01*
X125187448Y-82367273D01*
X125175600Y-82317400D01*
X125133985Y-82242012D01*
X125021816Y-82215481D01*
X124858105Y-82238701D01*
X124699861Y-82294998D01*
X124615660Y-82331965D01*
X124542044Y-82358660D01*
X124465596Y-82373471D01*
X124372897Y-82374787D01*
X124250532Y-82360996D01*
X124085080Y-82330486D01*
X123863126Y-82281645D01*
X123571251Y-82212863D01*
X123196037Y-82122526D01*
X123128644Y-82106271D01*
X122750200Y-82012181D01*
X122458243Y-81931207D01*
X122239529Y-81857048D01*
X122080817Y-81783401D01*
X121968865Y-81703965D01*
X121890431Y-81612439D01*
X121832275Y-81502520D01*
X121825290Y-81486013D01*
X121763803Y-81337569D01*
X121069401Y-81299972D01*
X120875232Y-81292877D01*
X120593181Y-81287394D01*
X120236956Y-81283566D01*
X119820264Y-81281436D01*
X119356811Y-81281048D01*
X118860305Y-81282444D01*
X118344452Y-81285667D01*
X117892667Y-81289969D01*
X115410335Y-81317562D01*
X115439395Y-81138487D01*
X115463734Y-81014591D01*
X115485697Y-80943321D01*
X115488389Y-80939476D01*
X115542194Y-80932987D01*
X115685120Y-80924080D01*
X115904733Y-80913306D01*
X116188597Y-80901210D01*
X116524278Y-80888343D01*
X116899340Y-80875251D01*
X117078030Y-80869420D01*
X117423611Y-80860847D01*
X117814798Y-80855356D01*
X118239635Y-80852748D01*
X118686164Y-80852824D01*
X119142429Y-80855387D01*
X119596472Y-80860237D01*
X120036335Y-80867176D01*
X120450062Y-80876005D01*
X120825696Y-80886527D01*
X121151279Y-80898543D01*
X121414854Y-80911854D01*
X121604465Y-80926262D01*
X121708153Y-80941568D01*
X121721006Y-80946480D01*
X121774014Y-80926687D01*
X121865014Y-80850933D01*
X121903926Y-80811537D01*
X122134332Y-80629348D01*
X122395273Y-80530349D01*
X122545068Y-80515561D01*
X122672285Y-80529664D01*
X122872710Y-80567793D01*
X123127242Y-80624833D01*
X123416779Y-80695671D01*
X123722220Y-80775191D01*
X124024464Y-80858278D01*
X124304410Y-80939819D01*
X124542955Y-81014699D01*
X124721000Y-81077803D01*
X124819442Y-81124017D01*
X124820666Y-81124874D01*
X124989580Y-81292131D01*
X125096942Y-81495447D01*
X125124800Y-81655277D01*
X125134364Y-81752039D01*
X125153178Y-81784800D01*
X125205793Y-81755619D01*
X125308749Y-81681128D01*
X125380301Y-81625084D01*
X125499390Y-81540200D01*
X125622202Y-81481757D01*
X125762987Y-81450002D01*
X125935999Y-81445178D01*
X126155489Y-81467529D01*
X126435709Y-81517299D01*
X126790912Y-81594733D01*
X127041653Y-81653548D01*
X127342161Y-81724883D01*
X127607707Y-81787383D01*
X127822918Y-81837472D01*
X127972420Y-81871578D01*
X128040843Y-81886125D01*
X128043186Y-81886400D01*
X128092280Y-81916998D01*
X128189805Y-81994877D01*
X128253038Y-82049160D01*
X128365729Y-82144031D01*
X128430848Y-82177530D01*
X128475959Y-82156668D01*
X128509675Y-82114461D01*
X128582726Y-81975461D01*
X128658779Y-81766219D01*
X128731795Y-81513072D01*
X128795739Y-81242357D01*
X128844574Y-80980411D01*
X128872263Y-80753572D01*
X128872770Y-80588175D01*
X128866993Y-80555555D01*
X128830165Y-80455915D01*
X128763067Y-80348722D01*
X128656196Y-80224409D01*
X128500051Y-80073411D01*
X128285128Y-79886162D01*
X128001925Y-79653096D01*
X127846205Y-79527945D01*
X127409063Y-79166518D01*
X127052210Y-78843850D01*
X126766576Y-78550353D01*
X126543090Y-78276439D01*
X126372681Y-78012518D01*
X126321749Y-77916446D01*
X126153411Y-77518371D01*
X126059538Y-77155851D01*
X127258400Y-77155851D01*
X127277275Y-77218008D01*
X127325005Y-77341104D01*
X127388251Y-77493654D01*
X127453669Y-77644175D01*
X127507919Y-77761182D01*
X127536526Y-77812194D01*
X127589419Y-77809140D01*
X127714606Y-77786762D01*
X127885674Y-77749822D01*
X127896747Y-77747264D01*
X128242239Y-77667139D01*
X128665935Y-78082965D01*
X128597961Y-78371782D01*
X128560684Y-78542305D01*
X128535774Y-78679464D01*
X128529465Y-78736800D01*
X128571520Y-78785130D01*
X128679461Y-78857456D01*
X128825310Y-78938891D01*
X128981088Y-79014545D01*
X129118819Y-79069531D01*
X129188800Y-79087652D01*
X129225956Y-79049638D01*
X129299857Y-78946193D01*
X129395050Y-78799049D01*
X129402504Y-78787040D01*
X129590809Y-78482800D01*
X130198574Y-78482800D01*
X130387642Y-78789114D01*
X130484333Y-78937596D01*
X130562058Y-79042006D01*
X130605210Y-79081546D01*
X130606859Y-79081214D01*
X130666157Y-79056428D01*
X130792300Y-79005259D01*
X130954304Y-78940258D01*
X131114016Y-78869353D01*
X131227380Y-78805436D01*
X131269790Y-78762458D01*
X131257673Y-78688895D01*
X131228035Y-78549529D01*
X131194888Y-78406600D01*
X131121796Y-78101800D01*
X131339935Y-77883030D01*
X131558075Y-77664261D01*
X131899268Y-77749966D01*
X132070604Y-77789955D01*
X132197742Y-77813878D01*
X132254336Y-77816815D01*
X132254832Y-77816335D01*
X132281729Y-77761415D01*
X132333541Y-77644045D01*
X132397788Y-77493823D01*
X132461986Y-77340345D01*
X132513653Y-77213209D01*
X132540306Y-77142013D01*
X132541600Y-77136364D01*
X132501771Y-77102449D01*
X132396950Y-77030986D01*
X132249134Y-76936920D01*
X132236800Y-76929292D01*
X131932000Y-76741158D01*
X131932000Y-76147037D01*
X132224100Y-75957864D01*
X132372182Y-75862147D01*
X132482197Y-75791387D01*
X132530846Y-75760567D01*
X132531071Y-75760440D01*
X132520567Y-75713288D01*
X132479095Y-75596499D01*
X132415239Y-75434020D01*
X132405760Y-75410834D01*
X132265576Y-75069480D01*
X132086088Y-75100537D01*
X131839141Y-75142458D01*
X131669584Y-75164593D01*
X131554564Y-75163724D01*
X131471231Y-75136631D01*
X131396733Y-75080097D01*
X131308312Y-74990998D01*
X131116424Y-74792673D01*
X131196825Y-74445990D01*
X131231290Y-74269261D01*
X131245795Y-74132814D01*
X131237419Y-74064894D01*
X131236313Y-74063774D01*
X131153944Y-74015644D01*
X131017766Y-73956720D01*
X130859428Y-73898181D01*
X130710583Y-73851207D01*
X130602881Y-73826976D01*
X130570243Y-73828516D01*
X130521285Y-73884361D01*
X130439769Y-74001473D01*
X130353475Y-74138066D01*
X130183333Y-74418800D01*
X129892379Y-74418800D01*
X129601425Y-74418799D01*
X129411317Y-74110800D01*
X129311804Y-73954961D01*
X129231084Y-73864125D01*
X129143556Y-73832500D01*
X129023618Y-73854294D01*
X128845672Y-73923715D01*
X128755225Y-73962360D01*
X128615238Y-74026150D01*
X128548571Y-74079640D01*
X128534881Y-74151896D01*
X128550610Y-74254675D01*
X128595066Y-74504445D01*
X128616781Y-74677469D01*
X128613008Y-74796615D01*
X128580999Y-74884750D01*
X128518009Y-74964741D01*
X128458194Y-75024120D01*
X128277587Y-75197641D01*
X127915688Y-75132966D01*
X127733252Y-75106861D01*
X127591303Y-75098625D01*
X127517975Y-75109745D01*
X127515615Y-75111845D01*
X127475637Y-75181565D01*
X127419435Y-75306811D01*
X127358657Y-75457488D01*
X127304952Y-75603504D01*
X127269969Y-75714765D01*
X127264458Y-75760679D01*
X127314022Y-75794743D01*
X127425460Y-75867362D01*
X127574725Y-75962869D01*
X127575900Y-75963615D01*
X127868000Y-76149122D01*
X127868000Y-76730488D01*
X127563200Y-76921016D01*
X127412709Y-77020902D01*
X127303793Y-77104284D01*
X127258604Y-77154096D01*
X127258400Y-77155851D01*
X126059538Y-77155851D01*
X126048023Y-77111386D01*
X126000461Y-76667899D01*
X126003445Y-76202392D01*
X126051961Y-75691531D01*
X126151496Y-75240423D01*
X126312778Y-74815548D01*
X126546533Y-74383392D01*
X126626019Y-74257159D01*
X126992698Y-73781034D01*
X127428201Y-73371490D01*
X127920497Y-73033581D01*
X128457557Y-72772363D01*
X129027351Y-72592892D01*
X129617849Y-72500223D01*
X130217022Y-72499412D01*
X130661232Y-72561389D01*
X130661232Y-72561389D01*
G37*
X130661232Y-72561389D02*
X131267885Y-72733939D01*
X131825648Y-72992787D01*
X132328595Y-73332167D01*
X132770800Y-73746308D01*
X133146338Y-74229442D01*
X133449284Y-74775800D01*
X133673712Y-75379613D01*
X133715978Y-75535383D01*
X133780720Y-75903475D01*
X133805575Y-76311113D01*
X133791483Y-76723327D01*
X133739383Y-77105142D01*
X133666476Y-77378086D01*
X133429617Y-77914617D01*
X133112069Y-78431935D01*
X132731761Y-78905377D01*
X132306623Y-79310283D01*
X132201273Y-79393489D01*
X131863253Y-79621711D01*
X131480563Y-79833354D01*
X131086718Y-80012320D01*
X130715233Y-80142508D01*
X130560400Y-80181730D01*
X130193045Y-80273999D01*
X129911689Y-80378063D01*
X129700771Y-80502788D01*
X129544733Y-80657035D01*
X129443678Y-80817878D01*
X129403228Y-80910867D01*
X129340149Y-81071595D01*
X129261811Y-81279589D01*
X129175584Y-81514376D01*
X129088836Y-81755484D01*
X129008939Y-81982437D01*
X128943261Y-82174763D01*
X128899173Y-82311989D01*
X128884000Y-82372670D01*
X128925186Y-82366063D01*
X129027407Y-82329007D01*
X129060168Y-82315607D01*
X129221203Y-82265036D01*
X129373170Y-82242119D01*
X129381767Y-82242000D01*
X129495153Y-82252859D01*
X129686709Y-82282611D01*
X129935673Y-82327016D01*
X130221285Y-82381834D01*
X130522781Y-82442826D01*
X130819402Y-82505751D01*
X131090385Y-82566370D01*
X131314968Y-82620443D01*
X131472390Y-82663730D01*
X131511455Y-82676907D01*
X131690452Y-82772263D01*
X131844983Y-82904245D01*
X131950347Y-83047517D01*
X131982800Y-83160297D01*
X132014714Y-83237512D01*
X132109800Y-83258000D01*
X132205762Y-83235313D01*
X132236800Y-83191765D01*
X132278388Y-83098633D01*
X132385106Y-82985034D01*
X132529883Y-82873182D01*
X132685646Y-82785289D01*
X132770200Y-82754086D01*
X132904647Y-82725595D01*
X133117153Y-82690312D01*
X133384642Y-82651144D01*
X133684037Y-82610998D01*
X133992260Y-82572780D01*
X134286236Y-82539398D01*
X134542886Y-82513759D01*
X134739136Y-82498770D01*
X134818239Y-82496097D01*
X135057008Y-82523773D01*
X135256104Y-82619060D01*
X135371115Y-82711975D01*
X135493270Y-82785601D01*
X135584163Y-82765049D01*
X135633969Y-82655451D01*
X135640400Y-82571271D01*
X135689654Y-82310424D01*
X135832638Y-82076971D01*
X135902273Y-82005724D01*
X135989720Y-81942149D01*
X136149082Y-81841593D01*
X136362270Y-81714204D01*
X136611193Y-81570133D01*
X136877762Y-81419530D01*
X137143885Y-81272546D01*
X137391473Y-81139331D01*
X137602436Y-81030035D01*
X137758682Y-80954808D01*
X137819680Y-80929887D01*
X138027053Y-80878049D01*
X138204459Y-80889769D01*
X138402459Y-80968681D01*
X138409532Y-80972271D01*
X138609347Y-81074143D01*
X138737773Y-80945695D01*
X138794736Y-80882889D01*
X138831502Y-80816379D01*
X138852174Y-80723710D01*
X138860855Y-80582429D01*
X138861646Y-80370081D01*
X138860794Y-80272324D01*
X138854110Y-79997890D01*
X138838274Y-79720602D01*
X138811318Y-79423468D01*
X138771275Y-79089497D01*
X138716177Y-78701697D01*
X138644057Y-78243075D01*
X138583314Y-77876301D01*
X138503294Y-77345738D01*
X138455175Y-76876540D01*
X138438002Y-76433932D01*
X138450818Y-75983137D01*
X138492665Y-75489382D01*
X138512717Y-75310791D01*
X138539949Y-75041095D01*
X138557507Y-74787315D01*
X138563972Y-74577299D01*
X138557924Y-74438899D01*
X138557376Y-74435076D01*
X138544097Y-74289774D01*
X138564760Y-74213888D01*
X138606633Y-74185306D01*
X138760657Y-74175714D01*
X138940308Y-74240981D01*
X139074681Y-74334256D01*
X139167385Y-74434513D01*
X139187429Y-74533134D01*
X139176378Y-74593254D01*
X139116312Y-74707786D01*
X139039652Y-74760817D01*
X138954061Y-74806935D01*
X138884552Y-74903251D01*
X138827665Y-75061074D01*
X138779939Y-75291711D01*
X138737911Y-75606471D01*
X138716145Y-75817731D01*
X138681083Y-76362745D01*
X138689290Y-76820839D01*
X138741504Y-77197364D01*
X138838464Y-77497673D01*
X138979790Y-77725785D01*
X139116109Y-77887791D01*
X140007154Y-77856015D01*
X140520280Y-77829421D01*
X140958892Y-77789388D01*
X141316400Y-77736894D01*
X141586216Y-77672917D01*
X141761749Y-77598433D01*
X141767115Y-77594988D01*
X141916128Y-77525848D01*
X142031226Y-77545452D01*
X142114519Y-77630503D01*
X142184618Y-77800403D01*
X142174354Y-77970842D01*
X142091912Y-78101879D01*
X142018538Y-78158919D01*
X141952658Y-78164430D01*
X141850801Y-78118723D01*
X141822926Y-78103808D01*
X141755797Y-78070957D01*
X141686213Y-78049571D01*
X141596762Y-78039555D01*
X141470032Y-78040816D01*
X141288611Y-78053258D01*
X141035088Y-78076787D01*
X140819713Y-78098352D01*
X140492558Y-78127327D01*
X140156777Y-78149908D01*
X139844401Y-78164404D01*
X139587461Y-78169126D01*
X139504077Y-78167796D01*
X139024355Y-78152600D01*
X138974586Y-78322728D01*
X138956764Y-78443831D01*
X138956218Y-78633945D01*
X138973322Y-78903371D01*
X139008445Y-79262414D01*
X139008457Y-79262528D01*
X139041206Y-79585241D01*
X139071596Y-79923305D01*
X139096587Y-80240313D01*
X139113141Y-80499859D01*
X139115105Y-80540200D01*
X139136588Y-80855454D01*
X139173917Y-81098242D01*
X139235478Y-81297425D01*
X139329655Y-81481862D01*
X139434146Y-81638229D01*
X139583429Y-81875202D01*
X139680774Y-82110602D01*
X139734923Y-82375617D01*
X139754621Y-82701432D01*
X139755200Y-82783418D01*
X139765916Y-83098041D01*
X139802332Y-83334760D01*
X139870849Y-83515418D01*
X139977869Y-83661861D01*
X140026756Y-83710136D01*
X140096936Y-83768440D01*
X140168823Y-83802187D01*
X140268517Y-83815469D01*
X140422123Y-83812375D01*
X140604449Y-83800638D01*
X140842053Y-83792413D01*
X141138846Y-83794584D01*
X141453038Y-83806336D01*
X141685246Y-83821786D01*
X142035790Y-83850288D01*
X142299605Y-83869588D01*
X142491170Y-83879375D01*
X142624965Y-83879340D01*
X142715471Y-83869173D01*
X142777168Y-83848565D01*
X142824536Y-83817206D01*
X142847904Y-83796916D01*
X142937067Y-83734729D01*
X143006679Y-83747165D01*
X143030847Y-83765209D01*
X143093001Y-83874053D01*
X143103090Y-84023100D01*
X143059561Y-84164401D01*
X143044500Y-84187224D01*
X142994597Y-84236982D01*
X142928100Y-84245018D01*
X142810562Y-84212771D01*
X142769524Y-84198708D01*
X142602236Y-84157439D01*
X142358544Y-84118927D01*
X142063645Y-84085171D01*
X141742731Y-84058170D01*
X141420998Y-84039926D01*
X141123639Y-84032438D01*
X140875850Y-84037705D01*
X140806177Y-84042868D01*
X140557250Y-84070487D01*
X140399716Y-84107514D01*
X140323523Y-84168970D01*
X140318621Y-84269876D01*
X140374958Y-84425255D01*
X140447557Y-84578800D01*
X140558893Y-84817730D01*
X140672871Y-85079476D01*
X140765008Y-85307799D01*
X140765818Y-85309938D01*
X140841591Y-85499549D01*
X140908936Y-85620803D01*
X140992232Y-85701498D01*
X141115860Y-85769436D01*
X141203000Y-85808435D01*
X141330469Y-85901531D01*
X141371010Y-86009470D01*
X141339061Y-86137962D01*
X141230041Y-86264282D01*
X141067146Y-86369856D01*
X140873571Y-86436107D01*
X140828909Y-86443596D01*
X140674664Y-86444733D01*
X140584738Y-86390195D01*
X140552884Y-86268905D01*
X140572856Y-86069784D01*
X140584475Y-86010107D01*
X140612071Y-85827654D01*
X140607283Y-85662106D01*
X140567599Y-85463143D01*
X140554657Y-85412635D01*
X140464501Y-85129594D01*
X140343773Y-84837004D01*
X140202704Y-84552293D01*
X140051524Y-84292892D01*
X139900463Y-84076232D01*
X139759753Y-83919743D01*
X139639624Y-83840854D01*
X139630581Y-83838258D01*
X139490764Y-83844084D01*
X139337248Y-83932371D01*
X139164347Y-84107784D01*
X138966375Y-84374988D01*
X138954033Y-84393357D01*
X138730135Y-84778206D01*
X138526487Y-85222229D01*
X138360669Y-85683032D01*
X138260697Y-86065371D01*
X138207218Y-86357282D01*
X138185954Y-86577867D01*
X138197467Y-86752343D01*
X138242320Y-86905928D01*
X138281334Y-86990494D01*
X138341168Y-87118165D01*
X138353211Y-87194531D01*
X138319704Y-87256712D01*
X138298860Y-87280635D01*
X138177154Y-87349180D01*
X138003559Y-87370822D01*
X137817231Y-87343748D01*
X137723200Y-87307279D01*
X137607633Y-87204888D01*
X137581176Y-87074631D01*
X137645657Y-86940644D01*
X137692046Y-86895679D01*
X137769004Y-86806831D01*
X137840003Y-86663910D01*
X137913277Y-86448370D01*
X137953768Y-86306000D01*
X138086369Y-85828758D01*
X138203474Y-85432957D01*
X138312290Y-85101004D01*
X138420021Y-84815309D01*
X138533873Y-84558279D01*
X138661051Y-84312325D01*
X138808762Y-84059853D01*
X138984210Y-83783273D01*
X138991961Y-83771378D01*
X139217388Y-83405365D01*
X139375506Y-83096297D01*
X139470616Y-82829043D01*
X139507015Y-82588471D01*
X139489002Y-82359451D01*
X139442342Y-82186080D01*
X139371591Y-82027038D01*
X139267543Y-81850720D01*
X139145197Y-81676148D01*
X139019554Y-81522344D01*
X138905612Y-81408331D01*
X138818372Y-81353129D01*
X138786925Y-81354899D01*
X138756750Y-81420041D01*
X138740249Y-81546070D01*
X138739200Y-81589460D01*
X138733107Y-81715666D01*
X138708794Y-81827084D01*
X138657201Y-81931537D01*
X138569272Y-82036853D01*
X138435951Y-82150855D01*
X138248180Y-82281371D01*
X137996903Y-82436225D01*
X137673063Y-82623244D01*
X137302467Y-82830875D01*
X136974439Y-83009170D01*
X136716660Y-83136845D01*
X136513496Y-83217563D01*
X136349315Y-83254990D01*
X136208482Y-83252788D01*
X136075366Y-83214622D01*
X135943560Y-83149374D01*
X135776990Y-83076526D01*
X135665405Y-83083861D01*
X135596065Y-83175824D01*
X135568108Y-83280430D01*
X135478359Y-83505414D01*
X135313621Y-83698947D01*
X135100449Y-83832975D01*
X135018808Y-83860768D01*
X134898913Y-83885929D01*
X134698936Y-83920464D01*
X134439607Y-83961112D01*
X134141655Y-84004610D01*
X133857712Y-84043485D01*
X133478067Y-84091414D01*
X133183063Y-84121473D01*
X132957188Y-84132869D01*
X132784928Y-84124804D01*
X132650769Y-84096485D01*
X132539200Y-84047116D01*
X132434705Y-83975902D01*
X132427355Y-83970157D01*
X132314620Y-83848157D01*
X132237513Y-83716921D01*
X132150273Y-83593982D01*
X132041771Y-83564909D01*
X131930976Y-83630276D01*
X131876312Y-83706025D01*
X131744217Y-83850217D01*
X131549224Y-83960082D01*
X131328903Y-84016411D01*
X131262196Y-84020000D01*
X131120738Y-84009123D01*
X130909560Y-83979143D01*
X130647291Y-83934032D01*
X130352562Y-83877765D01*
X130044002Y-83814316D01*
X129740241Y-83747657D01*
X129459910Y-83681763D01*
X129221637Y-83620608D01*
X129044055Y-83568166D01*
X128945791Y-83528409D01*
X128940300Y-83524743D01*
X128832777Y-83418458D01*
X128722332Y-83269645D01*
X128689693Y-83215399D01*
X128588770Y-83070228D01*
X128483880Y-83012220D01*
X128353431Y-83037706D01*
X128193367Y-83131000D01*
X127958679Y-83238253D01*
X127806086Y-83258000D01*
X127700446Y-83246752D01*
X127515917Y-83215844D01*
X127272355Y-83169532D01*
X126989616Y-83112070D01*
X126687558Y-83047712D01*
X126386035Y-82980713D01*
X126104905Y-82915328D01*
X125864024Y-82855811D01*
X125683248Y-82806416D01*
X125648039Y-82795597D01*
X125519253Y-82727567D01*
X125381498Y-82615222D01*
X125261865Y-82485983D01*
X125187448Y-82367273D01*
X125175600Y-82317400D01*
X125133985Y-82242012D01*
X125021816Y-82215481D01*
X124858105Y-82238701D01*
X124699861Y-82294998D01*
X124615660Y-82331965D01*
X124542044Y-82358660D01*
X124465596Y-82373471D01*
X124372897Y-82374787D01*
X124250532Y-82360996D01*
X124085080Y-82330486D01*
X123863126Y-82281645D01*
X123571251Y-82212863D01*
X123196037Y-82122526D01*
X123128644Y-82106271D01*
X122750200Y-82012181D01*
X122458243Y-81931207D01*
X122239529Y-81857048D01*
X122080817Y-81783401D01*
X121968865Y-81703965D01*
X121890431Y-81612439D01*
X121832275Y-81502520D01*
X121825290Y-81486013D01*
X121763803Y-81337569D01*
X121069401Y-81299972D01*
X120875232Y-81292877D01*
X120593181Y-81287394D01*
X120236956Y-81283566D01*
X119820264Y-81281436D01*
X119356811Y-81281048D01*
X118860305Y-81282444D01*
X118344452Y-81285667D01*
X117892667Y-81289969D01*
X115410335Y-81317562D01*
X115439395Y-81138487D01*
X115463734Y-81014591D01*
X115485697Y-80943321D01*
X115488389Y-80939476D01*
X115542194Y-80932987D01*
X115685120Y-80924080D01*
X115904733Y-80913306D01*
X116188597Y-80901210D01*
X116524278Y-80888343D01*
X116899340Y-80875251D01*
X117078030Y-80869420D01*
X117423611Y-80860847D01*
X117814798Y-80855356D01*
X118239635Y-80852748D01*
X118686164Y-80852824D01*
X119142429Y-80855387D01*
X119596472Y-80860237D01*
X120036335Y-80867176D01*
X120450062Y-80876005D01*
X120825696Y-80886527D01*
X121151279Y-80898543D01*
X121414854Y-80911854D01*
X121604465Y-80926262D01*
X121708153Y-80941568D01*
X121721006Y-80946480D01*
X121774014Y-80926687D01*
X121865014Y-80850933D01*
X121903926Y-80811537D01*
X122134332Y-80629348D01*
X122395273Y-80530349D01*
X122545068Y-80515561D01*
X122672285Y-80529664D01*
X122872710Y-80567793D01*
X123127242Y-80624833D01*
X123416779Y-80695671D01*
X123722220Y-80775191D01*
X124024464Y-80858278D01*
X124304410Y-80939819D01*
X124542955Y-81014699D01*
X124721000Y-81077803D01*
X124819442Y-81124017D01*
X124820666Y-81124874D01*
X124989580Y-81292131D01*
X125096942Y-81495447D01*
X125124800Y-81655277D01*
X125134364Y-81752039D01*
X125153178Y-81784800D01*
X125205793Y-81755619D01*
X125308749Y-81681128D01*
X125380301Y-81625084D01*
X125499390Y-81540200D01*
X125622202Y-81481757D01*
X125762987Y-81450002D01*
X125935999Y-81445178D01*
X126155489Y-81467529D01*
X126435709Y-81517299D01*
X126790912Y-81594733D01*
X127041653Y-81653548D01*
X127342161Y-81724883D01*
X127607707Y-81787383D01*
X127822918Y-81837472D01*
X127972420Y-81871578D01*
X128040843Y-81886125D01*
X128043186Y-81886400D01*
X128092280Y-81916998D01*
X128189805Y-81994877D01*
X128253038Y-82049160D01*
X128365729Y-82144031D01*
X128430848Y-82177530D01*
X128475959Y-82156668D01*
X128509675Y-82114461D01*
X128582726Y-81975461D01*
X128658779Y-81766219D01*
X128731795Y-81513072D01*
X128795739Y-81242357D01*
X128844574Y-80980411D01*
X128872263Y-80753572D01*
X128872770Y-80588175D01*
X128866993Y-80555555D01*
X128830165Y-80455915D01*
X128763067Y-80348722D01*
X128656196Y-80224409D01*
X128500051Y-80073411D01*
X128285128Y-79886162D01*
X128001925Y-79653096D01*
X127846205Y-79527945D01*
X127409063Y-79166518D01*
X127052210Y-78843850D01*
X126766576Y-78550353D01*
X126543090Y-78276439D01*
X126372681Y-78012518D01*
X126321749Y-77916446D01*
X126153411Y-77518371D01*
X126059538Y-77155851D01*
X127258400Y-77155851D01*
X127277275Y-77218008D01*
X127325005Y-77341104D01*
X127388251Y-77493654D01*
X127453669Y-77644175D01*
X127507919Y-77761182D01*
X127536526Y-77812194D01*
X127589419Y-77809140D01*
X127714606Y-77786762D01*
X127885674Y-77749822D01*
X127896747Y-77747264D01*
X128242239Y-77667139D01*
X128665935Y-78082965D01*
X128597961Y-78371782D01*
X128560684Y-78542305D01*
X128535774Y-78679464D01*
X128529465Y-78736800D01*
X128571520Y-78785130D01*
X128679461Y-78857456D01*
X128825310Y-78938891D01*
X128981088Y-79014545D01*
X129118819Y-79069531D01*
X129188800Y-79087652D01*
X129225956Y-79049638D01*
X129299857Y-78946193D01*
X129395050Y-78799049D01*
X129402504Y-78787040D01*
X129590809Y-78482800D01*
X130198574Y-78482800D01*
X130387642Y-78789114D01*
X130484333Y-78937596D01*
X130562058Y-79042006D01*
X130605210Y-79081546D01*
X130606859Y-79081214D01*
X130666157Y-79056428D01*
X130792300Y-79005259D01*
X130954304Y-78940258D01*
X131114016Y-78869353D01*
X131227380Y-78805436D01*
X131269790Y-78762458D01*
X131257673Y-78688895D01*
X131228035Y-78549529D01*
X131194888Y-78406600D01*
X131121796Y-78101800D01*
X131339935Y-77883030D01*
X131558075Y-77664261D01*
X131899268Y-77749966D01*
X132070604Y-77789955D01*
X132197742Y-77813878D01*
X132254336Y-77816815D01*
X132254832Y-77816335D01*
X132281729Y-77761415D01*
X132333541Y-77644045D01*
X132397788Y-77493823D01*
X132461986Y-77340345D01*
X132513653Y-77213209D01*
X132540306Y-77142013D01*
X132541600Y-77136364D01*
X132501771Y-77102449D01*
X132396950Y-77030986D01*
X132249134Y-76936920D01*
X132236800Y-76929292D01*
X131932000Y-76741158D01*
X131932000Y-76147037D01*
X132224100Y-75957864D01*
X132372182Y-75862147D01*
X132482197Y-75791387D01*
X132530846Y-75760567D01*
X132531071Y-75760440D01*
X132520567Y-75713288D01*
X132479095Y-75596499D01*
X132415239Y-75434020D01*
X132405760Y-75410834D01*
X132265576Y-75069480D01*
X132086088Y-75100537D01*
X131839141Y-75142458D01*
X131669584Y-75164593D01*
X131554564Y-75163724D01*
X131471231Y-75136631D01*
X131396733Y-75080097D01*
X131308312Y-74990998D01*
X131116424Y-74792673D01*
X131196825Y-74445990D01*
X131231290Y-74269261D01*
X131245795Y-74132814D01*
X131237419Y-74064894D01*
X131236313Y-74063774D01*
X131153944Y-74015644D01*
X131017766Y-73956720D01*
X130859428Y-73898181D01*
X130710583Y-73851207D01*
X130602881Y-73826976D01*
X130570243Y-73828516D01*
X130521285Y-73884361D01*
X130439769Y-74001473D01*
X130353475Y-74138066D01*
X130183333Y-74418800D01*
X129892379Y-74418800D01*
X129601425Y-74418799D01*
X129411317Y-74110800D01*
X129311804Y-73954961D01*
X129231084Y-73864125D01*
X129143556Y-73832500D01*
X129023618Y-73854294D01*
X128845672Y-73923715D01*
X128755225Y-73962360D01*
X128615238Y-74026150D01*
X128548571Y-74079640D01*
X128534881Y-74151896D01*
X128550610Y-74254675D01*
X128595066Y-74504445D01*
X128616781Y-74677469D01*
X128613008Y-74796615D01*
X128580999Y-74884750D01*
X128518009Y-74964741D01*
X128458194Y-75024120D01*
X128277587Y-75197641D01*
X127915688Y-75132966D01*
X127733252Y-75106861D01*
X127591303Y-75098625D01*
X127517975Y-75109745D01*
X127515615Y-75111845D01*
X127475637Y-75181565D01*
X127419435Y-75306811D01*
X127358657Y-75457488D01*
X127304952Y-75603504D01*
X127269969Y-75714765D01*
X127264458Y-75760679D01*
X127314022Y-75794743D01*
X127425460Y-75867362D01*
X127574725Y-75962869D01*
X127575900Y-75963615D01*
X127868000Y-76149122D01*
X127868000Y-76730488D01*
X127563200Y-76921016D01*
X127412709Y-77020902D01*
X127303793Y-77104284D01*
X127258604Y-77154096D01*
X127258400Y-77155851D01*
X126059538Y-77155851D01*
X126048023Y-77111386D01*
X126000461Y-76667899D01*
X126003445Y-76202392D01*
X126051961Y-75691531D01*
X126151496Y-75240423D01*
X126312778Y-74815548D01*
X126546533Y-74383392D01*
X126626019Y-74257159D01*
X126992698Y-73781034D01*
X127428201Y-73371490D01*
X127920497Y-73033581D01*
X128457557Y-72772363D01*
X129027351Y-72592892D01*
X129617849Y-72500223D01*
X130217022Y-72499412D01*
X130661232Y-72561389D01*
G36*
X130306705Y-75186113D02*
X130600151Y-75304604D01*
X130805901Y-75449981D01*
X131010319Y-75705569D01*
X131148534Y-76014523D01*
X131214089Y-76349365D01*
X131200528Y-76682618D01*
X131144364Y-76890286D01*
X130979345Y-77193901D01*
X130746805Y-77442675D01*
X130464532Y-77628017D01*
X130150309Y-77741341D01*
X129821924Y-77774056D01*
X129497163Y-77717573D01*
X129458849Y-77704235D01*
X129147762Y-77541898D01*
X128887950Y-77311264D01*
X128709509Y-77046312D01*
X128594553Y-76705040D01*
X128571766Y-76358572D01*
X128635189Y-76023280D01*
X128778861Y-75715534D01*
X128996821Y-75451706D01*
X129283109Y-75248169D01*
X129381191Y-75201413D01*
X129664740Y-75128850D01*
X129984073Y-75125640D01*
X130306705Y-75186113D01*
X130306705Y-75186113D01*
G37*
X130306705Y-75186113D02*
X130600151Y-75304604D01*
X130805901Y-75449981D01*
X131010319Y-75705569D01*
X131148534Y-76014523D01*
X131214089Y-76349365D01*
X131200528Y-76682618D01*
X131144364Y-76890286D01*
X130979345Y-77193901D01*
X130746805Y-77442675D01*
X130464532Y-77628017D01*
X130150309Y-77741341D01*
X129821924Y-77774056D01*
X129497163Y-77717573D01*
X129458849Y-77704235D01*
X129147762Y-77541898D01*
X128887950Y-77311264D01*
X128709509Y-77046312D01*
X128594553Y-76705040D01*
X128571766Y-76358572D01*
X128635189Y-76023280D01*
X128778861Y-75715534D01*
X128996821Y-75451706D01*
X129283109Y-75248169D01*
X129381191Y-75201413D01*
X129664740Y-75128850D01*
X129984073Y-75125640D01*
X130306705Y-75186113D01*
D15*
X129875000Y-76400000D03*
D16*
X119050000Y-82270000D03*
X119050000Y-79730000D03*
D17*
X126900000Y-72800000D03*
X107000000Y-72799999D03*
X141000000Y-79305618D03*
X141000000Y-83000000D03*
X122100000Y-83600000D03*
X116600000Y-83600000D03*
X117400000Y-78400000D03*
X121300000Y-75300000D03*
X140200000Y-81600000D03*
X122000000Y-79600000D03*
X111600000Y-85400000D03*
X103800000Y-77000000D03*
X103000000Y-84200000D03*
X108800000Y-84000000D03*
X112200000Y-80600000D03*
X133500000Y-89000000D03*
X125000000Y-79000000D03*
X127700000Y-81200000D03*
X110700000Y-85400000D03*
X122000000Y-82400000D03*
X124250220Y-86553599D03*
X130400000Y-84500000D03*
X131700000Y-81800000D03*
X137600000Y-79600000D03*
X129000000Y-85900000D03*
X131300000Y-84500000D03*
X132300000Y-81200000D03*
X138400000Y-80500000D03*
X129700000Y-86500000D03*
X134800000Y-85600000D03*
X127700000Y-88700000D03*
X134800000Y-86400000D03*
X118800000Y-76600000D03*
X118800000Y-74000000D03*
X125249998Y-83300000D03*
X123500000Y-84200000D03*
D18*
X125000000Y-72799999D02*
X126899999Y-72799999D01*
X126899999Y-72799999D02*
X126900000Y-72800000D01*
X107000000Y-72799999D02*
X125000000Y-72799999D01*
X141000000Y-83000000D02*
X141000000Y-79305618D01*
X116600000Y-83600000D02*
X122100000Y-83600000D01*
X121000001Y-76699999D02*
X119300000Y-78400000D01*
X119300000Y-78400000D02*
X117400000Y-78400000D01*
X121300000Y-75300000D02*
X121000001Y-75599999D01*
X121000001Y-75599999D02*
X121000001Y-76699999D01*
X139375736Y-81200000D02*
X139000000Y-81200000D01*
X140200000Y-81600000D02*
X139775736Y-81600000D01*
X139775736Y-81600000D02*
X139375736Y-81200000D01*
D19*
X111600000Y-83500000D02*
X115370000Y-79730000D01*
X115370000Y-79730000D02*
X119050000Y-79730000D01*
X111600000Y-85400000D02*
X111600000Y-83500000D01*
X122000000Y-79600000D02*
X119180000Y-79600000D01*
X119180000Y-79600000D02*
X119050000Y-79730000D01*
X103000000Y-79200000D02*
X103000000Y-77800000D01*
X103000000Y-77800000D02*
X103800000Y-77000000D01*
X103000000Y-84200000D02*
X103000000Y-79200000D01*
X119000000Y-79680000D02*
X119050000Y-79730000D01*
X112200000Y-80600000D02*
X108800000Y-84000000D01*
X133000000Y-89500000D02*
X133500000Y-89000000D01*
X127700000Y-81200000D02*
X127200000Y-81200000D01*
X127200000Y-81200000D02*
X125000000Y-79000000D01*
X127100000Y-89992596D02*
X132507404Y-89992596D01*
X132507404Y-89992596D02*
X133000000Y-89500000D01*
X113392596Y-89992596D02*
X113600000Y-89992596D01*
X113600000Y-89992596D02*
X127100000Y-89992596D01*
X110000000Y-88200000D02*
X111792596Y-89992596D01*
X111792596Y-89992596D02*
X113600000Y-89992596D01*
X110000000Y-86100000D02*
X110000000Y-88200000D01*
X110700000Y-85400000D02*
X110000000Y-86100000D01*
X122000000Y-82400000D02*
X119180000Y-82400000D01*
X119180000Y-82400000D02*
X119050000Y-82270000D01*
X130400000Y-84500000D02*
X129500000Y-84500000D01*
X127300000Y-86700000D02*
X124396621Y-86700000D01*
X129500000Y-84500000D02*
X127300000Y-86700000D01*
X124396621Y-86700000D02*
X124250220Y-86553599D01*
X131700000Y-81375736D02*
X131700000Y-81800000D01*
X131700000Y-80911996D02*
X131700000Y-81375736D01*
X133011996Y-79600000D02*
X131700000Y-80911996D01*
X137600000Y-79600000D02*
X133011996Y-79600000D01*
X129299999Y-85600001D02*
X129000000Y-85900000D01*
X129700011Y-85199989D02*
X129299999Y-85600001D01*
X130600011Y-85199989D02*
X129700011Y-85199989D01*
X131300000Y-84500000D02*
X130600011Y-85199989D01*
X137975736Y-80500000D02*
X133000000Y-80500000D01*
X133000000Y-80500000D02*
X132300000Y-81200000D01*
X138400000Y-80500000D02*
X137975736Y-80500000D01*
X134800000Y-85600000D02*
X130600000Y-85600000D01*
X130600000Y-85600000D02*
X129700000Y-86500000D01*
X132600000Y-88600000D02*
X132500000Y-88700000D01*
X132500000Y-88700000D02*
X127700000Y-88700000D01*
X134800000Y-86400000D02*
X132600000Y-88600000D01*
X118800000Y-76600000D02*
X118800000Y-74000000D01*
X123500000Y-84200000D02*
X124400000Y-83300000D01*
X124400000Y-83300000D02*
X125249998Y-83300000D01*
M02*
