G04 #@! TF.FileFunction,Copper,L2,Bot,Signal*
%FSLAX46Y46*%
G04 Gerber Fmt 4.6, Leading zero omitted, Abs format (unit mm)*
G04 Created by KiCad (PCBNEW 4.0.7-e2-6376~58~ubuntu14.04.1) date Wed May 23 14:22:57 2018*
%MOMM*%
%LPD*%
G01*
G04 APERTURE LIST*
%ADD10C,0.100000*%
%ADD11R,1.000000X1.400000*%
%ADD12R,2.000000X1.000000*%
%ADD13C,3.000000*%
%ADD14R,1.600000X0.800000*%
%ADD15R,1.000000X1.200000*%
%ADD16R,1.200000X1.000000*%
%ADD17R,0.800000X0.500000*%
%ADD18R,0.500000X0.800000*%
%ADD19R,0.600000X1.200000*%
%ADD20R,0.300000X0.900000*%
%ADD21R,0.300000X1.200000*%
%ADD22R,0.900000X0.300000*%
%ADD23R,1.200000X0.300000*%
%ADD24R,1.700000X0.600000*%
%ADD25R,2.700000X1.000000*%
%ADD26R,1.200000X0.600000*%
%ADD27R,1.800000X1.250000*%
%ADD28R,0.800000X0.300000*%
%ADD29C,0.600000*%
%ADD30C,0.500000*%
%ADD31C,0.200000*%
%ADD32C,0.300000*%
G04 APERTURE END LIST*
D10*
D11*
X133850000Y-87750000D03*
X129650000Y-87750000D03*
D12*
X135250000Y-89900000D03*
X128250000Y-89900000D03*
D13*
X129875000Y-76400000D03*
D14*
X132575000Y-77200000D03*
X132575000Y-75600000D03*
X127175000Y-77200000D03*
X127175000Y-75600000D03*
D15*
X126875000Y-77400000D03*
X126875000Y-75400000D03*
X132875000Y-77400000D03*
X132875000Y-75400000D03*
D10*
G36*
X127325000Y-78000000D02*
X126775000Y-77600000D01*
X127975000Y-77600000D01*
X127425000Y-78000000D01*
X127325000Y-78000000D01*
X127325000Y-78000000D01*
G37*
G36*
X127425000Y-74800000D02*
X127975000Y-75200000D01*
X126775000Y-75200000D01*
X127325000Y-74800000D01*
X127425000Y-74800000D01*
X127425000Y-74800000D01*
G37*
G36*
X132325000Y-78000000D02*
X131775000Y-77600000D01*
X132975000Y-77600000D01*
X132425000Y-78000000D01*
X132325000Y-78000000D01*
X132325000Y-78000000D01*
G37*
G36*
X132425000Y-74800000D02*
X132975000Y-75200000D01*
X131775000Y-75200000D01*
X132325000Y-74800000D01*
X132425000Y-74800000D01*
X132425000Y-74800000D01*
G37*
G36*
X137222093Y-83431712D02*
X138424175Y-84633794D01*
X137999911Y-85058058D01*
X136797829Y-83855976D01*
X137222093Y-83431712D01*
X137222093Y-83431712D01*
G37*
G36*
X136338210Y-84315596D02*
X137540292Y-85517678D01*
X137116028Y-85941942D01*
X135913946Y-84739860D01*
X136338210Y-84315596D01*
X136338210Y-84315596D01*
G37*
G36*
X138105976Y-82547829D02*
X139308058Y-83749911D01*
X138883794Y-84174175D01*
X137681712Y-82972093D01*
X138105976Y-82547829D01*
X138105976Y-82547829D01*
G37*
G36*
X138989860Y-81663946D02*
X140191942Y-82866028D01*
X139767678Y-83290292D01*
X138565596Y-82088210D01*
X138989860Y-81663946D01*
X138989860Y-81663946D01*
G37*
G36*
X136921573Y-87338477D02*
X138830762Y-89247666D01*
X138123655Y-89954773D01*
X136214466Y-88045584D01*
X136921573Y-87338477D01*
X136921573Y-87338477D01*
G37*
G36*
X142295584Y-81964466D02*
X144204773Y-83873655D01*
X143497666Y-84580762D01*
X141588477Y-82671573D01*
X142295584Y-81964466D01*
X142295584Y-81964466D01*
G37*
D16*
X101500000Y-74000000D03*
X101500000Y-76000000D03*
D17*
X112600000Y-85400000D03*
X113800000Y-85400000D03*
D15*
X103000000Y-78000000D03*
X105000000Y-78000000D03*
D18*
X100500000Y-82300000D03*
X100500000Y-83500000D03*
D10*
G36*
X137681712Y-79027907D02*
X138883794Y-77825825D01*
X139308058Y-78250089D01*
X138105976Y-79452171D01*
X137681712Y-79027907D01*
X137681712Y-79027907D01*
G37*
G36*
X138565596Y-79911790D02*
X139767678Y-78709708D01*
X140191942Y-79133972D01*
X138989860Y-80336054D01*
X138565596Y-79911790D01*
X138565596Y-79911790D01*
G37*
G36*
X136797829Y-78144024D02*
X137999911Y-76941942D01*
X138424175Y-77366206D01*
X137222093Y-78568288D01*
X136797829Y-78144024D01*
X136797829Y-78144024D01*
G37*
G36*
X135913946Y-77260140D02*
X137116028Y-76058058D01*
X137540292Y-76482322D01*
X136338210Y-77684404D01*
X135913946Y-77260140D01*
X135913946Y-77260140D01*
G37*
G36*
X141588477Y-79328427D02*
X143497666Y-77419238D01*
X144204773Y-78126345D01*
X142295584Y-80035534D01*
X141588477Y-79328427D01*
X141588477Y-79328427D01*
G37*
G36*
X136214466Y-73954416D02*
X138123655Y-72045227D01*
X138830762Y-72752334D01*
X136921573Y-74661523D01*
X136214466Y-73954416D01*
X136214466Y-73954416D01*
G37*
D17*
X124700000Y-72800000D03*
X123500000Y-72800000D03*
X128800000Y-80000000D03*
X127600000Y-80000000D03*
X132200000Y-80000000D03*
X131000000Y-80000000D03*
D19*
X104000000Y-73850000D03*
X103050000Y-73850000D03*
X104950000Y-73850000D03*
X104950000Y-76150000D03*
X103050000Y-76150000D03*
D17*
X113800000Y-76600000D03*
X112600000Y-76600000D03*
D18*
X119400000Y-81600000D03*
X119400000Y-80400000D03*
D20*
X111700000Y-78600000D03*
D21*
X112200000Y-78750000D03*
X112700000Y-78750000D03*
X113200000Y-78750000D03*
X113700000Y-78750000D03*
X114200000Y-78750000D03*
D20*
X114700000Y-78600000D03*
D22*
X115600000Y-79500000D03*
D23*
X115450000Y-80000000D03*
X115450000Y-80500000D03*
X115450000Y-81000000D03*
X115450000Y-81500000D03*
X115450000Y-82000000D03*
D22*
X115600000Y-82500000D03*
D20*
X114700000Y-83400000D03*
D21*
X114200000Y-83250000D03*
X113700000Y-83250000D03*
X113200000Y-83250000D03*
X112700000Y-83250000D03*
X112200000Y-83250000D03*
D20*
X111700000Y-83400000D03*
D22*
X110800000Y-82500000D03*
D23*
X110950000Y-82000000D03*
X110950000Y-81500000D03*
X110950000Y-81000000D03*
X110950000Y-80500000D03*
X110950000Y-80000000D03*
D22*
X110800000Y-79500000D03*
D10*
G36*
X111850000Y-78600000D02*
X111850000Y-79400000D01*
X111550000Y-79100000D01*
X111550000Y-78900000D01*
X111850000Y-78600000D01*
X111850000Y-78600000D01*
G37*
G36*
X111600000Y-79650000D02*
X110800000Y-79650000D01*
X111100000Y-79350000D01*
X111300000Y-79350000D01*
X111600000Y-79650000D01*
X111600000Y-79650000D01*
G37*
G36*
X114800000Y-82350000D02*
X115600000Y-82350000D01*
X115300000Y-82650000D01*
X115100000Y-82650000D01*
X114800000Y-82350000D01*
X114800000Y-82350000D01*
G37*
G36*
X114550000Y-83400000D02*
X114550000Y-82600000D01*
X114850000Y-82900000D01*
X114850000Y-83100000D01*
X114550000Y-83400000D01*
X114550000Y-83400000D01*
G37*
G36*
X114550000Y-79400000D02*
X114550000Y-78600000D01*
X114850000Y-78900000D01*
X114850000Y-79100000D01*
X114550000Y-79400000D01*
X114550000Y-79400000D01*
G37*
G36*
X115600000Y-79650000D02*
X114800000Y-79650000D01*
X115100000Y-79350000D01*
X115300000Y-79350000D01*
X115600000Y-79650000D01*
X115600000Y-79650000D01*
G37*
G36*
X111850000Y-82600000D02*
X111850000Y-83400000D01*
X111550000Y-83100000D01*
X111550000Y-82900000D01*
X111850000Y-82600000D01*
X111850000Y-82600000D01*
G37*
G36*
X110800000Y-82350000D02*
X111600000Y-82350000D01*
X111300000Y-82650000D01*
X111100000Y-82650000D01*
X110800000Y-82350000D01*
X110800000Y-82350000D01*
G37*
D24*
X96600000Y-81000000D03*
X96600000Y-79750000D03*
X96600000Y-82250000D03*
X96600000Y-83500000D03*
D25*
X93550000Y-76500000D03*
X93550000Y-85500000D03*
D24*
X96600000Y-78500000D03*
D26*
X121150000Y-74000000D03*
X118850000Y-74950000D03*
X118850000Y-73050000D03*
X123650000Y-77500000D03*
X121350000Y-78450000D03*
X121350000Y-76550000D03*
X128650000Y-84500000D03*
X126350000Y-85450000D03*
X126350000Y-83550000D03*
D17*
X117100000Y-75000000D03*
X115900000Y-75000000D03*
X117100000Y-74000000D03*
X115900000Y-74000000D03*
X117100000Y-76000000D03*
X115900000Y-76000000D03*
D27*
X111900000Y-87000000D03*
X114500000Y-87000000D03*
D28*
X126000000Y-80350000D03*
X126000000Y-81000000D03*
X126000000Y-81650000D03*
X124000000Y-81650000D03*
X124000000Y-80350000D03*
D29*
X126900000Y-72800000D03*
X107000000Y-72799999D03*
X141000000Y-79305618D03*
X141000000Y-83000000D03*
X122100000Y-83600000D03*
X116600000Y-83600000D03*
X117400000Y-78400000D03*
X121300000Y-75300000D03*
X140200000Y-81600000D03*
X122000000Y-79600000D03*
X111600000Y-85400000D03*
X103800000Y-77000000D03*
X103000000Y-84200000D03*
X108800000Y-84000000D03*
X112200000Y-80600000D03*
X133500000Y-89000000D03*
X125000000Y-79000000D03*
X127700000Y-81200000D03*
X110700000Y-85400000D03*
X122000000Y-82400000D03*
X124250220Y-86553599D03*
X130400000Y-84500000D03*
X131700000Y-81800000D03*
X137600000Y-79600000D03*
X129000000Y-85900000D03*
X131300000Y-84500000D03*
X132300000Y-81200000D03*
X138400000Y-80500000D03*
X129700000Y-86500000D03*
X134800000Y-85600000D03*
X127700000Y-88700000D03*
X134800000Y-86400000D03*
X118800000Y-76600000D03*
X118800000Y-74000000D03*
X125249998Y-83300000D03*
X123500000Y-84200000D03*
D30*
X96600000Y-78500000D02*
X96600000Y-77700000D01*
X96600000Y-77700000D02*
X100300000Y-74000000D01*
X100300000Y-74000000D02*
X100400000Y-74000000D01*
X100400000Y-74000000D02*
X101500000Y-74000000D01*
X126900000Y-72800000D02*
X127324265Y-72799999D01*
X127324265Y-72799999D02*
X131374999Y-72799999D01*
X131374999Y-72799999D02*
X132875000Y-74300000D01*
X132875000Y-74300000D02*
X132875000Y-75400000D01*
X104660001Y-72799999D02*
X107000000Y-72799999D01*
X137094382Y-75400000D02*
X137694382Y-76000000D01*
X137694382Y-76000000D02*
X138282753Y-76588371D01*
X141000000Y-79305618D02*
X137694382Y-76000000D01*
X139661629Y-84032753D02*
X139967247Y-84032753D01*
X139967247Y-84032753D02*
X141000000Y-83000000D01*
X139661629Y-84032753D02*
X139166636Y-84032753D01*
X139166636Y-84032753D02*
X138494885Y-83361002D01*
X132875000Y-75400000D02*
X137094382Y-75400000D01*
X138282753Y-76588371D02*
X138282753Y-77083364D01*
X138282753Y-77083364D02*
X137611002Y-77755115D01*
X103050000Y-73850000D02*
X103050000Y-73089998D01*
X103050000Y-73089998D02*
X103339999Y-72799999D01*
X103339999Y-72799999D02*
X104660001Y-72799999D01*
X104950000Y-73089998D02*
X104950000Y-73850000D01*
X104660001Y-72799999D02*
X104950000Y-73089998D01*
X101500000Y-74000000D02*
X102900000Y-74000000D01*
X102900000Y-74000000D02*
X103050000Y-73850000D01*
X116600000Y-86300000D02*
X116600000Y-83600000D01*
X114500000Y-87000000D02*
X115900000Y-87000000D01*
X115900000Y-87000000D02*
X116600000Y-86300000D01*
X121350000Y-76550000D02*
X121350000Y-75350000D01*
X121350000Y-75350000D02*
X121300000Y-75300000D01*
X139378769Y-82477119D02*
X139378769Y-82421231D01*
X139378769Y-82421231D02*
X140200000Y-81600000D01*
D31*
X113800000Y-85200000D02*
X113800000Y-84750000D01*
X113800000Y-84750000D02*
X114200000Y-84350000D01*
X114200000Y-84350000D02*
X114200000Y-84050000D01*
X114200000Y-84050000D02*
X114200000Y-83250000D01*
X97200000Y-83400000D02*
X97100000Y-83500000D01*
X124000000Y-80350000D02*
X122750000Y-80350000D01*
X122750000Y-80350000D02*
X122000000Y-79600000D01*
X111600000Y-85400000D02*
X112600000Y-85400000D01*
D30*
X103000000Y-78000000D02*
X103000000Y-77000000D01*
X103000000Y-77000000D02*
X103000000Y-76200000D01*
D31*
X103800000Y-77000000D02*
X103000000Y-77000000D01*
D30*
X103000000Y-76200000D02*
X103050000Y-76150000D01*
D31*
X111700000Y-87000000D02*
X105800000Y-87000000D01*
X105800000Y-87000000D02*
X103000000Y-84200000D01*
X112600000Y-85200000D02*
X112600000Y-86100000D01*
X112600000Y-86100000D02*
X111700000Y-87000000D01*
X112600000Y-85200000D02*
X113700000Y-84100000D01*
X113700000Y-84100000D02*
X113700000Y-83250000D01*
X113700000Y-83250000D02*
X113700000Y-82450000D01*
X113700000Y-82450000D02*
X113700000Y-78750000D01*
X108800000Y-84000000D02*
X104000000Y-84000000D01*
X104000000Y-84000000D02*
X102300000Y-82300000D01*
X102300000Y-82300000D02*
X100500000Y-82300000D01*
X100500000Y-82300000D02*
X99900000Y-82300000D01*
X97150000Y-82250000D02*
X96600000Y-82250000D01*
X99900000Y-82300000D02*
X99400000Y-82800000D01*
X99400000Y-82800000D02*
X97700000Y-82800000D01*
X97700000Y-82800000D02*
X97150000Y-82250000D01*
X112200000Y-80600000D02*
X113200000Y-79600000D01*
X113200000Y-79600000D02*
X113200000Y-78750000D01*
X112200000Y-80500000D02*
X112200000Y-80600000D01*
X132200000Y-80000000D02*
X132200000Y-77575000D01*
X132200000Y-77575000D02*
X132575000Y-77200000D01*
X128800000Y-80000000D02*
X128800000Y-78625000D01*
X127575000Y-77400000D02*
X126875000Y-77400000D01*
X128800000Y-78625000D02*
X127575000Y-77400000D01*
X124700000Y-72800000D02*
X125300000Y-72800000D01*
X126875000Y-74600000D02*
X126875000Y-75400000D01*
X125300000Y-72800000D02*
X126875000Y-74375000D01*
X126875000Y-74375000D02*
X126875000Y-74600000D01*
X126650000Y-75400000D02*
X126875000Y-75400000D01*
X126450000Y-75400000D02*
X126875000Y-75400000D01*
X114900012Y-78399988D02*
X114700000Y-78600000D01*
X114900012Y-75849988D02*
X114900012Y-78399988D01*
X115750000Y-75000000D02*
X114900012Y-75849988D01*
X115900000Y-75000000D02*
X115750000Y-75000000D01*
X114700000Y-78600000D02*
X114700000Y-78300000D01*
X115900000Y-76000000D02*
X115900000Y-79200000D01*
X115900000Y-79200000D02*
X115600000Y-79500000D01*
X115900000Y-74000000D02*
X115750000Y-74000000D01*
X114500001Y-75249999D02*
X114500001Y-77649999D01*
X115750000Y-74000000D02*
X114500001Y-75249999D01*
X114500001Y-77649999D02*
X114200000Y-77950000D01*
X114200000Y-77950000D02*
X114200000Y-78750000D01*
X133500000Y-89000000D02*
X130700000Y-89000000D01*
X130700000Y-89000000D02*
X129650000Y-87950000D01*
X129650000Y-87950000D02*
X129650000Y-87750000D01*
X126000000Y-79575736D02*
X126000000Y-80350000D01*
X125000000Y-79000000D02*
X125424264Y-79000000D01*
X125424264Y-79000000D02*
X126000000Y-79575736D01*
X127700000Y-84990002D02*
X127700000Y-81200000D01*
X129650000Y-87750000D02*
X130350000Y-87750000D01*
X129600000Y-85100000D02*
X127809998Y-85100000D01*
X130350000Y-87750000D02*
X130700000Y-87400000D01*
X130700000Y-87400000D02*
X130700000Y-86200000D01*
X130700000Y-86200000D02*
X129600000Y-85100000D01*
X127809998Y-85100000D02*
X127700000Y-84990002D01*
X129650000Y-87750000D02*
X129650000Y-87550000D01*
X111200000Y-84200000D02*
X110700000Y-84700000D01*
X110700000Y-84700000D02*
X110700000Y-85400000D01*
X112050000Y-84200000D02*
X111200000Y-84200000D01*
X112200000Y-84050000D02*
X112050000Y-84200000D01*
X112200000Y-83250000D02*
X112200000Y-84050000D01*
X112600000Y-76600000D02*
X112600000Y-77050000D01*
X112600000Y-77050000D02*
X111700000Y-77950000D01*
X111700000Y-77950000D02*
X111700000Y-78600000D01*
X116100000Y-80000000D02*
X115450000Y-80000000D01*
X116250000Y-80000000D02*
X116100000Y-80000000D01*
X116100000Y-80000000D02*
X117350000Y-80000000D01*
X117350000Y-80000000D02*
X118950000Y-81600000D01*
X118950000Y-81600000D02*
X119400000Y-81600000D01*
X122000000Y-81650000D02*
X119466386Y-81650000D01*
X119466386Y-81650000D02*
X119416386Y-81600000D01*
X119416386Y-81600000D02*
X119400000Y-81600000D01*
X124000000Y-81650000D02*
X122000000Y-81650000D01*
X122000000Y-81650000D02*
X122000000Y-82400000D01*
X123825956Y-86553599D02*
X124250220Y-86553599D01*
X123163597Y-86553599D02*
X123825956Y-86553599D01*
X115450000Y-80500000D02*
X117109998Y-80500000D01*
X117109998Y-80500000D02*
X123163597Y-86553599D01*
X131700000Y-82924264D02*
X131700000Y-82800000D01*
X131700000Y-82800000D02*
X131700000Y-82700000D01*
X131700000Y-83200000D02*
X131700000Y-82800000D01*
X130400000Y-84500000D02*
X131700000Y-83200000D01*
X131700000Y-82700000D02*
X131700000Y-81800000D01*
X138494885Y-78638998D02*
X138494885Y-78705115D01*
X138494885Y-78705115D02*
X137600000Y-79600000D01*
X123300000Y-87300000D02*
X117000000Y-81000000D01*
X117000000Y-81000000D02*
X115450000Y-81000000D01*
X127600000Y-87300000D02*
X123300000Y-87300000D01*
X129000000Y-85900000D02*
X127600000Y-87300000D01*
X132300000Y-81624264D02*
X132300000Y-83500000D01*
X132300000Y-83500000D02*
X131300000Y-84500000D01*
X132300000Y-81200000D02*
X132300000Y-81624264D01*
X139378769Y-79522881D02*
X139377119Y-79522881D01*
X139377119Y-79522881D02*
X138400000Y-80500000D01*
X139277119Y-79522881D02*
X139378769Y-79522881D01*
X123100000Y-87700000D02*
X116900000Y-81500000D01*
X116900000Y-81500000D02*
X115450000Y-81500000D01*
X127959998Y-87700000D02*
X123100000Y-87700000D01*
X129700000Y-86500000D02*
X129159998Y-86500000D01*
X129159998Y-86500000D02*
X127959998Y-87700000D01*
X136939251Y-83573134D02*
X136402602Y-83573134D01*
X136402602Y-83573134D02*
X134800000Y-85175736D01*
X134800000Y-85175736D02*
X134800000Y-85600000D01*
X137611002Y-84244885D02*
X136939251Y-83573134D01*
X122900000Y-88100000D02*
X116800000Y-82000000D01*
X116800000Y-82000000D02*
X115450000Y-82000000D01*
X127524264Y-88100000D02*
X122900000Y-88100000D01*
X127700000Y-88700000D02*
X127700000Y-88275736D01*
X127700000Y-88275736D02*
X127524264Y-88100000D01*
X136727119Y-85128769D02*
X135455888Y-86400000D01*
X135455888Y-86400000D02*
X134800000Y-86400000D01*
X107300000Y-81600000D02*
X108700000Y-83000000D01*
X108700000Y-83000000D02*
X111700000Y-83000000D01*
X97750000Y-81600000D02*
X107300000Y-81600000D01*
X96600000Y-81000000D02*
X97150000Y-81000000D01*
X97150000Y-81000000D02*
X97750000Y-81600000D01*
X106600000Y-80200000D02*
X108900000Y-82500000D01*
X108900000Y-82500000D02*
X111200000Y-82500000D01*
X98100000Y-80200000D02*
X106600000Y-80200000D01*
X96600000Y-79750000D02*
X97650000Y-79750000D01*
X97650000Y-79750000D02*
X98100000Y-80200000D01*
X121150000Y-74000000D02*
X122750000Y-74000000D01*
X122750000Y-74000000D02*
X123500000Y-73250000D01*
X123500000Y-73250000D02*
X123500000Y-72800000D01*
X117100000Y-75000000D02*
X118800000Y-75000000D01*
X118800000Y-75000000D02*
X118850000Y-74950000D01*
X127600000Y-80000000D02*
X127450000Y-80000000D01*
X127450000Y-80000000D02*
X124950000Y-77500000D01*
X124950000Y-77500000D02*
X124450000Y-77500000D01*
X124450000Y-77500000D02*
X123650000Y-77500000D01*
X123650000Y-77500000D02*
X123950000Y-77500000D01*
X121350000Y-78450000D02*
X121050000Y-78450000D01*
X121050000Y-78450000D02*
X119200000Y-76600000D01*
X119200000Y-76600000D02*
X118800000Y-76600000D01*
X118800000Y-74000000D02*
X117100000Y-74000000D01*
X128650000Y-84500000D02*
X129450000Y-84500000D01*
X129450000Y-84500000D02*
X131000000Y-82950000D01*
X131000000Y-82950000D02*
X131000000Y-80450000D01*
X131000000Y-80450000D02*
X131000000Y-80000000D01*
X124400000Y-81000000D02*
X125000000Y-81600000D01*
X125249998Y-83300000D02*
X125249998Y-81849998D01*
X125249998Y-81849998D02*
X125000000Y-81600000D01*
X126350000Y-85450000D02*
X124750000Y-85450000D01*
X124750000Y-85450000D02*
X123500000Y-84200000D01*
X121650000Y-81000000D02*
X124400000Y-81000000D01*
X117100000Y-76000000D02*
X117100000Y-76450000D01*
X117100000Y-76450000D02*
X121650000Y-81000000D01*
X126250000Y-81650000D02*
X126000000Y-81650000D01*
D32*
G36*
X137679111Y-71994796D02*
X137018800Y-72655107D01*
X137018800Y-72778851D01*
X137522614Y-73282664D01*
X137536756Y-73268522D01*
X137607467Y-73339233D01*
X137593325Y-73353375D01*
X138097138Y-73857189D01*
X138220882Y-73857189D01*
X138881193Y-73196878D01*
X143053122Y-77368807D01*
X142392811Y-78029118D01*
X142392811Y-78152862D01*
X142896625Y-78656675D01*
X142910767Y-78642533D01*
X142981478Y-78713244D01*
X142967336Y-78727386D01*
X143471149Y-79231200D01*
X143594893Y-79231200D01*
X144100000Y-78726093D01*
X144100000Y-83273907D01*
X143594893Y-82768800D01*
X143471149Y-82768800D01*
X142967336Y-83272614D01*
X142981478Y-83286756D01*
X142910767Y-83357467D01*
X142896625Y-83343325D01*
X142392811Y-83847138D01*
X142392811Y-83970882D01*
X143053122Y-84631193D01*
X138881193Y-88803122D01*
X138220882Y-88142811D01*
X138097138Y-88142811D01*
X137593325Y-88646625D01*
X137607467Y-88660767D01*
X137536756Y-88731478D01*
X137522614Y-88717336D01*
X137018800Y-89221149D01*
X137018800Y-89344893D01*
X137679111Y-90005204D01*
X137584314Y-90100000D01*
X136600000Y-90100000D01*
X136600000Y-90037500D01*
X136512500Y-89950000D01*
X135300000Y-89950000D01*
X135300000Y-89970000D01*
X135200000Y-89970000D01*
X135200000Y-89950000D01*
X133987500Y-89950000D01*
X133900000Y-90037500D01*
X133900000Y-90100000D01*
X129600000Y-90100000D01*
X129600000Y-90037500D01*
X129512500Y-89950000D01*
X128300000Y-89950000D01*
X128300000Y-89970000D01*
X128200000Y-89970000D01*
X128200000Y-89950000D01*
X126987500Y-89950000D01*
X126900000Y-90037500D01*
X126900000Y-90100000D01*
X100019564Y-90100000D01*
X98232842Y-89924810D01*
X96532990Y-89411595D01*
X94965199Y-88577986D01*
X93589179Y-87455731D01*
X92674438Y-86350000D01*
X93412500Y-86350000D01*
X93500000Y-86262500D01*
X93500000Y-85550000D01*
X93600000Y-85550000D01*
X93600000Y-86262500D01*
X93687500Y-86350000D01*
X94934472Y-86350000D01*
X95002091Y-86336550D01*
X95065787Y-86310166D01*
X95123112Y-86271863D01*
X95171863Y-86223112D01*
X95210166Y-86165787D01*
X95236550Y-86102091D01*
X95250000Y-86034472D01*
X95250000Y-85637500D01*
X95162500Y-85550000D01*
X93600000Y-85550000D01*
X93500000Y-85550000D01*
X93480000Y-85550000D01*
X93480000Y-85450000D01*
X93500000Y-85450000D01*
X93500000Y-84737500D01*
X93600000Y-84737500D01*
X93600000Y-85450000D01*
X95162500Y-85450000D01*
X95250000Y-85362500D01*
X95250000Y-84965528D01*
X95236550Y-84897909D01*
X95210166Y-84834213D01*
X95171863Y-84776888D01*
X95123112Y-84728137D01*
X95065787Y-84689834D01*
X95002091Y-84663450D01*
X94934472Y-84650000D01*
X93687500Y-84650000D01*
X93600000Y-84737500D01*
X93500000Y-84737500D01*
X93412500Y-84650000D01*
X92165528Y-84650000D01*
X92097909Y-84663450D01*
X92034213Y-84689834D01*
X91976888Y-84728137D01*
X91928137Y-84776888D01*
X91889834Y-84834213D01*
X91863450Y-84897909D01*
X91850176Y-84964642D01*
X91612813Y-84525648D01*
X91337886Y-83637500D01*
X95400000Y-83637500D01*
X95400000Y-83834472D01*
X95413450Y-83902091D01*
X95439834Y-83965787D01*
X95478137Y-84023112D01*
X95526888Y-84071863D01*
X95584213Y-84110166D01*
X95647909Y-84136550D01*
X95715528Y-84150000D01*
X96462500Y-84150000D01*
X96550000Y-84062500D01*
X96550000Y-83550000D01*
X96650000Y-83550000D01*
X96650000Y-84062500D01*
X96737500Y-84150000D01*
X97484472Y-84150000D01*
X97552091Y-84136550D01*
X97615787Y-84110166D01*
X97673112Y-84071863D01*
X97721863Y-84023112D01*
X97760166Y-83965787D01*
X97786550Y-83902091D01*
X97800000Y-83834472D01*
X97800000Y-83637500D01*
X99900000Y-83637500D01*
X99900000Y-83934472D01*
X99913450Y-84002091D01*
X99939834Y-84065787D01*
X99978137Y-84123112D01*
X100026888Y-84171863D01*
X100084213Y-84210166D01*
X100147909Y-84236550D01*
X100215528Y-84250000D01*
X100362500Y-84250000D01*
X100450000Y-84162500D01*
X100450000Y-83550000D01*
X100550000Y-83550000D01*
X100550000Y-84162500D01*
X100637500Y-84250000D01*
X100784472Y-84250000D01*
X100852091Y-84236550D01*
X100915787Y-84210166D01*
X100973112Y-84171863D01*
X101021863Y-84123112D01*
X101060166Y-84065787D01*
X101086550Y-84002091D01*
X101100000Y-83934472D01*
X101100000Y-83637500D01*
X101012500Y-83550000D01*
X100550000Y-83550000D01*
X100450000Y-83550000D01*
X99987500Y-83550000D01*
X99900000Y-83637500D01*
X97800000Y-83637500D01*
X97712500Y-83550000D01*
X96650000Y-83550000D01*
X96550000Y-83550000D01*
X95487500Y-83550000D01*
X95400000Y-83637500D01*
X91337886Y-83637500D01*
X91087745Y-82829426D01*
X90902141Y-81063516D01*
X91063070Y-79295190D01*
X91385401Y-78200000D01*
X95398307Y-78200000D01*
X95398307Y-78800000D01*
X95402752Y-78855736D01*
X95432027Y-78950271D01*
X95486480Y-79032906D01*
X95561800Y-79097100D01*
X95623175Y-79124766D01*
X95599729Y-79132027D01*
X95517094Y-79186480D01*
X95452900Y-79261800D01*
X95412231Y-79352021D01*
X95398307Y-79450000D01*
X95398307Y-80050000D01*
X95402752Y-80105736D01*
X95432027Y-80200271D01*
X95486480Y-80282906D01*
X95561800Y-80347100D01*
X95623175Y-80374766D01*
X95599729Y-80382027D01*
X95517094Y-80436480D01*
X95452900Y-80511800D01*
X95412231Y-80602021D01*
X95398307Y-80700000D01*
X95398307Y-81300000D01*
X95402752Y-81355736D01*
X95432027Y-81450271D01*
X95486480Y-81532906D01*
X95561800Y-81597100D01*
X95623175Y-81624766D01*
X95599729Y-81632027D01*
X95517094Y-81686480D01*
X95452900Y-81761800D01*
X95412231Y-81852021D01*
X95398307Y-81950000D01*
X95398307Y-82550000D01*
X95402752Y-82605736D01*
X95432027Y-82700271D01*
X95486480Y-82782906D01*
X95561800Y-82847100D01*
X95621937Y-82874208D01*
X95584213Y-82889834D01*
X95526888Y-82928137D01*
X95478137Y-82976888D01*
X95439834Y-83034213D01*
X95413450Y-83097909D01*
X95400000Y-83165528D01*
X95400000Y-83362500D01*
X95487500Y-83450000D01*
X96550000Y-83450000D01*
X96550000Y-83430000D01*
X96650000Y-83430000D01*
X96650000Y-83450000D01*
X97712500Y-83450000D01*
X97800000Y-83362500D01*
X97800000Y-83250000D01*
X99400000Y-83250000D01*
X99441339Y-83245947D01*
X99482778Y-83242321D01*
X99485050Y-83241661D01*
X99487405Y-83241430D01*
X99527204Y-83229414D01*
X99567115Y-83217819D01*
X99569215Y-83216730D01*
X99571482Y-83216046D01*
X99608251Y-83196495D01*
X99645087Y-83177401D01*
X99646931Y-83175929D01*
X99649026Y-83174815D01*
X99681276Y-83148512D01*
X99713724Y-83122610D01*
X99717018Y-83119362D01*
X99717085Y-83119307D01*
X99717136Y-83119245D01*
X99718198Y-83118198D01*
X99953515Y-82882881D01*
X99963753Y-82898416D01*
X99939834Y-82934213D01*
X99913450Y-82997909D01*
X99900000Y-83065528D01*
X99900000Y-83362500D01*
X99987500Y-83450000D01*
X100450000Y-83450000D01*
X100450000Y-83430000D01*
X100550000Y-83430000D01*
X100550000Y-83450000D01*
X101012500Y-83450000D01*
X101100000Y-83362500D01*
X101100000Y-83065528D01*
X101086550Y-82997909D01*
X101060166Y-82934213D01*
X101037190Y-82899827D01*
X101047100Y-82888200D01*
X101087769Y-82797979D01*
X101094587Y-82750000D01*
X102113604Y-82750000D01*
X102917578Y-83553974D01*
X102815590Y-83573429D01*
X102697401Y-83621181D01*
X102590737Y-83690979D01*
X102499662Y-83780166D01*
X102427645Y-83885345D01*
X102377428Y-84002509D01*
X102350925Y-84127195D01*
X102349146Y-84254654D01*
X102372157Y-84380031D01*
X102419082Y-84498551D01*
X102488135Y-84605700D01*
X102576684Y-84697395D01*
X102681357Y-84770145D01*
X102798167Y-84821178D01*
X102922665Y-84848550D01*
X103014069Y-84850465D01*
X105481802Y-87318198D01*
X105513905Y-87344568D01*
X105545765Y-87371301D01*
X105547838Y-87372441D01*
X105549667Y-87373943D01*
X105586314Y-87393593D01*
X105622726Y-87413611D01*
X105624980Y-87414326D01*
X105627067Y-87415445D01*
X105666857Y-87427610D01*
X105706440Y-87440166D01*
X105708789Y-87440429D01*
X105711054Y-87441122D01*
X105752424Y-87445324D01*
X105793717Y-87449956D01*
X105798344Y-87449988D01*
X105798429Y-87449997D01*
X105798508Y-87449990D01*
X105800000Y-87450000D01*
X110648307Y-87450000D01*
X110648307Y-87625000D01*
X110652752Y-87680736D01*
X110682027Y-87775271D01*
X110736480Y-87857906D01*
X110811800Y-87922100D01*
X110902021Y-87962769D01*
X111000000Y-87976693D01*
X112800000Y-87976693D01*
X112855736Y-87972248D01*
X112950271Y-87942973D01*
X113032906Y-87888520D01*
X113097100Y-87813200D01*
X113137769Y-87722979D01*
X113151693Y-87625000D01*
X113151693Y-87137500D01*
X113250000Y-87137500D01*
X113250000Y-87659472D01*
X113263450Y-87727091D01*
X113289834Y-87790787D01*
X113328137Y-87848112D01*
X113376888Y-87896863D01*
X113434213Y-87935166D01*
X113497909Y-87961550D01*
X113565528Y-87975000D01*
X114362500Y-87975000D01*
X114450000Y-87887500D01*
X114450000Y-87050000D01*
X114550000Y-87050000D01*
X114550000Y-87887500D01*
X114637500Y-87975000D01*
X115434472Y-87975000D01*
X115502091Y-87961550D01*
X115565787Y-87935166D01*
X115623112Y-87896863D01*
X115671863Y-87848112D01*
X115710166Y-87790787D01*
X115736550Y-87727091D01*
X115750000Y-87659472D01*
X115750000Y-87137500D01*
X115662500Y-87050000D01*
X114550000Y-87050000D01*
X114450000Y-87050000D01*
X113337500Y-87050000D01*
X113250000Y-87137500D01*
X113151693Y-87137500D01*
X113151693Y-86375000D01*
X113148944Y-86340528D01*
X113250000Y-86340528D01*
X113250000Y-86862500D01*
X113337500Y-86950000D01*
X114450000Y-86950000D01*
X114450000Y-86112500D01*
X114550000Y-86112500D01*
X114550000Y-86950000D01*
X115662500Y-86950000D01*
X115750000Y-86862500D01*
X115750000Y-86340528D01*
X115736550Y-86272909D01*
X115710166Y-86209213D01*
X115671863Y-86151888D01*
X115623112Y-86103137D01*
X115565787Y-86064834D01*
X115502091Y-86038450D01*
X115434472Y-86025000D01*
X114637500Y-86025000D01*
X114550000Y-86112500D01*
X114450000Y-86112500D01*
X114362500Y-86025000D01*
X113565528Y-86025000D01*
X113497909Y-86038450D01*
X113434213Y-86064834D01*
X113376888Y-86103137D01*
X113328137Y-86151888D01*
X113289834Y-86209213D01*
X113263450Y-86272909D01*
X113250000Y-86340528D01*
X113148944Y-86340528D01*
X113147248Y-86319264D01*
X113117973Y-86224729D01*
X113063520Y-86142094D01*
X113047473Y-86128418D01*
X113049956Y-86106283D01*
X113049988Y-86101656D01*
X113049997Y-86101571D01*
X113049990Y-86101492D01*
X113050000Y-86100000D01*
X113050000Y-85997705D01*
X113055736Y-85997248D01*
X113150271Y-85967973D01*
X113198416Y-85936247D01*
X113234213Y-85960166D01*
X113297909Y-85986550D01*
X113365528Y-86000000D01*
X113662500Y-86000000D01*
X113750000Y-85912500D01*
X113750000Y-85450000D01*
X113850000Y-85450000D01*
X113850000Y-85912500D01*
X113937500Y-86000000D01*
X114234472Y-86000000D01*
X114302091Y-85986550D01*
X114365787Y-85960166D01*
X114423112Y-85921863D01*
X114471863Y-85873112D01*
X114510166Y-85815787D01*
X114536550Y-85752091D01*
X114550000Y-85684472D01*
X114550000Y-85537500D01*
X114462500Y-85450000D01*
X113850000Y-85450000D01*
X113750000Y-85450000D01*
X113730000Y-85450000D01*
X113730000Y-85350000D01*
X113750000Y-85350000D01*
X113750000Y-84887500D01*
X113850000Y-84887500D01*
X113850000Y-85350000D01*
X114462500Y-85350000D01*
X114550000Y-85262500D01*
X114550000Y-85115528D01*
X114536550Y-85047909D01*
X114510166Y-84984213D01*
X114471863Y-84926888D01*
X114423112Y-84878137D01*
X114365787Y-84839834D01*
X114302091Y-84813450D01*
X114234472Y-84800000D01*
X113937500Y-84800000D01*
X113850000Y-84887500D01*
X113750000Y-84887500D01*
X113662500Y-84800000D01*
X113636396Y-84800000D01*
X114018198Y-84418198D01*
X114044568Y-84386095D01*
X114071301Y-84354235D01*
X114072441Y-84352162D01*
X114073943Y-84350333D01*
X114093593Y-84313686D01*
X114113611Y-84277274D01*
X114114326Y-84275020D01*
X114115445Y-84272933D01*
X114127610Y-84233143D01*
X114140166Y-84193560D01*
X114140429Y-84191211D01*
X114141122Y-84188946D01*
X114145324Y-84147576D01*
X114149165Y-84113335D01*
X114150000Y-84112500D01*
X114150000Y-84031767D01*
X114187769Y-83947979D01*
X114199524Y-83865262D01*
X114202752Y-83905736D01*
X114232027Y-84000271D01*
X114250000Y-84027546D01*
X114250000Y-84112500D01*
X114337500Y-84200000D01*
X114384472Y-84200000D01*
X114450166Y-84186933D01*
X114452021Y-84187769D01*
X114550000Y-84201693D01*
X114850000Y-84201693D01*
X114905736Y-84197248D01*
X115000271Y-84167973D01*
X115082906Y-84113520D01*
X115147100Y-84038200D01*
X115187769Y-83947979D01*
X115201693Y-83850000D01*
X115201693Y-83001693D01*
X116050000Y-83001693D01*
X116105736Y-82997248D01*
X116200271Y-82967973D01*
X116282906Y-82913520D01*
X116347100Y-82838200D01*
X116387769Y-82747979D01*
X116401693Y-82650000D01*
X116401693Y-82450000D01*
X116613604Y-82450000D01*
X122581802Y-88418198D01*
X122613905Y-88444568D01*
X122645765Y-88471301D01*
X122647838Y-88472441D01*
X122649667Y-88473943D01*
X122686314Y-88493593D01*
X122722726Y-88513611D01*
X122724980Y-88514326D01*
X122727067Y-88515445D01*
X122766857Y-88527610D01*
X122806440Y-88540166D01*
X122808789Y-88540429D01*
X122811054Y-88541122D01*
X122852424Y-88545324D01*
X122893717Y-88549956D01*
X122898344Y-88549988D01*
X122898429Y-88549997D01*
X122898508Y-88549990D01*
X122900000Y-88550000D01*
X127067333Y-88550000D01*
X127050925Y-88627195D01*
X127049146Y-88754654D01*
X127072157Y-88880031D01*
X127119082Y-88998551D01*
X127159430Y-89061158D01*
X127147909Y-89063450D01*
X127084213Y-89089834D01*
X127026888Y-89128137D01*
X126978137Y-89176888D01*
X126939834Y-89234213D01*
X126913450Y-89297909D01*
X126900000Y-89365528D01*
X126900000Y-89762500D01*
X126987500Y-89850000D01*
X128200000Y-89850000D01*
X128200000Y-89137500D01*
X128300000Y-89137500D01*
X128300000Y-89850000D01*
X129512500Y-89850000D01*
X129600000Y-89762500D01*
X129600000Y-89365528D01*
X129586550Y-89297909D01*
X129560166Y-89234213D01*
X129521863Y-89176888D01*
X129473112Y-89128137D01*
X129415787Y-89089834D01*
X129352091Y-89063450D01*
X129284472Y-89050000D01*
X128387500Y-89050000D01*
X128300000Y-89137500D01*
X128200000Y-89137500D01*
X128191790Y-89129290D01*
X128194428Y-89126778D01*
X128267906Y-89022616D01*
X128319754Y-88906165D01*
X128347995Y-88781861D01*
X128350028Y-88636264D01*
X128325268Y-88511220D01*
X128276693Y-88393367D01*
X128206151Y-88287193D01*
X128145195Y-88225811D01*
X128142321Y-88192958D01*
X128141661Y-88190686D01*
X128141430Y-88188331D01*
X128129418Y-88148546D01*
X128121007Y-88119593D01*
X128127113Y-88117819D01*
X128129213Y-88116730D01*
X128131480Y-88116046D01*
X128168249Y-88096495D01*
X128205085Y-88077401D01*
X128206929Y-88075929D01*
X128209024Y-88074815D01*
X128241274Y-88048512D01*
X128273722Y-88022610D01*
X128277016Y-88019362D01*
X128277083Y-88019307D01*
X128277134Y-88019245D01*
X128278196Y-88018198D01*
X128798307Y-87498087D01*
X128798307Y-88450000D01*
X128802752Y-88505736D01*
X128832027Y-88600271D01*
X128886480Y-88682906D01*
X128961800Y-88747100D01*
X129052021Y-88787769D01*
X129150000Y-88801693D01*
X129865297Y-88801693D01*
X130381802Y-89318198D01*
X130413927Y-89344586D01*
X130445765Y-89371301D01*
X130447835Y-89372439D01*
X130449666Y-89373943D01*
X130486335Y-89393605D01*
X130522726Y-89413611D01*
X130524980Y-89414326D01*
X130527067Y-89415445D01*
X130566857Y-89427610D01*
X130606440Y-89440166D01*
X130608789Y-89440429D01*
X130611054Y-89441122D01*
X130652424Y-89445324D01*
X130693717Y-89449956D01*
X130698344Y-89449988D01*
X130698429Y-89449997D01*
X130698508Y-89449990D01*
X130700000Y-89450000D01*
X133030915Y-89450000D01*
X133076684Y-89497395D01*
X133181357Y-89570145D01*
X133298167Y-89621178D01*
X133422665Y-89648550D01*
X133550109Y-89651220D01*
X133675644Y-89629085D01*
X133794488Y-89582988D01*
X133900000Y-89516028D01*
X133900000Y-89762500D01*
X133987500Y-89850000D01*
X135200000Y-89850000D01*
X135200000Y-89137500D01*
X135300000Y-89137500D01*
X135300000Y-89850000D01*
X136512500Y-89850000D01*
X136600000Y-89762500D01*
X136600000Y-89365528D01*
X136586550Y-89297909D01*
X136560166Y-89234213D01*
X136521863Y-89176888D01*
X136473112Y-89128137D01*
X136415787Y-89089834D01*
X136352091Y-89063450D01*
X136284472Y-89050000D01*
X135387500Y-89050000D01*
X135300000Y-89137500D01*
X135200000Y-89137500D01*
X135112500Y-89050000D01*
X134215528Y-89050000D01*
X134148253Y-89063382D01*
X134150028Y-88936264D01*
X134125268Y-88811220D01*
X134120643Y-88800000D01*
X134384472Y-88800000D01*
X134452091Y-88786550D01*
X134515787Y-88760166D01*
X134573112Y-88721863D01*
X134621863Y-88673112D01*
X134660166Y-88615787D01*
X134686550Y-88552091D01*
X134700000Y-88484472D01*
X134700000Y-88011112D01*
X135864466Y-88011112D01*
X135864466Y-88080056D01*
X135877917Y-88147676D01*
X135904300Y-88211372D01*
X135942604Y-88268696D01*
X135991354Y-88317447D01*
X136824346Y-89150439D01*
X136948090Y-89150439D01*
X137451903Y-88646625D01*
X136347049Y-87541771D01*
X136223305Y-87541771D01*
X135942604Y-87822472D01*
X135904300Y-87879797D01*
X135877917Y-87943493D01*
X135864466Y-88011112D01*
X134700000Y-88011112D01*
X134700000Y-87887500D01*
X134612500Y-87800000D01*
X133900000Y-87800000D01*
X133900000Y-87820000D01*
X133800000Y-87820000D01*
X133800000Y-87800000D01*
X133087500Y-87800000D01*
X133000000Y-87887500D01*
X133000000Y-88484472D01*
X133013034Y-88550000D01*
X130886396Y-88550000D01*
X130507119Y-88170723D01*
X130517115Y-88167819D01*
X130519215Y-88166730D01*
X130521482Y-88166046D01*
X130558251Y-88146495D01*
X130595087Y-88127401D01*
X130596931Y-88125929D01*
X130599026Y-88124815D01*
X130631276Y-88098512D01*
X130663724Y-88072610D01*
X130667018Y-88069362D01*
X130667085Y-88069307D01*
X130667136Y-88069245D01*
X130668198Y-88068198D01*
X131018198Y-87718198D01*
X131044568Y-87686095D01*
X131071301Y-87654235D01*
X131072441Y-87652162D01*
X131073943Y-87650333D01*
X131093593Y-87613686D01*
X131113611Y-87577274D01*
X131114326Y-87575020D01*
X131115445Y-87572933D01*
X131127610Y-87533143D01*
X131140166Y-87493560D01*
X131140429Y-87491211D01*
X131141122Y-87488946D01*
X131145324Y-87447576D01*
X131149956Y-87406283D01*
X131149988Y-87401656D01*
X131149997Y-87401571D01*
X131149990Y-87401492D01*
X131150000Y-87400000D01*
X131150000Y-87015528D01*
X133000000Y-87015528D01*
X133000000Y-87612500D01*
X133087500Y-87700000D01*
X133800000Y-87700000D01*
X133800000Y-86787500D01*
X133900000Y-86787500D01*
X133900000Y-87700000D01*
X134612500Y-87700000D01*
X134700000Y-87612500D01*
X134700000Y-87347316D01*
X136417760Y-87347316D01*
X136417760Y-87471060D01*
X137522614Y-88575914D01*
X138026428Y-88072101D01*
X138026428Y-87948357D01*
X137193436Y-87115365D01*
X137144685Y-87066615D01*
X137087361Y-87028311D01*
X137023665Y-87001928D01*
X136956045Y-86988477D01*
X136887101Y-86988477D01*
X136819482Y-87001928D01*
X136755786Y-87028311D01*
X136698461Y-87066615D01*
X136417760Y-87347316D01*
X134700000Y-87347316D01*
X134700000Y-87043567D01*
X134722665Y-87048550D01*
X134850109Y-87051220D01*
X134975644Y-87029085D01*
X135094488Y-86982988D01*
X135202116Y-86914685D01*
X135270042Y-86850000D01*
X135455888Y-86850000D01*
X135497227Y-86845947D01*
X135538666Y-86842321D01*
X135540938Y-86841661D01*
X135543293Y-86841430D01*
X135583092Y-86829414D01*
X135623003Y-86817819D01*
X135625103Y-86816730D01*
X135627370Y-86816046D01*
X135664139Y-86796495D01*
X135700975Y-86777401D01*
X135702819Y-86775929D01*
X135704914Y-86774815D01*
X135737164Y-86748512D01*
X135769612Y-86722610D01*
X135772906Y-86719362D01*
X135772973Y-86719307D01*
X135773024Y-86719245D01*
X135774086Y-86718198D01*
X136584500Y-85907784D01*
X136867343Y-86190627D01*
X136909898Y-86226895D01*
X136997445Y-86273040D01*
X137094381Y-86292968D01*
X137193032Y-86285101D01*
X137285585Y-86250063D01*
X137364713Y-86190627D01*
X137788977Y-85766363D01*
X137825245Y-85723808D01*
X137871390Y-85636261D01*
X137891318Y-85539325D01*
X137883451Y-85440674D01*
X137859615Y-85377711D01*
X137881328Y-85389156D01*
X137978264Y-85409084D01*
X138076915Y-85401217D01*
X138169468Y-85366179D01*
X138248596Y-85306743D01*
X138672860Y-84882479D01*
X138709128Y-84839924D01*
X138755273Y-84752377D01*
X138775201Y-84655441D01*
X138767334Y-84556790D01*
X138743499Y-84493829D01*
X138765211Y-84505273D01*
X138812328Y-84514959D01*
X138827656Y-84527821D01*
X138830420Y-84529340D01*
X138832859Y-84531344D01*
X138881737Y-84557552D01*
X138930271Y-84584234D01*
X138933276Y-84585187D01*
X138936058Y-84586679D01*
X138989076Y-84602888D01*
X139041889Y-84619642D01*
X139045024Y-84619994D01*
X139048041Y-84620916D01*
X139103140Y-84626512D01*
X139158259Y-84632695D01*
X139164431Y-84632738D01*
X139164542Y-84632749D01*
X139164645Y-84632739D01*
X139166636Y-84632753D01*
X139967247Y-84632753D01*
X140022417Y-84627344D01*
X140077618Y-84622514D01*
X140080647Y-84621634D01*
X140083788Y-84621326D01*
X140136885Y-84605295D01*
X140190068Y-84589844D01*
X140192866Y-84588394D01*
X140195889Y-84587481D01*
X140244820Y-84561464D01*
X140294031Y-84535956D01*
X140296499Y-84533986D01*
X140299282Y-84532506D01*
X140342197Y-84497505D01*
X140385547Y-84462899D01*
X140389938Y-84458569D01*
X140390028Y-84458495D01*
X140390097Y-84458411D01*
X140391511Y-84457017D01*
X141247197Y-83601331D01*
X141294488Y-83582988D01*
X141402116Y-83514685D01*
X141494428Y-83426778D01*
X141567906Y-83322616D01*
X141619754Y-83206165D01*
X141621298Y-83199369D01*
X142198357Y-83776428D01*
X142322101Y-83776428D01*
X142825914Y-83272614D01*
X141721060Y-82167760D01*
X141597316Y-82167760D01*
X141327948Y-82437128D01*
X141310652Y-82425462D01*
X141193140Y-82376065D01*
X141068272Y-82350433D01*
X140940804Y-82349543D01*
X140815590Y-82373429D01*
X140697401Y-82421181D01*
X140590737Y-82490979D01*
X140499662Y-82580166D01*
X140459586Y-82638697D01*
X139935616Y-82114727D01*
X139811872Y-82114727D01*
X139449480Y-82477119D01*
X139463622Y-82491261D01*
X139392911Y-82561972D01*
X139378769Y-82547830D01*
X139364627Y-82561972D01*
X139293916Y-82491261D01*
X139308058Y-82477119D01*
X138556757Y-81725818D01*
X138433014Y-81725818D01*
X138293733Y-81865098D01*
X138255430Y-81922423D01*
X138229047Y-81986119D01*
X138215596Y-82053738D01*
X138215596Y-82122682D01*
X138229047Y-82190302D01*
X138244305Y-82227139D01*
X138224559Y-82216731D01*
X138127623Y-82196803D01*
X138028972Y-82204670D01*
X137936419Y-82239708D01*
X137857291Y-82299144D01*
X137433027Y-82723408D01*
X137396759Y-82765963D01*
X137350614Y-82853510D01*
X137330686Y-82950446D01*
X137338553Y-83049097D01*
X137362388Y-83112058D01*
X137340676Y-83100614D01*
X137243740Y-83080686D01*
X137145089Y-83088553D01*
X137052536Y-83123591D01*
X137037902Y-83134583D01*
X137032811Y-83132968D01*
X137030462Y-83132705D01*
X137028197Y-83132012D01*
X136986827Y-83127810D01*
X136945534Y-83123178D01*
X136940907Y-83123146D01*
X136940822Y-83123137D01*
X136940743Y-83123144D01*
X136939251Y-83123134D01*
X136402602Y-83123134D01*
X136361217Y-83127192D01*
X136319823Y-83130814D01*
X136317556Y-83131473D01*
X136315197Y-83131704D01*
X136275336Y-83143739D01*
X136235486Y-83155316D01*
X136233389Y-83156403D01*
X136231120Y-83157088D01*
X136194354Y-83176637D01*
X136157514Y-83195733D01*
X136155668Y-83197207D01*
X136153576Y-83198319D01*
X136121341Y-83224609D01*
X136088877Y-83250525D01*
X136085584Y-83253772D01*
X136085517Y-83253827D01*
X136085466Y-83253889D01*
X136084404Y-83254936D01*
X134481802Y-84857538D01*
X134455432Y-84889641D01*
X134428699Y-84921501D01*
X134427559Y-84923574D01*
X134426057Y-84925403D01*
X134406407Y-84962050D01*
X134386389Y-84998462D01*
X134385674Y-85000716D01*
X134384555Y-85002803D01*
X134372390Y-85042593D01*
X134359834Y-85082176D01*
X134359571Y-85084525D01*
X134358878Y-85086790D01*
X134354887Y-85126086D01*
X134299662Y-85180166D01*
X134227645Y-85285345D01*
X134177428Y-85402509D01*
X134150925Y-85527195D01*
X134149146Y-85654654D01*
X134172157Y-85780031D01*
X134219082Y-85898551D01*
X134285247Y-86001219D01*
X134227645Y-86085345D01*
X134177428Y-86202509D01*
X134150925Y-86327195D01*
X134149146Y-86454654D01*
X134172157Y-86580031D01*
X134219082Y-86698551D01*
X134220016Y-86700000D01*
X133987500Y-86700000D01*
X133900000Y-86787500D01*
X133800000Y-86787500D01*
X133712500Y-86700000D01*
X133315528Y-86700000D01*
X133247909Y-86713450D01*
X133184213Y-86739834D01*
X133126888Y-86778137D01*
X133078137Y-86826888D01*
X133039834Y-86884213D01*
X133013450Y-86947909D01*
X133000000Y-87015528D01*
X131150000Y-87015528D01*
X131150000Y-86200000D01*
X131145947Y-86158661D01*
X131142321Y-86117222D01*
X131141661Y-86114950D01*
X131141430Y-86112595D01*
X131129414Y-86072796D01*
X131117819Y-86032885D01*
X131116730Y-86030785D01*
X131116046Y-86028518D01*
X131096495Y-85991749D01*
X131077401Y-85954913D01*
X131075929Y-85953069D01*
X131074815Y-85950974D01*
X131048512Y-85918724D01*
X131022610Y-85886276D01*
X131019362Y-85882982D01*
X131019307Y-85882915D01*
X131019245Y-85882864D01*
X131018198Y-85881802D01*
X130274316Y-85137920D01*
X130322665Y-85148550D01*
X130450109Y-85151220D01*
X130575644Y-85129085D01*
X130694488Y-85082988D01*
X130802116Y-85014685D01*
X130849659Y-84969410D01*
X130876684Y-84997395D01*
X130981357Y-85070145D01*
X131098167Y-85121178D01*
X131222665Y-85148550D01*
X131350109Y-85151220D01*
X131475644Y-85129085D01*
X131594488Y-85082988D01*
X131702116Y-85014685D01*
X131794428Y-84926778D01*
X131867906Y-84822616D01*
X131919754Y-84706165D01*
X131947995Y-84581861D01*
X131949318Y-84487078D01*
X132618198Y-83818198D01*
X132644568Y-83786095D01*
X132671301Y-83754235D01*
X132672441Y-83752162D01*
X132673943Y-83750333D01*
X132693593Y-83713686D01*
X132713611Y-83677274D01*
X132714326Y-83675020D01*
X132715445Y-83672933D01*
X132727623Y-83633102D01*
X132740166Y-83593560D01*
X132740429Y-83591216D01*
X132741123Y-83588946D01*
X132745330Y-83547526D01*
X132749956Y-83506283D01*
X132749988Y-83501656D01*
X132749997Y-83501571D01*
X132749990Y-83501492D01*
X132750000Y-83500000D01*
X132750000Y-81669086D01*
X132794428Y-81626778D01*
X132861734Y-81531364D01*
X138627468Y-81531364D01*
X138627468Y-81655107D01*
X139378769Y-82406408D01*
X139741161Y-82044016D01*
X139741161Y-81973305D01*
X141791771Y-81973305D01*
X141791771Y-82097049D01*
X142896625Y-83201903D01*
X143400439Y-82698090D01*
X143400439Y-82574346D01*
X142567447Y-81741354D01*
X142518696Y-81692604D01*
X142461372Y-81654300D01*
X142397676Y-81627917D01*
X142330056Y-81614466D01*
X142261112Y-81614466D01*
X142193493Y-81627917D01*
X142129797Y-81654300D01*
X142072472Y-81692604D01*
X141791771Y-81973305D01*
X139741161Y-81973305D01*
X139741161Y-81920272D01*
X139212972Y-81392083D01*
X139155648Y-81353780D01*
X139091952Y-81327397D01*
X139024332Y-81313946D01*
X138955388Y-81313946D01*
X138887769Y-81327397D01*
X138824073Y-81353780D01*
X138766748Y-81392083D01*
X138627468Y-81531364D01*
X132861734Y-81531364D01*
X132867906Y-81522616D01*
X132919754Y-81406165D01*
X132947995Y-81281861D01*
X132950028Y-81136264D01*
X132925268Y-81011220D01*
X132876693Y-80893367D01*
X132806151Y-80787193D01*
X132716330Y-80696743D01*
X132610652Y-80625462D01*
X132554107Y-80601693D01*
X132600000Y-80601693D01*
X132655736Y-80597248D01*
X132750271Y-80567973D01*
X132832906Y-80513520D01*
X132897100Y-80438200D01*
X132937769Y-80347979D01*
X132951693Y-80250000D01*
X132951693Y-79750000D01*
X132947248Y-79694264D01*
X132917973Y-79599729D01*
X132863520Y-79517094D01*
X132788200Y-79452900D01*
X132697979Y-79412231D01*
X132650000Y-79405413D01*
X132650000Y-78351693D01*
X133375000Y-78351693D01*
X133430736Y-78347248D01*
X133525271Y-78317973D01*
X133607906Y-78263520D01*
X133672100Y-78188200D01*
X133712769Y-78097979D01*
X133726693Y-78000000D01*
X133726693Y-77225668D01*
X135563946Y-77225668D01*
X135563946Y-77294612D01*
X135577397Y-77362231D01*
X135603780Y-77425927D01*
X135642083Y-77483252D01*
X135781364Y-77622532D01*
X135905107Y-77622532D01*
X136656408Y-76871231D01*
X136294016Y-76508839D01*
X136170272Y-76508839D01*
X135642083Y-77037028D01*
X135603780Y-77094352D01*
X135577397Y-77158048D01*
X135563946Y-77225668D01*
X133726693Y-77225668D01*
X133726693Y-76800000D01*
X133722248Y-76744264D01*
X133692973Y-76649729D01*
X133638520Y-76567094D01*
X133563200Y-76502900D01*
X133472979Y-76462231D01*
X133375000Y-76448307D01*
X131775000Y-76448307D01*
X131721812Y-76452549D01*
X131723323Y-76344349D01*
X131775000Y-76351693D01*
X133375000Y-76351693D01*
X133430736Y-76347248D01*
X133525271Y-76317973D01*
X133607906Y-76263520D01*
X133672100Y-76188200D01*
X133712769Y-76097979D01*
X133726693Y-76000000D01*
X136679111Y-76000000D01*
X136364727Y-76314384D01*
X136364727Y-76438128D01*
X136727119Y-76800520D01*
X136741261Y-76786378D01*
X136811972Y-76857089D01*
X136797830Y-76871231D01*
X136811972Y-76885373D01*
X136741261Y-76956084D01*
X136727119Y-76941942D01*
X135975818Y-77693243D01*
X135975818Y-77816986D01*
X136115098Y-77956267D01*
X136172423Y-77994570D01*
X136236119Y-78020953D01*
X136303738Y-78034404D01*
X136372682Y-78034404D01*
X136440302Y-78020953D01*
X136477139Y-78005695D01*
X136466731Y-78025441D01*
X136446803Y-78122377D01*
X136454670Y-78221028D01*
X136489708Y-78313581D01*
X136549144Y-78392709D01*
X136973408Y-78816973D01*
X137015963Y-78853241D01*
X137103510Y-78899386D01*
X137200446Y-78919314D01*
X137299097Y-78911447D01*
X137362058Y-78887612D01*
X137350614Y-78909324D01*
X137330686Y-79006260D01*
X137330800Y-79007687D01*
X137297401Y-79021181D01*
X137190737Y-79090979D01*
X137099662Y-79180166D01*
X137027645Y-79285345D01*
X136977428Y-79402509D01*
X136950925Y-79527195D01*
X136949146Y-79654654D01*
X136972157Y-79780031D01*
X137019082Y-79898551D01*
X137088135Y-80005700D01*
X137176684Y-80097395D01*
X137281357Y-80170145D01*
X137398167Y-80221178D01*
X137522665Y-80248550D01*
X137650109Y-80251220D01*
X137775644Y-80229085D01*
X137815528Y-80213615D01*
X137777428Y-80302509D01*
X137750925Y-80427195D01*
X137749146Y-80554654D01*
X137772157Y-80680031D01*
X137819082Y-80798551D01*
X137888135Y-80905700D01*
X137976684Y-80997395D01*
X138081357Y-81070145D01*
X138198167Y-81121178D01*
X138322665Y-81148550D01*
X138450109Y-81151220D01*
X138575644Y-81129085D01*
X138694488Y-81082988D01*
X138802116Y-81014685D01*
X138894428Y-80926778D01*
X138967906Y-80822616D01*
X139019754Y-80706165D01*
X139025121Y-80682542D01*
X139066864Y-80679213D01*
X139159417Y-80644175D01*
X139238545Y-80584739D01*
X140334569Y-79488715D01*
X140398803Y-79552949D01*
X140419082Y-79604169D01*
X140488135Y-79711318D01*
X140576684Y-79803013D01*
X140681357Y-79875763D01*
X140798167Y-79926796D01*
X140922665Y-79954168D01*
X141050109Y-79956838D01*
X141175644Y-79934703D01*
X141257504Y-79902951D01*
X141791771Y-79902951D01*
X141791771Y-80026695D01*
X142072472Y-80307396D01*
X142129797Y-80345700D01*
X142193493Y-80372083D01*
X142261112Y-80385534D01*
X142330056Y-80385534D01*
X142397676Y-80372083D01*
X142461372Y-80345700D01*
X142518696Y-80307396D01*
X142567447Y-80258646D01*
X143400439Y-79425654D01*
X143400439Y-79301910D01*
X142896625Y-78798097D01*
X141791771Y-79902951D01*
X141257504Y-79902951D01*
X141294488Y-79888606D01*
X141402116Y-79820303D01*
X141494428Y-79732396D01*
X141495687Y-79730611D01*
X141597316Y-79832240D01*
X141721060Y-79832240D01*
X142825914Y-78727386D01*
X142322101Y-78223572D01*
X142198357Y-78223572D01*
X141515319Y-78906610D01*
X141506151Y-78892811D01*
X141416330Y-78802361D01*
X141310652Y-78731080D01*
X141247403Y-78704493D01*
X137518646Y-74975736D01*
X137475823Y-74940561D01*
X137433362Y-74904932D01*
X137430598Y-74903413D01*
X137428159Y-74901409D01*
X137379281Y-74875201D01*
X137330747Y-74848519D01*
X137327742Y-74847566D01*
X137324960Y-74846074D01*
X137271942Y-74829865D01*
X137253923Y-74824148D01*
X138026428Y-74051643D01*
X138026428Y-73927899D01*
X137522614Y-73424086D01*
X136417760Y-74528940D01*
X136417760Y-74652684D01*
X136565076Y-74800000D01*
X133726693Y-74800000D01*
X133722248Y-74744264D01*
X133692973Y-74649729D01*
X133638520Y-74567094D01*
X133563200Y-74502900D01*
X133475000Y-74463142D01*
X133475000Y-74300000D01*
X133469595Y-74244871D01*
X133464761Y-74189629D01*
X133463881Y-74186600D01*
X133463573Y-74183459D01*
X133447538Y-74130349D01*
X133432091Y-74077180D01*
X133430641Y-74074383D01*
X133429728Y-74071358D01*
X133403701Y-74022409D01*
X133378203Y-73973216D01*
X133376233Y-73970748D01*
X133374753Y-73967965D01*
X133339757Y-73925056D01*
X133335677Y-73919944D01*
X135864466Y-73919944D01*
X135864466Y-73988888D01*
X135877917Y-74056507D01*
X135904300Y-74120203D01*
X135942604Y-74177528D01*
X136223305Y-74458229D01*
X136347049Y-74458229D01*
X137451903Y-73353375D01*
X136948090Y-72849561D01*
X136824346Y-72849561D01*
X135991354Y-73682553D01*
X135942604Y-73731304D01*
X135904300Y-73788628D01*
X135877917Y-73852324D01*
X135864466Y-73919944D01*
X133335677Y-73919944D01*
X133305147Y-73881701D01*
X133300816Y-73877309D01*
X133300742Y-73877219D01*
X133300658Y-73877150D01*
X133299264Y-73875736D01*
X131799263Y-72375735D01*
X131756440Y-72340560D01*
X131713979Y-72304931D01*
X131711215Y-72303412D01*
X131708776Y-72301408D01*
X131659898Y-72275200D01*
X131611364Y-72248518D01*
X131608359Y-72247565D01*
X131605577Y-72246073D01*
X131552559Y-72229864D01*
X131499746Y-72213110D01*
X131496611Y-72212758D01*
X131493594Y-72211836D01*
X131438495Y-72206240D01*
X131383376Y-72200057D01*
X131377204Y-72200014D01*
X131377093Y-72200003D01*
X131376990Y-72200013D01*
X131374999Y-72199999D01*
X127150078Y-72199999D01*
X127093140Y-72176065D01*
X126968272Y-72150433D01*
X126840804Y-72149543D01*
X126715590Y-72173429D01*
X126597401Y-72221181D01*
X126490737Y-72290979D01*
X126399662Y-72380166D01*
X126327645Y-72485345D01*
X126277428Y-72602509D01*
X126250925Y-72727195D01*
X126249146Y-72854654D01*
X126272157Y-72980031D01*
X126319082Y-73098551D01*
X126388135Y-73205700D01*
X126476684Y-73297395D01*
X126581357Y-73370145D01*
X126698167Y-73421178D01*
X126822665Y-73448550D01*
X126950109Y-73451220D01*
X127075644Y-73429085D01*
X127150630Y-73399999D01*
X131126471Y-73399999D01*
X132199107Y-74472635D01*
X132118144Y-74515573D01*
X131568144Y-74915573D01*
X131554957Y-74928004D01*
X131542094Y-74936480D01*
X131526274Y-74955042D01*
X131503275Y-74976722D01*
X131491987Y-74995272D01*
X131477900Y-75011800D01*
X131466390Y-75037335D01*
X131451829Y-75061262D01*
X131446155Y-75082224D01*
X131437231Y-75102021D01*
X131433290Y-75129752D01*
X131425972Y-75156788D01*
X131426363Y-75178499D01*
X131423307Y-75200000D01*
X131423307Y-75387225D01*
X131315584Y-75225088D01*
X131059940Y-74967654D01*
X130759162Y-74764776D01*
X130424707Y-74624184D01*
X130069313Y-74551233D01*
X129706518Y-74548700D01*
X129350141Y-74616682D01*
X129013755Y-74752591D01*
X128710174Y-74951249D01*
X128450961Y-75205089D01*
X128326693Y-75386578D01*
X128326693Y-75200000D01*
X128324713Y-75175170D01*
X128325107Y-75166635D01*
X128323499Y-75159956D01*
X128322248Y-75144264D01*
X128310914Y-75107665D01*
X128301950Y-75070419D01*
X128296330Y-75060569D01*
X128292973Y-75049729D01*
X128271888Y-75017732D01*
X128252906Y-74984463D01*
X128244762Y-74976567D01*
X128238520Y-74967094D01*
X128209365Y-74942246D01*
X128181856Y-74915573D01*
X127631856Y-74515573D01*
X127522979Y-74462231D01*
X127425000Y-74448307D01*
X127325000Y-74448307D01*
X127325000Y-74375000D01*
X127320942Y-74333611D01*
X127317320Y-74292222D01*
X127316661Y-74289955D01*
X127316430Y-74287595D01*
X127304406Y-74247768D01*
X127292819Y-74207884D01*
X127291730Y-74205783D01*
X127291046Y-74203518D01*
X127271516Y-74166788D01*
X127252401Y-74129912D01*
X127250927Y-74128066D01*
X127249815Y-74125974D01*
X127223505Y-74093715D01*
X127197609Y-74061276D01*
X127194363Y-74057984D01*
X127194307Y-74057915D01*
X127194244Y-74057863D01*
X127193198Y-74056802D01*
X125618198Y-72481802D01*
X125586095Y-72455432D01*
X125554235Y-72428699D01*
X125552162Y-72427559D01*
X125550333Y-72426057D01*
X125513686Y-72406407D01*
X125477274Y-72386389D01*
X125475020Y-72385674D01*
X125472933Y-72384555D01*
X125433143Y-72372390D01*
X125393560Y-72359834D01*
X125391534Y-72359607D01*
X125363520Y-72317094D01*
X125288200Y-72252900D01*
X125197979Y-72212231D01*
X125100000Y-72198307D01*
X124300000Y-72198307D01*
X124244264Y-72202752D01*
X124149729Y-72232027D01*
X124101217Y-72263994D01*
X124088200Y-72252900D01*
X123997979Y-72212231D01*
X123900000Y-72198307D01*
X123100000Y-72198307D01*
X123044264Y-72202752D01*
X122949729Y-72232027D01*
X122867094Y-72286480D01*
X122802900Y-72361800D01*
X122762231Y-72452021D01*
X122748307Y-72550000D01*
X122748307Y-73050000D01*
X122752752Y-73105736D01*
X122782027Y-73200271D01*
X122834183Y-73279421D01*
X122563604Y-73550000D01*
X122068057Y-73550000D01*
X122067973Y-73549729D01*
X122013520Y-73467094D01*
X121938200Y-73402900D01*
X121847979Y-73362231D01*
X121750000Y-73348307D01*
X120550000Y-73348307D01*
X120494264Y-73352752D01*
X120399729Y-73382027D01*
X120317094Y-73436480D01*
X120252900Y-73511800D01*
X120212231Y-73602021D01*
X120198307Y-73700000D01*
X120198307Y-74300000D01*
X120202752Y-74355736D01*
X120232027Y-74450271D01*
X120286480Y-74532906D01*
X120361800Y-74597100D01*
X120452021Y-74637769D01*
X120550000Y-74651693D01*
X121750000Y-74651693D01*
X121805736Y-74647248D01*
X121900271Y-74617973D01*
X121982906Y-74563520D01*
X122047100Y-74488200D01*
X122064319Y-74450000D01*
X122750000Y-74450000D01*
X122791339Y-74445947D01*
X122832778Y-74442321D01*
X122835050Y-74441661D01*
X122837405Y-74441430D01*
X122877204Y-74429414D01*
X122917115Y-74417819D01*
X122919215Y-74416730D01*
X122921482Y-74416046D01*
X122958251Y-74396495D01*
X122995087Y-74377401D01*
X122996931Y-74375929D01*
X122999026Y-74374815D01*
X123031276Y-74348512D01*
X123063724Y-74322610D01*
X123067018Y-74319362D01*
X123067085Y-74319307D01*
X123067136Y-74319245D01*
X123068198Y-74318198D01*
X123818198Y-73568198D01*
X123844586Y-73536073D01*
X123871301Y-73504235D01*
X123872439Y-73502165D01*
X123873943Y-73500334D01*
X123893605Y-73463665D01*
X123913611Y-73427274D01*
X123914326Y-73425020D01*
X123915445Y-73422933D01*
X123922487Y-73399900D01*
X123955736Y-73397248D01*
X124050271Y-73367973D01*
X124098783Y-73336006D01*
X124111800Y-73347100D01*
X124202021Y-73387769D01*
X124300000Y-73401693D01*
X125100000Y-73401693D01*
X125155736Y-73397248D01*
X125235997Y-73372393D01*
X126317044Y-74453440D01*
X126224729Y-74482027D01*
X126142094Y-74536480D01*
X126077900Y-74611800D01*
X126037231Y-74702021D01*
X126023307Y-74800000D01*
X126023307Y-75263915D01*
X126009191Y-75309515D01*
X126000011Y-75396858D01*
X126007971Y-75484322D01*
X126023307Y-75536430D01*
X126023307Y-76000000D01*
X126027752Y-76055736D01*
X126057027Y-76150271D01*
X126111480Y-76232906D01*
X126186800Y-76297100D01*
X126277021Y-76337769D01*
X126375000Y-76351693D01*
X127975000Y-76351693D01*
X128025472Y-76347668D01*
X128023969Y-76455266D01*
X127975000Y-76448307D01*
X126375000Y-76448307D01*
X126319264Y-76452752D01*
X126224729Y-76482027D01*
X126142094Y-76536480D01*
X126077900Y-76611800D01*
X126037231Y-76702021D01*
X126023307Y-76800000D01*
X126023307Y-77936911D01*
X125268198Y-77181802D01*
X125236095Y-77155432D01*
X125204235Y-77128699D01*
X125202162Y-77127559D01*
X125200333Y-77126057D01*
X125163686Y-77106407D01*
X125127274Y-77086389D01*
X125125020Y-77085674D01*
X125122933Y-77084555D01*
X125083143Y-77072390D01*
X125043560Y-77059834D01*
X125041211Y-77059571D01*
X125038946Y-77058878D01*
X124997576Y-77054676D01*
X124956283Y-77050044D01*
X124951656Y-77050012D01*
X124951571Y-77050003D01*
X124951492Y-77050010D01*
X124950000Y-77050000D01*
X124568057Y-77050000D01*
X124567973Y-77049729D01*
X124513520Y-76967094D01*
X124438200Y-76902900D01*
X124347979Y-76862231D01*
X124250000Y-76848307D01*
X123050000Y-76848307D01*
X122994264Y-76852752D01*
X122899729Y-76882027D01*
X122817094Y-76936480D01*
X122752900Y-77011800D01*
X122712231Y-77102021D01*
X122698307Y-77200000D01*
X122698307Y-77800000D01*
X122702752Y-77855736D01*
X122732027Y-77950271D01*
X122786480Y-78032906D01*
X122861800Y-78097100D01*
X122952021Y-78137769D01*
X123050000Y-78151693D01*
X124250000Y-78151693D01*
X124305736Y-78147248D01*
X124400271Y-78117973D01*
X124482906Y-78063520D01*
X124547100Y-77988200D01*
X124564319Y-77950000D01*
X124763604Y-77950000D01*
X125188772Y-78375168D01*
X125068272Y-78350433D01*
X124940804Y-78349543D01*
X124815590Y-78373429D01*
X124697401Y-78421181D01*
X124590737Y-78490979D01*
X124499662Y-78580166D01*
X124427645Y-78685345D01*
X124377428Y-78802509D01*
X124350925Y-78927195D01*
X124349146Y-79054654D01*
X124372157Y-79180031D01*
X124419082Y-79298551D01*
X124488135Y-79405700D01*
X124576684Y-79497395D01*
X124681357Y-79570145D01*
X124798167Y-79621178D01*
X124922665Y-79648550D01*
X125050109Y-79651220D01*
X125175644Y-79629085D01*
X125294488Y-79582988D01*
X125341207Y-79553339D01*
X125550000Y-79762132D01*
X125550000Y-79852295D01*
X125544264Y-79852752D01*
X125449729Y-79882027D01*
X125367094Y-79936480D01*
X125302900Y-80011800D01*
X125262231Y-80102021D01*
X125248307Y-80200000D01*
X125248307Y-80500000D01*
X125252752Y-80555736D01*
X125282027Y-80650271D01*
X125297164Y-80673242D01*
X125289834Y-80684213D01*
X125263450Y-80747909D01*
X125250000Y-80815528D01*
X125250000Y-80862500D01*
X125337500Y-80950000D01*
X125950000Y-80950000D01*
X125950000Y-80930000D01*
X126050000Y-80930000D01*
X126050000Y-80950000D01*
X126662500Y-80950000D01*
X126750000Y-80862500D01*
X126750000Y-80815528D01*
X126736550Y-80747909D01*
X126710166Y-80684213D01*
X126703437Y-80674142D01*
X126737769Y-80597979D01*
X126751693Y-80500000D01*
X126751693Y-80200000D01*
X126747248Y-80144264D01*
X126717973Y-80049729D01*
X126663520Y-79967094D01*
X126588200Y-79902900D01*
X126497979Y-79862231D01*
X126450000Y-79855413D01*
X126450000Y-79636396D01*
X126848307Y-80034703D01*
X126848307Y-80250000D01*
X126852752Y-80305736D01*
X126882027Y-80400271D01*
X126936480Y-80482906D01*
X127011800Y-80547100D01*
X127102021Y-80587769D01*
X127200000Y-80601693D01*
X127445635Y-80601693D01*
X127397401Y-80621181D01*
X127290737Y-80690979D01*
X127199662Y-80780166D01*
X127127645Y-80885345D01*
X127077428Y-81002509D01*
X127050925Y-81127195D01*
X127049146Y-81254654D01*
X127072157Y-81380031D01*
X127119082Y-81498551D01*
X127188135Y-81605700D01*
X127250000Y-81669763D01*
X127250000Y-83068998D01*
X127221863Y-83026888D01*
X127173112Y-82978137D01*
X127115787Y-82939834D01*
X127052091Y-82913450D01*
X126984472Y-82900000D01*
X126487500Y-82900000D01*
X126400000Y-82987500D01*
X126400000Y-83500000D01*
X126420000Y-83500000D01*
X126420000Y-83600000D01*
X126400000Y-83600000D01*
X126400000Y-84112500D01*
X126487500Y-84200000D01*
X126984472Y-84200000D01*
X127052091Y-84186550D01*
X127115787Y-84160166D01*
X127173112Y-84121863D01*
X127221863Y-84073112D01*
X127250000Y-84031002D01*
X127250000Y-84972454D01*
X127213520Y-84917094D01*
X127138200Y-84852900D01*
X127047979Y-84812231D01*
X126950000Y-84798307D01*
X125750000Y-84798307D01*
X125694264Y-84802752D01*
X125599729Y-84832027D01*
X125517094Y-84886480D01*
X125452900Y-84961800D01*
X125435681Y-85000000D01*
X124936396Y-85000000D01*
X124148963Y-84212567D01*
X124150028Y-84136264D01*
X124125268Y-84011220D01*
X124076693Y-83893367D01*
X124006151Y-83787193D01*
X123916330Y-83696743D01*
X123810652Y-83625462D01*
X123693140Y-83576065D01*
X123568272Y-83550433D01*
X123440804Y-83549543D01*
X123315590Y-83573429D01*
X123197401Y-83621181D01*
X123090737Y-83690979D01*
X122999662Y-83780166D01*
X122927645Y-83885345D01*
X122877428Y-84002509D01*
X122850925Y-84127195D01*
X122849146Y-84254654D01*
X122872157Y-84380031D01*
X122919082Y-84498551D01*
X122988135Y-84605700D01*
X123076684Y-84697395D01*
X123181357Y-84770145D01*
X123298167Y-84821178D01*
X123422665Y-84848550D01*
X123514069Y-84850465D01*
X124431802Y-85768198D01*
X124463905Y-85794568D01*
X124495765Y-85821301D01*
X124497838Y-85822441D01*
X124499667Y-85823943D01*
X124536314Y-85843593D01*
X124572726Y-85863611D01*
X124574980Y-85864326D01*
X124577067Y-85865445D01*
X124616857Y-85877610D01*
X124656440Y-85890166D01*
X124658789Y-85890429D01*
X124661054Y-85891122D01*
X124702424Y-85895324D01*
X124743717Y-85899956D01*
X124748344Y-85899988D01*
X124748429Y-85899997D01*
X124748508Y-85899990D01*
X124750000Y-85900000D01*
X125431943Y-85900000D01*
X125432027Y-85900271D01*
X125486480Y-85982906D01*
X125561800Y-86047100D01*
X125652021Y-86087769D01*
X125750000Y-86101693D01*
X126950000Y-86101693D01*
X127005736Y-86097248D01*
X127100271Y-86067973D01*
X127182906Y-86013520D01*
X127247100Y-85938200D01*
X127287769Y-85847979D01*
X127301693Y-85750000D01*
X127301693Y-85194846D01*
X127303505Y-85198253D01*
X127322599Y-85235089D01*
X127324071Y-85236933D01*
X127325185Y-85239028D01*
X127351488Y-85271278D01*
X127377390Y-85303726D01*
X127380638Y-85307020D01*
X127380693Y-85307087D01*
X127380755Y-85307138D01*
X127381802Y-85308200D01*
X127491800Y-85418198D01*
X127523903Y-85444568D01*
X127555763Y-85471301D01*
X127557836Y-85472441D01*
X127559665Y-85473943D01*
X127596312Y-85493593D01*
X127632724Y-85513611D01*
X127634978Y-85514326D01*
X127637065Y-85515445D01*
X127676855Y-85527610D01*
X127716438Y-85540166D01*
X127718787Y-85540429D01*
X127721052Y-85541122D01*
X127762422Y-85545324D01*
X127803715Y-85549956D01*
X127808342Y-85549988D01*
X127808427Y-85549997D01*
X127808506Y-85549990D01*
X127809998Y-85550000D01*
X128451846Y-85550000D01*
X128427645Y-85585345D01*
X128377428Y-85702509D01*
X128350925Y-85827195D01*
X128349715Y-85913889D01*
X127413604Y-86850000D01*
X124829798Y-86850000D01*
X124869974Y-86759764D01*
X124898215Y-86635460D01*
X124900248Y-86489863D01*
X124875488Y-86364819D01*
X124826913Y-86246966D01*
X124756371Y-86140792D01*
X124666550Y-86050342D01*
X124560872Y-85979061D01*
X124443360Y-85929664D01*
X124318492Y-85904032D01*
X124191024Y-85903142D01*
X124065810Y-85927028D01*
X123947621Y-85974780D01*
X123840957Y-86044578D01*
X123780687Y-86103599D01*
X123349993Y-86103599D01*
X119598087Y-82351693D01*
X119650000Y-82351693D01*
X119705736Y-82347248D01*
X119800271Y-82317973D01*
X119882906Y-82263520D01*
X119947100Y-82188200D01*
X119986858Y-82100000D01*
X121421364Y-82100000D01*
X121377428Y-82202509D01*
X121350925Y-82327195D01*
X121349146Y-82454654D01*
X121372157Y-82580031D01*
X121419082Y-82698551D01*
X121488135Y-82805700D01*
X121576684Y-82897395D01*
X121681357Y-82970145D01*
X121798167Y-83021178D01*
X121922665Y-83048550D01*
X122050109Y-83051220D01*
X122175644Y-83029085D01*
X122294488Y-82982988D01*
X122402116Y-82914685D01*
X122494428Y-82826778D01*
X122567906Y-82722616D01*
X122619754Y-82606165D01*
X122647995Y-82481861D01*
X122650028Y-82336264D01*
X122625268Y-82211220D01*
X122579427Y-82100000D01*
X123418233Y-82100000D01*
X123502021Y-82137769D01*
X123600000Y-82151693D01*
X124400000Y-82151693D01*
X124455736Y-82147248D01*
X124550271Y-82117973D01*
X124632906Y-82063520D01*
X124697100Y-81988200D01*
X124714097Y-81950493D01*
X124799998Y-82036394D01*
X124799998Y-82830872D01*
X124749660Y-82880166D01*
X124677643Y-82985345D01*
X124627426Y-83102509D01*
X124600923Y-83227195D01*
X124599144Y-83354654D01*
X124622155Y-83480031D01*
X124669080Y-83598551D01*
X124738133Y-83705700D01*
X124826682Y-83797395D01*
X124931355Y-83870145D01*
X125048165Y-83921178D01*
X125172663Y-83948550D01*
X125300107Y-83951220D01*
X125409442Y-83931941D01*
X125413450Y-83952091D01*
X125439834Y-84015787D01*
X125478137Y-84073112D01*
X125526888Y-84121863D01*
X125584213Y-84160166D01*
X125647909Y-84186550D01*
X125715528Y-84200000D01*
X126212500Y-84200000D01*
X126300000Y-84112500D01*
X126300000Y-83600000D01*
X126280000Y-83600000D01*
X126280000Y-83500000D01*
X126300000Y-83500000D01*
X126300000Y-82987500D01*
X126212500Y-82900000D01*
X125764658Y-82900000D01*
X125756149Y-82887193D01*
X125699998Y-82830649D01*
X125699998Y-82151693D01*
X126400000Y-82151693D01*
X126455736Y-82147248D01*
X126550271Y-82117973D01*
X126632906Y-82063520D01*
X126697100Y-81988200D01*
X126737769Y-81897979D01*
X126751693Y-81800000D01*
X126751693Y-81500000D01*
X126747248Y-81444264D01*
X126717973Y-81349729D01*
X126702836Y-81326758D01*
X126710166Y-81315787D01*
X126736550Y-81252091D01*
X126750000Y-81184472D01*
X126750000Y-81137500D01*
X126662500Y-81050000D01*
X126050000Y-81050000D01*
X126050000Y-81070000D01*
X125950000Y-81070000D01*
X125950000Y-81050000D01*
X125337500Y-81050000D01*
X125250000Y-81137500D01*
X125250000Y-81184472D01*
X125257233Y-81220837D01*
X124718198Y-80681802D01*
X124704906Y-80670884D01*
X124737769Y-80597979D01*
X124751693Y-80500000D01*
X124751693Y-80200000D01*
X124747248Y-80144264D01*
X124717973Y-80049729D01*
X124663520Y-79967094D01*
X124588200Y-79902900D01*
X124497979Y-79862231D01*
X124400000Y-79848307D01*
X123600000Y-79848307D01*
X123544264Y-79852752D01*
X123449729Y-79882027D01*
X123422454Y-79900000D01*
X122936396Y-79900000D01*
X122648963Y-79612567D01*
X122650028Y-79536264D01*
X122625268Y-79411220D01*
X122576693Y-79293367D01*
X122506151Y-79187193D01*
X122416330Y-79096743D01*
X122310652Y-79025462D01*
X122209108Y-78982777D01*
X122247100Y-78938200D01*
X122287769Y-78847979D01*
X122301693Y-78750000D01*
X122301693Y-78150000D01*
X122297248Y-78094264D01*
X122267973Y-77999729D01*
X122213520Y-77917094D01*
X122138200Y-77852900D01*
X122047979Y-77812231D01*
X121950000Y-77798307D01*
X121034703Y-77798307D01*
X119923896Y-76687500D01*
X120400000Y-76687500D01*
X120400000Y-76884472D01*
X120413450Y-76952091D01*
X120439834Y-77015787D01*
X120478137Y-77073112D01*
X120526888Y-77121863D01*
X120584213Y-77160166D01*
X120647909Y-77186550D01*
X120715528Y-77200000D01*
X121212500Y-77200000D01*
X121300000Y-77112500D01*
X121300000Y-76600000D01*
X121400000Y-76600000D01*
X121400000Y-77112500D01*
X121487500Y-77200000D01*
X121984472Y-77200000D01*
X122052091Y-77186550D01*
X122115787Y-77160166D01*
X122173112Y-77121863D01*
X122221863Y-77073112D01*
X122260166Y-77015787D01*
X122286550Y-76952091D01*
X122300000Y-76884472D01*
X122300000Y-76687500D01*
X122212500Y-76600000D01*
X121400000Y-76600000D01*
X121300000Y-76600000D01*
X120487500Y-76600000D01*
X120400000Y-76687500D01*
X119923896Y-76687500D01*
X119518198Y-76281802D01*
X119486095Y-76255432D01*
X119454235Y-76228699D01*
X119452162Y-76227559D01*
X119450333Y-76226057D01*
X119430697Y-76215528D01*
X120400000Y-76215528D01*
X120400000Y-76412500D01*
X120487500Y-76500000D01*
X121300000Y-76500000D01*
X121300000Y-75987500D01*
X121400000Y-75987500D01*
X121400000Y-76500000D01*
X122212500Y-76500000D01*
X122300000Y-76412500D01*
X122300000Y-76215528D01*
X122286550Y-76147909D01*
X122260166Y-76084213D01*
X122221863Y-76026888D01*
X122173112Y-75978137D01*
X122115787Y-75939834D01*
X122052091Y-75913450D01*
X121984472Y-75900000D01*
X121487500Y-75900000D01*
X121400000Y-75987500D01*
X121300000Y-75987500D01*
X121212500Y-75900000D01*
X120715528Y-75900000D01*
X120647909Y-75913450D01*
X120584213Y-75939834D01*
X120526888Y-75978137D01*
X120478137Y-76026888D01*
X120439834Y-76084213D01*
X120413450Y-76147909D01*
X120400000Y-76215528D01*
X119430697Y-76215528D01*
X119413686Y-76206407D01*
X119377274Y-76186389D01*
X119375020Y-76185674D01*
X119372933Y-76184555D01*
X119333143Y-76172390D01*
X119293560Y-76159834D01*
X119291211Y-76159571D01*
X119288946Y-76158878D01*
X119276809Y-76157645D01*
X119216330Y-76096743D01*
X119110652Y-76025462D01*
X118993140Y-75976065D01*
X118868272Y-75950433D01*
X118740804Y-75949543D01*
X118615590Y-75973429D01*
X118497401Y-76021181D01*
X118390737Y-76090979D01*
X118299662Y-76180166D01*
X118227645Y-76285345D01*
X118177428Y-76402509D01*
X118150925Y-76527195D01*
X118149146Y-76654654D01*
X118172157Y-76780031D01*
X118219082Y-76898551D01*
X118280955Y-76994559D01*
X117763739Y-76477343D01*
X117797100Y-76438200D01*
X117837769Y-76347979D01*
X117851693Y-76250000D01*
X117851693Y-75750000D01*
X117847248Y-75694264D01*
X117817973Y-75599729D01*
X117763520Y-75517094D01*
X117744023Y-75500477D01*
X117787043Y-75450000D01*
X117964796Y-75450000D01*
X117986480Y-75482906D01*
X118061800Y-75547100D01*
X118152021Y-75587769D01*
X118250000Y-75601693D01*
X119450000Y-75601693D01*
X119505736Y-75597248D01*
X119600271Y-75567973D01*
X119682906Y-75513520D01*
X119747100Y-75438200D01*
X119787769Y-75347979D01*
X119801693Y-75250000D01*
X119801693Y-74650000D01*
X119797248Y-74594264D01*
X119767973Y-74499729D01*
X119713520Y-74417094D01*
X119638200Y-74352900D01*
X119547979Y-74312231D01*
X119450000Y-74298307D01*
X119378729Y-74298307D01*
X119419754Y-74206165D01*
X119447995Y-74081861D01*
X119450028Y-73936264D01*
X119425268Y-73811220D01*
X119379427Y-73700000D01*
X119484472Y-73700000D01*
X119552091Y-73686550D01*
X119615787Y-73660166D01*
X119673112Y-73621863D01*
X119721863Y-73573112D01*
X119760166Y-73515787D01*
X119786550Y-73452091D01*
X119800000Y-73384472D01*
X119800000Y-73187500D01*
X119712500Y-73100000D01*
X118900000Y-73100000D01*
X118900000Y-73120000D01*
X118800000Y-73120000D01*
X118800000Y-73100000D01*
X117987500Y-73100000D01*
X117900000Y-73187500D01*
X117900000Y-73384472D01*
X117913450Y-73452091D01*
X117939834Y-73515787D01*
X117962694Y-73550000D01*
X117785204Y-73550000D01*
X117763520Y-73517094D01*
X117688200Y-73452900D01*
X117597979Y-73412231D01*
X117500000Y-73398307D01*
X116700000Y-73398307D01*
X116644264Y-73402752D01*
X116549729Y-73432027D01*
X116501217Y-73463994D01*
X116488200Y-73452900D01*
X116397979Y-73412231D01*
X116300000Y-73398307D01*
X115500000Y-73398307D01*
X115444264Y-73402752D01*
X115349729Y-73432027D01*
X115267094Y-73486480D01*
X115202900Y-73561800D01*
X115162231Y-73652021D01*
X115148307Y-73750000D01*
X115148307Y-73965297D01*
X114181803Y-74931801D01*
X114155433Y-74963904D01*
X114128700Y-74995764D01*
X114127560Y-74997837D01*
X114126058Y-74999666D01*
X114106408Y-75036313D01*
X114086390Y-75072725D01*
X114085675Y-75074979D01*
X114084556Y-75077066D01*
X114072391Y-75116856D01*
X114059835Y-75156439D01*
X114059572Y-75158788D01*
X114058879Y-75161053D01*
X114054677Y-75202423D01*
X114050045Y-75243716D01*
X114050013Y-75248343D01*
X114050004Y-75248428D01*
X114050011Y-75248507D01*
X114050001Y-75249999D01*
X114050001Y-76000000D01*
X113937500Y-76000000D01*
X113850000Y-76087500D01*
X113850000Y-76550000D01*
X113870000Y-76550000D01*
X113870000Y-76650000D01*
X113850000Y-76650000D01*
X113850000Y-77112500D01*
X113937500Y-77200000D01*
X114050001Y-77200000D01*
X114050001Y-77463603D01*
X113881802Y-77631802D01*
X113855432Y-77663905D01*
X113828699Y-77695765D01*
X113827559Y-77697838D01*
X113826057Y-77699667D01*
X113806407Y-77736314D01*
X113786389Y-77772726D01*
X113785674Y-77774980D01*
X113784555Y-77777067D01*
X113778061Y-77798307D01*
X113550000Y-77798307D01*
X113494264Y-77802752D01*
X113454362Y-77815108D01*
X113447979Y-77812231D01*
X113350000Y-77798307D01*
X113050000Y-77798307D01*
X112994264Y-77802752D01*
X112954362Y-77815108D01*
X112947979Y-77812231D01*
X112850000Y-77798307D01*
X112550000Y-77798307D01*
X112494264Y-77802752D01*
X112478880Y-77807516D01*
X112918198Y-77368198D01*
X112944586Y-77336073D01*
X112971301Y-77304235D01*
X112972439Y-77302165D01*
X112973943Y-77300334D01*
X112993605Y-77263665D01*
X113013611Y-77227274D01*
X113014326Y-77225020D01*
X113015445Y-77222933D01*
X113022487Y-77199900D01*
X113055736Y-77197248D01*
X113150271Y-77167973D01*
X113198416Y-77136247D01*
X113234213Y-77160166D01*
X113297909Y-77186550D01*
X113365528Y-77200000D01*
X113662500Y-77200000D01*
X113750000Y-77112500D01*
X113750000Y-76650000D01*
X113730000Y-76650000D01*
X113730000Y-76550000D01*
X113750000Y-76550000D01*
X113750000Y-76087500D01*
X113662500Y-76000000D01*
X113365528Y-76000000D01*
X113297909Y-76013450D01*
X113234213Y-76039834D01*
X113199827Y-76062810D01*
X113188200Y-76052900D01*
X113097979Y-76012231D01*
X113000000Y-75998307D01*
X112200000Y-75998307D01*
X112144264Y-76002752D01*
X112049729Y-76032027D01*
X111967094Y-76086480D01*
X111902900Y-76161800D01*
X111862231Y-76252021D01*
X111848307Y-76350000D01*
X111848307Y-76850000D01*
X111852752Y-76905736D01*
X111882027Y-77000271D01*
X111934183Y-77079421D01*
X111381802Y-77631802D01*
X111355432Y-77663905D01*
X111328699Y-77695765D01*
X111327559Y-77697838D01*
X111326057Y-77699667D01*
X111306407Y-77736314D01*
X111286389Y-77772726D01*
X111285674Y-77774980D01*
X111284555Y-77777067D01*
X111272390Y-77816857D01*
X111259834Y-77856440D01*
X111259571Y-77858789D01*
X111258878Y-77861054D01*
X111254676Y-77902424D01*
X111250044Y-77943717D01*
X111250012Y-77948344D01*
X111250003Y-77948429D01*
X111250010Y-77948508D01*
X111250000Y-77950000D01*
X111250000Y-77968233D01*
X111212231Y-78052021D01*
X111198307Y-78150000D01*
X111198307Y-78998307D01*
X110350000Y-78998307D01*
X110294264Y-79002752D01*
X110199729Y-79032027D01*
X110117094Y-79086480D01*
X110052900Y-79161800D01*
X110012231Y-79252021D01*
X109998307Y-79350000D01*
X109998307Y-79650000D01*
X110002752Y-79705736D01*
X110015108Y-79745638D01*
X110012231Y-79752021D01*
X109998307Y-79850000D01*
X109998307Y-80150000D01*
X110002752Y-80205736D01*
X110015108Y-80245638D01*
X110012231Y-80252021D01*
X109998307Y-80350000D01*
X109998307Y-80650000D01*
X110002752Y-80705736D01*
X110015108Y-80745638D01*
X110012231Y-80752021D01*
X109998307Y-80850000D01*
X109998307Y-81150000D01*
X110002752Y-81205736D01*
X110015108Y-81245638D01*
X110012231Y-81252021D01*
X109998307Y-81350000D01*
X109998307Y-81650000D01*
X110002752Y-81705736D01*
X110015108Y-81745638D01*
X110012231Y-81752021D01*
X109998307Y-81850000D01*
X109998307Y-82050000D01*
X109086396Y-82050000D01*
X106918198Y-79881802D01*
X106886095Y-79855432D01*
X106854235Y-79828699D01*
X106852162Y-79827559D01*
X106850333Y-79826057D01*
X106813686Y-79806407D01*
X106777274Y-79786389D01*
X106775020Y-79785674D01*
X106772933Y-79784555D01*
X106733143Y-79772390D01*
X106693560Y-79759834D01*
X106691211Y-79759571D01*
X106688946Y-79758878D01*
X106647576Y-79754676D01*
X106606283Y-79750044D01*
X106601656Y-79750012D01*
X106601571Y-79750003D01*
X106601492Y-79750010D01*
X106600000Y-79750000D01*
X98286396Y-79750000D01*
X97968198Y-79431802D01*
X97936095Y-79405432D01*
X97904235Y-79378699D01*
X97902162Y-79377559D01*
X97900333Y-79376057D01*
X97863686Y-79356407D01*
X97827274Y-79336389D01*
X97825020Y-79335674D01*
X97822933Y-79334555D01*
X97783143Y-79322390D01*
X97774102Y-79319522D01*
X97767973Y-79299729D01*
X97713520Y-79217094D01*
X97638200Y-79152900D01*
X97576825Y-79125234D01*
X97600271Y-79117973D01*
X97682906Y-79063520D01*
X97747100Y-78988200D01*
X97787769Y-78897979D01*
X97801693Y-78800000D01*
X97801693Y-78200000D01*
X97797248Y-78144264D01*
X97767973Y-78049729D01*
X97713520Y-77967094D01*
X97638200Y-77902900D01*
X97547979Y-77862231D01*
X97450000Y-77848307D01*
X97300221Y-77848307D01*
X99011028Y-76137500D01*
X100550000Y-76137500D01*
X100550000Y-76534472D01*
X100563450Y-76602091D01*
X100589834Y-76665787D01*
X100628137Y-76723112D01*
X100676888Y-76771863D01*
X100734213Y-76810166D01*
X100797909Y-76836550D01*
X100865528Y-76850000D01*
X101362500Y-76850000D01*
X101450000Y-76762500D01*
X101450000Y-76050000D01*
X100637500Y-76050000D01*
X100550000Y-76137500D01*
X99011028Y-76137500D01*
X99683000Y-75465528D01*
X100550000Y-75465528D01*
X100550000Y-75862500D01*
X100637500Y-75950000D01*
X101450000Y-75950000D01*
X101450000Y-75237500D01*
X101550000Y-75237500D01*
X101550000Y-75950000D01*
X101570000Y-75950000D01*
X101570000Y-76050000D01*
X101550000Y-76050000D01*
X101550000Y-76762500D01*
X101637500Y-76850000D01*
X102134472Y-76850000D01*
X102202091Y-76836550D01*
X102265787Y-76810166D01*
X102323112Y-76771863D01*
X102371863Y-76723112D01*
X102398307Y-76683535D01*
X102398307Y-76750000D01*
X102400000Y-76771229D01*
X102400000Y-77066459D01*
X102349729Y-77082027D01*
X102267094Y-77136480D01*
X102202900Y-77211800D01*
X102162231Y-77302021D01*
X102148307Y-77400000D01*
X102148307Y-78600000D01*
X102152752Y-78655736D01*
X102182027Y-78750271D01*
X102236480Y-78832906D01*
X102311800Y-78897100D01*
X102402021Y-78937769D01*
X102500000Y-78951693D01*
X103500000Y-78951693D01*
X103555736Y-78947248D01*
X103650271Y-78917973D01*
X103732906Y-78863520D01*
X103797100Y-78788200D01*
X103837769Y-78697979D01*
X103851693Y-78600000D01*
X103851693Y-78137500D01*
X104150000Y-78137500D01*
X104150000Y-78634472D01*
X104163450Y-78702091D01*
X104189834Y-78765787D01*
X104228137Y-78823112D01*
X104276888Y-78871863D01*
X104334213Y-78910166D01*
X104397909Y-78936550D01*
X104465528Y-78950000D01*
X104862500Y-78950000D01*
X104950000Y-78862500D01*
X104950000Y-78050000D01*
X105050000Y-78050000D01*
X105050000Y-78862500D01*
X105137500Y-78950000D01*
X105534472Y-78950000D01*
X105602091Y-78936550D01*
X105665787Y-78910166D01*
X105723112Y-78871863D01*
X105771863Y-78823112D01*
X105810166Y-78765787D01*
X105836550Y-78702091D01*
X105850000Y-78634472D01*
X105850000Y-78137500D01*
X105762500Y-78050000D01*
X105050000Y-78050000D01*
X104950000Y-78050000D01*
X104237500Y-78050000D01*
X104150000Y-78137500D01*
X103851693Y-78137500D01*
X103851693Y-77650941D01*
X103975644Y-77629085D01*
X104094488Y-77582988D01*
X104150000Y-77547759D01*
X104150000Y-77862500D01*
X104237500Y-77950000D01*
X104950000Y-77950000D01*
X104950000Y-77930000D01*
X105050000Y-77930000D01*
X105050000Y-77950000D01*
X105762500Y-77950000D01*
X105850000Y-77862500D01*
X105850000Y-77365528D01*
X105836550Y-77297909D01*
X105810166Y-77234213D01*
X105771863Y-77176888D01*
X105723112Y-77128137D01*
X105665787Y-77089834D01*
X105602091Y-77063450D01*
X105534472Y-77050000D01*
X105427546Y-77050000D01*
X105482906Y-77013520D01*
X105547100Y-76938200D01*
X105587769Y-76847979D01*
X105601693Y-76750000D01*
X105601693Y-75550000D01*
X105597248Y-75494264D01*
X105567973Y-75399729D01*
X105513520Y-75317094D01*
X105438200Y-75252900D01*
X105347979Y-75212231D01*
X105250000Y-75198307D01*
X104650000Y-75198307D01*
X104594264Y-75202752D01*
X104499729Y-75232027D01*
X104417094Y-75286480D01*
X104352900Y-75361800D01*
X104312231Y-75452021D01*
X104298307Y-75550000D01*
X104298307Y-76579294D01*
X104216330Y-76496743D01*
X104110652Y-76425462D01*
X103993140Y-76376065D01*
X103868272Y-76350433D01*
X103740804Y-76349543D01*
X103701693Y-76357004D01*
X103701693Y-75550000D01*
X103697248Y-75494264D01*
X103667973Y-75399729D01*
X103613520Y-75317094D01*
X103538200Y-75252900D01*
X103447979Y-75212231D01*
X103350000Y-75198307D01*
X102750000Y-75198307D01*
X102694264Y-75202752D01*
X102599729Y-75232027D01*
X102517094Y-75286480D01*
X102452900Y-75361800D01*
X102436572Y-75398022D01*
X102436550Y-75397909D01*
X102410166Y-75334213D01*
X102371863Y-75276888D01*
X102323112Y-75228137D01*
X102265787Y-75189834D01*
X102202091Y-75163450D01*
X102134472Y-75150000D01*
X101637500Y-75150000D01*
X101550000Y-75237500D01*
X101450000Y-75237500D01*
X101362500Y-75150000D01*
X100865528Y-75150000D01*
X100797909Y-75163450D01*
X100734213Y-75189834D01*
X100676888Y-75228137D01*
X100628137Y-75276888D01*
X100589834Y-75334213D01*
X100563450Y-75397909D01*
X100550000Y-75465528D01*
X99683000Y-75465528D01*
X100548528Y-74600000D01*
X100566459Y-74600000D01*
X100582027Y-74650271D01*
X100636480Y-74732906D01*
X100711800Y-74797100D01*
X100802021Y-74837769D01*
X100900000Y-74851693D01*
X102100000Y-74851693D01*
X102155736Y-74847248D01*
X102250271Y-74817973D01*
X102332906Y-74763520D01*
X102397100Y-74688200D01*
X102434823Y-74604514D01*
X102486480Y-74682906D01*
X102561800Y-74747100D01*
X102652021Y-74787769D01*
X102750000Y-74801693D01*
X103350000Y-74801693D01*
X103405736Y-74797248D01*
X103500271Y-74767973D01*
X103523242Y-74752836D01*
X103534213Y-74760166D01*
X103597909Y-74786550D01*
X103665528Y-74800000D01*
X103862500Y-74800000D01*
X103950000Y-74712500D01*
X103950000Y-73900000D01*
X103930000Y-73900000D01*
X103930000Y-73800000D01*
X103950000Y-73800000D01*
X103950000Y-73780000D01*
X104050000Y-73780000D01*
X104050000Y-73800000D01*
X104070000Y-73800000D01*
X104070000Y-73900000D01*
X104050000Y-73900000D01*
X104050000Y-74712500D01*
X104137500Y-74800000D01*
X104334472Y-74800000D01*
X104402091Y-74786550D01*
X104465787Y-74760166D01*
X104475858Y-74753437D01*
X104552021Y-74787769D01*
X104650000Y-74801693D01*
X105250000Y-74801693D01*
X105305736Y-74797248D01*
X105400271Y-74767973D01*
X105482906Y-74713520D01*
X105547100Y-74638200D01*
X105587769Y-74547979D01*
X105601693Y-74450000D01*
X105601693Y-73399999D01*
X106749692Y-73399999D01*
X106798167Y-73421177D01*
X106922665Y-73448549D01*
X107050109Y-73451219D01*
X107175644Y-73429084D01*
X107294488Y-73382987D01*
X107402116Y-73314684D01*
X107494428Y-73226777D01*
X107567906Y-73122615D01*
X107619754Y-73006164D01*
X107647995Y-72881860D01*
X107650028Y-72736263D01*
X107645923Y-72715528D01*
X117900000Y-72715528D01*
X117900000Y-72912500D01*
X117987500Y-73000000D01*
X118800000Y-73000000D01*
X118800000Y-72487500D01*
X118900000Y-72487500D01*
X118900000Y-73000000D01*
X119712500Y-73000000D01*
X119800000Y-72912500D01*
X119800000Y-72715528D01*
X119786550Y-72647909D01*
X119760166Y-72584213D01*
X119721863Y-72526888D01*
X119673112Y-72478137D01*
X119615787Y-72439834D01*
X119552091Y-72413450D01*
X119484472Y-72400000D01*
X118987500Y-72400000D01*
X118900000Y-72487500D01*
X118800000Y-72487500D01*
X118712500Y-72400000D01*
X118215528Y-72400000D01*
X118147909Y-72413450D01*
X118084213Y-72439834D01*
X118026888Y-72478137D01*
X117978137Y-72526888D01*
X117939834Y-72584213D01*
X117913450Y-72647909D01*
X117900000Y-72715528D01*
X107645923Y-72715528D01*
X107625268Y-72611219D01*
X107576693Y-72493366D01*
X107506151Y-72387192D01*
X107416330Y-72296742D01*
X107310652Y-72225461D01*
X107193140Y-72176064D01*
X107068272Y-72150432D01*
X106940804Y-72149542D01*
X106815590Y-72173428D01*
X106749825Y-72199999D01*
X103339999Y-72199999D01*
X103284870Y-72205404D01*
X103229628Y-72210238D01*
X103226599Y-72211118D01*
X103223458Y-72211426D01*
X103170394Y-72227447D01*
X103117179Y-72242907D01*
X103114378Y-72244359D01*
X103111357Y-72245271D01*
X103062423Y-72271290D01*
X103013216Y-72296796D01*
X103010750Y-72298765D01*
X103007964Y-72300246D01*
X102965033Y-72335260D01*
X102921700Y-72369852D01*
X102917308Y-72374183D01*
X102917218Y-72374257D01*
X102917149Y-72374341D01*
X102915735Y-72375735D01*
X102625736Y-72665734D01*
X102590561Y-72708557D01*
X102554932Y-72751018D01*
X102553413Y-72753782D01*
X102551409Y-72756221D01*
X102525201Y-72805099D01*
X102498519Y-72853633D01*
X102497566Y-72856638D01*
X102496074Y-72859420D01*
X102479868Y-72912428D01*
X102463111Y-72965251D01*
X102462759Y-72968386D01*
X102461837Y-72971403D01*
X102456241Y-73026502D01*
X102452076Y-73063627D01*
X102412231Y-73152021D01*
X102398307Y-73250000D01*
X102398307Y-73319885D01*
X102363520Y-73267094D01*
X102288200Y-73202900D01*
X102197979Y-73162231D01*
X102100000Y-73148307D01*
X100900000Y-73148307D01*
X100844264Y-73152752D01*
X100749729Y-73182027D01*
X100667094Y-73236480D01*
X100602900Y-73311800D01*
X100563142Y-73400000D01*
X100300000Y-73400000D01*
X100244830Y-73405409D01*
X100189629Y-73410239D01*
X100186600Y-73411119D01*
X100183459Y-73411427D01*
X100130362Y-73427458D01*
X100077179Y-73442909D01*
X100074381Y-73444359D01*
X100071358Y-73445272D01*
X100022427Y-73471289D01*
X99973216Y-73496797D01*
X99970748Y-73498767D01*
X99967965Y-73500247D01*
X99925050Y-73535248D01*
X99881700Y-73569854D01*
X99877309Y-73574184D01*
X99877219Y-73574258D01*
X99877150Y-73574342D01*
X99875736Y-73575736D01*
X96175736Y-77275736D01*
X96140561Y-77318559D01*
X96104932Y-77361020D01*
X96103413Y-77363784D01*
X96101409Y-77366223D01*
X96075201Y-77415101D01*
X96048519Y-77463635D01*
X96047566Y-77466640D01*
X96046074Y-77469422D01*
X96029865Y-77522440D01*
X96013111Y-77575253D01*
X96012759Y-77578388D01*
X96011837Y-77581405D01*
X96006243Y-77636482D01*
X96000058Y-77691623D01*
X96000015Y-77697795D01*
X96000004Y-77697906D01*
X96000014Y-77698009D01*
X96000000Y-77700000D01*
X96000000Y-77848307D01*
X95750000Y-77848307D01*
X95694264Y-77852752D01*
X95599729Y-77882027D01*
X95517094Y-77936480D01*
X95452900Y-78011800D01*
X95412231Y-78102021D01*
X95398307Y-78200000D01*
X91385401Y-78200000D01*
X91564406Y-77591794D01*
X91851590Y-77042464D01*
X91863450Y-77102091D01*
X91889834Y-77165787D01*
X91928137Y-77223112D01*
X91976888Y-77271863D01*
X92034213Y-77310166D01*
X92097909Y-77336550D01*
X92165528Y-77350000D01*
X93412500Y-77350000D01*
X93500000Y-77262500D01*
X93500000Y-76550000D01*
X93600000Y-76550000D01*
X93600000Y-77262500D01*
X93687500Y-77350000D01*
X94934472Y-77350000D01*
X95002091Y-77336550D01*
X95065787Y-77310166D01*
X95123112Y-77271863D01*
X95171863Y-77223112D01*
X95210166Y-77165787D01*
X95236550Y-77102091D01*
X95250000Y-77034472D01*
X95250000Y-76637500D01*
X95162500Y-76550000D01*
X93600000Y-76550000D01*
X93500000Y-76550000D01*
X93480000Y-76550000D01*
X93480000Y-76450000D01*
X93500000Y-76450000D01*
X93500000Y-75737500D01*
X93600000Y-75737500D01*
X93600000Y-76450000D01*
X95162500Y-76450000D01*
X95250000Y-76362500D01*
X95250000Y-75965528D01*
X95236550Y-75897909D01*
X95210166Y-75834213D01*
X95171863Y-75776888D01*
X95123112Y-75728137D01*
X95065787Y-75689834D01*
X95002091Y-75663450D01*
X94934472Y-75650000D01*
X93687500Y-75650000D01*
X93600000Y-75737500D01*
X93500000Y-75737500D01*
X93412500Y-75650000D01*
X92683110Y-75650000D01*
X93499670Y-74634406D01*
X94859884Y-73493050D01*
X96415888Y-72637630D01*
X98108402Y-72100733D01*
X99891115Y-71900770D01*
X100001360Y-71900000D01*
X137584314Y-71900000D01*
X137679111Y-71994796D01*
X137679111Y-71994796D01*
G37*
X137679111Y-71994796D02*
X137018800Y-72655107D01*
X137018800Y-72778851D01*
X137522614Y-73282664D01*
X137536756Y-73268522D01*
X137607467Y-73339233D01*
X137593325Y-73353375D01*
X138097138Y-73857189D01*
X138220882Y-73857189D01*
X138881193Y-73196878D01*
X143053122Y-77368807D01*
X142392811Y-78029118D01*
X142392811Y-78152862D01*
X142896625Y-78656675D01*
X142910767Y-78642533D01*
X142981478Y-78713244D01*
X142967336Y-78727386D01*
X143471149Y-79231200D01*
X143594893Y-79231200D01*
X144100000Y-78726093D01*
X144100000Y-83273907D01*
X143594893Y-82768800D01*
X143471149Y-82768800D01*
X142967336Y-83272614D01*
X142981478Y-83286756D01*
X142910767Y-83357467D01*
X142896625Y-83343325D01*
X142392811Y-83847138D01*
X142392811Y-83970882D01*
X143053122Y-84631193D01*
X138881193Y-88803122D01*
X138220882Y-88142811D01*
X138097138Y-88142811D01*
X137593325Y-88646625D01*
X137607467Y-88660767D01*
X137536756Y-88731478D01*
X137522614Y-88717336D01*
X137018800Y-89221149D01*
X137018800Y-89344893D01*
X137679111Y-90005204D01*
X137584314Y-90100000D01*
X136600000Y-90100000D01*
X136600000Y-90037500D01*
X136512500Y-89950000D01*
X135300000Y-89950000D01*
X135300000Y-89970000D01*
X135200000Y-89970000D01*
X135200000Y-89950000D01*
X133987500Y-89950000D01*
X133900000Y-90037500D01*
X133900000Y-90100000D01*
X129600000Y-90100000D01*
X129600000Y-90037500D01*
X129512500Y-89950000D01*
X128300000Y-89950000D01*
X128300000Y-89970000D01*
X128200000Y-89970000D01*
X128200000Y-89950000D01*
X126987500Y-89950000D01*
X126900000Y-90037500D01*
X126900000Y-90100000D01*
X100019564Y-90100000D01*
X98232842Y-89924810D01*
X96532990Y-89411595D01*
X94965199Y-88577986D01*
X93589179Y-87455731D01*
X92674438Y-86350000D01*
X93412500Y-86350000D01*
X93500000Y-86262500D01*
X93500000Y-85550000D01*
X93600000Y-85550000D01*
X93600000Y-86262500D01*
X93687500Y-86350000D01*
X94934472Y-86350000D01*
X95002091Y-86336550D01*
X95065787Y-86310166D01*
X95123112Y-86271863D01*
X95171863Y-86223112D01*
X95210166Y-86165787D01*
X95236550Y-86102091D01*
X95250000Y-86034472D01*
X95250000Y-85637500D01*
X95162500Y-85550000D01*
X93600000Y-85550000D01*
X93500000Y-85550000D01*
X93480000Y-85550000D01*
X93480000Y-85450000D01*
X93500000Y-85450000D01*
X93500000Y-84737500D01*
X93600000Y-84737500D01*
X93600000Y-85450000D01*
X95162500Y-85450000D01*
X95250000Y-85362500D01*
X95250000Y-84965528D01*
X95236550Y-84897909D01*
X95210166Y-84834213D01*
X95171863Y-84776888D01*
X95123112Y-84728137D01*
X95065787Y-84689834D01*
X95002091Y-84663450D01*
X94934472Y-84650000D01*
X93687500Y-84650000D01*
X93600000Y-84737500D01*
X93500000Y-84737500D01*
X93412500Y-84650000D01*
X92165528Y-84650000D01*
X92097909Y-84663450D01*
X92034213Y-84689834D01*
X91976888Y-84728137D01*
X91928137Y-84776888D01*
X91889834Y-84834213D01*
X91863450Y-84897909D01*
X91850176Y-84964642D01*
X91612813Y-84525648D01*
X91337886Y-83637500D01*
X95400000Y-83637500D01*
X95400000Y-83834472D01*
X95413450Y-83902091D01*
X95439834Y-83965787D01*
X95478137Y-84023112D01*
X95526888Y-84071863D01*
X95584213Y-84110166D01*
X95647909Y-84136550D01*
X95715528Y-84150000D01*
X96462500Y-84150000D01*
X96550000Y-84062500D01*
X96550000Y-83550000D01*
X96650000Y-83550000D01*
X96650000Y-84062500D01*
X96737500Y-84150000D01*
X97484472Y-84150000D01*
X97552091Y-84136550D01*
X97615787Y-84110166D01*
X97673112Y-84071863D01*
X97721863Y-84023112D01*
X97760166Y-83965787D01*
X97786550Y-83902091D01*
X97800000Y-83834472D01*
X97800000Y-83637500D01*
X99900000Y-83637500D01*
X99900000Y-83934472D01*
X99913450Y-84002091D01*
X99939834Y-84065787D01*
X99978137Y-84123112D01*
X100026888Y-84171863D01*
X100084213Y-84210166D01*
X100147909Y-84236550D01*
X100215528Y-84250000D01*
X100362500Y-84250000D01*
X100450000Y-84162500D01*
X100450000Y-83550000D01*
X100550000Y-83550000D01*
X100550000Y-84162500D01*
X100637500Y-84250000D01*
X100784472Y-84250000D01*
X100852091Y-84236550D01*
X100915787Y-84210166D01*
X100973112Y-84171863D01*
X101021863Y-84123112D01*
X101060166Y-84065787D01*
X101086550Y-84002091D01*
X101100000Y-83934472D01*
X101100000Y-83637500D01*
X101012500Y-83550000D01*
X100550000Y-83550000D01*
X100450000Y-83550000D01*
X99987500Y-83550000D01*
X99900000Y-83637500D01*
X97800000Y-83637500D01*
X97712500Y-83550000D01*
X96650000Y-83550000D01*
X96550000Y-83550000D01*
X95487500Y-83550000D01*
X95400000Y-83637500D01*
X91337886Y-83637500D01*
X91087745Y-82829426D01*
X90902141Y-81063516D01*
X91063070Y-79295190D01*
X91385401Y-78200000D01*
X95398307Y-78200000D01*
X95398307Y-78800000D01*
X95402752Y-78855736D01*
X95432027Y-78950271D01*
X95486480Y-79032906D01*
X95561800Y-79097100D01*
X95623175Y-79124766D01*
X95599729Y-79132027D01*
X95517094Y-79186480D01*
X95452900Y-79261800D01*
X95412231Y-79352021D01*
X95398307Y-79450000D01*
X95398307Y-80050000D01*
X95402752Y-80105736D01*
X95432027Y-80200271D01*
X95486480Y-80282906D01*
X95561800Y-80347100D01*
X95623175Y-80374766D01*
X95599729Y-80382027D01*
X95517094Y-80436480D01*
X95452900Y-80511800D01*
X95412231Y-80602021D01*
X95398307Y-80700000D01*
X95398307Y-81300000D01*
X95402752Y-81355736D01*
X95432027Y-81450271D01*
X95486480Y-81532906D01*
X95561800Y-81597100D01*
X95623175Y-81624766D01*
X95599729Y-81632027D01*
X95517094Y-81686480D01*
X95452900Y-81761800D01*
X95412231Y-81852021D01*
X95398307Y-81950000D01*
X95398307Y-82550000D01*
X95402752Y-82605736D01*
X95432027Y-82700271D01*
X95486480Y-82782906D01*
X95561800Y-82847100D01*
X95621937Y-82874208D01*
X95584213Y-82889834D01*
X95526888Y-82928137D01*
X95478137Y-82976888D01*
X95439834Y-83034213D01*
X95413450Y-83097909D01*
X95400000Y-83165528D01*
X95400000Y-83362500D01*
X95487500Y-83450000D01*
X96550000Y-83450000D01*
X96550000Y-83430000D01*
X96650000Y-83430000D01*
X96650000Y-83450000D01*
X97712500Y-83450000D01*
X97800000Y-83362500D01*
X97800000Y-83250000D01*
X99400000Y-83250000D01*
X99441339Y-83245947D01*
X99482778Y-83242321D01*
X99485050Y-83241661D01*
X99487405Y-83241430D01*
X99527204Y-83229414D01*
X99567115Y-83217819D01*
X99569215Y-83216730D01*
X99571482Y-83216046D01*
X99608251Y-83196495D01*
X99645087Y-83177401D01*
X99646931Y-83175929D01*
X99649026Y-83174815D01*
X99681276Y-83148512D01*
X99713724Y-83122610D01*
X99717018Y-83119362D01*
X99717085Y-83119307D01*
X99717136Y-83119245D01*
X99718198Y-83118198D01*
X99953515Y-82882881D01*
X99963753Y-82898416D01*
X99939834Y-82934213D01*
X99913450Y-82997909D01*
X99900000Y-83065528D01*
X99900000Y-83362500D01*
X99987500Y-83450000D01*
X100450000Y-83450000D01*
X100450000Y-83430000D01*
X100550000Y-83430000D01*
X100550000Y-83450000D01*
X101012500Y-83450000D01*
X101100000Y-83362500D01*
X101100000Y-83065528D01*
X101086550Y-82997909D01*
X101060166Y-82934213D01*
X101037190Y-82899827D01*
X101047100Y-82888200D01*
X101087769Y-82797979D01*
X101094587Y-82750000D01*
X102113604Y-82750000D01*
X102917578Y-83553974D01*
X102815590Y-83573429D01*
X102697401Y-83621181D01*
X102590737Y-83690979D01*
X102499662Y-83780166D01*
X102427645Y-83885345D01*
X102377428Y-84002509D01*
X102350925Y-84127195D01*
X102349146Y-84254654D01*
X102372157Y-84380031D01*
X102419082Y-84498551D01*
X102488135Y-84605700D01*
X102576684Y-84697395D01*
X102681357Y-84770145D01*
X102798167Y-84821178D01*
X102922665Y-84848550D01*
X103014069Y-84850465D01*
X105481802Y-87318198D01*
X105513905Y-87344568D01*
X105545765Y-87371301D01*
X105547838Y-87372441D01*
X105549667Y-87373943D01*
X105586314Y-87393593D01*
X105622726Y-87413611D01*
X105624980Y-87414326D01*
X105627067Y-87415445D01*
X105666857Y-87427610D01*
X105706440Y-87440166D01*
X105708789Y-87440429D01*
X105711054Y-87441122D01*
X105752424Y-87445324D01*
X105793717Y-87449956D01*
X105798344Y-87449988D01*
X105798429Y-87449997D01*
X105798508Y-87449990D01*
X105800000Y-87450000D01*
X110648307Y-87450000D01*
X110648307Y-87625000D01*
X110652752Y-87680736D01*
X110682027Y-87775271D01*
X110736480Y-87857906D01*
X110811800Y-87922100D01*
X110902021Y-87962769D01*
X111000000Y-87976693D01*
X112800000Y-87976693D01*
X112855736Y-87972248D01*
X112950271Y-87942973D01*
X113032906Y-87888520D01*
X113097100Y-87813200D01*
X113137769Y-87722979D01*
X113151693Y-87625000D01*
X113151693Y-87137500D01*
X113250000Y-87137500D01*
X113250000Y-87659472D01*
X113263450Y-87727091D01*
X113289834Y-87790787D01*
X113328137Y-87848112D01*
X113376888Y-87896863D01*
X113434213Y-87935166D01*
X113497909Y-87961550D01*
X113565528Y-87975000D01*
X114362500Y-87975000D01*
X114450000Y-87887500D01*
X114450000Y-87050000D01*
X114550000Y-87050000D01*
X114550000Y-87887500D01*
X114637500Y-87975000D01*
X115434472Y-87975000D01*
X115502091Y-87961550D01*
X115565787Y-87935166D01*
X115623112Y-87896863D01*
X115671863Y-87848112D01*
X115710166Y-87790787D01*
X115736550Y-87727091D01*
X115750000Y-87659472D01*
X115750000Y-87137500D01*
X115662500Y-87050000D01*
X114550000Y-87050000D01*
X114450000Y-87050000D01*
X113337500Y-87050000D01*
X113250000Y-87137500D01*
X113151693Y-87137500D01*
X113151693Y-86375000D01*
X113148944Y-86340528D01*
X113250000Y-86340528D01*
X113250000Y-86862500D01*
X113337500Y-86950000D01*
X114450000Y-86950000D01*
X114450000Y-86112500D01*
X114550000Y-86112500D01*
X114550000Y-86950000D01*
X115662500Y-86950000D01*
X115750000Y-86862500D01*
X115750000Y-86340528D01*
X115736550Y-86272909D01*
X115710166Y-86209213D01*
X115671863Y-86151888D01*
X115623112Y-86103137D01*
X115565787Y-86064834D01*
X115502091Y-86038450D01*
X115434472Y-86025000D01*
X114637500Y-86025000D01*
X114550000Y-86112500D01*
X114450000Y-86112500D01*
X114362500Y-86025000D01*
X113565528Y-86025000D01*
X113497909Y-86038450D01*
X113434213Y-86064834D01*
X113376888Y-86103137D01*
X113328137Y-86151888D01*
X113289834Y-86209213D01*
X113263450Y-86272909D01*
X113250000Y-86340528D01*
X113148944Y-86340528D01*
X113147248Y-86319264D01*
X113117973Y-86224729D01*
X113063520Y-86142094D01*
X113047473Y-86128418D01*
X113049956Y-86106283D01*
X113049988Y-86101656D01*
X113049997Y-86101571D01*
X113049990Y-86101492D01*
X113050000Y-86100000D01*
X113050000Y-85997705D01*
X113055736Y-85997248D01*
X113150271Y-85967973D01*
X113198416Y-85936247D01*
X113234213Y-85960166D01*
X113297909Y-85986550D01*
X113365528Y-86000000D01*
X113662500Y-86000000D01*
X113750000Y-85912500D01*
X113750000Y-85450000D01*
X113850000Y-85450000D01*
X113850000Y-85912500D01*
X113937500Y-86000000D01*
X114234472Y-86000000D01*
X114302091Y-85986550D01*
X114365787Y-85960166D01*
X114423112Y-85921863D01*
X114471863Y-85873112D01*
X114510166Y-85815787D01*
X114536550Y-85752091D01*
X114550000Y-85684472D01*
X114550000Y-85537500D01*
X114462500Y-85450000D01*
X113850000Y-85450000D01*
X113750000Y-85450000D01*
X113730000Y-85450000D01*
X113730000Y-85350000D01*
X113750000Y-85350000D01*
X113750000Y-84887500D01*
X113850000Y-84887500D01*
X113850000Y-85350000D01*
X114462500Y-85350000D01*
X114550000Y-85262500D01*
X114550000Y-85115528D01*
X114536550Y-85047909D01*
X114510166Y-84984213D01*
X114471863Y-84926888D01*
X114423112Y-84878137D01*
X114365787Y-84839834D01*
X114302091Y-84813450D01*
X114234472Y-84800000D01*
X113937500Y-84800000D01*
X113850000Y-84887500D01*
X113750000Y-84887500D01*
X113662500Y-84800000D01*
X113636396Y-84800000D01*
X114018198Y-84418198D01*
X114044568Y-84386095D01*
X114071301Y-84354235D01*
X114072441Y-84352162D01*
X114073943Y-84350333D01*
X114093593Y-84313686D01*
X114113611Y-84277274D01*
X114114326Y-84275020D01*
X114115445Y-84272933D01*
X114127610Y-84233143D01*
X114140166Y-84193560D01*
X114140429Y-84191211D01*
X114141122Y-84188946D01*
X114145324Y-84147576D01*
X114149165Y-84113335D01*
X114150000Y-84112500D01*
X114150000Y-84031767D01*
X114187769Y-83947979D01*
X114199524Y-83865262D01*
X114202752Y-83905736D01*
X114232027Y-84000271D01*
X114250000Y-84027546D01*
X114250000Y-84112500D01*
X114337500Y-84200000D01*
X114384472Y-84200000D01*
X114450166Y-84186933D01*
X114452021Y-84187769D01*
X114550000Y-84201693D01*
X114850000Y-84201693D01*
X114905736Y-84197248D01*
X115000271Y-84167973D01*
X115082906Y-84113520D01*
X115147100Y-84038200D01*
X115187769Y-83947979D01*
X115201693Y-83850000D01*
X115201693Y-83001693D01*
X116050000Y-83001693D01*
X116105736Y-82997248D01*
X116200271Y-82967973D01*
X116282906Y-82913520D01*
X116347100Y-82838200D01*
X116387769Y-82747979D01*
X116401693Y-82650000D01*
X116401693Y-82450000D01*
X116613604Y-82450000D01*
X122581802Y-88418198D01*
X122613905Y-88444568D01*
X122645765Y-88471301D01*
X122647838Y-88472441D01*
X122649667Y-88473943D01*
X122686314Y-88493593D01*
X122722726Y-88513611D01*
X122724980Y-88514326D01*
X122727067Y-88515445D01*
X122766857Y-88527610D01*
X122806440Y-88540166D01*
X122808789Y-88540429D01*
X122811054Y-88541122D01*
X122852424Y-88545324D01*
X122893717Y-88549956D01*
X122898344Y-88549988D01*
X122898429Y-88549997D01*
X122898508Y-88549990D01*
X122900000Y-88550000D01*
X127067333Y-88550000D01*
X127050925Y-88627195D01*
X127049146Y-88754654D01*
X127072157Y-88880031D01*
X127119082Y-88998551D01*
X127159430Y-89061158D01*
X127147909Y-89063450D01*
X127084213Y-89089834D01*
X127026888Y-89128137D01*
X126978137Y-89176888D01*
X126939834Y-89234213D01*
X126913450Y-89297909D01*
X126900000Y-89365528D01*
X126900000Y-89762500D01*
X126987500Y-89850000D01*
X128200000Y-89850000D01*
X128200000Y-89137500D01*
X128300000Y-89137500D01*
X128300000Y-89850000D01*
X129512500Y-89850000D01*
X129600000Y-89762500D01*
X129600000Y-89365528D01*
X129586550Y-89297909D01*
X129560166Y-89234213D01*
X129521863Y-89176888D01*
X129473112Y-89128137D01*
X129415787Y-89089834D01*
X129352091Y-89063450D01*
X129284472Y-89050000D01*
X128387500Y-89050000D01*
X128300000Y-89137500D01*
X128200000Y-89137500D01*
X128191790Y-89129290D01*
X128194428Y-89126778D01*
X128267906Y-89022616D01*
X128319754Y-88906165D01*
X128347995Y-88781861D01*
X128350028Y-88636264D01*
X128325268Y-88511220D01*
X128276693Y-88393367D01*
X128206151Y-88287193D01*
X128145195Y-88225811D01*
X128142321Y-88192958D01*
X128141661Y-88190686D01*
X128141430Y-88188331D01*
X128129418Y-88148546D01*
X128121007Y-88119593D01*
X128127113Y-88117819D01*
X128129213Y-88116730D01*
X128131480Y-88116046D01*
X128168249Y-88096495D01*
X128205085Y-88077401D01*
X128206929Y-88075929D01*
X128209024Y-88074815D01*
X128241274Y-88048512D01*
X128273722Y-88022610D01*
X128277016Y-88019362D01*
X128277083Y-88019307D01*
X128277134Y-88019245D01*
X128278196Y-88018198D01*
X128798307Y-87498087D01*
X128798307Y-88450000D01*
X128802752Y-88505736D01*
X128832027Y-88600271D01*
X128886480Y-88682906D01*
X128961800Y-88747100D01*
X129052021Y-88787769D01*
X129150000Y-88801693D01*
X129865297Y-88801693D01*
X130381802Y-89318198D01*
X130413927Y-89344586D01*
X130445765Y-89371301D01*
X130447835Y-89372439D01*
X130449666Y-89373943D01*
X130486335Y-89393605D01*
X130522726Y-89413611D01*
X130524980Y-89414326D01*
X130527067Y-89415445D01*
X130566857Y-89427610D01*
X130606440Y-89440166D01*
X130608789Y-89440429D01*
X130611054Y-89441122D01*
X130652424Y-89445324D01*
X130693717Y-89449956D01*
X130698344Y-89449988D01*
X130698429Y-89449997D01*
X130698508Y-89449990D01*
X130700000Y-89450000D01*
X133030915Y-89450000D01*
X133076684Y-89497395D01*
X133181357Y-89570145D01*
X133298167Y-89621178D01*
X133422665Y-89648550D01*
X133550109Y-89651220D01*
X133675644Y-89629085D01*
X133794488Y-89582988D01*
X133900000Y-89516028D01*
X133900000Y-89762500D01*
X133987500Y-89850000D01*
X135200000Y-89850000D01*
X135200000Y-89137500D01*
X135300000Y-89137500D01*
X135300000Y-89850000D01*
X136512500Y-89850000D01*
X136600000Y-89762500D01*
X136600000Y-89365528D01*
X136586550Y-89297909D01*
X136560166Y-89234213D01*
X136521863Y-89176888D01*
X136473112Y-89128137D01*
X136415787Y-89089834D01*
X136352091Y-89063450D01*
X136284472Y-89050000D01*
X135387500Y-89050000D01*
X135300000Y-89137500D01*
X135200000Y-89137500D01*
X135112500Y-89050000D01*
X134215528Y-89050000D01*
X134148253Y-89063382D01*
X134150028Y-88936264D01*
X134125268Y-88811220D01*
X134120643Y-88800000D01*
X134384472Y-88800000D01*
X134452091Y-88786550D01*
X134515787Y-88760166D01*
X134573112Y-88721863D01*
X134621863Y-88673112D01*
X134660166Y-88615787D01*
X134686550Y-88552091D01*
X134700000Y-88484472D01*
X134700000Y-88011112D01*
X135864466Y-88011112D01*
X135864466Y-88080056D01*
X135877917Y-88147676D01*
X135904300Y-88211372D01*
X135942604Y-88268696D01*
X135991354Y-88317447D01*
X136824346Y-89150439D01*
X136948090Y-89150439D01*
X137451903Y-88646625D01*
X136347049Y-87541771D01*
X136223305Y-87541771D01*
X135942604Y-87822472D01*
X135904300Y-87879797D01*
X135877917Y-87943493D01*
X135864466Y-88011112D01*
X134700000Y-88011112D01*
X134700000Y-87887500D01*
X134612500Y-87800000D01*
X133900000Y-87800000D01*
X133900000Y-87820000D01*
X133800000Y-87820000D01*
X133800000Y-87800000D01*
X133087500Y-87800000D01*
X133000000Y-87887500D01*
X133000000Y-88484472D01*
X133013034Y-88550000D01*
X130886396Y-88550000D01*
X130507119Y-88170723D01*
X130517115Y-88167819D01*
X130519215Y-88166730D01*
X130521482Y-88166046D01*
X130558251Y-88146495D01*
X130595087Y-88127401D01*
X130596931Y-88125929D01*
X130599026Y-88124815D01*
X130631276Y-88098512D01*
X130663724Y-88072610D01*
X130667018Y-88069362D01*
X130667085Y-88069307D01*
X130667136Y-88069245D01*
X130668198Y-88068198D01*
X131018198Y-87718198D01*
X131044568Y-87686095D01*
X131071301Y-87654235D01*
X131072441Y-87652162D01*
X131073943Y-87650333D01*
X131093593Y-87613686D01*
X131113611Y-87577274D01*
X131114326Y-87575020D01*
X131115445Y-87572933D01*
X131127610Y-87533143D01*
X131140166Y-87493560D01*
X131140429Y-87491211D01*
X131141122Y-87488946D01*
X131145324Y-87447576D01*
X131149956Y-87406283D01*
X131149988Y-87401656D01*
X131149997Y-87401571D01*
X131149990Y-87401492D01*
X131150000Y-87400000D01*
X131150000Y-87015528D01*
X133000000Y-87015528D01*
X133000000Y-87612500D01*
X133087500Y-87700000D01*
X133800000Y-87700000D01*
X133800000Y-86787500D01*
X133900000Y-86787500D01*
X133900000Y-87700000D01*
X134612500Y-87700000D01*
X134700000Y-87612500D01*
X134700000Y-87347316D01*
X136417760Y-87347316D01*
X136417760Y-87471060D01*
X137522614Y-88575914D01*
X138026428Y-88072101D01*
X138026428Y-87948357D01*
X137193436Y-87115365D01*
X137144685Y-87066615D01*
X137087361Y-87028311D01*
X137023665Y-87001928D01*
X136956045Y-86988477D01*
X136887101Y-86988477D01*
X136819482Y-87001928D01*
X136755786Y-87028311D01*
X136698461Y-87066615D01*
X136417760Y-87347316D01*
X134700000Y-87347316D01*
X134700000Y-87043567D01*
X134722665Y-87048550D01*
X134850109Y-87051220D01*
X134975644Y-87029085D01*
X135094488Y-86982988D01*
X135202116Y-86914685D01*
X135270042Y-86850000D01*
X135455888Y-86850000D01*
X135497227Y-86845947D01*
X135538666Y-86842321D01*
X135540938Y-86841661D01*
X135543293Y-86841430D01*
X135583092Y-86829414D01*
X135623003Y-86817819D01*
X135625103Y-86816730D01*
X135627370Y-86816046D01*
X135664139Y-86796495D01*
X135700975Y-86777401D01*
X135702819Y-86775929D01*
X135704914Y-86774815D01*
X135737164Y-86748512D01*
X135769612Y-86722610D01*
X135772906Y-86719362D01*
X135772973Y-86719307D01*
X135773024Y-86719245D01*
X135774086Y-86718198D01*
X136584500Y-85907784D01*
X136867343Y-86190627D01*
X136909898Y-86226895D01*
X136997445Y-86273040D01*
X137094381Y-86292968D01*
X137193032Y-86285101D01*
X137285585Y-86250063D01*
X137364713Y-86190627D01*
X137788977Y-85766363D01*
X137825245Y-85723808D01*
X137871390Y-85636261D01*
X137891318Y-85539325D01*
X137883451Y-85440674D01*
X137859615Y-85377711D01*
X137881328Y-85389156D01*
X137978264Y-85409084D01*
X138076915Y-85401217D01*
X138169468Y-85366179D01*
X138248596Y-85306743D01*
X138672860Y-84882479D01*
X138709128Y-84839924D01*
X138755273Y-84752377D01*
X138775201Y-84655441D01*
X138767334Y-84556790D01*
X138743499Y-84493829D01*
X138765211Y-84505273D01*
X138812328Y-84514959D01*
X138827656Y-84527821D01*
X138830420Y-84529340D01*
X138832859Y-84531344D01*
X138881737Y-84557552D01*
X138930271Y-84584234D01*
X138933276Y-84585187D01*
X138936058Y-84586679D01*
X138989076Y-84602888D01*
X139041889Y-84619642D01*
X139045024Y-84619994D01*
X139048041Y-84620916D01*
X139103140Y-84626512D01*
X139158259Y-84632695D01*
X139164431Y-84632738D01*
X139164542Y-84632749D01*
X139164645Y-84632739D01*
X139166636Y-84632753D01*
X139967247Y-84632753D01*
X140022417Y-84627344D01*
X140077618Y-84622514D01*
X140080647Y-84621634D01*
X140083788Y-84621326D01*
X140136885Y-84605295D01*
X140190068Y-84589844D01*
X140192866Y-84588394D01*
X140195889Y-84587481D01*
X140244820Y-84561464D01*
X140294031Y-84535956D01*
X140296499Y-84533986D01*
X140299282Y-84532506D01*
X140342197Y-84497505D01*
X140385547Y-84462899D01*
X140389938Y-84458569D01*
X140390028Y-84458495D01*
X140390097Y-84458411D01*
X140391511Y-84457017D01*
X141247197Y-83601331D01*
X141294488Y-83582988D01*
X141402116Y-83514685D01*
X141494428Y-83426778D01*
X141567906Y-83322616D01*
X141619754Y-83206165D01*
X141621298Y-83199369D01*
X142198357Y-83776428D01*
X142322101Y-83776428D01*
X142825914Y-83272614D01*
X141721060Y-82167760D01*
X141597316Y-82167760D01*
X141327948Y-82437128D01*
X141310652Y-82425462D01*
X141193140Y-82376065D01*
X141068272Y-82350433D01*
X140940804Y-82349543D01*
X140815590Y-82373429D01*
X140697401Y-82421181D01*
X140590737Y-82490979D01*
X140499662Y-82580166D01*
X140459586Y-82638697D01*
X139935616Y-82114727D01*
X139811872Y-82114727D01*
X139449480Y-82477119D01*
X139463622Y-82491261D01*
X139392911Y-82561972D01*
X139378769Y-82547830D01*
X139364627Y-82561972D01*
X139293916Y-82491261D01*
X139308058Y-82477119D01*
X138556757Y-81725818D01*
X138433014Y-81725818D01*
X138293733Y-81865098D01*
X138255430Y-81922423D01*
X138229047Y-81986119D01*
X138215596Y-82053738D01*
X138215596Y-82122682D01*
X138229047Y-82190302D01*
X138244305Y-82227139D01*
X138224559Y-82216731D01*
X138127623Y-82196803D01*
X138028972Y-82204670D01*
X137936419Y-82239708D01*
X137857291Y-82299144D01*
X137433027Y-82723408D01*
X137396759Y-82765963D01*
X137350614Y-82853510D01*
X137330686Y-82950446D01*
X137338553Y-83049097D01*
X137362388Y-83112058D01*
X137340676Y-83100614D01*
X137243740Y-83080686D01*
X137145089Y-83088553D01*
X137052536Y-83123591D01*
X137037902Y-83134583D01*
X137032811Y-83132968D01*
X137030462Y-83132705D01*
X137028197Y-83132012D01*
X136986827Y-83127810D01*
X136945534Y-83123178D01*
X136940907Y-83123146D01*
X136940822Y-83123137D01*
X136940743Y-83123144D01*
X136939251Y-83123134D01*
X136402602Y-83123134D01*
X136361217Y-83127192D01*
X136319823Y-83130814D01*
X136317556Y-83131473D01*
X136315197Y-83131704D01*
X136275336Y-83143739D01*
X136235486Y-83155316D01*
X136233389Y-83156403D01*
X136231120Y-83157088D01*
X136194354Y-83176637D01*
X136157514Y-83195733D01*
X136155668Y-83197207D01*
X136153576Y-83198319D01*
X136121341Y-83224609D01*
X136088877Y-83250525D01*
X136085584Y-83253772D01*
X136085517Y-83253827D01*
X136085466Y-83253889D01*
X136084404Y-83254936D01*
X134481802Y-84857538D01*
X134455432Y-84889641D01*
X134428699Y-84921501D01*
X134427559Y-84923574D01*
X134426057Y-84925403D01*
X134406407Y-84962050D01*
X134386389Y-84998462D01*
X134385674Y-85000716D01*
X134384555Y-85002803D01*
X134372390Y-85042593D01*
X134359834Y-85082176D01*
X134359571Y-85084525D01*
X134358878Y-85086790D01*
X134354887Y-85126086D01*
X134299662Y-85180166D01*
X134227645Y-85285345D01*
X134177428Y-85402509D01*
X134150925Y-85527195D01*
X134149146Y-85654654D01*
X134172157Y-85780031D01*
X134219082Y-85898551D01*
X134285247Y-86001219D01*
X134227645Y-86085345D01*
X134177428Y-86202509D01*
X134150925Y-86327195D01*
X134149146Y-86454654D01*
X134172157Y-86580031D01*
X134219082Y-86698551D01*
X134220016Y-86700000D01*
X133987500Y-86700000D01*
X133900000Y-86787500D01*
X133800000Y-86787500D01*
X133712500Y-86700000D01*
X133315528Y-86700000D01*
X133247909Y-86713450D01*
X133184213Y-86739834D01*
X133126888Y-86778137D01*
X133078137Y-86826888D01*
X133039834Y-86884213D01*
X133013450Y-86947909D01*
X133000000Y-87015528D01*
X131150000Y-87015528D01*
X131150000Y-86200000D01*
X131145947Y-86158661D01*
X131142321Y-86117222D01*
X131141661Y-86114950D01*
X131141430Y-86112595D01*
X131129414Y-86072796D01*
X131117819Y-86032885D01*
X131116730Y-86030785D01*
X131116046Y-86028518D01*
X131096495Y-85991749D01*
X131077401Y-85954913D01*
X131075929Y-85953069D01*
X131074815Y-85950974D01*
X131048512Y-85918724D01*
X131022610Y-85886276D01*
X131019362Y-85882982D01*
X131019307Y-85882915D01*
X131019245Y-85882864D01*
X131018198Y-85881802D01*
X130274316Y-85137920D01*
X130322665Y-85148550D01*
X130450109Y-85151220D01*
X130575644Y-85129085D01*
X130694488Y-85082988D01*
X130802116Y-85014685D01*
X130849659Y-84969410D01*
X130876684Y-84997395D01*
X130981357Y-85070145D01*
X131098167Y-85121178D01*
X131222665Y-85148550D01*
X131350109Y-85151220D01*
X131475644Y-85129085D01*
X131594488Y-85082988D01*
X131702116Y-85014685D01*
X131794428Y-84926778D01*
X131867906Y-84822616D01*
X131919754Y-84706165D01*
X131947995Y-84581861D01*
X131949318Y-84487078D01*
X132618198Y-83818198D01*
X132644568Y-83786095D01*
X132671301Y-83754235D01*
X132672441Y-83752162D01*
X132673943Y-83750333D01*
X132693593Y-83713686D01*
X132713611Y-83677274D01*
X132714326Y-83675020D01*
X132715445Y-83672933D01*
X132727623Y-83633102D01*
X132740166Y-83593560D01*
X132740429Y-83591216D01*
X132741123Y-83588946D01*
X132745330Y-83547526D01*
X132749956Y-83506283D01*
X132749988Y-83501656D01*
X132749997Y-83501571D01*
X132749990Y-83501492D01*
X132750000Y-83500000D01*
X132750000Y-81669086D01*
X132794428Y-81626778D01*
X132861734Y-81531364D01*
X138627468Y-81531364D01*
X138627468Y-81655107D01*
X139378769Y-82406408D01*
X139741161Y-82044016D01*
X139741161Y-81973305D01*
X141791771Y-81973305D01*
X141791771Y-82097049D01*
X142896625Y-83201903D01*
X143400439Y-82698090D01*
X143400439Y-82574346D01*
X142567447Y-81741354D01*
X142518696Y-81692604D01*
X142461372Y-81654300D01*
X142397676Y-81627917D01*
X142330056Y-81614466D01*
X142261112Y-81614466D01*
X142193493Y-81627917D01*
X142129797Y-81654300D01*
X142072472Y-81692604D01*
X141791771Y-81973305D01*
X139741161Y-81973305D01*
X139741161Y-81920272D01*
X139212972Y-81392083D01*
X139155648Y-81353780D01*
X139091952Y-81327397D01*
X139024332Y-81313946D01*
X138955388Y-81313946D01*
X138887769Y-81327397D01*
X138824073Y-81353780D01*
X138766748Y-81392083D01*
X138627468Y-81531364D01*
X132861734Y-81531364D01*
X132867906Y-81522616D01*
X132919754Y-81406165D01*
X132947995Y-81281861D01*
X132950028Y-81136264D01*
X132925268Y-81011220D01*
X132876693Y-80893367D01*
X132806151Y-80787193D01*
X132716330Y-80696743D01*
X132610652Y-80625462D01*
X132554107Y-80601693D01*
X132600000Y-80601693D01*
X132655736Y-80597248D01*
X132750271Y-80567973D01*
X132832906Y-80513520D01*
X132897100Y-80438200D01*
X132937769Y-80347979D01*
X132951693Y-80250000D01*
X132951693Y-79750000D01*
X132947248Y-79694264D01*
X132917973Y-79599729D01*
X132863520Y-79517094D01*
X132788200Y-79452900D01*
X132697979Y-79412231D01*
X132650000Y-79405413D01*
X132650000Y-78351693D01*
X133375000Y-78351693D01*
X133430736Y-78347248D01*
X133525271Y-78317973D01*
X133607906Y-78263520D01*
X133672100Y-78188200D01*
X133712769Y-78097979D01*
X133726693Y-78000000D01*
X133726693Y-77225668D01*
X135563946Y-77225668D01*
X135563946Y-77294612D01*
X135577397Y-77362231D01*
X135603780Y-77425927D01*
X135642083Y-77483252D01*
X135781364Y-77622532D01*
X135905107Y-77622532D01*
X136656408Y-76871231D01*
X136294016Y-76508839D01*
X136170272Y-76508839D01*
X135642083Y-77037028D01*
X135603780Y-77094352D01*
X135577397Y-77158048D01*
X135563946Y-77225668D01*
X133726693Y-77225668D01*
X133726693Y-76800000D01*
X133722248Y-76744264D01*
X133692973Y-76649729D01*
X133638520Y-76567094D01*
X133563200Y-76502900D01*
X133472979Y-76462231D01*
X133375000Y-76448307D01*
X131775000Y-76448307D01*
X131721812Y-76452549D01*
X131723323Y-76344349D01*
X131775000Y-76351693D01*
X133375000Y-76351693D01*
X133430736Y-76347248D01*
X133525271Y-76317973D01*
X133607906Y-76263520D01*
X133672100Y-76188200D01*
X133712769Y-76097979D01*
X133726693Y-76000000D01*
X136679111Y-76000000D01*
X136364727Y-76314384D01*
X136364727Y-76438128D01*
X136727119Y-76800520D01*
X136741261Y-76786378D01*
X136811972Y-76857089D01*
X136797830Y-76871231D01*
X136811972Y-76885373D01*
X136741261Y-76956084D01*
X136727119Y-76941942D01*
X135975818Y-77693243D01*
X135975818Y-77816986D01*
X136115098Y-77956267D01*
X136172423Y-77994570D01*
X136236119Y-78020953D01*
X136303738Y-78034404D01*
X136372682Y-78034404D01*
X136440302Y-78020953D01*
X136477139Y-78005695D01*
X136466731Y-78025441D01*
X136446803Y-78122377D01*
X136454670Y-78221028D01*
X136489708Y-78313581D01*
X136549144Y-78392709D01*
X136973408Y-78816973D01*
X137015963Y-78853241D01*
X137103510Y-78899386D01*
X137200446Y-78919314D01*
X137299097Y-78911447D01*
X137362058Y-78887612D01*
X137350614Y-78909324D01*
X137330686Y-79006260D01*
X137330800Y-79007687D01*
X137297401Y-79021181D01*
X137190737Y-79090979D01*
X137099662Y-79180166D01*
X137027645Y-79285345D01*
X136977428Y-79402509D01*
X136950925Y-79527195D01*
X136949146Y-79654654D01*
X136972157Y-79780031D01*
X137019082Y-79898551D01*
X137088135Y-80005700D01*
X137176684Y-80097395D01*
X137281357Y-80170145D01*
X137398167Y-80221178D01*
X137522665Y-80248550D01*
X137650109Y-80251220D01*
X137775644Y-80229085D01*
X137815528Y-80213615D01*
X137777428Y-80302509D01*
X137750925Y-80427195D01*
X137749146Y-80554654D01*
X137772157Y-80680031D01*
X137819082Y-80798551D01*
X137888135Y-80905700D01*
X137976684Y-80997395D01*
X138081357Y-81070145D01*
X138198167Y-81121178D01*
X138322665Y-81148550D01*
X138450109Y-81151220D01*
X138575644Y-81129085D01*
X138694488Y-81082988D01*
X138802116Y-81014685D01*
X138894428Y-80926778D01*
X138967906Y-80822616D01*
X139019754Y-80706165D01*
X139025121Y-80682542D01*
X139066864Y-80679213D01*
X139159417Y-80644175D01*
X139238545Y-80584739D01*
X140334569Y-79488715D01*
X140398803Y-79552949D01*
X140419082Y-79604169D01*
X140488135Y-79711318D01*
X140576684Y-79803013D01*
X140681357Y-79875763D01*
X140798167Y-79926796D01*
X140922665Y-79954168D01*
X141050109Y-79956838D01*
X141175644Y-79934703D01*
X141257504Y-79902951D01*
X141791771Y-79902951D01*
X141791771Y-80026695D01*
X142072472Y-80307396D01*
X142129797Y-80345700D01*
X142193493Y-80372083D01*
X142261112Y-80385534D01*
X142330056Y-80385534D01*
X142397676Y-80372083D01*
X142461372Y-80345700D01*
X142518696Y-80307396D01*
X142567447Y-80258646D01*
X143400439Y-79425654D01*
X143400439Y-79301910D01*
X142896625Y-78798097D01*
X141791771Y-79902951D01*
X141257504Y-79902951D01*
X141294488Y-79888606D01*
X141402116Y-79820303D01*
X141494428Y-79732396D01*
X141495687Y-79730611D01*
X141597316Y-79832240D01*
X141721060Y-79832240D01*
X142825914Y-78727386D01*
X142322101Y-78223572D01*
X142198357Y-78223572D01*
X141515319Y-78906610D01*
X141506151Y-78892811D01*
X141416330Y-78802361D01*
X141310652Y-78731080D01*
X141247403Y-78704493D01*
X137518646Y-74975736D01*
X137475823Y-74940561D01*
X137433362Y-74904932D01*
X137430598Y-74903413D01*
X137428159Y-74901409D01*
X137379281Y-74875201D01*
X137330747Y-74848519D01*
X137327742Y-74847566D01*
X137324960Y-74846074D01*
X137271942Y-74829865D01*
X137253923Y-74824148D01*
X138026428Y-74051643D01*
X138026428Y-73927899D01*
X137522614Y-73424086D01*
X136417760Y-74528940D01*
X136417760Y-74652684D01*
X136565076Y-74800000D01*
X133726693Y-74800000D01*
X133722248Y-74744264D01*
X133692973Y-74649729D01*
X133638520Y-74567094D01*
X133563200Y-74502900D01*
X133475000Y-74463142D01*
X133475000Y-74300000D01*
X133469595Y-74244871D01*
X133464761Y-74189629D01*
X133463881Y-74186600D01*
X133463573Y-74183459D01*
X133447538Y-74130349D01*
X133432091Y-74077180D01*
X133430641Y-74074383D01*
X133429728Y-74071358D01*
X133403701Y-74022409D01*
X133378203Y-73973216D01*
X133376233Y-73970748D01*
X133374753Y-73967965D01*
X133339757Y-73925056D01*
X133335677Y-73919944D01*
X135864466Y-73919944D01*
X135864466Y-73988888D01*
X135877917Y-74056507D01*
X135904300Y-74120203D01*
X135942604Y-74177528D01*
X136223305Y-74458229D01*
X136347049Y-74458229D01*
X137451903Y-73353375D01*
X136948090Y-72849561D01*
X136824346Y-72849561D01*
X135991354Y-73682553D01*
X135942604Y-73731304D01*
X135904300Y-73788628D01*
X135877917Y-73852324D01*
X135864466Y-73919944D01*
X133335677Y-73919944D01*
X133305147Y-73881701D01*
X133300816Y-73877309D01*
X133300742Y-73877219D01*
X133300658Y-73877150D01*
X133299264Y-73875736D01*
X131799263Y-72375735D01*
X131756440Y-72340560D01*
X131713979Y-72304931D01*
X131711215Y-72303412D01*
X131708776Y-72301408D01*
X131659898Y-72275200D01*
X131611364Y-72248518D01*
X131608359Y-72247565D01*
X131605577Y-72246073D01*
X131552559Y-72229864D01*
X131499746Y-72213110D01*
X131496611Y-72212758D01*
X131493594Y-72211836D01*
X131438495Y-72206240D01*
X131383376Y-72200057D01*
X131377204Y-72200014D01*
X131377093Y-72200003D01*
X131376990Y-72200013D01*
X131374999Y-72199999D01*
X127150078Y-72199999D01*
X127093140Y-72176065D01*
X126968272Y-72150433D01*
X126840804Y-72149543D01*
X126715590Y-72173429D01*
X126597401Y-72221181D01*
X126490737Y-72290979D01*
X126399662Y-72380166D01*
X126327645Y-72485345D01*
X126277428Y-72602509D01*
X126250925Y-72727195D01*
X126249146Y-72854654D01*
X126272157Y-72980031D01*
X126319082Y-73098551D01*
X126388135Y-73205700D01*
X126476684Y-73297395D01*
X126581357Y-73370145D01*
X126698167Y-73421178D01*
X126822665Y-73448550D01*
X126950109Y-73451220D01*
X127075644Y-73429085D01*
X127150630Y-73399999D01*
X131126471Y-73399999D01*
X132199107Y-74472635D01*
X132118144Y-74515573D01*
X131568144Y-74915573D01*
X131554957Y-74928004D01*
X131542094Y-74936480D01*
X131526274Y-74955042D01*
X131503275Y-74976722D01*
X131491987Y-74995272D01*
X131477900Y-75011800D01*
X131466390Y-75037335D01*
X131451829Y-75061262D01*
X131446155Y-75082224D01*
X131437231Y-75102021D01*
X131433290Y-75129752D01*
X131425972Y-75156788D01*
X131426363Y-75178499D01*
X131423307Y-75200000D01*
X131423307Y-75387225D01*
X131315584Y-75225088D01*
X131059940Y-74967654D01*
X130759162Y-74764776D01*
X130424707Y-74624184D01*
X130069313Y-74551233D01*
X129706518Y-74548700D01*
X129350141Y-74616682D01*
X129013755Y-74752591D01*
X128710174Y-74951249D01*
X128450961Y-75205089D01*
X128326693Y-75386578D01*
X128326693Y-75200000D01*
X128324713Y-75175170D01*
X128325107Y-75166635D01*
X128323499Y-75159956D01*
X128322248Y-75144264D01*
X128310914Y-75107665D01*
X128301950Y-75070419D01*
X128296330Y-75060569D01*
X128292973Y-75049729D01*
X128271888Y-75017732D01*
X128252906Y-74984463D01*
X128244762Y-74976567D01*
X128238520Y-74967094D01*
X128209365Y-74942246D01*
X128181856Y-74915573D01*
X127631856Y-74515573D01*
X127522979Y-74462231D01*
X127425000Y-74448307D01*
X127325000Y-74448307D01*
X127325000Y-74375000D01*
X127320942Y-74333611D01*
X127317320Y-74292222D01*
X127316661Y-74289955D01*
X127316430Y-74287595D01*
X127304406Y-74247768D01*
X127292819Y-74207884D01*
X127291730Y-74205783D01*
X127291046Y-74203518D01*
X127271516Y-74166788D01*
X127252401Y-74129912D01*
X127250927Y-74128066D01*
X127249815Y-74125974D01*
X127223505Y-74093715D01*
X127197609Y-74061276D01*
X127194363Y-74057984D01*
X127194307Y-74057915D01*
X127194244Y-74057863D01*
X127193198Y-74056802D01*
X125618198Y-72481802D01*
X125586095Y-72455432D01*
X125554235Y-72428699D01*
X125552162Y-72427559D01*
X125550333Y-72426057D01*
X125513686Y-72406407D01*
X125477274Y-72386389D01*
X125475020Y-72385674D01*
X125472933Y-72384555D01*
X125433143Y-72372390D01*
X125393560Y-72359834D01*
X125391534Y-72359607D01*
X125363520Y-72317094D01*
X125288200Y-72252900D01*
X125197979Y-72212231D01*
X125100000Y-72198307D01*
X124300000Y-72198307D01*
X124244264Y-72202752D01*
X124149729Y-72232027D01*
X124101217Y-72263994D01*
X124088200Y-72252900D01*
X123997979Y-72212231D01*
X123900000Y-72198307D01*
X123100000Y-72198307D01*
X123044264Y-72202752D01*
X122949729Y-72232027D01*
X122867094Y-72286480D01*
X122802900Y-72361800D01*
X122762231Y-72452021D01*
X122748307Y-72550000D01*
X122748307Y-73050000D01*
X122752752Y-73105736D01*
X122782027Y-73200271D01*
X122834183Y-73279421D01*
X122563604Y-73550000D01*
X122068057Y-73550000D01*
X122067973Y-73549729D01*
X122013520Y-73467094D01*
X121938200Y-73402900D01*
X121847979Y-73362231D01*
X121750000Y-73348307D01*
X120550000Y-73348307D01*
X120494264Y-73352752D01*
X120399729Y-73382027D01*
X120317094Y-73436480D01*
X120252900Y-73511800D01*
X120212231Y-73602021D01*
X120198307Y-73700000D01*
X120198307Y-74300000D01*
X120202752Y-74355736D01*
X120232027Y-74450271D01*
X120286480Y-74532906D01*
X120361800Y-74597100D01*
X120452021Y-74637769D01*
X120550000Y-74651693D01*
X121750000Y-74651693D01*
X121805736Y-74647248D01*
X121900271Y-74617973D01*
X121982906Y-74563520D01*
X122047100Y-74488200D01*
X122064319Y-74450000D01*
X122750000Y-74450000D01*
X122791339Y-74445947D01*
X122832778Y-74442321D01*
X122835050Y-74441661D01*
X122837405Y-74441430D01*
X122877204Y-74429414D01*
X122917115Y-74417819D01*
X122919215Y-74416730D01*
X122921482Y-74416046D01*
X122958251Y-74396495D01*
X122995087Y-74377401D01*
X122996931Y-74375929D01*
X122999026Y-74374815D01*
X123031276Y-74348512D01*
X123063724Y-74322610D01*
X123067018Y-74319362D01*
X123067085Y-74319307D01*
X123067136Y-74319245D01*
X123068198Y-74318198D01*
X123818198Y-73568198D01*
X123844586Y-73536073D01*
X123871301Y-73504235D01*
X123872439Y-73502165D01*
X123873943Y-73500334D01*
X123893605Y-73463665D01*
X123913611Y-73427274D01*
X123914326Y-73425020D01*
X123915445Y-73422933D01*
X123922487Y-73399900D01*
X123955736Y-73397248D01*
X124050271Y-73367973D01*
X124098783Y-73336006D01*
X124111800Y-73347100D01*
X124202021Y-73387769D01*
X124300000Y-73401693D01*
X125100000Y-73401693D01*
X125155736Y-73397248D01*
X125235997Y-73372393D01*
X126317044Y-74453440D01*
X126224729Y-74482027D01*
X126142094Y-74536480D01*
X126077900Y-74611800D01*
X126037231Y-74702021D01*
X126023307Y-74800000D01*
X126023307Y-75263915D01*
X126009191Y-75309515D01*
X126000011Y-75396858D01*
X126007971Y-75484322D01*
X126023307Y-75536430D01*
X126023307Y-76000000D01*
X126027752Y-76055736D01*
X126057027Y-76150271D01*
X126111480Y-76232906D01*
X126186800Y-76297100D01*
X126277021Y-76337769D01*
X126375000Y-76351693D01*
X127975000Y-76351693D01*
X128025472Y-76347668D01*
X128023969Y-76455266D01*
X127975000Y-76448307D01*
X126375000Y-76448307D01*
X126319264Y-76452752D01*
X126224729Y-76482027D01*
X126142094Y-76536480D01*
X126077900Y-76611800D01*
X126037231Y-76702021D01*
X126023307Y-76800000D01*
X126023307Y-77936911D01*
X125268198Y-77181802D01*
X125236095Y-77155432D01*
X125204235Y-77128699D01*
X125202162Y-77127559D01*
X125200333Y-77126057D01*
X125163686Y-77106407D01*
X125127274Y-77086389D01*
X125125020Y-77085674D01*
X125122933Y-77084555D01*
X125083143Y-77072390D01*
X125043560Y-77059834D01*
X125041211Y-77059571D01*
X125038946Y-77058878D01*
X124997576Y-77054676D01*
X124956283Y-77050044D01*
X124951656Y-77050012D01*
X124951571Y-77050003D01*
X124951492Y-77050010D01*
X124950000Y-77050000D01*
X124568057Y-77050000D01*
X124567973Y-77049729D01*
X124513520Y-76967094D01*
X124438200Y-76902900D01*
X124347979Y-76862231D01*
X124250000Y-76848307D01*
X123050000Y-76848307D01*
X122994264Y-76852752D01*
X122899729Y-76882027D01*
X122817094Y-76936480D01*
X122752900Y-77011800D01*
X122712231Y-77102021D01*
X122698307Y-77200000D01*
X122698307Y-77800000D01*
X122702752Y-77855736D01*
X122732027Y-77950271D01*
X122786480Y-78032906D01*
X122861800Y-78097100D01*
X122952021Y-78137769D01*
X123050000Y-78151693D01*
X124250000Y-78151693D01*
X124305736Y-78147248D01*
X124400271Y-78117973D01*
X124482906Y-78063520D01*
X124547100Y-77988200D01*
X124564319Y-77950000D01*
X124763604Y-77950000D01*
X125188772Y-78375168D01*
X125068272Y-78350433D01*
X124940804Y-78349543D01*
X124815590Y-78373429D01*
X124697401Y-78421181D01*
X124590737Y-78490979D01*
X124499662Y-78580166D01*
X124427645Y-78685345D01*
X124377428Y-78802509D01*
X124350925Y-78927195D01*
X124349146Y-79054654D01*
X124372157Y-79180031D01*
X124419082Y-79298551D01*
X124488135Y-79405700D01*
X124576684Y-79497395D01*
X124681357Y-79570145D01*
X124798167Y-79621178D01*
X124922665Y-79648550D01*
X125050109Y-79651220D01*
X125175644Y-79629085D01*
X125294488Y-79582988D01*
X125341207Y-79553339D01*
X125550000Y-79762132D01*
X125550000Y-79852295D01*
X125544264Y-79852752D01*
X125449729Y-79882027D01*
X125367094Y-79936480D01*
X125302900Y-80011800D01*
X125262231Y-80102021D01*
X125248307Y-80200000D01*
X125248307Y-80500000D01*
X125252752Y-80555736D01*
X125282027Y-80650271D01*
X125297164Y-80673242D01*
X125289834Y-80684213D01*
X125263450Y-80747909D01*
X125250000Y-80815528D01*
X125250000Y-80862500D01*
X125337500Y-80950000D01*
X125950000Y-80950000D01*
X125950000Y-80930000D01*
X126050000Y-80930000D01*
X126050000Y-80950000D01*
X126662500Y-80950000D01*
X126750000Y-80862500D01*
X126750000Y-80815528D01*
X126736550Y-80747909D01*
X126710166Y-80684213D01*
X126703437Y-80674142D01*
X126737769Y-80597979D01*
X126751693Y-80500000D01*
X126751693Y-80200000D01*
X126747248Y-80144264D01*
X126717973Y-80049729D01*
X126663520Y-79967094D01*
X126588200Y-79902900D01*
X126497979Y-79862231D01*
X126450000Y-79855413D01*
X126450000Y-79636396D01*
X126848307Y-80034703D01*
X126848307Y-80250000D01*
X126852752Y-80305736D01*
X126882027Y-80400271D01*
X126936480Y-80482906D01*
X127011800Y-80547100D01*
X127102021Y-80587769D01*
X127200000Y-80601693D01*
X127445635Y-80601693D01*
X127397401Y-80621181D01*
X127290737Y-80690979D01*
X127199662Y-80780166D01*
X127127645Y-80885345D01*
X127077428Y-81002509D01*
X127050925Y-81127195D01*
X127049146Y-81254654D01*
X127072157Y-81380031D01*
X127119082Y-81498551D01*
X127188135Y-81605700D01*
X127250000Y-81669763D01*
X127250000Y-83068998D01*
X127221863Y-83026888D01*
X127173112Y-82978137D01*
X127115787Y-82939834D01*
X127052091Y-82913450D01*
X126984472Y-82900000D01*
X126487500Y-82900000D01*
X126400000Y-82987500D01*
X126400000Y-83500000D01*
X126420000Y-83500000D01*
X126420000Y-83600000D01*
X126400000Y-83600000D01*
X126400000Y-84112500D01*
X126487500Y-84200000D01*
X126984472Y-84200000D01*
X127052091Y-84186550D01*
X127115787Y-84160166D01*
X127173112Y-84121863D01*
X127221863Y-84073112D01*
X127250000Y-84031002D01*
X127250000Y-84972454D01*
X127213520Y-84917094D01*
X127138200Y-84852900D01*
X127047979Y-84812231D01*
X126950000Y-84798307D01*
X125750000Y-84798307D01*
X125694264Y-84802752D01*
X125599729Y-84832027D01*
X125517094Y-84886480D01*
X125452900Y-84961800D01*
X125435681Y-85000000D01*
X124936396Y-85000000D01*
X124148963Y-84212567D01*
X124150028Y-84136264D01*
X124125268Y-84011220D01*
X124076693Y-83893367D01*
X124006151Y-83787193D01*
X123916330Y-83696743D01*
X123810652Y-83625462D01*
X123693140Y-83576065D01*
X123568272Y-83550433D01*
X123440804Y-83549543D01*
X123315590Y-83573429D01*
X123197401Y-83621181D01*
X123090737Y-83690979D01*
X122999662Y-83780166D01*
X122927645Y-83885345D01*
X122877428Y-84002509D01*
X122850925Y-84127195D01*
X122849146Y-84254654D01*
X122872157Y-84380031D01*
X122919082Y-84498551D01*
X122988135Y-84605700D01*
X123076684Y-84697395D01*
X123181357Y-84770145D01*
X123298167Y-84821178D01*
X123422665Y-84848550D01*
X123514069Y-84850465D01*
X124431802Y-85768198D01*
X124463905Y-85794568D01*
X124495765Y-85821301D01*
X124497838Y-85822441D01*
X124499667Y-85823943D01*
X124536314Y-85843593D01*
X124572726Y-85863611D01*
X124574980Y-85864326D01*
X124577067Y-85865445D01*
X124616857Y-85877610D01*
X124656440Y-85890166D01*
X124658789Y-85890429D01*
X124661054Y-85891122D01*
X124702424Y-85895324D01*
X124743717Y-85899956D01*
X124748344Y-85899988D01*
X124748429Y-85899997D01*
X124748508Y-85899990D01*
X124750000Y-85900000D01*
X125431943Y-85900000D01*
X125432027Y-85900271D01*
X125486480Y-85982906D01*
X125561800Y-86047100D01*
X125652021Y-86087769D01*
X125750000Y-86101693D01*
X126950000Y-86101693D01*
X127005736Y-86097248D01*
X127100271Y-86067973D01*
X127182906Y-86013520D01*
X127247100Y-85938200D01*
X127287769Y-85847979D01*
X127301693Y-85750000D01*
X127301693Y-85194846D01*
X127303505Y-85198253D01*
X127322599Y-85235089D01*
X127324071Y-85236933D01*
X127325185Y-85239028D01*
X127351488Y-85271278D01*
X127377390Y-85303726D01*
X127380638Y-85307020D01*
X127380693Y-85307087D01*
X127380755Y-85307138D01*
X127381802Y-85308200D01*
X127491800Y-85418198D01*
X127523903Y-85444568D01*
X127555763Y-85471301D01*
X127557836Y-85472441D01*
X127559665Y-85473943D01*
X127596312Y-85493593D01*
X127632724Y-85513611D01*
X127634978Y-85514326D01*
X127637065Y-85515445D01*
X127676855Y-85527610D01*
X127716438Y-85540166D01*
X127718787Y-85540429D01*
X127721052Y-85541122D01*
X127762422Y-85545324D01*
X127803715Y-85549956D01*
X127808342Y-85549988D01*
X127808427Y-85549997D01*
X127808506Y-85549990D01*
X127809998Y-85550000D01*
X128451846Y-85550000D01*
X128427645Y-85585345D01*
X128377428Y-85702509D01*
X128350925Y-85827195D01*
X128349715Y-85913889D01*
X127413604Y-86850000D01*
X124829798Y-86850000D01*
X124869974Y-86759764D01*
X124898215Y-86635460D01*
X124900248Y-86489863D01*
X124875488Y-86364819D01*
X124826913Y-86246966D01*
X124756371Y-86140792D01*
X124666550Y-86050342D01*
X124560872Y-85979061D01*
X124443360Y-85929664D01*
X124318492Y-85904032D01*
X124191024Y-85903142D01*
X124065810Y-85927028D01*
X123947621Y-85974780D01*
X123840957Y-86044578D01*
X123780687Y-86103599D01*
X123349993Y-86103599D01*
X119598087Y-82351693D01*
X119650000Y-82351693D01*
X119705736Y-82347248D01*
X119800271Y-82317973D01*
X119882906Y-82263520D01*
X119947100Y-82188200D01*
X119986858Y-82100000D01*
X121421364Y-82100000D01*
X121377428Y-82202509D01*
X121350925Y-82327195D01*
X121349146Y-82454654D01*
X121372157Y-82580031D01*
X121419082Y-82698551D01*
X121488135Y-82805700D01*
X121576684Y-82897395D01*
X121681357Y-82970145D01*
X121798167Y-83021178D01*
X121922665Y-83048550D01*
X122050109Y-83051220D01*
X122175644Y-83029085D01*
X122294488Y-82982988D01*
X122402116Y-82914685D01*
X122494428Y-82826778D01*
X122567906Y-82722616D01*
X122619754Y-82606165D01*
X122647995Y-82481861D01*
X122650028Y-82336264D01*
X122625268Y-82211220D01*
X122579427Y-82100000D01*
X123418233Y-82100000D01*
X123502021Y-82137769D01*
X123600000Y-82151693D01*
X124400000Y-82151693D01*
X124455736Y-82147248D01*
X124550271Y-82117973D01*
X124632906Y-82063520D01*
X124697100Y-81988200D01*
X124714097Y-81950493D01*
X124799998Y-82036394D01*
X124799998Y-82830872D01*
X124749660Y-82880166D01*
X124677643Y-82985345D01*
X124627426Y-83102509D01*
X124600923Y-83227195D01*
X124599144Y-83354654D01*
X124622155Y-83480031D01*
X124669080Y-83598551D01*
X124738133Y-83705700D01*
X124826682Y-83797395D01*
X124931355Y-83870145D01*
X125048165Y-83921178D01*
X125172663Y-83948550D01*
X125300107Y-83951220D01*
X125409442Y-83931941D01*
X125413450Y-83952091D01*
X125439834Y-84015787D01*
X125478137Y-84073112D01*
X125526888Y-84121863D01*
X125584213Y-84160166D01*
X125647909Y-84186550D01*
X125715528Y-84200000D01*
X126212500Y-84200000D01*
X126300000Y-84112500D01*
X126300000Y-83600000D01*
X126280000Y-83600000D01*
X126280000Y-83500000D01*
X126300000Y-83500000D01*
X126300000Y-82987500D01*
X126212500Y-82900000D01*
X125764658Y-82900000D01*
X125756149Y-82887193D01*
X125699998Y-82830649D01*
X125699998Y-82151693D01*
X126400000Y-82151693D01*
X126455736Y-82147248D01*
X126550271Y-82117973D01*
X126632906Y-82063520D01*
X126697100Y-81988200D01*
X126737769Y-81897979D01*
X126751693Y-81800000D01*
X126751693Y-81500000D01*
X126747248Y-81444264D01*
X126717973Y-81349729D01*
X126702836Y-81326758D01*
X126710166Y-81315787D01*
X126736550Y-81252091D01*
X126750000Y-81184472D01*
X126750000Y-81137500D01*
X126662500Y-81050000D01*
X126050000Y-81050000D01*
X126050000Y-81070000D01*
X125950000Y-81070000D01*
X125950000Y-81050000D01*
X125337500Y-81050000D01*
X125250000Y-81137500D01*
X125250000Y-81184472D01*
X125257233Y-81220837D01*
X124718198Y-80681802D01*
X124704906Y-80670884D01*
X124737769Y-80597979D01*
X124751693Y-80500000D01*
X124751693Y-80200000D01*
X124747248Y-80144264D01*
X124717973Y-80049729D01*
X124663520Y-79967094D01*
X124588200Y-79902900D01*
X124497979Y-79862231D01*
X124400000Y-79848307D01*
X123600000Y-79848307D01*
X123544264Y-79852752D01*
X123449729Y-79882027D01*
X123422454Y-79900000D01*
X122936396Y-79900000D01*
X122648963Y-79612567D01*
X122650028Y-79536264D01*
X122625268Y-79411220D01*
X122576693Y-79293367D01*
X122506151Y-79187193D01*
X122416330Y-79096743D01*
X122310652Y-79025462D01*
X122209108Y-78982777D01*
X122247100Y-78938200D01*
X122287769Y-78847979D01*
X122301693Y-78750000D01*
X122301693Y-78150000D01*
X122297248Y-78094264D01*
X122267973Y-77999729D01*
X122213520Y-77917094D01*
X122138200Y-77852900D01*
X122047979Y-77812231D01*
X121950000Y-77798307D01*
X121034703Y-77798307D01*
X119923896Y-76687500D01*
X120400000Y-76687500D01*
X120400000Y-76884472D01*
X120413450Y-76952091D01*
X120439834Y-77015787D01*
X120478137Y-77073112D01*
X120526888Y-77121863D01*
X120584213Y-77160166D01*
X120647909Y-77186550D01*
X120715528Y-77200000D01*
X121212500Y-77200000D01*
X121300000Y-77112500D01*
X121300000Y-76600000D01*
X121400000Y-76600000D01*
X121400000Y-77112500D01*
X121487500Y-77200000D01*
X121984472Y-77200000D01*
X122052091Y-77186550D01*
X122115787Y-77160166D01*
X122173112Y-77121863D01*
X122221863Y-77073112D01*
X122260166Y-77015787D01*
X122286550Y-76952091D01*
X122300000Y-76884472D01*
X122300000Y-76687500D01*
X122212500Y-76600000D01*
X121400000Y-76600000D01*
X121300000Y-76600000D01*
X120487500Y-76600000D01*
X120400000Y-76687500D01*
X119923896Y-76687500D01*
X119518198Y-76281802D01*
X119486095Y-76255432D01*
X119454235Y-76228699D01*
X119452162Y-76227559D01*
X119450333Y-76226057D01*
X119430697Y-76215528D01*
X120400000Y-76215528D01*
X120400000Y-76412500D01*
X120487500Y-76500000D01*
X121300000Y-76500000D01*
X121300000Y-75987500D01*
X121400000Y-75987500D01*
X121400000Y-76500000D01*
X122212500Y-76500000D01*
X122300000Y-76412500D01*
X122300000Y-76215528D01*
X122286550Y-76147909D01*
X122260166Y-76084213D01*
X122221863Y-76026888D01*
X122173112Y-75978137D01*
X122115787Y-75939834D01*
X122052091Y-75913450D01*
X121984472Y-75900000D01*
X121487500Y-75900000D01*
X121400000Y-75987500D01*
X121300000Y-75987500D01*
X121212500Y-75900000D01*
X120715528Y-75900000D01*
X120647909Y-75913450D01*
X120584213Y-75939834D01*
X120526888Y-75978137D01*
X120478137Y-76026888D01*
X120439834Y-76084213D01*
X120413450Y-76147909D01*
X120400000Y-76215528D01*
X119430697Y-76215528D01*
X119413686Y-76206407D01*
X119377274Y-76186389D01*
X119375020Y-76185674D01*
X119372933Y-76184555D01*
X119333143Y-76172390D01*
X119293560Y-76159834D01*
X119291211Y-76159571D01*
X119288946Y-76158878D01*
X119276809Y-76157645D01*
X119216330Y-76096743D01*
X119110652Y-76025462D01*
X118993140Y-75976065D01*
X118868272Y-75950433D01*
X118740804Y-75949543D01*
X118615590Y-75973429D01*
X118497401Y-76021181D01*
X118390737Y-76090979D01*
X118299662Y-76180166D01*
X118227645Y-76285345D01*
X118177428Y-76402509D01*
X118150925Y-76527195D01*
X118149146Y-76654654D01*
X118172157Y-76780031D01*
X118219082Y-76898551D01*
X118280955Y-76994559D01*
X117763739Y-76477343D01*
X117797100Y-76438200D01*
X117837769Y-76347979D01*
X117851693Y-76250000D01*
X117851693Y-75750000D01*
X117847248Y-75694264D01*
X117817973Y-75599729D01*
X117763520Y-75517094D01*
X117744023Y-75500477D01*
X117787043Y-75450000D01*
X117964796Y-75450000D01*
X117986480Y-75482906D01*
X118061800Y-75547100D01*
X118152021Y-75587769D01*
X118250000Y-75601693D01*
X119450000Y-75601693D01*
X119505736Y-75597248D01*
X119600271Y-75567973D01*
X119682906Y-75513520D01*
X119747100Y-75438200D01*
X119787769Y-75347979D01*
X119801693Y-75250000D01*
X119801693Y-74650000D01*
X119797248Y-74594264D01*
X119767973Y-74499729D01*
X119713520Y-74417094D01*
X119638200Y-74352900D01*
X119547979Y-74312231D01*
X119450000Y-74298307D01*
X119378729Y-74298307D01*
X119419754Y-74206165D01*
X119447995Y-74081861D01*
X119450028Y-73936264D01*
X119425268Y-73811220D01*
X119379427Y-73700000D01*
X119484472Y-73700000D01*
X119552091Y-73686550D01*
X119615787Y-73660166D01*
X119673112Y-73621863D01*
X119721863Y-73573112D01*
X119760166Y-73515787D01*
X119786550Y-73452091D01*
X119800000Y-73384472D01*
X119800000Y-73187500D01*
X119712500Y-73100000D01*
X118900000Y-73100000D01*
X118900000Y-73120000D01*
X118800000Y-73120000D01*
X118800000Y-73100000D01*
X117987500Y-73100000D01*
X117900000Y-73187500D01*
X117900000Y-73384472D01*
X117913450Y-73452091D01*
X117939834Y-73515787D01*
X117962694Y-73550000D01*
X117785204Y-73550000D01*
X117763520Y-73517094D01*
X117688200Y-73452900D01*
X117597979Y-73412231D01*
X117500000Y-73398307D01*
X116700000Y-73398307D01*
X116644264Y-73402752D01*
X116549729Y-73432027D01*
X116501217Y-73463994D01*
X116488200Y-73452900D01*
X116397979Y-73412231D01*
X116300000Y-73398307D01*
X115500000Y-73398307D01*
X115444264Y-73402752D01*
X115349729Y-73432027D01*
X115267094Y-73486480D01*
X115202900Y-73561800D01*
X115162231Y-73652021D01*
X115148307Y-73750000D01*
X115148307Y-73965297D01*
X114181803Y-74931801D01*
X114155433Y-74963904D01*
X114128700Y-74995764D01*
X114127560Y-74997837D01*
X114126058Y-74999666D01*
X114106408Y-75036313D01*
X114086390Y-75072725D01*
X114085675Y-75074979D01*
X114084556Y-75077066D01*
X114072391Y-75116856D01*
X114059835Y-75156439D01*
X114059572Y-75158788D01*
X114058879Y-75161053D01*
X114054677Y-75202423D01*
X114050045Y-75243716D01*
X114050013Y-75248343D01*
X114050004Y-75248428D01*
X114050011Y-75248507D01*
X114050001Y-75249999D01*
X114050001Y-76000000D01*
X113937500Y-76000000D01*
X113850000Y-76087500D01*
X113850000Y-76550000D01*
X113870000Y-76550000D01*
X113870000Y-76650000D01*
X113850000Y-76650000D01*
X113850000Y-77112500D01*
X113937500Y-77200000D01*
X114050001Y-77200000D01*
X114050001Y-77463603D01*
X113881802Y-77631802D01*
X113855432Y-77663905D01*
X113828699Y-77695765D01*
X113827559Y-77697838D01*
X113826057Y-77699667D01*
X113806407Y-77736314D01*
X113786389Y-77772726D01*
X113785674Y-77774980D01*
X113784555Y-77777067D01*
X113778061Y-77798307D01*
X113550000Y-77798307D01*
X113494264Y-77802752D01*
X113454362Y-77815108D01*
X113447979Y-77812231D01*
X113350000Y-77798307D01*
X113050000Y-77798307D01*
X112994264Y-77802752D01*
X112954362Y-77815108D01*
X112947979Y-77812231D01*
X112850000Y-77798307D01*
X112550000Y-77798307D01*
X112494264Y-77802752D01*
X112478880Y-77807516D01*
X112918198Y-77368198D01*
X112944586Y-77336073D01*
X112971301Y-77304235D01*
X112972439Y-77302165D01*
X112973943Y-77300334D01*
X112993605Y-77263665D01*
X113013611Y-77227274D01*
X113014326Y-77225020D01*
X113015445Y-77222933D01*
X113022487Y-77199900D01*
X113055736Y-77197248D01*
X113150271Y-77167973D01*
X113198416Y-77136247D01*
X113234213Y-77160166D01*
X113297909Y-77186550D01*
X113365528Y-77200000D01*
X113662500Y-77200000D01*
X113750000Y-77112500D01*
X113750000Y-76650000D01*
X113730000Y-76650000D01*
X113730000Y-76550000D01*
X113750000Y-76550000D01*
X113750000Y-76087500D01*
X113662500Y-76000000D01*
X113365528Y-76000000D01*
X113297909Y-76013450D01*
X113234213Y-76039834D01*
X113199827Y-76062810D01*
X113188200Y-76052900D01*
X113097979Y-76012231D01*
X113000000Y-75998307D01*
X112200000Y-75998307D01*
X112144264Y-76002752D01*
X112049729Y-76032027D01*
X111967094Y-76086480D01*
X111902900Y-76161800D01*
X111862231Y-76252021D01*
X111848307Y-76350000D01*
X111848307Y-76850000D01*
X111852752Y-76905736D01*
X111882027Y-77000271D01*
X111934183Y-77079421D01*
X111381802Y-77631802D01*
X111355432Y-77663905D01*
X111328699Y-77695765D01*
X111327559Y-77697838D01*
X111326057Y-77699667D01*
X111306407Y-77736314D01*
X111286389Y-77772726D01*
X111285674Y-77774980D01*
X111284555Y-77777067D01*
X111272390Y-77816857D01*
X111259834Y-77856440D01*
X111259571Y-77858789D01*
X111258878Y-77861054D01*
X111254676Y-77902424D01*
X111250044Y-77943717D01*
X111250012Y-77948344D01*
X111250003Y-77948429D01*
X111250010Y-77948508D01*
X111250000Y-77950000D01*
X111250000Y-77968233D01*
X111212231Y-78052021D01*
X111198307Y-78150000D01*
X111198307Y-78998307D01*
X110350000Y-78998307D01*
X110294264Y-79002752D01*
X110199729Y-79032027D01*
X110117094Y-79086480D01*
X110052900Y-79161800D01*
X110012231Y-79252021D01*
X109998307Y-79350000D01*
X109998307Y-79650000D01*
X110002752Y-79705736D01*
X110015108Y-79745638D01*
X110012231Y-79752021D01*
X109998307Y-79850000D01*
X109998307Y-80150000D01*
X110002752Y-80205736D01*
X110015108Y-80245638D01*
X110012231Y-80252021D01*
X109998307Y-80350000D01*
X109998307Y-80650000D01*
X110002752Y-80705736D01*
X110015108Y-80745638D01*
X110012231Y-80752021D01*
X109998307Y-80850000D01*
X109998307Y-81150000D01*
X110002752Y-81205736D01*
X110015108Y-81245638D01*
X110012231Y-81252021D01*
X109998307Y-81350000D01*
X109998307Y-81650000D01*
X110002752Y-81705736D01*
X110015108Y-81745638D01*
X110012231Y-81752021D01*
X109998307Y-81850000D01*
X109998307Y-82050000D01*
X109086396Y-82050000D01*
X106918198Y-79881802D01*
X106886095Y-79855432D01*
X106854235Y-79828699D01*
X106852162Y-79827559D01*
X106850333Y-79826057D01*
X106813686Y-79806407D01*
X106777274Y-79786389D01*
X106775020Y-79785674D01*
X106772933Y-79784555D01*
X106733143Y-79772390D01*
X106693560Y-79759834D01*
X106691211Y-79759571D01*
X106688946Y-79758878D01*
X106647576Y-79754676D01*
X106606283Y-79750044D01*
X106601656Y-79750012D01*
X106601571Y-79750003D01*
X106601492Y-79750010D01*
X106600000Y-79750000D01*
X98286396Y-79750000D01*
X97968198Y-79431802D01*
X97936095Y-79405432D01*
X97904235Y-79378699D01*
X97902162Y-79377559D01*
X97900333Y-79376057D01*
X97863686Y-79356407D01*
X97827274Y-79336389D01*
X97825020Y-79335674D01*
X97822933Y-79334555D01*
X97783143Y-79322390D01*
X97774102Y-79319522D01*
X97767973Y-79299729D01*
X97713520Y-79217094D01*
X97638200Y-79152900D01*
X97576825Y-79125234D01*
X97600271Y-79117973D01*
X97682906Y-79063520D01*
X97747100Y-78988200D01*
X97787769Y-78897979D01*
X97801693Y-78800000D01*
X97801693Y-78200000D01*
X97797248Y-78144264D01*
X97767973Y-78049729D01*
X97713520Y-77967094D01*
X97638200Y-77902900D01*
X97547979Y-77862231D01*
X97450000Y-77848307D01*
X97300221Y-77848307D01*
X99011028Y-76137500D01*
X100550000Y-76137500D01*
X100550000Y-76534472D01*
X100563450Y-76602091D01*
X100589834Y-76665787D01*
X100628137Y-76723112D01*
X100676888Y-76771863D01*
X100734213Y-76810166D01*
X100797909Y-76836550D01*
X100865528Y-76850000D01*
X101362500Y-76850000D01*
X101450000Y-76762500D01*
X101450000Y-76050000D01*
X100637500Y-76050000D01*
X100550000Y-76137500D01*
X99011028Y-76137500D01*
X99683000Y-75465528D01*
X100550000Y-75465528D01*
X100550000Y-75862500D01*
X100637500Y-75950000D01*
X101450000Y-75950000D01*
X101450000Y-75237500D01*
X101550000Y-75237500D01*
X101550000Y-75950000D01*
X101570000Y-75950000D01*
X101570000Y-76050000D01*
X101550000Y-76050000D01*
X101550000Y-76762500D01*
X101637500Y-76850000D01*
X102134472Y-76850000D01*
X102202091Y-76836550D01*
X102265787Y-76810166D01*
X102323112Y-76771863D01*
X102371863Y-76723112D01*
X102398307Y-76683535D01*
X102398307Y-76750000D01*
X102400000Y-76771229D01*
X102400000Y-77066459D01*
X102349729Y-77082027D01*
X102267094Y-77136480D01*
X102202900Y-77211800D01*
X102162231Y-77302021D01*
X102148307Y-77400000D01*
X102148307Y-78600000D01*
X102152752Y-78655736D01*
X102182027Y-78750271D01*
X102236480Y-78832906D01*
X102311800Y-78897100D01*
X102402021Y-78937769D01*
X102500000Y-78951693D01*
X103500000Y-78951693D01*
X103555736Y-78947248D01*
X103650271Y-78917973D01*
X103732906Y-78863520D01*
X103797100Y-78788200D01*
X103837769Y-78697979D01*
X103851693Y-78600000D01*
X103851693Y-78137500D01*
X104150000Y-78137500D01*
X104150000Y-78634472D01*
X104163450Y-78702091D01*
X104189834Y-78765787D01*
X104228137Y-78823112D01*
X104276888Y-78871863D01*
X104334213Y-78910166D01*
X104397909Y-78936550D01*
X104465528Y-78950000D01*
X104862500Y-78950000D01*
X104950000Y-78862500D01*
X104950000Y-78050000D01*
X105050000Y-78050000D01*
X105050000Y-78862500D01*
X105137500Y-78950000D01*
X105534472Y-78950000D01*
X105602091Y-78936550D01*
X105665787Y-78910166D01*
X105723112Y-78871863D01*
X105771863Y-78823112D01*
X105810166Y-78765787D01*
X105836550Y-78702091D01*
X105850000Y-78634472D01*
X105850000Y-78137500D01*
X105762500Y-78050000D01*
X105050000Y-78050000D01*
X104950000Y-78050000D01*
X104237500Y-78050000D01*
X104150000Y-78137500D01*
X103851693Y-78137500D01*
X103851693Y-77650941D01*
X103975644Y-77629085D01*
X104094488Y-77582988D01*
X104150000Y-77547759D01*
X104150000Y-77862500D01*
X104237500Y-77950000D01*
X104950000Y-77950000D01*
X104950000Y-77930000D01*
X105050000Y-77930000D01*
X105050000Y-77950000D01*
X105762500Y-77950000D01*
X105850000Y-77862500D01*
X105850000Y-77365528D01*
X105836550Y-77297909D01*
X105810166Y-77234213D01*
X105771863Y-77176888D01*
X105723112Y-77128137D01*
X105665787Y-77089834D01*
X105602091Y-77063450D01*
X105534472Y-77050000D01*
X105427546Y-77050000D01*
X105482906Y-77013520D01*
X105547100Y-76938200D01*
X105587769Y-76847979D01*
X105601693Y-76750000D01*
X105601693Y-75550000D01*
X105597248Y-75494264D01*
X105567973Y-75399729D01*
X105513520Y-75317094D01*
X105438200Y-75252900D01*
X105347979Y-75212231D01*
X105250000Y-75198307D01*
X104650000Y-75198307D01*
X104594264Y-75202752D01*
X104499729Y-75232027D01*
X104417094Y-75286480D01*
X104352900Y-75361800D01*
X104312231Y-75452021D01*
X104298307Y-75550000D01*
X104298307Y-76579294D01*
X104216330Y-76496743D01*
X104110652Y-76425462D01*
X103993140Y-76376065D01*
X103868272Y-76350433D01*
X103740804Y-76349543D01*
X103701693Y-76357004D01*
X103701693Y-75550000D01*
X103697248Y-75494264D01*
X103667973Y-75399729D01*
X103613520Y-75317094D01*
X103538200Y-75252900D01*
X103447979Y-75212231D01*
X103350000Y-75198307D01*
X102750000Y-75198307D01*
X102694264Y-75202752D01*
X102599729Y-75232027D01*
X102517094Y-75286480D01*
X102452900Y-75361800D01*
X102436572Y-75398022D01*
X102436550Y-75397909D01*
X102410166Y-75334213D01*
X102371863Y-75276888D01*
X102323112Y-75228137D01*
X102265787Y-75189834D01*
X102202091Y-75163450D01*
X102134472Y-75150000D01*
X101637500Y-75150000D01*
X101550000Y-75237500D01*
X101450000Y-75237500D01*
X101362500Y-75150000D01*
X100865528Y-75150000D01*
X100797909Y-75163450D01*
X100734213Y-75189834D01*
X100676888Y-75228137D01*
X100628137Y-75276888D01*
X100589834Y-75334213D01*
X100563450Y-75397909D01*
X100550000Y-75465528D01*
X99683000Y-75465528D01*
X100548528Y-74600000D01*
X100566459Y-74600000D01*
X100582027Y-74650271D01*
X100636480Y-74732906D01*
X100711800Y-74797100D01*
X100802021Y-74837769D01*
X100900000Y-74851693D01*
X102100000Y-74851693D01*
X102155736Y-74847248D01*
X102250271Y-74817973D01*
X102332906Y-74763520D01*
X102397100Y-74688200D01*
X102434823Y-74604514D01*
X102486480Y-74682906D01*
X102561800Y-74747100D01*
X102652021Y-74787769D01*
X102750000Y-74801693D01*
X103350000Y-74801693D01*
X103405736Y-74797248D01*
X103500271Y-74767973D01*
X103523242Y-74752836D01*
X103534213Y-74760166D01*
X103597909Y-74786550D01*
X103665528Y-74800000D01*
X103862500Y-74800000D01*
X103950000Y-74712500D01*
X103950000Y-73900000D01*
X103930000Y-73900000D01*
X103930000Y-73800000D01*
X103950000Y-73800000D01*
X103950000Y-73780000D01*
X104050000Y-73780000D01*
X104050000Y-73800000D01*
X104070000Y-73800000D01*
X104070000Y-73900000D01*
X104050000Y-73900000D01*
X104050000Y-74712500D01*
X104137500Y-74800000D01*
X104334472Y-74800000D01*
X104402091Y-74786550D01*
X104465787Y-74760166D01*
X104475858Y-74753437D01*
X104552021Y-74787769D01*
X104650000Y-74801693D01*
X105250000Y-74801693D01*
X105305736Y-74797248D01*
X105400271Y-74767973D01*
X105482906Y-74713520D01*
X105547100Y-74638200D01*
X105587769Y-74547979D01*
X105601693Y-74450000D01*
X105601693Y-73399999D01*
X106749692Y-73399999D01*
X106798167Y-73421177D01*
X106922665Y-73448549D01*
X107050109Y-73451219D01*
X107175644Y-73429084D01*
X107294488Y-73382987D01*
X107402116Y-73314684D01*
X107494428Y-73226777D01*
X107567906Y-73122615D01*
X107619754Y-73006164D01*
X107647995Y-72881860D01*
X107650028Y-72736263D01*
X107645923Y-72715528D01*
X117900000Y-72715528D01*
X117900000Y-72912500D01*
X117987500Y-73000000D01*
X118800000Y-73000000D01*
X118800000Y-72487500D01*
X118900000Y-72487500D01*
X118900000Y-73000000D01*
X119712500Y-73000000D01*
X119800000Y-72912500D01*
X119800000Y-72715528D01*
X119786550Y-72647909D01*
X119760166Y-72584213D01*
X119721863Y-72526888D01*
X119673112Y-72478137D01*
X119615787Y-72439834D01*
X119552091Y-72413450D01*
X119484472Y-72400000D01*
X118987500Y-72400000D01*
X118900000Y-72487500D01*
X118800000Y-72487500D01*
X118712500Y-72400000D01*
X118215528Y-72400000D01*
X118147909Y-72413450D01*
X118084213Y-72439834D01*
X118026888Y-72478137D01*
X117978137Y-72526888D01*
X117939834Y-72584213D01*
X117913450Y-72647909D01*
X117900000Y-72715528D01*
X107645923Y-72715528D01*
X107625268Y-72611219D01*
X107576693Y-72493366D01*
X107506151Y-72387192D01*
X107416330Y-72296742D01*
X107310652Y-72225461D01*
X107193140Y-72176064D01*
X107068272Y-72150432D01*
X106940804Y-72149542D01*
X106815590Y-72173428D01*
X106749825Y-72199999D01*
X103339999Y-72199999D01*
X103284870Y-72205404D01*
X103229628Y-72210238D01*
X103226599Y-72211118D01*
X103223458Y-72211426D01*
X103170394Y-72227447D01*
X103117179Y-72242907D01*
X103114378Y-72244359D01*
X103111357Y-72245271D01*
X103062423Y-72271290D01*
X103013216Y-72296796D01*
X103010750Y-72298765D01*
X103007964Y-72300246D01*
X102965033Y-72335260D01*
X102921700Y-72369852D01*
X102917308Y-72374183D01*
X102917218Y-72374257D01*
X102917149Y-72374341D01*
X102915735Y-72375735D01*
X102625736Y-72665734D01*
X102590561Y-72708557D01*
X102554932Y-72751018D01*
X102553413Y-72753782D01*
X102551409Y-72756221D01*
X102525201Y-72805099D01*
X102498519Y-72853633D01*
X102497566Y-72856638D01*
X102496074Y-72859420D01*
X102479868Y-72912428D01*
X102463111Y-72965251D01*
X102462759Y-72968386D01*
X102461837Y-72971403D01*
X102456241Y-73026502D01*
X102452076Y-73063627D01*
X102412231Y-73152021D01*
X102398307Y-73250000D01*
X102398307Y-73319885D01*
X102363520Y-73267094D01*
X102288200Y-73202900D01*
X102197979Y-73162231D01*
X102100000Y-73148307D01*
X100900000Y-73148307D01*
X100844264Y-73152752D01*
X100749729Y-73182027D01*
X100667094Y-73236480D01*
X100602900Y-73311800D01*
X100563142Y-73400000D01*
X100300000Y-73400000D01*
X100244830Y-73405409D01*
X100189629Y-73410239D01*
X100186600Y-73411119D01*
X100183459Y-73411427D01*
X100130362Y-73427458D01*
X100077179Y-73442909D01*
X100074381Y-73444359D01*
X100071358Y-73445272D01*
X100022427Y-73471289D01*
X99973216Y-73496797D01*
X99970748Y-73498767D01*
X99967965Y-73500247D01*
X99925050Y-73535248D01*
X99881700Y-73569854D01*
X99877309Y-73574184D01*
X99877219Y-73574258D01*
X99877150Y-73574342D01*
X99875736Y-73575736D01*
X96175736Y-77275736D01*
X96140561Y-77318559D01*
X96104932Y-77361020D01*
X96103413Y-77363784D01*
X96101409Y-77366223D01*
X96075201Y-77415101D01*
X96048519Y-77463635D01*
X96047566Y-77466640D01*
X96046074Y-77469422D01*
X96029865Y-77522440D01*
X96013111Y-77575253D01*
X96012759Y-77578388D01*
X96011837Y-77581405D01*
X96006243Y-77636482D01*
X96000058Y-77691623D01*
X96000015Y-77697795D01*
X96000004Y-77697906D01*
X96000014Y-77698009D01*
X96000000Y-77700000D01*
X96000000Y-77848307D01*
X95750000Y-77848307D01*
X95694264Y-77852752D01*
X95599729Y-77882027D01*
X95517094Y-77936480D01*
X95452900Y-78011800D01*
X95412231Y-78102021D01*
X95398307Y-78200000D01*
X91385401Y-78200000D01*
X91564406Y-77591794D01*
X91851590Y-77042464D01*
X91863450Y-77102091D01*
X91889834Y-77165787D01*
X91928137Y-77223112D01*
X91976888Y-77271863D01*
X92034213Y-77310166D01*
X92097909Y-77336550D01*
X92165528Y-77350000D01*
X93412500Y-77350000D01*
X93500000Y-77262500D01*
X93500000Y-76550000D01*
X93600000Y-76550000D01*
X93600000Y-77262500D01*
X93687500Y-77350000D01*
X94934472Y-77350000D01*
X95002091Y-77336550D01*
X95065787Y-77310166D01*
X95123112Y-77271863D01*
X95171863Y-77223112D01*
X95210166Y-77165787D01*
X95236550Y-77102091D01*
X95250000Y-77034472D01*
X95250000Y-76637500D01*
X95162500Y-76550000D01*
X93600000Y-76550000D01*
X93500000Y-76550000D01*
X93480000Y-76550000D01*
X93480000Y-76450000D01*
X93500000Y-76450000D01*
X93500000Y-75737500D01*
X93600000Y-75737500D01*
X93600000Y-76450000D01*
X95162500Y-76450000D01*
X95250000Y-76362500D01*
X95250000Y-75965528D01*
X95236550Y-75897909D01*
X95210166Y-75834213D01*
X95171863Y-75776888D01*
X95123112Y-75728137D01*
X95065787Y-75689834D01*
X95002091Y-75663450D01*
X94934472Y-75650000D01*
X93687500Y-75650000D01*
X93600000Y-75737500D01*
X93500000Y-75737500D01*
X93412500Y-75650000D01*
X92683110Y-75650000D01*
X93499670Y-74634406D01*
X94859884Y-73493050D01*
X96415888Y-72637630D01*
X98108402Y-72100733D01*
X99891115Y-71900770D01*
X100001360Y-71900000D01*
X137584314Y-71900000D01*
X137679111Y-71994796D01*
G36*
X116511800Y-76547100D02*
X116602021Y-76587769D01*
X116676740Y-76598388D01*
X116682181Y-76617115D01*
X116683270Y-76619215D01*
X116683954Y-76621482D01*
X116703505Y-76658251D01*
X116722599Y-76695087D01*
X116724071Y-76696931D01*
X116725185Y-76699026D01*
X116751488Y-76731276D01*
X116777390Y-76763724D01*
X116780638Y-76767018D01*
X116780693Y-76767085D01*
X116780755Y-76767136D01*
X116781802Y-76768198D01*
X119663604Y-79650000D01*
X119537500Y-79650000D01*
X119450000Y-79737500D01*
X119450000Y-80350000D01*
X119912500Y-80350000D01*
X120000000Y-80262500D01*
X120000000Y-79986396D01*
X121213604Y-81200000D01*
X120001693Y-81200000D01*
X119997248Y-81144264D01*
X119967973Y-81049729D01*
X119936247Y-81001584D01*
X119960166Y-80965787D01*
X119986550Y-80902091D01*
X120000000Y-80834472D01*
X120000000Y-80537500D01*
X119912500Y-80450000D01*
X119450000Y-80450000D01*
X119450000Y-80470000D01*
X119350000Y-80470000D01*
X119350000Y-80450000D01*
X118887500Y-80450000D01*
X118800000Y-80537500D01*
X118800000Y-80813604D01*
X117951924Y-79965528D01*
X118800000Y-79965528D01*
X118800000Y-80262500D01*
X118887500Y-80350000D01*
X119350000Y-80350000D01*
X119350000Y-79737500D01*
X119262500Y-79650000D01*
X119115528Y-79650000D01*
X119047909Y-79663450D01*
X118984213Y-79689834D01*
X118926888Y-79728137D01*
X118878137Y-79776888D01*
X118839834Y-79834213D01*
X118813450Y-79897909D01*
X118800000Y-79965528D01*
X117951924Y-79965528D01*
X117668198Y-79681802D01*
X117636095Y-79655432D01*
X117604235Y-79628699D01*
X117602162Y-79627559D01*
X117600333Y-79626057D01*
X117563686Y-79606407D01*
X117527274Y-79586389D01*
X117525020Y-79585674D01*
X117522933Y-79584555D01*
X117483143Y-79572390D01*
X117443560Y-79559834D01*
X117441211Y-79559571D01*
X117438946Y-79558878D01*
X117397576Y-79554676D01*
X117356283Y-79550044D01*
X117351656Y-79550012D01*
X117351571Y-79550003D01*
X117351492Y-79550010D01*
X117350000Y-79550000D01*
X116401693Y-79550000D01*
X116401693Y-79350000D01*
X116397248Y-79294264D01*
X116367973Y-79199729D01*
X116350000Y-79172454D01*
X116350000Y-76597705D01*
X116355736Y-76597248D01*
X116450271Y-76567973D01*
X116498783Y-76536006D01*
X116511800Y-76547100D01*
X116511800Y-76547100D01*
G37*
X116511800Y-76547100D02*
X116602021Y-76587769D01*
X116676740Y-76598388D01*
X116682181Y-76617115D01*
X116683270Y-76619215D01*
X116683954Y-76621482D01*
X116703505Y-76658251D01*
X116722599Y-76695087D01*
X116724071Y-76696931D01*
X116725185Y-76699026D01*
X116751488Y-76731276D01*
X116777390Y-76763724D01*
X116780638Y-76767018D01*
X116780693Y-76767085D01*
X116780755Y-76767136D01*
X116781802Y-76768198D01*
X119663604Y-79650000D01*
X119537500Y-79650000D01*
X119450000Y-79737500D01*
X119450000Y-80350000D01*
X119912500Y-80350000D01*
X120000000Y-80262500D01*
X120000000Y-79986396D01*
X121213604Y-81200000D01*
X120001693Y-81200000D01*
X119997248Y-81144264D01*
X119967973Y-81049729D01*
X119936247Y-81001584D01*
X119960166Y-80965787D01*
X119986550Y-80902091D01*
X120000000Y-80834472D01*
X120000000Y-80537500D01*
X119912500Y-80450000D01*
X119450000Y-80450000D01*
X119450000Y-80470000D01*
X119350000Y-80470000D01*
X119350000Y-80450000D01*
X118887500Y-80450000D01*
X118800000Y-80537500D01*
X118800000Y-80813604D01*
X117951924Y-79965528D01*
X118800000Y-79965528D01*
X118800000Y-80262500D01*
X118887500Y-80350000D01*
X119350000Y-80350000D01*
X119350000Y-79737500D01*
X119262500Y-79650000D01*
X119115528Y-79650000D01*
X119047909Y-79663450D01*
X118984213Y-79689834D01*
X118926888Y-79728137D01*
X118878137Y-79776888D01*
X118839834Y-79834213D01*
X118813450Y-79897909D01*
X118800000Y-79965528D01*
X117951924Y-79965528D01*
X117668198Y-79681802D01*
X117636095Y-79655432D01*
X117604235Y-79628699D01*
X117602162Y-79627559D01*
X117600333Y-79626057D01*
X117563686Y-79606407D01*
X117527274Y-79586389D01*
X117525020Y-79585674D01*
X117522933Y-79584555D01*
X117483143Y-79572390D01*
X117443560Y-79559834D01*
X117441211Y-79559571D01*
X117438946Y-79558878D01*
X117397576Y-79554676D01*
X117356283Y-79550044D01*
X117351656Y-79550012D01*
X117351571Y-79550003D01*
X117351492Y-79550010D01*
X117350000Y-79550000D01*
X116401693Y-79550000D01*
X116401693Y-79350000D01*
X116397248Y-79294264D01*
X116367973Y-79199729D01*
X116350000Y-79172454D01*
X116350000Y-76597705D01*
X116355736Y-76597248D01*
X116450271Y-76567973D01*
X116498783Y-76536006D01*
X116511800Y-76547100D01*
M02*
