G04 #@! TF.FileFunction,Legend,Bot*
%FSLAX46Y46*%
G04 Gerber Fmt 4.6, Leading zero omitted, Abs format (unit mm)*
G04 Created by KiCad (PCBNEW 4.0.7-e2-6376~58~ubuntu14.04.1) date Wed May 23 14:22:57 2018*
%MOMM*%
%LPD*%
G01*
G04 APERTURE LIST*
%ADD10C,0.100000*%
%ADD11C,0.170000*%
%ADD12C,0.150000*%
G04 APERTURE END LIST*
D10*
D11*
X98157143Y-83771429D02*
X99357143Y-83771429D01*
X99357143Y-83314286D01*
X99300000Y-83200000D01*
X99242857Y-83142857D01*
X99128571Y-83085714D01*
X98957143Y-83085714D01*
X98842857Y-83142857D01*
X98785714Y-83200000D01*
X98728571Y-83314286D01*
X98728571Y-83771429D01*
X99357143Y-82342857D02*
X99357143Y-82114286D01*
X99300000Y-82000000D01*
X99185714Y-81885714D01*
X98957143Y-81828572D01*
X98557143Y-81828572D01*
X98328571Y-81885714D01*
X98214286Y-82000000D01*
X98157143Y-82114286D01*
X98157143Y-82342857D01*
X98214286Y-82457143D01*
X98328571Y-82571429D01*
X98557143Y-82628572D01*
X98957143Y-82628572D01*
X99185714Y-82571429D01*
X99300000Y-82457143D01*
X99357143Y-82342857D01*
X99357143Y-81428571D02*
X98157143Y-81142857D01*
X99014286Y-80914286D01*
X98157143Y-80685714D01*
X99357143Y-80400000D01*
X98785714Y-79942857D02*
X98785714Y-79542857D01*
X98157143Y-79371428D02*
X98157143Y-79942857D01*
X99357143Y-79942857D01*
X99357143Y-79371428D01*
X98157143Y-78171428D02*
X98728571Y-78571428D01*
X98157143Y-78857143D02*
X99357143Y-78857143D01*
X99357143Y-78400000D01*
X99300000Y-78285714D01*
X99242857Y-78228571D01*
X99128571Y-78171428D01*
X98957143Y-78171428D01*
X98842857Y-78228571D01*
X98785714Y-78285714D01*
X98728571Y-78400000D01*
X98728571Y-78857143D01*
X132300000Y-87242857D02*
X132300000Y-86042857D01*
X131728571Y-87242857D02*
X131728571Y-86042857D01*
X131442856Y-86042857D01*
X131271428Y-86100000D01*
X131157142Y-86214286D01*
X131099999Y-86328571D01*
X131042856Y-86557143D01*
X131042856Y-86728571D01*
X131099999Y-86957143D01*
X131157142Y-87071429D01*
X131271428Y-87185714D01*
X131442856Y-87242857D01*
X131728571Y-87242857D01*
D12*
X128250000Y-90400000D02*
X128250000Y-87900000D01*
X128250000Y-87900000D02*
X135250000Y-87900000D01*
X135250000Y-87900000D02*
X135250000Y-90400000D01*
X135250000Y-90400000D02*
X128250000Y-90400000D01*
D10*
X128198607Y-74700000D02*
G75*
G03X128198607Y-74700000I-223607J0D01*
G01*
X132875000Y-73400000D02*
X132875000Y-79400000D01*
X126875000Y-73400000D02*
X132875000Y-73400000D01*
X126875000Y-79400000D02*
X126875000Y-73400000D01*
X132875000Y-79400000D02*
X126875000Y-79400000D01*
D12*
X131475000Y-77800000D02*
X128275000Y-77800000D01*
X128275000Y-77800000D02*
X128275000Y-75000000D01*
X128275000Y-75000000D02*
X131475000Y-75000000D01*
X131475000Y-75000000D02*
X131475000Y-77800000D01*
X138159010Y-89777996D02*
X135472004Y-87090990D01*
X135472004Y-87090990D02*
X141340990Y-81222004D01*
X141340990Y-81222004D02*
X144027996Y-83909010D01*
X144027996Y-83909010D02*
X138159010Y-89777996D01*
X144027996Y-78090990D02*
X141340990Y-80777996D01*
X141340990Y-80777996D02*
X135472004Y-74909010D01*
X135472004Y-74909010D02*
X138159010Y-72222004D01*
X138159010Y-72222004D02*
X144027996Y-78090990D01*
D10*
X111200000Y-78750000D02*
G75*
G03X111200000Y-78750000I-250000J0D01*
G01*
X115200000Y-79000000D02*
X111200000Y-79000000D01*
X115200000Y-83000000D02*
X115200000Y-79000000D01*
X111200000Y-83000000D02*
X115200000Y-83000000D01*
X111200000Y-79000000D02*
X111200000Y-83000000D01*
D12*
X92300000Y-76225000D02*
X96100000Y-76225000D01*
X96100000Y-76225000D02*
X96100000Y-85775000D01*
X96100000Y-85775000D02*
X92300000Y-85775000D01*
X92300000Y-85775000D02*
X92300000Y-76225000D01*
D10*
X126000000Y-79800000D02*
G75*
G03X126000000Y-79800000I-200000J0D01*
G01*
X124400000Y-80000000D02*
X124400000Y-82000000D01*
X125600000Y-80000000D02*
X124400000Y-80000000D01*
X125600000Y-82000000D02*
X125600000Y-80000000D01*
X124400000Y-82000000D02*
X125600000Y-82000000D01*
M02*
