G04 #@! TF.FileFunction,Legend,Top*
%FSLAX46Y46*%
G04 Gerber Fmt 4.6, Leading zero omitted, Abs format (unit mm)*
G04 Created by KiCad (PCBNEW 4.0.7-e2-6376~58~ubuntu14.04.1) date Wed May 23 14:22:57 2018*
%MOMM*%
%LPD*%
G01*
G04 APERTURE LIST*
%ADD10C,0.100000*%
%ADD11C,0.150000*%
%ADD12C,0.140000*%
%ADD13C,0.010000*%
G04 APERTURE END LIST*
D10*
D11*
X115638095Y-88785714D02*
X115638095Y-89452381D01*
X115638095Y-88880952D02*
X115685714Y-88833333D01*
X115780952Y-88785714D01*
X115923810Y-88785714D01*
X116019048Y-88833333D01*
X116066667Y-88928571D01*
X116066667Y-89452381D01*
X116923810Y-89404762D02*
X116828572Y-89452381D01*
X116638095Y-89452381D01*
X116542857Y-89404762D01*
X116495238Y-89309524D01*
X116495238Y-88928571D01*
X116542857Y-88833333D01*
X116638095Y-88785714D01*
X116828572Y-88785714D01*
X116923810Y-88833333D01*
X116971429Y-88928571D01*
X116971429Y-89023810D01*
X116495238Y-89119048D01*
X117828572Y-88785714D02*
X117828572Y-89452381D01*
X117400000Y-88785714D02*
X117400000Y-89309524D01*
X117447619Y-89404762D01*
X117542857Y-89452381D01*
X117685715Y-89452381D01*
X117780953Y-89404762D01*
X117828572Y-89357143D01*
X118304762Y-89452381D02*
X118304762Y-88785714D01*
X118304762Y-88976190D02*
X118352381Y-88880952D01*
X118400000Y-88833333D01*
X118495238Y-88785714D01*
X118590477Y-88785714D01*
X119066667Y-89452381D02*
X118971429Y-89404762D01*
X118923810Y-89357143D01*
X118876191Y-89261905D01*
X118876191Y-88976190D01*
X118923810Y-88880952D01*
X118971429Y-88833333D01*
X119066667Y-88785714D01*
X119209525Y-88785714D01*
X119304763Y-88833333D01*
X119352382Y-88880952D01*
X119400001Y-88976190D01*
X119400001Y-89261905D01*
X119352382Y-89357143D01*
X119304763Y-89404762D01*
X119209525Y-89452381D01*
X119066667Y-89452381D01*
X119685715Y-88785714D02*
X120066667Y-88785714D01*
X119828572Y-88452381D02*
X119828572Y-89309524D01*
X119876191Y-89404762D01*
X119971429Y-89452381D01*
X120066667Y-89452381D01*
X120400001Y-89452381D02*
X120400001Y-88785714D01*
X120400001Y-88452381D02*
X120352382Y-88500000D01*
X120400001Y-88547619D01*
X120447620Y-88500000D01*
X120400001Y-88452381D01*
X120400001Y-88547619D01*
X120876191Y-88785714D02*
X120876191Y-89452381D01*
X120876191Y-88880952D02*
X120923810Y-88833333D01*
X121019048Y-88785714D01*
X121161906Y-88785714D01*
X121257144Y-88833333D01*
X121304763Y-88928571D01*
X121304763Y-89452381D01*
X121780953Y-89452381D02*
X121780953Y-88452381D01*
X121876191Y-89071429D02*
X122161906Y-89452381D01*
X122161906Y-88785714D02*
X121780953Y-89166667D01*
X122971430Y-89404762D02*
X122876192Y-89452381D01*
X122685715Y-89452381D01*
X122590477Y-89404762D01*
X122542858Y-89309524D01*
X122542858Y-88928571D01*
X122590477Y-88833333D01*
X122685715Y-88785714D01*
X122876192Y-88785714D01*
X122971430Y-88833333D01*
X123019049Y-88928571D01*
X123019049Y-89023810D01*
X122542858Y-89119048D01*
X123447620Y-89452381D02*
X123447620Y-88785714D01*
X123447620Y-88976190D02*
X123495239Y-88880952D01*
X123542858Y-88833333D01*
X123638096Y-88785714D01*
X123733335Y-88785714D01*
X124066668Y-89357143D02*
X124114287Y-89404762D01*
X124066668Y-89452381D01*
X124019049Y-89404762D01*
X124066668Y-89357143D01*
X124066668Y-89452381D01*
X124971430Y-89404762D02*
X124876192Y-89452381D01*
X124685715Y-89452381D01*
X124590477Y-89404762D01*
X124542858Y-89357143D01*
X124495239Y-89261905D01*
X124495239Y-88976190D01*
X124542858Y-88880952D01*
X124590477Y-88833333D01*
X124685715Y-88785714D01*
X124876192Y-88785714D01*
X124971430Y-88833333D01*
X125542858Y-89452381D02*
X125447620Y-89404762D01*
X125400001Y-89357143D01*
X125352382Y-89261905D01*
X125352382Y-88976190D01*
X125400001Y-88880952D01*
X125447620Y-88833333D01*
X125542858Y-88785714D01*
X125685716Y-88785714D01*
X125780954Y-88833333D01*
X125828573Y-88880952D01*
X125876192Y-88976190D01*
X125876192Y-89261905D01*
X125828573Y-89357143D01*
X125780954Y-89404762D01*
X125685716Y-89452381D01*
X125542858Y-89452381D01*
X126304763Y-89452381D02*
X126304763Y-88785714D01*
X126304763Y-88880952D02*
X126352382Y-88833333D01*
X126447620Y-88785714D01*
X126590478Y-88785714D01*
X126685716Y-88833333D01*
X126733335Y-88928571D01*
X126733335Y-89452381D01*
X126733335Y-88928571D02*
X126780954Y-88833333D01*
X126876192Y-88785714D01*
X127019049Y-88785714D01*
X127114287Y-88833333D01*
X127161906Y-88928571D01*
X127161906Y-89452381D01*
D12*
X110510118Y-88052381D02*
X110635118Y-87052381D01*
X111016071Y-87052381D01*
X111105357Y-87100000D01*
X111147024Y-87147619D01*
X111182738Y-87242857D01*
X111164881Y-87385714D01*
X111105357Y-87480952D01*
X111051786Y-87528571D01*
X110950595Y-87576190D01*
X110569642Y-87576190D01*
X112081547Y-88052381D02*
X111807737Y-87576190D01*
X111510118Y-88052381D02*
X111635118Y-87052381D01*
X112016071Y-87052381D01*
X112105357Y-87100000D01*
X112147024Y-87147619D01*
X112182738Y-87242857D01*
X112164881Y-87385714D01*
X112105357Y-87480952D01*
X112051786Y-87528571D01*
X111950595Y-87576190D01*
X111569642Y-87576190D01*
X112575595Y-87528571D02*
X112908929Y-87528571D01*
X112986309Y-88052381D02*
X112510118Y-88052381D01*
X112635118Y-87052381D01*
X113111309Y-87052381D01*
X113373214Y-88004762D02*
X113510118Y-88052381D01*
X113748214Y-88052381D01*
X113849405Y-88004762D01*
X113902976Y-87957143D01*
X113962500Y-87861905D01*
X113974405Y-87766667D01*
X113938690Y-87671429D01*
X113897024Y-87623810D01*
X113807738Y-87576190D01*
X113623214Y-87528571D01*
X113533928Y-87480952D01*
X113492261Y-87433333D01*
X113456547Y-87338095D01*
X113468452Y-87242857D01*
X113527976Y-87147619D01*
X113581547Y-87100000D01*
X113682737Y-87052381D01*
X113920833Y-87052381D01*
X114057738Y-87100000D01*
X114325595Y-88004762D02*
X114462499Y-88052381D01*
X114700595Y-88052381D01*
X114801786Y-88004762D01*
X114855357Y-87957143D01*
X114914881Y-87861905D01*
X114926786Y-87766667D01*
X114891071Y-87671429D01*
X114849405Y-87623810D01*
X114760119Y-87576190D01*
X114575595Y-87528571D01*
X114486309Y-87480952D01*
X114444642Y-87433333D01*
X114408928Y-87338095D01*
X114420833Y-87242857D01*
X114480357Y-87147619D01*
X114533928Y-87100000D01*
X114635118Y-87052381D01*
X114873214Y-87052381D01*
X115010119Y-87100000D01*
X115444642Y-87052381D02*
X115343452Y-87861905D01*
X115379166Y-87957143D01*
X115420833Y-88004762D01*
X115510118Y-88052381D01*
X115700595Y-88052381D01*
X115801786Y-88004762D01*
X115855357Y-87957143D01*
X115914881Y-87861905D01*
X116016071Y-87052381D01*
X116938690Y-88052381D02*
X116664880Y-87576190D01*
X116367261Y-88052381D02*
X116492261Y-87052381D01*
X116873214Y-87052381D01*
X116962500Y-87100000D01*
X117004167Y-87147619D01*
X117039881Y-87242857D01*
X117022024Y-87385714D01*
X116962500Y-87480952D01*
X116908929Y-87528571D01*
X116807738Y-87576190D01*
X116426785Y-87576190D01*
X117432738Y-87528571D02*
X117766072Y-87528571D01*
X117843452Y-88052381D02*
X117367261Y-88052381D01*
X117492261Y-87052381D01*
X117968452Y-87052381D01*
X118992262Y-88004762D02*
X119129166Y-88052381D01*
X119367262Y-88052381D01*
X119468453Y-88004762D01*
X119522024Y-87957143D01*
X119581548Y-87861905D01*
X119593453Y-87766667D01*
X119557738Y-87671429D01*
X119516072Y-87623810D01*
X119426786Y-87576190D01*
X119242262Y-87528571D01*
X119152976Y-87480952D01*
X119111309Y-87433333D01*
X119075595Y-87338095D01*
X119087500Y-87242857D01*
X119147024Y-87147619D01*
X119200595Y-87100000D01*
X119301785Y-87052381D01*
X119539881Y-87052381D01*
X119676786Y-87100000D01*
X120051786Y-87528571D02*
X120385120Y-87528571D01*
X120462500Y-88052381D02*
X119986309Y-88052381D01*
X120111309Y-87052381D01*
X120587500Y-87052381D01*
X120891071Y-88052381D02*
X121016071Y-87052381D01*
X121462500Y-88052381D01*
X121587500Y-87052381D01*
X121897024Y-88004762D02*
X122033928Y-88052381D01*
X122272024Y-88052381D01*
X122373215Y-88004762D01*
X122426786Y-87957143D01*
X122486310Y-87861905D01*
X122498215Y-87766667D01*
X122462500Y-87671429D01*
X122420834Y-87623810D01*
X122331548Y-87576190D01*
X122147024Y-87528571D01*
X122057738Y-87480952D01*
X122016071Y-87433333D01*
X121980357Y-87338095D01*
X121992262Y-87242857D01*
X122051786Y-87147619D01*
X122105357Y-87100000D01*
X122206547Y-87052381D01*
X122444643Y-87052381D01*
X122581548Y-87100000D01*
X123206547Y-87052381D02*
X123397024Y-87052381D01*
X123486310Y-87100000D01*
X123569643Y-87195238D01*
X123593453Y-87385714D01*
X123551786Y-87719048D01*
X123480358Y-87909524D01*
X123373215Y-88004762D01*
X123272024Y-88052381D01*
X123081547Y-88052381D01*
X122992262Y-88004762D01*
X122908929Y-87909524D01*
X122885119Y-87719048D01*
X122926786Y-87385714D01*
X122998214Y-87195238D01*
X123105357Y-87100000D01*
X123206547Y-87052381D01*
X124510119Y-88052381D02*
X124236309Y-87576190D01*
X123938690Y-88052381D02*
X124063690Y-87052381D01*
X124444643Y-87052381D01*
X124533929Y-87100000D01*
X124575596Y-87147619D01*
X124611310Y-87242857D01*
X124593453Y-87385714D01*
X124533929Y-87480952D01*
X124480358Y-87528571D01*
X124379167Y-87576190D01*
X123998214Y-87576190D01*
X125188690Y-87576190D02*
X125129166Y-88052381D01*
X124920833Y-87052381D02*
X125188690Y-87576190D01*
X125587500Y-87052381D01*
X126557738Y-88052381D02*
X126682738Y-87052381D01*
X127129167Y-88052381D01*
X127254167Y-87052381D01*
X127670834Y-87528571D02*
X128004168Y-87528571D01*
X128081548Y-88052381D02*
X127605357Y-88052381D01*
X127730357Y-87052381D01*
X128206548Y-87052381D01*
X128635119Y-87052381D02*
X128533929Y-87861905D01*
X128569643Y-87957143D01*
X128611310Y-88004762D01*
X128700595Y-88052381D01*
X128891072Y-88052381D01*
X128992263Y-88004762D01*
X129045834Y-87957143D01*
X129105358Y-87861905D01*
X129206548Y-87052381D01*
X130129167Y-88052381D02*
X129855357Y-87576190D01*
X129557738Y-88052381D02*
X129682738Y-87052381D01*
X130063691Y-87052381D01*
X130152977Y-87100000D01*
X130194644Y-87147619D01*
X130230358Y-87242857D01*
X130212501Y-87385714D01*
X130152977Y-87480952D01*
X130099406Y-87528571D01*
X129998215Y-87576190D01*
X129617262Y-87576190D01*
X130873214Y-87052381D02*
X131063691Y-87052381D01*
X131152977Y-87100000D01*
X131236310Y-87195238D01*
X131260120Y-87385714D01*
X131218453Y-87719048D01*
X131147025Y-87909524D01*
X131039882Y-88004762D01*
X130938691Y-88052381D01*
X130748214Y-88052381D01*
X130658929Y-88004762D01*
X130575596Y-87909524D01*
X130551786Y-87719048D01*
X130593453Y-87385714D01*
X130664881Y-87195238D01*
X130772024Y-87100000D01*
X130873214Y-87052381D01*
X131605357Y-88052381D02*
X131730357Y-87052381D01*
X132176786Y-88052381D01*
X132301786Y-87052381D01*
D13*
G36*
X135100236Y-82543401D02*
X135325600Y-82678917D01*
X135493005Y-82892696D01*
X135505939Y-82917979D01*
X135572290Y-83154971D01*
X135537316Y-83387372D01*
X135401239Y-83613874D01*
X135384602Y-83633285D01*
X135306147Y-83712302D01*
X135215536Y-83776204D01*
X135098275Y-83829078D01*
X134939872Y-83875009D01*
X134725830Y-83918084D01*
X134441657Y-83962389D01*
X134072858Y-84012011D01*
X134014800Y-84019468D01*
X133728120Y-84056290D01*
X133463662Y-84090524D01*
X133244027Y-84119226D01*
X133091818Y-84139451D01*
X133049600Y-84145246D01*
X132879183Y-84143860D01*
X132699077Y-84107217D01*
X132680818Y-84100965D01*
X132484727Y-84013099D01*
X132353599Y-83904299D01*
X132253192Y-83748581D01*
X132190069Y-83525129D01*
X132193832Y-83488670D01*
X132419021Y-83488670D01*
X132436539Y-83579098D01*
X132524381Y-83716043D01*
X132659691Y-83835865D01*
X132804787Y-83908791D01*
X132865950Y-83918398D01*
X132948622Y-83911959D01*
X133114221Y-83894044D01*
X133344984Y-83866756D01*
X133623149Y-83832196D01*
X133930954Y-83792466D01*
X133938600Y-83791461D01*
X134249704Y-83748606D01*
X134533980Y-83705821D01*
X134772935Y-83666174D01*
X134948075Y-83632735D01*
X135040908Y-83608572D01*
X135041023Y-83608525D01*
X135208175Y-83495787D01*
X135305425Y-83338958D01*
X135333502Y-83162391D01*
X135293132Y-82990438D01*
X135185043Y-82847450D01*
X135015661Y-82759316D01*
X134903424Y-82749294D01*
X134711028Y-82753825D01*
X134458497Y-82770557D01*
X134165857Y-82797142D01*
X133853132Y-82831228D01*
X133540347Y-82870466D01*
X133247528Y-82912505D01*
X132994699Y-82954996D01*
X132801885Y-82995589D01*
X132689111Y-83031933D01*
X132688052Y-83032475D01*
X132545363Y-83150644D01*
X132450161Y-83314716D01*
X132419021Y-83488670D01*
X132193832Y-83488670D01*
X132213828Y-83294964D01*
X132313640Y-83079211D01*
X132478676Y-82898994D01*
X132698107Y-82775438D01*
X132762394Y-82755291D01*
X132904796Y-82725629D01*
X133124913Y-82689389D01*
X133399308Y-82649503D01*
X133704541Y-82608906D01*
X134017176Y-82570533D01*
X134313772Y-82537317D01*
X134570893Y-82512193D01*
X134765100Y-82498096D01*
X134832787Y-82496097D01*
X135100236Y-82543401D01*
X135100236Y-82543401D01*
G37*
X135100236Y-82543401D02*
X135325600Y-82678917D01*
X135493005Y-82892696D01*
X135505939Y-82917979D01*
X135572290Y-83154971D01*
X135537316Y-83387372D01*
X135401239Y-83613874D01*
X135384602Y-83633285D01*
X135306147Y-83712302D01*
X135215536Y-83776204D01*
X135098275Y-83829078D01*
X134939872Y-83875009D01*
X134725830Y-83918084D01*
X134441657Y-83962389D01*
X134072858Y-84012011D01*
X134014800Y-84019468D01*
X133728120Y-84056290D01*
X133463662Y-84090524D01*
X133244027Y-84119226D01*
X133091818Y-84139451D01*
X133049600Y-84145246D01*
X132879183Y-84143860D01*
X132699077Y-84107217D01*
X132680818Y-84100965D01*
X132484727Y-84013099D01*
X132353599Y-83904299D01*
X132253192Y-83748581D01*
X132190069Y-83525129D01*
X132193832Y-83488670D01*
X132419021Y-83488670D01*
X132436539Y-83579098D01*
X132524381Y-83716043D01*
X132659691Y-83835865D01*
X132804787Y-83908791D01*
X132865950Y-83918398D01*
X132948622Y-83911959D01*
X133114221Y-83894044D01*
X133344984Y-83866756D01*
X133623149Y-83832196D01*
X133930954Y-83792466D01*
X133938600Y-83791461D01*
X134249704Y-83748606D01*
X134533980Y-83705821D01*
X134772935Y-83666174D01*
X134948075Y-83632735D01*
X135040908Y-83608572D01*
X135041023Y-83608525D01*
X135208175Y-83495787D01*
X135305425Y-83338958D01*
X135333502Y-83162391D01*
X135293132Y-82990438D01*
X135185043Y-82847450D01*
X135015661Y-82759316D01*
X134903424Y-82749294D01*
X134711028Y-82753825D01*
X134458497Y-82770557D01*
X134165857Y-82797142D01*
X133853132Y-82831228D01*
X133540347Y-82870466D01*
X133247528Y-82912505D01*
X132994699Y-82954996D01*
X132801885Y-82995589D01*
X132689111Y-83031933D01*
X132688052Y-83032475D01*
X132545363Y-83150644D01*
X132450161Y-83314716D01*
X132419021Y-83488670D01*
X132193832Y-83488670D01*
X132213828Y-83294964D01*
X132313640Y-83079211D01*
X132478676Y-82898994D01*
X132698107Y-82775438D01*
X132762394Y-82755291D01*
X132904796Y-82725629D01*
X133124913Y-82689389D01*
X133399308Y-82649503D01*
X133704541Y-82608906D01*
X134017176Y-82570533D01*
X134313772Y-82537317D01*
X134570893Y-82512193D01*
X134765100Y-82498096D01*
X134832787Y-82496097D01*
X135100236Y-82543401D01*
G36*
X129499242Y-82267503D02*
X129749070Y-82299502D01*
X130071479Y-82355581D01*
X130388818Y-82416750D01*
X130827002Y-82506255D01*
X131175157Y-82586842D01*
X131443795Y-82664199D01*
X131643434Y-82744015D01*
X131784586Y-82831978D01*
X131877766Y-82933776D01*
X131933490Y-83055096D01*
X131962272Y-83201628D01*
X131968813Y-83271487D01*
X131950797Y-83541189D01*
X131851009Y-83751706D01*
X131667437Y-83906786D01*
X131612820Y-83935165D01*
X131506475Y-83976785D01*
X131387786Y-84001444D01*
X131242741Y-84008102D01*
X131057328Y-83995716D01*
X130817536Y-83963243D01*
X130509352Y-83909643D01*
X130118765Y-83833871D01*
X130040828Y-83818241D01*
X129733894Y-83753424D01*
X129453961Y-83688624D01*
X129219276Y-83628512D01*
X129048083Y-83577761D01*
X128958903Y-83541222D01*
X128778947Y-83366159D01*
X128664279Y-83133218D01*
X128633418Y-82930344D01*
X128855347Y-82930344D01*
X128892108Y-83084535D01*
X128953394Y-83187351D01*
X129034751Y-83271211D01*
X129150503Y-83342156D01*
X129314974Y-83406224D01*
X129542488Y-83469457D01*
X129847368Y-83537894D01*
X130079304Y-83585145D01*
X130493224Y-83664521D01*
X130821111Y-83719428D01*
X131075402Y-83750410D01*
X131268536Y-83758013D01*
X131412952Y-83742781D01*
X131521088Y-83705259D01*
X131599021Y-83651700D01*
X131701505Y-83520182D01*
X131760392Y-83373358D01*
X131768830Y-83258647D01*
X131730410Y-83163155D01*
X131628663Y-83047550D01*
X131620638Y-83039564D01*
X131555104Y-82978920D01*
X131485658Y-82930140D01*
X131396416Y-82888123D01*
X131271492Y-82847770D01*
X131095001Y-82803981D01*
X130851058Y-82751656D01*
X130523778Y-82685695D01*
X130509600Y-82682874D01*
X130201749Y-82623382D01*
X129917627Y-82571710D01*
X129676416Y-82531096D01*
X129497300Y-82504779D01*
X129402177Y-82495968D01*
X129185198Y-82531714D01*
X129011837Y-82627445D01*
X128896938Y-82766032D01*
X128855347Y-82930344D01*
X128633418Y-82930344D01*
X128630189Y-82909123D01*
X128641832Y-82761442D01*
X128690472Y-82646613D01*
X128796221Y-82521364D01*
X128823009Y-82494237D01*
X128930992Y-82394895D01*
X129037870Y-82323280D01*
X129158379Y-82278663D01*
X129307257Y-82260314D01*
X129499242Y-82267503D01*
X129499242Y-82267503D01*
G37*
X129499242Y-82267503D02*
X129749070Y-82299502D01*
X130071479Y-82355581D01*
X130388818Y-82416750D01*
X130827002Y-82506255D01*
X131175157Y-82586842D01*
X131443795Y-82664199D01*
X131643434Y-82744015D01*
X131784586Y-82831978D01*
X131877766Y-82933776D01*
X131933490Y-83055096D01*
X131962272Y-83201628D01*
X131968813Y-83271487D01*
X131950797Y-83541189D01*
X131851009Y-83751706D01*
X131667437Y-83906786D01*
X131612820Y-83935165D01*
X131506475Y-83976785D01*
X131387786Y-84001444D01*
X131242741Y-84008102D01*
X131057328Y-83995716D01*
X130817536Y-83963243D01*
X130509352Y-83909643D01*
X130118765Y-83833871D01*
X130040828Y-83818241D01*
X129733894Y-83753424D01*
X129453961Y-83688624D01*
X129219276Y-83628512D01*
X129048083Y-83577761D01*
X128958903Y-83541222D01*
X128778947Y-83366159D01*
X128664279Y-83133218D01*
X128633418Y-82930344D01*
X128855347Y-82930344D01*
X128892108Y-83084535D01*
X128953394Y-83187351D01*
X129034751Y-83271211D01*
X129150503Y-83342156D01*
X129314974Y-83406224D01*
X129542488Y-83469457D01*
X129847368Y-83537894D01*
X130079304Y-83585145D01*
X130493224Y-83664521D01*
X130821111Y-83719428D01*
X131075402Y-83750410D01*
X131268536Y-83758013D01*
X131412952Y-83742781D01*
X131521088Y-83705259D01*
X131599021Y-83651700D01*
X131701505Y-83520182D01*
X131760392Y-83373358D01*
X131768830Y-83258647D01*
X131730410Y-83163155D01*
X131628663Y-83047550D01*
X131620638Y-83039564D01*
X131555104Y-82978920D01*
X131485658Y-82930140D01*
X131396416Y-82888123D01*
X131271492Y-82847770D01*
X131095001Y-82803981D01*
X130851058Y-82751656D01*
X130523778Y-82685695D01*
X130509600Y-82682874D01*
X130201749Y-82623382D01*
X129917627Y-82571710D01*
X129676416Y-82531096D01*
X129497300Y-82504779D01*
X129402177Y-82495968D01*
X129185198Y-82531714D01*
X129011837Y-82627445D01*
X128896938Y-82766032D01*
X128855347Y-82930344D01*
X128633418Y-82930344D01*
X128630189Y-82909123D01*
X128641832Y-82761442D01*
X128690472Y-82646613D01*
X128796221Y-82521364D01*
X128823009Y-82494237D01*
X128930992Y-82394895D01*
X129037870Y-82323280D01*
X129158379Y-82278663D01*
X129307257Y-82260314D01*
X129499242Y-82267503D01*
G36*
X126225909Y-81484911D02*
X126583429Y-81550392D01*
X127025291Y-81648864D01*
X127055200Y-81655904D01*
X127427603Y-81745800D01*
X127715021Y-81821428D01*
X127932024Y-81888806D01*
X128093179Y-81953953D01*
X128213055Y-82022889D01*
X128306222Y-82101633D01*
X128387248Y-82196204D01*
X128398261Y-82210793D01*
X128476815Y-82389328D01*
X128496929Y-82607201D01*
X128458091Y-82820285D01*
X128406543Y-82927080D01*
X128256514Y-83097072D01*
X128065056Y-83202585D01*
X127821268Y-83245633D01*
X127514246Y-83228233D01*
X127156800Y-83158211D01*
X126947469Y-83108120D01*
X126677515Y-83044506D01*
X126385377Y-82976387D01*
X126166200Y-82925782D01*
X125902192Y-82862906D01*
X125715559Y-82810643D01*
X125584009Y-82759877D01*
X125485250Y-82701490D01*
X125396990Y-82626365D01*
X125370313Y-82600283D01*
X125204564Y-82382438D01*
X125139989Y-82158927D01*
X125149408Y-82098973D01*
X125378800Y-82098973D01*
X125423571Y-82280175D01*
X125539359Y-82444850D01*
X125690413Y-82549622D01*
X125832290Y-82597317D01*
X126049605Y-82657082D01*
X126319661Y-82723969D01*
X126619759Y-82793028D01*
X126927200Y-82859309D01*
X127219287Y-82917862D01*
X127473322Y-82963738D01*
X127666605Y-82991988D01*
X127749184Y-82998559D01*
X127913835Y-82994581D01*
X128019191Y-82963361D01*
X128106930Y-82888929D01*
X128142884Y-82847702D01*
X128252381Y-82656002D01*
X128267165Y-82467406D01*
X128190145Y-82298981D01*
X128027188Y-82169310D01*
X127934168Y-82134991D01*
X127760049Y-82083327D01*
X127522870Y-82019184D01*
X127240674Y-81947431D01*
X126931502Y-81872936D01*
X126910936Y-81868122D01*
X126558254Y-81787304D01*
X126289310Y-81729940D01*
X126089552Y-81693762D01*
X125944428Y-81676502D01*
X125839385Y-81675893D01*
X125761952Y-81689088D01*
X125598229Y-81769449D01*
X125463740Y-81896974D01*
X125386975Y-82041187D01*
X125378800Y-82098973D01*
X125149408Y-82098973D01*
X125176245Y-81928165D01*
X125208460Y-81853787D01*
X125301244Y-81695465D01*
X125409423Y-81577522D01*
X125544487Y-81498727D01*
X125717929Y-81457847D01*
X125941239Y-81453652D01*
X126225909Y-81484911D01*
X126225909Y-81484911D01*
G37*
X126225909Y-81484911D02*
X126583429Y-81550392D01*
X127025291Y-81648864D01*
X127055200Y-81655904D01*
X127427603Y-81745800D01*
X127715021Y-81821428D01*
X127932024Y-81888806D01*
X128093179Y-81953953D01*
X128213055Y-82022889D01*
X128306222Y-82101633D01*
X128387248Y-82196204D01*
X128398261Y-82210793D01*
X128476815Y-82389328D01*
X128496929Y-82607201D01*
X128458091Y-82820285D01*
X128406543Y-82927080D01*
X128256514Y-83097072D01*
X128065056Y-83202585D01*
X127821268Y-83245633D01*
X127514246Y-83228233D01*
X127156800Y-83158211D01*
X126947469Y-83108120D01*
X126677515Y-83044506D01*
X126385377Y-82976387D01*
X126166200Y-82925782D01*
X125902192Y-82862906D01*
X125715559Y-82810643D01*
X125584009Y-82759877D01*
X125485250Y-82701490D01*
X125396990Y-82626365D01*
X125370313Y-82600283D01*
X125204564Y-82382438D01*
X125139989Y-82158927D01*
X125149408Y-82098973D01*
X125378800Y-82098973D01*
X125423571Y-82280175D01*
X125539359Y-82444850D01*
X125690413Y-82549622D01*
X125832290Y-82597317D01*
X126049605Y-82657082D01*
X126319661Y-82723969D01*
X126619759Y-82793028D01*
X126927200Y-82859309D01*
X127219287Y-82917862D01*
X127473322Y-82963738D01*
X127666605Y-82991988D01*
X127749184Y-82998559D01*
X127913835Y-82994581D01*
X128019191Y-82963361D01*
X128106930Y-82888929D01*
X128142884Y-82847702D01*
X128252381Y-82656002D01*
X128267165Y-82467406D01*
X128190145Y-82298981D01*
X128027188Y-82169310D01*
X127934168Y-82134991D01*
X127760049Y-82083327D01*
X127522870Y-82019184D01*
X127240674Y-81947431D01*
X126931502Y-81872936D01*
X126910936Y-81868122D01*
X126558254Y-81787304D01*
X126289310Y-81729940D01*
X126089552Y-81693762D01*
X125944428Y-81676502D01*
X125839385Y-81675893D01*
X125761952Y-81689088D01*
X125598229Y-81769449D01*
X125463740Y-81896974D01*
X125386975Y-82041187D01*
X125378800Y-82098973D01*
X125149408Y-82098973D01*
X125176245Y-81928165D01*
X125208460Y-81853787D01*
X125301244Y-81695465D01*
X125409423Y-81577522D01*
X125544487Y-81498727D01*
X125717929Y-81457847D01*
X125941239Y-81453652D01*
X126225909Y-81484911D01*
G36*
X138382469Y-80954833D02*
X138566814Y-81096387D01*
X138691102Y-81300808D01*
X138739094Y-81555396D01*
X138739200Y-81568574D01*
X138734186Y-81699084D01*
X138713072Y-81812543D01*
X138666745Y-81916974D01*
X138586093Y-82020399D01*
X138462004Y-82130843D01*
X138285367Y-82256329D01*
X138047069Y-82404880D01*
X137737999Y-82584520D01*
X137349045Y-82803271D01*
X137316148Y-82821617D01*
X136980886Y-83004040D01*
X136716368Y-83135057D01*
X136507958Y-83218337D01*
X136341024Y-83257548D01*
X136200930Y-83256358D01*
X136073041Y-83218434D01*
X135963829Y-83160562D01*
X135770054Y-83001925D01*
X135666072Y-82809381D01*
X135640400Y-82609173D01*
X135643775Y-82587677D01*
X135863544Y-82587677D01*
X135896167Y-82772749D01*
X136008544Y-82913048D01*
X136190571Y-82992306D01*
X136311976Y-83004000D01*
X136400118Y-82996393D01*
X136503110Y-82969376D01*
X136634561Y-82916653D01*
X136808080Y-82831927D01*
X137037275Y-82708901D01*
X137335757Y-82541281D01*
X137437449Y-82483300D01*
X137787366Y-82279869D01*
X138056488Y-82113868D01*
X138254690Y-81976882D01*
X138391847Y-81860497D01*
X138477834Y-81756298D01*
X138522524Y-81655872D01*
X138535794Y-81550804D01*
X138535810Y-81547397D01*
X138504233Y-81438037D01*
X138425927Y-81307662D01*
X138404484Y-81280697D01*
X138314277Y-81189782D01*
X138217659Y-81135818D01*
X138101832Y-81121580D01*
X137953998Y-81149845D01*
X137761357Y-81223389D01*
X137511112Y-81344987D01*
X137190464Y-81517416D01*
X137111600Y-81561113D01*
X136772288Y-81750063D01*
X136510543Y-81897393D01*
X136315100Y-82010792D01*
X136174696Y-82097950D01*
X136078066Y-82166559D01*
X136013945Y-82224309D01*
X135971070Y-82278889D01*
X135938176Y-82337991D01*
X135920781Y-82374106D01*
X135863544Y-82587677D01*
X135643775Y-82587677D01*
X135684443Y-82328663D01*
X135818918Y-82092662D01*
X135902273Y-82005724D01*
X136003257Y-81930987D01*
X136176508Y-81821161D01*
X136403363Y-81686479D01*
X136665160Y-81537175D01*
X136943234Y-81383482D01*
X137218922Y-81235633D01*
X137473562Y-81103863D01*
X137688489Y-80998404D01*
X137845040Y-80929490D01*
X137898555Y-80911122D01*
X138154303Y-80888845D01*
X138382469Y-80954833D01*
X138382469Y-80954833D01*
G37*
X138382469Y-80954833D02*
X138566814Y-81096387D01*
X138691102Y-81300808D01*
X138739094Y-81555396D01*
X138739200Y-81568574D01*
X138734186Y-81699084D01*
X138713072Y-81812543D01*
X138666745Y-81916974D01*
X138586093Y-82020399D01*
X138462004Y-82130843D01*
X138285367Y-82256329D01*
X138047069Y-82404880D01*
X137737999Y-82584520D01*
X137349045Y-82803271D01*
X137316148Y-82821617D01*
X136980886Y-83004040D01*
X136716368Y-83135057D01*
X136507958Y-83218337D01*
X136341024Y-83257548D01*
X136200930Y-83256358D01*
X136073041Y-83218434D01*
X135963829Y-83160562D01*
X135770054Y-83001925D01*
X135666072Y-82809381D01*
X135640400Y-82609173D01*
X135643775Y-82587677D01*
X135863544Y-82587677D01*
X135896167Y-82772749D01*
X136008544Y-82913048D01*
X136190571Y-82992306D01*
X136311976Y-83004000D01*
X136400118Y-82996393D01*
X136503110Y-82969376D01*
X136634561Y-82916653D01*
X136808080Y-82831927D01*
X137037275Y-82708901D01*
X137335757Y-82541281D01*
X137437449Y-82483300D01*
X137787366Y-82279869D01*
X138056488Y-82113868D01*
X138254690Y-81976882D01*
X138391847Y-81860497D01*
X138477834Y-81756298D01*
X138522524Y-81655872D01*
X138535794Y-81550804D01*
X138535810Y-81547397D01*
X138504233Y-81438037D01*
X138425927Y-81307662D01*
X138404484Y-81280697D01*
X138314277Y-81189782D01*
X138217659Y-81135818D01*
X138101832Y-81121580D01*
X137953998Y-81149845D01*
X137761357Y-81223389D01*
X137511112Y-81344987D01*
X137190464Y-81517416D01*
X137111600Y-81561113D01*
X136772288Y-81750063D01*
X136510543Y-81897393D01*
X136315100Y-82010792D01*
X136174696Y-82097950D01*
X136078066Y-82166559D01*
X136013945Y-82224309D01*
X135971070Y-82278889D01*
X135938176Y-82337991D01*
X135920781Y-82374106D01*
X135863544Y-82587677D01*
X135643775Y-82587677D01*
X135684443Y-82328663D01*
X135818918Y-82092662D01*
X135902273Y-82005724D01*
X136003257Y-81930987D01*
X136176508Y-81821161D01*
X136403363Y-81686479D01*
X136665160Y-81537175D01*
X136943234Y-81383482D01*
X137218922Y-81235633D01*
X137473562Y-81103863D01*
X137688489Y-80998404D01*
X137845040Y-80929490D01*
X137898555Y-80911122D01*
X138154303Y-80888845D01*
X138382469Y-80954833D01*
G36*
X122672285Y-80529664D02*
X122872710Y-80567793D01*
X123127242Y-80624833D01*
X123416779Y-80695671D01*
X123722220Y-80775191D01*
X124024464Y-80858278D01*
X124304410Y-80939819D01*
X124542955Y-81014699D01*
X124721000Y-81077803D01*
X124819442Y-81124017D01*
X124820666Y-81124874D01*
X125001208Y-81310242D01*
X125098481Y-81536941D01*
X125108253Y-81782459D01*
X125026292Y-82024288D01*
X124998414Y-82070392D01*
X124843334Y-82223425D01*
X124627154Y-82329119D01*
X124384089Y-82375316D01*
X124185000Y-82359437D01*
X123775289Y-82264093D01*
X123381490Y-82168925D01*
X123016686Y-82077387D01*
X122693961Y-81992932D01*
X122426395Y-81919014D01*
X122227074Y-81859086D01*
X122109078Y-81816600D01*
X122088921Y-81806170D01*
X121923092Y-81642634D01*
X121811052Y-81421270D01*
X121777890Y-81225458D01*
X121998090Y-81225458D01*
X122054916Y-81404761D01*
X122143359Y-81518850D01*
X122208347Y-81572243D01*
X122299562Y-81622341D01*
X122431482Y-81674123D01*
X122618581Y-81732566D01*
X122875337Y-81802648D01*
X123216225Y-81889346D01*
X123233019Y-81893530D01*
X123624296Y-81989450D01*
X123930693Y-82059651D01*
X124165391Y-82105005D01*
X124341569Y-82126381D01*
X124472407Y-82124652D01*
X124571085Y-82100686D01*
X124650782Y-82055355D01*
X124722307Y-81991907D01*
X124842176Y-81815770D01*
X124868575Y-81634309D01*
X124807694Y-81461937D01*
X124665727Y-81313072D01*
X124448867Y-81202129D01*
X124373190Y-81179196D01*
X123860607Y-81047246D01*
X123418355Y-80939234D01*
X123052427Y-80856485D01*
X122768817Y-80800320D01*
X122573517Y-80772063D01*
X122514017Y-80768800D01*
X122291950Y-80806649D01*
X122125807Y-80907786D01*
X122024787Y-81053594D01*
X121998090Y-81225458D01*
X121777890Y-81225458D01*
X121772189Y-81191797D01*
X121819257Y-80966640D01*
X121948453Y-80770767D01*
X122141138Y-80620487D01*
X122378673Y-80532109D01*
X122545068Y-80515561D01*
X122672285Y-80529664D01*
X122672285Y-80529664D01*
G37*
X122672285Y-80529664D02*
X122872710Y-80567793D01*
X123127242Y-80624833D01*
X123416779Y-80695671D01*
X123722220Y-80775191D01*
X124024464Y-80858278D01*
X124304410Y-80939819D01*
X124542955Y-81014699D01*
X124721000Y-81077803D01*
X124819442Y-81124017D01*
X124820666Y-81124874D01*
X125001208Y-81310242D01*
X125098481Y-81536941D01*
X125108253Y-81782459D01*
X125026292Y-82024288D01*
X124998414Y-82070392D01*
X124843334Y-82223425D01*
X124627154Y-82329119D01*
X124384089Y-82375316D01*
X124185000Y-82359437D01*
X123775289Y-82264093D01*
X123381490Y-82168925D01*
X123016686Y-82077387D01*
X122693961Y-81992932D01*
X122426395Y-81919014D01*
X122227074Y-81859086D01*
X122109078Y-81816600D01*
X122088921Y-81806170D01*
X121923092Y-81642634D01*
X121811052Y-81421270D01*
X121777890Y-81225458D01*
X121998090Y-81225458D01*
X122054916Y-81404761D01*
X122143359Y-81518850D01*
X122208347Y-81572243D01*
X122299562Y-81622341D01*
X122431482Y-81674123D01*
X122618581Y-81732566D01*
X122875337Y-81802648D01*
X123216225Y-81889346D01*
X123233019Y-81893530D01*
X123624296Y-81989450D01*
X123930693Y-82059651D01*
X124165391Y-82105005D01*
X124341569Y-82126381D01*
X124472407Y-82124652D01*
X124571085Y-82100686D01*
X124650782Y-82055355D01*
X124722307Y-81991907D01*
X124842176Y-81815770D01*
X124868575Y-81634309D01*
X124807694Y-81461937D01*
X124665727Y-81313072D01*
X124448867Y-81202129D01*
X124373190Y-81179196D01*
X123860607Y-81047246D01*
X123418355Y-80939234D01*
X123052427Y-80856485D01*
X122768817Y-80800320D01*
X122573517Y-80772063D01*
X122514017Y-80768800D01*
X122291950Y-80806649D01*
X122125807Y-80907786D01*
X122024787Y-81053594D01*
X121998090Y-81225458D01*
X121777890Y-81225458D01*
X121772189Y-81191797D01*
X121819257Y-80966640D01*
X121948453Y-80770767D01*
X122141138Y-80620487D01*
X122378673Y-80532109D01*
X122545068Y-80515561D01*
X122672285Y-80529664D01*
D10*
X108600000Y-77700000D02*
G75*
G03X108600000Y-84300000I-8600000J-3300000D01*
G01*
X115700000Y-84300000D02*
X108600000Y-84300000D01*
X115700000Y-77700000D02*
X108600000Y-77700000D01*
X115700000Y-84300000D02*
X115700000Y-77700000D01*
M02*
