G04 #@! TF.FileFunction,Soldermask,Top*
%FSLAX46Y46*%
G04 Gerber Fmt 4.6, Leading zero omitted, Abs format (unit mm)*
G04 Created by KiCad (PCBNEW 4.0.7-e2-6376~58~ubuntu14.04.1) date Wed Aug  8 15:05:30 2018*
%MOMM*%
%LPD*%
G01*
G04 APERTURE LIST*
%ADD10C,0.100000*%
%ADD11C,0.190000*%
%ADD12C,0.150000*%
%ADD13C,0.210000*%
%ADD14C,0.010000*%
%ADD15R,4.000000X1.000000*%
G04 APERTURE END LIST*
D10*
D11*
X139695000Y-86305000D02*
X139885000Y-86368333D01*
X139948333Y-86431667D01*
X140011667Y-86558333D01*
X140011667Y-86748333D01*
X139948333Y-86875000D01*
X139885000Y-86938333D01*
X139758333Y-87001667D01*
X139251667Y-87001667D01*
X139251667Y-85671667D01*
X139695000Y-85671667D01*
X139821667Y-85735000D01*
X139885000Y-85798333D01*
X139948333Y-85925000D01*
X139948333Y-86051667D01*
X139885000Y-86178333D01*
X139821667Y-86241667D01*
X139695000Y-86305000D01*
X139251667Y-86305000D01*
X139683333Y-76621667D02*
X140316667Y-76621667D01*
X139556667Y-77001667D02*
X140000000Y-75671667D01*
X140443333Y-77001667D01*
D12*
X128238095Y-84709524D02*
X128000000Y-84423810D01*
X127809524Y-84709524D02*
X127809524Y-84042857D01*
X128095238Y-84042857D01*
X128190476Y-84090476D01*
X128238095Y-84185714D01*
X128238095Y-84280952D01*
X128190476Y-84376190D01*
X128095238Y-84423810D01*
X127809524Y-84423810D01*
X128000000Y-83709524D02*
X127761905Y-83757143D01*
X127523809Y-83900000D01*
X127380952Y-84138095D01*
X127333333Y-84376190D01*
X127380952Y-84614286D01*
X127523809Y-84852381D01*
X127761905Y-84995238D01*
X128000000Y-85042857D01*
X128238095Y-84995238D01*
X128476190Y-84852381D01*
X128619047Y-84614286D01*
X128666667Y-84376190D01*
X128619047Y-84138095D01*
X128476190Y-83900000D01*
X128238095Y-83757143D01*
X128000000Y-83709524D01*
D13*
X115507143Y-86278571D02*
X115507143Y-84778571D01*
X116364286Y-86278571D01*
X116364286Y-84778571D01*
X117650000Y-86207143D02*
X117507143Y-86278571D01*
X117221429Y-86278571D01*
X117078572Y-86207143D01*
X117007143Y-86064286D01*
X117007143Y-85492857D01*
X117078572Y-85350000D01*
X117221429Y-85278571D01*
X117507143Y-85278571D01*
X117650000Y-85350000D01*
X117721429Y-85492857D01*
X117721429Y-85635714D01*
X117007143Y-85778571D01*
X119007143Y-85278571D02*
X119007143Y-86278571D01*
X118364286Y-85278571D02*
X118364286Y-86064286D01*
X118435714Y-86207143D01*
X118578572Y-86278571D01*
X118792857Y-86278571D01*
X118935714Y-86207143D01*
X119007143Y-86135714D01*
X119721429Y-86278571D02*
X119721429Y-85278571D01*
X119721429Y-85564286D02*
X119792857Y-85421429D01*
X119864286Y-85350000D01*
X120007143Y-85278571D01*
X120150000Y-85278571D01*
X120864286Y-86278571D02*
X120721428Y-86207143D01*
X120650000Y-86135714D01*
X120578571Y-85992857D01*
X120578571Y-85564286D01*
X120650000Y-85421429D01*
X120721428Y-85350000D01*
X120864286Y-85278571D01*
X121078571Y-85278571D01*
X121221428Y-85350000D01*
X121292857Y-85421429D01*
X121364286Y-85564286D01*
X121364286Y-85992857D01*
X121292857Y-86135714D01*
X121221428Y-86207143D01*
X121078571Y-86278571D01*
X120864286Y-86278571D01*
X122507143Y-85492857D02*
X122721429Y-85564286D01*
X122792857Y-85635714D01*
X122864286Y-85778571D01*
X122864286Y-85992857D01*
X122792857Y-86135714D01*
X122721429Y-86207143D01*
X122578571Y-86278571D01*
X122007143Y-86278571D01*
X122007143Y-84778571D01*
X122507143Y-84778571D01*
X122650000Y-84850000D01*
X122721429Y-84921429D01*
X122792857Y-85064286D01*
X122792857Y-85207143D01*
X122721429Y-85350000D01*
X122650000Y-85421429D01*
X122507143Y-85492857D01*
X122007143Y-85492857D01*
X123364286Y-85278571D02*
X123721429Y-86278571D01*
X124078571Y-85278571D02*
X123721429Y-86278571D01*
X123578571Y-86635714D01*
X123507143Y-86707143D01*
X123364286Y-86778571D01*
X124435714Y-85278571D02*
X125007143Y-85278571D01*
X124650000Y-84778571D02*
X124650000Y-86064286D01*
X124721428Y-86207143D01*
X124864286Y-86278571D01*
X125007143Y-86278571D01*
X126078571Y-86207143D02*
X125935714Y-86278571D01*
X125650000Y-86278571D01*
X125507143Y-86207143D01*
X125435714Y-86064286D01*
X125435714Y-85492857D01*
X125507143Y-85350000D01*
X125650000Y-85278571D01*
X125935714Y-85278571D01*
X126078571Y-85350000D01*
X126150000Y-85492857D01*
X126150000Y-85635714D01*
X125435714Y-85778571D01*
X126721428Y-86207143D02*
X126864285Y-86278571D01*
X127150000Y-86278571D01*
X127292857Y-86207143D01*
X127364285Y-86064286D01*
X127364285Y-85992857D01*
X127292857Y-85850000D01*
X127150000Y-85778571D01*
X126935714Y-85778571D01*
X126792857Y-85707143D01*
X126721428Y-85564286D01*
X126721428Y-85492857D01*
X126792857Y-85350000D01*
X126935714Y-85278571D01*
X127150000Y-85278571D01*
X127292857Y-85350000D01*
D14*
G36*
X130661232Y-72561389D02*
X131267885Y-72733939D01*
X131825648Y-72992787D01*
X132328595Y-73332167D01*
X132770800Y-73746308D01*
X133146338Y-74229442D01*
X133449284Y-74775800D01*
X133673712Y-75379613D01*
X133715978Y-75535383D01*
X133780720Y-75903475D01*
X133805575Y-76311113D01*
X133791483Y-76723327D01*
X133739383Y-77105142D01*
X133666476Y-77378086D01*
X133429617Y-77914617D01*
X133112069Y-78431935D01*
X132731761Y-78905377D01*
X132306623Y-79310283D01*
X132201273Y-79393489D01*
X131863253Y-79621711D01*
X131480563Y-79833354D01*
X131086718Y-80012320D01*
X130715233Y-80142508D01*
X130560400Y-80181730D01*
X130193045Y-80273999D01*
X129911689Y-80378063D01*
X129700771Y-80502788D01*
X129544733Y-80657035D01*
X129443678Y-80817878D01*
X129382612Y-80954347D01*
X129304616Y-81152758D01*
X129216920Y-81391752D01*
X129126759Y-81649973D01*
X129041364Y-81906060D01*
X128967968Y-82138657D01*
X128913804Y-82326404D01*
X128886104Y-82447944D01*
X128884000Y-82470642D01*
X128915061Y-82589478D01*
X128958143Y-82646693D01*
X129030713Y-82676926D01*
X129184957Y-82721865D01*
X129402805Y-82776887D01*
X129666189Y-82837364D01*
X129885243Y-82884035D01*
X130376762Y-82984988D01*
X130784102Y-83067085D01*
X131122525Y-83132286D01*
X131407299Y-83182549D01*
X131653687Y-83219835D01*
X131876955Y-83246103D01*
X132092367Y-83263312D01*
X132315187Y-83273422D01*
X132560682Y-83278392D01*
X132844116Y-83280182D01*
X132973400Y-83280449D01*
X133409312Y-83277899D01*
X133767400Y-83265999D01*
X134071301Y-83240654D01*
X134344656Y-83197767D01*
X134611102Y-83133242D01*
X134894279Y-83042982D01*
X135217826Y-82922892D01*
X135361000Y-82866713D01*
X135707897Y-82719763D01*
X136090129Y-82541455D01*
X136493742Y-82339761D01*
X136904782Y-82122653D01*
X137309293Y-81898103D01*
X137693323Y-81674081D01*
X138042916Y-81458561D01*
X138344119Y-81259513D01*
X138582976Y-81084909D01*
X138745536Y-80942721D01*
X138764600Y-80922323D01*
X138828269Y-80790310D01*
X138863577Y-80567367D01*
X138870463Y-80252447D01*
X138848862Y-79844506D01*
X138798715Y-79342497D01*
X138719957Y-78745376D01*
X138612527Y-78052096D01*
X138583314Y-77876301D01*
X138503294Y-77345738D01*
X138455175Y-76876540D01*
X138438002Y-76433932D01*
X138450818Y-75983137D01*
X138492665Y-75489382D01*
X138512717Y-75310791D01*
X138539949Y-75041095D01*
X138557507Y-74787315D01*
X138563972Y-74577299D01*
X138557924Y-74438899D01*
X138557376Y-74435076D01*
X138544097Y-74289774D01*
X138564760Y-74213888D01*
X138606633Y-74185306D01*
X138760657Y-74175714D01*
X138940308Y-74240981D01*
X139074681Y-74334256D01*
X139167385Y-74434513D01*
X139187429Y-74533134D01*
X139176378Y-74593254D01*
X139116312Y-74707786D01*
X139039652Y-74760817D01*
X138954061Y-74806935D01*
X138884552Y-74903251D01*
X138827665Y-75061074D01*
X138779939Y-75291711D01*
X138737911Y-75606471D01*
X138716145Y-75817731D01*
X138681083Y-76362745D01*
X138689290Y-76820839D01*
X138741504Y-77197364D01*
X138838464Y-77497673D01*
X138979790Y-77725785D01*
X139116109Y-77887791D01*
X140007154Y-77856015D01*
X140520280Y-77829421D01*
X140958892Y-77789388D01*
X141316400Y-77736894D01*
X141586216Y-77672917D01*
X141761749Y-77598433D01*
X141767115Y-77594988D01*
X141916128Y-77525848D01*
X142031226Y-77545452D01*
X142114519Y-77630503D01*
X142184618Y-77800403D01*
X142174354Y-77970842D01*
X142091912Y-78101879D01*
X142018538Y-78158919D01*
X141952658Y-78164430D01*
X141850801Y-78118723D01*
X141822926Y-78103808D01*
X141755797Y-78070957D01*
X141686213Y-78049571D01*
X141596762Y-78039555D01*
X141470032Y-78040816D01*
X141288611Y-78053258D01*
X141035088Y-78076787D01*
X140819713Y-78098352D01*
X140492558Y-78127327D01*
X140156777Y-78149908D01*
X139844401Y-78164404D01*
X139587461Y-78169126D01*
X139504077Y-78167796D01*
X139024355Y-78152600D01*
X138974586Y-78322728D01*
X138956764Y-78443831D01*
X138956218Y-78633945D01*
X138973322Y-78903371D01*
X139008445Y-79262414D01*
X139008457Y-79262528D01*
X139041206Y-79585241D01*
X139071596Y-79923305D01*
X139096587Y-80240313D01*
X139113141Y-80499859D01*
X139115105Y-80540200D01*
X139136588Y-80855454D01*
X139173917Y-81098242D01*
X139235478Y-81297425D01*
X139329655Y-81481862D01*
X139434146Y-81638229D01*
X139583429Y-81875202D01*
X139680774Y-82110602D01*
X139734923Y-82375617D01*
X139754621Y-82701432D01*
X139755200Y-82783418D01*
X139765916Y-83098041D01*
X139802332Y-83334760D01*
X139870849Y-83515418D01*
X139977869Y-83661861D01*
X140026756Y-83710136D01*
X140096936Y-83768440D01*
X140168823Y-83802187D01*
X140268517Y-83815469D01*
X140422123Y-83812375D01*
X140604449Y-83800638D01*
X140842053Y-83792413D01*
X141138846Y-83794584D01*
X141453038Y-83806336D01*
X141685246Y-83821786D01*
X142035790Y-83850288D01*
X142299605Y-83869588D01*
X142491170Y-83879375D01*
X142624965Y-83879340D01*
X142715471Y-83869173D01*
X142777168Y-83848565D01*
X142824536Y-83817206D01*
X142847904Y-83796916D01*
X142937067Y-83734729D01*
X143006679Y-83747165D01*
X143030847Y-83765209D01*
X143093001Y-83874053D01*
X143103090Y-84023100D01*
X143059561Y-84164401D01*
X143044500Y-84187224D01*
X142994597Y-84236982D01*
X142928100Y-84245018D01*
X142810562Y-84212771D01*
X142769524Y-84198708D01*
X142602236Y-84157439D01*
X142358544Y-84118927D01*
X142063645Y-84085171D01*
X141742731Y-84058170D01*
X141420998Y-84039926D01*
X141123639Y-84032438D01*
X140875850Y-84037705D01*
X140806177Y-84042868D01*
X140557250Y-84070487D01*
X140399716Y-84107514D01*
X140323523Y-84168970D01*
X140318621Y-84269876D01*
X140374958Y-84425255D01*
X140447557Y-84578800D01*
X140558893Y-84817730D01*
X140672871Y-85079476D01*
X140765008Y-85307799D01*
X140765818Y-85309938D01*
X140841591Y-85499549D01*
X140908936Y-85620803D01*
X140992232Y-85701498D01*
X141115860Y-85769436D01*
X141203000Y-85808435D01*
X141330469Y-85901531D01*
X141371010Y-86009470D01*
X141339061Y-86137962D01*
X141230041Y-86264282D01*
X141067146Y-86369856D01*
X140873571Y-86436107D01*
X140828909Y-86443596D01*
X140674664Y-86444733D01*
X140584738Y-86390195D01*
X140552884Y-86268905D01*
X140572856Y-86069784D01*
X140584475Y-86010107D01*
X140612071Y-85827654D01*
X140607283Y-85662106D01*
X140567599Y-85463143D01*
X140554657Y-85412635D01*
X140464501Y-85129594D01*
X140343773Y-84837004D01*
X140202704Y-84552293D01*
X140051524Y-84292892D01*
X139900463Y-84076232D01*
X139759753Y-83919743D01*
X139639624Y-83840854D01*
X139630581Y-83838258D01*
X139490764Y-83844084D01*
X139337248Y-83932371D01*
X139164347Y-84107784D01*
X138966375Y-84374988D01*
X138954033Y-84393357D01*
X138730135Y-84778206D01*
X138526487Y-85222229D01*
X138360669Y-85683032D01*
X138260697Y-86065371D01*
X138207218Y-86357282D01*
X138185954Y-86577867D01*
X138197467Y-86752343D01*
X138242320Y-86905928D01*
X138281334Y-86990494D01*
X138341168Y-87118165D01*
X138353211Y-87194531D01*
X138319704Y-87256712D01*
X138298860Y-87280635D01*
X138177154Y-87349180D01*
X138003559Y-87370822D01*
X137817231Y-87343748D01*
X137723200Y-87307279D01*
X137607633Y-87204888D01*
X137581176Y-87074631D01*
X137645657Y-86940644D01*
X137692046Y-86895679D01*
X137769004Y-86806831D01*
X137840003Y-86663910D01*
X137913277Y-86448370D01*
X137953768Y-86306000D01*
X138086369Y-85828758D01*
X138203474Y-85432957D01*
X138312290Y-85101004D01*
X138420021Y-84815309D01*
X138533873Y-84558279D01*
X138661051Y-84312325D01*
X138808762Y-84059853D01*
X138984210Y-83783273D01*
X138991961Y-83771378D01*
X139135989Y-83542445D01*
X139265548Y-83321846D01*
X139366306Y-83134925D01*
X139423404Y-83008520D01*
X139497009Y-82661992D01*
X139471127Y-82319158D01*
X139345169Y-81978010D01*
X139118544Y-81636540D01*
X138970868Y-81468807D01*
X138914055Y-81412631D01*
X138859275Y-81377510D01*
X138794238Y-81368144D01*
X138706652Y-81389234D01*
X138584228Y-81445481D01*
X138414672Y-81541585D01*
X138185695Y-81682247D01*
X137885006Y-81872167D01*
X137837719Y-81902172D01*
X137373495Y-82192009D01*
X136971141Y-82431777D01*
X136611003Y-82632038D01*
X136273425Y-82803354D01*
X135938752Y-82956288D01*
X135659693Y-83072580D01*
X135237928Y-83230862D01*
X134823473Y-83361517D01*
X134407484Y-83464421D01*
X133981118Y-83539453D01*
X133535530Y-83586492D01*
X133061876Y-83605416D01*
X132551314Y-83596104D01*
X131994998Y-83558434D01*
X131384086Y-83492285D01*
X130709732Y-83397534D01*
X129963094Y-83274060D01*
X129135328Y-83121743D01*
X128376000Y-82972454D01*
X127721992Y-82839959D01*
X127155788Y-82722788D01*
X126665282Y-82617792D01*
X126238370Y-82521820D01*
X125862950Y-82431722D01*
X125526916Y-82344349D01*
X125218165Y-82256552D01*
X124924594Y-82165179D01*
X124634098Y-82067081D01*
X124334574Y-81959109D01*
X124013917Y-81838112D01*
X124007200Y-81835535D01*
X123744805Y-81737548D01*
X123496954Y-81652234D01*
X123254654Y-81578733D01*
X123008917Y-81516184D01*
X122750750Y-81463726D01*
X122471164Y-81420497D01*
X122161169Y-81385638D01*
X121811773Y-81358287D01*
X121413987Y-81337583D01*
X120958820Y-81322665D01*
X120437282Y-81312672D01*
X119840382Y-81306744D01*
X119159129Y-81304019D01*
X118452486Y-81303599D01*
X115412373Y-81304999D01*
X115440414Y-81132205D01*
X115464532Y-81010607D01*
X115486354Y-80942183D01*
X115488406Y-80939459D01*
X115551283Y-80925636D01*
X115703739Y-80912450D01*
X115933755Y-80900087D01*
X116229310Y-80888732D01*
X116578386Y-80878571D01*
X116968961Y-80869789D01*
X117389017Y-80862572D01*
X117826534Y-80857104D01*
X118269492Y-80853571D01*
X118705871Y-80852159D01*
X119123651Y-80853053D01*
X119510813Y-80856438D01*
X119855337Y-80862500D01*
X120073742Y-80868747D01*
X120713939Y-80893311D01*
X121267039Y-80920497D01*
X121747545Y-80952479D01*
X122169960Y-80991434D01*
X122548786Y-81039536D01*
X122898526Y-81098960D01*
X123233682Y-81171882D01*
X123568757Y-81260475D01*
X123918253Y-81366917D01*
X124296673Y-81493380D01*
X124341138Y-81508763D01*
X125328951Y-81830326D01*
X126251449Y-82086503D01*
X127118665Y-82280064D01*
X127172078Y-82290301D01*
X127552739Y-82355684D01*
X127850215Y-82388544D01*
X128078223Y-82386889D01*
X128250484Y-82348726D01*
X128380716Y-82272062D01*
X128482638Y-82154904D01*
X128519498Y-82094577D01*
X128585970Y-81944515D01*
X128660893Y-81726452D01*
X128736098Y-81470841D01*
X128803422Y-81208132D01*
X128854697Y-80968777D01*
X128881758Y-80783229D01*
X128884000Y-80735315D01*
X128873840Y-80612066D01*
X128837931Y-80492509D01*
X128768124Y-80367662D01*
X128656270Y-80228545D01*
X128494223Y-80066175D01*
X128273834Y-79871570D01*
X127986955Y-79635750D01*
X127630943Y-79354038D01*
X127145143Y-78943373D01*
X126753324Y-78540669D01*
X126449693Y-78134710D01*
X126228457Y-77714277D01*
X126083825Y-77268153D01*
X126066662Y-77155851D01*
X127258400Y-77155851D01*
X127277275Y-77218008D01*
X127325005Y-77341104D01*
X127388251Y-77493654D01*
X127453669Y-77644175D01*
X127507919Y-77761182D01*
X127536526Y-77812194D01*
X127589419Y-77809140D01*
X127714606Y-77786762D01*
X127885674Y-77749822D01*
X127896747Y-77747264D01*
X128242239Y-77667139D01*
X128665935Y-78082965D01*
X128597961Y-78371782D01*
X128560684Y-78542305D01*
X128535774Y-78679464D01*
X128529465Y-78736800D01*
X128571520Y-78785130D01*
X128679461Y-78857456D01*
X128825310Y-78938891D01*
X128981088Y-79014545D01*
X129118819Y-79069531D01*
X129188800Y-79087652D01*
X129225956Y-79049638D01*
X129299857Y-78946193D01*
X129395050Y-78799049D01*
X129402504Y-78787040D01*
X129590809Y-78482800D01*
X130198574Y-78482800D01*
X130387642Y-78789114D01*
X130484333Y-78937596D01*
X130562058Y-79042006D01*
X130605210Y-79081546D01*
X130606859Y-79081214D01*
X130666157Y-79056428D01*
X130792300Y-79005259D01*
X130954304Y-78940258D01*
X131114016Y-78869353D01*
X131227380Y-78805436D01*
X131269790Y-78762458D01*
X131257673Y-78688895D01*
X131228035Y-78549529D01*
X131194888Y-78406600D01*
X131121796Y-78101800D01*
X131339935Y-77883030D01*
X131558075Y-77664261D01*
X131899268Y-77749966D01*
X132070604Y-77789955D01*
X132197742Y-77813878D01*
X132254336Y-77816815D01*
X132254832Y-77816335D01*
X132281729Y-77761415D01*
X132333541Y-77644045D01*
X132397788Y-77493823D01*
X132461986Y-77340345D01*
X132513653Y-77213209D01*
X132540306Y-77142013D01*
X132541600Y-77136364D01*
X132501771Y-77102449D01*
X132396950Y-77030986D01*
X132249134Y-76936920D01*
X132236800Y-76929292D01*
X131932000Y-76741158D01*
X131932000Y-76147037D01*
X132224100Y-75957864D01*
X132372182Y-75862147D01*
X132482197Y-75791387D01*
X132530846Y-75760567D01*
X132531071Y-75760440D01*
X132520567Y-75713288D01*
X132479095Y-75596499D01*
X132415239Y-75434020D01*
X132405760Y-75410834D01*
X132265576Y-75069480D01*
X132086088Y-75100537D01*
X131839141Y-75142458D01*
X131669584Y-75164593D01*
X131554564Y-75163724D01*
X131471231Y-75136631D01*
X131396733Y-75080097D01*
X131308312Y-74990998D01*
X131116424Y-74792673D01*
X131196825Y-74445990D01*
X131231290Y-74269261D01*
X131245795Y-74132814D01*
X131237419Y-74064894D01*
X131236313Y-74063774D01*
X131153944Y-74015644D01*
X131017766Y-73956720D01*
X130859428Y-73898181D01*
X130710583Y-73851207D01*
X130602881Y-73826976D01*
X130570243Y-73828516D01*
X130521285Y-73884361D01*
X130439769Y-74001473D01*
X130353475Y-74138066D01*
X130183333Y-74418800D01*
X129892379Y-74418800D01*
X129601425Y-74418799D01*
X129411317Y-74110800D01*
X129311804Y-73954961D01*
X129231084Y-73864125D01*
X129143556Y-73832500D01*
X129023618Y-73854294D01*
X128845672Y-73923715D01*
X128755225Y-73962360D01*
X128615238Y-74026150D01*
X128548571Y-74079640D01*
X128534881Y-74151896D01*
X128550610Y-74254675D01*
X128595066Y-74504445D01*
X128616781Y-74677469D01*
X128613008Y-74796615D01*
X128580999Y-74884750D01*
X128518009Y-74964741D01*
X128458194Y-75024120D01*
X128277587Y-75197641D01*
X127915688Y-75132966D01*
X127733252Y-75106861D01*
X127591303Y-75098625D01*
X127517975Y-75109745D01*
X127515615Y-75111845D01*
X127475637Y-75181565D01*
X127419435Y-75306811D01*
X127358657Y-75457488D01*
X127304952Y-75603504D01*
X127269969Y-75714765D01*
X127264458Y-75760679D01*
X127314022Y-75794743D01*
X127425460Y-75867362D01*
X127574725Y-75962869D01*
X127575900Y-75963615D01*
X127868000Y-76149122D01*
X127868000Y-76730488D01*
X127563200Y-76921016D01*
X127412709Y-77020902D01*
X127303793Y-77104284D01*
X127258604Y-77154096D01*
X127258400Y-77155851D01*
X126066662Y-77155851D01*
X126010002Y-76785122D01*
X126001197Y-76253964D01*
X126003445Y-76202392D01*
X126051961Y-75691531D01*
X126151496Y-75240423D01*
X126312778Y-74815548D01*
X126546533Y-74383392D01*
X126626019Y-74257159D01*
X126992698Y-73781034D01*
X127428201Y-73371490D01*
X127920497Y-73033581D01*
X128457557Y-72772363D01*
X129027351Y-72592892D01*
X129617849Y-72500223D01*
X130217022Y-72499412D01*
X130661232Y-72561389D01*
X130661232Y-72561389D01*
G37*
X130661232Y-72561389D02*
X131267885Y-72733939D01*
X131825648Y-72992787D01*
X132328595Y-73332167D01*
X132770800Y-73746308D01*
X133146338Y-74229442D01*
X133449284Y-74775800D01*
X133673712Y-75379613D01*
X133715978Y-75535383D01*
X133780720Y-75903475D01*
X133805575Y-76311113D01*
X133791483Y-76723327D01*
X133739383Y-77105142D01*
X133666476Y-77378086D01*
X133429617Y-77914617D01*
X133112069Y-78431935D01*
X132731761Y-78905377D01*
X132306623Y-79310283D01*
X132201273Y-79393489D01*
X131863253Y-79621711D01*
X131480563Y-79833354D01*
X131086718Y-80012320D01*
X130715233Y-80142508D01*
X130560400Y-80181730D01*
X130193045Y-80273999D01*
X129911689Y-80378063D01*
X129700771Y-80502788D01*
X129544733Y-80657035D01*
X129443678Y-80817878D01*
X129382612Y-80954347D01*
X129304616Y-81152758D01*
X129216920Y-81391752D01*
X129126759Y-81649973D01*
X129041364Y-81906060D01*
X128967968Y-82138657D01*
X128913804Y-82326404D01*
X128886104Y-82447944D01*
X128884000Y-82470642D01*
X128915061Y-82589478D01*
X128958143Y-82646693D01*
X129030713Y-82676926D01*
X129184957Y-82721865D01*
X129402805Y-82776887D01*
X129666189Y-82837364D01*
X129885243Y-82884035D01*
X130376762Y-82984988D01*
X130784102Y-83067085D01*
X131122525Y-83132286D01*
X131407299Y-83182549D01*
X131653687Y-83219835D01*
X131876955Y-83246103D01*
X132092367Y-83263312D01*
X132315187Y-83273422D01*
X132560682Y-83278392D01*
X132844116Y-83280182D01*
X132973400Y-83280449D01*
X133409312Y-83277899D01*
X133767400Y-83265999D01*
X134071301Y-83240654D01*
X134344656Y-83197767D01*
X134611102Y-83133242D01*
X134894279Y-83042982D01*
X135217826Y-82922892D01*
X135361000Y-82866713D01*
X135707897Y-82719763D01*
X136090129Y-82541455D01*
X136493742Y-82339761D01*
X136904782Y-82122653D01*
X137309293Y-81898103D01*
X137693323Y-81674081D01*
X138042916Y-81458561D01*
X138344119Y-81259513D01*
X138582976Y-81084909D01*
X138745536Y-80942721D01*
X138764600Y-80922323D01*
X138828269Y-80790310D01*
X138863577Y-80567367D01*
X138870463Y-80252447D01*
X138848862Y-79844506D01*
X138798715Y-79342497D01*
X138719957Y-78745376D01*
X138612527Y-78052096D01*
X138583314Y-77876301D01*
X138503294Y-77345738D01*
X138455175Y-76876540D01*
X138438002Y-76433932D01*
X138450818Y-75983137D01*
X138492665Y-75489382D01*
X138512717Y-75310791D01*
X138539949Y-75041095D01*
X138557507Y-74787315D01*
X138563972Y-74577299D01*
X138557924Y-74438899D01*
X138557376Y-74435076D01*
X138544097Y-74289774D01*
X138564760Y-74213888D01*
X138606633Y-74185306D01*
X138760657Y-74175714D01*
X138940308Y-74240981D01*
X139074681Y-74334256D01*
X139167385Y-74434513D01*
X139187429Y-74533134D01*
X139176378Y-74593254D01*
X139116312Y-74707786D01*
X139039652Y-74760817D01*
X138954061Y-74806935D01*
X138884552Y-74903251D01*
X138827665Y-75061074D01*
X138779939Y-75291711D01*
X138737911Y-75606471D01*
X138716145Y-75817731D01*
X138681083Y-76362745D01*
X138689290Y-76820839D01*
X138741504Y-77197364D01*
X138838464Y-77497673D01*
X138979790Y-77725785D01*
X139116109Y-77887791D01*
X140007154Y-77856015D01*
X140520280Y-77829421D01*
X140958892Y-77789388D01*
X141316400Y-77736894D01*
X141586216Y-77672917D01*
X141761749Y-77598433D01*
X141767115Y-77594988D01*
X141916128Y-77525848D01*
X142031226Y-77545452D01*
X142114519Y-77630503D01*
X142184618Y-77800403D01*
X142174354Y-77970842D01*
X142091912Y-78101879D01*
X142018538Y-78158919D01*
X141952658Y-78164430D01*
X141850801Y-78118723D01*
X141822926Y-78103808D01*
X141755797Y-78070957D01*
X141686213Y-78049571D01*
X141596762Y-78039555D01*
X141470032Y-78040816D01*
X141288611Y-78053258D01*
X141035088Y-78076787D01*
X140819713Y-78098352D01*
X140492558Y-78127327D01*
X140156777Y-78149908D01*
X139844401Y-78164404D01*
X139587461Y-78169126D01*
X139504077Y-78167796D01*
X139024355Y-78152600D01*
X138974586Y-78322728D01*
X138956764Y-78443831D01*
X138956218Y-78633945D01*
X138973322Y-78903371D01*
X139008445Y-79262414D01*
X139008457Y-79262528D01*
X139041206Y-79585241D01*
X139071596Y-79923305D01*
X139096587Y-80240313D01*
X139113141Y-80499859D01*
X139115105Y-80540200D01*
X139136588Y-80855454D01*
X139173917Y-81098242D01*
X139235478Y-81297425D01*
X139329655Y-81481862D01*
X139434146Y-81638229D01*
X139583429Y-81875202D01*
X139680774Y-82110602D01*
X139734923Y-82375617D01*
X139754621Y-82701432D01*
X139755200Y-82783418D01*
X139765916Y-83098041D01*
X139802332Y-83334760D01*
X139870849Y-83515418D01*
X139977869Y-83661861D01*
X140026756Y-83710136D01*
X140096936Y-83768440D01*
X140168823Y-83802187D01*
X140268517Y-83815469D01*
X140422123Y-83812375D01*
X140604449Y-83800638D01*
X140842053Y-83792413D01*
X141138846Y-83794584D01*
X141453038Y-83806336D01*
X141685246Y-83821786D01*
X142035790Y-83850288D01*
X142299605Y-83869588D01*
X142491170Y-83879375D01*
X142624965Y-83879340D01*
X142715471Y-83869173D01*
X142777168Y-83848565D01*
X142824536Y-83817206D01*
X142847904Y-83796916D01*
X142937067Y-83734729D01*
X143006679Y-83747165D01*
X143030847Y-83765209D01*
X143093001Y-83874053D01*
X143103090Y-84023100D01*
X143059561Y-84164401D01*
X143044500Y-84187224D01*
X142994597Y-84236982D01*
X142928100Y-84245018D01*
X142810562Y-84212771D01*
X142769524Y-84198708D01*
X142602236Y-84157439D01*
X142358544Y-84118927D01*
X142063645Y-84085171D01*
X141742731Y-84058170D01*
X141420998Y-84039926D01*
X141123639Y-84032438D01*
X140875850Y-84037705D01*
X140806177Y-84042868D01*
X140557250Y-84070487D01*
X140399716Y-84107514D01*
X140323523Y-84168970D01*
X140318621Y-84269876D01*
X140374958Y-84425255D01*
X140447557Y-84578800D01*
X140558893Y-84817730D01*
X140672871Y-85079476D01*
X140765008Y-85307799D01*
X140765818Y-85309938D01*
X140841591Y-85499549D01*
X140908936Y-85620803D01*
X140992232Y-85701498D01*
X141115860Y-85769436D01*
X141203000Y-85808435D01*
X141330469Y-85901531D01*
X141371010Y-86009470D01*
X141339061Y-86137962D01*
X141230041Y-86264282D01*
X141067146Y-86369856D01*
X140873571Y-86436107D01*
X140828909Y-86443596D01*
X140674664Y-86444733D01*
X140584738Y-86390195D01*
X140552884Y-86268905D01*
X140572856Y-86069784D01*
X140584475Y-86010107D01*
X140612071Y-85827654D01*
X140607283Y-85662106D01*
X140567599Y-85463143D01*
X140554657Y-85412635D01*
X140464501Y-85129594D01*
X140343773Y-84837004D01*
X140202704Y-84552293D01*
X140051524Y-84292892D01*
X139900463Y-84076232D01*
X139759753Y-83919743D01*
X139639624Y-83840854D01*
X139630581Y-83838258D01*
X139490764Y-83844084D01*
X139337248Y-83932371D01*
X139164347Y-84107784D01*
X138966375Y-84374988D01*
X138954033Y-84393357D01*
X138730135Y-84778206D01*
X138526487Y-85222229D01*
X138360669Y-85683032D01*
X138260697Y-86065371D01*
X138207218Y-86357282D01*
X138185954Y-86577867D01*
X138197467Y-86752343D01*
X138242320Y-86905928D01*
X138281334Y-86990494D01*
X138341168Y-87118165D01*
X138353211Y-87194531D01*
X138319704Y-87256712D01*
X138298860Y-87280635D01*
X138177154Y-87349180D01*
X138003559Y-87370822D01*
X137817231Y-87343748D01*
X137723200Y-87307279D01*
X137607633Y-87204888D01*
X137581176Y-87074631D01*
X137645657Y-86940644D01*
X137692046Y-86895679D01*
X137769004Y-86806831D01*
X137840003Y-86663910D01*
X137913277Y-86448370D01*
X137953768Y-86306000D01*
X138086369Y-85828758D01*
X138203474Y-85432957D01*
X138312290Y-85101004D01*
X138420021Y-84815309D01*
X138533873Y-84558279D01*
X138661051Y-84312325D01*
X138808762Y-84059853D01*
X138984210Y-83783273D01*
X138991961Y-83771378D01*
X139135989Y-83542445D01*
X139265548Y-83321846D01*
X139366306Y-83134925D01*
X139423404Y-83008520D01*
X139497009Y-82661992D01*
X139471127Y-82319158D01*
X139345169Y-81978010D01*
X139118544Y-81636540D01*
X138970868Y-81468807D01*
X138914055Y-81412631D01*
X138859275Y-81377510D01*
X138794238Y-81368144D01*
X138706652Y-81389234D01*
X138584228Y-81445481D01*
X138414672Y-81541585D01*
X138185695Y-81682247D01*
X137885006Y-81872167D01*
X137837719Y-81902172D01*
X137373495Y-82192009D01*
X136971141Y-82431777D01*
X136611003Y-82632038D01*
X136273425Y-82803354D01*
X135938752Y-82956288D01*
X135659693Y-83072580D01*
X135237928Y-83230862D01*
X134823473Y-83361517D01*
X134407484Y-83464421D01*
X133981118Y-83539453D01*
X133535530Y-83586492D01*
X133061876Y-83605416D01*
X132551314Y-83596104D01*
X131994998Y-83558434D01*
X131384086Y-83492285D01*
X130709732Y-83397534D01*
X129963094Y-83274060D01*
X129135328Y-83121743D01*
X128376000Y-82972454D01*
X127721992Y-82839959D01*
X127155788Y-82722788D01*
X126665282Y-82617792D01*
X126238370Y-82521820D01*
X125862950Y-82431722D01*
X125526916Y-82344349D01*
X125218165Y-82256552D01*
X124924594Y-82165179D01*
X124634098Y-82067081D01*
X124334574Y-81959109D01*
X124013917Y-81838112D01*
X124007200Y-81835535D01*
X123744805Y-81737548D01*
X123496954Y-81652234D01*
X123254654Y-81578733D01*
X123008917Y-81516184D01*
X122750750Y-81463726D01*
X122471164Y-81420497D01*
X122161169Y-81385638D01*
X121811773Y-81358287D01*
X121413987Y-81337583D01*
X120958820Y-81322665D01*
X120437282Y-81312672D01*
X119840382Y-81306744D01*
X119159129Y-81304019D01*
X118452486Y-81303599D01*
X115412373Y-81304999D01*
X115440414Y-81132205D01*
X115464532Y-81010607D01*
X115486354Y-80942183D01*
X115488406Y-80939459D01*
X115551283Y-80925636D01*
X115703739Y-80912450D01*
X115933755Y-80900087D01*
X116229310Y-80888732D01*
X116578386Y-80878571D01*
X116968961Y-80869789D01*
X117389017Y-80862572D01*
X117826534Y-80857104D01*
X118269492Y-80853571D01*
X118705871Y-80852159D01*
X119123651Y-80853053D01*
X119510813Y-80856438D01*
X119855337Y-80862500D01*
X120073742Y-80868747D01*
X120713939Y-80893311D01*
X121267039Y-80920497D01*
X121747545Y-80952479D01*
X122169960Y-80991434D01*
X122548786Y-81039536D01*
X122898526Y-81098960D01*
X123233682Y-81171882D01*
X123568757Y-81260475D01*
X123918253Y-81366917D01*
X124296673Y-81493380D01*
X124341138Y-81508763D01*
X125328951Y-81830326D01*
X126251449Y-82086503D01*
X127118665Y-82280064D01*
X127172078Y-82290301D01*
X127552739Y-82355684D01*
X127850215Y-82388544D01*
X128078223Y-82386889D01*
X128250484Y-82348726D01*
X128380716Y-82272062D01*
X128482638Y-82154904D01*
X128519498Y-82094577D01*
X128585970Y-81944515D01*
X128660893Y-81726452D01*
X128736098Y-81470841D01*
X128803422Y-81208132D01*
X128854697Y-80968777D01*
X128881758Y-80783229D01*
X128884000Y-80735315D01*
X128873840Y-80612066D01*
X128837931Y-80492509D01*
X128768124Y-80367662D01*
X128656270Y-80228545D01*
X128494223Y-80066175D01*
X128273834Y-79871570D01*
X127986955Y-79635750D01*
X127630943Y-79354038D01*
X127145143Y-78943373D01*
X126753324Y-78540669D01*
X126449693Y-78134710D01*
X126228457Y-77714277D01*
X126083825Y-77268153D01*
X126066662Y-77155851D01*
X127258400Y-77155851D01*
X127277275Y-77218008D01*
X127325005Y-77341104D01*
X127388251Y-77493654D01*
X127453669Y-77644175D01*
X127507919Y-77761182D01*
X127536526Y-77812194D01*
X127589419Y-77809140D01*
X127714606Y-77786762D01*
X127885674Y-77749822D01*
X127896747Y-77747264D01*
X128242239Y-77667139D01*
X128665935Y-78082965D01*
X128597961Y-78371782D01*
X128560684Y-78542305D01*
X128535774Y-78679464D01*
X128529465Y-78736800D01*
X128571520Y-78785130D01*
X128679461Y-78857456D01*
X128825310Y-78938891D01*
X128981088Y-79014545D01*
X129118819Y-79069531D01*
X129188800Y-79087652D01*
X129225956Y-79049638D01*
X129299857Y-78946193D01*
X129395050Y-78799049D01*
X129402504Y-78787040D01*
X129590809Y-78482800D01*
X130198574Y-78482800D01*
X130387642Y-78789114D01*
X130484333Y-78937596D01*
X130562058Y-79042006D01*
X130605210Y-79081546D01*
X130606859Y-79081214D01*
X130666157Y-79056428D01*
X130792300Y-79005259D01*
X130954304Y-78940258D01*
X131114016Y-78869353D01*
X131227380Y-78805436D01*
X131269790Y-78762458D01*
X131257673Y-78688895D01*
X131228035Y-78549529D01*
X131194888Y-78406600D01*
X131121796Y-78101800D01*
X131339935Y-77883030D01*
X131558075Y-77664261D01*
X131899268Y-77749966D01*
X132070604Y-77789955D01*
X132197742Y-77813878D01*
X132254336Y-77816815D01*
X132254832Y-77816335D01*
X132281729Y-77761415D01*
X132333541Y-77644045D01*
X132397788Y-77493823D01*
X132461986Y-77340345D01*
X132513653Y-77213209D01*
X132540306Y-77142013D01*
X132541600Y-77136364D01*
X132501771Y-77102449D01*
X132396950Y-77030986D01*
X132249134Y-76936920D01*
X132236800Y-76929292D01*
X131932000Y-76741158D01*
X131932000Y-76147037D01*
X132224100Y-75957864D01*
X132372182Y-75862147D01*
X132482197Y-75791387D01*
X132530846Y-75760567D01*
X132531071Y-75760440D01*
X132520567Y-75713288D01*
X132479095Y-75596499D01*
X132415239Y-75434020D01*
X132405760Y-75410834D01*
X132265576Y-75069480D01*
X132086088Y-75100537D01*
X131839141Y-75142458D01*
X131669584Y-75164593D01*
X131554564Y-75163724D01*
X131471231Y-75136631D01*
X131396733Y-75080097D01*
X131308312Y-74990998D01*
X131116424Y-74792673D01*
X131196825Y-74445990D01*
X131231290Y-74269261D01*
X131245795Y-74132814D01*
X131237419Y-74064894D01*
X131236313Y-74063774D01*
X131153944Y-74015644D01*
X131017766Y-73956720D01*
X130859428Y-73898181D01*
X130710583Y-73851207D01*
X130602881Y-73826976D01*
X130570243Y-73828516D01*
X130521285Y-73884361D01*
X130439769Y-74001473D01*
X130353475Y-74138066D01*
X130183333Y-74418800D01*
X129892379Y-74418800D01*
X129601425Y-74418799D01*
X129411317Y-74110800D01*
X129311804Y-73954961D01*
X129231084Y-73864125D01*
X129143556Y-73832500D01*
X129023618Y-73854294D01*
X128845672Y-73923715D01*
X128755225Y-73962360D01*
X128615238Y-74026150D01*
X128548571Y-74079640D01*
X128534881Y-74151896D01*
X128550610Y-74254675D01*
X128595066Y-74504445D01*
X128616781Y-74677469D01*
X128613008Y-74796615D01*
X128580999Y-74884750D01*
X128518009Y-74964741D01*
X128458194Y-75024120D01*
X128277587Y-75197641D01*
X127915688Y-75132966D01*
X127733252Y-75106861D01*
X127591303Y-75098625D01*
X127517975Y-75109745D01*
X127515615Y-75111845D01*
X127475637Y-75181565D01*
X127419435Y-75306811D01*
X127358657Y-75457488D01*
X127304952Y-75603504D01*
X127269969Y-75714765D01*
X127264458Y-75760679D01*
X127314022Y-75794743D01*
X127425460Y-75867362D01*
X127574725Y-75962869D01*
X127575900Y-75963615D01*
X127868000Y-76149122D01*
X127868000Y-76730488D01*
X127563200Y-76921016D01*
X127412709Y-77020902D01*
X127303793Y-77104284D01*
X127258604Y-77154096D01*
X127258400Y-77155851D01*
X126066662Y-77155851D01*
X126010002Y-76785122D01*
X126001197Y-76253964D01*
X126003445Y-76202392D01*
X126051961Y-75691531D01*
X126151496Y-75240423D01*
X126312778Y-74815548D01*
X126546533Y-74383392D01*
X126626019Y-74257159D01*
X126992698Y-73781034D01*
X127428201Y-73371490D01*
X127920497Y-73033581D01*
X128457557Y-72772363D01*
X129027351Y-72592892D01*
X129617849Y-72500223D01*
X130217022Y-72499412D01*
X130661232Y-72561389D01*
G36*
X130306705Y-75186113D02*
X130600151Y-75304604D01*
X130805901Y-75449981D01*
X131010319Y-75705569D01*
X131148534Y-76014523D01*
X131214089Y-76349365D01*
X131200528Y-76682618D01*
X131144364Y-76890286D01*
X130979345Y-77193901D01*
X130746805Y-77442675D01*
X130464532Y-77628017D01*
X130150309Y-77741341D01*
X129821924Y-77774056D01*
X129497163Y-77717573D01*
X129458849Y-77704235D01*
X129147762Y-77541898D01*
X128887950Y-77311264D01*
X128709509Y-77046312D01*
X128594553Y-76705040D01*
X128571766Y-76358572D01*
X128635189Y-76023280D01*
X128778861Y-75715534D01*
X128996821Y-75451706D01*
X129283109Y-75248169D01*
X129381191Y-75201413D01*
X129664740Y-75128850D01*
X129984073Y-75125640D01*
X130306705Y-75186113D01*
X130306705Y-75186113D01*
G37*
X130306705Y-75186113D02*
X130600151Y-75304604D01*
X130805901Y-75449981D01*
X131010319Y-75705569D01*
X131148534Y-76014523D01*
X131214089Y-76349365D01*
X131200528Y-76682618D01*
X131144364Y-76890286D01*
X130979345Y-77193901D01*
X130746805Y-77442675D01*
X130464532Y-77628017D01*
X130150309Y-77741341D01*
X129821924Y-77774056D01*
X129497163Y-77717573D01*
X129458849Y-77704235D01*
X129147762Y-77541898D01*
X128887950Y-77311264D01*
X128709509Y-77046312D01*
X128594553Y-76705040D01*
X128571766Y-76358572D01*
X128635189Y-76023280D01*
X128778861Y-75715534D01*
X128996821Y-75451706D01*
X129283109Y-75248169D01*
X129381191Y-75201413D01*
X129664740Y-75128850D01*
X129984073Y-75125640D01*
X130306705Y-75186113D01*
D15*
X119050000Y-82270000D03*
X119050000Y-79730000D03*
M02*
