G04 #@! TF.FileFunction,Legend,Bot*
%FSLAX46Y46*%
G04 Gerber Fmt 4.6, Leading zero omitted, Abs format (unit mm)*
G04 Created by KiCad (PCBNEW 4.0.7-e2-6376~58~ubuntu14.04.1) date Wed Aug  8 15:05:29 2018*
%MOMM*%
%LPD*%
G01*
G04 APERTURE LIST*
%ADD10C,0.100000*%
%ADD11C,0.170000*%
%ADD12C,0.150000*%
%ADD13C,0.120000*%
G04 APERTURE END LIST*
D10*
D11*
X98157143Y-83771429D02*
X99357143Y-83771429D01*
X99357143Y-83314286D01*
X99300000Y-83200000D01*
X99242857Y-83142857D01*
X99128571Y-83085714D01*
X98957143Y-83085714D01*
X98842857Y-83142857D01*
X98785714Y-83200000D01*
X98728571Y-83314286D01*
X98728571Y-83771429D01*
X99357143Y-82342857D02*
X99357143Y-82114286D01*
X99300000Y-82000000D01*
X99185714Y-81885714D01*
X98957143Y-81828572D01*
X98557143Y-81828572D01*
X98328571Y-81885714D01*
X98214286Y-82000000D01*
X98157143Y-82114286D01*
X98157143Y-82342857D01*
X98214286Y-82457143D01*
X98328571Y-82571429D01*
X98557143Y-82628572D01*
X98957143Y-82628572D01*
X99185714Y-82571429D01*
X99300000Y-82457143D01*
X99357143Y-82342857D01*
X99357143Y-81428571D02*
X98157143Y-81142857D01*
X99014286Y-80914286D01*
X98157143Y-80685714D01*
X99357143Y-80400000D01*
X98785714Y-79942857D02*
X98785714Y-79542857D01*
X98157143Y-79371428D02*
X98157143Y-79942857D01*
X99357143Y-79942857D01*
X99357143Y-79371428D01*
X98157143Y-78171428D02*
X98728571Y-78571428D01*
X98157143Y-78857143D02*
X99357143Y-78857143D01*
X99357143Y-78400000D01*
X99300000Y-78285714D01*
X99242857Y-78228571D01*
X99128571Y-78171428D01*
X98957143Y-78171428D01*
X98842857Y-78228571D01*
X98785714Y-78285714D01*
X98728571Y-78400000D01*
X98728571Y-78857143D01*
X132300000Y-87242857D02*
X132300000Y-86042857D01*
X131728571Y-87242857D02*
X131728571Y-86042857D01*
X131442856Y-86042857D01*
X131271428Y-86100000D01*
X131157142Y-86214286D01*
X131099999Y-86328571D01*
X131042856Y-86557143D01*
X131042856Y-86728571D01*
X131099999Y-86957143D01*
X131157142Y-87071429D01*
X131271428Y-87185714D01*
X131442856Y-87242857D01*
X131728571Y-87242857D01*
D12*
X128250000Y-90400000D02*
X128250000Y-87900000D01*
X128250000Y-87900000D02*
X135250000Y-87900000D01*
X135250000Y-87900000D02*
X135250000Y-90400000D01*
X135250000Y-90400000D02*
X128250000Y-90400000D01*
D10*
X128198607Y-74700000D02*
G75*
G03X128198607Y-74700000I-223607J0D01*
G01*
X132875000Y-73400000D02*
X132875000Y-79400000D01*
X126875000Y-73400000D02*
X132875000Y-73400000D01*
X126875000Y-79400000D02*
X126875000Y-73400000D01*
X132875000Y-79400000D02*
X126875000Y-79400000D01*
D12*
X131475000Y-77800000D02*
X128275000Y-77800000D01*
X128275000Y-77800000D02*
X128275000Y-75000000D01*
X128275000Y-75000000D02*
X131475000Y-75000000D01*
X131475000Y-75000000D02*
X131475000Y-77800000D01*
X138103984Y-89672971D02*
X135416979Y-86985965D01*
X135416979Y-86985965D02*
X141285965Y-81116979D01*
X141285965Y-81116979D02*
X143972971Y-83803984D01*
X143972971Y-83803984D02*
X138103984Y-89672971D01*
X143972971Y-78196016D02*
X141285965Y-80883021D01*
X141285965Y-80883021D02*
X135416979Y-75014035D01*
X135416979Y-75014035D02*
X138103984Y-72327029D01*
X138103984Y-72327029D02*
X143972971Y-78196016D01*
X102750000Y-74000000D02*
G75*
G03X102750000Y-74000000I-250000J0D01*
G01*
X102750000Y-75750000D02*
X102750000Y-74250000D01*
X105250000Y-75750000D02*
X102750000Y-75750000D01*
X105250000Y-74250000D02*
X105250000Y-75750000D01*
X102750000Y-74250000D02*
X105250000Y-74250000D01*
D10*
X111200000Y-78750000D02*
G75*
G03X111200000Y-78750000I-250000J0D01*
G01*
X115200000Y-79000000D02*
X111200000Y-79000000D01*
X115200000Y-83000000D02*
X115200000Y-79000000D01*
X111200000Y-83000000D02*
X115200000Y-83000000D01*
X111200000Y-79000000D02*
X111200000Y-83000000D01*
D12*
X92300000Y-76225000D02*
X96100000Y-76225000D01*
X96100000Y-76225000D02*
X96100000Y-85775000D01*
X96100000Y-85775000D02*
X92300000Y-85775000D01*
X92300000Y-85775000D02*
X92300000Y-76225000D01*
X119250000Y-75750000D02*
G75*
G03X119250000Y-75750000I-250000J0D01*
G01*
X120750000Y-72500000D02*
X119250000Y-72500000D01*
X120750000Y-75500000D02*
X120750000Y-72500000D01*
X119250000Y-75500000D02*
X120750000Y-75500000D01*
X119250000Y-72500000D02*
X119250000Y-75500000D01*
X121750000Y-79250000D02*
G75*
G03X121750000Y-79250000I-250000J0D01*
G01*
X123250000Y-76000000D02*
X121750000Y-76000000D01*
X123250000Y-79000000D02*
X123250000Y-76000000D01*
X121750000Y-79000000D02*
X123250000Y-79000000D01*
X121750000Y-76000000D02*
X121750000Y-79000000D01*
X126750000Y-86250000D02*
G75*
G03X126750000Y-86250000I-250000J0D01*
G01*
X128250000Y-83000000D02*
X126750000Y-83000000D01*
X128250000Y-86000000D02*
X128250000Y-83000000D01*
X126750000Y-86000000D02*
X128250000Y-86000000D01*
X126750000Y-83000000D02*
X126750000Y-86000000D01*
X111600000Y-86200000D02*
X111600000Y-87800000D01*
X114800000Y-86200000D02*
X111600000Y-86200000D01*
X114800000Y-87800000D02*
X114800000Y-86200000D01*
X111600000Y-87800000D02*
X114800000Y-87800000D01*
D10*
X126000000Y-79800000D02*
G75*
G03X126000000Y-79800000I-200000J0D01*
G01*
X124400000Y-80000000D02*
X124400000Y-82000000D01*
X125600000Y-80000000D02*
X124400000Y-80000000D01*
X125600000Y-82000000D02*
X125600000Y-80000000D01*
X124400000Y-82000000D02*
X125600000Y-82000000D01*
D13*
X100900000Y-74650000D02*
X100900000Y-75350000D01*
X102100000Y-75350000D02*
X102100000Y-74650000D01*
X103650000Y-78600000D02*
X104350000Y-78600000D01*
X104350000Y-77400000D02*
X103650000Y-77400000D01*
M02*
