G04 #@! TF.FileFunction,Paste,Bot*
%FSLAX46Y46*%
G04 Gerber Fmt 4.6, Leading zero omitted, Abs format (unit mm)*
G04 Created by KiCad (PCBNEW 4.0.7-e2-6376~58~ubuntu14.04.1) date Wed Aug  8 15:05:29 2018*
%MOMM*%
%LPD*%
G01*
G04 APERTURE LIST*
%ADD10C,0.100000*%
%ADD11R,1.000000X1.400000*%
%ADD12R,2.000000X1.000000*%
%ADD13R,1.600000X0.800000*%
%ADD14R,1.000000X1.200000*%
%ADD15R,0.800000X0.500000*%
%ADD16R,0.500000X0.800000*%
%ADD17R,0.600000X1.200000*%
%ADD18R,0.300000X0.900000*%
%ADD19R,0.300000X1.200000*%
%ADD20R,0.900000X0.300000*%
%ADD21R,1.200000X0.300000*%
%ADD22R,1.700000X0.600000*%
%ADD23R,2.700000X1.000000*%
%ADD24R,1.200000X0.600000*%
%ADD25R,1.600000X1.600000*%
%ADD26R,0.800000X0.300000*%
%ADD27R,0.750000X1.200000*%
%ADD28R,1.200000X0.750000*%
G04 APERTURE END LIST*
D10*
D11*
X133850000Y-87750000D03*
X129650000Y-87750000D03*
D12*
X135250000Y-89900000D03*
X128250000Y-89900000D03*
D13*
X132575000Y-77200000D03*
X132575000Y-75600000D03*
X127175000Y-77200000D03*
X127175000Y-75600000D03*
D14*
X126875000Y-77400000D03*
X126875000Y-75400000D03*
X132875000Y-77400000D03*
X132875000Y-75400000D03*
D10*
G36*
X127325000Y-78000000D02*
X126775000Y-77600000D01*
X127975000Y-77600000D01*
X127425000Y-78000000D01*
X127325000Y-78000000D01*
X127325000Y-78000000D01*
G37*
G36*
X127425000Y-74800000D02*
X127975000Y-75200000D01*
X126775000Y-75200000D01*
X127325000Y-74800000D01*
X127425000Y-74800000D01*
X127425000Y-74800000D01*
G37*
G36*
X132325000Y-78000000D02*
X131775000Y-77600000D01*
X132975000Y-77600000D01*
X132425000Y-78000000D01*
X132325000Y-78000000D01*
X132325000Y-78000000D01*
G37*
G36*
X132425000Y-74800000D02*
X132975000Y-75200000D01*
X131775000Y-75200000D01*
X132325000Y-74800000D01*
X132425000Y-74800000D01*
X132425000Y-74800000D01*
G37*
G36*
X137167068Y-83326687D02*
X138369150Y-84528769D01*
X137944886Y-84953033D01*
X136742804Y-83750951D01*
X137167068Y-83326687D01*
X137167068Y-83326687D01*
G37*
G36*
X136283184Y-84210571D02*
X137485266Y-85412653D01*
X137061002Y-85836917D01*
X135858920Y-84634835D01*
X136283184Y-84210571D01*
X136283184Y-84210571D01*
G37*
G36*
X138050951Y-82442804D02*
X139253033Y-83644886D01*
X138828769Y-84069150D01*
X137626687Y-82867068D01*
X138050951Y-82442804D01*
X138050951Y-82442804D01*
G37*
G36*
X138934835Y-81558920D02*
X140136917Y-82761002D01*
X139712653Y-83185266D01*
X138510571Y-81983184D01*
X138934835Y-81558920D01*
X138934835Y-81558920D01*
G37*
G36*
X136866547Y-87233452D02*
X138775736Y-89142641D01*
X138068629Y-89849748D01*
X136159440Y-87940559D01*
X136866547Y-87233452D01*
X136866547Y-87233452D01*
G37*
G36*
X142240559Y-81859440D02*
X144149748Y-83768629D01*
X143442641Y-84475736D01*
X141533452Y-82566547D01*
X142240559Y-81859440D01*
X142240559Y-81859440D01*
G37*
D15*
X112600000Y-85400000D03*
X113800000Y-85400000D03*
D16*
X100500000Y-82300000D03*
X100500000Y-83500000D03*
D10*
G36*
X137626687Y-79132932D02*
X138828769Y-77930850D01*
X139253033Y-78355114D01*
X138050951Y-79557196D01*
X137626687Y-79132932D01*
X137626687Y-79132932D01*
G37*
G36*
X138510571Y-80016816D02*
X139712653Y-78814734D01*
X140136917Y-79238998D01*
X138934835Y-80441080D01*
X138510571Y-80016816D01*
X138510571Y-80016816D01*
G37*
G36*
X136742804Y-78249049D02*
X137944886Y-77046967D01*
X138369150Y-77471231D01*
X137167068Y-78673313D01*
X136742804Y-78249049D01*
X136742804Y-78249049D01*
G37*
G36*
X135858920Y-77365165D02*
X137061002Y-76163083D01*
X137485266Y-76587347D01*
X136283184Y-77789429D01*
X135858920Y-77365165D01*
X135858920Y-77365165D01*
G37*
G36*
X141533452Y-79433453D02*
X143442641Y-77524264D01*
X144149748Y-78231371D01*
X142240559Y-80140560D01*
X141533452Y-79433453D01*
X141533452Y-79433453D01*
G37*
G36*
X136159440Y-74059441D02*
X138068629Y-72150252D01*
X138775736Y-72857359D01*
X136866547Y-74766548D01*
X136159440Y-74059441D01*
X136159440Y-74059441D01*
G37*
D15*
X124700000Y-72800000D03*
X123500000Y-72800000D03*
X128800000Y-80000000D03*
X127600000Y-80000000D03*
X132200000Y-80000000D03*
X131000000Y-80000000D03*
D17*
X104000000Y-73850000D03*
X103050000Y-73850000D03*
X104950000Y-73850000D03*
X104950000Y-76150000D03*
X103050000Y-76150000D03*
D15*
X113800000Y-76600000D03*
X112600000Y-76600000D03*
D16*
X119400000Y-81600000D03*
X119400000Y-80400000D03*
D18*
X111700000Y-78600000D03*
D19*
X112200000Y-78750000D03*
X112700000Y-78750000D03*
X113200000Y-78750000D03*
X113700000Y-78750000D03*
X114200000Y-78750000D03*
D18*
X114700000Y-78600000D03*
D20*
X115600000Y-79500000D03*
D21*
X115450000Y-80000000D03*
X115450000Y-80500000D03*
X115450000Y-81000000D03*
X115450000Y-81500000D03*
X115450000Y-82000000D03*
D20*
X115600000Y-82500000D03*
D18*
X114700000Y-83400000D03*
D19*
X114200000Y-83250000D03*
X113700000Y-83250000D03*
X113200000Y-83250000D03*
X112700000Y-83250000D03*
X112200000Y-83250000D03*
D18*
X111700000Y-83400000D03*
D20*
X110800000Y-82500000D03*
D21*
X110950000Y-82000000D03*
X110950000Y-81500000D03*
X110950000Y-81000000D03*
X110950000Y-80500000D03*
X110950000Y-80000000D03*
D20*
X110800000Y-79500000D03*
D10*
G36*
X111850000Y-78600000D02*
X111850000Y-79400000D01*
X111550000Y-79100000D01*
X111550000Y-78900000D01*
X111850000Y-78600000D01*
X111850000Y-78600000D01*
G37*
G36*
X111600000Y-79650000D02*
X110800000Y-79650000D01*
X111100000Y-79350000D01*
X111300000Y-79350000D01*
X111600000Y-79650000D01*
X111600000Y-79650000D01*
G37*
G36*
X114800000Y-82350000D02*
X115600000Y-82350000D01*
X115300000Y-82650000D01*
X115100000Y-82650000D01*
X114800000Y-82350000D01*
X114800000Y-82350000D01*
G37*
G36*
X114550000Y-83400000D02*
X114550000Y-82600000D01*
X114850000Y-82900000D01*
X114850000Y-83100000D01*
X114550000Y-83400000D01*
X114550000Y-83400000D01*
G37*
G36*
X114550000Y-79400000D02*
X114550000Y-78600000D01*
X114850000Y-78900000D01*
X114850000Y-79100000D01*
X114550000Y-79400000D01*
X114550000Y-79400000D01*
G37*
G36*
X115600000Y-79650000D02*
X114800000Y-79650000D01*
X115100000Y-79350000D01*
X115300000Y-79350000D01*
X115600000Y-79650000D01*
X115600000Y-79650000D01*
G37*
G36*
X111850000Y-82600000D02*
X111850000Y-83400000D01*
X111550000Y-83100000D01*
X111550000Y-82900000D01*
X111850000Y-82600000D01*
X111850000Y-82600000D01*
G37*
G36*
X110800000Y-82350000D02*
X111600000Y-82350000D01*
X111300000Y-82650000D01*
X111100000Y-82650000D01*
X110800000Y-82350000D01*
X110800000Y-82350000D01*
G37*
D22*
X96600000Y-81000000D03*
X96600000Y-79750000D03*
X96600000Y-82250000D03*
X96600000Y-83500000D03*
D23*
X93550000Y-76500000D03*
X93550000Y-85500000D03*
D22*
X96600000Y-78500000D03*
D24*
X121150000Y-74000000D03*
X118850000Y-74950000D03*
X118850000Y-73050000D03*
X123650000Y-77500000D03*
X121350000Y-78450000D03*
X121350000Y-76550000D03*
X128650000Y-84500000D03*
X126350000Y-85450000D03*
X126350000Y-83550000D03*
D15*
X117100000Y-75000000D03*
X115900000Y-75000000D03*
X117100000Y-74000000D03*
X115900000Y-74000000D03*
X117100000Y-76000000D03*
X115900000Y-76000000D03*
D25*
X111400000Y-87000000D03*
X115000000Y-87000000D03*
D26*
X126000000Y-80350000D03*
X126000000Y-81000000D03*
X126000000Y-81650000D03*
X124000000Y-81650000D03*
X124000000Y-80350000D03*
D27*
X101500000Y-74050000D03*
X101500000Y-75950000D03*
D28*
X103050000Y-78000000D03*
X104950000Y-78000000D03*
M02*
