<?xml version="1.0" standalone="no"?>
 <!DOCTYPE svg PUBLIC "-//W3C//DTD SVG 1.1//EN" 
 "http://www.w3.org/Graphics/SVG/1.1/DTD/svg11.dtd"> 
<svg xmlns="http://www.w3.org/2000/svg" version="1.1" 
    width="14.2189cm" height="9.38022cm" viewBox="0 0 55980 36930 ">
<title>SVG Picture created as NeuroBytes_Force_Sensor-brd.svg date 2018/08/08 15:07:10 </title>
  <desc>Picture generated by PCBNEW </desc>
<g style="fill:#000000; fill-opacity:1;stroke:#000000; stroke-opacity:1;
stroke-linecap:round; stroke-linejoin:round; "
 transform="translate(0 0) scale(1 1)">
</g>
<g style="fill:#000000; fill-opacity:0.0; 
stroke:#000000; stroke-width:-0.000393701; stroke-opacity:1; 
stroke-linecap:round; stroke-linejoin:round;">
</g>
<g style="fill:#840000; fill-opacity:0.0; 
stroke:#840000; stroke-width:-0.000393701; stroke-opacity:1; 
stroke-linecap:round; stroke-linejoin:round;">
</g>
<g style="fill:#840000; fill-opacity:0.0; 
stroke:#840000; stroke-width:59.0551; stroke-opacity:1; 
stroke-linecap:round; stroke-linejoin:round;">
<path d="M30074 9980
L30074 10177
" />
<path d="M29680 9980
L30074 9980
" />
<path d="M29680 10177
L29680 9980
" />
<path d="M30074 10177
L29680 10177
" />
<path d="M34779 8897
L34976 8897
" />
<path d="M34779 9291
L34779 8897
" />
<path d="M34976 9291
L34779 9291
" />
<path d="M34976 8897
L34976 9291
" />
<path d="M25389 5216
L25389 5019
" />
<path d="M25783 5216
L25389 5216
" />
<path d="M25783 5019
L25783 5216
" />
<path d="M25389 5019
L25783 5019
" />
<path d="M23775 8051
L23775 7854
" />
<path d="M24168 8051
L23775 8051
" />
<path d="M24168 7854
L24168 8051
" />
<path d="M23775 7854
L24168 7854
" />
<path d="M22436 8051
L22436 7854
" />
<path d="M22830 8051
L22436 8051
" />
<path d="M22830 7854
L22830 8051
" />
<path d="M22436 7854
L22830 7854
" />
<path d="M29680 6712
L29680 6515
" />
<path d="M30074 6712
L29680 6712
" />
<path d="M30074 6515
L30074 6712
" />
<path d="M29680 6515
L30074 6515
" />
<path d="M27535 8543
L27338 8543
" />
<path d="M27535 8149
L27535 8543
" />
<path d="M27338 8149
L27535 8149
" />
<path d="M27338 8543
L27338 8149
" />
<path d="M28381 6082
L28381 5885
" />
<path d="M28775 6082
L28381 6082
" />
<path d="M28775 5885
L28775 6082
" />
<path d="M28381 5885
L28775 5885
" />
<path d="M28381 5688
L28381 5492
" />
<path d="M28775 5688
L28381 5688
" />
<path d="M28775 5492
L28775 5688
" />
<path d="M28381 5492
L28775 5492
" />
<path d="M28381 6476
L28381 6279
" />
<path d="M28775 6476
L28381 6476
" />
<path d="M28775 6279
L28775 6476
" />
<path d="M28381 6279
L28775 6279
" />
</g>
<g style="fill:#840000; fill-opacity:0.0; 
stroke:#840000; stroke-width:39.3701; stroke-opacity:1; 
stroke-linecap:round; stroke-linejoin:round;">
<path d="M34326 5669
L34641 5669
" />
<path d="M34326 6299
L34326 5669
" />
<path d="M34641 6299
L34326 6299
" />
<path d="M34641 5669
L34641 6299
" />
<path d="M33814 7007
L33814 7322
" />
<path d="M33184 7007
L33814 7007
" />
<path d="M33184 7322
L33184 7007
" />
<path d="M33814 7322
L33184 7322
" />
</g>
<g style="fill:#840000; fill-opacity:0.0; 
stroke:#840000; stroke-width:59.0551; stroke-opacity:1; 
stroke-linecap:round; stroke-linejoin:round;">
<path d="M22049 11734
L22105 11752
L22199 11752
L22237 11734
L22255 11715
L22274 11677
L22274 11640
L22255 11602
L22237 11584
L22199 11565
L22124 11546
L22087 11527
L22068 11509
L22049 11471
L22049 11434
L22068 11396
L22087 11377
L22124 11359
L22218 11359
L22274 11377
" />
<path d="M22405 11359
L22499 11752
L22574 11471
L22649 11752
L22743 11359
" />
<path d="M23099 11752
L22874 11752
" />
<path d="M22986 11752
L22986 11359
L22949 11415
L22911 11452
L22874 11471
" />
<path d="M23022 6752
L23022 6359
L23115 6359
L23172 6377
L23209 6415
L23228 6452
L23247 6527
L23247 6584
L23228 6659
L23209 6696
L23172 6734
L23115 6752
L23022 6752
" />
<path d="M23622 6752
L23397 6752
" />
<path d="M23509 6752
L23509 6359
L23472 6415
L23434 6452
L23397 6471
" />
<path d="M19367 10408
L19088 10129
L19194 10023
L19234 10010
L19260 10010
L19300 10023
L19340 10063
L19353 10103
L19353 10129
L19340 10169
L19234 10275
" />
<path d="M19340 9877
L19526 9692
L19685 10090
" />
<path d="M29812 9865
L29793 9883
L29737 9902
L29699 9902
L29643 9883
L29605 9846
L29587 9808
L29568 9733
L29568 9677
L29587 9602
L29605 9565
L29643 9527
L29699 9508
L29737 9508
L29793 9527
L29812 9546
" />
<path d="M29943 9508
L30186 9508
L30055 9658
L30111 9658
L30149 9677
L30168 9696
L30186 9733
L30186 9827
L30168 9865
L30149 9883
L30111 9902
L29999 9902
L29962 9883
L29943 9865
" />
<path d="M34244 9028
L34226 9010
L34207 8953
L34207 8916
L34226 8860
L34263 8822
L34301 8803
L34376 8785
L34432 8785
L34507 8803
L34544 8822
L34582 8860
L34601 8916
L34601 8953
L34582 9010
L34563 9028
" />
<path d="M34601 9385
L34601 9197
L34413 9178
L34432 9197
L34451 9235
L34451 9328
L34432 9366
L34413 9385
L34376 9403
L34282 9403
L34244 9385
L34226 9366
L34207 9328
L34207 9235
L34226 9197
L34244 9178
" />
<path d="M19115 6536
L19393 6258
L19499 6364
L19512 6404
L19512 6430
L19499 6470
L19459 6510
L19420 6523
L19393 6523
L19353 6510
L19247 6404
" />
<path d="M19791 6655
L19738 6602
L19698 6589
L19671 6589
L19605 6602
L19539 6642
L19433 6748
L19420 6788
L19420 6815
L19433 6854
L19486 6907
L19526 6921
L19552 6921
L19592 6907
L19658 6841
L19671 6801
L19671 6775
L19658 6735
L19605 6682
L19565 6669
L19539 6669
L19499 6682
" />
<path d="M25560 5768
L25428 5581
" />
<path d="M25335 5768
L25335 5374
L25485 5374
L25522 5393
L25541 5412
L25560 5449
L25560 5506
L25541 5543
L25522 5562
L25485 5581
L25335 5581
" />
<path d="M25935 5768
L25710 5768
" />
<path d="M25822 5768
L25822 5374
L25785 5431
L25747 5468
L25710 5487
" />
<path d="M23906 8524
L23775 8337
" />
<path d="M23681 8524
L23681 8130
L23831 8130
L23869 8149
L23887 8168
L23906 8205
L23906 8262
L23887 8299
L23869 8318
L23831 8337
L23681 8337
" />
<path d="M24056 8168
L24075 8149
L24112 8130
L24206 8130
L24243 8149
L24262 8168
L24281 8205
L24281 8243
L24262 8299
L24037 8524
L24281 8524
" />
<path d="M22567 8524
L22436 8337
" />
<path d="M22342 8524
L22342 8130
L22492 8130
L22530 8149
L22549 8168
L22567 8205
L22567 8262
L22549 8299
L22530 8318
L22492 8337
L22342 8337
" />
<path d="M22699 8130
L22942 8130
L22811 8280
L22867 8280
L22905 8299
L22924 8318
L22942 8355
L22942 8449
L22924 8487
L22905 8505
L22867 8524
L22755 8524
L22717 8505
L22699 8487
" />
<path d="M33199 5768
L33199 6087
L33218 6124
L33237 6143
L33274 6162
L33349 6162
L33387 6143
L33405 6124
L33424 6087
L33424 5768
" />
<path d="M33593 5806
L33612 5787
L33649 5768
L33743 5768
L33780 5787
L33799 5806
L33818 5843
L33818 5881
L33799 5937
L33574 6162
L33818 6162
" />
<path d="M29812 7245
L29680 7057
" />
<path d="M29587 7245
L29587 6851
L29737 6851
L29774 6870
L29793 6888
L29812 6926
L29812 6982
L29793 7020
L29774 7038
L29737 7057
L29587 7057
" />
<path d="M30149 6982
L30149 7245
" />
<path d="M30055 6832
L29962 7113
L30205 7113
" />
<path d="M27612 8280
L27800 8149
" />
<path d="M27612 8055
L28006 8055
L28006 8205
L27987 8243
L27969 8262
L27931 8280
L27875 8280
L27837 8262
L27819 8243
L27800 8205
L27800 8055
" />
<path d="M27837 8505
L27856 8468
L27875 8449
L27912 8430
L27931 8430
L27969 8449
L27987 8468
L28006 8505
L28006 8580
L27987 8618
L27969 8637
L27931 8655
L27912 8655
L27875 8637
L27856 8618
L27837 8580
L27837 8505
L27819 8468
L27800 8449
L27762 8430
L27687 8430
L27650 8449
L27631 8468
L27612 8505
L27612 8580
L27631 8618
L27650 8637
L27687 8655
L27762 8655
L27800 8637
L27819 8618
L27837 8580
" />
<path d="M29577 8130
L29577 8449
L29596 8487
L29615 8505
L29652 8524
L29727 8524
L29765 8505
L29783 8487
L29802 8449
L29802 8130
" />
<path d="M30196 8524
L29971 8524
" />
<path d="M30083 8524
L30083 8130
L30046 8187
L30008 8224
L29971 8243
" />
<path d="M37146 8524
L37146 8130
L37296 8130
L37333 8149
L37352 8168
L37371 8205
L37371 8262
L37352 8299
L37333 8318
L37296 8337
L37146 8337
" />
<path d="M37746 8524
L37521 8524
" />
<path d="M37633 8524
L37633 8130
L37596 8187
L37558 8224
L37521 8243
" />
<path d="M26984 5553
L27003 5515
L27041 5478
L27097 5421
L27116 5384
L27116 5346
" />
<path d="M27022 5365
L27041 5328
L27078 5290
L27153 5271
L27284 5271
L27359 5290
L27397 5328
L27416 5365
L27416 5440
L27397 5478
L27359 5515
L27284 5534
L27153 5534
L27078 5515
L27041 5478
L27022 5440
L27022 5365
" />
<path d="M27022 5909
L27022 5684
" />
<path d="M27022 5796
L27416 5796
L27359 5759
L27322 5721
L27303 5684
" />
<path d="M26000 6931
L26019 6893
L26056 6856
L26113 6799
L26131 6762
L26131 6724
" />
<path d="M26038 6743
L26056 6706
L26094 6668
L26169 6649
L26300 6649
L26375 6668
L26413 6706
L26431 6743
L26431 6818
L26413 6856
L26375 6893
L26300 6912
L26169 6912
L26094 6893
L26056 6856
L26038 6818
L26038 6743
" />
<path d="M26394 7062
L26413 7080
L26431 7118
L26431 7212
L26413 7249
L26394 7268
L26356 7287
L26319 7287
L26263 7268
L26038 7043
L26038 7287
" />
<path d="M24032 9686
L24050 9649
L24088 9611
L24144 9555
L24163 9518
L24163 9480
" />
<path d="M24069 9499
L24088 9461
L24125 9424
L24200 9405
L24332 9405
L24407 9424
L24444 9461
L24463 9499
L24463 9574
L24444 9611
L24407 9649
L24332 9668
L24200 9668
L24125 9649
L24088 9611
L24069 9574
L24069 9499
" />
<path d="M24463 9799
L24463 10043
L24313 9911
L24313 9968
L24294 10005
L24275 10024
L24238 10043
L24144 10043
L24107 10024
L24088 10005
L24069 9968
L24069 9855
L24088 9818
L24107 9799
" />
<path d="M29201 6162
L29070 5974
" />
<path d="M28976 6162
L28976 5768
L29126 5768
L29164 5787
L29183 5806
L29201 5843
L29201 5899
L29183 5937
L29164 5956
L29126 5974
L28976 5974
" />
<path d="M29557 5768
L29370 5768
L29351 5956
L29370 5937
L29408 5918
L29501 5918
L29539 5937
L29557 5956
L29576 5993
L29576 6087
L29557 6124
L29539 6143
L29501 6162
L29408 6162
L29370 6143
L29351 6124
" />
<path d="M29201 5670
L29070 5482
" />
<path d="M28976 5670
L28976 5276
L29126 5276
L29164 5295
L29183 5314
L29201 5351
L29201 5407
L29183 5445
L29164 5464
L29126 5482
L28976 5482
" />
<path d="M29539 5276
L29464 5276
L29426 5295
L29408 5314
L29370 5370
L29351 5445
L29351 5595
L29370 5632
L29389 5651
L29426 5670
L29501 5670
L29539 5651
L29557 5632
L29576 5595
L29576 5501
L29557 5464
L29539 5445
L29501 5426
L29426 5426
L29389 5445
L29370 5464
L29351 5501
" />
<path d="M28512 6949
L28381 6762
" />
<path d="M28287 6949
L28287 6556
L28437 6556
L28475 6574
L28494 6593
L28512 6631
L28512 6687
L28494 6724
L28475 6743
L28437 6762
L28287 6762
" />
<path d="M28644 6556
L28906 6556
L28737 6949
" />
<path d="M29812 10849
L29793 10868
L29737 10886
L29699 10886
L29643 10868
L29605 10830
L29587 10793
L29568 10718
L29568 10661
L29587 10586
L29605 10549
L29643 10511
L29699 10493
L29737 10493
L29793 10511
L29812 10530
" />
<path d="M29962 10530
L29980 10511
L30018 10493
L30111 10493
L30149 10511
L30168 10530
L30186 10568
L30186 10605
L30168 10661
L29943 10886
L30186 10886
" />
<path d="M25939 8046
L25620 8046
L25583 8065
L25564 8083
L25545 8121
L25545 8196
L25564 8233
L25583 8252
L25620 8271
L25939 8271
" />
<path d="M25939 8421
L25939 8665
L25789 8533
L25789 8590
L25770 8627
L25752 8646
L25714 8665
L25620 8665
L25583 8646
L25564 8627
L25545 8590
L25545 8477
L25564 8440
L25583 8421
" />
<path d="M34835 5918
L34816 5899
L34797 5843
L34797 5806
L34816 5749
L34854 5712
L34891 5693
L34966 5674
L35022 5674
L35097 5693
L35135 5712
L35172 5749
L35191 5806
L35191 5843
L35172 5899
L35154 5918
" />
<path d="M34797 6293
L34797 6068
" />
<path d="M34797 6181
L35191 6181
L35135 6143
L35097 6106
L35079 6068
" />
<path d="M33434 7798
L33415 7816
L33359 7835
L33321 7835
L33265 7816
L33227 7779
L33209 7741
L33190 7666
L33190 7610
L33209 7535
L33227 7498
L33265 7460
L33321 7441
L33359 7441
L33415 7460
L33434 7479
" />
<path d="M33771 7573
L33771 7835
" />
<path d="M33677 7423
L33584 7704
L33827 7704
" />
</g>
<g style="fill:#000000; fill-opacity:0.0; 
stroke:#000000; stroke-width:59.0551; stroke-opacity:1; 
stroke-linecap:round; stroke-linejoin:round;">
</g>
<g style="fill:#840084; fill-opacity:0.0; 
stroke:#840084; stroke-width:59.0551; stroke-opacity:1; 
stroke-linecap:round; stroke-linejoin:round;">
</g>
<g style="fill:#840084; fill-opacity:0.0; 
stroke:#840084; stroke-width:66.9291; stroke-opacity:1; 
stroke-linecap:round; stroke-linejoin:round;">
<path d="M35800 9437
L35327 9437
L35327 9257
L35350 9212
L35372 9190
L35417 9167
L35485 9167
L35530 9190
L35552 9212
L35575 9257
L35575 9437
" />
<path d="M35327 8875
L35327 8785
L35350 8740
L35395 8695
L35485 8672
L35642 8672
L35732 8695
L35777 8740
L35800 8785
L35800 8875
L35777 8920
L35732 8965
L35642 8987
L35485 8987
L35395 8965
L35350 8920
L35327 8875
" />
<path d="M35327 8515
L35800 8402
L35462 8312
L35800 8222
L35327 8110
" />
<path d="M35552 7930
L35552 7772
" />
<path d="M35800 7705
L35800 7930
L35327 7930
L35327 7705
" />
<path d="M35800 7232
L35575 7390
" />
<path d="M35800 7502
L35327 7502
L35327 7322
L35350 7277
L35372 7255
L35417 7232
L35485 7232
L35530 7255
L35552 7277
L35575 7322
L35575 7502
" />
<path d="M22357 10804
L22357 10331
" />
<path d="M22582 10804
L22582 10331
L22695 10331
L22762 10354
L22807 10399
L22830 10444
L22852 10534
L22852 10601
L22830 10691
L22807 10736
L22762 10781
L22695 10804
L22582 10804
" />
</g>
<g style="fill:#840084; fill-opacity:0.0; 
stroke:#840084; stroke-width:59.0551; stroke-opacity:1; 
stroke-linecap:round; stroke-linejoin:round;">
<path d="M23952 12047
L23952 11062
" />
<path d="M23952 11062
L21196 11062
" />
<path d="M21196 11062
L21196 12047
" />
<path d="M21196 12047
L23952 12047
" />
</g>
<g style="fill:#840084; fill-opacity:0.0; 
stroke:#840084; stroke-width:39.3701; stroke-opacity:1; 
stroke-linecap:round; stroke-linejoin:round;">
<circle cx="24060.7" cy="5866.14" r="88.0343" /> 
<path d="M22131 5354
L22131 7716
" />
<path d="M24493 5354
L22131 5354
" />
<path d="M24493 7716
L24493 5354
" />
<path d="M22131 7716
L24493 7716
" />
</g>
<g style="fill:#840084; fill-opacity:0.0; 
stroke:#840084; stroke-width:59.0551; stroke-opacity:1; 
stroke-linecap:round; stroke-linejoin:round;">
<path d="M22682 7086
L23942 7086
" />
<path d="M23942 7086
L23942 5984
" />
<path d="M23942 5984
L22682 5984
" />
<path d="M22682 5984
L22682 7086
" />
<path d="M20072 11761
L21130 10703
" />
<path d="M21130 10703
L18820 8392
" />
<path d="M18820 8392
L17762 9450
" />
<path d="M17762 9450
L20072 11761
" />
<path d="M17762 7242
L18820 8300
" />
<path d="M18820 8300
L21130 5989
" />
<path d="M21130 5989
L20072 4931
" />
<path d="M20072 4931
L17762 7242
" />
<circle cx="34090.2" cy="5590.55" r="98.4252" /> 
<path d="M33991 6279
L33991 5688
" />
<path d="M33007 6279
L33991 6279
" />
<path d="M33007 5688
L33007 6279
" />
<path d="M33991 5688
L33007 5688
" />
</g>
<g style="fill:#840084; fill-opacity:0.0; 
stroke:#840084; stroke-width:39.3701; stroke-opacity:1; 
stroke-linecap:round; stroke-linejoin:round;">
<circle cx="30763.5" cy="7460.63" r="98.4252" /> 
<path d="M29090 7559
L30665 7559
" />
<path d="M29090 9133
L29090 7559
" />
<path d="M30665 9133
L29090 9133
" />
<path d="M30665 7559
L30665 9133
" />
</g>
<g style="fill:#840084; fill-opacity:0.0; 
stroke:#840084; stroke-width:59.0551; stroke-opacity:1; 
stroke-linecap:round; stroke-linejoin:round;">
<path d="M38105 6466
L36609 6466
" />
<path d="M36609 6466
L36609 10226
" />
<path d="M36609 10226
L38105 10226
" />
<path d="M38105 10226
L38105 6466
" />
<circle cx="27594.2" cy="6279.53" r="98.4252" /> 
<path d="M26905 5000
L27495 5000
" />
<path d="M26905 6181
L26905 5000
" />
<path d="M27495 6181
L26905 6181
" />
<path d="M27495 5000
L27495 6181
" />
<circle cx="26609.9" cy="7657.48" r="98.4252" /> 
<path d="M25920 6377
L26511 6377
" />
<path d="M25920 7559
L25920 6377
" />
<path d="M26511 7559
L25920 7559
" />
<path d="M26511 6377
L26511 7559
" />
<circle cx="24641.4" cy="10413.4" r="98.4252" /> 
<path d="M23952 9133
L24542 9133
" />
<path d="M23952 10314
L23952 9133
" />
<path d="M24542 10314
L23952 10314
" />
<path d="M24542 9133
L24542 10314
" />
<path d="M30507 10393
L30507 11023
" />
<path d="M29247 10393
L30507 10393
" />
<path d="M29247 11023
L29247 10393
" />
<path d="M30507 11023
L29247 11023
" />
</g>
<g style="fill:#840084; fill-opacity:0.0; 
stroke:#840084; stroke-width:39.3701; stroke-opacity:1; 
stroke-linecap:round; stroke-linejoin:round;">
<circle cx="24917" cy="7874.02" r="78.7402" /> 
<path d="M25468 7952
L25468 8740
" />
<path d="M24995 7952
L25468 7952
" />
<path d="M24995 8740
L24995 7952
" />
<path d="M25468 8740
L24995 8740
" />
</g>
<g style="fill:#840084; fill-opacity:0.0; 
stroke:#840084; stroke-width:47.2441; stroke-opacity:1; 
stroke-linecap:round; stroke-linejoin:round;">
<path d="M34720 5846
L34720 6122
" />
<path d="M34247 6122
L34247 5846
" />
<path d="M33637 7401
L33361 7401
" />
<path d="M33361 6929
L33637 6929
" />
</g>
<g style="fill:#000000; fill-opacity:0.0; 
stroke:#000000; stroke-width:47.2441; stroke-opacity:1; 
stroke-linecap:round; stroke-linejoin:round;">
</g>
<g style="fill:#C2C200; fill-opacity:0.0; 
stroke:#C2C200; stroke-width:47.2441; stroke-opacity:1; 
stroke-linecap:round; stroke-linejoin:round;">
</g>
<g style="fill:#C2C200; fill-opacity:0.0; 
stroke:#C2C200; stroke-width:39.3701; stroke-opacity:1; 
stroke-linecap:round; stroke-linejoin:round;">
<circle cx="39011.5" cy="12283.5" r="656.168" /> 
<path d="M39995 12283
L38027 12283
" />
<path d="M39011 11299
L39011 13267
" />
<path d="M20212 12086
L20113 11988
" />
<path d="M35074 12086
L20212 12086
" />
<path d="M17554 9429
L20113 11988
" />
<path d="M17554 7263
L17554 9429
" />
<path d="M20212 4606
L17554 7263
" />
<path d="M35074 4606
L20212 4606
" />
<path d="M35074.5 12086.6 A3740.16 3740.16 0.0 0 0 35074.5 4606.3 " />
</g> 
</svg>
