  0
SECTION
  2
HEADER
  9
$ACADVER
  1
AC1014
  9
$HANDSEED
  5
FFFF
  9
$MEASUREMENT
 70
     1
  0
ENDSEC
  0
SECTION
  2
TABLES
  0
TABLE
  2
VPORT
  5
8
330
0
100
AcDbSymbolTable
 70
     4
  0
VPORT
  5
2E
330
8
100
AcDbSymbolTableRecord
100
AcDbViewportTableRecord
  2
*ACTIVE
 70
     0
 10
0.0
 20
0.0
 11
1.0
 21
1.0
 12
210.0
 22
148.5
 13
0.0
 23
0.0
 14
10.0
 24
10.0
 15
10.0
 25
10.0
 16
0.0
 26
0.0
 36
1.0
 17
0.0
 27
0.0
 37
0.0
 40
341.0
 41
1.24
 42
50.0
 43
0.0
 44
0.0
 50
0.0
 51
0.0
 71
     0
 72
   100
 73
     1
 74
     3
 75
     0
 76
     0
 77
     0
 78
     0
  0
ENDTAB
  0
TABLE
  2
LTYPE
  5
5
330
0
100
AcDbSymbolTable
 70
     1
  0
LTYPE
  5
14
330
5
100
AcDbSymbolTableRecord
100
AcDbLinetypeTableRecord
  2
BYBLOCK
 70
     0
  3

 72
    65
 73
     0
 40
0.0
  0
LTYPE
  5
15
330
5
100
AcDbSymbolTableRecord
100
AcDbLinetypeTableRecord
  2
BYLAYER
 70
     0
  3

 72
    65
 73
     0
 40
0.0
  0
LTYPE
  5
16
330
5
100
AcDbSymbolTableRecord
100
AcDbLinetypeTableRecord
  2
CONTINUOUS
 70
     0
  3
Solid line
 72
    65
 73
     0
 40
0.0
  0
ENDTAB
  0
TABLE
  2
LAYER
  5
2
100
AcDbSymbolTable
 70
12
  0
LAYER
  5
50
100
AcDbSymbolTableRecord
100
AcDbLayerTableRecord
  2
0
 70
0
  6
CONTINUOUS
  0
LAYER
  5
51
100
AcDbSymbolTableRecord
100
AcDbLayerTableRecord
  2
background_white
 70
0
  6
CONTINUOUS
  0
LAYER
  5
52
100
AcDbSymbolTableRecord
100
AcDbLayerTableRecord
  2
img
 70
0
  6
CONTINUOUS
  0
LAYER
  5
53
100
AcDbSymbolTableRecord
100
AcDbLayerTableRecord
  2
pads
 70
0
  6
CONTINUOUS
  0
LAYER
  5
54
100
AcDbSymbolTableRecord
100
AcDbLayerTableRecord
  2
sensor
 70
0
  6
CONTINUOUS
  0
LAYER
  5
55
100
AcDbSymbolTableRecord
100
AcDbLayerTableRecord
  2
silk
 70
0
  6
CONTINUOUS
  0
LAYER
  5
56
100
AcDbSymbolTableRecord
100
AcDbLayerTableRecord
  2
copper_large
 70
0
  6
CONTINUOUS
  0
LAYER
  5
57
100
AcDbSymbolTableRecord
100
AcDbLayerTableRecord
  2
guide
 70
0
  6
CONTINUOUS
  0
LAYER
  5
58
100
AcDbSymbolTableRecord
100
AcDbLayerTableRecord
  2
mask
 70
0
  6
CONTINUOUS
  0
LAYER
  5
59
100
AcDbSymbolTableRecord
100
AcDbLayerTableRecord
  2
gear
 70
0
  6
CONTINUOUS
  0
LAYER
  5
5a
100
AcDbSymbolTableRecord
100
AcDbLayerTableRecord
  2
outline
 70
0
  6
CONTINUOUS
  0
LAYER
  5
5b
100
AcDbSymbolTableRecord
100
AcDbLayerTableRecord
  2
outline-segments
 70
0
  6
CONTINUOUS
  0
ENDTAB
  0
TABLE
  2
STYLE
  5
3
330
0
100
AcDbSymbolTable
 70
     1
  0
STYLE
  5
11
330
3
100
AcDbSymbolTableRecord
100
AcDbTextStyleTableRecord
  2
STANDARD
 70
     0
 40
0.0
 41
1.0
 50
0.0
 71
     0
 42
2.5
  3
txt
  4

  0
ENDTAB
  0
TABLE
  2
VIEW
  5
6
330
0
100
AcDbSymbolTable
 70
     0
  0
ENDTAB
  0
TABLE
  2
UCS
  5
7
330
0
100
AcDbSymbolTable
 70
     0
  0
ENDTAB
  0
TABLE
  2
APPID
  5
9
330
0
100
AcDbSymbolTable
 70
     2
  0
APPID
  5
12
330
9
100
AcDbSymbolTableRecord
100
AcDbRegAppTableRecord
  2
ACAD
 70
     0
  0
ENDTAB
  0
TABLE
  2
DIMSTYLE
  5
A
330
0
100
AcDbSymbolTable
 70
     1
  0
DIMSTYLE
105
27
330
A
100
AcDbSymbolTableRecord
100
AcDbDimStyleTableRecord
  2
ISO-25
 70
     0
  3

  4

  5

  6

  7

 40
1.0
 41
2.5
 42
0.625
 43
3.75
 44
1.25
 45
0.0
 46
0.0
 47
0.0
 48
0.0
140
2.5
141
2.5
142
0.0
143
0.03937007874016
144
1.0
145
0.0
146
1.0
147
0.625
 71
     0
 72
     0
 73
     0
 74
     0
 75
     0
 76
     0
 77
     1
 78
     8
170
     0
171
     3
172
     1
173
     0
174
     0
175
     0
176
     0
177
     0
178
     0
270
     2
271
     2
272
     2
273
     2
274
     3
340
11
275
     0
280
     0
281
     0
282
     0
283
     0
284
     8
285
     0
286
     0
287
     3
288
     0
  0
ENDTAB
  0
TABLE
  2
BLOCK_RECORD
  5
1
330
0
100
AcDbSymbolTable
 70
     1
  0
BLOCK_RECORD
  5
1F
330
1
100
AcDbSymbolTableRecord
100
AcDbBlockTableRecord
  2
*MODEL_SPACE
  0
BLOCK_RECORD
  5
1B
330
1
100
AcDbSymbolTableRecord
100
AcDbBlockTableRecord
  2
*PAPER_SPACE
  0
ENDTAB
  0
ENDSEC
  0
SECTION
  2
BLOCKS
  0
BLOCK
  5
20
330
1F
100
AcDbEntity
  8
0
100
AcDbBlockBegin
  2
*MODEL_SPACE
 70
     0
 10
0.0
 20
0.0
 30
0.0
  3
*MODEL_SPACE
  1

  0
ENDBLK
  5
21
330
1F
100
AcDbEntity
  8
0
100
AcDbBlockEnd
  0
BLOCK
  5
1C
330
1B
100
AcDbEntity
 67
     1
  8
0
100
AcDbBlockBegin
  2
*PAPER_SPACE
  1

  0
ENDBLK
  5
1D
330
1B
100
AcDbEntity
 67
     1
  8
0
100
AcDbBlockEnd
  0
ENDSEC
  0
SECTION
  2
ENTITIES
  0
SPLINE
  5
100
100
AcDbEntity
  8
outline-segments
 62
7
100
AcDbSpline
 70
8
 71
3
 72
8
 73
4
 74
0
 40
0
 40
0
 40
0
 40
0
 40
1
 40
1
 40
1
 40
1
 10
25.703851
 20
230.511224
 30
0.0
 10
26.233209
 20
229.977645
 30
0.0
 10
27.089900
 20
229.970918
 30
0.0
 10
27.623121
 20
230.496144
 30
0.0
  0
SPLINE
  5
101
100
AcDbEntity
  8
outline-segments
 62
7
100
AcDbSpline
 70
8
 71
3
 72
8
 73
4
 74
0
 40
0
 40
0
 40
0
 40
0
 40
1
 40
1
 40
1
 40
1
 10
27.623121
 20
230.496144
 30
0.0
 10
28.159611
 20
231.024607
 30
0.0
 10
28.162095
 20
231.887214
 30
0.0
 10
27.628481
 20
232.423727
 30
0.0
  0
SPLINE
  5
102
100
AcDbEntity
  8
outline-segments
 62
7
100
AcDbSpline
 70
8
 71
3
 72
8
 73
4
 74
0
 40
0
 40
0
 40
0
 40
0
 40
1
 40
1
 40
1
 40
1
 10
27.628481
 20
232.423727
 30
0.0
 10
27.099927
 20
232.955134
 30
0.0
 10
26.237120
 20
232.958365
 30
0.0
 10
25.709242
 20
232.430878
 30
0.0
  0
SPLINE
  5
103
100
AcDbEntity
  8
outline-segments
 62
7
100
AcDbSpline
 70
8
 71
3
 72
8
 73
4
 74
0
 40
0
 40
0
 40
0
 40
0
 40
1
 40
1
 40
1
 40
1
 10
25.709242
 20
232.430878
 30
0.0
 10
25.178573
 20
231.900490
 30
0.0
 10
25.176180
 20
231.043101
 30
0.0
 10
25.703851
 20
230.511224
 30
0.0
  0
SPLINE
  5
104
100
AcDbEntity
  8
outline-segments
 62
7
100
AcDbSpline
 70
8
 71
3
 72
8
 73
4
 74
0
 40
0
 40
0
 40
0
 40
0
 40
1
 40
1
 40
1
 40
1
 10
29.276747
 20
230.692791
 30
0.0
 10
29.199795
 20
230.509954
 30
0.0
 10
29.128599
 20
230.340781
 30
0.0
 10
29.053635
 20
230.162748
 30
0.0
  0
SPLINE
  5
105
100
AcDbEntity
  8
outline-segments
 62
7
100
AcDbSpline
 70
8
 71
3
 72
8
 73
4
 74
0
 40
0
 40
0
 40
0
 40
0
 40
1
 40
1
 40
1
 40
1
 10
29.053635
 20
230.162748
 30
0.0
 10
28.825617
 20
230.215442
 30
0.0
 10
28.603557
 20
230.266753
 30
0.0
 10
28.393142
 20
230.315300
 30
0.0
  0
LINE
  5
106
100
AcDbEntity
  8
outline-segments
 62
7
100
AcDbLine
 10
28.393142
 20
230.315300
 30
0.0
 11
27.819736
 21
229.747156
 31
0.0
  0
SPLINE
  5
107
100
AcDbEntity
  8
outline-segments
 62
7
100
AcDbSpline
 70
8
 71
3
 72
8
 73
4
 74
0
 40
0
 40
0
 40
0
 40
0
 40
1
 40
1
 40
1
 40
1
 10
27.819736
 20
229.747156
 30
0.0
 10
27.866688
 20
229.537994
 30
0.0
 10
27.918153
 20
229.308073
 30
0.0
 10
27.971013
 20
229.072114
 30
0.0
  0
SPLINE
  5
108
100
AcDbEntity
  8
outline-segments
 62
7
100
AcDbSpline
 70
8
 71
3
 72
8
 73
4
 74
0
 40
0
 40
0
 40
0
 40
0
 40
1
 40
1
 40
1
 40
1
 10
27.971013
 20
229.072114
 30
0.0
 10
27.794062
 20
228.999734
 30
0.0
 10
27.624173
 20
228.930304
 30
0.0
 10
27.438395
 20
228.854306
 30
0.0
  0
SPLINE
  5
109
100
AcDbEntity
  8
outline-segments
 62
7
100
AcDbSpline
 70
8
 71
3
 72
8
 73
4
 74
0
 40
0
 40
0
 40
0
 40
0
 40
1
 40
1
 40
1
 40
1
 10
27.438395
 20
228.854306
 30
0.0
 10
27.314875
 20
229.052095
 30
0.0
 10
27.192565
 20
229.247846
 30
0.0
 10
27.113044
 20
229.375220
 30
0.0
  0
SPLINE
  5
10a
100
AcDbEntity
  8
outline-segments
 62
7
100
AcDbSpline
 70
8
 71
3
 72
8
 73
4
 74
0
 40
0
 40
0
 40
0
 40
0
 40
1
 40
1
 40
1
 40
1
 10
27.113044
 20
229.375220
 30
0.0
 10
26.804967
 20
229.379622
 30
0.0
 10
26.541821
 20
229.383342
 30
0.0
 10
26.236115
 20
229.387665
 30
0.0
  0
SPLINE
  5
10b
100
AcDbEntity
  8
outline-segments
 62
7
100
AcDbSpline
 70
8
 71
3
 72
8
 73
4
 74
0
 40
0
 40
0
 40
0
 40
0
 40
1
 40
1
 40
1
 40
1
 10
26.236115
 20
229.387665
 30
0.0
 10
26.150094
 20
229.251702
 30
0.0
 10
26.026115
 20
229.055731
 30
0.0
 10
25.895923
 20
228.849961
 30
0.0
  0
SPLINE
  5
10c
100
AcDbEntity
  8
outline-segments
 62
7
100
AcDbSpline
 70
8
 71
3
 72
8
 73
4
 74
0
 40
0
 40
0
 40
0
 40
0
 40
1
 40
1
 40
1
 40
1
 10
25.895923
 20
228.849961
 30
0.0
 10
25.720591
 20
228.923151
 30
0.0
 10
25.547966
 20
228.995109
 30
0.0
 10
25.363909
 20
229.071931
 30
0.0
  0
SPLINE
  5
10d
100
AcDbEntity
  8
outline-segments
 62
7
100
AcDbSpline
 70
8
 71
3
 72
8
 73
4
 74
0
 40
0
 40
0
 40
0
 40
0
 40
1
 40
1
 40
1
 40
1
 10
25.363909
 20
229.071931
 30
0.0
 10
25.418454
 20
229.304616
 30
0.0
 10
25.472237
 20
229.533578
 30
0.0
 10
25.521390
 20
229.743109
 30
0.0
  0
LINE
  5
10e
100
AcDbEntity
  8
outline-segments
 62
7
100
AcDbLine
 10
25.521390
 20
229.743109
 30
0.0
 11
24.940428
 21
230.329451
 31
0.0
  0
SPLINE
  5
10f
100
AcDbEntity
  8
outline-segments
 62
7
100
AcDbSpline
 70
8
 71
3
 72
8
 73
4
 74
0
 40
0
 40
0
 40
0
 40
0
 40
1
 40
1
 40
1
 40
1
 10
24.940428
 20
230.329451
 30
0.0
 10
24.733371
 20
230.283235
 30
0.0
 10
24.503315
 20
230.231771
 30
0.0
 10
24.267356
 20
230.179046
 30
0.0
  0
SPLINE
  5
110
100
AcDbEntity
  8
outline-segments
 62
7
100
AcDbSpline
 70
8
 71
3
 72
8
 73
4
 74
0
 40
0
 40
0
 40
0
 40
0
 40
1
 40
1
 40
1
 40
1
 10
24.267356
 20
230.179046
 30
0.0
 10
24.193843
 20
230.360001
 30
0.0
 10
24.123345
 20
230.533419
 30
0.0
 10
24.050501
 20
230.712608
 30
0.0
  0
SPLINE
  5
111
100
AcDbEntity
  8
outline-segments
 62
7
100
AcDbSpline
 70
8
 71
3
 72
8
 73
4
 74
0
 40
0
 40
0
 40
0
 40
0
 40
1
 40
1
 40
1
 40
1
 10
24.050501
 20
230.712608
 30
0.0
 10
24.255218
 20
230.839350
 30
0.0
 10
24.452391
 20
230.961449
 30
0.0
 10
24.588122
 20
231.045473
 30
0.0
  0
SPLINE
  5
112
100
AcDbEntity
  8
outline-segments
 62
7
100
AcDbSpline
 70
8
 71
3
 72
8
 73
4
 74
0
 40
0
 40
0
 40
0
 40
0
 40
1
 40
1
 40
1
 40
1
 10
24.588122
 20
231.045473
 30
0.0
 10
24.585248
 20
231.348365
 30
0.0
 10
24.582869
 20
231.611540
 30
0.0
 10
24.579928
 20
231.929342
 30
0.0
  0
SPLINE
  5
113
100
AcDbEntity
  8
outline-segments
 62
7
100
AcDbSpline
 70
8
 71
3
 72
8
 73
4
 74
0
 40
0
 40
0
 40
0
 40
0
 40
1
 40
1
 40
1
 40
1
 10
24.579928
 20
231.929342
 30
0.0
 10
24.463901
 20
232.002869
 30
0.0
 10
24.268066
 20
232.126983
 30
0.0
 10
24.063649
 20
232.256627
 30
0.0
  0
SPLINE
  5
114
100
AcDbEntity
  8
outline-segments
 62
7
100
AcDbSpline
 70
8
 71
3
 72
8
 73
4
 74
0
 40
0
 40
0
 40
0
 40
0
 40
1
 40
1
 40
1
 40
1
 10
24.063649
 20
232.256627
 30
0.0
 10
24.138075
 20
232.435476
 30
0.0
 10
24.209965
 20
232.608170
 30
0.0
 10
24.285008
 20
232.788576
 30
0.0
  0
SPLINE
  5
115
100
AcDbEntity
  8
outline-segments
 62
7
100
AcDbSpline
 70
8
 71
3
 72
8
 73
4
 74
0
 40
0
 40
0
 40
0
 40
0
 40
1
 40
1
 40
1
 40
1
 10
24.285008
 20
232.788576
 30
0.0
 10
24.519318
 20
232.733481
 30
0.0
 10
24.749159
 20
232.679490
 30
0.0
 10
24.964784
 20
232.628819
 30
0.0
  0
LINE
  5
116
100
AcDbEntity
  8
outline-segments
 62
7
100
AcDbLine
 10
24.964784
 20
232.628819
 30
0.0
 11
25.537849
 21
233.196625
 31
0.0
  0
SPLINE
  5
117
100
AcDbEntity
  8
outline-segments
 62
7
100
AcDbSpline
 70
8
 71
3
 72
8
 73
4
 74
0
 40
0
 40
0
 40
0
 40
0
 40
1
 40
1
 40
1
 40
1
 10
25.537849
 20
233.196625
 30
0.0
 10
25.491375
 20
233.406530
 30
0.0
 10
25.441249
 20
233.632785
 30
0.0
 10
25.389794
 20
233.864875
 30
0.0
  0
SPLINE
  5
118
100
AcDbEntity
  8
outline-segments
 62
7
100
AcDbSpline
 70
8
 71
3
 72
8
 73
4
 74
0
 40
0
 40
0
 40
0
 40
0
 40
1
 40
1
 40
1
 40
1
 10
25.389794
 20
233.864875
 30
0.0
 10
25.568646
 20
233.938059
 30
0.0
 10
25.738467
 20
234.007557
 30
0.0
 10
25.921325
 20
234.082282
 30
0.0
  0
SPLINE
  5
119
100
AcDbEntity
  8
outline-segments
 62
7
100
AcDbSpline
 70
8
 71
3
 72
8
 73
4
 74
0
 40
0
 40
0
 40
0
 40
0
 40
1
 40
1
 40
1
 40
1
 10
25.921325
 20
234.082282
 30
0.0
 10
26.047537
 20
233.880278
 30
0.0
 10
26.172067
 20
233.680925
 30
0.0
 10
26.259257
 20
233.541316
 30
0.0
  0
SPLINE
  5
11a
100
AcDbEntity
  8
outline-segments
 62
7
100
AcDbSpline
 70
8
 71
3
 72
8
 73
4
 74
0
 40
0
 40
0
 40
0
 40
0
 40
1
 40
1
 40
1
 40
1
 10
26.259257
 20
233.541316
 30
0.0
 10
26.557282
 20
233.546788
 30
0.0
 10
26.812809
 20
233.551439
 30
0.0
 10
27.136589
 20
233.557334
 30
0.0
  0
SPLINE
  5
11b
100
AcDbEntity
  8
outline-segments
 62
7
100
AcDbSpline
 70
8
 71
3
 72
8
 73
4
 74
0
 40
0
 40
0
 40
0
 40
0
 40
1
 40
1
 40
1
 40
1
 10
27.136589
 20
233.557334
 30
0.0
 10
27.203217
 20
233.661804
 30
0.0
 10
27.327668
 20
233.857028
 30
0.0
 10
27.458944
 20
234.062792
 30
0.0
  0
SPLINE
  5
11c
100
AcDbEntity
  8
outline-segments
 62
7
100
AcDbSpline
 70
8
 71
3
 72
8
 73
4
 74
0
 40
0
 40
0
 40
0
 40
0
 40
1
 40
1
 40
1
 40
1
 10
27.458944
 20
234.062792
 30
0.0
 10
27.633194
 20
233.990285
 30
0.0
 10
27.805685
 20
233.918464
 30
0.0
 10
27.990081
 20
233.841708
 30
0.0
  0
SPLINE
  5
11d
100
AcDbEntity
  8
outline-segments
 62
7
100
AcDbSpline
 70
8
 71
3
 72
8
 73
4
 74
0
 40
0
 40
0
 40
0
 40
0
 40
1
 40
1
 40
1
 40
1
 10
27.990081
 20
233.841708
 30
0.0
 10
27.936976
 20
233.612879
 30
0.0
 10
27.884836
 20
233.387434
 30
0.0
 10
27.834702
 20
233.170858
 30
0.0
  0
LINE
  5
11e
100
AcDbEntity
  8
outline-segments
 62
7
100
AcDbLine
 10
27.834702
 20
233.170858
 30
0.0
 11
28.389557
 21
232.610866
 31
0.0
  0
SPLINE
  5
11f
100
AcDbEntity
  8
outline-segments
 62
7
100
AcDbSpline
 70
8
 71
3
 72
8
 73
4
 74
0
 40
0
 40
0
 40
0
 40
0
 40
1
 40
1
 40
1
 40
1
 10
28.389557
 20
232.610866
 30
0.0
 10
28.599600
 20
232.657881
 30
0.0
 10
28.825654
 20
232.708482
 30
0.0
 10
29.060052
 20
232.760875
 30
0.0
  0
SPLINE
  5
120
100
AcDbEntity
  8
outline-segments
 62
7
100
AcDbSpline
 70
8
 71
3
 72
8
 73
4
 74
0
 40
0
 40
0
 40
0
 40
0
 40
1
 40
1
 40
1
 40
1
 10
29.060052
 20
232.760875
 30
0.0
 10
29.133705
 20
232.580869
 30
0.0
 10
29.204408
 20
232.407789
 30
0.0
 10
29.278262
 20
232.227171
 30
0.0
  0
SPLINE
  5
121
100
AcDbEntity
  8
outline-segments
 62
7
100
AcDbSpline
 70
8
 71
3
 72
8
 73
4
 74
0
 40
0
 40
0
 40
0
 40
0
 40
1
 40
1
 40
1
 40
1
 10
29.278262
 20
232.227171
 30
0.0
 10
29.078435
 20
232.102847
 30
0.0
 10
28.884930
 20
231.982493
 30
0.0
 10
28.765034
 20
231.907817
 30
0.0
  0
SPLINE
  5
122
100
AcDbEntity
  8
outline-segments
 62
7
100
AcDbSpline
 70
8
 71
3
 72
8
 73
4
 74
0
 40
0
 40
0
 40
0
 40
0
 40
1
 40
1
 40
1
 40
1
 10
28.765034
 20
231.907817
 30
0.0
 10
28.759544
 20
231.599067
 30
0.0
 10
28.754961
 20
231.339923
 30
0.0
 10
28.749461
 20
231.028869
 30
0.0
  0
SPLINE
  5
123
100
AcDbEntity
  8
outline-segments
 62
7
100
AcDbSpline
 70
8
 71
3
 72
8
 73
4
 74
0
 40
0
 40
0
 40
0
 40
0
 40
1
 40
1
 40
1
 40
1
 10
28.749461
 20
231.028869
 30
0.0
 10
28.876435
 20
230.947972
 30
0.0
 10
29.071591
 20
230.823590
 30
0.0
 10
29.276747
 20
230.692791
 30
0.0
  0
LINE
  5
124
100
AcDbEntity
  8
outline-segments
 62
7
100
AcDbLine
 10
68.015553
 20
215.053326
 30
0.0
 11
105.996500
 21
215.053326
 31
0.0
  0
LINE
  5
125
100
AcDbEntity
  8
outline-segments
 62
7
100
AcDbLine
 10
105.996500
 20
215.053326
 30
0.0
 11
112.518472
 21
208.531354
 31
0.0
  0
LINE
  5
126
100
AcDbEntity
  8
outline-segments
 62
7
100
AcDbLine
 10
112.518472
 20
208.531354
 30
0.0
 11
112.518472
 21
202.699494
 31
0.0
  0
LINE
  5
127
100
AcDbEntity
  8
outline-segments
 62
7
100
AcDbLine
 10
112.518472
 20
202.699494
 30
0.0
 11
106.104526
 21
196.285548
 31
0.0
  0
LINE
  5
128
100
AcDbEntity
  8
outline-segments
 62
7
100
AcDbLine
 10
106.104526
 20
196.285548
 30
0.0
 11
68.015553
 21
196.285548
 31
0.0
  0
LINE
  5
129
100
AcDbEntity
  8
outline-segments
 62
7
100
AcDbLine
 10
68.015553
 20
196.285548
 30
0.0
 11
67.540271
 21
196.296753
 31
0.0
  0
LINE
  5
12a
100
AcDbEntity
  8
outline-segments
 62
7
100
AcDbLine
 10
67.540271
 20
196.296753
 30
0.0
 11
67.070038
 21
196.330106
 31
0.0
  0
LINE
  5
12b
100
AcDbEntity
  8
outline-segments
 62
7
100
AcDbLine
 10
67.070038
 20
196.330106
 30
0.0
 11
66.605506
 21
196.385176
 31
0.0
  0
LINE
  5
12c
100
AcDbEntity
  8
outline-segments
 62
7
100
AcDbLine
 10
66.605506
 20
196.385176
 30
0.0
 11
66.147318
 21
196.461534
 31
0.0
  0
LINE
  5
12d
100
AcDbEntity
  8
outline-segments
 62
7
100
AcDbLine
 10
66.147318
 20
196.461534
 30
0.0
 11
65.696126
 21
196.558759
 31
0.0
  0
LINE
  5
12e
100
AcDbEntity
  8
outline-segments
 62
7
100
AcDbLine
 10
65.696126
 20
196.558759
 30
0.0
 11
65.252577
 21
196.676426
 31
0.0
  0
LINE
  5
12f
100
AcDbEntity
  8
outline-segments
 62
7
100
AcDbLine
 10
65.252577
 20
196.676426
 30
0.0
 11
64.817317
 21
196.814108
 31
0.0
  0
LINE
  5
130
100
AcDbEntity
  8
outline-segments
 62
7
100
AcDbLine
 10
64.817317
 20
196.814108
 30
0.0
 11
64.390998
 21
196.971382
 31
0.0
  0
LINE
  5
131
100
AcDbEntity
  8
outline-segments
 62
7
100
AcDbLine
 10
64.390998
 20
196.971382
 30
0.0
 11
63.974266
 21
197.147819
 31
0.0
  0
LINE
  5
132
100
AcDbEntity
  8
outline-segments
 62
7
100
AcDbLine
 10
63.974266
 20
197.147819
 30
0.0
 11
63.567767
 21
197.342998
 31
0.0
  0
LINE
  5
133
100
AcDbEntity
  8
outline-segments
 62
7
100
AcDbLine
 10
63.567767
 20
197.342998
 30
0.0
 11
63.172151
 21
197.556494
 31
0.0
  0
LINE
  5
134
100
AcDbEntity
  8
outline-segments
 62
7
100
AcDbLine
 10
63.172151
 20
197.556494
 30
0.0
 11
62.788066
 21
197.787877
 31
0.0
  0
LINE
  5
135
100
AcDbEntity
  8
outline-segments
 62
7
100
AcDbLine
 10
62.788066
 20
197.787877
 30
0.0
 11
62.416159
 21
198.036729
 31
0.0
  0
LINE
  5
136
100
AcDbEntity
  8
outline-segments
 62
7
100
AcDbLine
 10
62.416159
 20
198.036729
 30
0.0
 11
62.057082
 21
198.302619
 31
0.0
  0
LINE
  5
137
100
AcDbEntity
  8
outline-segments
 62
7
100
AcDbLine
 10
62.057082
 20
198.302619
 30
0.0
 11
61.711479
 21
198.585123
 31
0.0
  0
LINE
  5
138
100
AcDbEntity
  8
outline-segments
 62
7
100
AcDbLine
 10
61.711479
 20
198.585123
 30
0.0
 11
61.379997
 21
198.883822
 31
0.0
  0
LINE
  5
139
100
AcDbEntity
  8
outline-segments
 62
7
100
AcDbLine
 10
61.379997
 20
198.883822
 30
0.0
 11
61.063288
 21
199.198282
 31
0.0
  0
LINE
  5
13a
100
AcDbEntity
  8
outline-segments
 62
7
100
AcDbLine
 10
61.063288
 20
199.198282
 30
0.0
 11
60.761996
 21
199.528084
 31
0.0
  0
LINE
  5
13b
100
AcDbEntity
  8
outline-segments
 62
7
100
AcDbLine
 10
60.761996
 20
199.528084
 30
0.0
 11
60.476773
 21
199.872799
 31
0.0
  0
LINE
  5
13c
100
AcDbEntity
  8
outline-segments
 62
7
100
AcDbLine
 10
60.476773
 20
199.872799
 30
0.0
 11
60.208264
 21
200.232006
 31
0.0
  0
LINE
  5
13d
100
AcDbEntity
  8
outline-segments
 62
7
100
AcDbLine
 10
60.208264
 20
200.232006
 30
0.0
 11
59.957121
 21
200.605278
 31
0.0
  0
LINE
  5
13e
100
AcDbEntity
  8
outline-segments
 62
7
100
AcDbLine
 10
59.957121
 20
200.605278
 30
0.0
 11
59.723985
 21
200.992188
 31
0.0
  0
LINE
  5
13f
100
AcDbEntity
  8
outline-segments
 62
7
100
AcDbLine
 10
59.723985
 20
200.992188
 30
0.0
 11
59.509510
 21
201.392314
 31
0.0
  0
LINE
  5
140
100
AcDbEntity
  8
outline-segments
 62
7
100
AcDbLine
 10
59.509510
 20
201.392314
 30
0.0
 11
59.314342
 21
201.805231
 31
0.0
  0
LINE
  5
141
100
AcDbEntity
  8
outline-segments
 62
7
100
AcDbLine
 10
59.314342
 20
201.805231
 30
0.0
 11
59.139130
 21
202.230512
 31
0.0
  0
LINE
  5
142
100
AcDbEntity
  8
outline-segments
 62
7
100
AcDbLine
 10
59.139130
 20
202.230512
 30
0.0
 11
58.984523
 21
202.667733
 31
0.0
  0
LINE
  5
143
100
AcDbEntity
  8
outline-segments
 62
7
100
AcDbLine
 10
58.984523
 20
202.667733
 30
0.0
 11
58.851165
 21
203.116466
 31
0.0
  0
LINE
  5
144
100
AcDbEntity
  8
outline-segments
 62
7
100
AcDbLine
 10
58.851165
 20
203.116466
 30
0.0
 11
58.739707
 21
203.576291
 31
0.0
  0
LINE
  5
145
100
AcDbEntity
  8
outline-segments
 62
7
100
AcDbLine
 10
58.739707
 20
203.576291
 30
0.0
 11
58.650796
 21
204.046781
 31
0.0
  0
LINE
  5
146
100
AcDbEntity
  8
outline-segments
 62
7
100
AcDbLine
 10
58.650796
 20
204.046781
 30
0.0
 11
58.585083
 21
204.527510
 31
0.0
  0
LINE
  5
147
100
AcDbEntity
  8
outline-segments
 62
7
100
AcDbLine
 10
58.585083
 20
204.527510
 30
0.0
 11
58.543210
 21
205.018054
 31
0.0
  0
LINE
  5
148
100
AcDbEntity
  8
outline-segments
 62
7
100
AcDbLine
 10
58.543210
 20
205.018054
 30
0.0
 11
58.525825
 21
205.517986
 31
0.0
  0
LINE
  5
149
100
AcDbEntity
  8
outline-segments
 62
7
100
AcDbLine
 10
58.525825
 20
205.517986
 30
0.0
 11
58.534433
 21
206.053649
 31
0.0
  0
LINE
  5
14a
100
AcDbEntity
  8
outline-segments
 62
7
100
AcDbLine
 10
58.534433
 20
206.053649
 30
0.0
 11
58.570258
 21
206.577160
 31
0.0
  0
LINE
  5
14b
100
AcDbEntity
  8
outline-segments
 62
7
100
AcDbLine
 10
58.570258
 20
206.577160
 30
0.0
 11
58.632431
 21
207.088202
 31
0.0
  0
LINE
  5
14c
100
AcDbEntity
  8
outline-segments
 62
7
100
AcDbLine
 10
58.632431
 20
207.088202
 30
0.0
 11
58.720090
 21
207.586457
 31
0.0
  0
LINE
  5
14d
100
AcDbEntity
  8
outline-segments
 62
7
100
AcDbLine
 10
58.720090
 20
207.586457
 30
0.0
 11
58.832369
 21
208.071606
 31
0.0
  0
LINE
  5
14e
100
AcDbEntity
  8
outline-segments
 62
7
100
AcDbLine
 10
58.832369
 20
208.071606
 30
0.0
 11
58.968406
 21
208.543329
 31
0.0
  0
LINE
  5
14f
100
AcDbEntity
  8
outline-segments
 62
7
100
AcDbLine
 10
58.968406
 20
208.543329
 30
0.0
 11
59.127336
 21
209.001308
 31
0.0
  0
LINE
  5
150
100
AcDbEntity
  8
outline-segments
 62
7
100
AcDbLine
 10
59.127336
 20
209.001308
 30
0.0
 11
59.308297
 21
209.445226
 31
0.0
  0
LINE
  5
151
100
AcDbEntity
  8
outline-segments
 62
7
100
AcDbLine
 10
59.308297
 20
209.445226
 30
0.0
 11
59.510425
 21
209.874769
 31
0.0
  0
LINE
  5
152
100
AcDbEntity
  8
outline-segments
 62
7
100
AcDbLine
 10
59.510425
 20
209.874769
 30
0.0
 11
59.732858
 21
210.289610
 31
0.0
  0
LINE
  5
153
100
AcDbEntity
  8
outline-segments
 62
7
100
AcDbLine
 10
59.732858
 20
210.289610
 30
0.0
 11
59.974731
 21
210.689434
 31
0.0
  0
LINE
  5
154
100
AcDbEntity
  8
outline-segments
 62
7
100
AcDbLine
 10
59.974731
 20
210.689434
 30
0.0
 11
60.235183
 21
211.073928
 31
0.0
  0
LINE
  5
155
100
AcDbEntity
  8
outline-segments
 62
7
100
AcDbLine
 10
60.235183
 20
211.073928
 30
0.0
 11
60.513344
 21
211.442764
 31
0.0
  0
LINE
  5
156
100
AcDbEntity
  8
outline-segments
 62
7
100
AcDbLine
 10
60.513344
 20
211.442764
 30
0.0
 11
60.808356
 21
211.795632
 31
0.0
  0
LINE
  5
157
100
AcDbEntity
  8
outline-segments
 62
7
100
AcDbLine
 10
60.808356
 20
211.795632
 30
0.0
 11
61.119357
 21
212.132210
 31
0.0
  0
LINE
  5
158
100
AcDbEntity
  8
outline-segments
 62
7
100
AcDbLine
 10
61.119357
 20
212.132210
 30
0.0
 11
61.445479
 21
212.452183
 31
0.0
  0
LINE
  5
159
100
AcDbEntity
  8
outline-segments
 62
7
100
AcDbLine
 10
61.445479
 20
212.452183
 30
0.0
 11
61.785861
 21
212.755227
 31
0.0
  0
LINE
  5
15a
100
AcDbEntity
  8
outline-segments
 62
7
100
AcDbLine
 10
61.785861
 20
212.755227
 30
0.0
 11
62.139638
 21
213.041025
 31
0.0
  0
LINE
  5
15b
100
AcDbEntity
  8
outline-segments
 62
7
100
AcDbLine
 10
62.139638
 20
213.041025
 30
0.0
 11
62.505948
 21
213.309263
 31
0.0
  0
LINE
  5
15c
100
AcDbEntity
  8
outline-segments
 62
7
100
AcDbLine
 10
62.505948
 20
213.309263
 30
0.0
 11
62.883926
 21
213.559620
 31
0.0
  0
LINE
  5
15d
100
AcDbEntity
  8
outline-segments
 62
7
100
AcDbLine
 10
62.883926
 20
213.559620
 30
0.0
 11
63.272710
 21
213.791779
 31
0.0
  0
LINE
  5
15e
100
AcDbEntity
  8
outline-segments
 62
7
100
AcDbLine
 10
63.272710
 20
213.791779
 30
0.0
 11
63.671436
 21
214.005418
 31
0.0
  0
LINE
  5
15f
100
AcDbEntity
  8
outline-segments
 62
7
100
AcDbLine
 10
63.671436
 20
214.005418
 30
0.0
 11
64.079241
 21
214.200222
 31
0.0
  0
LINE
  5
160
100
AcDbEntity
  8
outline-segments
 62
7
100
AcDbLine
 10
64.079241
 20
214.200222
 30
0.0
 11
64.495262
 21
214.375872
 31
0.0
  0
LINE
  5
161
100
AcDbEntity
  8
outline-segments
 62
7
100
AcDbLine
 10
64.495262
 20
214.375872
 30
0.0
 11
64.918632
 21
214.532048
 31
0.0
  0
LINE
  5
162
100
AcDbEntity
  8
outline-segments
 62
7
100
AcDbLine
 10
64.918632
 20
214.532048
 30
0.0
 11
65.348491
 21
214.668434
 31
0.0
  0
LINE
  5
163
100
AcDbEntity
  8
outline-segments
 62
7
100
AcDbLine
 10
65.348491
 20
214.668434
 30
0.0
 11
65.783976
 21
214.784710
 31
0.0
  0
LINE
  5
164
100
AcDbEntity
  8
outline-segments
 62
7
100
AcDbLine
 10
65.783976
 20
214.784710
 30
0.0
 11
66.224221
 21
214.880561
 31
0.0
  0
LINE
  5
165
100
AcDbEntity
  8
outline-segments
 62
7
100
AcDbLine
 10
66.224221
 20
214.880561
 30
0.0
 11
66.668362
 21
214.955663
 31
0.0
  0
LINE
  5
166
100
AcDbEntity
  8
outline-segments
 62
7
100
AcDbLine
 10
66.668362
 20
214.955663
 30
0.0
 11
67.115540
 21
215.009703
 31
0.0
  0
LINE
  5
167
100
AcDbEntity
  8
outline-segments
 62
7
100
AcDbLine
 10
67.115540
 20
215.009703
 30
0.0
 11
67.564886
 21
215.042362
 31
0.0
  0
LINE
  5
168
100
AcDbEntity
  8
outline-segments
 62
7
100
AcDbLine
 10
67.564886
 20
215.042362
 30
0.0
 11
68.015541
 21
215.053312
 31
0.0
  0
LINE
  5
169
100
AcDbEntity
  8
outline-segments
 62
7
100
AcDbLine
 10
68.015541
 20
215.053312
 30
0.0
 11
68.015553
 21
215.053326
 31
0.0
  0
ENDSEC
  0
SECTION
  2
OBJECTS
  0
DICTIONARY
  5
C
330
0
100
AcDbDictionary
  3
ACAD_GROUP
350
D
  3
ACAD_MLINESTYLE
350
17
  0
DICTIONARY
  5
D
330
C
100
AcDbDictionary
  0
DICTIONARY
  5
1A
330
C
100
AcDbDictionary
  0
DICTIONARY
  5
17
330
C
100
AcDbDictionary
  3
STANDARD
350
18
  0
DICTIONARY
  5
19
330
C
100
AcDbDictionary
  0
ENDSEC
  0
EOF
