G04 #@! TF.FileFunction,Paste,Bot*
%FSLAX46Y46*%
G04 Gerber Fmt 4.6, Leading zero omitted, Abs format (unit mm)*
G04 Created by KiCad (PCBNEW 4.0.5-e0-6337~49~ubuntu14.04.1) date Tue Jun 13 17:42:49 2017*
%MOMM*%
%LPD*%
G01*
G04 APERTURE LIST*
%ADD10C,0.100000*%
%ADD11R,1.000000X1.400000*%
%ADD12R,2.000000X1.000000*%
%ADD13R,1.600000X0.800000*%
%ADD14R,1.000000X1.200000*%
%ADD15R,1.700000X0.600000*%
%ADD16R,2.700000X1.000000*%
%ADD17R,0.300000X0.800000*%
%ADD18R,1.200000X1.000000*%
%ADD19R,1.800000X1.250000*%
%ADD20R,0.800000X0.500000*%
%ADD21R,0.500000X0.800000*%
%ADD22R,0.600000X1.200000*%
%ADD23R,0.300000X0.900000*%
%ADD24R,0.300000X1.200000*%
%ADD25R,0.900000X0.300000*%
%ADD26R,1.200000X0.300000*%
%ADD27R,0.800000X0.300000*%
G04 APERTURE END LIST*
D10*
D11*
X133850000Y-87750000D03*
X129650000Y-87750000D03*
D12*
X135250000Y-89900000D03*
X128250000Y-89900000D03*
D13*
X132575000Y-77200000D03*
X132575000Y-75600000D03*
X127175000Y-77200000D03*
X127175000Y-75600000D03*
D14*
X126875000Y-77400000D03*
X126875000Y-75400000D03*
X132875000Y-77400000D03*
X132875000Y-75400000D03*
D10*
G36*
X127325000Y-78000000D02*
X126775000Y-77600000D01*
X127975000Y-77600000D01*
X127425000Y-78000000D01*
X127325000Y-78000000D01*
X127325000Y-78000000D01*
G37*
G36*
X127425000Y-74800000D02*
X127975000Y-75200000D01*
X126775000Y-75200000D01*
X127325000Y-74800000D01*
X127425000Y-74800000D01*
X127425000Y-74800000D01*
G37*
G36*
X132325000Y-78000000D02*
X131775000Y-77600000D01*
X132975000Y-77600000D01*
X132425000Y-78000000D01*
X132325000Y-78000000D01*
X132325000Y-78000000D01*
G37*
G36*
X132425000Y-74800000D02*
X132975000Y-75200000D01*
X131775000Y-75200000D01*
X132325000Y-74800000D01*
X132425000Y-74800000D01*
X132425000Y-74800000D01*
G37*
G36*
X137222093Y-83431712D02*
X138424175Y-84633794D01*
X137999911Y-85058058D01*
X136797829Y-83855976D01*
X137222093Y-83431712D01*
X137222093Y-83431712D01*
G37*
G36*
X136338210Y-84315596D02*
X137540292Y-85517678D01*
X137116028Y-85941942D01*
X135913946Y-84739860D01*
X136338210Y-84315596D01*
X136338210Y-84315596D01*
G37*
G36*
X138105976Y-82547829D02*
X139308058Y-83749911D01*
X138883794Y-84174175D01*
X137681712Y-82972093D01*
X138105976Y-82547829D01*
X138105976Y-82547829D01*
G37*
G36*
X138989860Y-81663946D02*
X140191942Y-82866028D01*
X139767678Y-83290292D01*
X138565596Y-82088210D01*
X138989860Y-81663946D01*
X138989860Y-81663946D01*
G37*
G36*
X136921573Y-87338477D02*
X138830762Y-89247666D01*
X138123655Y-89954773D01*
X136214466Y-88045584D01*
X136921573Y-87338477D01*
X136921573Y-87338477D01*
G37*
G36*
X142295584Y-81964466D02*
X144204773Y-83873655D01*
X143497666Y-84580762D01*
X141588477Y-82671573D01*
X142295584Y-81964466D01*
X142295584Y-81964466D01*
G37*
D15*
X97100000Y-82250000D03*
X97100000Y-81000000D03*
X97100000Y-83500000D03*
X97100000Y-84750000D03*
D16*
X94050000Y-75325000D03*
X94050001Y-86675000D03*
D15*
X97100000Y-79750000D03*
X97100000Y-78500000D03*
X97100000Y-77250000D03*
D17*
X123550000Y-80000000D03*
X124200000Y-80000000D03*
X124850000Y-80000000D03*
X124850000Y-82000000D03*
X124200000Y-82000000D03*
X123550000Y-82000000D03*
X124800000Y-77000000D03*
X124150000Y-77000000D03*
X123500000Y-77000000D03*
X123500000Y-75000000D03*
X124150000Y-75000000D03*
X124800000Y-75000000D03*
D18*
X101500000Y-74000000D03*
X101500000Y-76000000D03*
D19*
X111700000Y-87000000D03*
X114300000Y-87000000D03*
D20*
X112600000Y-85400000D03*
X113800000Y-85400000D03*
D14*
X103000000Y-78000000D03*
X105000000Y-78000000D03*
D21*
X99000000Y-83400000D03*
X99000000Y-84600000D03*
D10*
G36*
X137681712Y-79027907D02*
X138883794Y-77825825D01*
X139308058Y-78250089D01*
X138105976Y-79452171D01*
X137681712Y-79027907D01*
X137681712Y-79027907D01*
G37*
G36*
X138565596Y-79911790D02*
X139767678Y-78709708D01*
X140191942Y-79133972D01*
X138989860Y-80336054D01*
X138565596Y-79911790D01*
X138565596Y-79911790D01*
G37*
G36*
X136797829Y-78144024D02*
X137999911Y-76941942D01*
X138424175Y-77366206D01*
X137222093Y-78568288D01*
X136797829Y-78144024D01*
X136797829Y-78144024D01*
G37*
G36*
X135913946Y-77260140D02*
X137116028Y-76058058D01*
X137540292Y-76482322D01*
X136338210Y-77684404D01*
X135913946Y-77260140D01*
X135913946Y-77260140D01*
G37*
G36*
X141588477Y-79328427D02*
X143497666Y-77419238D01*
X144204773Y-78126345D01*
X142295584Y-80035534D01*
X141588477Y-79328427D01*
X141588477Y-79328427D01*
G37*
G36*
X136214466Y-73954416D02*
X138123655Y-72045227D01*
X138830762Y-72752334D01*
X136921573Y-74661523D01*
X136214466Y-73954416D01*
X136214466Y-73954416D01*
G37*
D20*
X124700000Y-72800000D03*
X123500000Y-72800000D03*
X128800000Y-80000000D03*
X127600000Y-80000000D03*
X132200000Y-80000000D03*
X131000000Y-80000000D03*
D22*
X104000000Y-73850000D03*
X103050000Y-73850000D03*
X104950000Y-73850000D03*
X104950000Y-76150000D03*
X103050000Y-76150000D03*
D20*
X113800000Y-76600000D03*
X112600000Y-76600000D03*
D21*
X119000000Y-80300000D03*
X119000000Y-81500000D03*
D23*
X111700000Y-78600000D03*
D24*
X112200000Y-78750000D03*
X112700000Y-78750000D03*
X113200000Y-78750000D03*
X113700000Y-78750000D03*
X114200000Y-78750000D03*
D23*
X114700000Y-78600000D03*
D25*
X115600000Y-79500000D03*
D26*
X115450000Y-80000000D03*
X115450000Y-80500000D03*
X115450000Y-81000000D03*
X115450000Y-81500000D03*
X115450000Y-82000000D03*
D25*
X115600000Y-82500000D03*
D23*
X114700000Y-83400000D03*
D24*
X114200000Y-83250000D03*
X113700000Y-83250000D03*
X113200000Y-83250000D03*
X112700000Y-83250000D03*
X112200000Y-83250000D03*
D23*
X111700000Y-83400000D03*
D25*
X110800000Y-82500000D03*
D26*
X110950000Y-82000000D03*
X110950000Y-81500000D03*
X110950000Y-81000000D03*
X110950000Y-80500000D03*
X110950000Y-80000000D03*
D25*
X110800000Y-79500000D03*
D10*
G36*
X111850000Y-78600000D02*
X111850000Y-79400000D01*
X111550000Y-79100000D01*
X111550000Y-78900000D01*
X111850000Y-78600000D01*
X111850000Y-78600000D01*
G37*
G36*
X111600000Y-79650000D02*
X110800000Y-79650000D01*
X111100000Y-79350000D01*
X111300000Y-79350000D01*
X111600000Y-79650000D01*
X111600000Y-79650000D01*
G37*
G36*
X114800000Y-82350000D02*
X115600000Y-82350000D01*
X115300000Y-82650000D01*
X115100000Y-82650000D01*
X114800000Y-82350000D01*
X114800000Y-82350000D01*
G37*
G36*
X114550000Y-83400000D02*
X114550000Y-82600000D01*
X114850000Y-82900000D01*
X114850000Y-83100000D01*
X114550000Y-83400000D01*
X114550000Y-83400000D01*
G37*
G36*
X114550000Y-79400000D02*
X114550000Y-78600000D01*
X114850000Y-78900000D01*
X114850000Y-79100000D01*
X114550000Y-79400000D01*
X114550000Y-79400000D01*
G37*
G36*
X115600000Y-79650000D02*
X114800000Y-79650000D01*
X115100000Y-79350000D01*
X115300000Y-79350000D01*
X115600000Y-79650000D01*
X115600000Y-79650000D01*
G37*
G36*
X111850000Y-82600000D02*
X111850000Y-83400000D01*
X111550000Y-83100000D01*
X111550000Y-82900000D01*
X111850000Y-82600000D01*
X111850000Y-82600000D01*
G37*
G36*
X110800000Y-82350000D02*
X111600000Y-82350000D01*
X111300000Y-82650000D01*
X111100000Y-82650000D01*
X110800000Y-82350000D01*
X110800000Y-82350000D01*
G37*
D27*
X118350000Y-75250000D03*
X118350000Y-75750000D03*
X118350000Y-76250000D03*
X118350000Y-76750000D03*
X119650000Y-76750000D03*
X119650000Y-76250000D03*
X119650000Y-75750000D03*
X119650000Y-75250000D03*
M02*
