<?xml version="1.0" standalone="no"?>
 <!DOCTYPE svg PUBLIC "-//W3C//DTD SVG 1.1//EN" 
 "http://www.w3.org/Graphics/SVG/1.1/DTD/svg11.dtd"> 
<svg xmlns="http://www.w3.org/2000/svg" version="1.1" 
    width="6.13918cm" height="3.11404cm" viewBox="0 0 24170 12260 ">
<title>SVG Picture created as NeuroBytes_Force_Sensor-brd.svg date 2017/09/05 18:24:00 </title>
  <desc>Picture generated by PCBNEW </desc>
<g style="fill:#000000; fill-opacity:1;stroke:#000000; stroke-opacity:1;
stroke-linecap:round; stroke-linejoin:round; "
 transform="translate(0 0) scale(1 1)">
</g>
<g style="fill:#000000; fill-opacity:0.0; 
stroke:#000000; stroke-width:-0.000393701; stroke-opacity:1; 
stroke-linecap:round; stroke-linejoin:round;">
</g>
<g style="fill:#000000; fill-opacity:0.0; 
stroke:#000000; stroke-width:66.9291; stroke-opacity:1; 
stroke-linecap:round; stroke-linejoin:round;">
<path d="M19738 8217
L19265 8217
L19265 8037
L19288 7992
L19310 7969
L19355 7947
L19423 7947
L19468 7969
L19490 7992
L19513 8037
L19513 8217
" />
<path d="M19265 7654
L19265 7564
L19288 7519
L19333 7474
L19423 7452
L19580 7452
L19670 7474
L19715 7519
L19738 7564
L19738 7654
L19715 7699
L19670 7744
L19580 7767
L19423 7767
L19333 7744
L19288 7699
L19265 7654
" />
<path d="M19265 7294
L19738 7182
L19400 7092
L19738 7002
L19265 6889
" />
<path d="M19490 6709
L19490 6552
" />
<path d="M19738 6484
L19738 6709
L19265 6709
L19265 6484
" />
<path d="M19738 6012
L19513 6169
" />
<path d="M19738 6282
L19265 6282
L19265 6102
L19288 6057
L19310 6034
L19355 6012
L19423 6012
L19468 6034
L19490 6057
L19513 6102
L19513 6282
" />
<path d="M6295 9583
L6295 9111
" />
<path d="M6520 9583
L6520 9111
L6633 9111
L6700 9133
L6745 9178
L6768 9223
L6790 9313
L6790 9381
L6768 9471
L6745 9516
L6700 9561
L6633 9583
L6520 9583
" />
</g>
<g style="fill:#000000; fill-opacity:0.0; 
stroke:#000000; stroke-width:59.0551; stroke-opacity:1; 
stroke-linecap:round; stroke-linejoin:round;">
<path d="M7890 10826
L7890 9842
" />
<path d="M7890 9842
L5134 9842
" />
<path d="M5134 9842
L5134 10826
" />
<path d="M5134 10826
L7890 10826
" />
</g>
<g style="fill:#000000; fill-opacity:0.0; 
stroke:#000000; stroke-width:39.3701; stroke-opacity:1; 
stroke-linecap:round; stroke-linejoin:round;">
<circle cx="7998.74" cy="4645.67" r="88.0343" /> 
<path d="M6069 4133
L6069 6496
" />
<path d="M8431 4133
L6069 4133
" />
<path d="M8431 6496
L8431 4133
" />
<path d="M6069 6496
L8431 6496
" />
</g>
<g style="fill:#000000; fill-opacity:0.0; 
stroke:#000000; stroke-width:59.0551; stroke-opacity:1; 
stroke-linecap:round; stroke-linejoin:round;">
<path d="M6620 5866
L7880 5866
" />
<path d="M7880 5866
L7880 4763
" />
<path d="M7880 4763
L6620 4763
" />
<path d="M6620 4763
L6620 5866
" />
<path d="M3989 10581
L5047 9524
" />
<path d="M5047 9524
L2736 7213
" />
<path d="M2736 7213
L1678 8271
" />
<path d="M1678 8271
L3989 10581
" />
</g>
<g style="fill:#000000; fill-opacity:0.0; 
stroke:#000000; stroke-width:39.3701; stroke-opacity:1; 
stroke-linecap:round; stroke-linejoin:round;">
<circle cx="9957.4" cy="6811.02" r="78.7402" /> 
<path d="M9878 7362
L9091 7362
" />
<path d="M9878 6889
L9878 7362
" />
<path d="M9091 6889
L9878 6889
" />
<path d="M9091 7362
L9091 6889
" />
<circle cx="9032.2" cy="5472.44" r="78.7402" /> 
<path d="M9110 4921
L9898 4921
" />
<path d="M9110 5393
L9110 4921
" />
<path d="M9898 5393
L9110 5393
" />
<path d="M9898 4921
L9898 5393
" />
</g>
<g style="fill:#000000; fill-opacity:0.0; 
stroke:#000000; stroke-width:59.0551; stroke-opacity:1; 
stroke-linecap:round; stroke-linejoin:round;">
<path d="M12988 9763
L12988 9212
" />
<path d="M13736 9763
L14799 9763
" />
<path d="M14799 9763
L14799 9212
" />
<path d="M14799 9212
L13736 9212
" />
<path d="M1678 5980
L2736 7038
" />
<path d="M2736 7038
L5047 4727
" />
<path d="M5047 4727
L3989 3670
" />
<path d="M3989 3670
L1678 5980
" />
</g>
<g style="fill:#000000; fill-opacity:0.0; 
stroke:#000000; stroke-width:39.3701; stroke-opacity:1; 
stroke-linecap:round; stroke-linejoin:round;">
<circle cx="14701.5" cy="6240.16" r="98.4252" /> 
<path d="M13028 6338
L14603 6338
" />
<path d="M13028 7913
L13028 6338
" />
<path d="M14603 7913
L13028 7913
" />
<path d="M14603 6338
L14603 7913
" />
</g>
<g style="fill:#000000; fill-opacity:0.0; 
stroke:#000000; stroke-width:59.0551; stroke-opacity:1; 
stroke-linecap:round; stroke-linejoin:round;">
<path d="M11729 5551
L11335 5551
" />
<path d="M11335 5551
L11335 4763
" />
<path d="M11335 4763
L11729 4763
" />
<path d="M11729 4763
L11729 5551
" />
<path d="M22044 5246
L20547 5246
" />
<path d="M20547 5246
L20547 9005
" />
<path d="M20547 9005
L22044 9005
" />
<path d="M22044 9005
L22044 5246
" />
</g>
<g style="fill:#000000; fill-opacity:0.0; 
stroke:#000000; stroke-width:0; stroke-opacity:1; 
stroke-linecap:round; stroke-linejoin:round;">
</g>
<g style="fill:#000000; fill-opacity:1.0; 
stroke:#000000; stroke-width:0; stroke-opacity:1; 
stroke-linecap:round; stroke-linejoin:round;">
<polyline style="fill-rule:evenodd;"
points="5488,9507
5488,10059
5882,10059
5882,9507
5488,9507
" /> 
<polyline style="fill-rule:evenodd;"
points="7142,9507
7142,10059
7536,10059
7536,9507
7142,9507
" /> 
<polyline style="fill-rule:evenodd;"
points="4740,10433
4740,10826
5528,10826
5528,10433
4740,10433
" /> 
<polyline style="fill-rule:evenodd;"
points="7496,10433
7496,10826
8284,10826
8284,10433
7496,10433
" /> 
<polyline style="fill-rule:evenodd;"
points="6502,5787
6502,5472
5872,5472
5872,5787
6502,5787
" /> 
<polyline style="fill-rule:evenodd;"
points="6502,5157
6502,4842
5872,4842
5872,5157
6502,5157
" /> 
<polyline style="fill-rule:evenodd;"
points="8628,5787
8628,5472
7998,5472
7998,5787
8628,5787
" /> 
<polyline style="fill-rule:evenodd;"
points="8628,5157
8628,4842
7998,4842
7998,5157
8628,5157
" /> 
<polyline style="fill-rule:evenodd;"
points="8628,5944
8628,5472
8234,5472
8234,5944
8628,5944
" /> 
<polyline style="fill-rule:evenodd;"
points="8628,5157
8628,4685
8234,4685
8234,5157
8628,5157
" /> 
<polyline style="fill-rule:evenodd;"
points="6266,5944
6266,5472
5872,5472
5872,5944
6266,5944
" /> 
<polyline style="fill-rule:evenodd;"
points="6266,5157
6266,4685
5872,4685
5872,5157
6266,5157
" /> 
<polyline style="fill-rule:evenodd;"
points="8254,5944
8471,5787
7998,5787
8215,5944
8254,5944
" /> 
<polyline style="fill-rule:evenodd;"
points="8215,4685
7998,4842
8471,4842
8254,4685
8215,4685
" /> 
<polyline style="fill-rule:evenodd;"
points="6286,5944
6502,5787
6030,5787
6246,5944
6286,5944
" /> 
<polyline style="fill-rule:evenodd;"
points="6246,4685
6030,4842
6502,4842
6286,4685
6246,4685
" /> 
<polyline style="fill-rule:evenodd;"
points="4358,8083
3884,8556
4051,8723
4525,8250
4358,8083
" /> 
<polyline style="fill-rule:evenodd;"
points="4706,8431
4232,8904
4399,9071
4873,8598
4706,8431
" /> 
<polyline style="fill-rule:evenodd;"
points="4010,7735
3536,8208
3703,8375
4177,7902
4010,7735
" /> 
<polyline style="fill-rule:evenodd;"
points="3662,7387
3188,7860
3355,8027
3829,7554
3662,7387
" /> 
<polyline style="fill-rule:evenodd;"
points="4476,9621
3724,10373
4003,10651
4754,9899
4476,9621
" /> 
<polyline style="fill-rule:evenodd;"
points="2360,7505
1609,8257
1887,8535
2639,7784
2360,7505
" /> 
<polyline style="fill-rule:evenodd;"
points="9799,6889
9799,6574
9681,6574
9681,6889
9799,6889
" /> 
<polyline style="fill-rule:evenodd;"
points="9544,6889
9544,6574
9425,6574
9425,6889
9544,6889
" /> 
<polyline style="fill-rule:evenodd;"
points="9288,6889
9288,6574
9170,6574
9170,6889
9288,6889
" /> 
<polyline style="fill-rule:evenodd;"
points="9288,7677
9288,7362
9170,7362
9170,7677
9288,7677
" /> 
<polyline style="fill-rule:evenodd;"
points="9544,7677
9544,7362
9425,7362
9425,7677
9544,7677
" /> 
<polyline style="fill-rule:evenodd;"
points="9799,7677
9799,7362
9681,7362
9681,7677
9799,7677
" /> 
<polyline style="fill-rule:evenodd;"
points="9189,5393
9189,5708
9307,5708
9307,5393
9189,5393
" /> 
<polyline style="fill-rule:evenodd;"
points="9445,5393
9445,5708
9563,5708
9563,5393
9445,5393
" /> 
<polyline style="fill-rule:evenodd;"
points="9701,5393
9701,5708
9819,5708
9819,5393
9701,5393
" /> 
<polyline style="fill-rule:evenodd;"
points="9701,4606
9701,4921
9819,4921
9819,4606
9701,4606
" /> 
<polyline style="fill-rule:evenodd;"
points="9445,4606
9445,4921
9563,4921
9563,4606
9445,4606
" /> 
<polyline style="fill-rule:evenodd;"
points="9189,4606
9189,4921
9307,4921
9307,4606
9189,4606
" /> 
<polyline style="fill-rule:evenodd;"
points="18658,4173
18185,4173
18185,4566
18658,4566
18658,4173
" /> 
<polyline style="fill-rule:evenodd;"
points="18658,4960
18185,4960
18185,5354
18658,5354
18658,4960
" /> 
<polyline style="fill-rule:evenodd;"
points="14760,9734
14760,9242
14051,9242
14051,9734
14760,9734
" /> 
<polyline style="fill-rule:evenodd;"
points="13736,9734
13736,9242
13028,9242
13028,9734
13736,9734
" /> 
<polyline style="fill-rule:evenodd;"
points="14209,8956
14209,8759
13894,8759
13894,8956
14209,8956
" /> 
<polyline style="fill-rule:evenodd;"
points="13736,8956
13736,8759
13421,8759
13421,8956
13736,8956
" /> 
<polyline style="fill-rule:evenodd;"
points="18028,6181
18028,5708
17634,5708
17634,6181
18028,6181
" /> 
<polyline style="fill-rule:evenodd;"
points="17240,6181
17240,5708
16847,5708
16847,6181
17240,6181
" /> 
<polyline style="fill-rule:evenodd;"
points="18914,7480
18717,7480
18717,7795
18914,7795
18914,7480
" /> 
<polyline style="fill-rule:evenodd;"
points="18914,7952
18717,7952
18717,8267
18914,8267
18914,7952
" /> 
<polyline style="fill-rule:evenodd;"
points="4177,6349
3703,5876
3536,6043
4010,6516
4177,6349
" /> 
<polyline style="fill-rule:evenodd;"
points="3829,6697
3355,6224
3188,6391
3662,6864
3829,6697
" /> 
<polyline style="fill-rule:evenodd;"
points="4525,6001
4051,5528
3884,5695
4358,6168
4525,6001
" /> 
<polyline style="fill-rule:evenodd;"
points="4873,5653
4399,5180
4232,5347
4706,5820
4873,5653
" /> 
<polyline style="fill-rule:evenodd;"
points="2639,6467
1887,5716
1609,5994
2360,6746
2639,6467
" /> 
<polyline style="fill-rule:evenodd;"
points="4754,4352
4003,3600
3724,3878
4476,4630
4754,4352
" /> 
<polyline style="fill-rule:evenodd;"
points="9130,3799
9130,3996
9445,3996
9445,3799
9130,3799
" /> 
<polyline style="fill-rule:evenodd;"
points="9603,3799
9603,3996
9918,3996
9918,3799
9603,3799
" /> 
<polyline style="fill-rule:evenodd;"
points="7516,6633
7516,6830
7831,6830
7831,6633
7516,6633
" /> 
<polyline style="fill-rule:evenodd;"
points="7988,6633
7988,6830
8303,6830
8303,6633
7988,6633
" /> 
<polyline style="fill-rule:evenodd;"
points="6177,6633
6177,6830
6492,6830
6492,6633
6177,6633
" /> 
<polyline style="fill-rule:evenodd;"
points="6650,6633
6650,6830
6965,6830
6965,6633
6650,6633
" /> 
<polyline style="fill-rule:evenodd;"
points="17319,4074
17319,4547
17555,4547
17555,4074
17319,4074
" /> 
<polyline style="fill-rule:evenodd;"
points="17693,4074
17693,4547
17929,4547
17929,4074
17693,4074
" /> 
<polyline style="fill-rule:evenodd;"
points="16945,4074
16945,4547
17181,4547
17181,4074
16945,4074
" /> 
<polyline style="fill-rule:evenodd;"
points="16945,4980
16945,5452
17181,5452
17181,4980
16945,4980
" /> 
<polyline style="fill-rule:evenodd;"
points="17693,4980
17693,5452
17929,5452
17929,4980
17693,4980
" /> 
<polyline style="fill-rule:evenodd;"
points="13421,5295
13421,5492
13736,5492
13736,5295
13421,5295
" /> 
<polyline style="fill-rule:evenodd;"
points="13894,5295
13894,5492
14209,5492
14209,5295
13894,5295
" /> 
<polyline style="fill-rule:evenodd;"
points="11630,6692
11433,6692
11433,7007
11630,7007
11630,6692
" /> 
<polyline style="fill-rule:evenodd;"
points="11630,7165
11433,7165
11433,7480
11630,7480
11630,7165
" /> 
<polyline style="fill-rule:evenodd;"
points="14347,6003
14347,6358
14465,6358
14465,6003
14347,6003
" /> 
<polyline style="fill-rule:evenodd;"
points="14150,6003
14150,6476
14268,6476
14268,6003
14150,6003
" /> 
<polyline style="fill-rule:evenodd;"
points="13953,6003
13953,6476
14071,6476
14071,6003
13953,6003
" /> 
<polyline style="fill-rule:evenodd;"
points="13756,6003
13756,6476
13874,6476
13874,6003
13756,6003
" /> 
<polyline style="fill-rule:evenodd;"
points="13559,6003
13559,6476
13677,6476
13677,6003
13559,6003
" /> 
<polyline style="fill-rule:evenodd;"
points="13362,6003
13362,6476
13481,6476
13481,6003
13362,6003
" /> 
<polyline style="fill-rule:evenodd;"
points="13166,6003
13166,6358
13284,6358
13284,6003
13166,6003
" /> 
<polyline style="fill-rule:evenodd;"
points="12693,6594
13047,6594
13047,6476
12693,6476
12693,6594
" /> 
<polyline style="fill-rule:evenodd;"
points="12693,6791
13166,6791
13166,6673
12693,6673
12693,6791
" /> 
<polyline style="fill-rule:evenodd;"
points="12693,6988
13166,6988
13166,6870
12693,6870
12693,6988
" /> 
<polyline style="fill-rule:evenodd;"
points="12693,7185
13166,7185
13166,7066
12693,7066
12693,7185
" /> 
<polyline style="fill-rule:evenodd;"
points="12693,7381
13166,7381
13166,7263
12693,7263
12693,7381
" /> 
<polyline style="fill-rule:evenodd;"
points="12693,7578
13166,7578
13166,7460
12693,7460
12693,7578
" /> 
<polyline style="fill-rule:evenodd;"
points="12693,7775
13047,7775
13047,7657
12693,7657
12693,7775
" /> 
<polyline style="fill-rule:evenodd;"
points="13166,7893
13166,8248
13284,8248
13284,7893
13166,7893
" /> 
<polyline style="fill-rule:evenodd;"
points="13362,7775
13362,8248
13481,8248
13481,7775
13362,7775
" /> 
<polyline style="fill-rule:evenodd;"
points="13559,7775
13559,8248
13677,8248
13677,7775
13559,7775
" /> 
<polyline style="fill-rule:evenodd;"
points="13756,7775
13756,8248
13874,8248
13874,7775
13756,7775
" /> 
<polyline style="fill-rule:evenodd;"
points="13953,7775
13953,8248
14071,8248
14071,7775
13953,7775
" /> 
<polyline style="fill-rule:evenodd;"
points="14150,7775
14150,8248
14268,8248
14268,7775
14150,7775
" /> 
<polyline style="fill-rule:evenodd;"
points="14347,7893
14347,8248
14465,8248
14465,7893
14347,7893
" /> 
<polyline style="fill-rule:evenodd;"
points="14583,7775
14937,7775
14937,7657
14583,7657
14583,7775
" /> 
<polyline style="fill-rule:evenodd;"
points="14465,7578
14937,7578
14937,7460
14465,7460
14465,7578
" /> 
<polyline style="fill-rule:evenodd;"
points="14465,7381
14937,7381
14937,7263
14465,7263
14465,7381
" /> 
<polyline style="fill-rule:evenodd;"
points="14465,7185
14937,7185
14937,7066
14465,7066
14465,7185
" /> 
<polyline style="fill-rule:evenodd;"
points="14465,6988
14937,6988
14937,6870
14465,6870
14465,6988
" /> 
<polyline style="fill-rule:evenodd;"
points="14465,6791
14937,6791
14937,6673
14465,6673
14465,6791
" /> 
<polyline style="fill-rule:evenodd;"
points="14583,6594
14937,6594
14937,6476
14583,6476
14583,6594
" /> 
<polyline style="fill-rule:evenodd;"
points="14347,6181
14347,6496
14465,6377
14465,6299
14347,6181
" /> 
<polyline style="fill-rule:evenodd;"
points="14445,6594
14760,6594
14642,6476
14563,6476
14445,6594
" /> 
<polyline style="fill-rule:evenodd;"
points="13185,7657
12870,7657
12988,7775
13067,7775
13185,7657
" /> 
<polyline style="fill-rule:evenodd;"
points="13284,8070
13284,7755
13166,7874
13166,7952
13284,8070
" /> 
<polyline style="fill-rule:evenodd;"
points="13284,6496
13284,6181
13166,6299
13166,6377
13284,6496
" /> 
<polyline style="fill-rule:evenodd;"
points="12870,6594
13185,6594
13067,6476
12988,6476
12870,6594
" /> 
<polyline style="fill-rule:evenodd;"
points="14347,7755
14347,8070
14465,7952
14465,7874
14347,7755
" /> 
<polyline style="fill-rule:evenodd;"
points="14760,7657
14445,7657
14563,7775
14642,7775
14760,7657
" /> 
<polyline style="fill-rule:evenodd;"
points="11945,4803
11630,4803
11630,4921
11945,4921
11945,4803
" /> 
<polyline style="fill-rule:evenodd;"
points="11945,5000
11630,5000
11630,5118
11945,5118
11945,5000
" /> 
<polyline style="fill-rule:evenodd;"
points="11945,5196
11630,5196
11630,5314
11945,5314
11945,5196
" /> 
<polyline style="fill-rule:evenodd;"
points="11945,5393
11630,5393
11630,5511
11945,5511
11945,5393
" /> 
<polyline style="fill-rule:evenodd;"
points="11433,5393
11118,5393
11118,5511
11433,5511
11433,5393
" /> 
<polyline style="fill-rule:evenodd;"
points="11433,5196
11118,5196
11118,5314
11433,5314
11433,5196
" /> 
<polyline style="fill-rule:evenodd;"
points="11433,5000
11118,5000
11118,5118
11433,5118
11433,5000
" /> 
<polyline style="fill-rule:evenodd;"
points="11433,4803
11118,4803
11118,4921
11433,4921
11433,4803
" /> 
<polyline style="fill-rule:evenodd;"
points="20016,7244
20685,7244
20685,7007
20016,7007
20016,7244
" /> 
<polyline style="fill-rule:evenodd;"
points="20016,6751
20685,6751
20685,6515
20016,6515
20016,6751
" /> 
<polyline style="fill-rule:evenodd;"
points="20016,7736
20685,7736
20685,7500
20016,7500
20016,7736
" /> 
<polyline style="fill-rule:evenodd;"
points="20016,8228
20685,8228
20685,7992
20016,7992
20016,8228
" /> 
<polyline style="fill-rule:evenodd;"
points="21020,5551
22083,5551
22083,5157
21020,5157
21020,5551
" /> 
<polyline style="fill-rule:evenodd;"
points="21020,9094
22083,9094
22083,8700
21020,8700
21020,9094
" /> 
<polyline style="fill-rule:evenodd;"
points="20016,6023
20016,6259
20685,6259
20685,6023
20016,6023
" /> 
<polyline style="fill-rule:evenodd;"
points="5488,9507
5488,10059
5882,10059
5882,9507
5488,9507
" /> 
<polyline style="fill-rule:evenodd;"
points="7142,9507
7142,10059
7536,10059
7536,9507
7142,9507
" /> 
<polyline style="fill-rule:evenodd;"
points="4740,10433
4740,10826
5528,10826
5528,10433
4740,10433
" /> 
<polyline style="fill-rule:evenodd;"
points="7496,10433
7496,10826
8284,10826
8284,10433
7496,10433
" /> 
<circle cx="7250.71" cy="5314.96" r="590.551" /> 
</g>
<g style="fill:#000000; fill-opacity:1.0; 
stroke:#000000; stroke-width:39.3701; stroke-opacity:1; 
stroke-linecap:round; stroke-linejoin:round;">
</g>
<g style="fill:#000000; fill-opacity:1.0; 
stroke:#000000; stroke-width:0; stroke-opacity:1; 
stroke-linecap:round; stroke-linejoin:round;">
<polyline style="fill-rule:evenodd;"
points="6502,5787
6502,5472
5872,5472
5872,5787
6502,5787
" /> 
<polyline style="fill-rule:evenodd;"
points="6502,5157
6502,4842
5872,4842
5872,5157
6502,5157
" /> 
<polyline style="fill-rule:evenodd;"
points="8628,5787
8628,5472
7998,5472
7998,5787
8628,5787
" /> 
<polyline style="fill-rule:evenodd;"
points="8628,5157
8628,4842
7998,4842
7998,5157
8628,5157
" /> 
<polyline style="fill-rule:evenodd;"
points="8628,5944
8628,5472
8234,5472
8234,5944
8628,5944
" /> 
<polyline style="fill-rule:evenodd;"
points="8628,5157
8628,4685
8234,4685
8234,5157
8628,5157
" /> 
<polyline style="fill-rule:evenodd;"
points="6266,5944
6266,5472
5872,5472
5872,5944
6266,5944
" /> 
<polyline style="fill-rule:evenodd;"
points="6266,5157
6266,4685
5872,4685
5872,5157
6266,5157
" /> 
<polyline style="fill-rule:evenodd;"
points="8254,5944
8471,5787
7998,5787
8215,5944
8254,5944
" /> 
<polyline style="fill-rule:evenodd;"
points="8215,4685
7998,4842
8471,4842
8254,4685
8215,4685
" /> 
<polyline style="fill-rule:evenodd;"
points="6286,5944
6502,5787
6030,5787
6246,5944
6286,5944
" /> 
<polyline style="fill-rule:evenodd;"
points="6246,4685
6030,4842
6502,4842
6286,4685
6246,4685
" /> 
<polyline style="fill-rule:evenodd;"
points="4358,8083
3884,8556
4051,8723
4525,8250
4358,8083
" /> 
<polyline style="fill-rule:evenodd;"
points="4706,8431
4232,8904
4399,9071
4873,8598
4706,8431
" /> 
<polyline style="fill-rule:evenodd;"
points="4010,7735
3536,8208
3703,8375
4177,7902
4010,7735
" /> 
<polyline style="fill-rule:evenodd;"
points="3662,7387
3188,7860
3355,8027
3829,7554
3662,7387
" /> 
<polyline style="fill-rule:evenodd;"
points="4476,9621
3724,10373
4003,10651
4754,9899
4476,9621
" /> 
<polyline style="fill-rule:evenodd;"
points="2360,7505
1609,8257
1887,8535
2639,7784
2360,7505
" /> 
<polyline style="fill-rule:evenodd;"
points="9799,6889
9799,6574
9681,6574
9681,6889
9799,6889
" /> 
<polyline style="fill-rule:evenodd;"
points="9544,6889
9544,6574
9425,6574
9425,6889
9544,6889
" /> 
<polyline style="fill-rule:evenodd;"
points="9288,6889
9288,6574
9170,6574
9170,6889
9288,6889
" /> 
<polyline style="fill-rule:evenodd;"
points="9288,7677
9288,7362
9170,7362
9170,7677
9288,7677
" /> 
<polyline style="fill-rule:evenodd;"
points="9544,7677
9544,7362
9425,7362
9425,7677
9544,7677
" /> 
<polyline style="fill-rule:evenodd;"
points="9799,7677
9799,7362
9681,7362
9681,7677
9799,7677
" /> 
<polyline style="fill-rule:evenodd;"
points="9189,5393
9189,5708
9307,5708
9307,5393
9189,5393
" /> 
<polyline style="fill-rule:evenodd;"
points="9445,5393
9445,5708
9563,5708
9563,5393
9445,5393
" /> 
<polyline style="fill-rule:evenodd;"
points="9701,5393
9701,5708
9819,5708
9819,5393
9701,5393
" /> 
<polyline style="fill-rule:evenodd;"
points="9701,4606
9701,4921
9819,4921
9819,4606
9701,4606
" /> 
<polyline style="fill-rule:evenodd;"
points="9445,4606
9445,4921
9563,4921
9563,4606
9445,4606
" /> 
<polyline style="fill-rule:evenodd;"
points="9189,4606
9189,4921
9307,4921
9307,4606
9189,4606
" /> 
<polyline style="fill-rule:evenodd;"
points="18658,4173
18185,4173
18185,4566
18658,4566
18658,4173
" /> 
<polyline style="fill-rule:evenodd;"
points="18658,4960
18185,4960
18185,5354
18658,5354
18658,4960
" /> 
<polyline style="fill-rule:evenodd;"
points="14760,9734
14760,9242
14051,9242
14051,9734
14760,9734
" /> 
<polyline style="fill-rule:evenodd;"
points="13736,9734
13736,9242
13028,9242
13028,9734
13736,9734
" /> 
<polyline style="fill-rule:evenodd;"
points="14209,8956
14209,8759
13894,8759
13894,8956
14209,8956
" /> 
<polyline style="fill-rule:evenodd;"
points="13736,8956
13736,8759
13421,8759
13421,8956
13736,8956
" /> 
<polyline style="fill-rule:evenodd;"
points="18028,6181
18028,5708
17634,5708
17634,6181
18028,6181
" /> 
<polyline style="fill-rule:evenodd;"
points="17240,6181
17240,5708
16847,5708
16847,6181
17240,6181
" /> 
<polyline style="fill-rule:evenodd;"
points="18914,7480
18717,7480
18717,7795
18914,7795
18914,7480
" /> 
<polyline style="fill-rule:evenodd;"
points="18914,7952
18717,7952
18717,8267
18914,8267
18914,7952
" /> 
<polyline style="fill-rule:evenodd;"
points="4177,6349
3703,5876
3536,6043
4010,6516
4177,6349
" /> 
<polyline style="fill-rule:evenodd;"
points="3829,6697
3355,6224
3188,6391
3662,6864
3829,6697
" /> 
<polyline style="fill-rule:evenodd;"
points="4525,6001
4051,5528
3884,5695
4358,6168
4525,6001
" /> 
<polyline style="fill-rule:evenodd;"
points="4873,5653
4399,5180
4232,5347
4706,5820
4873,5653
" /> 
<polyline style="fill-rule:evenodd;"
points="2639,6467
1887,5716
1609,5994
2360,6746
2639,6467
" /> 
<polyline style="fill-rule:evenodd;"
points="4754,4352
4003,3600
3724,3878
4476,4630
4754,4352
" /> 
<polyline style="fill-rule:evenodd;"
points="9130,3799
9130,3996
9445,3996
9445,3799
9130,3799
" /> 
<polyline style="fill-rule:evenodd;"
points="9603,3799
9603,3996
9918,3996
9918,3799
9603,3799
" /> 
<polyline style="fill-rule:evenodd;"
points="7516,6633
7516,6830
7831,6830
7831,6633
7516,6633
" /> 
<polyline style="fill-rule:evenodd;"
points="7988,6633
7988,6830
8303,6830
8303,6633
7988,6633
" /> 
<polyline style="fill-rule:evenodd;"
points="6177,6633
6177,6830
6492,6830
6492,6633
6177,6633
" /> 
<polyline style="fill-rule:evenodd;"
points="6650,6633
6650,6830
6965,6830
6965,6633
6650,6633
" /> 
<polyline style="fill-rule:evenodd;"
points="17319,4074
17319,4547
17555,4547
17555,4074
17319,4074
" /> 
<polyline style="fill-rule:evenodd;"
points="17693,4074
17693,4547
17929,4547
17929,4074
17693,4074
" /> 
<polyline style="fill-rule:evenodd;"
points="16945,4074
16945,4547
17181,4547
17181,4074
16945,4074
" /> 
<polyline style="fill-rule:evenodd;"
points="16945,4980
16945,5452
17181,5452
17181,4980
16945,4980
" /> 
<polyline style="fill-rule:evenodd;"
points="17693,4980
17693,5452
17929,5452
17929,4980
17693,4980
" /> 
<polyline style="fill-rule:evenodd;"
points="13421,5295
13421,5492
13736,5492
13736,5295
13421,5295
" /> 
<polyline style="fill-rule:evenodd;"
points="13894,5295
13894,5492
14209,5492
14209,5295
13894,5295
" /> 
<polyline style="fill-rule:evenodd;"
points="11630,6692
11433,6692
11433,7007
11630,7007
11630,6692
" /> 
<polyline style="fill-rule:evenodd;"
points="11630,7165
11433,7165
11433,7480
11630,7480
11630,7165
" /> 
<polyline style="fill-rule:evenodd;"
points="14347,6003
14347,6358
14465,6358
14465,6003
14347,6003
" /> 
<polyline style="fill-rule:evenodd;"
points="14150,6003
14150,6476
14268,6476
14268,6003
14150,6003
" /> 
<polyline style="fill-rule:evenodd;"
points="13953,6003
13953,6476
14071,6476
14071,6003
13953,6003
" /> 
<polyline style="fill-rule:evenodd;"
points="13756,6003
13756,6476
13874,6476
13874,6003
13756,6003
" /> 
<polyline style="fill-rule:evenodd;"
points="13559,6003
13559,6476
13677,6476
13677,6003
13559,6003
" /> 
<polyline style="fill-rule:evenodd;"
points="13362,6003
13362,6476
13481,6476
13481,6003
13362,6003
" /> 
<polyline style="fill-rule:evenodd;"
points="13166,6003
13166,6358
13284,6358
13284,6003
13166,6003
" /> 
<polyline style="fill-rule:evenodd;"
points="12693,6594
13047,6594
13047,6476
12693,6476
12693,6594
" /> 
<polyline style="fill-rule:evenodd;"
points="12693,6791
13166,6791
13166,6673
12693,6673
12693,6791
" /> 
<polyline style="fill-rule:evenodd;"
points="12693,6988
13166,6988
13166,6870
12693,6870
12693,6988
" /> 
<polyline style="fill-rule:evenodd;"
points="12693,7185
13166,7185
13166,7066
12693,7066
12693,7185
" /> 
<polyline style="fill-rule:evenodd;"
points="12693,7381
13166,7381
13166,7263
12693,7263
12693,7381
" /> 
<polyline style="fill-rule:evenodd;"
points="12693,7578
13166,7578
13166,7460
12693,7460
12693,7578
" /> 
<polyline style="fill-rule:evenodd;"
points="12693,7775
13047,7775
13047,7657
12693,7657
12693,7775
" /> 
<polyline style="fill-rule:evenodd;"
points="13166,7893
13166,8248
13284,8248
13284,7893
13166,7893
" /> 
<polyline style="fill-rule:evenodd;"
points="13362,7775
13362,8248
13481,8248
13481,7775
13362,7775
" /> 
<polyline style="fill-rule:evenodd;"
points="13559,7775
13559,8248
13677,8248
13677,7775
13559,7775
" /> 
<polyline style="fill-rule:evenodd;"
points="13756,7775
13756,8248
13874,8248
13874,7775
13756,7775
" /> 
<polyline style="fill-rule:evenodd;"
points="13953,7775
13953,8248
14071,8248
14071,7775
13953,7775
" /> 
<polyline style="fill-rule:evenodd;"
points="14150,7775
14150,8248
14268,8248
14268,7775
14150,7775
" /> 
<polyline style="fill-rule:evenodd;"
points="14347,7893
14347,8248
14465,8248
14465,7893
14347,7893
" /> 
<polyline style="fill-rule:evenodd;"
points="14583,7775
14937,7775
14937,7657
14583,7657
14583,7775
" /> 
<polyline style="fill-rule:evenodd;"
points="14465,7578
14937,7578
14937,7460
14465,7460
14465,7578
" /> 
<polyline style="fill-rule:evenodd;"
points="14465,7381
14937,7381
14937,7263
14465,7263
14465,7381
" /> 
<polyline style="fill-rule:evenodd;"
points="14465,7185
14937,7185
14937,7066
14465,7066
14465,7185
" /> 
<polyline style="fill-rule:evenodd;"
points="14465,6988
14937,6988
14937,6870
14465,6870
14465,6988
" /> 
<polyline style="fill-rule:evenodd;"
points="14465,6791
14937,6791
14937,6673
14465,6673
14465,6791
" /> 
<polyline style="fill-rule:evenodd;"
points="14583,6594
14937,6594
14937,6476
14583,6476
14583,6594
" /> 
<polyline style="fill-rule:evenodd;"
points="14347,6181
14347,6496
14465,6377
14465,6299
14347,6181
" /> 
<polyline style="fill-rule:evenodd;"
points="14445,6594
14760,6594
14642,6476
14563,6476
14445,6594
" /> 
<polyline style="fill-rule:evenodd;"
points="13185,7657
12870,7657
12988,7775
13067,7775
13185,7657
" /> 
<polyline style="fill-rule:evenodd;"
points="13284,8070
13284,7755
13166,7874
13166,7952
13284,8070
" /> 
<polyline style="fill-rule:evenodd;"
points="13284,6496
13284,6181
13166,6299
13166,6377
13284,6496
" /> 
<polyline style="fill-rule:evenodd;"
points="12870,6594
13185,6594
13067,6476
12988,6476
12870,6594
" /> 
<polyline style="fill-rule:evenodd;"
points="14347,7755
14347,8070
14465,7952
14465,7874
14347,7755
" /> 
<polyline style="fill-rule:evenodd;"
points="14760,7657
14445,7657
14563,7775
14642,7775
14760,7657
" /> 
<polyline style="fill-rule:evenodd;"
points="11945,4803
11630,4803
11630,4921
11945,4921
11945,4803
" /> 
<polyline style="fill-rule:evenodd;"
points="11945,5000
11630,5000
11630,5118
11945,5118
11945,5000
" /> 
<polyline style="fill-rule:evenodd;"
points="11945,5196
11630,5196
11630,5314
11945,5314
11945,5196
" /> 
<polyline style="fill-rule:evenodd;"
points="11945,5393
11630,5393
11630,5511
11945,5511
11945,5393
" /> 
<polyline style="fill-rule:evenodd;"
points="11433,5393
11118,5393
11118,5511
11433,5511
11433,5393
" /> 
<polyline style="fill-rule:evenodd;"
points="11433,5196
11118,5196
11118,5314
11433,5314
11433,5196
" /> 
<polyline style="fill-rule:evenodd;"
points="11433,5000
11118,5000
11118,5118
11433,5118
11433,5000
" /> 
<polyline style="fill-rule:evenodd;"
points="11433,4803
11118,4803
11118,4921
11433,4921
11433,4803
" /> 
<polyline style="fill-rule:evenodd;"
points="20016,7244
20685,7244
20685,7007
20016,7007
20016,7244
" /> 
<polyline style="fill-rule:evenodd;"
points="20016,6751
20685,6751
20685,6515
20016,6515
20016,6751
" /> 
<polyline style="fill-rule:evenodd;"
points="20016,7736
20685,7736
20685,7500
20016,7500
20016,7736
" /> 
<polyline style="fill-rule:evenodd;"
points="20016,8228
20685,8228
20685,7992
20016,7992
20016,8228
" /> 
<polyline style="fill-rule:evenodd;"
points="21020,5551
22083,5551
22083,5157
21020,5157
21020,5551
" /> 
<polyline style="fill-rule:evenodd;"
points="21020,9094
22083,9094
22083,8700
21020,8700
21020,9094
" /> 
<polyline style="fill-rule:evenodd;"
points="20016,6023
20016,6259
20685,6259
20685,6023
20016,6023
" /> 
<circle cx="8421.97" cy="3897.64" r="118.11" /> 
</g>
<g style="fill:#000000; fill-opacity:1.0; 
stroke:#000000; stroke-width:39.3701; stroke-opacity:1; 
stroke-linecap:round; stroke-linejoin:round;">
</g>
<g style="fill:#000000; fill-opacity:1.0; 
stroke:#000000; stroke-width:0; stroke-opacity:1; 
stroke-linecap:round; stroke-linejoin:round;">
<circle cx="16256.6" cy="3897.64" r="118.11" /> 
</g>
<g style="fill:#000000; fill-opacity:1.0; 
stroke:#000000; stroke-width:39.3701; stroke-opacity:1; 
stroke-linecap:round; stroke-linejoin:round;">
</g>
<g style="fill:#000000; fill-opacity:1.0; 
stroke:#000000; stroke-width:0; stroke-opacity:1; 
stroke-linecap:round; stroke-linejoin:round;">
<circle cx="2870.79" cy="6458.91" r="118.11" /> 
</g>
<g style="fill:#000000; fill-opacity:1.0; 
stroke:#000000; stroke-width:39.3701; stroke-opacity:1; 
stroke-linecap:round; stroke-linejoin:round;">
</g>
<g style="fill:#000000; fill-opacity:1.0; 
stroke:#000000; stroke-width:0; stroke-opacity:1; 
stroke-linecap:round; stroke-linejoin:round;">
<circle cx="2870.79" cy="7913.39" r="118.11" /> 
</g>
<g style="fill:#000000; fill-opacity:1.0; 
stroke:#000000; stroke-width:39.3701; stroke-opacity:1; 
stroke-linecap:round; stroke-linejoin:round;">
</g>
<g style="fill:#000000; fill-opacity:1.0; 
stroke:#000000; stroke-width:0; stroke-opacity:1; 
stroke-linecap:round; stroke-linejoin:round;">
<circle cx="3185.75" cy="7362.21" r="118.11" /> 
</g>
<g style="fill:#000000; fill-opacity:1.0; 
stroke:#000000; stroke-width:39.3701; stroke-opacity:1; 
stroke-linecap:round; stroke-linejoin:round;">
</g>
<g style="fill:#000000; fill-opacity:1.0; 
stroke:#000000; stroke-width:0; stroke-opacity:1; 
stroke-linecap:round; stroke-linejoin:round;">
<circle cx="14445.6" cy="8858.27" r="118.11" /> 
</g>
<g style="fill:#000000; fill-opacity:1.0; 
stroke:#000000; stroke-width:39.3701; stroke-opacity:1; 
stroke-linecap:round; stroke-linejoin:round;">
</g>
<g style="fill:#000000; fill-opacity:1.0; 
stroke:#000000; stroke-width:0; stroke-opacity:1; 
stroke-linecap:round; stroke-linejoin:round;">
<circle cx="17516.5" cy="5551.18" r="118.11" /> 
</g>
<g style="fill:#000000; fill-opacity:1.0; 
stroke:#000000; stroke-width:39.3701; stroke-opacity:1; 
stroke-linecap:round; stroke-linejoin:round;">
</g>
<g style="fill:#000000; fill-opacity:1.0; 
stroke:#000000; stroke-width:0; stroke-opacity:1; 
stroke-linecap:round; stroke-linejoin:round;">
<circle cx="17831.4" cy="8385.83" r="118.11" /> 
</g>
<g style="fill:#000000; fill-opacity:1.0; 
stroke:#000000; stroke-width:39.3701; stroke-opacity:1; 
stroke-linecap:round; stroke-linejoin:round;">
</g>
<g style="fill:#000000; fill-opacity:1.0; 
stroke:#000000; stroke-width:0; stroke-opacity:1; 
stroke-linecap:round; stroke-linejoin:round;">
<circle cx="15548" cy="8307.09" r="118.11" /> 
</g>
<g style="fill:#000000; fill-opacity:1.0; 
stroke:#000000; stroke-width:39.3701; stroke-opacity:1; 
stroke-linecap:round; stroke-linejoin:round;">
</g>
<g style="fill:#000000; fill-opacity:1.0; 
stroke:#000000; stroke-width:0; stroke-opacity:1; 
stroke-linecap:round; stroke-linejoin:round;">
<circle cx="14209.4" cy="6968.5" r="118.11" /> 
</g>
<g style="fill:#000000; fill-opacity:1.0; 
stroke:#000000; stroke-width:39.3701; stroke-opacity:1; 
stroke-linecap:round; stroke-linejoin:round;">
</g>
<g style="fill:#000000; fill-opacity:1.0; 
stroke:#000000; stroke-width:0; stroke-opacity:1; 
stroke-linecap:round; stroke-linejoin:round;">
<circle cx="10902.3" cy="5059.06" r="118.11" /> 
</g>
<g style="fill:#000000; fill-opacity:1.0; 
stroke:#000000; stroke-width:39.3701; stroke-opacity:1; 
stroke-linecap:round; stroke-linejoin:round;">
</g>
<g style="fill:#000000; fill-opacity:1.0; 
stroke:#000000; stroke-width:0; stroke-opacity:1; 
stroke-linecap:round; stroke-linejoin:round;">
<circle cx="9996.77" cy="5275.59" r="118.11" /> 
</g>
<g style="fill:#000000; fill-opacity:1.0; 
stroke:#000000; stroke-width:39.3701; stroke-opacity:1; 
stroke-linecap:round; stroke-linejoin:round;">
</g>
<g style="fill:#000000; fill-opacity:1.0; 
stroke:#000000; stroke-width:0; stroke-opacity:1; 
stroke-linecap:round; stroke-linejoin:round;">
<circle cx="9996.77" cy="5826.77" r="118.11" /> 
</g>
<g style="fill:#000000; fill-opacity:1.0; 
stroke:#000000; stroke-width:39.3701; stroke-opacity:1; 
stroke-linecap:round; stroke-linejoin:round;">
</g>
<g style="fill:#000000; fill-opacity:1.0; 
stroke:#000000; stroke-width:0; stroke-opacity:1; 
stroke-linecap:round; stroke-linejoin:round;">
<circle cx="8500.71" cy="6732.28" r="118.11" /> 
</g>
<g style="fill:#000000; fill-opacity:1.0; 
stroke:#000000; stroke-width:39.3701; stroke-opacity:1; 
stroke-linecap:round; stroke-linejoin:round;">
</g>
<g style="fill:#000000; fill-opacity:1.0; 
stroke:#000000; stroke-width:0; stroke-opacity:1; 
stroke-linecap:round; stroke-linejoin:round;">
<circle cx="10902.3" cy="4370.08" r="118.11" /> 
</g>
<g style="fill:#000000; fill-opacity:1.0; 
stroke:#000000; stroke-width:39.3701; stroke-opacity:1; 
stroke-linecap:round; stroke-linejoin:round;">
</g>
<g style="fill:#000000; fill-opacity:1.0; 
stroke:#000000; stroke-width:0; stroke-opacity:1; 
stroke-linecap:round; stroke-linejoin:round;">
<circle cx="9642.44" cy="4370.08" r="118.11" /> 
</g>
<g style="fill:#000000; fill-opacity:1.0; 
stroke:#000000; stroke-width:39.3701; stroke-opacity:1; 
stroke-linecap:round; stroke-linejoin:round;">
</g>
<g style="fill:#000000; fill-opacity:1.0; 
stroke:#000000; stroke-width:0; stroke-opacity:1; 
stroke-linecap:round; stroke-linejoin:round;">
<circle cx="10902.3" cy="5669.29" r="118.11" /> 
</g>
<g style="fill:#000000; fill-opacity:1.0; 
stroke:#000000; stroke-width:39.3701; stroke-opacity:1; 
stroke-linecap:round; stroke-linejoin:round;">
</g>
<g style="fill:#000000; fill-opacity:1.0; 
stroke:#000000; stroke-width:0; stroke-opacity:1; 
stroke-linecap:round; stroke-linejoin:round;">
<circle cx="9484.96" cy="6417.32" r="118.11" /> 
</g>
<g style="fill:#000000; fill-opacity:1.0; 
stroke:#000000; stroke-width:39.3701; stroke-opacity:1; 
stroke-linecap:round; stroke-linejoin:round;">
</g>
<g style="fill:#000000; fill-opacity:1.0; 
stroke:#000000; stroke-width:0; stroke-opacity:1; 
stroke-linecap:round; stroke-linejoin:round;">
<circle cx="6886.54" cy="10118.1" r="118.11" /> 
</g>
<g style="fill:#000000; fill-opacity:1.0; 
stroke:#000000; stroke-width:39.3701; stroke-opacity:1; 
stroke-linecap:round; stroke-linejoin:round;">
</g>
<g style="fill:#000000; fill-opacity:1.0; 
stroke:#000000; stroke-width:0; stroke-opacity:1; 
stroke-linecap:round; stroke-linejoin:round;">
<circle cx="14799.9" cy="8858.27" r="118.11" /> 
</g>
<g style="fill:#000000; fill-opacity:1.0; 
stroke:#000000; stroke-width:39.3701; stroke-opacity:1; 
stroke-linecap:round; stroke-linejoin:round;">
</g>
<g style="fill:#000000; fill-opacity:1.0; 
stroke:#000000; stroke-width:0; stroke-opacity:1; 
stroke-linecap:round; stroke-linejoin:round;">
<circle cx="11532.2" cy="6141.73" r="118.11" /> 
</g>
<g style="fill:#000000; fill-opacity:1.0; 
stroke:#000000; stroke-width:39.3701; stroke-opacity:1; 
stroke-linecap:round; stroke-linejoin:round;">
</g>
<g style="fill:#000000; fill-opacity:1.0; 
stroke:#000000; stroke-width:0; stroke-opacity:1; 
stroke-linecap:round; stroke-linejoin:round;">
<circle cx="7201.5" cy="7440.95" r="118.11" /> 
</g>
<g style="fill:#000000; fill-opacity:1.0; 
stroke:#000000; stroke-width:39.3701; stroke-opacity:1; 
stroke-linecap:round; stroke-linejoin:round;">
</g>
<g style="fill:#000000; fill-opacity:1.0; 
stroke:#000000; stroke-width:0; stroke-opacity:1; 
stroke-linecap:round; stroke-linejoin:round;">
<circle cx="4209.37" cy="6574.8" r="118.11" /> 
</g>
<g style="fill:#000000; fill-opacity:1.0; 
stroke:#000000; stroke-width:39.3701; stroke-opacity:1; 
stroke-linecap:round; stroke-linejoin:round;">
</g>
<g style="fill:#000000; fill-opacity:1.0; 
stroke:#000000; stroke-width:0; stroke-opacity:1; 
stroke-linecap:round; stroke-linejoin:round;">
<circle cx="7437.72" cy="8622.05" r="118.11" /> 
</g>
<g style="fill:#000000; fill-opacity:1.0; 
stroke:#000000; stroke-width:39.3701; stroke-opacity:1; 
stroke-linecap:round; stroke-linejoin:round;">
</g>
<g style="fill:#000000; fill-opacity:1.0; 
stroke:#000000; stroke-width:0; stroke-opacity:1; 
stroke-linecap:round; stroke-linejoin:round;">
<circle cx="5626.69" cy="8622.05" r="118.11" /> 
</g>
<g style="fill:#000000; fill-opacity:1.0; 
stroke:#000000; stroke-width:39.3701; stroke-opacity:1; 
stroke-linecap:round; stroke-linejoin:round;">
</g>
<g style="fill:#000000; fill-opacity:1.0; 
stroke:#000000; stroke-width:0; stroke-opacity:1; 
stroke-linecap:round; stroke-linejoin:round;">
<circle cx="5311.73" cy="8937.01" r="118.11" /> 
</g>
<g style="fill:#000000; fill-opacity:1.0; 
stroke:#000000; stroke-width:39.3701; stroke-opacity:1; 
stroke-linecap:round; stroke-linejoin:round;">
</g>
<g style="fill:#000000; fill-opacity:1.0; 
stroke:#000000; stroke-width:0; stroke-opacity:1; 
stroke-linecap:round; stroke-linejoin:round;">
<circle cx="7910.16" cy="8937.01" r="118.11" /> 
</g>
<g style="fill:#000000; fill-opacity:1.0; 
stroke:#000000; stroke-width:39.3701; stroke-opacity:1; 
stroke-linecap:round; stroke-linejoin:round;">
</g>
<g style="fill:#000000; fill-opacity:1.0; 
stroke:#000000; stroke-width:0; stroke-opacity:1; 
stroke-linecap:round; stroke-linejoin:round;">
<circle cx="7910.16" cy="9251.97" r="118.11" /> 
</g>
<g style="fill:#000000; fill-opacity:1.0; 
stroke:#000000; stroke-width:39.3701; stroke-opacity:1; 
stroke-linecap:round; stroke-linejoin:round;">
</g>
<g style="fill:#000000; fill-opacity:1.0; 
stroke:#000000; stroke-width:0; stroke-opacity:1; 
stroke-linecap:round; stroke-linejoin:round;">
<circle cx="5311.73" cy="9251.97" r="118.11" /> 
</g>
<g style="fill:#000000; fill-opacity:1.0; 
stroke:#000000; stroke-width:39.3701; stroke-opacity:1; 
stroke-linecap:round; stroke-linejoin:round;">
</g>
<g style="fill:#000000; fill-opacity:1.0; 
stroke:#000000; stroke-width:196.85; stroke-opacity:1; 
stroke-linecap:round; stroke-linejoin:round;">
</g>
<g style="fill:#000000; fill-opacity:0.0; 
stroke:#000000; stroke-width:196.85; stroke-opacity:1; 
stroke-linecap:round; stroke-linejoin:round;">
<path d="M20351 6141
L20351 5826
" />
<path d="M20351 5826
L18894 4370
" />
<path d="M18894 4370
L18855 4370
" />
<path d="M18855 4370
L18421 4370
" />
<path d="M8421 3897
L8254 3897
" />
<path d="M8254 3897
L6660 3897
" />
<path d="M6660 3897
L6069 4488
" />
<path d="M6069 4488
L6069 4921
" />
<path d="M17177 3897
L16256 3897
" />
<path d="M4408 4921
L4172 5157
" />
<path d="M4172 5157
L3940 5389
" />
<path d="M2870 6458
L4172 5157
" />
<path d="M3397 8319
L3277 8319
" />
<path d="M3277 8319
L2870 7913
" />
<path d="M3397 8319
L3592 8319
" />
<path d="M3592 8319
L3857 8055
" />
<path d="M6069 4921
L4408 4921
" />
<path d="M3940 5389
L3940 5584
" />
<path d="M3940 5584
L4205 5848
" />
<path d="M17811 4311
L17811 4011
" />
<path d="M17811 4011
L17697 3897
" />
<path d="M17697 3897
L17177 3897
" />
<path d="M17063 4011
L17063 4311
" />
<path d="M17177 3897
L17063 4011
" />
<path d="M18421 4370
L17870 4370
" />
<path d="M17870 4370
L17811 4311
" />
<path d="M3509 7707
L3509 7685
" />
<path d="M3509 7685
L3185 7362
" />
</g>
<g style="fill:#000000; fill-opacity:0.0; 
stroke:#000000; stroke-width:78.7402; stroke-opacity:1; 
stroke-linecap:round; stroke-linejoin:round;">
<path d="M13579 8779
L13579 8602
" />
<path d="M13579 8602
L13421 8444
" />
<path d="M13421 8444
L13421 8326
" />
<path d="M13421 8326
L13421 8011
" />
<path d="M20114 8070
L20154 8110
" />
<path d="M14445 8858
L14051 8858
" />
</g>
<g style="fill:#000000; fill-opacity:0.0; 
stroke:#000000; stroke-width:196.85; stroke-opacity:1; 
stroke-linecap:round; stroke-linejoin:round;">
<path d="M17831 5944
L17831 5551
" />
<path d="M17831 5551
L17831 5236
" />
</g>
<g style="fill:#000000; fill-opacity:0.0; 
stroke:#000000; stroke-width:78.7402; stroke-opacity:1; 
stroke-linecap:round; stroke-linejoin:round;">
<path d="M17516 5551
L17831 5551
" />
</g>
<g style="fill:#000000; fill-opacity:0.0; 
stroke:#000000; stroke-width:196.85; stroke-opacity:1; 
stroke-linecap:round; stroke-linejoin:round;">
<path d="M17831 5236
L17811 5216
" />
</g>
<g style="fill:#000000; fill-opacity:0.0; 
stroke:#000000; stroke-width:78.7402; stroke-opacity:1; 
stroke-linecap:round; stroke-linejoin:round;">
<path d="M14406 9488
L16729 9488
" />
<path d="M16729 9488
L17831 8385
" />
<path d="M14051 8779
L14051 9133
" />
<path d="M14051 9133
L14406 9488
" />
<path d="M14051 8779
L13618 8346
" />
<path d="M13618 8346
L13618 8011
" />
<path d="M13618 8011
L13618 7696
" />
<path d="M13618 7696
L13618 6240
" />
<path d="M15547 8307
L17437 8307
" />
<path d="M17437 8307
L18107 7637
" />
<path d="M18107 7637
L18815 7637
" />
<path d="M18815 7637
L19051 7637
" />
<path d="M20134 7618
L20351 7618
" />
<path d="M19051 7637
L19248 7834
" />
<path d="M19248 7834
L19918 7834
" />
<path d="M19918 7834
L20134 7618
" />
<path d="M14209 6968
L13815 6574
" />
<path d="M13815 6574
L13815 6240
" />
<path d="M14209 6929
L14209 6968
" />
<path d="M6335 6732
L6335 5777
" />
<path d="M6335 5777
L6187 5629
" />
<path d="M7673 6732
L7673 6190
" />
<path d="M8156 5708
L8431 5708
" />
<path d="M7673 6190
L8156 5708
" />
<path d="M9288 3897
L9051 3897
" />
<path d="M8431 4606
L8431 4921
" />
<path d="M9051 3897
L8431 4517
" />
<path d="M8431 4517
L8431 4606
" />
<path d="M8520 4921
L8431 4921
" />
<path d="M8599 4921
L8431 4921
" />
<path d="M10902 5059
L11276 5059
" />
<path d="M9544 5275
L9996 5275
" />
<path d="M9996 5275
L9996 5275
" />
<path d="M9544 5275
L9504 5314
" />
<path d="M9504 5314
L9504 5551
" />
<path d="M9996 5826
L9996 5787
" />
<path d="M9996 5787
L9760 5551
" />
<path d="M8146 6732
L8500 6732
" />
<path d="M11276 4862
L11276 4744
" />
<path d="M11276 4744
L10902 4370
" />
<path d="M9504 4763
L9504 4507
" />
<path d="M9504 4507
L9642 4370
" />
<path d="M9248 4763
L9248 4409
" />
<path d="M9248 4409
L9760 3897
" />
<path d="M10902 5669
L10902 5393
" />
<path d="M10902 5393
L11040 5255
" />
<path d="M11040 5255
L11276 5255
" />
<path d="M9484 6732
L9484 6417
" />
<path d="M7555 7244
L9701 7244
" />
<path d="M9701 7244
L9740 7283
" />
<path d="M9740 7283
L9740 7519
" />
<path d="M6807 6732
L7044 6732
" />
<path d="M7044 6732
L7555 7244
" />
<path d="M13225 6181
L13225 6062
" />
<path d="M13225 6062
L12221 5059
" />
<path d="M12221 5059
L12024 5059
" />
<path d="M12024 5059
L11788 5059
" />
<path d="M12870 6535
L12870 6102
" />
<path d="M12870 6102
L12024 5255
" />
<path d="M12024 5255
L11788 5255
" />
<path d="M13421 6240
L13421 5925
" />
<path d="M13421 5925
L12358 4862
" />
<path d="M12358 4862
L12024 4862
" />
<path d="M12024 4862
L11788 4862
" />
<path d="M6886 10118
L7004 10118
" />
<path d="M7004 10118
L7339 9783
" />
<path d="M14603 8385
L14799 8582
" />
<path d="M14799 8582
L14799 8858
" />
<path d="M14268 8385
L14603 8385
" />
<path d="M14209 8326
L14268 8385
" />
<path d="M14209 8011
L14209 8326
" />
<path d="M14051 5393
L14051 5570
" />
<path d="M14051 5570
L14406 5925
" />
<path d="M14406 5925
L14406 6181
" />
<path d="M11532 6850
L11709 6850
" />
<path d="M11709 6850
L11827 6732
" />
<path d="M11827 6732
L12614 6732
" />
<path d="M12614 6732
L12929 6732
" />
<path d="M11532 6141
L11532 6850
" />
<path d="M7201 7440
L8084 8324
" />
<path d="M8084 8324
L11181 8324
" />
<path d="M11181 8324
L12577 6929
" />
<path d="M12577 6929
L12614 6929
" />
<path d="M12614 6929
L12929 6929
" />
<path d="M3857 6196
L3857 6222
" />
<path d="M3857 6222
L4209 6574
" />
<path d="M7437 8622
L11106 8622
" />
<path d="M12602 7125
L12614 7125
" />
<path d="M11106 8622
L12602 7125
" />
<path d="M12614 7125
L12929 7125
" />
<path d="M5626 8622
L3549 6544
" />
<path d="M3549 6544
L3509 6544
" />
<path d="M4469 8139
L4680 8139
" />
<path d="M4680 8139
L5311 8769
" />
<path d="M5311 8769
L5311 8937
" />
<path d="M7910 8937
L11014 8937
" />
<path d="M11014 8937
L12628 7322
" />
<path d="M12628 7322
L12929 7322
" />
<path d="M4205 8403
L4469 8139
" />
<path d="M7910 9251
L10922 9251
" />
<path d="M10922 9251
L12654 7519
" />
<path d="M12654 7519
L12929 7519
" />
<path d="M4553 8751
L5053 9251
" />
<path d="M5053 9251
L5311 9251
" />
<path d="M16138 7362
L15587 7913
" />
<path d="M15587 7913
L14406 7913
" />
<path d="M19898 7362
L16138 7362
" />
<path d="M20351 7125
L20134 7125
" />
<path d="M20134 7125
L19898 7362
" />
<path d="M16414 6811
L15508 7716
" />
<path d="M15508 7716
L14603 7716
" />
<path d="M19760 6811
L16414 6811
" />
<path d="M20351 6633
L19937 6633
" />
<path d="M19937 6633
L19760 6811
" />
</g>
<g style="fill:#000000; fill-opacity:1.0; 
stroke:#000000; stroke-width:118.11; stroke-opacity:1; 
stroke-linecap:round; stroke-linejoin:round;">
<polyline style="fill-rule:evenodd;"
points="4178,3580
4438,3840
4438,3889
4239,4087
4234,4082
4206,4109
4211,4115
4013,4313
3964,4313
3704,4053
2062,5696
2322,5956
2322,6005
2124,6203
2118,6197
2090,6225
2096,6231
1897,6429
1849,6429
1650,6230
1650,8021
1849,7822
1897,7822
2096,8020
2090,8026
2118,8054
2124,8048
2322,8246
2322,8295
2062,8555
3704,10198
3964,9938
4013,9938
4211,10136
4206,10142
4234,10169
4239,10164
4438,10362
4438,10411
4178,10671
4215,10708
4603,10708
4603,10684
4637,10649
5114,10649
5114,10657
5154,10657
5154,10649
5631,10649
5666,10684
5666,10708
7358,10708
7358,10684
7393,10649
7870,10649
7870,10657
7910,10657
7910,10649
8387,10649
8421,10684
8421,10708
19004,10708
19708,10639
20377,10437
20411,10419
8421,10419
8421,10575
8387,10610
7910,10610
7910,10329
7870,10329
7870,10610
7393,10610
7358,10575
7358,10419
5666,10419
5666,10575
5631,10610
5154,10610
5154,10329
5114,10329
5114,10610
4637,10610
4603,10575
4603,10419
4608,10392
4618,10367
4633,10345
4653,10326
4675,10310
4700,10300
4727,10295
5080,10295
5114,10329
5154,10329
5188,10295
5541,10295
5568,10300
5593,10310
5616,10326
5635,10345
5650,10367
5660,10392
5666,10419
7358,10419
7364,10392
7374,10367
7389,10345
7408,10326
7431,10310
7456,10300
7483,10295
7836,10295
7870,10329
7910,10329
7944,10295
8297,10295
8324,10300
8349,10310
8372,10326
8391,10345
8406,10367
8416,10392
8421,10419
20411,10419
20994,10109
21536,9667
21896,9232
21606,9232
21571,9197
21571,8917
21532,8917
21532,9197
21497,9232
21006,9232
20980,9226
20955,9216
20932,9201
20913,9182
20898,9159
20887,9134
20882,9108
20882,8951
20917,8917
21532,8917
21571,8917
21579,8917
21579,8877
21571,8877
21571,8597
21532,8597
21532,8877
20917,8877
20882,8843
20882,8687
20887,8660
20898,8635
20913,8612
20932,8593
20955,8578
20980,8568
21006,8562
21497,8562
21532,8597
21571,8597
21606,8562
22096,8562
22123,8568
22148,8578
22171,8593
22190,8612
22205,8635
22215,8660
22221,8686
22314,8514
22422,8164
20823,8164
20823,8241
20818,8268
20807,8293
20792,8316
20773,8335
20751,8350
20725,8360
20699,8366
20405,8366
20370,8331
20370,8129
20331,8129
20331,8331
20296,8366
20002,8366
19976,8360
19951,8350
19928,8335
19909,8316
19894,8293
19883,8268
19878,8241
19878,8164
19051,8164
19051,8281
19046,8307
19036,8332
19021,8355
19001,8374
18979,8389
18954,8400
18927,8405
18869,8405
18835,8371
18835,8129
18795,8129
18795,8371
18761,8405
18703,8405
18677,8400
18651,8389
18629,8374
18610,8355
18595,8332
18584,8307
18579,8281
18579,8164
18613,8129
18795,8129
18835,8129
19017,8129
19051,8164
19878,8164
19913,8129
20331,8129
20370,8129
20789,8129
20823,8164
22422,8164
22521,7846
22594,7150
22530,6454
22404,6023
20824,6023
20824,6259
20822,6281
20810,6319
20789,6351
20759,6376
20735,6387
20744,6390
20777,6412
20802,6441
20818,6477
20824,6515
20824,6751
20822,6773
20810,6811
20789,6843
20759,6868
20735,6879
20744,6882
20777,6904
20802,6933
20818,6969
20824,7007
20824,7244
20822,7266
20810,7303
20789,7335
20759,7361
20735,7371
20744,7374
20777,7396
20802,7425
20818,7461
20824,7500
20824,7736
20822,7758
20810,7795
20789,7827
20759,7853
20736,7863
20751,7870
20773,7885
20792,7904
20807,7926
20818,7951
20823,7978
20823,8056
20789,8090
20370,8090
20370,8082
20331,8082
20331,8090
19913,8090
19878,8056
19878,8011
19248,8011
19232,8010
19216,8008
19215,8008
19214,8008
19198,8003
19182,7999
19182,7998
19181,7998
19166,7990
19152,7983
19151,7982
19150,7982
19138,7971
19125,7961
19123,7960
19123,7960
19123,7960
19123,7959
19030,7867
19026,7873
19036,7887
19046,7912
19051,7939
19051,8056
19017,8090
18835,8090
18835,8082
18795,8082
18795,8090
18613,8090
18579,8056
18579,7939
18584,7912
18595,7887
18604,7873
18600,7869
18584,7833
18581,7814
18180,7814
17863,8131
17904,8139
17950,8157
17992,8185
18028,8220
18056,8261
18076,8308
18086,8357
18087,8407
18078,8456
18060,8503
18032,8545
17998,8581
17956,8610
17910,8630
17861,8641
17825,8641
16854,9613
16841,9623
16829,9634
16828,9634
16827,9635
16813,9643
16798,9651
16797,9651
16797,9651
16781,9656
16765,9661
16764,9661
16764,9661
16747,9663
16731,9665
16729,9665
16729,9665
16729,9665
16729,9665
14899,9665
14899,9734
14897,9756
14885,9793
14864,9825
14834,9851
14799,9867
14760,9872
14051,9872
14029,9870
13992,9859
13960,9838
13934,9808
13918,9772
13913,9734
13913,9542
13874,9542
13874,9747
13869,9774
13859,9799
13843,9822
13824,9841
13802,9856
13777,9866
13750,9872
13436,9872
13402,9837
13402,9507
13362,9507
13362,9837
13328,9872
13014,9872
12988,9866
12962,9856
12940,9841
12921,9822
12906,9799
12895,9774
12890,9747
12890,9542
12924,9507
13362,9507
13402,9507
13840,9507
13874,9542
13913,9542
13913,9243
13905,9233
13905,9233
13904,9232
13902,9228
13874,9228
13874,9434
13840,9468
13402,9468
13402,9138
13362,9138
13362,9468
12924,9468
12890,9434
12890,9228
12895,9201
12906,9176
12921,9154
12940,9135
12962,9120
12988,9109
13014,9104
13328,9104
13362,9138
13402,9138
13436,9104
13750,9104
13777,9109
13802,9120
13824,9135
13843,9154
13859,9176
13869,9201
13874,9228
13902,9228
13896,9217
13889,9203
13888,9202
13888,9201
13883,9186
13878,9170
13878,9169
13878,9168
13876,9152
13874,9136
13874,9134
13874,9134
13874,9134
13874,9133
13874,9093
13872,9093
13835,9081
13816,9069
13802,9078
13777,9089
13750,9094
13633,9094
13599,9060
13599,8877
13559,8877
13559,9060
13525,9094
13408,9094
13381,9089
13356,9078
13334,9063
13314,9044
13299,9021
13289,8996
13284,8970
13284,8912
13318,8877
13559,8877
13599,8877
13607,8877
13607,8838
13599,8838
13599,8656
13559,8656
13559,8838
13318,8838
13284,8804
13284,8746
13289,8719
13299,8694
13314,8672
13334,8652
13356,8637
13381,8627
13408,8622
13525,8622
13559,8656
13599,8656
13633,8622
13643,8622
13493,8471
13483,8459
13472,8446
13472,8445
13471,8445
13463,8430
13455,8416
13455,8415
13455,8414
13450,8398
13445,8383
13445,8382
13445,8381
13443,8365
13441,8351
13441,8351
13441,8319
13426,8286
13422,8254
13420,8269
13409,8307
13402,8317
13402,8351
13367,8385
13349,8385
13323,8380
13322,8381
13284,8386
13166,8386
13144,8384
13106,8373
13074,8351
13049,8322
13033,8286
13027,8248
13027,7914
12693,7914
12671,7912
12634,7900
12601,7879
12576,7849
12576,7848
11047,9377
11035,9387
11022,9398
11021,9398
11020,9399
11006,9406
10992,9414
10991,9415
10990,9415
10974,9420
10959,9425
10958,9425
10957,9425
10941,9427
10924,9429
10923,9429
10923,9429
10923,9429
10922,9429
8094,9429
8076,9447
8035,9476
7989,9496
7940,9507
7890,9508
7887,9507
7674,9507
7674,10059
7672,10080
7661,10118
7639,10150
7610,10176
7574,10192
7536,10197
7175,10197
7129,10243
7117,10253
7104,10264
7103,10264
7103,10265
7092,10271
7088,10277
7053,10313
7011,10342
6965,10362
6916,10373
6866,10374
6817,10365
6770,10347
6728,10320
6691,10286
6662,10245
6642,10199
6631,10150
6630,10093
6640,10043
6659,9997
6687,9955
6722,9919
6764,9891
6810,9872
6859,9862
6909,9862
6959,9871
6988,9883
7003,9868
7003,9837
6020,9837
6020,10072
6015,10099
6004,10124
5989,10146
5970,10166
5947,10181
5922,10191
5896,10196
5739,10196
5705,10162
5705,9803
5666,9803
5666,10162
5631,10196
5475,10196
5448,10191
5423,10181
5401,10166
5381,10146
5366,10124
5356,10099
5351,10072
5351,9886
4892,9886
4892,9913
4887,9940
4876,9965
4861,9987
4842,10006
4514,10334
4466,10334
4267,10136
4702,9701
4751,9701
4861,9811
4876,9834
4887,9859
4892,9886
5351,9886
5351,9837
5385,9803
5666,9803
5705,9803
5985,9803
6020,9837
7003,9837
7003,9507
7005,9494
6020,9494
6020,9729
5985,9763
5705,9763
5705,9404
5739,9370
5896,9370
5922,9375
5947,9385
5970,9400
5989,9420
6004,9442
6015,9467
6020,9494
7005,9494
7005,9485
7017,9448
7038,9416
7068,9390
7103,9374
7142,9369
7536,9369
7558,9371
7595,9382
7627,9404
7653,9433
7669,9469
7674,9507
7887,9507
7841,9499
7794,9481
7751,9454
7715,9419
7686,9378
7666,9333
7655,9284
7654,9226
7663,9177
7683,9131
7707,9094
7686,9064
7666,9018
7655,8969
7654,8911
7663,8862
7683,8816
7694,8799
7622,8799
7604,8817
7563,8846
7517,8866
7468,8877
7417,8878
7368,8869
7321,8851
7279,8824
7243,8790
7214,8749
7193,8703
7182,8654
7181,8596
7191,8547
7210,8501
7238,8459
7273,8423
7315,8395
7361,8376
7410,8366
7461,8365
7510,8375
7556,8394
7598,8421
7622,8444
7954,8444
7206,7696
7181,7697
7132,7688
7085,7670
7043,7643
7006,7608
6977,7567
6957,7522
6946,7473
6945,7415
6955,7366
6974,7320
7002,7278
7037,7242
7079,7214
7125,7195
7174,7185
7224,7184
7251,7189
7018,6957
7003,6963
6965,6969
6650,6969
6628,6967
6591,6955
6572,6943
6566,6947
6531,6963
6492,6969
6177,6969
6155,6967
6118,6955
6086,6934
6060,6904
6044,6869
6039,6830
6039,6633
6041,6611
6052,6574
6074,6542
6103,6516
6139,6500
6158,6498
6158,6083
5872,6083
5850,6081
5813,6070
5781,6048
5755,6018
5739,5983
5734,5944
5734,5640
5010,5640
5010,5667
5005,5693
4995,5718
4980,5741
4925,5796
4876,5796
4580,5500
4723,5357
4772,5357
4980,5565
4995,5588
5005,5613
5010,5640
5734,5640
5734,5472
5736,5450
5747,5413
5769,5380
5798,5355
5834,5339
5872,5333
6502,5333
6523,5335
6523,5293
6502,5295
5872,5295
5850,5294
5813,5282
5781,5261
5755,5231
5739,5196
5734,5157
4571,5157
4695,5281
4695,5329
4553,5472
4547,5467
4519,5494
4525,5500
4519,5506
4547,5533
4553,5528
4848,5824
4848,5872
4793,5927
4771,5942
4746,5953
4719,5958
4692,5958
4665,5953
4651,5947
4655,5954
4663,5993
4660,6031
4646,6068
4623,6099
4456,6266
4439,6280
4404,6298
4366,6306
4327,6303
4303,6294
4307,6302
4315,6341
4315,6341
4328,6346
4370,6374
4406,6409
4434,6450
4454,6497
4464,6546
4465,6596
4456,6645
4438,6692
4410,6734
4376,6770
4334,6799
4288,6819
4239,6830
4189,6831
4140,6822
4093,6804
4051,6777
4014,6742
3985,6701
3965,6655
3962,6645
3955,6642
3959,6650
3967,6689
3965,6710
5621,8366
5649,8365
5699,8375
5745,8394
5787,8421
5823,8456
5852,8498
5871,8544
5882,8593
5882,8643
5873,8692
5855,8739
5828,8781
5793,8817
5752,8846
5706,8866
5657,8877
5606,8878
5559,8869
5567,8908
5567,8958
5558,9007
5540,9054
5514,9094
5537,9128
5556,9174
5567,9223
5567,9273
5558,9322
5540,9369
5540,9370
5631,9370
5666,9404
5666,9763
5385,9763
5351,9729
5351,9624
4674,9624
4674,9673
4239,10108
4041,9910
4041,9861
4369,9533
4388,9514
4411,9499
4436,9488
4462,9483
4490,9483
4516,9488
4541,9499
4564,9514
4674,9624
5351,9624
5351,9505
5342,9507
5292,9508
5242,9499
5195,9481
5153,9454
5126,9429
5053,9429
5037,9427
5020,9426
5020,9425
5019,9425
5003,9421
4987,9416
4986,9416
4985,9415
4971,9408
4957,9400
4956,9399
4955,9399
4942,9389
4929,9378
4928,9377
4928,9377
4928,9377
4928,9377
4609,9058
4497,9169
4481,9183
4446,9201
4408,9209
4369,9206
4333,9192
4302,9169
4134,9002
4120,8985
4102,8951
4094,8913
4097,8874
4107,8849
4098,8853
4060,8861
4021,8858
3985,8844
3954,8821
3786,8654
3772,8637
3754,8603
3746,8565
3749,8526
3759,8501
3750,8506
3732,8509
3726,8514
3724,8515
3723,8516
3704,8526
3685,8537
3684,8537
3683,8538
3662,8544
3641,8551
3640,8551
3639,8551
3617,8553
3595,8556
3593,8556
3593,8556
3593,8556
3592,8556
3277,8556
3255,8554
3233,8552
3232,8551
3231,8551
3210,8545
3189,8539
3188,8538
3187,8538
3168,8528
3148,8518
3147,8517
3146,8516
3129,8502
3112,8489
3110,8487
3110,8487
3110,8487
3110,8487
2773,8150
2754,8142
2712,8116
2676,8081
2647,8040
2626,7994
2626,7991
2398,8219
2350,8219
2151,8020
2586,7585
2635,7585
2741,7691
2748,7687
2794,7667
2843,7657
2894,7657
2943,7666
2989,7685
3031,7712
3067,7748
3083,7771
3289,7564
3338,7564
3481,7707
3475,7713
3503,7740
3509,7735
3514,7740
3542,7713
3536,7707
3832,7411
3881,7411
3936,7466
3951,7489
3961,7514
3967,7540
3967,7567
3961,7594
3955,7609
3963,7605
4001,7597
4040,7600
4076,7614
4108,7637
4275,7804
4289,7821
4307,7855
4315,7893
4312,7932
4302,7957
4311,7952
4349,7945
4388,7948
4424,7962
4430,7966
4432,7965
4433,7965
4434,7965
4450,7963
4467,7961
4468,7961
4468,7961
4468,7961
4469,7961
4680,7961
4697,7963
4713,7964
4714,7965
4715,7965
4721,7967
4089,7335
3804,7335
3804,7383
3509,7679
3366,7537
3366,7509
2559,7509
2559,7557
2124,7992
1925,7794
1925,7745
2253,7417
2272,7398
2295,7383
2320,7373
2347,7367
2374,7367
2400,7373
2425,7383
2448,7398
2559,7509
3366,7509
3366,7488
3574,7280
3596,7265
3621,7254
3648,7249
3675,7249
3702,7254
3727,7265
3750,7280
3804,7335
4089,7335
3735,6981
3708,6994
3670,7002
3631,6999
3595,6985
3564,6962
3132,6530
3107,6556
3099,6576
3072,6618
3037,6654
2996,6683
2950,6703
2901,6714
2851,6715
2801,6706
2769,6694
2559,6694
2559,6742
2448,6853
2425,6868
2400,6878
2374,6884
2347,6884
2320,6878
2295,6868
2272,6853
2253,6834
1925,6506
1925,6457
2124,6259
2559,6694
2769,6694
2754,6688
2712,6661
2676,6626
2675,6626
2635,6666
2586,6666
2151,6231
2350,6032
2398,6032
2667,6301
2671,6296
2706,6260
2748,6232
2773,6222
4241,4754
4258,4740
4274,4726
4276,4725
4277,4724
4296,4714
4315,4704
4316,4703
4317,4703
4338,4696
4345,4694
4041,4390
4041,4341
4239,4143
4674,4578
4674,4627
4616,4685
5734,4685
5736,4663
5747,4625
5769,4593
5798,4568
5833,4552
5833,4488
5835,4466
5837,4444
5837,4443
5837,4442
5844,4421
5850,4400
5850,4399
5851,4398
5861,4378
5871,4359
5872,4358
5872,4357
5886,4340
5888,4338
4892,4338
4892,4365
4887,4392
4876,4417
4861,4439
4751,4550
4702,4550
4267,4115
4466,3917
4514,3917
4842,4245
4861,4264
4876,4286
4887,4311
4892,4338
5888,4338
5900,4323
5901,4321
5901,4321
5902,4321
5902,4321
6493,3730
6509,3716
6526,3702
6527,3702
6528,3701
6547,3691
6567,3680
6568,3680
6569,3679
6590,3673
6611,3666
6612,3666
6613,3666
6635,3663
6656,3661
6659,3661
6659,3661
6659,3661
6660,3661
8323,3661
8345,3651
8395,3641
8445,3641
8494,3650
8541,3669
8583,3697
8618,3732
8647,3773
8667,3819
8677,3868
8678,3919
8669,3968
8650,4015
8623,4057
8588,4093
8547,4122
8501,4142
8452,4152
8402,4154
8352,4145
8323,4133
6758,4133
6335,4556
6367,4573
6584,4730
6589,4735
6594,4738
6600,4746
6609,4754
6614,4761
6619,4768
6624,4778
6629,4787
6632,4796
6635,4803
6637,4814
6640,4825
6639,4834
6641,4842
6641,4916
6683,4852
6784,4751
6902,4671
7034,4615
7174,4587
7317,4586
7457,4612
7589,4666
7709,4744
7811,4844
7860,4915
7860,4842
7861,4832
7860,4829
7861,4826
7862,4820
7866,4806
7870,4791
7872,4787
7873,4783
7881,4770
7889,4757
7892,4754
7894,4750
7906,4741
7917,4730
8133,4573
8176,4552
8215,4546
8254,4546
8254,4517
8256,4501
8257,4485
8257,4484
8258,4483
8262,4467
8267,4451
8267,4451
8268,4450
8275,4435
8283,4421
8283,4420
8284,4419
8294,4406
8304,4394
8306,4392
8306,4392
8306,4392
8306,4392
8926,3772
8939,3761
8951,3751
8952,3751
8953,3750
8967,3742
8982,3734
8982,3734
8983,3734
8999,3729
9015,3724
9015,3724
9026,3707
9056,3682
9092,3666
9130,3660
9445,3660
9467,3662
9504,3674
9523,3686
9528,3682
9564,3666
9603,3660
9918,3660
9939,3662
9977,3674
10009,3695
10035,3725
10051,3760
10056,3799
10056,3996
10054,4018
10043,4055
10021,4087
9992,4113
9956,4129
9918,4134
9774,4134
9764,4144
9803,4169
9839,4204
9867,4246
9887,4292
9897,4341
9898,4391
9889,4440
9874,4479
9884,4484
9907,4499
9926,4518
9941,4541
9952,4566
9957,4592
9957,4709
9922,4744
9780,4744
9780,4736
9740,4736
9740,4744
9732,4744
9732,4783
9740,4783
9740,5024
9706,5059
9687,5059
9661,5053
9636,5043
9632,5040
9602,5054
9563,5059
9445,5059
9423,5057
9386,5046
9377,5040
9346,5054
9307,5059
9189,5059
9167,5057
9130,5046
9097,5025
9072,4995
9056,4959
9051,4921
9051,4606
9052,4584
9064,4547
9071,4536
9071,4409
9073,4393
9074,4376
9074,4375
9074,4375
9079,4359
9084,4343
9084,4342
9084,4341
9092,4327
9100,4312
9100,4312
9101,4311
9111,4298
9121,4285
9123,4284
9123,4284
9123,4284
9123,4284
9273,4134
9130,4134
9108,4132
9077,4122
8651,4548
8687,4559
8720,4581
8745,4610
8761,4646
8767,4685
8767,4867
8772,4885
8776,4920
8773,4954
8767,4974
8767,5157
8765,5179
8753,5216
8732,5249
8702,5274
8667,5290
8628,5295
7998,5295
7978,5294
7979,5336
7998,5333
8628,5333
8650,5335
8687,5347
8720,5368
8745,5398
8761,5433
8767,5472
8767,5944
8765,5966
8753,6004
8732,6036
8702,6061
8667,6077
8628,6083
8215,6083
8168,6075
8133,6056
8090,6025
7851,6264
7851,6496
7853,6497
7890,6508
7909,6521
7914,6516
7950,6500
7988,6495
8303,6495
8325,6497
8363,6508
8368,6512
8378,6506
8424,6486
8473,6476
8524,6476
8573,6485
8619,6504
8661,6531
8697,6566
8726,6608
8745,6654
8756,6703
8756,6753
8747,6803
8729,6849
8702,6892
8667,6928
8626,6956
8580,6976
8531,6987
8480,6988
8431,6979
8384,6961
8368,6951
8342,6963
8303,6969
7988,6969
7966,6967
7929,6955
7910,6943
7905,6947
7869,6963
7831,6969
7531,6969
7629,7066
9701,7066
9717,7068
9734,7069
9734,7070
9735,7070
9751,7075
9767,7079
9768,7080
9769,7080
9783,7087
9797,7095
9798,7096
9799,7096
9812,7106
9825,7117
9826,7118
9826,7118
9826,7118
9826,7118
9866,7158
9876,7170
9887,7183
9887,7184
9888,7184
9895,7199
9903,7213
9903,7214
9904,7215
9909,7231
9914,7246
9914,7247
9914,7248
9916,7264
9918,7280
9918,7282
9918,7282
9918,7282
9918,7283
9918,7290
9932,7323
9938,7362
9938,7677
9936,7699
9925,7736
9903,7768
9874,7794
9838,7810
9799,7815
9681,7815
9659,7813
9622,7802
9613,7796
9582,7810
9544,7815
9425,7815
9403,7813
9366,7802
9357,7796
9326,7810
9288,7815
9170,7815
9148,7813
9110,7802
9078,7780
9053,7751
9037,7715
9031,7677
9031,7421
7555,7421
7539,7419
7523,7418
7522,7417
7521,7417
7505,7413
7490,7408
7489,7408
7488,7407
7473,7400
7459,7392
7458,7392
7457,7391
7451,7386
7457,7412
7457,7446
8158,8147
11108,8147
11637,7618
11586,7618
11551,7583
11551,7342
11512,7342
11512,7583
11478,7618
11420,7618
11393,7612
11368,7602
11345,7587
11326,7568
11311,7545
11301,7520
11295,7493
11295,7376
11330,7342
11512,7342
11551,7342
11733,7342
11768,7376
11768,7487
12346,6909
11900,6909
11834,6975
11821,6986
11809,6996
11808,6997
11807,6997
11793,7005
11779,7013
11778,7013
11777,7013
11768,7016
11767,7029
11755,7067
11743,7085
11752,7100
11763,7125
11768,7151
11768,7268
11733,7303
11551,7303
11551,7295
11512,7295
11512,7303
11330,7303
11295,7268
11295,7151
11301,7125
11311,7100
11320,7086
11316,7081
11300,7046
11295,7007
11295,6786
9937,6786
9937,6903
9932,6929
9922,6955
9906,6977
9887,6996
9865,7011
9840,7022
9813,7027
9795,7027
9760,6993
9760,6751
9903,6751
9937,6786
11295,6786
11295,6692
11297,6670
11308,6633
11330,6601
11355,6579
11355,6561
9937,6561
9937,6678
9903,6712
9760,6712
9760,6704
9721,6704
9721,6712
9713,6712
9713,6751
9721,6751
9721,6993
9686,7027
9668,7027
9641,7022
9616,7011
9612,7009
9582,7022
9544,7028
9425,7028
9403,7026
9366,7014
9357,7008
9326,7022
9288,7028
9170,7028
9148,7026
9110,7014
9078,6993
9053,6963
9037,6928
9031,6889
9031,6574
9033,6552
9044,6515
9066,6483
9095,6457
9131,6441
9170,6436
9229,6436
9229,6392
9238,6343
9257,6296
9285,6254
9321,6219
9362,6191
9408,6171
9458,6161
9508,6161
9557,6170
9604,6189
9646,6216
9681,6252
9710,6293
9730,6339
9740,6388
9741,6437
9760,6437
9760,6471
9795,6437
9813,6437
9840,6442
9865,6452
9887,6467
9906,6486
9922,6509
9932,6534
9937,6561
11355,6561
11355,6326
11337,6309
11308,6268
11288,6222
11277,6173
11276,6116
11286,6067
11305,6021
11332,5979
11368,5943
11409,5915
11456,5896
11505,5885
11555,5885
11604,5895
11651,5913
11693,5941
11729,5976
11757,6017
11777,6063
11787,6113
11788,6163
11779,6212
11760,6259
11733,6301
11709,6326
11709,6580
11722,6589
11722,6589
11727,6586
11728,6585
11728,6585
11743,6577
11757,6569
11758,6569
11759,6568
11775,6563
11790,6558
11791,6558
11792,6558
11808,6556
11825,6555
11826,6555
11826,6555
11826,6555
11827,6555
12555,6555
12555,6476
12556,6454
12568,6417
12589,6384
12619,6359
12655,6343
12693,6337
12693,6175
12075,5557
12070,5570
12049,5603
12019,5628
11984,5644
11945,5650
11630,5650
11608,5648
11571,5636
11538,5615
11532,5607
11507,5628
11472,5644
11433,5650
11157,5650
11158,5690
11149,5740
11130,5786
11103,5829
11068,5865
11027,5893
10981,5913
10932,5924
10882,5925
10833,5916
10786,5898
10743,5871
10707,5837
10678,5796
10658,5750
10647,5701
10646,5644
10656,5594
10675,5548
10703,5506
10725,5484
10725,5393
10726,5377
10728,5361
10728,5360
10728,5359
10733,5343
10737,5327
10738,5327
10738,5326
10746,5311
10753,5297
10753,5297
10253,5297
10243,5346
10225,5393
10198,5435
10163,5471
10122,5500
10076,5520
10027,5530
9991,5531
10033,5573
10069,5580
10115,5598
10157,5626
10193,5661
10222,5702
10241,5749
10252,5798
10253,5848
10243,5897
10225,5944
10198,5986
10163,6022
10122,6051
10076,6071
10027,6082
9977,6083
9927,6074
9880,6056
9838,6029
9802,5994
9773,5953
9752,5907
9741,5859
9741,5847
9701,5847
9679,5845
9642,5833
9633,5827
9602,5841
9563,5847
9445,5847
9423,5845
9386,5833
9377,5827
9373,5830
9347,5841
9321,5846
9302,5846
9268,5812
9268,5570
9229,5570
9229,5812
9194,5846
9176,5846
9149,5841
9124,5830
9101,5815
9082,5796
9067,5773
9057,5748
9051,5722
9051,5605
9086,5570
9229,5570
9268,5570
9276,5570
9276,5531
9268,5531
9268,5290
9229,5290
9229,5531
9086,5531
9051,5497
9051,5380
9057,5353
9067,5328
9082,5305
9101,5286
9124,5271
9149,5261
9176,5255
9194,5255
9229,5290
9268,5290
9302,5255
9321,5255
9337,5259
9340,5249
9340,5248
9340,5247
9348,5232
9356,5218
9356,5217
9357,5216
9367,5204
9377,5191
9378,5190
9378,5190
9378,5190
9379,5189
9418,5150
9431,5139
9443,5129
9444,5128
9445,5128
9459,5120
9474,5112
9475,5112
9475,5112
9491,5107
9507,5102
9508,5102
9508,5101
9525,5100
9541,5098
9543,5098
9543,5098
9543,5098
9544,5098
9812,5098
9832,5077
9874,5049
9920,5029
9969,5019
10020,5019
10069,5028
10115,5047
10157,5075
10193,5110
10222,5151
10241,5197
10252,5246
10253,5297
10753,5297
10754,5296
10754,5295
10765,5282
10769,5277
10743,5261
10707,5227
10678,5186
10658,5140
10647,5091
10646,5033
10656,4984
10675,4938
10703,4896
10738,4860
10779,4832
10815,4817
9957,4817
9957,4934
9952,4961
9941,4986
9926,5009
9907,5028
9884,5043
9859,5053
9833,5059
9814,5059
9780,5024
9780,4783
9922,4783
9957,4817
10815,4817
10826,4813
10875,4803
10925,4802
10974,4812
10980,4814
10980,4803
10982,4781
10993,4743
11006,4724
10907,4625
10882,4626
10833,4617
10786,4599
10743,4572
10707,4538
10678,4497
10658,4451
10647,4402
10646,4344
10656,4295
10675,4249
10703,4207
10738,4171
10779,4143
10826,4124
10875,4114
10925,4113
10974,4123
11021,4142
11063,4169
11099,4204
11127,4246
11147,4292
11157,4341
11158,4375
11401,4618
11411,4631
11422,4644
11422,4644
11423,4645
11431,4659
11433,4664
11455,4666
11492,4677
11525,4699
11532,4707
11556,4686
11592,4670
11630,4664
11945,4664
11967,4666
12004,4677
12015,4685
12358,4685
12375,4686
12391,4688
12392,4688
12393,4688
12409,4693
12424,4697
12425,4698
12426,4698
12440,4706
12455,4713
12456,4714
12457,4714
12469,4724
12482,4735
12483,4736
12483,4736
12483,4736
12484,4736
13296,5549
13289,5532
13284,5505
13284,5447
13318,5413
13559,5413
13559,5595
13525,5629
13408,5629
13381,5624
13364,5617
13547,5799
13557,5812
13568,5825
13568,5825
13569,5826
13576,5841
13584,5855
13585,5856
13585,5857
13588,5865
13677,5865
13699,5867
13715,5872
13718,5870
13756,5865
13874,5865
13896,5867
13912,5872
13914,5870
13953,5865
14071,5865
14093,5867
14099,5869
13926,5696
13916,5683
13905,5670
13905,5670
13904,5669
13896,5654
13889,5640
13888,5639
13888,5638
13885,5629
13872,5628
13835,5617
13816,5604
13802,5614
13777,5624
13750,5629
13633,5629
13599,5595
13599,5413
13607,5413
13607,5374
13599,5374
13599,5191
13559,5191
13559,5374
13318,5374
13284,5339
13284,5281
13289,5255
13299,5230
13314,5207
13334,5188
13356,5173
13381,5162
13408,5157
13525,5157
13559,5191
13599,5191
13633,5157
13750,5157
13777,5162
13802,5173
13815,5182
13820,5178
13855,5162
13894,5156
14209,5156
14231,5158
14268,5170
14301,5191
14326,5221
14342,5256
14347,5295
14347,5492
14346,5514
14334,5551
14314,5582
14531,5799
14541,5812
14552,5825
14552,5825
14553,5826
14561,5841
14569,5855
14569,5856
14569,5857
14574,5872
14579,5888
14579,5889
14579,5890
14581,5906
14583,5922
14583,5924
14583,5924
14583,5924
14583,5925
14583,5932
14598,5965
14603,6003
14603,6337
14937,6337
14959,6339
14996,6351
15029,6372
15054,6402
15070,6437
15076,6476
15076,6594
15074,6616
15069,6632
15070,6634
15076,6673
15076,6791
15074,6813
15069,6828
15070,6831
15076,6870
15076,6988
15074,7010
15069,7025
15070,7028
15076,7066
15076,7185
15074,7206
15069,7222
15070,7225
15076,7263
15076,7381
15074,7403
15069,7419
15070,7422
15076,7460
15076,7539
15435,7539
16288,6685
16301,6675
16314,6664
16314,6664
16315,6663
16329,6656
16344,6648
16345,6647
16346,6647
16361,6642
16377,6637
16378,6637
16379,6637
16395,6635
16411,6633
16413,6633
16413,6633
16413,6633
16414,6633
19687,6633
19812,6508
19825,6498
19837,6487
19838,6487
19839,6486
19853,6478
19867,6471
19868,6470
19869,6470
19885,6465
19888,6464
19891,6456
19912,6424
19942,6398
19966,6387
19957,6385
19924,6363
19899,6333
19883,6298
19877,6259
19877,6023
19879,6001
19891,5964
19912,5931
19942,5906
19977,5890
20016,5885
20075,5885
19401,5211
18795,5211
18795,5367
18790,5394
18780,5419
18765,5442
18746,5461
18723,5476
18698,5486
18671,5492
18476,5492
18441,5457
18441,5177
18761,5177
18795,5211
19401,5211
19137,4947
18795,4947
18795,5103
18761,5137
18441,5137
18441,4857
18402,4857
18402,5137
18394,5137
18394,5177
18402,5177
18402,5457
18367,5492
18172,5492
18145,5486
18120,5476
18097,5461
18078,5442
18068,5426
18068,5452
18067,5461
18067,5577
18087,5583
18119,5604
18145,5634
18161,5670
18166,5708
18166,6181
18164,6203
18153,6240
18132,6272
18102,6298
18066,6314
18028,6319
17634,6319
17612,6317
17575,6306
17542,6284
17517,6255
17501,6219
17496,6181
17496,5999
17378,5999
17378,6194
17373,6221
17362,6246
17347,6268
17328,6288
17306,6303
17281,6313
17254,6318
17098,6318
17063,6284
17063,5964
17024,5964
17024,6284
16989,6318
16833,6318
16806,6313
16781,6303
16759,6288
16740,6268
16725,6246
16714,6221
16709,6194
16709,5999
16743,5964
17024,5964
17063,5964
17344,5964
17378,5999
17496,5999
17496,5807
17447,5798
17400,5780
17378,5766
17378,5890
17344,5925
17063,5925
17063,5917
17024,5917
17024,5925
16743,5925
16709,5890
16709,5695
16714,5668
16725,5643
16740,5620
16759,5601
16781,5586
16806,5576
16833,5570
16875,5570
16853,5556
16828,5526
16812,5491
16807,5452
16807,4980
16808,4958
16820,4921
16841,4888
16871,4863
16907,4847
16945,4841
17181,4841
17203,4843
17240,4855
17273,4876
17298,4906
17314,4941
17320,4980
17320,5385
17352,5353
17394,5324
17440,5305
17489,5295
17539,5295
17555,5298
17555,4980
17556,4958
17568,4921
17589,4888
17619,4863
17655,4847
17693,4841
17929,4841
17951,4843
17989,4855
18021,4876
18046,4906
18053,4920
18053,4920
18063,4895
18078,4872
18097,4853
18120,4838
18145,4828
18172,4822
18367,4822
18402,4857
18441,4857
18476,4822
18671,4822
18698,4828
18723,4838
18746,4853
18765,4872
18780,4895
18790,4920
18795,4947
19137,4947
18796,4606
18789,4606
18783,4626
18761,4658
18732,4683
18696,4699
18658,4705
18185,4705
18163,4703
18126,4692
18094,4670
18068,4641
18053,4608
18033,4638
18003,4664
17968,4680
17929,4685
17693,4685
17671,4683
17634,4672
17625,4666
17621,4669
17596,4679
17569,4685
17491,4685
17457,4650
17457,4330
17465,4330
17465,4291
17457,4291
17457,4283
17418,4283
17418,4291
17410,4291
17410,4330
17418,4330
17418,4650
17383,4685
17306,4685
17279,4679
17254,4669
17250,4666
17220,4680
17181,4685
16945,4685
16923,4683
16886,4672
16853,4650
16828,4621
16812,4585
16807,4547
16807,4133
16355,4133
16336,4142
16287,4152
16236,4154
16187,4145
16140,4127
16098,4100
16061,4065
16033,4024
16012,3978
16001,3929
16000,3872
16010,3823
16029,3776
16057,3735
16092,3699
16134,3671
16180,3651
16229,3641
16279,3641
16329,3650
16355,3661
17697,3661
17719,3663
17741,3665
17742,3665
17743,3665
17764,3672
17785,3678
17786,3678
17787,3679
17806,3689
17826,3699
17827,3700
17828,3700
17845,3714
17862,3728
17863,3729
17864,3730
17864,3730
17864,3730
17978,3844
17992,3861
18006,3878
18007,3879
18008,3880
18018,3899
18028,3918
18029,3919
18029,3921
18036,3941
18042,3962
18042,3963
18043,3965
18045,3986
18047,4001
18062,4036
18068,4074
18068,4102
18082,4081
18111,4056
18147,4040
18185,4034
18658,4034
18680,4036
18717,4048
18749,4069
18775,4099
18790,4133
18894,4133
18916,4135
18937,4137
18939,4138
18940,4138
18961,4144
18982,4150
18983,4151
18984,4151
19003,4161
19023,4171
19024,4172
19025,4173
19042,4187
19059,4200
19060,4202
19060,4202
19060,4202
19061,4203
20518,5659
20531,5676
20546,5693
20546,5694
20547,5695
20557,5714
20568,5733
20568,5734
20569,5735
20575,5756
20582,5777
20582,5778
20582,5780
20584,5801
20587,5823
20587,5825
20587,5825
20587,5825
20587,5826
20587,5885
20685,5885
20707,5886
20744,5898
20777,5919
20802,5949
20818,5985
20824,6023
22404,6023
22333,5784
22220,5567
22215,5591
22205,5616
22190,5639
22171,5658
22148,5673
22123,5683
22096,5688
21606,5688
21571,5654
21571,5374
21532,5374
21532,5654
21497,5688
21006,5688
20980,5683
20955,5673
20932,5658
20913,5639
20898,5616
20887,5591
20882,5564
20882,5408
20917,5374
21532,5374
21571,5374
21579,5374
21579,5334
21571,5334
21571,5054
21532,5054
21532,5334
20917,5334
20882,5300
20882,5143
20887,5117
20898,5092
20913,5069
20932,5050
20955,5035
20980,5024
21006,5019
21497,5019
21532,5054
21571,5054
21606,5019
21893,5019
21571,4619
21036,4170
20423,3833
19757,3622
19055,3543
19011,3543
4215,3543
4178,3580
" /> 
</g>
<g style="fill:#FFFFFF; fill-opacity:1.0; 
stroke:#FFFFFF; stroke-width:118.11; stroke-opacity:1; 
stroke-linecap:round; stroke-linejoin:round;">
</g>
<g style="fill:#FFFFFF; fill-opacity:1.0; 
stroke:#FFFFFF; stroke-width:0; stroke-opacity:1; 
stroke-linecap:round; stroke-linejoin:round;">
<circle cx="8421.97" cy="3897.64" r="78.7402" /> 
</g>
<g style="fill:#FFFFFF; fill-opacity:1.0; 
stroke:#FFFFFF; stroke-width:39.3701; stroke-opacity:1; 
stroke-linecap:round; stroke-linejoin:round;">
</g>
<g style="fill:#FFFFFF; fill-opacity:1.0; 
stroke:#FFFFFF; stroke-width:0; stroke-opacity:1; 
stroke-linecap:round; stroke-linejoin:round;">
<circle cx="16256.6" cy="3897.64" r="78.7402" /> 
</g>
<g style="fill:#FFFFFF; fill-opacity:1.0; 
stroke:#FFFFFF; stroke-width:39.3701; stroke-opacity:1; 
stroke-linecap:round; stroke-linejoin:round;">
</g>
<g style="fill:#FFFFFF; fill-opacity:1.0; 
stroke:#FFFFFF; stroke-width:0; stroke-opacity:1; 
stroke-linecap:round; stroke-linejoin:round;">
<circle cx="2870.79" cy="6458.91" r="78.7402" /> 
</g>
<g style="fill:#FFFFFF; fill-opacity:1.0; 
stroke:#FFFFFF; stroke-width:39.3701; stroke-opacity:1; 
stroke-linecap:round; stroke-linejoin:round;">
</g>
<g style="fill:#FFFFFF; fill-opacity:1.0; 
stroke:#FFFFFF; stroke-width:0; stroke-opacity:1; 
stroke-linecap:round; stroke-linejoin:round;">
<circle cx="2870.79" cy="7913.39" r="78.7402" /> 
</g>
<g style="fill:#FFFFFF; fill-opacity:1.0; 
stroke:#FFFFFF; stroke-width:39.3701; stroke-opacity:1; 
stroke-linecap:round; stroke-linejoin:round;">
</g>
<g style="fill:#FFFFFF; fill-opacity:1.0; 
stroke:#FFFFFF; stroke-width:0; stroke-opacity:1; 
stroke-linecap:round; stroke-linejoin:round;">
<circle cx="3185.75" cy="7362.21" r="78.7402" /> 
</g>
<g style="fill:#FFFFFF; fill-opacity:1.0; 
stroke:#FFFFFF; stroke-width:39.3701; stroke-opacity:1; 
stroke-linecap:round; stroke-linejoin:round;">
</g>
<g style="fill:#FFFFFF; fill-opacity:1.0; 
stroke:#FFFFFF; stroke-width:0; stroke-opacity:1; 
stroke-linecap:round; stroke-linejoin:round;">
<circle cx="14445.6" cy="8858.27" r="78.7402" /> 
</g>
<g style="fill:#FFFFFF; fill-opacity:1.0; 
stroke:#FFFFFF; stroke-width:39.3701; stroke-opacity:1; 
stroke-linecap:round; stroke-linejoin:round;">
</g>
<g style="fill:#FFFFFF; fill-opacity:1.0; 
stroke:#FFFFFF; stroke-width:0; stroke-opacity:1; 
stroke-linecap:round; stroke-linejoin:round;">
<circle cx="17516.5" cy="5551.18" r="78.7402" /> 
</g>
<g style="fill:#FFFFFF; fill-opacity:1.0; 
stroke:#FFFFFF; stroke-width:39.3701; stroke-opacity:1; 
stroke-linecap:round; stroke-linejoin:round;">
</g>
<g style="fill:#FFFFFF; fill-opacity:1.0; 
stroke:#FFFFFF; stroke-width:0; stroke-opacity:1; 
stroke-linecap:round; stroke-linejoin:round;">
<circle cx="17831.4" cy="8385.83" r="78.7402" /> 
</g>
<g style="fill:#FFFFFF; fill-opacity:1.0; 
stroke:#FFFFFF; stroke-width:39.3701; stroke-opacity:1; 
stroke-linecap:round; stroke-linejoin:round;">
</g>
<g style="fill:#FFFFFF; fill-opacity:1.0; 
stroke:#FFFFFF; stroke-width:0; stroke-opacity:1; 
stroke-linecap:round; stroke-linejoin:round;">
<circle cx="15548" cy="8307.09" r="78.7402" /> 
</g>
<g style="fill:#FFFFFF; fill-opacity:1.0; 
stroke:#FFFFFF; stroke-width:39.3701; stroke-opacity:1; 
stroke-linecap:round; stroke-linejoin:round;">
</g>
<g style="fill:#FFFFFF; fill-opacity:1.0; 
stroke:#FFFFFF; stroke-width:0; stroke-opacity:1; 
stroke-linecap:round; stroke-linejoin:round;">
<circle cx="14209.4" cy="6968.5" r="78.7402" /> 
</g>
<g style="fill:#FFFFFF; fill-opacity:1.0; 
stroke:#FFFFFF; stroke-width:39.3701; stroke-opacity:1; 
stroke-linecap:round; stroke-linejoin:round;">
</g>
<g style="fill:#FFFFFF; fill-opacity:1.0; 
stroke:#FFFFFF; stroke-width:0; stroke-opacity:1; 
stroke-linecap:round; stroke-linejoin:round;">
<circle cx="10902.3" cy="5059.06" r="78.7402" /> 
</g>
<g style="fill:#FFFFFF; fill-opacity:1.0; 
stroke:#FFFFFF; stroke-width:39.3701; stroke-opacity:1; 
stroke-linecap:round; stroke-linejoin:round;">
</g>
<g style="fill:#FFFFFF; fill-opacity:1.0; 
stroke:#FFFFFF; stroke-width:0; stroke-opacity:1; 
stroke-linecap:round; stroke-linejoin:round;">
<circle cx="9996.77" cy="5275.59" r="78.7402" /> 
</g>
<g style="fill:#FFFFFF; fill-opacity:1.0; 
stroke:#FFFFFF; stroke-width:39.3701; stroke-opacity:1; 
stroke-linecap:round; stroke-linejoin:round;">
</g>
<g style="fill:#FFFFFF; fill-opacity:1.0; 
stroke:#FFFFFF; stroke-width:0; stroke-opacity:1; 
stroke-linecap:round; stroke-linejoin:round;">
<circle cx="9996.77" cy="5826.77" r="78.7402" /> 
</g>
<g style="fill:#FFFFFF; fill-opacity:1.0; 
stroke:#FFFFFF; stroke-width:39.3701; stroke-opacity:1; 
stroke-linecap:round; stroke-linejoin:round;">
</g>
<g style="fill:#FFFFFF; fill-opacity:1.0; 
stroke:#FFFFFF; stroke-width:0; stroke-opacity:1; 
stroke-linecap:round; stroke-linejoin:round;">
<circle cx="8500.71" cy="6732.28" r="78.7402" /> 
</g>
<g style="fill:#FFFFFF; fill-opacity:1.0; 
stroke:#FFFFFF; stroke-width:39.3701; stroke-opacity:1; 
stroke-linecap:round; stroke-linejoin:round;">
</g>
<g style="fill:#FFFFFF; fill-opacity:1.0; 
stroke:#FFFFFF; stroke-width:0; stroke-opacity:1; 
stroke-linecap:round; stroke-linejoin:round;">
<circle cx="10902.3" cy="4370.08" r="78.7402" /> 
</g>
<g style="fill:#FFFFFF; fill-opacity:1.0; 
stroke:#FFFFFF; stroke-width:39.3701; stroke-opacity:1; 
stroke-linecap:round; stroke-linejoin:round;">
</g>
<g style="fill:#FFFFFF; fill-opacity:1.0; 
stroke:#FFFFFF; stroke-width:0; stroke-opacity:1; 
stroke-linecap:round; stroke-linejoin:round;">
<circle cx="9642.44" cy="4370.08" r="78.7402" /> 
</g>
<g style="fill:#FFFFFF; fill-opacity:1.0; 
stroke:#FFFFFF; stroke-width:39.3701; stroke-opacity:1; 
stroke-linecap:round; stroke-linejoin:round;">
</g>
<g style="fill:#FFFFFF; fill-opacity:1.0; 
stroke:#FFFFFF; stroke-width:0; stroke-opacity:1; 
stroke-linecap:round; stroke-linejoin:round;">
<circle cx="10902.3" cy="5669.29" r="78.7402" /> 
</g>
<g style="fill:#FFFFFF; fill-opacity:1.0; 
stroke:#FFFFFF; stroke-width:39.3701; stroke-opacity:1; 
stroke-linecap:round; stroke-linejoin:round;">
</g>
<g style="fill:#FFFFFF; fill-opacity:1.0; 
stroke:#FFFFFF; stroke-width:0; stroke-opacity:1; 
stroke-linecap:round; stroke-linejoin:round;">
<circle cx="9484.96" cy="6417.32" r="78.7402" /> 
</g>
<g style="fill:#FFFFFF; fill-opacity:1.0; 
stroke:#FFFFFF; stroke-width:39.3701; stroke-opacity:1; 
stroke-linecap:round; stroke-linejoin:round;">
</g>
<g style="fill:#FFFFFF; fill-opacity:1.0; 
stroke:#FFFFFF; stroke-width:0; stroke-opacity:1; 
stroke-linecap:round; stroke-linejoin:round;">
<circle cx="6886.54" cy="10118.1" r="78.7402" /> 
</g>
<g style="fill:#FFFFFF; fill-opacity:1.0; 
stroke:#FFFFFF; stroke-width:39.3701; stroke-opacity:1; 
stroke-linecap:round; stroke-linejoin:round;">
</g>
<g style="fill:#FFFFFF; fill-opacity:1.0; 
stroke:#FFFFFF; stroke-width:0; stroke-opacity:1; 
stroke-linecap:round; stroke-linejoin:round;">
<circle cx="14799.9" cy="8858.27" r="78.7402" /> 
</g>
<g style="fill:#FFFFFF; fill-opacity:1.0; 
stroke:#FFFFFF; stroke-width:39.3701; stroke-opacity:1; 
stroke-linecap:round; stroke-linejoin:round;">
</g>
<g style="fill:#FFFFFF; fill-opacity:1.0; 
stroke:#FFFFFF; stroke-width:0; stroke-opacity:1; 
stroke-linecap:round; stroke-linejoin:round;">
<circle cx="11532.2" cy="6141.73" r="78.7402" /> 
</g>
<g style="fill:#FFFFFF; fill-opacity:1.0; 
stroke:#FFFFFF; stroke-width:39.3701; stroke-opacity:1; 
stroke-linecap:round; stroke-linejoin:round;">
</g>
<g style="fill:#FFFFFF; fill-opacity:1.0; 
stroke:#FFFFFF; stroke-width:0; stroke-opacity:1; 
stroke-linecap:round; stroke-linejoin:round;">
<circle cx="7201.5" cy="7440.95" r="78.7402" /> 
</g>
<g style="fill:#FFFFFF; fill-opacity:1.0; 
stroke:#FFFFFF; stroke-width:39.3701; stroke-opacity:1; 
stroke-linecap:round; stroke-linejoin:round;">
</g>
<g style="fill:#FFFFFF; fill-opacity:1.0; 
stroke:#FFFFFF; stroke-width:0; stroke-opacity:1; 
stroke-linecap:round; stroke-linejoin:round;">
<circle cx="4209.37" cy="6574.8" r="78.7402" /> 
</g>
<g style="fill:#FFFFFF; fill-opacity:1.0; 
stroke:#FFFFFF; stroke-width:39.3701; stroke-opacity:1; 
stroke-linecap:round; stroke-linejoin:round;">
</g>
<g style="fill:#FFFFFF; fill-opacity:1.0; 
stroke:#FFFFFF; stroke-width:0; stroke-opacity:1; 
stroke-linecap:round; stroke-linejoin:round;">
<circle cx="7437.72" cy="8622.05" r="78.7402" /> 
</g>
<g style="fill:#FFFFFF; fill-opacity:1.0; 
stroke:#FFFFFF; stroke-width:39.3701; stroke-opacity:1; 
stroke-linecap:round; stroke-linejoin:round;">
</g>
<g style="fill:#FFFFFF; fill-opacity:1.0; 
stroke:#FFFFFF; stroke-width:0; stroke-opacity:1; 
stroke-linecap:round; stroke-linejoin:round;">
<circle cx="5626.69" cy="8622.05" r="78.7402" /> 
</g>
<g style="fill:#FFFFFF; fill-opacity:1.0; 
stroke:#FFFFFF; stroke-width:39.3701; stroke-opacity:1; 
stroke-linecap:round; stroke-linejoin:round;">
</g>
<g style="fill:#FFFFFF; fill-opacity:1.0; 
stroke:#FFFFFF; stroke-width:0; stroke-opacity:1; 
stroke-linecap:round; stroke-linejoin:round;">
<circle cx="5311.73" cy="8937.01" r="78.7402" /> 
</g>
<g style="fill:#FFFFFF; fill-opacity:1.0; 
stroke:#FFFFFF; stroke-width:39.3701; stroke-opacity:1; 
stroke-linecap:round; stroke-linejoin:round;">
</g>
<g style="fill:#FFFFFF; fill-opacity:1.0; 
stroke:#FFFFFF; stroke-width:0; stroke-opacity:1; 
stroke-linecap:round; stroke-linejoin:round;">
<circle cx="7910.16" cy="8937.01" r="78.7402" /> 
</g>
<g style="fill:#FFFFFF; fill-opacity:1.0; 
stroke:#FFFFFF; stroke-width:39.3701; stroke-opacity:1; 
stroke-linecap:round; stroke-linejoin:round;">
</g>
<g style="fill:#FFFFFF; fill-opacity:1.0; 
stroke:#FFFFFF; stroke-width:0; stroke-opacity:1; 
stroke-linecap:round; stroke-linejoin:round;">
<circle cx="7910.16" cy="9251.97" r="78.7402" /> 
</g>
<g style="fill:#FFFFFF; fill-opacity:1.0; 
stroke:#FFFFFF; stroke-width:39.3701; stroke-opacity:1; 
stroke-linecap:round; stroke-linejoin:round;">
</g>
<g style="fill:#FFFFFF; fill-opacity:1.0; 
stroke:#FFFFFF; stroke-width:0; stroke-opacity:1; 
stroke-linecap:round; stroke-linejoin:round;">
<circle cx="5311.73" cy="9251.97" r="78.7402" /> 
</g>
<g style="fill:#FFFFFF; fill-opacity:1.0; 
stroke:#FFFFFF; stroke-width:39.3701; stroke-opacity:1; 
stroke-linecap:round; stroke-linejoin:round;">
</g>
<g style="fill:#FFFFFF; fill-opacity:1.0; 
stroke:#FFFFFF; stroke-width:0; stroke-opacity:1; 
stroke-linecap:round; stroke-linejoin:round;">
<circle cx="7250.71" cy="5314.96" r="590.551" /> 
</g>
<g style="fill:#FFFFFF; fill-opacity:1.0; 
stroke:#FFFFFF; stroke-width:39.3701; stroke-opacity:1; 
stroke-linecap:round; stroke-linejoin:round;">
</g>
<g style="fill:#000000; fill-opacity:1.0; 
stroke:#000000; stroke-width:39.3701; stroke-opacity:1; 
stroke-linecap:round; stroke-linejoin:round;">
</g>
<g style="fill:#000000; fill-opacity:0.0; 
stroke:#000000; stroke-width:39.3701; stroke-opacity:1; 
stroke-linecap:round; stroke-linejoin:round;">
<path d="M4150 10866
L4051 10767
" />
<path d="M19012 10866
L4150 10866
" />
<path d="M1492 8208
L4051 10767
" />
<path d="M1492 6043
L1492 8208
" />
<path d="M4150 3385
L1492 6043
" />
<path d="M19012 3385
L4150 3385
" />
<path d="M19012.5 10866.1 A3740.16 3740.16 0.0 0 0 19012.5 3385.83 " />
</g> 
</svg>
