M48
;DRILL file {KiCad 4.0.7-e2-6376~58~ubuntu14.04.1} date Wed May 23 14:22:48 2018
;FORMAT={-:-/ absolute / metric / decimal}
FMAT,2
METRIC,TZ
T1C0.400
T2C3.000
%
G90
G05
M71
T1
X103.Y-84.2
X103.8Y-77.
X107.Y-72.8
X108.8Y-84.
X110.7Y-85.4
X111.6Y-85.4
X112.2Y-80.6
X116.6Y-83.6
X117.4Y-78.4
X118.8Y-74.
X118.8Y-76.6
X121.3Y-75.3
X122.Y-79.6
X122.Y-82.4
X122.1Y-83.6
X123.5Y-84.2
X124.25Y-86.554
X125.Y-79.
X125.25Y-83.3
X126.9Y-72.8
X127.7Y-81.2
X127.7Y-88.7
X129.Y-85.9
X129.7Y-86.5
X130.4Y-84.5
X131.3Y-84.5
X131.7Y-81.8
X132.3Y-81.2
X133.5Y-89.
X134.8Y-85.6
X134.8Y-86.4
X137.6Y-79.6
X138.4Y-80.5
X140.2Y-81.6
X141.Y-79.306
X141.Y-83.
T2
X129.875Y-76.4
T0
M30
