<?xml version="1.0" standalone="no"?>
 <!DOCTYPE svg PUBLIC "-//W3C//DTD SVG 1.1//EN" 
 "http://www.w3.org/Graphics/SVG/1.1/DTD/svg11.dtd"> 
<svg xmlns="http://www.w3.org/2000/svg" version="1.1" 
    width="6.13918cm" height="3.11404cm" viewBox="0 0 24170 12260 ">
<title>SVG Picture created as NeuroBytes_Force_Sensor-brd.svg date 2017/09/20 15:52:55 </title>
  <desc>Picture generated by PCBNEW </desc>
<g style="fill:#000000; fill-opacity:1;stroke:#000000; stroke-opacity:1;
stroke-linecap:round; stroke-linejoin:round; "
 transform="translate(0 0) scale(1 1)">
</g>
<g style="fill:#000000; fill-opacity:0.0; 
stroke:#000000; stroke-width:-0.000393701; stroke-opacity:1; 
stroke-linecap:round; stroke-linejoin:round;">
</g>
<g style="fill:#000000; fill-opacity:0.0; 
stroke:#000000; stroke-width:59.0551; stroke-opacity:1; 
stroke-linecap:round; stroke-linejoin:round;">
<path d="M7895 8586
L7988 8473
" />
<path d="M8063 8586
L8063 8323
L7951 8323
L7913 8342
L7895 8380
L7895 8417
L7913 8455
L7951 8473
L8063 8473
" />
<path d="M7988 8192
L8082 8211
L8176 8267
L8232 8361
L8251 8455
L8232 8548
L8176 8642
L8082 8698
L7988 8717
L7895 8698
L7801 8642
L7745 8548
L7726 8455
L7745 8361
L7801 8267
L7895 8211
L7988 8192
" />
</g>
<g style="fill:#000000; fill-opacity:0.0; 
stroke:#000000; stroke-width:74.8031; stroke-opacity:1; 
stroke-linecap:round; stroke-linejoin:round;">
<path d="M3404 9155
L3329 9180
L3304 9205
L3279 9255
L3279 9330
L3304 9379
L3329 9404
L3379 9429
L3578 9429
L3578 8906
L3404 8906
L3354 8931
L3329 8956
L3304 9005
L3304 9055
L3329 9105
L3354 9130
L3404 9155
L3578 9155
" />
<path d="M3389 5441
L3139 5441
" />
<path d="M3439 5591
L3264 5067
L3089 5591
" />
</g>
<g style="fill:#000000; fill-opacity:0.0; 
stroke:#000000; stroke-width:82.6772; stroke-opacity:1; 
stroke-linecap:round; stroke-linejoin:round;">
<path d="M12907 9204
L12907 8613
L12569 9204
L12569 8613
" />
<path d="M12063 9176
L12119 9204
L12232 9204
L12288 9176
L12316 9119
L12316 8894
L12288 8838
L12232 8810
L12119 8810
L12063 8838
L12035 8894
L12035 8951
L12316 9007
" />
<path d="M11529 8810
L11529 9204
" />
<path d="M11782 8810
L11782 9119
L11754 9176
L11698 9204
L11613 9204
L11557 9176
L11529 9147
" />
<path d="M11248 9204
L11248 8810
" />
<path d="M11248 8922
L11220 8866
L11191 8838
L11135 8810
L11079 8810
" />
<path d="M10798 9204
L10854 9176
L10882 9147
L10910 9091
L10910 8922
L10882 8866
L10854 8838
L10798 8810
L10713 8810
L10657 8838
L10629 8866
L10601 8922
L10601 9091
L10629 9147
L10657 9176
L10713 9204
L10798 9204
" />
<path d="M10151 8894
L10067 8922
L10038 8951
L10010 9007
L10010 9091
L10038 9147
L10067 9176
L10123 9204
L10348 9204
L10348 8613
L10151 8613
L10095 8641
L10067 8669
L10038 8726
L10038 8782
L10067 8838
L10095 8866
L10151 8894
L10348 8894
" />
<path d="M9813 8810
L9673 9204
" />
<path d="M9532 8810
L9673 9204
L9729 9344
L9757 9372
L9813 9401
" />
<path d="M9392 8810
L9167 8810
" />
<path d="M9307 8613
L9307 9119
L9279 9176
L9223 9204
L9167 9204
" />
<path d="M8745 9176
L8801 9204
L8914 9204
L8970 9176
L8998 9119
L8998 8894
L8970 8838
L8914 8810
L8801 8810
L8745 8838
L8717 8894
L8717 8951
L8998 9007
" />
<path d="M8492 9176
L8436 9204
L8323 9204
L8267 9176
L8239 9119
L8239 9091
L8267 9035
L8323 9007
L8407 9007
L8464 8979
L8492 8922
L8492 8894
L8464 8838
L8407 8810
L8323 8810
L8267 8838
" />
</g>
<g style="fill:#000000; fill-opacity:1.0; 
stroke:#000000; stroke-width:3.93701; stroke-opacity:1; 
stroke-linecap:round; stroke-linejoin:round;">
<polyline style="fill-rule:evenodd;"
points="7070,3785
6834,3827
6612,3907
6404,4024
6210,4179
6125,4262
5976,4445
5859,4643
5773,4854
5720,5072
5701,5291
5716,5509
5767,5719
5820,5850
5944,6068
6101,6269
6284,6448
6488,6598
6667,6696
6742,6726
6839,6759
6946,6791
7006,6807
7147,6847
7253,6891
7333,6943
7392,7008
7423,7059
7439,7097
7465,7161
7495,7244
7529,7337
7563,7431
7594,7520
7619,7595
7636,7647
7640,7668
7624,7664
7584,7649
7571,7643
7508,7624
7450,7615
7446,7615
7398,7619
7321,7632
7222,7650
7109,7673
6989,7698
6870,7725
6759,7751
6665,7775
6594,7795
6554,7809
6552,7810
6504,7851
6461,7909
6450,7928
6412,7993
6375,8019
6337,8006
6297,7958
6263,7912
6225,7875
6177,7846
6113,7823
6027,7803
5914,7783
5767,7764
5753,7762
5589,7742
5460,7727
5360,7719
5284,7718
5225,7723
5180,7735
5141,7755
5105,7783
5086,7799
5038,7828
5003,7820
4983,7777
4980,7744
4961,7641
4905,7549
4877,7521
4839,7493
4773,7452
4686,7401
4585,7344
4476,7285
4367,7227
4264,7174
4174,7130
4104,7098
4061,7082
4058,7082
3981,7085
3890,7114
3819,7149
3799,7141
3766,7116
3738,7073
3718,7005
3709,6911
3709,6788
3719,6634
3739,6447
3769,6226
3809,5969
3812,5949
3842,5755
3863,5589
3875,5442
3879,5303
3874,5163
3861,5012
3850,4904
3839,4797
3832,4695
3829,4609
3831,4551
3831,4550
3834,4481
3817,4445
3776,4438
3710,4454
3644,4489
3603,4537
3588,4589
3602,4637
3647,4673
3652,4675
3681,4691
3704,4717
3722,4760
3738,4824
3752,4915
3766,5038
3772,5093
3786,5278
3787,5431
3775,5560
3748,5673
3721,5744
3697,5798
3673,5837
3643,5865
3602,5882
3542,5891
3460,5894
3347,5892
3245,5888
3035,5877
2859,5860
2720,5838
2618,5809
2568,5785
2510,5758
2464,5765
2432,5799
2403,5869
2414,5938
2438,5977
2476,6023
2546,5985
2579,5969
2612,5960
2652,5957
2709,5960
2793,5969
2844,5975
2955,5985
3089,5995
3229,6001
3356,6003
3473,6005
3556,6008
3611,6013
3644,6021
3660,6033
3661,6034
3675,6084
3679,6169
3672,6286
3655,6433
3651,6464
3637,6578
3627,6702
3621,6817
3621,6847
3616,7000
3601,7123
3574,7224
3533,7310
3511,7344
3444,7449
3400,7539
3374,7628
3363,7731
3361,7820
3356,7949
3342,8046
3315,8120
3274,8177
3260,8190
3240,8206
3216,8217
3181,8225
3127,8229
3049,8231
2940,8231
2903,8231
2776,8232
2645,8237
2523,8243
2424,8251
2403,8253
2311,8263
2250,8266
2209,8262
2179,8251
2168,8245
2110,8218
2070,8225
2048,8266
2045,8322
2059,8371
2085,8401
2116,8403
2194,8378
2298,8357
2420,8340
2552,8328
2687,8321
2817,8319
2935,8323
3033,8333
3104,8349
3131,8362
3145,8377
3149,8397
3139,8432
3114,8488
3085,8546
3041,8637
2998,8734
2965,8818
2960,8829
2929,8910
2899,8960
2864,8991
2817,9009
2808,9012
2750,9041
2725,9085
2733,9136
2772,9188
2839,9234
2927,9269
2990,9274
3029,9246
3044,9188
3034,9098
3023,9028
3025,8964
3039,8888
3047,8859
3082,8749
3128,8635
3182,8524
3240,8423
3299,8338
3354,8275
3401,8239
3422,8234
3484,8253
3553,8306
3625,8387
3698,8493
3769,8619
3834,8759
3891,8909
3932,9050
3963,9188
3977,9299
3974,9387
3955,9462
3941,9493
3918,9542
3913,9570
3926,9591
3938,9602
3991,9627
4064,9632
4138,9615
4165,9603
4210,9564
4215,9517
4182,9461
4164,9441
4132,9400
4104,9342
4078,9259
4061,9194
4007,8986
3953,8808
3895,8652
3829,8507
3752,8364
3659,8215
3651,8204
3595,8115
3545,8027
3506,7951
3488,7907
3464,7783
3470,7654
3505,7534
3527,7489
3572,7422
3623,7359
3672,7306
3713,7272
3739,7264
3740,7264
3753,7290
3760,7341
3760,7365
3766,7420
3785,7470
3823,7520
3881,7574
3966,7634
4080,7705
4177,7761
4327,7846
4447,7912
4543,7961
4618,7994
4679,8012
4729,8018
4773,8011
4817,7995
4861,7972
4914,7948
4956,7939
4966,7940
4988,7965
5010,8014
5017,8039
5037,8101
5065,8151
5107,8191
5167,8224
5251,8250
5363,8274
5507,8297
5568,8306
5751,8330
5900,8345
6019,8351
6111,8346
6182,8331
6236,8305
6276,8267
6308,8217
6314,8205
6353,8151
6396,8135
6438,8158
6462,8191
6522,8256
6608,8297
6714,8310
6759,8307
6847,8296
6954,8278
7072,8256
7195,8231
7315,8204
7425,8179
7517,8155
7585,8134
7620,8119
7660,8078
7700,8019
7710,7999
7751,7938
7799,7915
7857,7930
7899,7957
7941,7983
7989,7999
8047,8006
8122,8003
8217,7990
8340,7967
8495,7933
8527,7926
8649,7897
8760,7870
8852,7846
8920,7828
8957,7816
8959,7815
9000,7784
9044,7737
9081,7688
9100,7649
9100,7643
9117,7616
9159,7603
9213,7606
9253,7620
9297,7641
9340,7654
9387,7660
9445,7658
9520,7647
9618,7628
9745,7599
9848,7575
10008,7536
10133,7502
10228,7471
10298,7442
10349,7412
10384,7379
10409,7340
10419,7318
10443,7259
10687,7243
10796,7238
10939,7234
11110,7231
11302,7230
11509,7230
11725,7231
11944,7233
12160,7236
12366,7241
12508,7245
12946,7259
12931,7182
12920,7130
12909,7098
12907,7095
12885,7092
12827,7089
12737,7086
12621,7084
12483,7082
12327,7081
12158,7080
11979,7079
11796,7078
11613,7078
11434,7079
11264,7079
11107,7081
10968,7082
10850,7084
10759,7087
10700,7090
10450,7107
10367,7032
10313,6988
10261,6959
10203,6944
10131,6943
10039,6955
9919,6979
9862,6992
9694,7032
9561,7065
9457,7092
9378,7115
9319,7136
9274,7157
9241,7178
9212,7201
9210,7204
9152,7278
9129,7351
9112,7411
9089,7433
9060,7416
9047,7398
9003,7356
8934,7320
8857,7298
8815,7294
8774,7299
8702,7312
8606,7331
8493,7356
8371,7384
8368,7384
8251,7412
8146,7436
8062,7456
8003,7469
7976,7474
7975,7474
7953,7487
7913,7519
7883,7545
7805,7615
7763,7516
7734,7438
7704,7340
7677,7235
7656,7135
7643,7053
7641,7018
7644,6972
7657,6928
7682,6882
7723,6830
7783,6769
7864,6696
7971,6607
8107,6498
8140,6471
8331,6309
8484,6150
8602,5989
8689,5823
8746,5648
8750,5622
8277,5622
8237,5723
8214,5780
8196,5820
8190,5831
8169,5831
8119,5823
8054,5809
7924,5779
7811,5894
7698,6008
7728,6136
7741,6203
7748,6253
7747,6274
7723,6288
7677,6309
7623,6331
7577,6348
7555,6353
7537,6338
7507,6298
7478,6254
7417,6154
7244,6154
7070,6155
7012,6249
6979,6303
6955,6341
6947,6352
6928,6349
6882,6334
6833,6316
6725,6272
6755,6141
6785,6010
6678,5901
6629,5852
6594,5821
6561,5805
6520,5803
6460,5811
6371,5827
6371,5827
6329,5832
6303,5823
6282,5792
6261,5745
6238,5689
6223,5648
6220,5637
6236,5620
6277,5590
6320,5564
6420,5504
6420,5158
6320,5096
6267,5061
6230,5031
6220,5017
6228,4990
6247,4940
6262,4906
6292,4848
6318,4823
6337,4823
6375,4833
6436,4847
6469,4855
6568,4876
6676,4769
6783,4661
6751,4537
6736,4470
6729,4419
6730,4395
6754,4378
6802,4355
6833,4342
6926,4307
6973,4366
7007,4413
7029,4453
7031,4457
7053,4478
7105,4494
7164,4502
7261,4511
7328,4514
7373,4506
7406,4486
7437,4450
7467,4405
7540,4296
7640,4338
7696,4365
7732,4389
7740,4401
7737,4431
7727,4486
7716,4538
7692,4655
7791,4756
7838,4803
7876,4833
7915,4847
7965,4849
8036,4839
8121,4824
8163,4818
8188,4826
8206,4856
8226,4908
8246,4965
8258,5006
8260,5016
8245,5033
8204,5062
8160,5091
8060,5153
8060,5492
8277,5622
8750,5622
8775,5458
8780,5320
8770,5129
8738,4954
8680,4778
8620,4644
8494,4428
8340,4240
8161,4081
7960,3953
7740,3859
7502,3800
7320,3780
7070,3785
" /> 
<polyline style="fill-rule:evenodd;"
points="7103,4819
6983,4869
6878,4948
6793,5056
6767,5104
6726,5236
6720,5372
6747,5505
6804,5626
6891,5727
6917,5748
7036,5815
7171,5850
7310,5852
7428,5825
7544,5764
7641,5672
7714,5559
7758,5431
7768,5339
7754,5197
7704,5074
7618,4963
7602,4947
7486,4864
7361,4816
7231,4801
7103,4819
" /> 
</g>
<g style="fill:#000000; fill-opacity:1.0; 
stroke:#000000; stroke-width:0; stroke-opacity:1; 
stroke-linecap:round; stroke-linejoin:round;">
<polyline style="fill-rule:evenodd;"
points="10725,7822
12299,7822
12299,7429
10725,7429
10725,7822
" /> 
<polyline style="fill-rule:evenodd;"
points="10725,6822
12299,6822
12299,6429
10725,6429
10725,6822
" /> 
<circle cx="7250.71" cy="5314.96" r="590.551" /> 
</g>
<g style="fill:#000000; fill-opacity:1.0; 
stroke:#000000; stroke-width:39.3701; stroke-opacity:1; 
stroke-linecap:round; stroke-linejoin:round;">
</g>
<g style="fill:#000000; fill-opacity:1.0; 
stroke:#000000; stroke-width:0; stroke-opacity:1; 
stroke-linecap:round; stroke-linejoin:round;">
<circle cx="8421.97" cy="3897.64" r="118.11" /> 
</g>
<g style="fill:#000000; fill-opacity:1.0; 
stroke:#000000; stroke-width:39.3701; stroke-opacity:1; 
stroke-linecap:round; stroke-linejoin:round;">
</g>
<g style="fill:#000000; fill-opacity:1.0; 
stroke:#000000; stroke-width:0; stroke-opacity:1; 
stroke-linecap:round; stroke-linejoin:round;">
<circle cx="16256.6" cy="3897.64" r="118.11" /> 
</g>
<g style="fill:#000000; fill-opacity:1.0; 
stroke:#000000; stroke-width:39.3701; stroke-opacity:1; 
stroke-linecap:round; stroke-linejoin:round;">
</g>
<g style="fill:#000000; fill-opacity:1.0; 
stroke:#000000; stroke-width:0; stroke-opacity:1; 
stroke-linecap:round; stroke-linejoin:round;">
<circle cx="2870.79" cy="6458.91" r="118.11" /> 
</g>
<g style="fill:#000000; fill-opacity:1.0; 
stroke:#000000; stroke-width:39.3701; stroke-opacity:1; 
stroke-linecap:round; stroke-linejoin:round;">
</g>
<g style="fill:#000000; fill-opacity:1.0; 
stroke:#000000; stroke-width:0; stroke-opacity:1; 
stroke-linecap:round; stroke-linejoin:round;">
<circle cx="2870.79" cy="7913.39" r="118.11" /> 
</g>
<g style="fill:#000000; fill-opacity:1.0; 
stroke:#000000; stroke-width:39.3701; stroke-opacity:1; 
stroke-linecap:round; stroke-linejoin:round;">
</g>
<g style="fill:#000000; fill-opacity:1.0; 
stroke:#000000; stroke-width:0; stroke-opacity:1; 
stroke-linecap:round; stroke-linejoin:round;">
<circle cx="3185.75" cy="7362.21" r="118.11" /> 
</g>
<g style="fill:#000000; fill-opacity:1.0; 
stroke:#000000; stroke-width:39.3701; stroke-opacity:1; 
stroke-linecap:round; stroke-linejoin:round;">
</g>
<g style="fill:#000000; fill-opacity:1.0; 
stroke:#000000; stroke-width:0; stroke-opacity:1; 
stroke-linecap:round; stroke-linejoin:round;">
<circle cx="14445.6" cy="8858.27" r="118.11" /> 
</g>
<g style="fill:#000000; fill-opacity:1.0; 
stroke:#000000; stroke-width:39.3701; stroke-opacity:1; 
stroke-linecap:round; stroke-linejoin:round;">
</g>
<g style="fill:#000000; fill-opacity:1.0; 
stroke:#000000; stroke-width:0; stroke-opacity:1; 
stroke-linecap:round; stroke-linejoin:round;">
<circle cx="17516.5" cy="5551.18" r="118.11" /> 
</g>
<g style="fill:#000000; fill-opacity:1.0; 
stroke:#000000; stroke-width:39.3701; stroke-opacity:1; 
stroke-linecap:round; stroke-linejoin:round;">
</g>
<g style="fill:#000000; fill-opacity:1.0; 
stroke:#000000; stroke-width:0; stroke-opacity:1; 
stroke-linecap:round; stroke-linejoin:round;">
<circle cx="17831.4" cy="8385.83" r="118.11" /> 
</g>
<g style="fill:#000000; fill-opacity:1.0; 
stroke:#000000; stroke-width:39.3701; stroke-opacity:1; 
stroke-linecap:round; stroke-linejoin:round;">
</g>
<g style="fill:#000000; fill-opacity:1.0; 
stroke:#000000; stroke-width:0; stroke-opacity:1; 
stroke-linecap:round; stroke-linejoin:round;">
<circle cx="15548" cy="8307.09" r="118.11" /> 
</g>
<g style="fill:#000000; fill-opacity:1.0; 
stroke:#000000; stroke-width:39.3701; stroke-opacity:1; 
stroke-linecap:round; stroke-linejoin:round;">
</g>
<g style="fill:#000000; fill-opacity:1.0; 
stroke:#000000; stroke-width:0; stroke-opacity:1; 
stroke-linecap:round; stroke-linejoin:round;">
<circle cx="14209.4" cy="6968.5" r="118.11" /> 
</g>
<g style="fill:#000000; fill-opacity:1.0; 
stroke:#000000; stroke-width:39.3701; stroke-opacity:1; 
stroke-linecap:round; stroke-linejoin:round;">
</g>
<g style="fill:#000000; fill-opacity:1.0; 
stroke:#000000; stroke-width:0; stroke-opacity:1; 
stroke-linecap:round; stroke-linejoin:round;">
<circle cx="10902.3" cy="5059.06" r="118.11" /> 
</g>
<g style="fill:#000000; fill-opacity:1.0; 
stroke:#000000; stroke-width:39.3701; stroke-opacity:1; 
stroke-linecap:round; stroke-linejoin:round;">
</g>
<g style="fill:#000000; fill-opacity:1.0; 
stroke:#000000; stroke-width:0; stroke-opacity:1; 
stroke-linecap:round; stroke-linejoin:round;">
<circle cx="9996.77" cy="5275.59" r="118.11" /> 
</g>
<g style="fill:#000000; fill-opacity:1.0; 
stroke:#000000; stroke-width:39.3701; stroke-opacity:1; 
stroke-linecap:round; stroke-linejoin:round;">
</g>
<g style="fill:#000000; fill-opacity:1.0; 
stroke:#000000; stroke-width:0; stroke-opacity:1; 
stroke-linecap:round; stroke-linejoin:round;">
<circle cx="9996.77" cy="5826.77" r="118.11" /> 
</g>
<g style="fill:#000000; fill-opacity:1.0; 
stroke:#000000; stroke-width:39.3701; stroke-opacity:1; 
stroke-linecap:round; stroke-linejoin:round;">
</g>
<g style="fill:#000000; fill-opacity:1.0; 
stroke:#000000; stroke-width:0; stroke-opacity:1; 
stroke-linecap:round; stroke-linejoin:round;">
<circle cx="8500.71" cy="6732.28" r="118.11" /> 
</g>
<g style="fill:#000000; fill-opacity:1.0; 
stroke:#000000; stroke-width:39.3701; stroke-opacity:1; 
stroke-linecap:round; stroke-linejoin:round;">
</g>
<g style="fill:#000000; fill-opacity:1.0; 
stroke:#000000; stroke-width:0; stroke-opacity:1; 
stroke-linecap:round; stroke-linejoin:round;">
<circle cx="10902.3" cy="4370.08" r="118.11" /> 
</g>
<g style="fill:#000000; fill-opacity:1.0; 
stroke:#000000; stroke-width:39.3701; stroke-opacity:1; 
stroke-linecap:round; stroke-linejoin:round;">
</g>
<g style="fill:#000000; fill-opacity:1.0; 
stroke:#000000; stroke-width:0; stroke-opacity:1; 
stroke-linecap:round; stroke-linejoin:round;">
<circle cx="9642.44" cy="4370.08" r="118.11" /> 
</g>
<g style="fill:#000000; fill-opacity:1.0; 
stroke:#000000; stroke-width:39.3701; stroke-opacity:1; 
stroke-linecap:round; stroke-linejoin:round;">
</g>
<g style="fill:#000000; fill-opacity:1.0; 
stroke:#000000; stroke-width:0; stroke-opacity:1; 
stroke-linecap:round; stroke-linejoin:round;">
<circle cx="10902.3" cy="5669.29" r="118.11" /> 
</g>
<g style="fill:#000000; fill-opacity:1.0; 
stroke:#000000; stroke-width:39.3701; stroke-opacity:1; 
stroke-linecap:round; stroke-linejoin:round;">
</g>
<g style="fill:#000000; fill-opacity:1.0; 
stroke:#000000; stroke-width:0; stroke-opacity:1; 
stroke-linecap:round; stroke-linejoin:round;">
<circle cx="9484.96" cy="6417.32" r="118.11" /> 
</g>
<g style="fill:#000000; fill-opacity:1.0; 
stroke:#000000; stroke-width:39.3701; stroke-opacity:1; 
stroke-linecap:round; stroke-linejoin:round;">
</g>
<g style="fill:#000000; fill-opacity:1.0; 
stroke:#000000; stroke-width:0; stroke-opacity:1; 
stroke-linecap:round; stroke-linejoin:round;">
<circle cx="6886.54" cy="10118.1" r="118.11" /> 
</g>
<g style="fill:#000000; fill-opacity:1.0; 
stroke:#000000; stroke-width:39.3701; stroke-opacity:1; 
stroke-linecap:round; stroke-linejoin:round;">
</g>
<g style="fill:#000000; fill-opacity:1.0; 
stroke:#000000; stroke-width:0; stroke-opacity:1; 
stroke-linecap:round; stroke-linejoin:round;">
<circle cx="14799.9" cy="8858.27" r="118.11" /> 
</g>
<g style="fill:#000000; fill-opacity:1.0; 
stroke:#000000; stroke-width:39.3701; stroke-opacity:1; 
stroke-linecap:round; stroke-linejoin:round;">
</g>
<g style="fill:#000000; fill-opacity:1.0; 
stroke:#000000; stroke-width:0; stroke-opacity:1; 
stroke-linecap:round; stroke-linejoin:round;">
<circle cx="11532.2" cy="6141.73" r="118.11" /> 
</g>
<g style="fill:#000000; fill-opacity:1.0; 
stroke:#000000; stroke-width:39.3701; stroke-opacity:1; 
stroke-linecap:round; stroke-linejoin:round;">
</g>
<g style="fill:#000000; fill-opacity:1.0; 
stroke:#000000; stroke-width:0; stroke-opacity:1; 
stroke-linecap:round; stroke-linejoin:round;">
<circle cx="7201.5" cy="7440.95" r="118.11" /> 
</g>
<g style="fill:#000000; fill-opacity:1.0; 
stroke:#000000; stroke-width:39.3701; stroke-opacity:1; 
stroke-linecap:round; stroke-linejoin:round;">
</g>
<g style="fill:#000000; fill-opacity:1.0; 
stroke:#000000; stroke-width:0; stroke-opacity:1; 
stroke-linecap:round; stroke-linejoin:round;">
<circle cx="4209.37" cy="6574.8" r="118.11" /> 
</g>
<g style="fill:#000000; fill-opacity:1.0; 
stroke:#000000; stroke-width:39.3701; stroke-opacity:1; 
stroke-linecap:round; stroke-linejoin:round;">
</g>
<g style="fill:#000000; fill-opacity:1.0; 
stroke:#000000; stroke-width:0; stroke-opacity:1; 
stroke-linecap:round; stroke-linejoin:round;">
<circle cx="7437.72" cy="8622.05" r="118.11" /> 
</g>
<g style="fill:#000000; fill-opacity:1.0; 
stroke:#000000; stroke-width:39.3701; stroke-opacity:1; 
stroke-linecap:round; stroke-linejoin:round;">
</g>
<g style="fill:#000000; fill-opacity:1.0; 
stroke:#000000; stroke-width:0; stroke-opacity:1; 
stroke-linecap:round; stroke-linejoin:round;">
<circle cx="5626.69" cy="8622.05" r="118.11" /> 
</g>
<g style="fill:#000000; fill-opacity:1.0; 
stroke:#000000; stroke-width:39.3701; stroke-opacity:1; 
stroke-linecap:round; stroke-linejoin:round;">
</g>
<g style="fill:#000000; fill-opacity:1.0; 
stroke:#000000; stroke-width:0; stroke-opacity:1; 
stroke-linecap:round; stroke-linejoin:round;">
<circle cx="5311.73" cy="8937.01" r="118.11" /> 
</g>
<g style="fill:#000000; fill-opacity:1.0; 
stroke:#000000; stroke-width:39.3701; stroke-opacity:1; 
stroke-linecap:round; stroke-linejoin:round;">
</g>
<g style="fill:#000000; fill-opacity:1.0; 
stroke:#000000; stroke-width:0; stroke-opacity:1; 
stroke-linecap:round; stroke-linejoin:round;">
<circle cx="7910.16" cy="8937.01" r="118.11" /> 
</g>
<g style="fill:#000000; fill-opacity:1.0; 
stroke:#000000; stroke-width:39.3701; stroke-opacity:1; 
stroke-linecap:round; stroke-linejoin:round;">
</g>
<g style="fill:#000000; fill-opacity:1.0; 
stroke:#000000; stroke-width:0; stroke-opacity:1; 
stroke-linecap:round; stroke-linejoin:round;">
<circle cx="7910.16" cy="9251.97" r="118.11" /> 
</g>
<g style="fill:#000000; fill-opacity:1.0; 
stroke:#000000; stroke-width:39.3701; stroke-opacity:1; 
stroke-linecap:round; stroke-linejoin:round;">
</g>
<g style="fill:#000000; fill-opacity:1.0; 
stroke:#000000; stroke-width:0; stroke-opacity:1; 
stroke-linecap:round; stroke-linejoin:round;">
<circle cx="5311.73" cy="9251.97" r="118.11" /> 
</g>
<g style="fill:#000000; fill-opacity:1.0; 
stroke:#000000; stroke-width:39.3701; stroke-opacity:1; 
stroke-linecap:round; stroke-linejoin:round;">
</g>
<g style="fill:#000000; fill-opacity:1.0; 
stroke:#000000; stroke-width:196.85; stroke-opacity:1; 
stroke-linecap:round; stroke-linejoin:round;">
</g>
<g style="fill:#000000; fill-opacity:0.0; 
stroke:#000000; stroke-width:196.85; stroke-opacity:1; 
stroke-linecap:round; stroke-linejoin:round;">
<path d="M9170 3897
L8421 3897
" />
<path d="M8421 3897
L8421 3897
" />
<path d="M16256 3897
L9170 3897
" />
<path d="M2870 7913
L2870 6458
" />
<path d="M3510 7204
L3658 7204
" />
<path d="M3185 7362
L3352 7362
" />
<path d="M3352 7362
L3510 7204
" />
</g>
<g style="fill:#000000; fill-opacity:0.0; 
stroke:#000000; stroke-width:78.7402; stroke-opacity:1; 
stroke-linecap:round; stroke-linejoin:round;">
<path d="M11512 7625
L13213 7625
" />
<path d="M13213 7625
L14445 8858
" />
<path d="M17831 6417
L17831 5866
" />
<path d="M17831 5866
L17516 5551
" />
<path d="M17831 8385
L17831 6417
" />
<path d="M14209 6968
L15547 8307
" />
<path d="M9996 5275
L10213 5059
" />
<path d="M10213 5059
L10902 5059
" />
<path d="M8500 6535
L9209 5826
" />
<path d="M9209 5826
L9996 5826
" />
<path d="M8500 6732
L8500 6535
" />
<path d="M10902 4370
L10735 4370
" />
<path d="M10735 4370
L9642 4370
" />
<path d="M9484 6417
L10154 6417
" />
<path d="M10154 6417
L10902 5669
" />
<path d="M13739 10666
L13658 10666
" />
<path d="M13658 10666
L8343 10666
" />
<path d="M15075 9960
L14369 10666
" />
<path d="M14369 10666
L13658 10666
" />
<path d="M15075 9133
L15075 9960
" />
<path d="M14799 8858
L15075 9133
" />
<path d="M8343 10666
L8300 10666
" />
<path d="M8343 10666
L7434 10666
" />
<path d="M7434 10666
L6886 10118
" />
<path d="M11532 6141
L11532 6606
" />
<path d="M11532 6606
L11512 6625
" />
<path d="M11484 6653
L11512 6625
" />
<path d="M4209 6574
L5075 7440
" />
<path d="M5075 7440
L7201 7440
" />
<path d="M5626 8622
L7437 8622
" />
<path d="M7910 8937
L5311 8937
" />
<path d="M5311 9251
L7910 9251
" />
</g>
<g style="fill:#FFFFFF; fill-opacity:0.0; 
stroke:#FFFFFF; stroke-width:78.7402; stroke-opacity:1; 
stroke-linecap:round; stroke-linejoin:round;">
</g>
<g style="fill:#FFFFFF; fill-opacity:1.0; 
stroke:#FFFFFF; stroke-width:0; stroke-opacity:1; 
stroke-linecap:round; stroke-linejoin:round;">
<circle cx="8421.97" cy="3897.64" r="78.7402" /> 
</g>
<g style="fill:#FFFFFF; fill-opacity:1.0; 
stroke:#FFFFFF; stroke-width:39.3701; stroke-opacity:1; 
stroke-linecap:round; stroke-linejoin:round;">
</g>
<g style="fill:#FFFFFF; fill-opacity:1.0; 
stroke:#FFFFFF; stroke-width:0; stroke-opacity:1; 
stroke-linecap:round; stroke-linejoin:round;">
<circle cx="16256.6" cy="3897.64" r="78.7402" /> 
</g>
<g style="fill:#FFFFFF; fill-opacity:1.0; 
stroke:#FFFFFF; stroke-width:39.3701; stroke-opacity:1; 
stroke-linecap:round; stroke-linejoin:round;">
</g>
<g style="fill:#FFFFFF; fill-opacity:1.0; 
stroke:#FFFFFF; stroke-width:0; stroke-opacity:1; 
stroke-linecap:round; stroke-linejoin:round;">
<circle cx="2870.79" cy="6458.91" r="78.7402" /> 
</g>
<g style="fill:#FFFFFF; fill-opacity:1.0; 
stroke:#FFFFFF; stroke-width:39.3701; stroke-opacity:1; 
stroke-linecap:round; stroke-linejoin:round;">
</g>
<g style="fill:#FFFFFF; fill-opacity:1.0; 
stroke:#FFFFFF; stroke-width:0; stroke-opacity:1; 
stroke-linecap:round; stroke-linejoin:round;">
<circle cx="2870.79" cy="7913.39" r="78.7402" /> 
</g>
<g style="fill:#FFFFFF; fill-opacity:1.0; 
stroke:#FFFFFF; stroke-width:39.3701; stroke-opacity:1; 
stroke-linecap:round; stroke-linejoin:round;">
</g>
<g style="fill:#FFFFFF; fill-opacity:1.0; 
stroke:#FFFFFF; stroke-width:0; stroke-opacity:1; 
stroke-linecap:round; stroke-linejoin:round;">
<circle cx="3185.75" cy="7362.21" r="78.7402" /> 
</g>
<g style="fill:#FFFFFF; fill-opacity:1.0; 
stroke:#FFFFFF; stroke-width:39.3701; stroke-opacity:1; 
stroke-linecap:round; stroke-linejoin:round;">
</g>
<g style="fill:#FFFFFF; fill-opacity:1.0; 
stroke:#FFFFFF; stroke-width:0; stroke-opacity:1; 
stroke-linecap:round; stroke-linejoin:round;">
<circle cx="14445.6" cy="8858.27" r="78.7402" /> 
</g>
<g style="fill:#FFFFFF; fill-opacity:1.0; 
stroke:#FFFFFF; stroke-width:39.3701; stroke-opacity:1; 
stroke-linecap:round; stroke-linejoin:round;">
</g>
<g style="fill:#FFFFFF; fill-opacity:1.0; 
stroke:#FFFFFF; stroke-width:0; stroke-opacity:1; 
stroke-linecap:round; stroke-linejoin:round;">
<circle cx="17516.5" cy="5551.18" r="78.7402" /> 
</g>
<g style="fill:#FFFFFF; fill-opacity:1.0; 
stroke:#FFFFFF; stroke-width:39.3701; stroke-opacity:1; 
stroke-linecap:round; stroke-linejoin:round;">
</g>
<g style="fill:#FFFFFF; fill-opacity:1.0; 
stroke:#FFFFFF; stroke-width:0; stroke-opacity:1; 
stroke-linecap:round; stroke-linejoin:round;">
<circle cx="17831.4" cy="8385.83" r="78.7402" /> 
</g>
<g style="fill:#FFFFFF; fill-opacity:1.0; 
stroke:#FFFFFF; stroke-width:39.3701; stroke-opacity:1; 
stroke-linecap:round; stroke-linejoin:round;">
</g>
<g style="fill:#FFFFFF; fill-opacity:1.0; 
stroke:#FFFFFF; stroke-width:0; stroke-opacity:1; 
stroke-linecap:round; stroke-linejoin:round;">
<circle cx="15548" cy="8307.09" r="78.7402" /> 
</g>
<g style="fill:#FFFFFF; fill-opacity:1.0; 
stroke:#FFFFFF; stroke-width:39.3701; stroke-opacity:1; 
stroke-linecap:round; stroke-linejoin:round;">
</g>
<g style="fill:#FFFFFF; fill-opacity:1.0; 
stroke:#FFFFFF; stroke-width:0; stroke-opacity:1; 
stroke-linecap:round; stroke-linejoin:round;">
<circle cx="14209.4" cy="6968.5" r="78.7402" /> 
</g>
<g style="fill:#FFFFFF; fill-opacity:1.0; 
stroke:#FFFFFF; stroke-width:39.3701; stroke-opacity:1; 
stroke-linecap:round; stroke-linejoin:round;">
</g>
<g style="fill:#FFFFFF; fill-opacity:1.0; 
stroke:#FFFFFF; stroke-width:0; stroke-opacity:1; 
stroke-linecap:round; stroke-linejoin:round;">
<circle cx="10902.3" cy="5059.06" r="78.7402" /> 
</g>
<g style="fill:#FFFFFF; fill-opacity:1.0; 
stroke:#FFFFFF; stroke-width:39.3701; stroke-opacity:1; 
stroke-linecap:round; stroke-linejoin:round;">
</g>
<g style="fill:#FFFFFF; fill-opacity:1.0; 
stroke:#FFFFFF; stroke-width:0; stroke-opacity:1; 
stroke-linecap:round; stroke-linejoin:round;">
<circle cx="9996.77" cy="5275.59" r="78.7402" /> 
</g>
<g style="fill:#FFFFFF; fill-opacity:1.0; 
stroke:#FFFFFF; stroke-width:39.3701; stroke-opacity:1; 
stroke-linecap:round; stroke-linejoin:round;">
</g>
<g style="fill:#FFFFFF; fill-opacity:1.0; 
stroke:#FFFFFF; stroke-width:0; stroke-opacity:1; 
stroke-linecap:round; stroke-linejoin:round;">
<circle cx="9996.77" cy="5826.77" r="78.7402" /> 
</g>
<g style="fill:#FFFFFF; fill-opacity:1.0; 
stroke:#FFFFFF; stroke-width:39.3701; stroke-opacity:1; 
stroke-linecap:round; stroke-linejoin:round;">
</g>
<g style="fill:#FFFFFF; fill-opacity:1.0; 
stroke:#FFFFFF; stroke-width:0; stroke-opacity:1; 
stroke-linecap:round; stroke-linejoin:round;">
<circle cx="8500.71" cy="6732.28" r="78.7402" /> 
</g>
<g style="fill:#FFFFFF; fill-opacity:1.0; 
stroke:#FFFFFF; stroke-width:39.3701; stroke-opacity:1; 
stroke-linecap:round; stroke-linejoin:round;">
</g>
<g style="fill:#FFFFFF; fill-opacity:1.0; 
stroke:#FFFFFF; stroke-width:0; stroke-opacity:1; 
stroke-linecap:round; stroke-linejoin:round;">
<circle cx="10902.3" cy="4370.08" r="78.7402" /> 
</g>
<g style="fill:#FFFFFF; fill-opacity:1.0; 
stroke:#FFFFFF; stroke-width:39.3701; stroke-opacity:1; 
stroke-linecap:round; stroke-linejoin:round;">
</g>
<g style="fill:#FFFFFF; fill-opacity:1.0; 
stroke:#FFFFFF; stroke-width:0; stroke-opacity:1; 
stroke-linecap:round; stroke-linejoin:round;">
<circle cx="9642.44" cy="4370.08" r="78.7402" /> 
</g>
<g style="fill:#FFFFFF; fill-opacity:1.0; 
stroke:#FFFFFF; stroke-width:39.3701; stroke-opacity:1; 
stroke-linecap:round; stroke-linejoin:round;">
</g>
<g style="fill:#FFFFFF; fill-opacity:1.0; 
stroke:#FFFFFF; stroke-width:0; stroke-opacity:1; 
stroke-linecap:round; stroke-linejoin:round;">
<circle cx="10902.3" cy="5669.29" r="78.7402" /> 
</g>
<g style="fill:#FFFFFF; fill-opacity:1.0; 
stroke:#FFFFFF; stroke-width:39.3701; stroke-opacity:1; 
stroke-linecap:round; stroke-linejoin:round;">
</g>
<g style="fill:#FFFFFF; fill-opacity:1.0; 
stroke:#FFFFFF; stroke-width:0; stroke-opacity:1; 
stroke-linecap:round; stroke-linejoin:round;">
<circle cx="9484.96" cy="6417.32" r="78.7402" /> 
</g>
<g style="fill:#FFFFFF; fill-opacity:1.0; 
stroke:#FFFFFF; stroke-width:39.3701; stroke-opacity:1; 
stroke-linecap:round; stroke-linejoin:round;">
</g>
<g style="fill:#FFFFFF; fill-opacity:1.0; 
stroke:#FFFFFF; stroke-width:0; stroke-opacity:1; 
stroke-linecap:round; stroke-linejoin:round;">
<circle cx="6886.54" cy="10118.1" r="78.7402" /> 
</g>
<g style="fill:#FFFFFF; fill-opacity:1.0; 
stroke:#FFFFFF; stroke-width:39.3701; stroke-opacity:1; 
stroke-linecap:round; stroke-linejoin:round;">
</g>
<g style="fill:#FFFFFF; fill-opacity:1.0; 
stroke:#FFFFFF; stroke-width:0; stroke-opacity:1; 
stroke-linecap:round; stroke-linejoin:round;">
<circle cx="14799.9" cy="8858.27" r="78.7402" /> 
</g>
<g style="fill:#FFFFFF; fill-opacity:1.0; 
stroke:#FFFFFF; stroke-width:39.3701; stroke-opacity:1; 
stroke-linecap:round; stroke-linejoin:round;">
</g>
<g style="fill:#FFFFFF; fill-opacity:1.0; 
stroke:#FFFFFF; stroke-width:0; stroke-opacity:1; 
stroke-linecap:round; stroke-linejoin:round;">
<circle cx="11532.2" cy="6141.73" r="78.7402" /> 
</g>
<g style="fill:#FFFFFF; fill-opacity:1.0; 
stroke:#FFFFFF; stroke-width:39.3701; stroke-opacity:1; 
stroke-linecap:round; stroke-linejoin:round;">
</g>
<g style="fill:#FFFFFF; fill-opacity:1.0; 
stroke:#FFFFFF; stroke-width:0; stroke-opacity:1; 
stroke-linecap:round; stroke-linejoin:round;">
<circle cx="7201.5" cy="7440.95" r="78.7402" /> 
</g>
<g style="fill:#FFFFFF; fill-opacity:1.0; 
stroke:#FFFFFF; stroke-width:39.3701; stroke-opacity:1; 
stroke-linecap:round; stroke-linejoin:round;">
</g>
<g style="fill:#FFFFFF; fill-opacity:1.0; 
stroke:#FFFFFF; stroke-width:0; stroke-opacity:1; 
stroke-linecap:round; stroke-linejoin:round;">
<circle cx="4209.37" cy="6574.8" r="78.7402" /> 
</g>
<g style="fill:#FFFFFF; fill-opacity:1.0; 
stroke:#FFFFFF; stroke-width:39.3701; stroke-opacity:1; 
stroke-linecap:round; stroke-linejoin:round;">
</g>
<g style="fill:#FFFFFF; fill-opacity:1.0; 
stroke:#FFFFFF; stroke-width:0; stroke-opacity:1; 
stroke-linecap:round; stroke-linejoin:round;">
<circle cx="7437.72" cy="8622.05" r="78.7402" /> 
</g>
<g style="fill:#FFFFFF; fill-opacity:1.0; 
stroke:#FFFFFF; stroke-width:39.3701; stroke-opacity:1; 
stroke-linecap:round; stroke-linejoin:round;">
</g>
<g style="fill:#FFFFFF; fill-opacity:1.0; 
stroke:#FFFFFF; stroke-width:0; stroke-opacity:1; 
stroke-linecap:round; stroke-linejoin:round;">
<circle cx="5626.69" cy="8622.05" r="78.7402" /> 
</g>
<g style="fill:#FFFFFF; fill-opacity:1.0; 
stroke:#FFFFFF; stroke-width:39.3701; stroke-opacity:1; 
stroke-linecap:round; stroke-linejoin:round;">
</g>
<g style="fill:#FFFFFF; fill-opacity:1.0; 
stroke:#FFFFFF; stroke-width:0; stroke-opacity:1; 
stroke-linecap:round; stroke-linejoin:round;">
<circle cx="5311.73" cy="8937.01" r="78.7402" /> 
</g>
<g style="fill:#FFFFFF; fill-opacity:1.0; 
stroke:#FFFFFF; stroke-width:39.3701; stroke-opacity:1; 
stroke-linecap:round; stroke-linejoin:round;">
</g>
<g style="fill:#FFFFFF; fill-opacity:1.0; 
stroke:#FFFFFF; stroke-width:0; stroke-opacity:1; 
stroke-linecap:round; stroke-linejoin:round;">
<circle cx="7910.16" cy="8937.01" r="78.7402" /> 
</g>
<g style="fill:#FFFFFF; fill-opacity:1.0; 
stroke:#FFFFFF; stroke-width:39.3701; stroke-opacity:1; 
stroke-linecap:round; stroke-linejoin:round;">
</g>
<g style="fill:#FFFFFF; fill-opacity:1.0; 
stroke:#FFFFFF; stroke-width:0; stroke-opacity:1; 
stroke-linecap:round; stroke-linejoin:round;">
<circle cx="7910.16" cy="9251.97" r="78.7402" /> 
</g>
<g style="fill:#FFFFFF; fill-opacity:1.0; 
stroke:#FFFFFF; stroke-width:39.3701; stroke-opacity:1; 
stroke-linecap:round; stroke-linejoin:round;">
</g>
<g style="fill:#FFFFFF; fill-opacity:1.0; 
stroke:#FFFFFF; stroke-width:0; stroke-opacity:1; 
stroke-linecap:round; stroke-linejoin:round;">
<circle cx="5311.73" cy="9251.97" r="78.7402" /> 
</g>
<g style="fill:#FFFFFF; fill-opacity:1.0; 
stroke:#FFFFFF; stroke-width:39.3701; stroke-opacity:1; 
stroke-linecap:round; stroke-linejoin:round;">
</g>
<g style="fill:#FFFFFF; fill-opacity:1.0; 
stroke:#FFFFFF; stroke-width:0; stroke-opacity:1; 
stroke-linecap:round; stroke-linejoin:round;">
<circle cx="7250.71" cy="5314.96" r="590.551" /> 
</g>
<g style="fill:#FFFFFF; fill-opacity:1.0; 
stroke:#FFFFFF; stroke-width:39.3701; stroke-opacity:1; 
stroke-linecap:round; stroke-linejoin:round;">
</g>
<g style="fill:#000000; fill-opacity:1.0; 
stroke:#000000; stroke-width:39.3701; stroke-opacity:1; 
stroke-linecap:round; stroke-linejoin:round;">
</g>
<g style="fill:#000000; fill-opacity:0.0; 
stroke:#000000; stroke-width:39.3701; stroke-opacity:1; 
stroke-linecap:round; stroke-linejoin:round;">
</g>
<g style="fill:#000000; fill-opacity:0.0; 
stroke:#000000; stroke-width:59.0551; stroke-opacity:1; 
stroke-linecap:round; stroke-linejoin:round;">
<path d="M7895 8586
L7988 8473
" />
<path d="M8063 8586
L8063 8323
L7951 8323
L7913 8342
L7895 8380
L7895 8417
L7913 8455
L7951 8473
L8063 8473
" />
<path d="M7988 8192
L8082 8211
L8176 8267
L8232 8361
L8251 8455
L8232 8548
L8176 8642
L8082 8698
L7988 8717
L7895 8698
L7801 8642
L7745 8548
L7726 8455
L7745 8361
L7801 8267
L7895 8211
L7988 8192
" />
</g>
<g style="fill:#000000; fill-opacity:0.0; 
stroke:#000000; stroke-width:82.6772; stroke-opacity:1; 
stroke-linecap:round; stroke-linejoin:round;">
<path d="M12907 9204
L12907 8613
L12569 9204
L12569 8613
" />
<path d="M12063 9176
L12119 9204
L12232 9204
L12288 9176
L12316 9119
L12316 8894
L12288 8838
L12232 8810
L12119 8810
L12063 8838
L12035 8894
L12035 8951
L12316 9007
" />
<path d="M11529 8810
L11529 9204
" />
<path d="M11782 8810
L11782 9119
L11754 9176
L11698 9204
L11613 9204
L11557 9176
L11529 9147
" />
<path d="M11248 9204
L11248 8810
" />
<path d="M11248 8922
L11220 8866
L11191 8838
L11135 8810
L11079 8810
" />
<path d="M10798 9204
L10854 9176
L10882 9147
L10910 9091
L10910 8922
L10882 8866
L10854 8838
L10798 8810
L10713 8810
L10657 8838
L10629 8866
L10601 8922
L10601 9091
L10629 9147
L10657 9176
L10713 9204
L10798 9204
" />
<path d="M10151 8894
L10067 8922
L10038 8951
L10010 9007
L10010 9091
L10038 9147
L10067 9176
L10123 9204
L10348 9204
L10348 8613
L10151 8613
L10095 8641
L10067 8669
L10038 8726
L10038 8782
L10067 8838
L10095 8866
L10151 8894
L10348 8894
" />
<path d="M9813 8810
L9673 9204
" />
<path d="M9532 8810
L9673 9204
L9729 9344
L9757 9372
L9813 9401
" />
<path d="M9392 8810
L9167 8810
" />
<path d="M9307 8613
L9307 9119
L9279 9176
L9223 9204
L9167 9204
" />
<path d="M8745 9176
L8801 9204
L8914 9204
L8970 9176
L8998 9119
L8998 8894
L8970 8838
L8914 8810
L8801 8810
L8745 8838
L8717 8894
L8717 8951
L8998 9007
" />
<path d="M8492 9176
L8436 9204
L8323 9204
L8267 9176
L8239 9119
L8239 9091
L8267 9035
L8323 9007
L8407 9007
L8464 8979
L8492 8922
L8492 8894
L8464 8838
L8407 8810
L8323 8810
L8267 8838
" />
</g>
<g style="fill:#000000; fill-opacity:1.0; 
stroke:#000000; stroke-width:3.93701; stroke-opacity:1; 
stroke-linecap:round; stroke-linejoin:round;">
<polyline style="fill-rule:evenodd;"
points="7070,3785
6834,3827
6612,3907
6404,4024
6210,4179
6125,4262
5976,4445
5859,4643
5773,4854
5720,5072
5701,5291
5716,5509
5767,5719
5820,5850
5944,6068
6101,6269
6284,6448
6488,6598
6667,6696
6742,6726
6839,6759
6946,6791
7006,6807
7147,6847
7253,6891
7333,6943
7392,7008
7423,7059
7448,7115
7479,7194
7514,7290
7549,7392
7582,7493
7610,7584
7631,7657
7640,7703
7640,7708
7621,7758
7567,7797
7479,7823
7460,7826
7407,7835
7325,7851
7225,7872
7117,7895
7100,7898
6813,7957
6552,7998
6310,8023
6077,8034
6015,8034
5813,8029
5626,8010
5446,7976
5263,7924
5071,7853
4859,7760
4743,7704
4607,7635
4462,7557
4316,7475
4175,7391
4044,7311
3928,7236
3835,7171
3770,7120
3755,7106
3728,7058
3713,6978
3708,6864
3713,6715
3730,6532
3757,6311
3795,6054
3812,5949
3842,5755
3863,5589
3875,5442
3879,5303
3874,5163
3861,5012
3850,4904
3839,4797
3832,4695
3829,4609
3831,4551
3831,4550
3834,4481
3817,4445
3776,4438
3710,4454
3644,4489
3603,4537
3588,4589
3602,4637
3647,4673
3652,4675
3681,4691
3704,4717
3722,4760
3738,4824
3752,4915
3766,5038
3772,5093
3786,5278
3787,5431
3775,5560
3748,5673
3721,5744
3697,5798
3673,5837
3643,5865
3602,5882
3542,5891
3460,5894
3347,5892
3245,5888
3035,5877
2859,5860
2720,5838
2618,5809
2568,5785
2510,5758
2464,5765
2432,5799
2403,5869
2414,5938
2438,5977
2476,6023
2546,5985
2579,5969
2612,5960
2652,5957
2709,5960
2793,5969
2844,5975
2955,5985
3089,5995
3229,6001
3356,6003
3473,6005
3556,6008
3611,6013
3644,6021
3660,6033
3661,6034
3675,6084
3679,6169
3672,6286
3655,6433
3651,6464
3637,6578
3627,6702
3621,6817
3621,6847
3616,7000
3601,7123
3574,7224
3533,7310
3511,7344
3444,7449
3400,7539
3374,7628
3363,7731
3361,7820
3356,7949
3342,8046
3315,8120
3274,8177
3260,8190
3240,8206
3216,8217
3181,8225
3127,8229
3049,8231
2940,8231
2903,8231
2776,8232
2645,8237
2523,8243
2424,8251
2403,8253
2311,8263
2250,8266
2209,8262
2179,8251
2168,8245
2110,8218
2070,8225
2048,8266
2045,8322
2059,8371
2085,8401
2116,8403
2194,8378
2298,8357
2420,8340
2552,8328
2687,8321
2817,8319
2935,8323
3033,8333
3104,8349
3131,8362
3145,8377
3149,8397
3139,8432
3114,8488
3085,8546
3041,8637
2998,8734
2965,8818
2960,8829
2929,8910
2899,8960
2864,8991
2817,9009
2808,9012
2750,9041
2725,9085
2733,9136
2772,9188
2839,9234
2927,9269
2990,9274
3029,9246
3044,9188
3034,9098
3023,9028
3025,8964
3039,8888
3047,8859
3082,8749
3128,8635
3182,8524
3240,8423
3299,8338
3354,8275
3401,8239
3422,8234
3484,8253
3553,8306
3625,8387
3698,8493
3769,8619
3834,8759
3891,8909
3932,9050
3963,9188
3977,9299
3974,9387
3955,9462
3941,9493
3918,9542
3913,9570
3926,9591
3938,9602
3991,9627
4064,9632
4138,9615
4165,9603
4210,9564
4215,9517
4182,9461
4164,9441
4132,9400
4104,9342
4078,9259
4061,9194
4007,8986
3953,8808
3895,8652
3829,8507
3752,8364
3659,8215
3651,8204
3572,8077
3516,7972
3481,7880
3465,7795
3465,7708
3466,7692
3492,7569
3551,7452
3645,7333
3648,7330
3675,7301
3698,7282
3723,7272
3754,7274
3796,7289
3853,7319
3932,7365
4036,7430
4144,7497
4428,7668
4690,7810
4931,7923
5136,8002
5287,8052
5419,8089
5542,8115
5668,8131
5808,8140
5973,8142
6030,8142
6192,8139
6353,8132
6518,8119
6691,8101
6878,8076
7082,8045
7309,8005
7563,7958
7849,7901
7990,7872
8210,7826
8397,7787
8558,7752
8699,7720
8826,7688
8947,7655
9067,7620
9193,7580
9331,7534
9489,7479
9671,7415
9720,7398
9856,7356
10007,7320
10178,7291
10372,7268
10593,7251
10842,7239
11125,7232
11431,7230
11614,7230
11809,7232
12007,7234
12197,7237
12367,7241
12498,7244
12946,7259
12931,7182
12920,7130
12909,7098
12907,7094
12886,7093
12828,7091
12738,7089
12618,7088
12473,7087
12305,7086
12120,7085
11919,7085
11764,7084
11454,7085
11181,7087
10941,7090
10730,7096
10544,7103
10381,7114
10235,7127
10104,7144
9984,7164
9871,7188
9762,7217
9653,7250
9540,7289
9520,7296
9293,7374
9069,7445
8852,7508
8647,7562
8456,7606
8284,7640
8134,7662
8011,7672
7917,7670
7859,7654
7815,7610
7770,7529
7726,7411
7688,7279
7660,7155
7645,7060
7643,6988
7655,6929
7670,6896
7700,6853
7757,6793
7842,6716
7955,6620
8100,6503
8140,6471
8331,6309
8484,6150
8602,5989
8689,5823
8746,5648
8750,5622
8277,5622
8237,5723
8214,5780
8196,5820
8190,5831
8169,5831
8119,5823
8054,5809
7924,5779
7811,5894
7698,6008
7728,6136
7741,6203
7748,6253
7747,6274
7723,6288
7677,6309
7623,6331
7577,6348
7555,6353
7537,6338
7507,6298
7478,6254
7417,6154
7244,6154
7070,6155
7012,6249
6979,6303
6955,6341
6947,6352
6928,6349
6882,6334
6833,6316
6725,6272
6755,6141
6785,6010
6678,5901
6629,5852
6594,5821
6561,5805
6520,5803
6460,5811
6371,5827
6371,5827
6329,5832
6303,5823
6282,5792
6261,5745
6238,5689
6223,5648
6220,5637
6236,5620
6277,5590
6320,5564
6420,5504
6420,5158
6320,5096
6267,5061
6230,5031
6220,5017
6228,4990
6247,4940
6262,4906
6292,4848
6318,4823
6337,4823
6375,4833
6436,4847
6469,4855
6568,4876
6676,4769
6783,4661
6751,4537
6736,4470
6729,4419
6730,4395
6754,4378
6802,4355
6833,4342
6926,4307
6973,4366
7007,4413
7029,4453
7031,4457
7053,4478
7105,4494
7164,4502
7261,4511
7328,4514
7373,4506
7406,4486
7437,4450
7467,4405
7540,4296
7640,4338
7696,4365
7732,4389
7740,4401
7737,4431
7727,4486
7716,4538
7692,4655
7791,4756
7838,4803
7876,4833
7915,4847
7965,4849
8036,4839
8121,4824
8163,4818
8188,4826
8206,4856
8226,4908
8246,4965
8258,5006
8260,5016
8245,5033
8204,5062
8160,5091
8060,5153
8060,5492
8277,5622
8750,5622
8775,5458
8780,5320
8770,5129
8738,4954
8680,4778
8620,4644
8494,4428
8340,4240
8161,4081
7960,3953
7740,3859
7502,3800
7320,3780
7070,3785
" /> 
<polyline style="fill-rule:evenodd;"
points="7103,4819
6983,4869
6878,4948
6793,5056
6767,5104
6726,5236
6720,5372
6747,5505
6804,5626
6891,5727
6917,5748
7036,5815
7171,5850
7310,5852
7428,5825
7544,5764
7641,5672
7714,5559
7758,5431
7768,5339
7754,5197
7704,5074
7618,4963
7602,4947
7486,4864
7361,4816
7231,4801
7103,4819
" /> 
</g>
<g style="fill:#000000; fill-opacity:1.0; 
stroke:#000000; stroke-width:0; stroke-opacity:1; 
stroke-linecap:round; stroke-linejoin:round;">
<polyline style="fill-rule:evenodd;"
points="10725,7822
12299,7822
12299,7429
10725,7429
10725,7822
" /> 
<polyline style="fill-rule:evenodd;"
points="10725,6822
12299,6822
12299,6429
10725,6429
10725,6822
" /> 
</g>
<g style="fill:#000000; fill-opacity:0.0; 
stroke:#000000; stroke-width:0; stroke-opacity:1; 
stroke-linecap:round; stroke-linejoin:round;">
</g>
<g style="fill:#000000; fill-opacity:0.0; 
stroke:#000000; stroke-width:59.0551; stroke-opacity:1; 
stroke-linecap:round; stroke-linejoin:round;">
<path d="M12855 10191
L12855 10453
" />
<path d="M12855 10228
L12837 10209
L12799 10191
L12743 10191
L12705 10209
L12687 10247
L12687 10453
" />
<path d="M12349 10434
L12387 10453
L12462 10453
L12499 10434
L12518 10397
L12518 10247
L12499 10209
L12462 10191
L12387 10191
L12349 10209
L12330 10247
L12330 10284
L12518 10322
" />
<path d="M11993 10191
L11993 10453
" />
<path d="M12162 10191
L12162 10397
L12143 10434
L12105 10453
L12049 10453
L12012 10434
L11993 10416
" />
<path d="M11805 10453
L11805 10191
" />
<path d="M11805 10266
L11787 10228
L11768 10209
L11730 10191
L11693 10191
" />
<path d="M11505 10453
L11543 10434
L11562 10416
L11580 10378
L11580 10266
L11562 10228
L11543 10209
L11505 10191
L11449 10191
L11412 10209
L11393 10228
L11374 10266
L11374 10378
L11393 10416
L11412 10434
L11449 10453
L11505 10453
" />
<path d="M11262 10191
L11112 10191
" />
<path d="M11205 10059
L11205 10397
L11187 10434
L11149 10453
L11112 10453
" />
<path d="M10981 10453
L10981 10191
" />
<path d="M10981 10059
L10999 10078
L10981 10097
L10962 10078
L10981 10059
L10981 10097
" />
<path d="M10793 10191
L10793 10453
" />
<path d="M10793 10228
L10774 10209
L10737 10191
L10681 10191
L10643 10209
L10624 10247
L10624 10453
" />
<path d="M10437 10453
L10437 10059
" />
<path d="M10399 10303
L10287 10453
" />
<path d="M10287 10191
L10437 10341
" />
<path d="M9968 10434
L10006 10453
L10081 10453
L10118 10434
L10137 10397
L10137 10247
L10118 10209
L10081 10191
L10006 10191
L9968 10209
L9949 10247
L9949 10284
L10137 10322
" />
<path d="M9781 10453
L9781 10191
" />
<path d="M9781 10266
L9762 10228
L9743 10209
L9706 10191
L9668 10191
" />
<path d="M9537 10416
L9518 10434
L9537 10453
L9556 10434
L9537 10416
L9537 10453
" />
<path d="M9181 10434
L9218 10453
L9293 10453
L9331 10434
L9349 10416
L9368 10378
L9368 10266
L9349 10228
L9331 10209
L9293 10191
L9218 10191
L9181 10209
" />
<path d="M8956 10453
L8993 10434
L9012 10416
L9031 10378
L9031 10266
L9012 10228
L8993 10209
L8956 10191
L8900 10191
L8862 10209
L8843 10228
L8825 10266
L8825 10378
L8843 10416
L8862 10434
L8900 10453
L8956 10453
" />
<path d="M8656 10453
L8656 10191
" />
<path d="M8656 10228
L8637 10209
L8600 10191
L8543 10191
L8506 10209
L8487 10247
L8487 10453
" />
<path d="M8487 10247
L8468 10209
L8431 10191
L8375 10191
L8337 10209
L8318 10247
L8318 10453
" />
</g>
<g style="fill:#000000; fill-opacity:0.0; 
stroke:#000000; stroke-width:55.1181; stroke-opacity:1; 
stroke-linecap:round; stroke-linejoin:round;">
<path d="M14874 9902
L14825 9508
L14675 9508
L14640 9527
L14623 9546
L14609 9583
L14616 9640
L14640 9677
L14661 9696
L14701 9715
L14851 9715
" />
<path d="M14256 9902
L14363 9715
" />
<path d="M14480 9902
L14431 9508
L14281 9508
L14246 9527
L14230 9546
L14216 9583
L14223 9640
L14246 9677
L14267 9696
L14307 9715
L14457 9715
" />
<path d="M14061 9696
L13930 9696
" />
<path d="M13899 9902
L14087 9902
L14038 9508
L13850 9508
" />
<path d="M13747 9883
L13693 9902
L13599 9902
L13559 9883
L13538 9865
L13515 9827
L13510 9790
L13524 9752
L13541 9733
L13576 9715
L13649 9696
L13684 9677
L13700 9658
L13714 9621
L13709 9583
L13686 9546
L13665 9527
L13625 9508
L13531 9508
L13477 9527
" />
<path d="M13372 9883
L13318 9902
L13224 9902
L13185 9883
L13163 9865
L13140 9827
L13135 9790
L13149 9752
L13166 9733
L13201 9715
L13274 9696
L13309 9677
L13325 9658
L13339 9621
L13335 9583
L13311 9546
L13290 9527
L13250 9508
L13156 9508
L13103 9527
" />
<path d="M12931 9508
L12971 9827
L12957 9865
L12941 9883
L12906 9902
L12831 9902
L12791 9883
L12770 9865
L12746 9827
L12706 9508
" />
<path d="M12343 9902
L12451 9715
" />
<path d="M12568 9902
L12519 9508
L12369 9508
L12334 9527
L12317 9546
L12303 9583
L12310 9640
L12334 9677
L12355 9696
L12395 9715
L12545 9715
" />
<path d="M12149 9696
L12018 9696
" />
<path d="M11987 9902
L12175 9902
L12125 9508
L11938 9508
" />
<path d="M11535 9883
L11481 9902
L11387 9902
L11347 9883
L11326 9865
L11303 9827
L11298 9790
L11312 9752
L11329 9733
L11364 9715
L11436 9696
L11471 9677
L11488 9658
L11502 9621
L11497 9583
L11474 9546
L11453 9527
L11413 9508
L11319 9508
L11265 9527
" />
<path d="M11118 9696
L10986 9696
" />
<path d="M10956 9902
L11143 9902
L11094 9508
L10907 9508
" />
<path d="M10787 9902
L10738 9508
L10562 9902
L10513 9508
" />
<path d="M10391 9883
L10337 9902
L10244 9902
L10204 9883
L10183 9865
L10159 9827
L10154 9790
L10169 9752
L10185 9733
L10220 9715
L10293 9696
L10328 9677
L10344 9658
L10358 9621
L10354 9583
L10330 9546
L10309 9527
L10269 9508
L10176 9508
L10122 9527
" />
<path d="M9876 9508
L9801 9508
L9765 9527
L9733 9565
L9723 9640
L9740 9771
L9768 9846
L9810 9883
L9850 9902
L9925 9902
L9960 9883
L9993 9846
L10002 9771
L9986 9640
L9958 9565
L9915 9527
L9876 9508
" />
<path d="M9362 9902
L9470 9715
" />
<path d="M9587 9902
L9538 9508
L9388 9508
L9353 9527
L9337 9546
L9323 9583
L9330 9640
L9353 9677
L9374 9696
L9414 9715
L9564 9715
" />
<path d="M9095 9715
L9119 9902
" />
<path d="M9201 9508
L9095 9715
L8938 9508
" />
<path d="M8556 9902
L8507 9508
L8331 9902
L8282 9508
" />
<path d="M8118 9696
L7987 9696
" />
<path d="M7956 9902
L8144 9902
L8095 9508
L7907 9508
" />
<path d="M7738 9508
L7778 9827
L7764 9865
L7748 9883
L7713 9902
L7638 9902
L7598 9883
L7577 9865
L7553 9827
L7513 9508
" />
<path d="M7150 9902
L7258 9715
" />
<path d="M7375 9902
L7326 9508
L7176 9508
L7141 9527
L7124 9546
L7110 9583
L7117 9640
L7141 9677
L7162 9696
L7202 9715
L7352 9715
" />
<path d="M6857 9508
L6782 9508
L6747 9527
L6714 9565
L6705 9640
L6721 9771
L6749 9846
L6792 9883
L6831 9902
L6906 9902
L6942 9883
L6974 9846
L6984 9771
L6967 9640
L6939 9565
L6897 9527
L6857 9508
" />
<path d="M6569 9902
L6520 9508
L6344 9902
L6295 9508
" />
</g>
<g style="fill:#000000; fill-opacity:0.0; 
stroke:#000000; stroke-width:39.3701; stroke-opacity:1; 
stroke-linecap:round; stroke-linejoin:round;">
<path d="M15626.7 8425.2 A3626.54 3626.54 0.0 1 0 15626.7 5826.77 " />
<path d="M12831 8425
L15626 8425
" />
<path d="M12831 5826
L15626 5826
" />
<path d="M12831 8425
L12831 5826
" />
</g>
<g style="fill:#000000; fill-opacity:1.0; 
stroke:#000000; stroke-width:3.93701; stroke-opacity:1; 
stroke-linecap:round; stroke-linejoin:round;">
<polyline style="fill-rule:evenodd;"
points="5196,7732
5106,7782
5048,7845
5020,7918
5015,8004
5031,8087
5054,8130
5089,8171
5130,8203
5182,8229
5253,8252
5348,8272
5473,8292
5565,8306
5738,8328
5876,8344
5985,8351
6069,8352
6134,8345
6184,8331
6214,8315
6287,8250
6329,8166
6335,8105
6260,8105
6244,8148
6204,8196
6151,8240
6097,8269
6069,8274
6033,8272
5964,8265
5869,8254
5758,8240
5635,8224
5635,8224
5512,8206
5400,8188
5305,8171
5236,8155
5199,8144
5136,8092
5103,8027
5101,7956
5127,7890
5180,7839
5231,7817
5275,7813
5352,7815
5451,7821
5567,7832
5690,7846
5813,7861
5927,7878
6026,7895
6100,7911
6141,7925
6196,7969
6239,8032
6260,8096
6260,8105
6335,8105
6338,8074
6312,7983
6295,7954
6261,7909
6222,7873
6173,7845
6108,7821
6021,7801
5905,7782
5756,7762
5753,7762
5630,7747
5514,7734
5414,7724
5339,7717
5300,7715
5196,7732
" /> 
<polyline style="fill-rule:evenodd;"
points="7402,7626
7305,7638
7179,7660
7053,7684
6928,7710
6811,7736
6710,7760
6632,7780
6586,7796
6504,7849
6450,7922
6423,8007
6425,8095
6454,8178
6512,8247
6566,8281
6606,8297
6648,8307
6699,8310
6765,8306
6851,8295
6964,8276
7108,8249
7150,8241
7271,8217
7382,8192
7476,8169
7546,8150
7580,8138
7662,8078
7717,7993
7740,7892
7740,7879
7739,7862
7651,7862
7649,7921
7620,7986
7574,8039
7552,8053
7515,8066
7447,8084
7356,8105
7248,8127
7132,8150
7015,8172
6905,8192
6809,8208
6734,8218
6688,8221
6680,8221
6626,8201
6582,8176
6528,8118
6508,8049
6520,7978
6564,7916
6607,7886
6650,7871
6724,7850
6821,7827
6934,7802
7053,7777
7171,7755
7280,7736
7371,7722
7436,7715
7451,7714
7536,7732
7605,7779
7647,7848
7651,7862
7739,7862
7736,7820
7717,7775
7677,7726
7664,7714
7623,7675
7581,7647
7535,7630
7477,7623
7402,7626
" /> 
<polyline style="fill-rule:evenodd;"
points="8704,7312
8591,7333
8449,7365
8344,7390
8204,7425
8097,7453
8018,7476
7961,7496
7921,7515
7892,7534
7879,7545
7819,7627
7793,7718
7799,7809
7836,7892
7903,7960
7967,7993
8026,8008
8098,8011
8190,8001
8309,7977
8360,7965
8472,7938
8599,7909
8719,7881
8747,7875
8852,7849
8926,7823
8981,7795
9011,7771
9076,7692
9107,7602
9106,7570
9021,7570
9000,7641
8963,7688
8938,7710
8904,7729
8856,7748
8787,7769
8693,7794
8565,7824
8548,7828
8382,7865
8249,7892
8146,7907
8068,7912
8009,7906
7967,7891
7944,7874
7896,7806
7883,7731
7904,7659
7958,7600
7973,7590
8012,7574
8082,7552
8178,7525
8290,7496
8414,7467
8426,7464
8565,7432
8670,7410
8748,7396
8804,7389
8842,7389
8870,7394
8873,7396
8955,7442
9005,7502
9021,7570
9106,7570
9104,7511
9069,7426
9009,7362
8964,7332
8917,7312
8861,7302
8792,7302
8704,7312
" /> 
<polyline style="fill-rule:evenodd;"
points="3962,7086
3877,7121
3812,7185
3771,7274
3760,7359
3767,7429
3791,7484
3822,7523
3859,7555
3924,7602
4013,7660
4117,7725
4232,7793
4350,7861
4465,7925
4555,7972
4660,8008
4763,8009
4853,7976
4929,7914
4970,7838
4980,7759
4973,7711
4890,7711
4889,7788
4856,7856
4800,7904
4728,7926
4680,7923
4648,7910
4588,7880
4505,7837
4405,7783
4295,7722
4272,7708
4134,7629
4029,7564
3951,7510
3897,7464
3863,7423
3846,7384
3840,7342
3840,7341
3853,7298
3884,7247
3892,7236
3926,7201
3962,7180
4005,7173
4060,7182
4132,7208
4225,7252
4344,7315
4431,7362
4571,7441
4679,7505
4760,7557
4817,7601
4855,7639
4878,7676
4890,7711
4973,7711
4963,7649
4910,7556
4877,7521
4838,7492
4771,7450
4683,7399
4581,7342
4472,7282
4363,7225
4260,7173
4171,7129
4102,7099
4061,7085
4060,7084
3962,7086
" /> 
<polyline style="fill-rule:evenodd;"
points="10093,6948
9994,6965
9866,6992
9772,7014
9596,7057
9455,7095
9346,7131
9264,7168
9206,7207
9166,7250
9142,7301
9129,7360
9128,7369
9134,7464
9176,7547
9247,7613
9342,7654
9380,7662
9432,7661
9520,7648
9646,7623
9809,7586
9856,7574
10007,7536
10134,7501
10232,7471
10298,7446
10322,7433
10394,7359
10433,7263
10437,7223
10356,7223
10324,7292
10303,7319
10280,7342
10253,7361
10216,7380
10164,7398
10089,7420
9988,7447
9868,7477
9714,7515
9594,7542
9502,7560
9433,7569
9381,7568
9341,7560
9308,7543
9282,7523
9231,7458
9217,7386
9239,7315
9281,7267
9343,7226
9411,7198
9416,7196
9614,7145
9777,7104
9910,7073
10016,7052
10099,7040
10164,7037
10213,7043
10252,7056
10284,7076
10302,7093
10349,7158
10356,7223
10437,7223
10440,7193
10435,7136
10414,7091
10370,7039
10364,7034
10320,6993
10277,6965
10229,6948
10170,6942
10093,6948
" /> 
</g>
<g style="fill:#000000; fill-opacity:1.0; 
stroke:#000000; stroke-width:39.3701; stroke-opacity:1; 
stroke-linecap:round; stroke-linejoin:round;">
</g>
<g style="fill:#000000; fill-opacity:0.0; 
stroke:#000000; stroke-width:39.3701; stroke-opacity:1; 
stroke-linecap:round; stroke-linejoin:round;">
<path d="M4150 10866
L4051 10767
" />
<path d="M19012 10866
L4150 10866
" />
<path d="M1492 8208
L4051 10767
" />
<path d="M1492 6043
L1492 8208
" />
<path d="M4150 3385
L1492 6043
" />
<path d="M19012 3385
L4150 3385
" />
<path d="M19012.5 10866.1 A3740.16 3740.16 0.0 0 0 19012.5 3385.83 " />
</g> 
</svg>
